ISO-10303-21;
HEADER;
/* Generated by software containing ST-Developer
 * from STEP Tools, Inc. (www.steptools.com) 
 */
/* OPTION: strings as raw bytes, not using required /X/ escapes */

FILE_DESCRIPTION(
/* description */ ('Unknown'),
/* implementation_level */ '2;1');

FILE_NAME(
/* name */ 'C01_clearance_and_M3_nut_coupon',
/* time_stamp */ '2026-09-23T11:20:26+08:00',
/* author */ ('Unknown'),
/* organization */ ('Unknown'),
/* preprocessor_version */ 'ST-DEVELOPER v16.7',
/* originating_system */ 'Solid Edge',
/* authorisation */ 'Unknown');

FILE_SCHEMA (('AUTOMOTIVE_DESIGN {1 0 10303 214 3 1 1}'));
ENDSEC;

DATA;
#10=PROPERTY_DEFINITION_REPRESENTATION(#14,#12);
#11=PROPERTY_DEFINITION_REPRESENTATION(#15,#13);
#12=REPRESENTATION('',(#16),#1425);
#13=REPRESENTATION('',(#17),#1425);
#14=PROPERTY_DEFINITION('pmi validation property','',#1430);
#15=PROPERTY_DEFINITION('pmi validation property','',#1430);
#16=VALUE_REPRESENTATION_ITEM('number of annotations',COUNT_MEASURE(0.));
#17=VALUE_REPRESENTATION_ITEM('number of views',COUNT_MEASURE(0.));
#18=SHAPE_REPRESENTATION_RELATIONSHIP('','',#891,#19);
#19=ADVANCED_BREP_SHAPE_REPRESENTATION('',(#889),#1425);
#20=CYLINDRICAL_SURFACE('',#902,1.1);
#21=CYLINDRICAL_SURFACE('',#905,1.15);
#22=CYLINDRICAL_SURFACE('',#908,1.2);
#23=CYLINDRICAL_SURFACE('',#911,1.35);
#24=CYLINDRICAL_SURFACE('',#914,1.4);
#25=CYLINDRICAL_SURFACE('',#917,1.45);
#26=CYLINDRICAL_SURFACE('',#920,1.65);
#27=CYLINDRICAL_SURFACE('',#923,1.7);
#28=CYLINDRICAL_SURFACE('',#926,1.7);
#29=CYLINDRICAL_SURFACE('',#928,1.7);
#30=CYLINDRICAL_SURFACE('',#930,1.7);
#31=CYLINDRICAL_SURFACE('',#932,1.7);
#32=CIRCLE('',#894,1.7);
#33=CIRCLE('',#896,1.7);
#34=CIRCLE('',#898,1.7);
#35=CIRCLE('',#903,1.1);
#36=CIRCLE('',#904,1.1);
#37=CIRCLE('',#906,1.15);
#38=CIRCLE('',#907,1.15);
#39=CIRCLE('',#909,1.2);
#40=CIRCLE('',#910,1.2);
#41=CIRCLE('',#912,1.35);
#42=CIRCLE('',#913,1.35);
#43=CIRCLE('',#915,1.4);
#44=CIRCLE('',#916,1.4);
#45=CIRCLE('',#918,1.45);
#46=CIRCLE('',#919,1.45);
#47=CIRCLE('',#921,1.65);
#48=CIRCLE('',#922,1.65);
#49=CIRCLE('',#924,1.7);
#50=CIRCLE('',#925,1.7);
#51=CIRCLE('',#927,1.7);
#52=CIRCLE('',#929,1.7);
#53=CIRCLE('',#931,1.7);
#54=CIRCLE('',#933,1.7);
#55=CIRCLE('',#934,1.7);
#56=ORIENTED_EDGE('',*,*,#272,.T.);
#57=ORIENTED_EDGE('',*,*,#273,.T.);
#58=ORIENTED_EDGE('',*,*,#274,.T.);
#59=ORIENTED_EDGE('',*,*,#275,.T.);
#60=ORIENTED_EDGE('',*,*,#276,.T.);
#61=ORIENTED_EDGE('',*,*,#277,.T.);
#62=ORIENTED_EDGE('',*,*,#278,.F.);
#63=ORIENTED_EDGE('',*,*,#279,.T.);
#64=ORIENTED_EDGE('',*,*,#280,.T.);
#65=ORIENTED_EDGE('',*,*,#281,.T.);
#66=ORIENTED_EDGE('',*,*,#282,.T.);
#67=ORIENTED_EDGE('',*,*,#283,.T.);
#68=ORIENTED_EDGE('',*,*,#284,.T.);
#69=ORIENTED_EDGE('',*,*,#285,.F.);
#70=ORIENTED_EDGE('',*,*,#286,.T.);
#71=ORIENTED_EDGE('',*,*,#287,.T.);
#72=ORIENTED_EDGE('',*,*,#288,.T.);
#73=ORIENTED_EDGE('',*,*,#289,.T.);
#74=ORIENTED_EDGE('',*,*,#290,.T.);
#75=ORIENTED_EDGE('',*,*,#291,.T.);
#76=ORIENTED_EDGE('',*,*,#292,.F.);
#77=ORIENTED_EDGE('',*,*,#293,.T.);
#78=ORIENTED_EDGE('',*,*,#294,.F.);
#79=ORIENTED_EDGE('',*,*,#295,.F.);
#80=ORIENTED_EDGE('',*,*,#296,.T.);
#81=ORIENTED_EDGE('',*,*,#297,.T.);
#82=ORIENTED_EDGE('',*,*,#298,.F.);
#83=ORIENTED_EDGE('',*,*,#299,.F.);
#84=ORIENTED_EDGE('',*,*,#294,.T.);
#85=ORIENTED_EDGE('',*,*,#300,.T.);
#86=ORIENTED_EDGE('',*,*,#301,.F.);
#87=ORIENTED_EDGE('',*,*,#302,.F.);
#88=ORIENTED_EDGE('',*,*,#298,.T.);
#89=ORIENTED_EDGE('',*,*,#303,.F.);
#90=ORIENTED_EDGE('',*,*,#304,.T.);
#91=ORIENTED_EDGE('',*,*,#305,.F.);
#92=ORIENTED_EDGE('',*,*,#306,.T.);
#93=ORIENTED_EDGE('',*,*,#307,.F.);
#94=ORIENTED_EDGE('',*,*,#308,.T.);
#95=ORIENTED_EDGE('',*,*,#309,.F.);
#96=ORIENTED_EDGE('',*,*,#310,.T.);
#97=ORIENTED_EDGE('',*,*,#311,.F.);
#98=ORIENTED_EDGE('',*,*,#312,.T.);
#99=ORIENTED_EDGE('',*,*,#313,.F.);
#100=ORIENTED_EDGE('',*,*,#314,.T.);
#101=ORIENTED_EDGE('',*,*,#315,.F.);
#102=ORIENTED_EDGE('',*,*,#316,.T.);
#103=ORIENTED_EDGE('',*,*,#317,.F.);
#104=ORIENTED_EDGE('',*,*,#318,.T.);
#105=ORIENTED_EDGE('',*,*,#278,.T.);
#106=ORIENTED_EDGE('',*,*,#319,.F.);
#107=ORIENTED_EDGE('',*,*,#285,.T.);
#108=ORIENTED_EDGE('',*,*,#320,.F.);
#109=ORIENTED_EDGE('',*,*,#292,.T.);
#110=ORIENTED_EDGE('',*,*,#321,.F.);
#111=ORIENTED_EDGE('',*,*,#322,.T.);
#112=ORIENTED_EDGE('',*,*,#323,.F.);
#113=ORIENTED_EDGE('',*,*,#324,.T.);
#114=ORIENTED_EDGE('',*,*,#296,.F.);
#115=ORIENTED_EDGE('',*,*,#325,.F.);
#116=ORIENTED_EDGE('',*,*,#301,.T.);
#117=ORIENTED_EDGE('',*,*,#326,.T.);
#118=ORIENTED_EDGE('',*,*,#327,.T.);
#119=ORIENTED_EDGE('',*,*,#328,.T.);
#120=ORIENTED_EDGE('',*,*,#329,.T.);
#121=ORIENTED_EDGE('',*,*,#330,.T.);
#122=ORIENTED_EDGE('',*,*,#331,.T.);
#123=ORIENTED_EDGE('',*,*,#322,.F.);
#124=ORIENTED_EDGE('',*,*,#323,.T.);
#125=ORIENTED_EDGE('',*,*,#321,.T.);
#126=ORIENTED_EDGE('',*,*,#320,.T.);
#127=ORIENTED_EDGE('',*,*,#319,.T.);
#128=ORIENTED_EDGE('',*,*,#317,.T.);
#129=ORIENTED_EDGE('',*,*,#315,.T.);
#130=ORIENTED_EDGE('',*,*,#313,.T.);
#131=ORIENTED_EDGE('',*,*,#311,.T.);
#132=ORIENTED_EDGE('',*,*,#309,.T.);
#133=ORIENTED_EDGE('',*,*,#307,.T.);
#134=ORIENTED_EDGE('',*,*,#305,.T.);
#135=ORIENTED_EDGE('',*,*,#303,.T.);
#136=ORIENTED_EDGE('',*,*,#293,.F.);
#137=ORIENTED_EDGE('',*,*,#324,.F.);
#138=ORIENTED_EDGE('',*,*,#300,.F.);
#139=ORIENTED_EDGE('',*,*,#297,.F.);
#140=ORIENTED_EDGE('',*,*,#272,.F.);
#141=ORIENTED_EDGE('',*,*,#332,.F.);
#142=ORIENTED_EDGE('',*,*,#333,.T.);
#143=ORIENTED_EDGE('',*,*,#334,.T.);
#144=ORIENTED_EDGE('',*,*,#277,.F.);
#145=ORIENTED_EDGE('',*,*,#335,.F.);
#146=ORIENTED_EDGE('',*,*,#336,.T.);
#147=ORIENTED_EDGE('',*,*,#332,.T.);
#148=ORIENTED_EDGE('',*,*,#276,.F.);
#149=ORIENTED_EDGE('',*,*,#337,.F.);
#150=ORIENTED_EDGE('',*,*,#338,.T.);
#151=ORIENTED_EDGE('',*,*,#335,.T.);
#152=ORIENTED_EDGE('',*,*,#275,.F.);
#153=ORIENTED_EDGE('',*,*,#339,.F.);
#154=ORIENTED_EDGE('',*,*,#340,.T.);
#155=ORIENTED_EDGE('',*,*,#337,.T.);
#156=ORIENTED_EDGE('',*,*,#274,.F.);
#157=ORIENTED_EDGE('',*,*,#341,.F.);
#158=ORIENTED_EDGE('',*,*,#342,.T.);
#159=ORIENTED_EDGE('',*,*,#339,.T.);
#160=ORIENTED_EDGE('',*,*,#279,.F.);
#161=ORIENTED_EDGE('',*,*,#343,.F.);
#162=ORIENTED_EDGE('',*,*,#344,.T.);
#163=ORIENTED_EDGE('',*,*,#345,.T.);
#164=ORIENTED_EDGE('',*,*,#284,.F.);
#165=ORIENTED_EDGE('',*,*,#346,.F.);
#166=ORIENTED_EDGE('',*,*,#347,.T.);
#167=ORIENTED_EDGE('',*,*,#343,.T.);
#168=ORIENTED_EDGE('',*,*,#283,.F.);
#169=ORIENTED_EDGE('',*,*,#348,.F.);
#170=ORIENTED_EDGE('',*,*,#349,.T.);
#171=ORIENTED_EDGE('',*,*,#346,.T.);
#172=ORIENTED_EDGE('',*,*,#282,.F.);
#173=ORIENTED_EDGE('',*,*,#350,.F.);
#174=ORIENTED_EDGE('',*,*,#351,.T.);
#175=ORIENTED_EDGE('',*,*,#348,.T.);
#176=ORIENTED_EDGE('',*,*,#281,.F.);
#177=ORIENTED_EDGE('',*,*,#352,.F.);
#178=ORIENTED_EDGE('',*,*,#353,.T.);
#179=ORIENTED_EDGE('',*,*,#350,.T.);
#180=ORIENTED_EDGE('',*,*,#286,.F.);
#181=ORIENTED_EDGE('',*,*,#354,.F.);
#182=ORIENTED_EDGE('',*,*,#355,.T.);
#183=ORIENTED_EDGE('',*,*,#356,.T.);
#184=ORIENTED_EDGE('',*,*,#291,.F.);
#185=ORIENTED_EDGE('',*,*,#357,.F.);
#186=ORIENTED_EDGE('',*,*,#358,.T.);
#187=ORIENTED_EDGE('',*,*,#354,.T.);
#188=ORIENTED_EDGE('',*,*,#290,.F.);
#189=ORIENTED_EDGE('',*,*,#359,.F.);
#190=ORIENTED_EDGE('',*,*,#360,.T.);
#191=ORIENTED_EDGE('',*,*,#357,.T.);
#192=ORIENTED_EDGE('',*,*,#289,.F.);
#193=ORIENTED_EDGE('',*,*,#361,.F.);
#194=ORIENTED_EDGE('',*,*,#362,.T.);
#195=ORIENTED_EDGE('',*,*,#359,.T.);
#196=ORIENTED_EDGE('',*,*,#288,.F.);
#197=ORIENTED_EDGE('',*,*,#363,.F.);
#198=ORIENTED_EDGE('',*,*,#364,.T.);
#199=ORIENTED_EDGE('',*,*,#361,.T.);
#200=ORIENTED_EDGE('',*,*,#326,.F.);
#201=ORIENTED_EDGE('',*,*,#365,.F.);
#202=ORIENTED_EDGE('',*,*,#366,.T.);
#203=ORIENTED_EDGE('',*,*,#367,.T.);
#204=ORIENTED_EDGE('',*,*,#331,.F.);
#205=ORIENTED_EDGE('',*,*,#368,.F.);
#206=ORIENTED_EDGE('',*,*,#369,.T.);
#207=ORIENTED_EDGE('',*,*,#365,.T.);
#208=ORIENTED_EDGE('',*,*,#330,.F.);
#209=ORIENTED_EDGE('',*,*,#370,.F.);
#210=ORIENTED_EDGE('',*,*,#371,.T.);
#211=ORIENTED_EDGE('',*,*,#368,.T.);
#212=ORIENTED_EDGE('',*,*,#329,.F.);
#213=ORIENTED_EDGE('',*,*,#372,.F.);
#214=ORIENTED_EDGE('',*,*,#373,.T.);
#215=ORIENTED_EDGE('',*,*,#370,.T.);
#216=ORIENTED_EDGE('',*,*,#328,.F.);
#217=ORIENTED_EDGE('',*,*,#374,.F.);
#218=ORIENTED_EDGE('',*,*,#375,.T.);
#219=ORIENTED_EDGE('',*,*,#372,.T.);
#220=ORIENTED_EDGE('',*,*,#273,.F.);
#221=ORIENTED_EDGE('',*,*,#334,.F.);
#222=ORIENTED_EDGE('',*,*,#376,.T.);
#223=ORIENTED_EDGE('',*,*,#341,.T.);
#224=ORIENTED_EDGE('',*,*,#280,.F.);
#225=ORIENTED_EDGE('',*,*,#345,.F.);
#226=ORIENTED_EDGE('',*,*,#377,.T.);
#227=ORIENTED_EDGE('',*,*,#352,.T.);
#228=ORIENTED_EDGE('',*,*,#287,.F.);
#229=ORIENTED_EDGE('',*,*,#356,.F.);
#230=ORIENTED_EDGE('',*,*,#378,.T.);
#231=ORIENTED_EDGE('',*,*,#363,.T.);
#232=ORIENTED_EDGE('',*,*,#327,.F.);
#233=ORIENTED_EDGE('',*,*,#367,.F.);
#234=ORIENTED_EDGE('',*,*,#379,.T.);
#235=ORIENTED_EDGE('',*,*,#374,.T.);
#236=ORIENTED_EDGE('',*,*,#366,.F.);
#237=ORIENTED_EDGE('',*,*,#369,.F.);
#238=ORIENTED_EDGE('',*,*,#371,.F.);
#239=ORIENTED_EDGE('',*,*,#373,.F.);
#240=ORIENTED_EDGE('',*,*,#375,.F.);
#241=ORIENTED_EDGE('',*,*,#379,.F.);
#242=ORIENTED_EDGE('',*,*,#355,.F.);
#243=ORIENTED_EDGE('',*,*,#358,.F.);
#244=ORIENTED_EDGE('',*,*,#360,.F.);
#245=ORIENTED_EDGE('',*,*,#362,.F.);
#246=ORIENTED_EDGE('',*,*,#364,.F.);
#247=ORIENTED_EDGE('',*,*,#378,.F.);
#248=ORIENTED_EDGE('',*,*,#344,.F.);
#249=ORIENTED_EDGE('',*,*,#347,.F.);
#250=ORIENTED_EDGE('',*,*,#349,.F.);
#251=ORIENTED_EDGE('',*,*,#351,.F.);
#252=ORIENTED_EDGE('',*,*,#353,.F.);
#253=ORIENTED_EDGE('',*,*,#377,.F.);
#254=ORIENTED_EDGE('',*,*,#333,.F.);
#255=ORIENTED_EDGE('',*,*,#336,.F.);
#256=ORIENTED_EDGE('',*,*,#338,.F.);
#257=ORIENTED_EDGE('',*,*,#340,.F.);
#258=ORIENTED_EDGE('',*,*,#342,.F.);
#259=ORIENTED_EDGE('',*,*,#376,.F.);
#260=ORIENTED_EDGE('',*,*,#318,.F.);
#261=ORIENTED_EDGE('',*,*,#316,.F.);
#262=ORIENTED_EDGE('',*,*,#314,.F.);
#263=ORIENTED_EDGE('',*,*,#312,.F.);
#264=ORIENTED_EDGE('',*,*,#310,.F.);
#265=ORIENTED_EDGE('',*,*,#308,.F.);
#266=ORIENTED_EDGE('',*,*,#306,.F.);
#267=ORIENTED_EDGE('',*,*,#304,.F.);
#268=ORIENTED_EDGE('',*,*,#295,.T.);
#269=ORIENTED_EDGE('',*,*,#299,.T.);
#270=ORIENTED_EDGE('',*,*,#302,.T.);
#271=ORIENTED_EDGE('',*,*,#325,.T.);
#272=EDGE_CURVE('',#380,#381,#460,.T.);
#273=EDGE_CURVE('',#381,#382,#461,.T.);
#274=EDGE_CURVE('',#382,#383,#462,.T.);
#275=EDGE_CURVE('',#383,#384,#463,.T.);
#276=EDGE_CURVE('',#384,#385,#464,.T.);
#277=EDGE_CURVE('',#385,#380,#465,.T.);
#278=EDGE_CURVE('',#386,#386,#32,.T.);
#279=EDGE_CURVE('',#387,#388,#466,.T.);
#280=EDGE_CURVE('',#388,#389,#467,.T.);
#281=EDGE_CURVE('',#389,#390,#468,.T.);
#282=EDGE_CURVE('',#390,#391,#469,.T.);
#283=EDGE_CURVE('',#391,#392,#470,.T.);
#284=EDGE_CURVE('',#392,#387,#471,.T.);
#285=EDGE_CURVE('',#393,#393,#33,.T.);
#286=EDGE_CURVE('',#394,#395,#472,.T.);
#287=EDGE_CURVE('',#395,#396,#473,.T.);
#288=EDGE_CURVE('',#396,#397,#474,.T.);
#289=EDGE_CURVE('',#397,#398,#475,.T.);
#290=EDGE_CURVE('',#398,#399,#476,.T.);
#291=EDGE_CURVE('',#399,#394,#477,.T.);
#292=EDGE_CURVE('',#400,#400,#34,.T.);
#293=EDGE_CURVE('',#401,#402,#478,.T.);
#294=EDGE_CURVE('',#403,#402,#479,.T.);
#295=EDGE_CURVE('',#404,#403,#480,.T.);
#296=EDGE_CURVE('',#404,#401,#481,.T.);
#297=EDGE_CURVE('',#402,#405,#482,.T.);
#298=EDGE_CURVE('',#406,#405,#483,.T.);
#299=EDGE_CURVE('',#403,#406,#484,.T.);
#300=EDGE_CURVE('',#405,#407,#485,.T.);
#301=EDGE_CURVE('',#408,#407,#486,.T.);
#302=EDGE_CURVE('',#406,#408,#487,.T.);
#303=EDGE_CURVE('',#409,#409,#35,.T.);
#304=EDGE_CURVE('',#410,#410,#36,.T.);
#305=EDGE_CURVE('',#411,#411,#37,.T.);
#306=EDGE_CURVE('',#412,#412,#38,.T.);
#307=EDGE_CURVE('',#413,#413,#39,.T.);
#308=EDGE_CURVE('',#414,#414,#40,.T.);
#309=EDGE_CURVE('',#415,#415,#41,.T.);
#310=EDGE_CURVE('',#416,#416,#42,.T.);
#311=EDGE_CURVE('',#417,#417,#43,.T.);
#312=EDGE_CURVE('',#418,#418,#44,.T.);
#313=EDGE_CURVE('',#419,#419,#45,.T.);
#314=EDGE_CURVE('',#420,#420,#46,.T.);
#315=EDGE_CURVE('',#421,#421,#47,.T.);
#316=EDGE_CURVE('',#422,#422,#48,.T.);
#317=EDGE_CURVE('',#423,#423,#49,.T.);
#318=EDGE_CURVE('',#424,#424,#50,.T.);
#319=EDGE_CURVE('',#425,#425,#51,.T.);
#320=EDGE_CURVE('',#426,#426,#52,.T.);
#321=EDGE_CURVE('',#427,#427,#53,.T.);
#322=EDGE_CURVE('',#428,#428,#54,.T.);
#323=EDGE_CURVE('',#429,#429,#55,.T.);
#324=EDGE_CURVE('',#407,#401,#488,.T.);
#325=EDGE_CURVE('',#408,#404,#489,.T.);
#326=EDGE_CURVE('',#430,#431,#490,.T.);
#327=EDGE_CURVE('',#431,#432,#491,.T.);
#328=EDGE_CURVE('',#432,#433,#492,.T.);
#329=EDGE_CURVE('',#433,#434,#493,.T.);
#330=EDGE_CURVE('',#434,#435,#494,.T.);
#331=EDGE_CURVE('',#435,#430,#495,.T.);
#332=EDGE_CURVE('',#436,#380,#496,.T.);
#333=EDGE_CURVE('',#436,#437,#497,.T.);
#334=EDGE_CURVE('',#437,#381,#498,.T.);
#335=EDGE_CURVE('',#438,#385,#499,.T.);
#336=EDGE_CURVE('',#438,#436,#500,.T.);
#337=EDGE_CURVE('',#439,#384,#501,.T.);
#338=EDGE_CURVE('',#439,#438,#502,.T.);
#339=EDGE_CURVE('',#440,#383,#503,.T.);
#340=EDGE_CURVE('',#440,#439,#504,.T.);
#341=EDGE_CURVE('',#441,#382,#505,.T.);
#342=EDGE_CURVE('',#441,#440,#506,.T.);
#343=EDGE_CURVE('',#442,#387,#507,.T.);
#344=EDGE_CURVE('',#442,#443,#508,.T.);
#345=EDGE_CURVE('',#443,#388,#509,.T.);
#346=EDGE_CURVE('',#444,#392,#510,.T.);
#347=EDGE_CURVE('',#444,#442,#511,.T.);
#348=EDGE_CURVE('',#445,#391,#512,.T.);
#349=EDGE_CURVE('',#445,#444,#513,.T.);
#350=EDGE_CURVE('',#446,#390,#514,.T.);
#351=EDGE_CURVE('',#446,#445,#515,.T.);
#352=EDGE_CURVE('',#447,#389,#516,.T.);
#353=EDGE_CURVE('',#447,#446,#517,.T.);
#354=EDGE_CURVE('',#448,#394,#518,.T.);
#355=EDGE_CURVE('',#448,#449,#519,.T.);
#356=EDGE_CURVE('',#449,#395,#520,.T.);
#357=EDGE_CURVE('',#450,#399,#521,.T.);
#358=EDGE_CURVE('',#450,#448,#522,.T.);
#359=EDGE_CURVE('',#451,#398,#523,.T.);
#360=EDGE_CURVE('',#451,#450,#524,.T.);
#361=EDGE_CURVE('',#452,#397,#525,.T.);
#362=EDGE_CURVE('',#452,#451,#526,.T.);
#363=EDGE_CURVE('',#453,#396,#527,.T.);
#364=EDGE_CURVE('',#453,#452,#528,.T.);
#365=EDGE_CURVE('',#454,#430,#529,.T.);
#366=EDGE_CURVE('',#454,#455,#530,.T.);
#367=EDGE_CURVE('',#455,#431,#531,.T.);
#368=EDGE_CURVE('',#456,#435,#532,.T.);
#369=EDGE_CURVE('',#456,#454,#533,.T.);
#370=EDGE_CURVE('',#457,#434,#534,.T.);
#371=EDGE_CURVE('',#457,#456,#535,.T.);
#372=EDGE_CURVE('',#458,#433,#536,.T.);
#373=EDGE_CURVE('',#458,#457,#537,.T.);
#374=EDGE_CURVE('',#459,#432,#538,.T.);
#375=EDGE_CURVE('',#459,#458,#539,.T.);
#376=EDGE_CURVE('',#437,#441,#540,.T.);
#377=EDGE_CURVE('',#443,#447,#541,.T.);
#378=EDGE_CURVE('',#449,#453,#542,.T.);
#379=EDGE_CURVE('',#455,#459,#543,.T.);
#380=VERTEX_POINT('',#1192);
#381=VERTEX_POINT('',#1193);
#382=VERTEX_POINT('',#1195);
#383=VERTEX_POINT('',#1197);
#384=VERTEX_POINT('',#1199);
#385=VERTEX_POINT('',#1201);
#386=VERTEX_POINT('',#1204);
#387=VERTEX_POINT('',#1207);
#388=VERTEX_POINT('',#1208);
#389=VERTEX_POINT('',#1210);
#390=VERTEX_POINT('',#1212);
#391=VERTEX_POINT('',#1214);
#392=VERTEX_POINT('',#1216);
#393=VERTEX_POINT('',#1219);
#394=VERTEX_POINT('',#1222);
#395=VERTEX_POINT('',#1223);
#396=VERTEX_POINT('',#1225);
#397=VERTEX_POINT('',#1227);
#398=VERTEX_POINT('',#1229);
#399=VERTEX_POINT('',#1231);
#400=VERTEX_POINT('',#1234);
#401=VERTEX_POINT('',#1237);
#402=VERTEX_POINT('',#1238);
#403=VERTEX_POINT('',#1240);
#404=VERTEX_POINT('',#1242);
#405=VERTEX_POINT('',#1246);
#406=VERTEX_POINT('',#1248);
#407=VERTEX_POINT('',#1252);
#408=VERTEX_POINT('',#1254);
#409=VERTEX_POINT('',#1258);
#410=VERTEX_POINT('',#1260);
#411=VERTEX_POINT('',#1263);
#412=VERTEX_POINT('',#1265);
#413=VERTEX_POINT('',#1268);
#414=VERTEX_POINT('',#1270);
#415=VERTEX_POINT('',#1273);
#416=VERTEX_POINT('',#1275);
#417=VERTEX_POINT('',#1278);
#418=VERTEX_POINT('',#1280);
#419=VERTEX_POINT('',#1283);
#420=VERTEX_POINT('',#1285);
#421=VERTEX_POINT('',#1288);
#422=VERTEX_POINT('',#1290);
#423=VERTEX_POINT('',#1293);
#424=VERTEX_POINT('',#1295);
#425=VERTEX_POINT('',#1298);
#426=VERTEX_POINT('',#1301);
#427=VERTEX_POINT('',#1304);
#428=VERTEX_POINT('',#1307);
#429=VERTEX_POINT('',#1309);
#430=VERTEX_POINT('',#1315);
#431=VERTEX_POINT('',#1316);
#432=VERTEX_POINT('',#1318);
#433=VERTEX_POINT('',#1320);
#434=VERTEX_POINT('',#1322);
#435=VERTEX_POINT('',#1324);
#436=VERTEX_POINT('',#1329);
#437=VERTEX_POINT('',#1331);
#438=VERTEX_POINT('',#1335);
#439=VERTEX_POINT('',#1339);
#440=VERTEX_POINT('',#1343);
#441=VERTEX_POINT('',#1347);
#442=VERTEX_POINT('',#1351);
#443=VERTEX_POINT('',#1353);
#444=VERTEX_POINT('',#1357);
#445=VERTEX_POINT('',#1361);
#446=VERTEX_POINT('',#1365);
#447=VERTEX_POINT('',#1369);
#448=VERTEX_POINT('',#1373);
#449=VERTEX_POINT('',#1375);
#450=VERTEX_POINT('',#1379);
#451=VERTEX_POINT('',#1383);
#452=VERTEX_POINT('',#1387);
#453=VERTEX_POINT('',#1391);
#454=VERTEX_POINT('',#1395);
#455=VERTEX_POINT('',#1397);
#456=VERTEX_POINT('',#1401);
#457=VERTEX_POINT('',#1405);
#458=VERTEX_POINT('',#1409);
#459=VERTEX_POINT('',#1413);
#460=LINE('',#1191,#544);
#461=LINE('',#1194,#545);
#462=LINE('',#1196,#546);
#463=LINE('',#1198,#547);
#464=LINE('',#1200,#548);
#465=LINE('',#1202,#549);
#466=LINE('',#1206,#550);
#467=LINE('',#1209,#551);
#468=LINE('',#1211,#552);
#469=LINE('',#1213,#553);
#470=LINE('',#1215,#554);
#471=LINE('',#1217,#555);
#472=LINE('',#1221,#556);
#473=LINE('',#1224,#557);
#474=LINE('',#1226,#558);
#475=LINE('',#1228,#559);
#476=LINE('',#1230,#560);
#477=LINE('',#1232,#561);
#478=LINE('',#1236,#562);
#479=LINE('',#1239,#563);
#480=LINE('',#1241,#564);
#481=LINE('',#1243,#565);
#482=LINE('',#1245,#566);
#483=LINE('',#1247,#567);
#484=LINE('',#1249,#568);
#485=LINE('',#1251,#569);
#486=LINE('',#1253,#570);
#487=LINE('',#1255,#571);
#488=LINE('',#1311,#572);
#489=LINE('',#1312,#573);
#490=LINE('',#1314,#574);
#491=LINE('',#1317,#575);
#492=LINE('',#1319,#576);
#493=LINE('',#1321,#577);
#494=LINE('',#1323,#578);
#495=LINE('',#1325,#579);
#496=LINE('',#1328,#580);
#497=LINE('',#1330,#581);
#498=LINE('',#1332,#582);
#499=LINE('',#1334,#583);
#500=LINE('',#1336,#584);
#501=LINE('',#1338,#585);
#502=LINE('',#1340,#586);
#503=LINE('',#1342,#587);
#504=LINE('',#1344,#588);
#505=LINE('',#1346,#589);
#506=LINE('',#1348,#590);
#507=LINE('',#1350,#591);
#508=LINE('',#1352,#592);
#509=LINE('',#1354,#593);
#510=LINE('',#1356,#594);
#511=LINE('',#1358,#595);
#512=LINE('',#1360,#596);
#513=LINE('',#1362,#597);
#514=LINE('',#1364,#598);
#515=LINE('',#1366,#599);
#516=LINE('',#1368,#600);
#517=LINE('',#1370,#601);
#518=LINE('',#1372,#602);
#519=LINE('',#1374,#603);
#520=LINE('',#1376,#604);
#521=LINE('',#1378,#605);
#522=LINE('',#1380,#606);
#523=LINE('',#1382,#607);
#524=LINE('',#1384,#608);
#525=LINE('',#1386,#609);
#526=LINE('',#1388,#610);
#527=LINE('',#1390,#611);
#528=LINE('',#1392,#612);
#529=LINE('',#1394,#613);
#530=LINE('',#1396,#614);
#531=LINE('',#1398,#615);
#532=LINE('',#1400,#616);
#533=LINE('',#1402,#617);
#534=LINE('',#1404,#618);
#535=LINE('',#1406,#619);
#536=LINE('',#1408,#620);
#537=LINE('',#1410,#621);
#538=LINE('',#1412,#622);
#539=LINE('',#1414,#623);
#540=LINE('',#1416,#624);
#541=LINE('',#1418,#625);
#542=LINE('',#1420,#626);
#543=LINE('',#1422,#627);
#544=VECTOR('',#967,1000.);
#545=VECTOR('',#968,1000.);
#546=VECTOR('',#969,1000.);
#547=VECTOR('',#970,1000.);
#548=VECTOR('',#971,1000.);
#549=VECTOR('',#972,1000.);
#550=VECTOR('',#977,1000.);
#551=VECTOR('',#978,1000.);
#552=VECTOR('',#979,1000.);
#553=VECTOR('',#980,1000.);
#554=VECTOR('',#981,1000.);
#555=VECTOR('',#982,1000.);
#556=VECTOR('',#987,1000.);
#557=VECTOR('',#988,1000.);
#558=VECTOR('',#989,1000.);
#559=VECTOR('',#990,1000.);
#560=VECTOR('',#991,1000.);
#561=VECTOR('',#992,1000.);
#562=VECTOR('',#997,1000.);
#563=VECTOR('',#998,1000.);
#564=VECTOR('',#999,1000.);
#565=VECTOR('',#1000,1000.);
#566=VECTOR('',#1003,1000.);
#567=VECTOR('',#1004,1000.);
#568=VECTOR('',#1005,1000.);
#569=VECTOR('',#1008,1000.);
#570=VECTOR('',#1009,1000.);
#571=VECTOR('',#1010,1000.);
#572=VECTOR('',#1079,1000.);
#573=VECTOR('',#1080,1000.);
#574=VECTOR('',#1083,1000.);
#575=VECTOR('',#1084,1000.);
#576=VECTOR('',#1085,1000.);
#577=VECTOR('',#1086,1000.);
#578=VECTOR('',#1087,1000.);
#579=VECTOR('',#1088,1000.);
#580=VECTOR('',#1093,1000.);
#581=VECTOR('',#1094,1000.);
#582=VECTOR('',#1095,1000.);
#583=VECTOR('',#1098,1000.);
#584=VECTOR('',#1099,1000.);
#585=VECTOR('',#1102,1000.);
#586=VECTOR('',#1103,1000.);
#587=VECTOR('',#1106,1000.);
#588=VECTOR('',#1107,1000.);
#589=VECTOR('',#1110,1000.);
#590=VECTOR('',#1111,1000.);
#591=VECTOR('',#1114,1000.);
#592=VECTOR('',#1115,1000.);
#593=VECTOR('',#1116,1000.);
#594=VECTOR('',#1119,1000.);
#595=VECTOR('',#1120,1000.);
#596=VECTOR('',#1123,1000.);
#597=VECTOR('',#1124,1000.);
#598=VECTOR('',#1127,1000.);
#599=VECTOR('',#1128,1000.);
#600=VECTOR('',#1131,1000.);
#601=VECTOR('',#1132,1000.);
#602=VECTOR('',#1135,1000.);
#603=VECTOR('',#1136,1000.);
#604=VECTOR('',#1137,1000.);
#605=VECTOR('',#1140,1000.);
#606=VECTOR('',#1141,1000.);
#607=VECTOR('',#1144,1000.);
#608=VECTOR('',#1145,1000.);
#609=VECTOR('',#1148,1000.);
#610=VECTOR('',#1149,1000.);
#611=VECTOR('',#1152,1000.);
#612=VECTOR('',#1153,1000.);
#613=VECTOR('',#1156,1000.);
#614=VECTOR('',#1157,1000.);
#615=VECTOR('',#1158,1000.);
#616=VECTOR('',#1161,1000.);
#617=VECTOR('',#1162,1000.);
#618=VECTOR('',#1165,1000.);
#619=VECTOR('',#1166,1000.);
#620=VECTOR('',#1169,1000.);
#621=VECTOR('',#1170,1000.);
#622=VECTOR('',#1173,1000.);
#623=VECTOR('',#1174,1000.);
#624=VECTOR('',#1177,1000.);
#625=VECTOR('',#1180,1000.);
#626=VECTOR('',#1183,1000.);
#627=VECTOR('',#1186,1000.);
#628=EDGE_LOOP('',(#56,#57,#58,#59,#60,#61));
#629=EDGE_LOOP('',(#62));
#630=EDGE_LOOP('',(#63,#64,#65,#66,#67,#68));
#631=EDGE_LOOP('',(#69));
#632=EDGE_LOOP('',(#70,#71,#72,#73,#74,#75));
#633=EDGE_LOOP('',(#76));
#634=EDGE_LOOP('',(#77,#78,#79,#80));
#635=EDGE_LOOP('',(#81,#82,#83,#84));
#636=EDGE_LOOP('',(#85,#86,#87,#88));
#637=EDGE_LOOP('',(#89));
#638=EDGE_LOOP('',(#90));
#639=EDGE_LOOP('',(#91));
#640=EDGE_LOOP('',(#92));
#641=EDGE_LOOP('',(#93));
#642=EDGE_LOOP('',(#94));
#643=EDGE_LOOP('',(#95));
#644=EDGE_LOOP('',(#96));
#645=EDGE_LOOP('',(#97));
#646=EDGE_LOOP('',(#98));
#647=EDGE_LOOP('',(#99));
#648=EDGE_LOOP('',(#100));
#649=EDGE_LOOP('',(#101));
#650=EDGE_LOOP('',(#102));
#651=EDGE_LOOP('',(#103));
#652=EDGE_LOOP('',(#104));
#653=EDGE_LOOP('',(#105));
#654=EDGE_LOOP('',(#106));
#655=EDGE_LOOP('',(#107));
#656=EDGE_LOOP('',(#108));
#657=EDGE_LOOP('',(#109));
#658=EDGE_LOOP('',(#110));
#659=EDGE_LOOP('',(#111));
#660=EDGE_LOOP('',(#112));
#661=EDGE_LOOP('',(#113,#114,#115,#116));
#662=EDGE_LOOP('',(#117,#118,#119,#120,#121,#122));
#663=EDGE_LOOP('',(#123));
#664=EDGE_LOOP('',(#124));
#665=EDGE_LOOP('',(#125));
#666=EDGE_LOOP('',(#126));
#667=EDGE_LOOP('',(#127));
#668=EDGE_LOOP('',(#128));
#669=EDGE_LOOP('',(#129));
#670=EDGE_LOOP('',(#130));
#671=EDGE_LOOP('',(#131));
#672=EDGE_LOOP('',(#132));
#673=EDGE_LOOP('',(#133));
#674=EDGE_LOOP('',(#134));
#675=EDGE_LOOP('',(#135));
#676=EDGE_LOOP('',(#136,#137,#138,#139));
#677=EDGE_LOOP('',(#140,#141,#142,#143));
#678=EDGE_LOOP('',(#144,#145,#146,#147));
#679=EDGE_LOOP('',(#148,#149,#150,#151));
#680=EDGE_LOOP('',(#152,#153,#154,#155));
#681=EDGE_LOOP('',(#156,#157,#158,#159));
#682=EDGE_LOOP('',(#160,#161,#162,#163));
#683=EDGE_LOOP('',(#164,#165,#166,#167));
#684=EDGE_LOOP('',(#168,#169,#170,#171));
#685=EDGE_LOOP('',(#172,#173,#174,#175));
#686=EDGE_LOOP('',(#176,#177,#178,#179));
#687=EDGE_LOOP('',(#180,#181,#182,#183));
#688=EDGE_LOOP('',(#184,#185,#186,#187));
#689=EDGE_LOOP('',(#188,#189,#190,#191));
#690=EDGE_LOOP('',(#192,#193,#194,#195));
#691=EDGE_LOOP('',(#196,#197,#198,#199));
#692=EDGE_LOOP('',(#200,#201,#202,#203));
#693=EDGE_LOOP('',(#204,#205,#206,#207));
#694=EDGE_LOOP('',(#208,#209,#210,#211));
#695=EDGE_LOOP('',(#212,#213,#214,#215));
#696=EDGE_LOOP('',(#216,#217,#218,#219));
#697=EDGE_LOOP('',(#220,#221,#222,#223));
#698=EDGE_LOOP('',(#224,#225,#226,#227));
#699=EDGE_LOOP('',(#228,#229,#230,#231));
#700=EDGE_LOOP('',(#232,#233,#234,#235));
#701=EDGE_LOOP('',(#236,#237,#238,#239,#240,#241));
#702=EDGE_LOOP('',(#242,#243,#244,#245,#246,#247));
#703=EDGE_LOOP('',(#248,#249,#250,#251,#252,#253));
#704=EDGE_LOOP('',(#254,#255,#256,#257,#258,#259));
#705=EDGE_LOOP('',(#260));
#706=EDGE_LOOP('',(#261));
#707=EDGE_LOOP('',(#262));
#708=EDGE_LOOP('',(#263));
#709=EDGE_LOOP('',(#264));
#710=EDGE_LOOP('',(#265));
#711=EDGE_LOOP('',(#266));
#712=EDGE_LOOP('',(#267));
#713=EDGE_LOOP('',(#268,#269,#270,#271));
#714=FACE_BOUND('',#628,.T.);
#715=FACE_BOUND('',#629,.T.);
#716=FACE_BOUND('',#630,.T.);
#717=FACE_BOUND('',#631,.T.);
#718=FACE_BOUND('',#632,.T.);
#719=FACE_BOUND('',#633,.T.);
#720=FACE_BOUND('',#634,.T.);
#721=FACE_BOUND('',#635,.T.);
#722=FACE_BOUND('',#636,.T.);
#723=FACE_BOUND('',#637,.T.);
#724=FACE_BOUND('',#638,.T.);
#725=FACE_BOUND('',#639,.T.);
#726=FACE_BOUND('',#640,.T.);
#727=FACE_BOUND('',#641,.T.);
#728=FACE_BOUND('',#642,.T.);
#729=FACE_BOUND('',#643,.T.);
#730=FACE_BOUND('',#644,.T.);
#731=FACE_BOUND('',#645,.T.);
#732=FACE_BOUND('',#646,.T.);
#733=FACE_BOUND('',#647,.T.);
#734=FACE_BOUND('',#648,.T.);
#735=FACE_BOUND('',#649,.T.);
#736=FACE_BOUND('',#650,.T.);
#737=FACE_BOUND('',#651,.T.);
#738=FACE_BOUND('',#652,.T.);
#739=FACE_BOUND('',#653,.T.);
#740=FACE_BOUND('',#654,.T.);
#741=FACE_BOUND('',#655,.T.);
#742=FACE_BOUND('',#656,.T.);
#743=FACE_BOUND('',#657,.T.);
#744=FACE_BOUND('',#658,.T.);
#745=FACE_BOUND('',#659,.T.);
#746=FACE_BOUND('',#660,.T.);
#747=FACE_BOUND('',#661,.T.);
#748=FACE_BOUND('',#662,.T.);
#749=FACE_BOUND('',#663,.T.);
#750=FACE_BOUND('',#664,.T.);
#751=FACE_BOUND('',#665,.T.);
#752=FACE_BOUND('',#666,.T.);
#753=FACE_BOUND('',#667,.T.);
#754=FACE_BOUND('',#668,.T.);
#755=FACE_BOUND('',#669,.T.);
#756=FACE_BOUND('',#670,.T.);
#757=FACE_BOUND('',#671,.T.);
#758=FACE_BOUND('',#672,.T.);
#759=FACE_BOUND('',#673,.T.);
#760=FACE_BOUND('',#674,.T.);
#761=FACE_BOUND('',#675,.T.);
#762=FACE_BOUND('',#676,.T.);
#763=FACE_BOUND('',#677,.T.);
#764=FACE_BOUND('',#678,.T.);
#765=FACE_BOUND('',#679,.T.);
#766=FACE_BOUND('',#680,.T.);
#767=FACE_BOUND('',#681,.T.);
#768=FACE_BOUND('',#682,.T.);
#769=FACE_BOUND('',#683,.T.);
#770=FACE_BOUND('',#684,.T.);
#771=FACE_BOUND('',#685,.T.);
#772=FACE_BOUND('',#686,.T.);
#773=FACE_BOUND('',#687,.T.);
#774=FACE_BOUND('',#688,.T.);
#775=FACE_BOUND('',#689,.T.);
#776=FACE_BOUND('',#690,.T.);
#777=FACE_BOUND('',#691,.T.);
#778=FACE_BOUND('',#692,.T.);
#779=FACE_BOUND('',#693,.T.);
#780=FACE_BOUND('',#694,.T.);
#781=FACE_BOUND('',#695,.T.);
#782=FACE_BOUND('',#696,.T.);
#783=FACE_BOUND('',#697,.T.);
#784=FACE_BOUND('',#698,.T.);
#785=FACE_BOUND('',#699,.T.);
#786=FACE_BOUND('',#700,.T.);
#787=FACE_BOUND('',#701,.T.);
#788=FACE_BOUND('',#702,.T.);
#789=FACE_BOUND('',#703,.T.);
#790=FACE_BOUND('',#704,.T.);
#791=FACE_BOUND('',#705,.T.);
#792=FACE_BOUND('',#706,.T.);
#793=FACE_BOUND('',#707,.T.);
#794=FACE_BOUND('',#708,.T.);
#795=FACE_BOUND('',#709,.T.);
#796=FACE_BOUND('',#710,.T.);
#797=FACE_BOUND('',#711,.T.);
#798=FACE_BOUND('',#712,.T.);
#799=FACE_BOUND('',#713,.T.);
#800=PLANE('',#893);
#801=PLANE('',#895);
#802=PLANE('',#897);
#803=PLANE('',#899);
#804=PLANE('',#900);
#805=PLANE('',#901);
#806=PLANE('',#935);
#807=PLANE('',#936);
#808=PLANE('',#937);
#809=PLANE('',#938);
#810=PLANE('',#939);
#811=PLANE('',#940);
#812=PLANE('',#941);
#813=PLANE('',#942);
#814=PLANE('',#943);
#815=PLANE('',#944);
#816=PLANE('',#945);
#817=PLANE('',#946);
#818=PLANE('',#947);
#819=PLANE('',#948);
#820=PLANE('',#949);
#821=PLANE('',#950);
#822=PLANE('',#951);
#823=PLANE('',#952);
#824=PLANE('',#953);
#825=PLANE('',#954);
#826=PLANE('',#955);
#827=PLANE('',#956);
#828=PLANE('',#957);
#829=PLANE('',#958);
#830=PLANE('',#959);
#831=PLANE('',#960);
#832=PLANE('',#961);
#833=PLANE('',#962);
#834=ADVANCED_FACE('',(#714,#715),#800,.T.);
#835=ADVANCED_FACE('',(#716,#717),#801,.T.);
#836=ADVANCED_FACE('',(#718,#719),#802,.T.);
#837=ADVANCED_FACE('',(#720),#803,.F.);
#838=ADVANCED_FACE('',(#721),#804,.F.);
#839=ADVANCED_FACE('',(#722),#805,.F.);
#840=ADVANCED_FACE('',(#723,#724),#20,.F.);
#841=ADVANCED_FACE('',(#725,#726),#21,.F.);
#842=ADVANCED_FACE('',(#727,#728),#22,.F.);
#843=ADVANCED_FACE('',(#729,#730),#23,.F.);
#844=ADVANCED_FACE('',(#731,#732),#24,.F.);
#845=ADVANCED_FACE('',(#733,#734),#25,.F.);
#846=ADVANCED_FACE('',(#735,#736),#26,.F.);
#847=ADVANCED_FACE('',(#737,#738),#27,.F.);
#848=ADVANCED_FACE('',(#739,#740),#28,.F.);
#849=ADVANCED_FACE('',(#741,#742),#29,.F.);
#850=ADVANCED_FACE('',(#743,#744),#30,.F.);
#851=ADVANCED_FACE('',(#745,#746),#31,.F.);
#852=ADVANCED_FACE('',(#747),#806,.F.);
#853=ADVANCED_FACE('',(#748,#749),#807,.T.);
#854=ADVANCED_FACE('',(#750,#751,#752,#753,#754,#755,#756,#757,#758,#759,
#760,#761,#762),#808,.F.);
#855=ADVANCED_FACE('',(#763),#809,.T.);
#856=ADVANCED_FACE('',(#764),#810,.T.);
#857=ADVANCED_FACE('',(#765),#811,.T.);
#858=ADVANCED_FACE('',(#766),#812,.T.);
#859=ADVANCED_FACE('',(#767),#813,.T.);
#860=ADVANCED_FACE('',(#768),#814,.T.);
#861=ADVANCED_FACE('',(#769),#815,.T.);
#862=ADVANCED_FACE('',(#770),#816,.T.);
#863=ADVANCED_FACE('',(#771),#817,.T.);
#864=ADVANCED_FACE('',(#772),#818,.T.);
#865=ADVANCED_FACE('',(#773),#819,.T.);
#866=ADVANCED_FACE('',(#774),#820,.T.);
#867=ADVANCED_FACE('',(#775),#821,.T.);
#868=ADVANCED_FACE('',(#776),#822,.T.);
#869=ADVANCED_FACE('',(#777),#823,.T.);
#870=ADVANCED_FACE('',(#778),#824,.T.);
#871=ADVANCED_FACE('',(#779),#825,.T.);
#872=ADVANCED_FACE('',(#780),#826,.T.);
#873=ADVANCED_FACE('',(#781),#827,.T.);
#874=ADVANCED_FACE('',(#782),#828,.T.);
#875=ADVANCED_FACE('',(#783),#829,.T.);
#876=ADVANCED_FACE('',(#784),#830,.T.);
#877=ADVANCED_FACE('',(#785),#831,.T.);
#878=ADVANCED_FACE('',(#786),#832,.T.);
#879=ADVANCED_FACE('',(#787,#788,#789,#790,#791,#792,#793,#794,#795,#796,
#797,#798,#799),#833,.T.);
#880=CLOSED_SHELL('',(#834,#835,#836,#837,#838,#839,#840,#841,#842,#843,
#844,#845,#846,#847,#848,#849,#850,#851,#852,#853,#854,#855,#856,#857,#858,
#859,#860,#861,#862,#863,#864,#865,#866,#867,#868,#869,#870,#871,#872,#873,
#874,#875,#876,#877,#878,#879));
#881=STYLED_ITEM('',(#882),#889);
#882=PRESENTATION_STYLE_ASSIGNMENT((#883));
#883=SURFACE_STYLE_USAGE(.BOTH.,#884);
#884=SURFACE_SIDE_STYLE('',(#885));
#885=SURFACE_STYLE_FILL_AREA(#886);
#886=FILL_AREA_STYLE('',(#887));
#887=FILL_AREA_STYLE_COLOUR('',#888);
#888=COLOUR_RGB('',0.506983280181885,0.531564235687256,0.550000011920929);
#889=MANIFOLD_SOLID_BREP('',#880);
#890=SHAPE_DEFINITION_REPRESENTATION(#1430,#891);
#891=SHAPE_REPRESENTATION('C01_clearance_and_M3_nut_coupon',(#892),#1425);
#892=AXIS2_PLACEMENT_3D('',#1189,#963,#964);
#893=AXIS2_PLACEMENT_3D('',#1190,#965,#966);
#894=AXIS2_PLACEMENT_3D('',#1203,#973,#974);
#895=AXIS2_PLACEMENT_3D('',#1205,#975,#976);
#896=AXIS2_PLACEMENT_3D('',#1218,#983,#984);
#897=AXIS2_PLACEMENT_3D('',#1220,#985,#986);
#898=AXIS2_PLACEMENT_3D('',#1233,#993,#994);
#899=AXIS2_PLACEMENT_3D('',#1235,#995,#996);
#900=AXIS2_PLACEMENT_3D('',#1244,#1001,#1002);
#901=AXIS2_PLACEMENT_3D('',#1250,#1006,#1007);
#902=AXIS2_PLACEMENT_3D('',#1256,#1011,#1012);
#903=AXIS2_PLACEMENT_3D('',#1257,#1013,#1014);
#904=AXIS2_PLACEMENT_3D('',#1259,#1015,#1016);
#905=AXIS2_PLACEMENT_3D('',#1261,#1017,#1018);
#906=AXIS2_PLACEMENT_3D('',#1262,#1019,#1020);
#907=AXIS2_PLACEMENT_3D('',#1264,#1021,#1022);
#908=AXIS2_PLACEMENT_3D('',#1266,#1023,#1024);
#909=AXIS2_PLACEMENT_3D('',#1267,#1025,#1026);
#910=AXIS2_PLACEMENT_3D('',#1269,#1027,#1028);
#911=AXIS2_PLACEMENT_3D('',#1271,#1029,#1030);
#912=AXIS2_PLACEMENT_3D('',#1272,#1031,#1032);
#913=AXIS2_PLACEMENT_3D('',#1274,#1033,#1034);
#914=AXIS2_PLACEMENT_3D('',#1276,#1035,#1036);
#915=AXIS2_PLACEMENT_3D('',#1277,#1037,#1038);
#916=AXIS2_PLACEMENT_3D('',#1279,#1039,#1040);
#917=AXIS2_PLACEMENT_3D('',#1281,#1041,#1042);
#918=AXIS2_PLACEMENT_3D('',#1282,#1043,#1044);
#919=AXIS2_PLACEMENT_3D('',#1284,#1045,#1046);
#920=AXIS2_PLACEMENT_3D('',#1286,#1047,#1048);
#921=AXIS2_PLACEMENT_3D('',#1287,#1049,#1050);
#922=AXIS2_PLACEMENT_3D('',#1289,#1051,#1052);
#923=AXIS2_PLACEMENT_3D('',#1291,#1053,#1054);
#924=AXIS2_PLACEMENT_3D('',#1292,#1055,#1056);
#925=AXIS2_PLACEMENT_3D('',#1294,#1057,#1058);
#926=AXIS2_PLACEMENT_3D('',#1296,#1059,#1060);
#927=AXIS2_PLACEMENT_3D('',#1297,#1061,#1062);
#928=AXIS2_PLACEMENT_3D('',#1299,#1063,#1064);
#929=AXIS2_PLACEMENT_3D('',#1300,#1065,#1066);
#930=AXIS2_PLACEMENT_3D('',#1302,#1067,#1068);
#931=AXIS2_PLACEMENT_3D('',#1303,#1069,#1070);
#932=AXIS2_PLACEMENT_3D('',#1305,#1071,#1072);
#933=AXIS2_PLACEMENT_3D('',#1306,#1073,#1074);
#934=AXIS2_PLACEMENT_3D('',#1308,#1075,#1076);
#935=AXIS2_PLACEMENT_3D('',#1310,#1077,#1078);
#936=AXIS2_PLACEMENT_3D('',#1313,#1081,#1082);
#937=AXIS2_PLACEMENT_3D('',#1326,#1089,#1090);
#938=AXIS2_PLACEMENT_3D('',#1327,#1091,#1092);
#939=AXIS2_PLACEMENT_3D('',#1333,#1096,#1097);
#940=AXIS2_PLACEMENT_3D('',#1337,#1100,#1101);
#941=AXIS2_PLACEMENT_3D('',#1341,#1104,#1105);
#942=AXIS2_PLACEMENT_3D('',#1345,#1108,#1109);
#943=AXIS2_PLACEMENT_3D('',#1349,#1112,#1113);
#944=AXIS2_PLACEMENT_3D('',#1355,#1117,#1118);
#945=AXIS2_PLACEMENT_3D('',#1359,#1121,#1122);
#946=AXIS2_PLACEMENT_3D('',#1363,#1125,#1126);
#947=AXIS2_PLACEMENT_3D('',#1367,#1129,#1130);
#948=AXIS2_PLACEMENT_3D('',#1371,#1133,#1134);
#949=AXIS2_PLACEMENT_3D('',#1377,#1138,#1139);
#950=AXIS2_PLACEMENT_3D('',#1381,#1142,#1143);
#951=AXIS2_PLACEMENT_3D('',#1385,#1146,#1147);
#952=AXIS2_PLACEMENT_3D('',#1389,#1150,#1151);
#953=AXIS2_PLACEMENT_3D('',#1393,#1154,#1155);
#954=AXIS2_PLACEMENT_3D('',#1399,#1159,#1160);
#955=AXIS2_PLACEMENT_3D('',#1403,#1163,#1164);
#956=AXIS2_PLACEMENT_3D('',#1407,#1167,#1168);
#957=AXIS2_PLACEMENT_3D('',#1411,#1171,#1172);
#958=AXIS2_PLACEMENT_3D('',#1415,#1175,#1176);
#959=AXIS2_PLACEMENT_3D('',#1417,#1178,#1179);
#960=AXIS2_PLACEMENT_3D('',#1419,#1181,#1182);
#961=AXIS2_PLACEMENT_3D('',#1421,#1184,#1185);
#962=AXIS2_PLACEMENT_3D('',#1423,#1187,#1188);
#963=DIRECTION('',(0.,0.,1.));
#964=DIRECTION('',(1.,0.,0.));
#965=DIRECTION('',(0.,0.,1.));
#966=DIRECTION('',(1.,0.,0.));
#967=DIRECTION('',(0.5,0.866025403784439,0.));
#968=DIRECTION('',(-0.5,0.866025403784439,0.));
#969=DIRECTION('',(-1.,0.,0.));
#970=DIRECTION('',(-0.5,-0.866025403784439,0.));
#971=DIRECTION('',(0.5,-0.866025403784439,0.));
#972=DIRECTION('',(1.,0.,0.));
#973=DIRECTION('',(0.,0.,1.));
#974=DIRECTION('',(1.,0.,0.));
#975=DIRECTION('',(0.,0.,1.));
#976=DIRECTION('',(1.,0.,0.));
#977=DIRECTION('',(0.500000000000001,0.866025403784438,0.));
#978=DIRECTION('',(-0.500000000000001,0.866025403784438,0.));
#979=DIRECTION('',(-1.,0.,0.));
#980=DIRECTION('',(-0.5,-0.866025403784439,0.));
#981=DIRECTION('',(0.499999999999999,-0.866025403784439,0.));
#982=DIRECTION('',(1.,0.,0.));
#983=DIRECTION('',(0.,0.,1.));
#984=DIRECTION('',(1.,0.,0.));
#985=DIRECTION('',(0.,0.,1.));
#986=DIRECTION('',(1.,0.,0.));
#987=DIRECTION('',(0.500000000000002,0.866025403784437,0.));
#988=DIRECTION('',(-0.500000000000002,0.866025403784438,0.));
#989=DIRECTION('',(-1.,0.,0.));
#990=DIRECTION('',(-0.500000000000002,-0.866025403784438,0.));
#991=DIRECTION('',(0.500000000000001,-0.866025403784438,0.));
#992=DIRECTION('',(1.,0.,0.));
#993=DIRECTION('',(0.,0.,1.));
#994=DIRECTION('',(1.,0.,0.));
#995=DIRECTION('',(1.,0.,0.));
#996=DIRECTION('',(0.,0.,-1.));
#997=DIRECTION('',(0.,-1.,0.));
#998=DIRECTION('',(0.,0.,-1.));
#999=DIRECTION('',(0.,-1.,0.));
#1000=DIRECTION('',(0.,0.,-1.));
#1001=DIRECTION('',(0.,1.,0.));
#1002=DIRECTION('',(0.,0.,1.));
#1003=DIRECTION('',(1.,0.,0.));
#1004=DIRECTION('',(0.,0.,-1.));
#1005=DIRECTION('',(1.,0.,0.));
#1006=DIRECTION('',(-1.,0.,0.));
#1007=DIRECTION('',(0.,0.,1.));
#1008=DIRECTION('',(0.,1.,0.));
#1009=DIRECTION('',(0.,0.,-1.));
#1010=DIRECTION('',(0.,1.,0.));
#1011=DIRECTION('',(0.,0.,-1.));
#1012=DIRECTION('',(-1.,0.,0.));
#1013=DIRECTION('',(0.,0.,1.));
#1014=DIRECTION('',(1.,0.,0.));
#1015=DIRECTION('',(0.,0.,1.));
#1016=DIRECTION('',(1.,0.,0.));
#1017=DIRECTION('',(0.,0.,-1.));
#1018=DIRECTION('',(-1.,0.,0.));
#1019=DIRECTION('',(0.,0.,1.));
#1020=DIRECTION('',(1.,0.,0.));
#1021=DIRECTION('',(0.,0.,1.));
#1022=DIRECTION('',(1.,0.,0.));
#1023=DIRECTION('',(0.,0.,-1.));
#1024=DIRECTION('',(-1.,0.,0.));
#1025=DIRECTION('',(0.,0.,1.));
#1026=DIRECTION('',(1.,0.,0.));
#1027=DIRECTION('',(0.,0.,1.));
#1028=DIRECTION('',(1.,0.,0.));
#1029=DIRECTION('',(0.,0.,-1.));
#1030=DIRECTION('',(-1.,0.,0.));
#1031=DIRECTION('',(0.,0.,1.));
#1032=DIRECTION('',(1.,0.,0.));
#1033=DIRECTION('',(0.,0.,1.));
#1034=DIRECTION('',(1.,0.,0.));
#1035=DIRECTION('',(0.,0.,-1.));
#1036=DIRECTION('',(-1.,0.,0.));
#1037=DIRECTION('',(0.,0.,1.));
#1038=DIRECTION('',(1.,0.,0.));
#1039=DIRECTION('',(0.,0.,1.));
#1040=DIRECTION('',(1.,0.,0.));
#1041=DIRECTION('',(0.,0.,-1.));
#1042=DIRECTION('',(-1.,0.,0.));
#1043=DIRECTION('',(0.,0.,1.));
#1044=DIRECTION('',(1.,0.,0.));
#1045=DIRECTION('',(0.,0.,1.));
#1046=DIRECTION('',(1.,0.,0.));
#1047=DIRECTION('',(0.,0.,-1.));
#1048=DIRECTION('',(-1.,0.,0.));
#1049=DIRECTION('',(0.,0.,1.));
#1050=DIRECTION('',(1.,0.,0.));
#1051=DIRECTION('',(0.,0.,1.));
#1052=DIRECTION('',(1.,0.,0.));
#1053=DIRECTION('',(0.,0.,-1.));
#1054=DIRECTION('',(-1.,0.,0.));
#1055=DIRECTION('',(0.,0.,1.));
#1056=DIRECTION('',(1.,0.,0.));
#1057=DIRECTION('',(0.,0.,1.));
#1058=DIRECTION('',(1.,0.,0.));
#1059=DIRECTION('',(0.,0.,-1.));
#1060=DIRECTION('',(-1.,0.,0.));
#1061=DIRECTION('',(0.,0.,1.));
#1062=DIRECTION('',(1.,0.,0.));
#1063=DIRECTION('',(0.,0.,-1.));
#1064=DIRECTION('',(-1.,0.,0.));
#1065=DIRECTION('',(0.,0.,1.));
#1066=DIRECTION('',(1.,0.,0.));
#1067=DIRECTION('',(0.,0.,-1.));
#1068=DIRECTION('',(-1.,0.,0.));
#1069=DIRECTION('',(0.,0.,1.));
#1070=DIRECTION('',(1.,0.,0.));
#1071=DIRECTION('',(0.,0.,-1.));
#1072=DIRECTION('',(-1.,0.,0.));
#1073=DIRECTION('',(0.,0.,1.));
#1074=DIRECTION('',(1.,0.,0.));
#1075=DIRECTION('',(0.,0.,1.));
#1076=DIRECTION('',(1.,0.,0.));
#1077=DIRECTION('',(0.,-1.,0.));
#1078=DIRECTION('',(0.,0.,-1.));
#1079=DIRECTION('',(-1.,0.,0.));
#1080=DIRECTION('',(-1.,0.,0.));
#1081=DIRECTION('',(0.,0.,1.));
#1082=DIRECTION('',(1.,0.,0.));
#1083=DIRECTION('',(0.499999999999998,0.86602540378444,0.));
#1084=DIRECTION('',(-0.499999999999998,0.86602540378444,0.));
#1085=DIRECTION('',(-1.,0.,0.));
#1086=DIRECTION('',(-0.500000000000001,-0.866025403784438,0.));
#1087=DIRECTION('',(0.500000000000001,-0.866025403784438,0.));
#1088=DIRECTION('',(1.,0.,0.));
#1089=DIRECTION('',(0.,0.,1.));
#1090=DIRECTION('',(1.,0.,0.));
#1091=DIRECTION('',(-0.866025403784439,0.5,0.));
#1092=DIRECTION('',(-0.5,-0.866025403784439,0.));
#1093=DIRECTION('',(0.,0.,-1.));
#1094=DIRECTION('',(0.5,0.866025403784439,0.));
#1095=DIRECTION('',(0.,0.,-1.));
#1096=DIRECTION('',(0.,1.,0.));
#1097=DIRECTION('',(0.,0.,1.));
#1098=DIRECTION('',(0.,0.,-1.));
#1099=DIRECTION('',(1.,0.,0.));
#1100=DIRECTION('',(0.866025403784439,0.5,0.));
#1101=DIRECTION('',(-0.5,0.866025403784439,0.));
#1102=DIRECTION('',(0.,0.,-1.));
#1103=DIRECTION('',(0.5,-0.866025403784439,0.));
#1104=DIRECTION('',(0.866025403784439,-0.5,0.));
#1105=DIRECTION('',(0.5,0.866025403784439,0.));
#1106=DIRECTION('',(0.,0.,-1.));
#1107=DIRECTION('',(-0.5,-0.866025403784439,0.));
#1108=DIRECTION('',(0.,-1.,0.));
#1109=DIRECTION('',(0.,0.,-1.));
#1110=DIRECTION('',(0.,0.,-1.));
#1111=DIRECTION('',(-1.,0.,0.));
#1112=DIRECTION('',(-0.866025403784438,0.500000000000001,0.));
#1113=DIRECTION('',(-0.500000000000001,-0.866025403784438,0.));
#1114=DIRECTION('',(0.,0.,-1.));
#1115=DIRECTION('',(0.500000000000001,0.866025403784438,0.));
#1116=DIRECTION('',(0.,0.,-1.));
#1117=DIRECTION('',(0.,1.,0.));
#1118=DIRECTION('',(0.,0.,1.));
#1119=DIRECTION('',(0.,0.,-1.));
#1120=DIRECTION('',(1.,0.,0.));
#1121=DIRECTION('',(0.866025403784439,0.499999999999999,0.));
#1122=DIRECTION('',(-0.499999999999999,0.866025403784439,0.));
#1123=DIRECTION('',(0.,0.,-1.));
#1124=DIRECTION('',(0.499999999999999,-0.866025403784439,0.));
#1125=DIRECTION('',(0.866025403784439,-0.5,0.));
#1126=DIRECTION('',(0.5,0.866025403784439,0.));
#1127=DIRECTION('',(0.,0.,-1.));
#1128=DIRECTION('',(-0.5,-0.866025403784439,0.));
#1129=DIRECTION('',(0.,-1.,0.));
#1130=DIRECTION('',(0.,0.,-1.));
#1131=DIRECTION('',(0.,0.,-1.));
#1132=DIRECTION('',(-1.,0.,0.));
#1133=DIRECTION('',(-0.866025403784437,0.500000000000002,0.));
#1134=DIRECTION('',(-0.500000000000002,-0.866025403784437,0.));
#1135=DIRECTION('',(0.,0.,-1.));
#1136=DIRECTION('',(0.500000000000002,0.866025403784437,0.));
#1137=DIRECTION('',(0.,0.,-1.));
#1138=DIRECTION('',(0.,1.,0.));
#1139=DIRECTION('',(0.,0.,1.));
#1140=DIRECTION('',(0.,0.,-1.));
#1141=DIRECTION('',(1.,0.,0.));
#1142=DIRECTION('',(0.866025403784438,0.500000000000001,0.));
#1143=DIRECTION('',(-0.500000000000001,0.866025403784438,0.));
#1144=DIRECTION('',(0.,0.,-1.));
#1145=DIRECTION('',(0.500000000000001,-0.866025403784438,0.));
#1146=DIRECTION('',(0.866025403784438,-0.500000000000002,0.));
#1147=DIRECTION('',(0.500000000000002,0.866025403784438,0.));
#1148=DIRECTION('',(0.,0.,-1.));
#1149=DIRECTION('',(-0.500000000000002,-0.866025403784438,0.));
#1150=DIRECTION('',(0.,-1.,0.));
#1151=DIRECTION('',(0.,0.,-1.));
#1152=DIRECTION('',(0.,0.,-1.));
#1153=DIRECTION('',(-1.,0.,0.));
#1154=DIRECTION('',(-0.86602540378444,0.499999999999998,0.));
#1155=DIRECTION('',(-0.499999999999998,-0.86602540378444,0.));
#1156=DIRECTION('',(0.,0.,-1.));
#1157=DIRECTION('',(0.499999999999998,0.86602540378444,0.));
#1158=DIRECTION('',(0.,0.,-1.));
#1159=DIRECTION('',(0.,1.,0.));
#1160=DIRECTION('',(0.,0.,1.));
#1161=DIRECTION('',(0.,0.,-1.));
#1162=DIRECTION('',(1.,0.,0.));
#1163=DIRECTION('',(0.866025403784438,0.500000000000001,0.));
#1164=DIRECTION('',(-0.500000000000001,0.866025403784438,0.));
#1165=DIRECTION('',(0.,0.,-1.));
#1166=DIRECTION('',(0.500000000000001,-0.866025403784438,0.));
#1167=DIRECTION('',(0.866025403784438,-0.500000000000001,0.));
#1168=DIRECTION('',(0.500000000000001,0.866025403784438,0.));
#1169=DIRECTION('',(0.,0.,-1.));
#1170=DIRECTION('',(-0.500000000000001,-0.866025403784438,0.));
#1171=DIRECTION('',(0.,-1.,0.));
#1172=DIRECTION('',(0.,0.,-1.));
#1173=DIRECTION('',(0.,0.,-1.));
#1174=DIRECTION('',(-1.,0.,0.));
#1175=DIRECTION('',(-0.866025403784439,-0.5,0.));
#1176=DIRECTION('',(0.5,-0.866025403784439,0.));
#1177=DIRECTION('',(-0.5,0.866025403784439,0.));
#1178=DIRECTION('',(-0.866025403784438,-0.500000000000001,0.));
#1179=DIRECTION('',(0.500000000000001,-0.866025403784438,0.));
#1180=DIRECTION('',(-0.500000000000001,0.866025403784438,0.));
#1181=DIRECTION('',(-0.866025403784438,-0.500000000000002,0.));
#1182=DIRECTION('',(0.500000000000002,-0.866025403784438,0.));
#1183=DIRECTION('',(-0.500000000000002,0.866025403784438,0.));
#1184=DIRECTION('',(-0.86602540378444,-0.499999999999998,0.));
#1185=DIRECTION('',(0.499999999999998,-0.86602540378444,0.));
#1186=DIRECTION('',(-0.499999999999998,0.86602540378444,0.));
#1187=DIRECTION('',(0.,0.,1.));
#1188=DIRECTION('',(1.,0.,0.));
#1189=CARTESIAN_POINT('',(0.,0.,0.));
#1190=CARTESIAN_POINT('',(0.,0.,1.5));
#1191=CARTESIAN_POINT('',(13.616580753731,23.2,1.5));
#1192=CARTESIAN_POINT('',(13.616580753731,23.2,1.5));
#1193=CARTESIAN_POINT('',(15.2331615074619,26.,1.5));
#1194=CARTESIAN_POINT('',(15.2331615074619,26.,1.5));
#1195=CARTESIAN_POINT('',(13.616580753731,28.8,1.5));
#1196=CARTESIAN_POINT('',(13.616580753731,28.8,1.5));
#1197=CARTESIAN_POINT('',(10.383419246269,28.8,1.5));
#1198=CARTESIAN_POINT('',(10.383419246269,28.8,1.5));
#1199=CARTESIAN_POINT('',(8.7668384925381,26.,1.5));
#1200=CARTESIAN_POINT('',(8.7668384925381,26.,1.5));
#1201=CARTESIAN_POINT('',(10.383419246269,23.2,1.5));
#1202=CARTESIAN_POINT('',(10.383419246269,23.2,1.5));
#1203=CARTESIAN_POINT('',(12.,26.,1.5));
#1204=CARTESIAN_POINT('',(13.7,26.,1.5));
#1205=CARTESIAN_POINT('',(0.,0.,1.5));
#1206=CARTESIAN_POINT('',(33.6454482671904,23.15,1.5));
#1207=CARTESIAN_POINT('',(33.6454482671904,23.15,1.5));
#1208=CARTESIAN_POINT('',(35.2908965343809,26.,1.5));
#1209=CARTESIAN_POINT('',(35.2908965343809,26.,1.5));
#1210=CARTESIAN_POINT('',(33.6454482671904,28.85,1.5));
#1211=CARTESIAN_POINT('',(33.6454482671904,28.85,1.5));
#1212=CARTESIAN_POINT('',(30.3545517328096,28.85,1.5));
#1213=CARTESIAN_POINT('',(30.3545517328096,28.85,1.5));
#1214=CARTESIAN_POINT('',(28.7091034656191,26.,1.5));
#1215=CARTESIAN_POINT('',(28.7091034656191,26.,1.5));
#1216=CARTESIAN_POINT('',(30.3545517328096,23.15,1.5));
#1217=CARTESIAN_POINT('',(30.3545517328096,23.15,1.5));
#1218=CARTESIAN_POINT('',(32.,26.,1.5));
#1219=CARTESIAN_POINT('',(33.7,26.,1.5));
#1220=CARTESIAN_POINT('',(0.,0.,1.5));
#1221=CARTESIAN_POINT('',(53.6743157806499,23.1,1.5));
#1222=CARTESIAN_POINT('',(53.6743157806499,23.1,1.5));
#1223=CARTESIAN_POINT('',(55.3486315612998,26.,1.5));
#1224=CARTESIAN_POINT('',(55.3486315612998,26.,1.5));
#1225=CARTESIAN_POINT('',(53.6743157806499,28.9,1.5));
#1226=CARTESIAN_POINT('',(53.6743157806499,28.9,1.5));
#1227=CARTESIAN_POINT('',(50.3256842193501,28.9,1.5));
#1228=CARTESIAN_POINT('',(50.3256842193501,28.9,1.5));
#1229=CARTESIAN_POINT('',(48.6513684387002,26.,1.5));
#1230=CARTESIAN_POINT('',(48.6513684387002,26.,1.5));
#1231=CARTESIAN_POINT('',(50.3256842193501,23.1,1.5));
#1232=CARTESIAN_POINT('',(50.3256842193501,23.1,1.5));
#1233=CARTESIAN_POINT('',(52.,26.,1.5));
#1234=CARTESIAN_POINT('',(53.7,26.,1.5));
#1235=CARTESIAN_POINT('',(0.,36.,1.5));
#1236=CARTESIAN_POINT('',(0.,36.,0.));
#1237=CARTESIAN_POINT('',(0.,36.,0.));
#1238=CARTESIAN_POINT('',(0.,0.,0.));
#1239=CARTESIAN_POINT('',(0.,0.,1.5));
#1240=CARTESIAN_POINT('',(0.,0.,4.2));
#1241=CARTESIAN_POINT('',(0.,36.,4.2));
#1242=CARTESIAN_POINT('',(0.,36.,4.2));
#1243=CARTESIAN_POINT('',(0.,36.,1.5));
#1244=CARTESIAN_POINT('',(0.,0.,1.5));
#1245=CARTESIAN_POINT('',(0.,0.,0.));
#1246=CARTESIAN_POINT('',(82.,0.,0.));
#1247=CARTESIAN_POINT('',(82.,0.,1.5));
#1248=CARTESIAN_POINT('',(82.,0.,4.2));
#1249=CARTESIAN_POINT('',(0.,0.,4.2));
#1250=CARTESIAN_POINT('',(82.,0.,1.5));
#1251=CARTESIAN_POINT('',(82.,0.,0.));
#1252=CARTESIAN_POINT('',(82.,36.,0.));
#1253=CARTESIAN_POINT('',(82.,36.,1.5));
#1254=CARTESIAN_POINT('',(82.,36.,4.2));
#1255=CARTESIAN_POINT('',(82.,0.,4.2));
#1256=CARTESIAN_POINT('',(8.,9.,1.5));
#1257=CARTESIAN_POINT('',(8.,9.,0.));
#1258=CARTESIAN_POINT('',(9.1,9.,0.));
#1259=CARTESIAN_POINT('',(8.,9.,4.2));
#1260=CARTESIAN_POINT('',(9.1,9.,4.2));
#1261=CARTESIAN_POINT('',(18.,9.,1.5));
#1262=CARTESIAN_POINT('',(18.,9.,0.));
#1263=CARTESIAN_POINT('',(19.15,9.,0.));
#1264=CARTESIAN_POINT('',(18.,9.,4.2));
#1265=CARTESIAN_POINT('',(19.15,9.,4.2));
#1266=CARTESIAN_POINT('',(28.,9.,1.5));
#1267=CARTESIAN_POINT('',(28.,9.,0.));
#1268=CARTESIAN_POINT('',(29.2,9.,0.));
#1269=CARTESIAN_POINT('',(28.,9.,4.2));
#1270=CARTESIAN_POINT('',(29.2,9.,4.2));
#1271=CARTESIAN_POINT('',(38.,9.,1.5));
#1272=CARTESIAN_POINT('',(38.,9.,0.));
#1273=CARTESIAN_POINT('',(39.35,9.,0.));
#1274=CARTESIAN_POINT('',(38.,9.,4.2));
#1275=CARTESIAN_POINT('',(39.35,9.,4.2));
#1276=CARTESIAN_POINT('',(48.,9.,1.5));
#1277=CARTESIAN_POINT('',(48.,9.,0.));
#1278=CARTESIAN_POINT('',(49.4,9.,0.));
#1279=CARTESIAN_POINT('',(48.,9.,4.2));
#1280=CARTESIAN_POINT('',(49.4,9.,4.2));
#1281=CARTESIAN_POINT('',(58.,9.,1.5));
#1282=CARTESIAN_POINT('',(58.,9.,0.));
#1283=CARTESIAN_POINT('',(59.45,9.,0.));
#1284=CARTESIAN_POINT('',(58.,9.,4.2));
#1285=CARTESIAN_POINT('',(59.45,9.,4.2));
#1286=CARTESIAN_POINT('',(68.,9.,1.5));
#1287=CARTESIAN_POINT('',(68.,9.,0.));
#1288=CARTESIAN_POINT('',(69.65,9.,0.));
#1289=CARTESIAN_POINT('',(68.,9.,4.2));
#1290=CARTESIAN_POINT('',(69.65,9.,4.2));
#1291=CARTESIAN_POINT('',(78.,9.,1.5));
#1292=CARTESIAN_POINT('',(78.,9.,0.));
#1293=CARTESIAN_POINT('',(79.7,9.,0.));
#1294=CARTESIAN_POINT('',(78.,9.,4.2));
#1295=CARTESIAN_POINT('',(79.7,9.,4.2));
#1296=CARTESIAN_POINT('',(12.,26.,1.5));
#1297=CARTESIAN_POINT('',(12.,26.,0.));
#1298=CARTESIAN_POINT('',(13.7,26.,0.));
#1299=CARTESIAN_POINT('',(32.,26.,1.5));
#1300=CARTESIAN_POINT('',(32.,26.,0.));
#1301=CARTESIAN_POINT('',(33.7,26.,0.));
#1302=CARTESIAN_POINT('',(52.,26.,1.5));
#1303=CARTESIAN_POINT('',(52.,26.,0.));
#1304=CARTESIAN_POINT('',(53.7,26.,0.));
#1305=CARTESIAN_POINT('',(72.,26.,1.5));
#1306=CARTESIAN_POINT('',(72.,26.,1.5));
#1307=CARTESIAN_POINT('',(73.7,26.,1.5));
#1308=CARTESIAN_POINT('',(72.,26.,0.));
#1309=CARTESIAN_POINT('',(73.7,26.,0.));
#1310=CARTESIAN_POINT('',(82.,36.,1.5));
#1311=CARTESIAN_POINT('',(82.,36.,0.));
#1312=CARTESIAN_POINT('',(82.,36.,4.2));
#1313=CARTESIAN_POINT('',(0.,0.,1.5));
#1314=CARTESIAN_POINT('',(73.7031832941094,23.05,1.5));
#1315=CARTESIAN_POINT('',(73.7031832941094,23.05,1.5));
#1316=CARTESIAN_POINT('',(75.4063665882188,26.,1.5));
#1317=CARTESIAN_POINT('',(75.4063665882188,26.,1.5));
#1318=CARTESIAN_POINT('',(73.7031832941094,28.95,1.5));
#1319=CARTESIAN_POINT('',(73.7031832941094,28.95,1.5));
#1320=CARTESIAN_POINT('',(70.2968167058906,28.95,1.5));
#1321=CARTESIAN_POINT('',(70.2968167058906,28.95,1.5));
#1322=CARTESIAN_POINT('',(68.5936334117812,26.,1.5));
#1323=CARTESIAN_POINT('',(68.5936334117812,26.,1.5));
#1324=CARTESIAN_POINT('',(70.2968167058906,23.05,1.5));
#1325=CARTESIAN_POINT('',(70.2968167058906,23.05,1.5));
#1326=CARTESIAN_POINT('',(0.,0.,0.));
#1327=CARTESIAN_POINT('',(13.616580753731,23.2,4.2));
#1328=CARTESIAN_POINT('',(13.616580753731,23.2,4.2));
#1329=CARTESIAN_POINT('',(13.616580753731,23.2,4.2));
#1330=CARTESIAN_POINT('',(13.616580753731,23.2,4.2));
#1331=CARTESIAN_POINT('',(15.2331615074619,26.,4.2));
#1332=CARTESIAN_POINT('',(15.2331615074619,26.,4.2));
#1333=CARTESIAN_POINT('',(10.383419246269,23.2,4.2));
#1334=CARTESIAN_POINT('',(10.383419246269,23.2,4.2));
#1335=CARTESIAN_POINT('',(10.383419246269,23.2,4.2));
#1336=CARTESIAN_POINT('',(10.383419246269,23.2,4.2));
#1337=CARTESIAN_POINT('',(8.7668384925381,26.,4.2));
#1338=CARTESIAN_POINT('',(8.7668384925381,26.,4.2));
#1339=CARTESIAN_POINT('',(8.7668384925381,26.,4.2));
#1340=CARTESIAN_POINT('',(8.7668384925381,26.,4.2));
#1341=CARTESIAN_POINT('',(10.383419246269,28.8,4.2));
#1342=CARTESIAN_POINT('',(10.383419246269,28.8,4.2));
#1343=CARTESIAN_POINT('',(10.383419246269,28.8,4.2));
#1344=CARTESIAN_POINT('',(10.383419246269,28.8,4.2));
#1345=CARTESIAN_POINT('',(13.616580753731,28.8,4.2));
#1346=CARTESIAN_POINT('',(13.616580753731,28.8,4.2));
#1347=CARTESIAN_POINT('',(13.616580753731,28.8,4.2));
#1348=CARTESIAN_POINT('',(13.616580753731,28.8,4.2));
#1349=CARTESIAN_POINT('',(33.6454482671904,23.15,4.2));
#1350=CARTESIAN_POINT('',(33.6454482671904,23.15,4.2));
#1351=CARTESIAN_POINT('',(33.6454482671904,23.15,4.2));
#1352=CARTESIAN_POINT('',(33.6454482671904,23.15,4.2));
#1353=CARTESIAN_POINT('',(35.2908965343809,26.,4.2));
#1354=CARTESIAN_POINT('',(35.2908965343809,26.,4.2));
#1355=CARTESIAN_POINT('',(30.3545517328096,23.15,4.2));
#1356=CARTESIAN_POINT('',(30.3545517328096,23.15,4.2));
#1357=CARTESIAN_POINT('',(30.3545517328096,23.15,4.2));
#1358=CARTESIAN_POINT('',(30.3545517328096,23.15,4.2));
#1359=CARTESIAN_POINT('',(28.7091034656191,26.,4.2));
#1360=CARTESIAN_POINT('',(28.7091034656191,26.,4.2));
#1361=CARTESIAN_POINT('',(28.7091034656191,26.,4.2));
#1362=CARTESIAN_POINT('',(28.7091034656191,26.,4.2));
#1363=CARTESIAN_POINT('',(30.3545517328096,28.85,4.2));
#1364=CARTESIAN_POINT('',(30.3545517328096,28.85,4.2));
#1365=CARTESIAN_POINT('',(30.3545517328096,28.85,4.2));
#1366=CARTESIAN_POINT('',(30.3545517328096,28.85,4.2));
#1367=CARTESIAN_POINT('',(33.6454482671904,28.85,4.2));
#1368=CARTESIAN_POINT('',(33.6454482671904,28.85,4.2));
#1369=CARTESIAN_POINT('',(33.6454482671904,28.85,4.2));
#1370=CARTESIAN_POINT('',(33.6454482671904,28.85,4.2));
#1371=CARTESIAN_POINT('',(53.6743157806499,23.1,4.2));
#1372=CARTESIAN_POINT('',(53.6743157806499,23.1,4.2));
#1373=CARTESIAN_POINT('',(53.6743157806499,23.1,4.2));
#1374=CARTESIAN_POINT('',(53.6743157806499,23.1,4.2));
#1375=CARTESIAN_POINT('',(55.3486315612998,26.,4.2));
#1376=CARTESIAN_POINT('',(55.3486315612998,26.,4.2));
#1377=CARTESIAN_POINT('',(50.3256842193501,23.1,4.2));
#1378=CARTESIAN_POINT('',(50.3256842193501,23.1,4.2));
#1379=CARTESIAN_POINT('',(50.3256842193501,23.1,4.2));
#1380=CARTESIAN_POINT('',(50.3256842193501,23.1,4.2));
#1381=CARTESIAN_POINT('',(48.6513684387002,26.,4.2));
#1382=CARTESIAN_POINT('',(48.6513684387002,26.,4.2));
#1383=CARTESIAN_POINT('',(48.6513684387002,26.,4.2));
#1384=CARTESIAN_POINT('',(48.6513684387002,26.,4.2));
#1385=CARTESIAN_POINT('',(50.3256842193501,28.9,4.2));
#1386=CARTESIAN_POINT('',(50.3256842193501,28.9,4.2));
#1387=CARTESIAN_POINT('',(50.3256842193501,28.9,4.2));
#1388=CARTESIAN_POINT('',(50.3256842193501,28.9,4.2));
#1389=CARTESIAN_POINT('',(53.6743157806499,28.9,4.2));
#1390=CARTESIAN_POINT('',(53.6743157806499,28.9,4.2));
#1391=CARTESIAN_POINT('',(53.6743157806499,28.9,4.2));
#1392=CARTESIAN_POINT('',(53.6743157806499,28.9,4.2));
#1393=CARTESIAN_POINT('',(73.7031832941094,23.05,4.2));
#1394=CARTESIAN_POINT('',(73.7031832941094,23.05,4.2));
#1395=CARTESIAN_POINT('',(73.7031832941094,23.05,4.2));
#1396=CARTESIAN_POINT('',(73.7031832941094,23.05,4.2));
#1397=CARTESIAN_POINT('',(75.4063665882188,26.,4.2));
#1398=CARTESIAN_POINT('',(75.4063665882188,26.,4.2));
#1399=CARTESIAN_POINT('',(70.2968167058906,23.05,4.2));
#1400=CARTESIAN_POINT('',(70.2968167058906,23.05,4.2));
#1401=CARTESIAN_POINT('',(70.2968167058906,23.05,4.2));
#1402=CARTESIAN_POINT('',(70.2968167058906,23.05,4.2));
#1403=CARTESIAN_POINT('',(68.5936334117812,26.,4.2));
#1404=CARTESIAN_POINT('',(68.5936334117812,26.,4.2));
#1405=CARTESIAN_POINT('',(68.5936334117812,26.,4.2));
#1406=CARTESIAN_POINT('',(68.5936334117812,26.,4.2));
#1407=CARTESIAN_POINT('',(70.2968167058906,28.95,4.2));
#1408=CARTESIAN_POINT('',(70.2968167058906,28.95,4.2));
#1409=CARTESIAN_POINT('',(70.2968167058906,28.95,4.2));
#1410=CARTESIAN_POINT('',(70.2968167058906,28.95,4.2));
#1411=CARTESIAN_POINT('',(73.7031832941094,28.95,4.2));
#1412=CARTESIAN_POINT('',(73.7031832941094,28.95,4.2));
#1413=CARTESIAN_POINT('',(73.7031832941094,28.95,4.2));
#1414=CARTESIAN_POINT('',(73.7031832941094,28.95,4.2));
#1415=CARTESIAN_POINT('',(15.2331615074619,26.,4.2));
#1416=CARTESIAN_POINT('',(15.2331615074619,26.,4.2));
#1417=CARTESIAN_POINT('',(35.2908965343809,26.,4.2));
#1418=CARTESIAN_POINT('',(35.2908965343809,26.,4.2));
#1419=CARTESIAN_POINT('',(55.3486315612998,26.,4.2));
#1420=CARTESIAN_POINT('',(55.3486315612998,26.,4.2));
#1421=CARTESIAN_POINT('',(75.4063665882188,26.,4.2));
#1422=CARTESIAN_POINT('',(75.4063665882188,26.,4.2));
#1423=CARTESIAN_POINT('',(0.,0.,4.2));
#1424=MECHANICAL_DESIGN_GEOMETRIC_PRESENTATION_REPRESENTATION('',(#881),
#1425);
#1425=(
GEOMETRIC_REPRESENTATION_CONTEXT(3)
GLOBAL_UNCERTAINTY_ASSIGNED_CONTEXT((#1426))
GLOBAL_UNIT_ASSIGNED_CONTEXT((#1429,#1428,#1427))
REPRESENTATION_CONTEXT('C01_clearance_and_M3_nut_coupon',
'TOP_LEVEL_ASSEMBLY_PART')
);
#1426=UNCERTAINTY_MEASURE_WITH_UNIT(LENGTH_MEASURE(0.005),#1429,
'DISTANCE_ACCURACY_VALUE','Maximum Tolerance applied to model');
#1427=(
NAMED_UNIT(*)
SI_UNIT($,.STERADIAN.)
SOLID_ANGLE_UNIT()
);
#1428=(
NAMED_UNIT(*)
PLANE_ANGLE_UNIT()
SI_UNIT($,.RADIAN.)
);
#1429=(
LENGTH_UNIT()
NAMED_UNIT(*)
SI_UNIT(.MILLI.,.METRE.)
);
#1430=PRODUCT_DEFINITION_SHAPE('','',#1431);
#1431=PRODUCT_DEFINITION('','',#1433,#1432);
#1432=PRODUCT_DEFINITION_CONTEXT('',#1439,'design');
#1433=PRODUCT_DEFINITION_FORMATION_WITH_SPECIFIED_SOURCE('','',#1435,
 .NOT_KNOWN.);
#1434=PRODUCT_RELATED_PRODUCT_CATEGORY('','',(#1435));
#1435=PRODUCT('C01_clearance_and_M3_nut_coupon',
'C01_clearance_and_M3_nut_coupon','C01_clearance_and_M3_nut_coupon',(#1437));
#1436=PRODUCT_CATEGORY('','');
#1437=PRODUCT_CONTEXT('',#1439,'mechanical');
#1438=APPLICATION_PROTOCOL_DEFINITION('international standard',
'automotive_design',2010,#1439);
#1439=APPLICATION_CONTEXT(
'core data for automotive mechanical design processes');
ENDSEC;
END-ISO-10303-21;
