ISO-10303-21;
HEADER;
/* Generated by software containing ST-Developer
 * from STEP Tools, Inc. (www.steptools.com) 
 */
/* OPTION: strings as raw bytes, not using required /X/ escapes */

FILE_DESCRIPTION(
/* description */ ('Unknown'),
/* implementation_level */ '2;1');

FILE_NAME(
/* name */ 'P04_AX_body_mount_plate',
/* time_stamp */ '2026-09-23T11:20:44+08:00',
/* author */ ('Unknown'),
/* organization */ ('Unknown'),
/* preprocessor_version */ 'ST-DEVELOPER v16.7',
/* originating_system */ 'Solid Edge',
/* authorisation */ 'Unknown');

FILE_SCHEMA (('AUTOMOTIVE_DESIGN {1 0 10303 214 3 1 1}'));
ENDSEC;

DATA;
#10=PROPERTY_DEFINITION_REPRESENTATION(#14,#12);
#11=PROPERTY_DEFINITION_REPRESENTATION(#15,#13);
#12=REPRESENTATION('',(#16),#525);
#13=REPRESENTATION('',(#17),#525);
#14=PROPERTY_DEFINITION('pmi validation property','',#530);
#15=PROPERTY_DEFINITION('pmi validation property','',#530);
#16=VALUE_REPRESENTATION_ITEM('number of annotations',COUNT_MEASURE(0.));
#17=VALUE_REPRESENTATION_ITEM('number of views',COUNT_MEASURE(0.));
#18=SHAPE_REPRESENTATION_RELATIONSHIP('','',#323,#19);
#19=ADVANCED_BREP_SHAPE_REPRESENTATION('',(#321),#525);
#20=CIRCLE('',#329,1.15);
#21=CIRCLE('',#330,1.15);
#22=CIRCLE('',#332,1.15);
#23=CIRCLE('',#333,1.15);
#24=CIRCLE('',#335,1.15);
#25=CIRCLE('',#336,1.15);
#26=CIRCLE('',#338,1.15);
#27=CIRCLE('',#339,1.15);
#28=CIRCLE('',#341,1.15);
#29=CIRCLE('',#342,1.15);
#30=CIRCLE('',#344,1.15);
#31=CIRCLE('',#345,1.15);
#32=CIRCLE('',#347,1.15);
#33=CIRCLE('',#348,1.15);
#34=CIRCLE('',#350,1.15);
#35=CIRCLE('',#351,1.15);
#36=CIRCLE('',#353,1.7);
#37=CIRCLE('',#354,1.7);
#38=CIRCLE('',#356,1.7);
#39=CIRCLE('',#357,1.7);
#40=CYLINDRICAL_SURFACE('',#328,1.15);
#41=CYLINDRICAL_SURFACE('',#331,1.15);
#42=CYLINDRICAL_SURFACE('',#334,1.15);
#43=CYLINDRICAL_SURFACE('',#337,1.15);
#44=CYLINDRICAL_SURFACE('',#340,1.15);
#45=CYLINDRICAL_SURFACE('',#343,1.15);
#46=CYLINDRICAL_SURFACE('',#346,1.15);
#47=CYLINDRICAL_SURFACE('',#349,1.15);
#48=CYLINDRICAL_SURFACE('',#352,1.7);
#49=CYLINDRICAL_SURFACE('',#355,1.7);
#50=ORIENTED_EDGE('',*,*,#114,.T.);
#51=ORIENTED_EDGE('',*,*,#115,.F.);
#52=ORIENTED_EDGE('',*,*,#116,.F.);
#53=ORIENTED_EDGE('',*,*,#117,.T.);
#54=ORIENTED_EDGE('',*,*,#118,.T.);
#55=ORIENTED_EDGE('',*,*,#119,.F.);
#56=ORIENTED_EDGE('',*,*,#120,.F.);
#57=ORIENTED_EDGE('',*,*,#115,.T.);
#58=ORIENTED_EDGE('',*,*,#121,.T.);
#59=ORIENTED_EDGE('',*,*,#122,.F.);
#60=ORIENTED_EDGE('',*,*,#123,.F.);
#61=ORIENTED_EDGE('',*,*,#119,.T.);
#62=ORIENTED_EDGE('',*,*,#124,.T.);
#63=ORIENTED_EDGE('',*,*,#125,.F.);
#64=ORIENTED_EDGE('',*,*,#126,.T.);
#65=ORIENTED_EDGE('',*,*,#127,.F.);
#66=ORIENTED_EDGE('',*,*,#128,.T.);
#67=ORIENTED_EDGE('',*,*,#129,.F.);
#68=ORIENTED_EDGE('',*,*,#130,.T.);
#69=ORIENTED_EDGE('',*,*,#131,.F.);
#70=ORIENTED_EDGE('',*,*,#132,.T.);
#71=ORIENTED_EDGE('',*,*,#133,.F.);
#72=ORIENTED_EDGE('',*,*,#134,.T.);
#73=ORIENTED_EDGE('',*,*,#135,.F.);
#74=ORIENTED_EDGE('',*,*,#136,.T.);
#75=ORIENTED_EDGE('',*,*,#137,.F.);
#76=ORIENTED_EDGE('',*,*,#138,.T.);
#77=ORIENTED_EDGE('',*,*,#139,.F.);
#78=ORIENTED_EDGE('',*,*,#140,.T.);
#79=ORIENTED_EDGE('',*,*,#141,.F.);
#80=ORIENTED_EDGE('',*,*,#142,.T.);
#81=ORIENTED_EDGE('',*,*,#143,.F.);
#82=ORIENTED_EDGE('',*,*,#144,.T.);
#83=ORIENTED_EDGE('',*,*,#117,.F.);
#84=ORIENTED_EDGE('',*,*,#145,.F.);
#85=ORIENTED_EDGE('',*,*,#122,.T.);
#86=ORIENTED_EDGE('',*,*,#142,.F.);
#87=ORIENTED_EDGE('',*,*,#140,.F.);
#88=ORIENTED_EDGE('',*,*,#138,.F.);
#89=ORIENTED_EDGE('',*,*,#136,.F.);
#90=ORIENTED_EDGE('',*,*,#134,.F.);
#91=ORIENTED_EDGE('',*,*,#132,.F.);
#92=ORIENTED_EDGE('',*,*,#130,.F.);
#93=ORIENTED_EDGE('',*,*,#128,.F.);
#94=ORIENTED_EDGE('',*,*,#126,.F.);
#95=ORIENTED_EDGE('',*,*,#124,.F.);
#96=ORIENTED_EDGE('',*,*,#116,.T.);
#97=ORIENTED_EDGE('',*,*,#120,.T.);
#98=ORIENTED_EDGE('',*,*,#123,.T.);
#99=ORIENTED_EDGE('',*,*,#145,.T.);
#100=ORIENTED_EDGE('',*,*,#143,.T.);
#101=ORIENTED_EDGE('',*,*,#141,.T.);
#102=ORIENTED_EDGE('',*,*,#139,.T.);
#103=ORIENTED_EDGE('',*,*,#137,.T.);
#104=ORIENTED_EDGE('',*,*,#135,.T.);
#105=ORIENTED_EDGE('',*,*,#133,.T.);
#106=ORIENTED_EDGE('',*,*,#131,.T.);
#107=ORIENTED_EDGE('',*,*,#129,.T.);
#108=ORIENTED_EDGE('',*,*,#127,.T.);
#109=ORIENTED_EDGE('',*,*,#125,.T.);
#110=ORIENTED_EDGE('',*,*,#114,.F.);
#111=ORIENTED_EDGE('',*,*,#144,.F.);
#112=ORIENTED_EDGE('',*,*,#121,.F.);
#113=ORIENTED_EDGE('',*,*,#118,.F.);
#114=EDGE_CURVE('',#146,#147,#174,.T.);
#115=EDGE_CURVE('',#148,#147,#175,.T.);
#116=EDGE_CURVE('',#149,#148,#176,.T.);
#117=EDGE_CURVE('',#149,#146,#177,.T.);
#118=EDGE_CURVE('',#147,#150,#178,.T.);
#119=EDGE_CURVE('',#151,#150,#179,.T.);
#120=EDGE_CURVE('',#148,#151,#180,.T.);
#121=EDGE_CURVE('',#150,#152,#181,.T.);
#122=EDGE_CURVE('',#153,#152,#182,.T.);
#123=EDGE_CURVE('',#151,#153,#183,.T.);
#124=EDGE_CURVE('',#154,#154,#20,.T.);
#125=EDGE_CURVE('',#155,#155,#21,.T.);
#126=EDGE_CURVE('',#156,#156,#22,.T.);
#127=EDGE_CURVE('',#157,#157,#23,.T.);
#128=EDGE_CURVE('',#158,#158,#24,.T.);
#129=EDGE_CURVE('',#159,#159,#25,.T.);
#130=EDGE_CURVE('',#160,#160,#26,.T.);
#131=EDGE_CURVE('',#161,#161,#27,.T.);
#132=EDGE_CURVE('',#162,#162,#28,.T.);
#133=EDGE_CURVE('',#163,#163,#29,.T.);
#134=EDGE_CURVE('',#164,#164,#30,.T.);
#135=EDGE_CURVE('',#165,#165,#31,.T.);
#136=EDGE_CURVE('',#166,#166,#32,.T.);
#137=EDGE_CURVE('',#167,#167,#33,.T.);
#138=EDGE_CURVE('',#168,#168,#34,.T.);
#139=EDGE_CURVE('',#169,#169,#35,.T.);
#140=EDGE_CURVE('',#170,#170,#36,.T.);
#141=EDGE_CURVE('',#171,#171,#37,.T.);
#142=EDGE_CURVE('',#172,#172,#38,.T.);
#143=EDGE_CURVE('',#173,#173,#39,.T.);
#144=EDGE_CURVE('',#152,#146,#184,.T.);
#145=EDGE_CURVE('',#153,#149,#185,.T.);
#146=VERTEX_POINT('',#450);
#147=VERTEX_POINT('',#451);
#148=VERTEX_POINT('',#453);
#149=VERTEX_POINT('',#455);
#150=VERTEX_POINT('',#459);
#151=VERTEX_POINT('',#461);
#152=VERTEX_POINT('',#465);
#153=VERTEX_POINT('',#467);
#154=VERTEX_POINT('',#471);
#155=VERTEX_POINT('',#473);
#156=VERTEX_POINT('',#476);
#157=VERTEX_POINT('',#478);
#158=VERTEX_POINT('',#481);
#159=VERTEX_POINT('',#483);
#160=VERTEX_POINT('',#486);
#161=VERTEX_POINT('',#488);
#162=VERTEX_POINT('',#491);
#163=VERTEX_POINT('',#493);
#164=VERTEX_POINT('',#496);
#165=VERTEX_POINT('',#498);
#166=VERTEX_POINT('',#501);
#167=VERTEX_POINT('',#503);
#168=VERTEX_POINT('',#506);
#169=VERTEX_POINT('',#508);
#170=VERTEX_POINT('',#511);
#171=VERTEX_POINT('',#513);
#172=VERTEX_POINT('',#516);
#173=VERTEX_POINT('',#518);
#174=LINE('',#449,#186);
#175=LINE('',#452,#187);
#176=LINE('',#454,#188);
#177=LINE('',#456,#189);
#178=LINE('',#458,#190);
#179=LINE('',#460,#191);
#180=LINE('',#462,#192);
#181=LINE('',#464,#193);
#182=LINE('',#466,#194);
#183=LINE('',#468,#195);
#184=LINE('',#520,#196);
#185=LINE('',#521,#197);
#186=VECTOR('',#365,1000.);
#187=VECTOR('',#366,1000.);
#188=VECTOR('',#367,1000.);
#189=VECTOR('',#368,1000.);
#190=VECTOR('',#371,1000.);
#191=VECTOR('',#372,1000.);
#192=VECTOR('',#373,1000.);
#193=VECTOR('',#376,1000.);
#194=VECTOR('',#377,1000.);
#195=VECTOR('',#378,1000.);
#196=VECTOR('',#441,1000.);
#197=VECTOR('',#442,1000.);
#198=EDGE_LOOP('',(#50,#51,#52,#53));
#199=EDGE_LOOP('',(#54,#55,#56,#57));
#200=EDGE_LOOP('',(#58,#59,#60,#61));
#201=EDGE_LOOP('',(#62));
#202=EDGE_LOOP('',(#63));
#203=EDGE_LOOP('',(#64));
#204=EDGE_LOOP('',(#65));
#205=EDGE_LOOP('',(#66));
#206=EDGE_LOOP('',(#67));
#207=EDGE_LOOP('',(#68));
#208=EDGE_LOOP('',(#69));
#209=EDGE_LOOP('',(#70));
#210=EDGE_LOOP('',(#71));
#211=EDGE_LOOP('',(#72));
#212=EDGE_LOOP('',(#73));
#213=EDGE_LOOP('',(#74));
#214=EDGE_LOOP('',(#75));
#215=EDGE_LOOP('',(#76));
#216=EDGE_LOOP('',(#77));
#217=EDGE_LOOP('',(#78));
#218=EDGE_LOOP('',(#79));
#219=EDGE_LOOP('',(#80));
#220=EDGE_LOOP('',(#81));
#221=EDGE_LOOP('',(#82,#83,#84,#85));
#222=EDGE_LOOP('',(#86));
#223=EDGE_LOOP('',(#87));
#224=EDGE_LOOP('',(#88));
#225=EDGE_LOOP('',(#89));
#226=EDGE_LOOP('',(#90));
#227=EDGE_LOOP('',(#91));
#228=EDGE_LOOP('',(#92));
#229=EDGE_LOOP('',(#93));
#230=EDGE_LOOP('',(#94));
#231=EDGE_LOOP('',(#95));
#232=EDGE_LOOP('',(#96,#97,#98,#99));
#233=EDGE_LOOP('',(#100));
#234=EDGE_LOOP('',(#101));
#235=EDGE_LOOP('',(#102));
#236=EDGE_LOOP('',(#103));
#237=EDGE_LOOP('',(#104));
#238=EDGE_LOOP('',(#105));
#239=EDGE_LOOP('',(#106));
#240=EDGE_LOOP('',(#107));
#241=EDGE_LOOP('',(#108));
#242=EDGE_LOOP('',(#109));
#243=EDGE_LOOP('',(#110,#111,#112,#113));
#244=FACE_BOUND('',#198,.T.);
#245=FACE_BOUND('',#199,.T.);
#246=FACE_BOUND('',#200,.T.);
#247=FACE_BOUND('',#201,.T.);
#248=FACE_BOUND('',#202,.T.);
#249=FACE_BOUND('',#203,.T.);
#250=FACE_BOUND('',#204,.T.);
#251=FACE_BOUND('',#205,.T.);
#252=FACE_BOUND('',#206,.T.);
#253=FACE_BOUND('',#207,.T.);
#254=FACE_BOUND('',#208,.T.);
#255=FACE_BOUND('',#209,.T.);
#256=FACE_BOUND('',#210,.T.);
#257=FACE_BOUND('',#211,.T.);
#258=FACE_BOUND('',#212,.T.);
#259=FACE_BOUND('',#213,.T.);
#260=FACE_BOUND('',#214,.T.);
#261=FACE_BOUND('',#215,.T.);
#262=FACE_BOUND('',#216,.T.);
#263=FACE_BOUND('',#217,.T.);
#264=FACE_BOUND('',#218,.T.);
#265=FACE_BOUND('',#219,.T.);
#266=FACE_BOUND('',#220,.T.);
#267=FACE_BOUND('',#221,.T.);
#268=FACE_BOUND('',#222,.T.);
#269=FACE_BOUND('',#223,.T.);
#270=FACE_BOUND('',#224,.T.);
#271=FACE_BOUND('',#225,.T.);
#272=FACE_BOUND('',#226,.T.);
#273=FACE_BOUND('',#227,.T.);
#274=FACE_BOUND('',#228,.T.);
#275=FACE_BOUND('',#229,.T.);
#276=FACE_BOUND('',#230,.T.);
#277=FACE_BOUND('',#231,.T.);
#278=FACE_BOUND('',#232,.T.);
#279=FACE_BOUND('',#233,.T.);
#280=FACE_BOUND('',#234,.T.);
#281=FACE_BOUND('',#235,.T.);
#282=FACE_BOUND('',#236,.T.);
#283=FACE_BOUND('',#237,.T.);
#284=FACE_BOUND('',#238,.T.);
#285=FACE_BOUND('',#239,.T.);
#286=FACE_BOUND('',#240,.T.);
#287=FACE_BOUND('',#241,.T.);
#288=FACE_BOUND('',#242,.T.);
#289=FACE_BOUND('',#243,.T.);
#290=PLANE('',#325);
#291=PLANE('',#326);
#292=PLANE('',#327);
#293=PLANE('',#358);
#294=PLANE('',#359);
#295=PLANE('',#360);
#296=ADVANCED_FACE('',(#244),#290,.F.);
#297=ADVANCED_FACE('',(#245),#291,.F.);
#298=ADVANCED_FACE('',(#246),#292,.F.);
#299=ADVANCED_FACE('',(#247,#248),#40,.F.);
#300=ADVANCED_FACE('',(#249,#250),#41,.F.);
#301=ADVANCED_FACE('',(#251,#252),#42,.F.);
#302=ADVANCED_FACE('',(#253,#254),#43,.F.);
#303=ADVANCED_FACE('',(#255,#256),#44,.F.);
#304=ADVANCED_FACE('',(#257,#258),#45,.F.);
#305=ADVANCED_FACE('',(#259,#260),#46,.F.);
#306=ADVANCED_FACE('',(#261,#262),#47,.F.);
#307=ADVANCED_FACE('',(#263,#264),#48,.F.);
#308=ADVANCED_FACE('',(#265,#266),#49,.F.);
#309=ADVANCED_FACE('',(#267),#293,.F.);
#310=ADVANCED_FACE('',(#268,#269,#270,#271,#272,#273,#274,#275,#276,#277,
#278),#294,.T.);
#311=ADVANCED_FACE('',(#279,#280,#281,#282,#283,#284,#285,#286,#287,#288,
#289),#295,.F.);
#312=CLOSED_SHELL('',(#296,#297,#298,#299,#300,#301,#302,#303,#304,#305,
#306,#307,#308,#309,#310,#311));
#313=STYLED_ITEM('',(#314),#321);
#314=PRESENTATION_STYLE_ASSIGNMENT((#315));
#315=SURFACE_STYLE_USAGE(.BOTH.,#316);
#316=SURFACE_SIDE_STYLE('',(#317));
#317=SURFACE_STYLE_FILL_AREA(#318);
#318=FILL_AREA_STYLE('',(#319));
#319=FILL_AREA_STYLE_COLOUR('',#320);
#320=COLOUR_RGB('',0.506983280181885,0.531564235687256,0.550000011920929);
#321=MANIFOLD_SOLID_BREP('',#312);
#322=SHAPE_DEFINITION_REPRESENTATION(#530,#323);
#323=SHAPE_REPRESENTATION('P04_AX_body_mount_plate',(#324),#525);
#324=AXIS2_PLACEMENT_3D('',#447,#361,#362);
#325=AXIS2_PLACEMENT_3D('',#448,#363,#364);
#326=AXIS2_PLACEMENT_3D('',#457,#369,#370);
#327=AXIS2_PLACEMENT_3D('',#463,#374,#375);
#328=AXIS2_PLACEMENT_3D('',#469,#379,#380);
#329=AXIS2_PLACEMENT_3D('',#470,#381,#382);
#330=AXIS2_PLACEMENT_3D('',#472,#383,#384);
#331=AXIS2_PLACEMENT_3D('',#474,#385,#386);
#332=AXIS2_PLACEMENT_3D('',#475,#387,#388);
#333=AXIS2_PLACEMENT_3D('',#477,#389,#390);
#334=AXIS2_PLACEMENT_3D('',#479,#391,#392);
#335=AXIS2_PLACEMENT_3D('',#480,#393,#394);
#336=AXIS2_PLACEMENT_3D('',#482,#395,#396);
#337=AXIS2_PLACEMENT_3D('',#484,#397,#398);
#338=AXIS2_PLACEMENT_3D('',#485,#399,#400);
#339=AXIS2_PLACEMENT_3D('',#487,#401,#402);
#340=AXIS2_PLACEMENT_3D('',#489,#403,#404);
#341=AXIS2_PLACEMENT_3D('',#490,#405,#406);
#342=AXIS2_PLACEMENT_3D('',#492,#407,#408);
#343=AXIS2_PLACEMENT_3D('',#494,#409,#410);
#344=AXIS2_PLACEMENT_3D('',#495,#411,#412);
#345=AXIS2_PLACEMENT_3D('',#497,#413,#414);
#346=AXIS2_PLACEMENT_3D('',#499,#415,#416);
#347=AXIS2_PLACEMENT_3D('',#500,#417,#418);
#348=AXIS2_PLACEMENT_3D('',#502,#419,#420);
#349=AXIS2_PLACEMENT_3D('',#504,#421,#422);
#350=AXIS2_PLACEMENT_3D('',#505,#423,#424);
#351=AXIS2_PLACEMENT_3D('',#507,#425,#426);
#352=AXIS2_PLACEMENT_3D('',#509,#427,#428);
#353=AXIS2_PLACEMENT_3D('',#510,#429,#430);
#354=AXIS2_PLACEMENT_3D('',#512,#431,#432);
#355=AXIS2_PLACEMENT_3D('',#514,#433,#434);
#356=AXIS2_PLACEMENT_3D('',#515,#435,#436);
#357=AXIS2_PLACEMENT_3D('',#517,#437,#438);
#358=AXIS2_PLACEMENT_3D('',#519,#439,#440);
#359=AXIS2_PLACEMENT_3D('',#522,#443,#444);
#360=AXIS2_PLACEMENT_3D('',#523,#445,#446);
#361=DIRECTION('',(0.,0.,1.));
#362=DIRECTION('',(1.,0.,0.));
#363=DIRECTION('',(1.,0.,0.));
#364=DIRECTION('',(0.,0.,-1.));
#365=DIRECTION('',(0.,-1.,0.));
#366=DIRECTION('',(0.,0.,-1.));
#367=DIRECTION('',(0.,-1.,0.));
#368=DIRECTION('',(0.,0.,-1.));
#369=DIRECTION('',(0.,1.,0.));
#370=DIRECTION('',(0.,0.,1.));
#371=DIRECTION('',(1.,0.,0.));
#372=DIRECTION('',(0.,0.,-1.));
#373=DIRECTION('',(1.,0.,0.));
#374=DIRECTION('',(-1.,0.,0.));
#375=DIRECTION('',(0.,0.,1.));
#376=DIRECTION('',(0.,1.,0.));
#377=DIRECTION('',(0.,0.,-1.));
#378=DIRECTION('',(0.,1.,0.));
#379=DIRECTION('',(0.,0.,-1.));
#380=DIRECTION('',(-1.,0.,0.));
#381=DIRECTION('',(0.,0.,1.));
#382=DIRECTION('',(1.,0.,0.));
#383=DIRECTION('',(0.,0.,1.));
#384=DIRECTION('',(1.,0.,0.));
#385=DIRECTION('',(0.,0.,-1.));
#386=DIRECTION('',(-1.,0.,0.));
#387=DIRECTION('',(0.,0.,1.));
#388=DIRECTION('',(1.,0.,0.));
#389=DIRECTION('',(0.,0.,1.));
#390=DIRECTION('',(1.,0.,0.));
#391=DIRECTION('',(0.,0.,-1.));
#392=DIRECTION('',(-1.,0.,0.));
#393=DIRECTION('',(0.,0.,1.));
#394=DIRECTION('',(1.,0.,0.));
#395=DIRECTION('',(0.,0.,1.));
#396=DIRECTION('',(1.,0.,0.));
#397=DIRECTION('',(0.,0.,-1.));
#398=DIRECTION('',(-1.,0.,0.));
#399=DIRECTION('',(0.,0.,1.));
#400=DIRECTION('',(1.,0.,0.));
#401=DIRECTION('',(0.,0.,1.));
#402=DIRECTION('',(1.,0.,0.));
#403=DIRECTION('',(0.,0.,-1.));
#404=DIRECTION('',(-1.,0.,0.));
#405=DIRECTION('',(0.,0.,1.));
#406=DIRECTION('',(1.,0.,0.));
#407=DIRECTION('',(0.,0.,1.));
#408=DIRECTION('',(1.,0.,0.));
#409=DIRECTION('',(0.,0.,-1.));
#410=DIRECTION('',(-1.,0.,0.));
#411=DIRECTION('',(0.,0.,1.));
#412=DIRECTION('',(1.,0.,0.));
#413=DIRECTION('',(0.,0.,1.));
#414=DIRECTION('',(1.,0.,0.));
#415=DIRECTION('',(0.,0.,-1.));
#416=DIRECTION('',(-1.,0.,0.));
#417=DIRECTION('',(0.,0.,1.));
#418=DIRECTION('',(1.,0.,0.));
#419=DIRECTION('',(0.,0.,1.));
#420=DIRECTION('',(1.,0.,0.));
#421=DIRECTION('',(0.,0.,-1.));
#422=DIRECTION('',(-1.,0.,0.));
#423=DIRECTION('',(0.,0.,1.));
#424=DIRECTION('',(1.,0.,0.));
#425=DIRECTION('',(0.,0.,1.));
#426=DIRECTION('',(1.,0.,0.));
#427=DIRECTION('',(0.,0.,-1.));
#428=DIRECTION('',(-1.,0.,0.));
#429=DIRECTION('',(0.,0.,1.));
#430=DIRECTION('',(1.,0.,0.));
#431=DIRECTION('',(0.,0.,1.));
#432=DIRECTION('',(1.,0.,0.));
#433=DIRECTION('',(0.,0.,-1.));
#434=DIRECTION('',(-1.,0.,0.));
#435=DIRECTION('',(0.,0.,1.));
#436=DIRECTION('',(1.,0.,0.));
#437=DIRECTION('',(0.,0.,1.));
#438=DIRECTION('',(1.,0.,0.));
#439=DIRECTION('',(0.,-1.,0.));
#440=DIRECTION('',(0.,0.,-1.));
#441=DIRECTION('',(-1.,0.,0.));
#442=DIRECTION('',(-1.,0.,0.));
#443=DIRECTION('',(0.,0.,1.));
#444=DIRECTION('',(1.,0.,0.));
#445=DIRECTION('',(0.,0.,1.));
#446=DIRECTION('',(1.,0.,0.));
#447=CARTESIAN_POINT('',(0.,0.,0.));
#448=CARTESIAN_POINT('',(-20.,39.,4.));
#449=CARTESIAN_POINT('',(-20.,39.,0.));
#450=CARTESIAN_POINT('',(-20.,39.,0.));
#451=CARTESIAN_POINT('',(-20.,-8.,0.));
#452=CARTESIAN_POINT('',(-20.,-8.,4.));
#453=CARTESIAN_POINT('',(-20.,-8.,4.));
#454=CARTESIAN_POINT('',(-20.,39.,4.));
#455=CARTESIAN_POINT('',(-20.,39.,4.));
#456=CARTESIAN_POINT('',(-20.,39.,4.));
#457=CARTESIAN_POINT('',(-20.,-8.,4.));
#458=CARTESIAN_POINT('',(-20.,-8.,0.));
#459=CARTESIAN_POINT('',(20.,-8.,0.));
#460=CARTESIAN_POINT('',(20.,-8.,4.));
#461=CARTESIAN_POINT('',(20.,-8.,4.));
#462=CARTESIAN_POINT('',(-20.,-8.,4.));
#463=CARTESIAN_POINT('',(20.,-8.,4.));
#464=CARTESIAN_POINT('',(20.,-8.,0.));
#465=CARTESIAN_POINT('',(20.,39.,0.));
#466=CARTESIAN_POINT('',(20.,39.,4.));
#467=CARTESIAN_POINT('',(20.,39.,4.));
#468=CARTESIAN_POINT('',(20.,-8.,4.));
#469=CARTESIAN_POINT('',(-13.5,6.5,4.));
#470=CARTESIAN_POINT('',(-13.5,6.5,4.));
#471=CARTESIAN_POINT('',(-12.35,6.5,4.));
#472=CARTESIAN_POINT('',(-13.5,6.5,0.));
#473=CARTESIAN_POINT('',(-12.35,6.5,0.));
#474=CARTESIAN_POINT('',(-13.5,14.5,4.));
#475=CARTESIAN_POINT('',(-13.5,14.5,4.));
#476=CARTESIAN_POINT('',(-12.35,14.5,4.));
#477=CARTESIAN_POINT('',(-13.5,14.5,0.));
#478=CARTESIAN_POINT('',(-12.35,14.5,0.));
#479=CARTESIAN_POINT('',(-13.5,22.5,4.));
#480=CARTESIAN_POINT('',(-13.5,22.5,4.));
#481=CARTESIAN_POINT('',(-12.35,22.5,4.));
#482=CARTESIAN_POINT('',(-13.5,22.5,0.));
#483=CARTESIAN_POINT('',(-12.35,22.5,0.));
#484=CARTESIAN_POINT('',(-13.5,30.5,4.));
#485=CARTESIAN_POINT('',(-13.5,30.5,4.));
#486=CARTESIAN_POINT('',(-12.35,30.5,4.));
#487=CARTESIAN_POINT('',(-13.5,30.5,0.));
#488=CARTESIAN_POINT('',(-12.35,30.5,0.));
#489=CARTESIAN_POINT('',(13.5,6.5,4.));
#490=CARTESIAN_POINT('',(13.5,6.5,4.));
#491=CARTESIAN_POINT('',(14.65,6.5,4.));
#492=CARTESIAN_POINT('',(13.5,6.5,0.));
#493=CARTESIAN_POINT('',(14.65,6.5,0.));
#494=CARTESIAN_POINT('',(13.5,14.5,4.));
#495=CARTESIAN_POINT('',(13.5,14.5,4.));
#496=CARTESIAN_POINT('',(14.65,14.5,4.));
#497=CARTESIAN_POINT('',(13.5,14.5,0.));
#498=CARTESIAN_POINT('',(14.65,14.5,0.));
#499=CARTESIAN_POINT('',(13.5,22.5,4.));
#500=CARTESIAN_POINT('',(13.5,22.5,4.));
#501=CARTESIAN_POINT('',(14.65,22.5,4.));
#502=CARTESIAN_POINT('',(13.5,22.5,0.));
#503=CARTESIAN_POINT('',(14.65,22.5,0.));
#504=CARTESIAN_POINT('',(13.5,30.5,4.));
#505=CARTESIAN_POINT('',(13.5,30.5,4.));
#506=CARTESIAN_POINT('',(14.65,30.5,4.));
#507=CARTESIAN_POINT('',(13.5,30.5,0.));
#508=CARTESIAN_POINT('',(14.65,30.5,0.));
#509=CARTESIAN_POINT('',(-14.,-3.,4.));
#510=CARTESIAN_POINT('',(-14.,-3.,4.));
#511=CARTESIAN_POINT('',(-12.3,-3.,4.));
#512=CARTESIAN_POINT('',(-14.,-3.,0.));
#513=CARTESIAN_POINT('',(-12.3,-3.,0.));
#514=CARTESIAN_POINT('',(14.,-3.,4.));
#515=CARTESIAN_POINT('',(14.,-3.,4.));
#516=CARTESIAN_POINT('',(15.7,-3.,4.));
#517=CARTESIAN_POINT('',(14.,-3.,0.));
#518=CARTESIAN_POINT('',(15.7,-3.,0.));
#519=CARTESIAN_POINT('',(20.,39.,4.));
#520=CARTESIAN_POINT('',(20.,39.,0.));
#521=CARTESIAN_POINT('',(20.,39.,4.));
#522=CARTESIAN_POINT('',(0.,0.,4.));
#523=CARTESIAN_POINT('',(0.,0.,0.));
#524=MECHANICAL_DESIGN_GEOMETRIC_PRESENTATION_REPRESENTATION('',(#313),
#525);
#525=(
GEOMETRIC_REPRESENTATION_CONTEXT(3)
GLOBAL_UNCERTAINTY_ASSIGNED_CONTEXT((#526))
GLOBAL_UNIT_ASSIGNED_CONTEXT((#529,#528,#527))
REPRESENTATION_CONTEXT('P04_AX_body_mount_plate',
'TOP_LEVEL_ASSEMBLY_PART')
);
#526=UNCERTAINTY_MEASURE_WITH_UNIT(LENGTH_MEASURE(0.005),#529,
'DISTANCE_ACCURACY_VALUE','Maximum Tolerance applied to model');
#527=(
NAMED_UNIT(*)
SI_UNIT($,.STERADIAN.)
SOLID_ANGLE_UNIT()
);
#528=(
NAMED_UNIT(*)
PLANE_ANGLE_UNIT()
SI_UNIT($,.RADIAN.)
);
#529=(
LENGTH_UNIT()
NAMED_UNIT(*)
SI_UNIT(.MILLI.,.METRE.)
);
#530=PRODUCT_DEFINITION_SHAPE('','',#531);
#531=PRODUCT_DEFINITION('','',#533,#532);
#532=PRODUCT_DEFINITION_CONTEXT('',#539,'design');
#533=PRODUCT_DEFINITION_FORMATION_WITH_SPECIFIED_SOURCE('','',#535,
 .NOT_KNOWN.);
#534=PRODUCT_RELATED_PRODUCT_CATEGORY('','',(#535));
#535=PRODUCT('P04_AX_body_mount_plate','P04_AX_body_mount_plate',
'P04_AX_body_mount_plate',(#537));
#536=PRODUCT_CATEGORY('','');
#537=PRODUCT_CONTEXT('',#539,'mechanical');
#538=APPLICATION_PROTOCOL_DEFINITION('international standard',
'automotive_design',2010,#539);
#539=APPLICATION_CONTEXT(
'core data for automotive mechanical design processes');
ENDSEC;
END-ISO-10303-21;
