ISO-10303-21;
HEADER;
/* Generated by software containing ST-Developer
 * from STEP Tools, Inc. (www.steptools.com) 
 */
/* OPTION: strings as raw bytes, not using required /X/ escapes */

FILE_DESCRIPTION(
/* description */ ('Unknown'),
/* implementation_level */ '2;1');

FILE_NAME(
/* name */ 'P05_base_plate',
/* time_stamp */ '2026-09-23T11:20:48+08:00',
/* author */ ('Unknown'),
/* organization */ ('Unknown'),
/* preprocessor_version */ 'ST-DEVELOPER v16.7',
/* originating_system */ 'Solid Edge',
/* authorisation */ 'Unknown');

FILE_SCHEMA (('AUTOMOTIVE_DESIGN {1 0 10303 214 3 1 1}'));
ENDSEC;

DATA;
#10=PROPERTY_DEFINITION_REPRESENTATION(#14,#12);
#11=PROPERTY_DEFINITION_REPRESENTATION(#15,#13);
#12=REPRESENTATION('',(#16),#763);
#13=REPRESENTATION('',(#17),#763);
#14=PROPERTY_DEFINITION('pmi validation property','',#768);
#15=PROPERTY_DEFINITION('pmi validation property','',#768);
#16=VALUE_REPRESENTATION_ITEM('number of annotations',COUNT_MEASURE(0.));
#17=VALUE_REPRESENTATION_ITEM('number of views',COUNT_MEASURE(0.));
#18=SHAPE_REPRESENTATION_RELATIONSHIP('','',#463,#19);
#19=ADVANCED_BREP_SHAPE_REPRESENTATION('',(#461),#763);
#20=CIRCLE('',#469,22.);
#21=CIRCLE('',#470,22.);
#22=CIRCLE('',#472,3.25);
#23=CIRCLE('',#473,3.25);
#24=CIRCLE('',#475,3.25);
#25=CIRCLE('',#476,3.25);
#26=CIRCLE('',#478,3.25);
#27=CIRCLE('',#479,3.25);
#28=CIRCLE('',#481,3.25);
#29=CIRCLE('',#482,3.25);
#30=CIRCLE('',#484,1.7);
#31=CIRCLE('',#485,1.7);
#32=CIRCLE('',#487,1.7);
#33=CIRCLE('',#488,1.7);
#34=CIRCLE('',#490,1.7);
#35=CIRCLE('',#491,1.7);
#36=CIRCLE('',#493,1.7);
#37=CIRCLE('',#494,1.7);
#38=CIRCLE('',#496,1.7);
#39=CIRCLE('',#497,1.7);
#40=CIRCLE('',#499,1.7);
#41=CIRCLE('',#500,1.7);
#42=CIRCLE('',#502,1.7);
#43=CIRCLE('',#503,1.7);
#44=CIRCLE('',#505,1.7);
#45=CIRCLE('',#506,1.7);
#46=CIRCLE('',#508,15.);
#47=CIRCLE('',#509,15.);
#48=CIRCLE('',#511,15.);
#49=CIRCLE('',#512,15.);
#50=CIRCLE('',#514,15.);
#51=CIRCLE('',#515,15.);
#52=CIRCLE('',#517,15.);
#53=CIRCLE('',#518,15.);
#54=CYLINDRICAL_SURFACE('',#468,22.);
#55=CYLINDRICAL_SURFACE('',#471,3.25);
#56=CYLINDRICAL_SURFACE('',#474,3.25);
#57=CYLINDRICAL_SURFACE('',#477,3.25);
#58=CYLINDRICAL_SURFACE('',#480,3.25);
#59=CYLINDRICAL_SURFACE('',#483,1.7);
#60=CYLINDRICAL_SURFACE('',#486,1.7);
#61=CYLINDRICAL_SURFACE('',#489,1.7);
#62=CYLINDRICAL_SURFACE('',#492,1.7);
#63=CYLINDRICAL_SURFACE('',#495,1.7);
#64=CYLINDRICAL_SURFACE('',#498,1.7);
#65=CYLINDRICAL_SURFACE('',#501,1.7);
#66=CYLINDRICAL_SURFACE('',#504,1.7);
#67=CYLINDRICAL_SURFACE('',#507,15.);
#68=CYLINDRICAL_SURFACE('',#510,15.);
#69=CYLINDRICAL_SURFACE('',#513,15.);
#70=CYLINDRICAL_SURFACE('',#516,15.);
#71=ORIENTED_EDGE('',*,*,#163,.T.);
#72=ORIENTED_EDGE('',*,*,#164,.F.);
#73=ORIENTED_EDGE('',*,*,#165,.F.);
#74=ORIENTED_EDGE('',*,*,#166,.T.);
#75=ORIENTED_EDGE('',*,*,#167,.T.);
#76=ORIENTED_EDGE('',*,*,#168,.F.);
#77=ORIENTED_EDGE('',*,*,#169,.F.);
#78=ORIENTED_EDGE('',*,*,#164,.T.);
#79=ORIENTED_EDGE('',*,*,#170,.T.);
#80=ORIENTED_EDGE('',*,*,#171,.F.);
#81=ORIENTED_EDGE('',*,*,#172,.F.);
#82=ORIENTED_EDGE('',*,*,#168,.T.);
#83=ORIENTED_EDGE('',*,*,#173,.T.);
#84=ORIENTED_EDGE('',*,*,#174,.F.);
#85=ORIENTED_EDGE('',*,*,#175,.T.);
#86=ORIENTED_EDGE('',*,*,#176,.F.);
#87=ORIENTED_EDGE('',*,*,#177,.T.);
#88=ORIENTED_EDGE('',*,*,#178,.F.);
#89=ORIENTED_EDGE('',*,*,#179,.T.);
#90=ORIENTED_EDGE('',*,*,#180,.F.);
#91=ORIENTED_EDGE('',*,*,#181,.T.);
#92=ORIENTED_EDGE('',*,*,#182,.F.);
#93=ORIENTED_EDGE('',*,*,#183,.T.);
#94=ORIENTED_EDGE('',*,*,#184,.F.);
#95=ORIENTED_EDGE('',*,*,#185,.T.);
#96=ORIENTED_EDGE('',*,*,#186,.F.);
#97=ORIENTED_EDGE('',*,*,#187,.T.);
#98=ORIENTED_EDGE('',*,*,#188,.F.);
#99=ORIENTED_EDGE('',*,*,#189,.T.);
#100=ORIENTED_EDGE('',*,*,#190,.F.);
#101=ORIENTED_EDGE('',*,*,#191,.T.);
#102=ORIENTED_EDGE('',*,*,#192,.F.);
#103=ORIENTED_EDGE('',*,*,#193,.T.);
#104=ORIENTED_EDGE('',*,*,#194,.F.);
#105=ORIENTED_EDGE('',*,*,#195,.T.);
#106=ORIENTED_EDGE('',*,*,#196,.F.);
#107=ORIENTED_EDGE('',*,*,#197,.T.);
#108=ORIENTED_EDGE('',*,*,#198,.F.);
#109=ORIENTED_EDGE('',*,*,#199,.T.);
#110=ORIENTED_EDGE('',*,*,#200,.F.);
#111=ORIENTED_EDGE('',*,*,#201,.T.);
#112=ORIENTED_EDGE('',*,*,#202,.F.);
#113=ORIENTED_EDGE('',*,*,#203,.T.);
#114=ORIENTED_EDGE('',*,*,#204,.F.);
#115=ORIENTED_EDGE('',*,*,#205,.T.);
#116=ORIENTED_EDGE('',*,*,#206,.F.);
#117=ORIENTED_EDGE('',*,*,#207,.T.);
#118=ORIENTED_EDGE('',*,*,#166,.F.);
#119=ORIENTED_EDGE('',*,*,#208,.F.);
#120=ORIENTED_EDGE('',*,*,#171,.T.);
#121=ORIENTED_EDGE('',*,*,#205,.F.);
#122=ORIENTED_EDGE('',*,*,#203,.F.);
#123=ORIENTED_EDGE('',*,*,#201,.F.);
#124=ORIENTED_EDGE('',*,*,#199,.F.);
#125=ORIENTED_EDGE('',*,*,#197,.F.);
#126=ORIENTED_EDGE('',*,*,#195,.F.);
#127=ORIENTED_EDGE('',*,*,#193,.F.);
#128=ORIENTED_EDGE('',*,*,#191,.F.);
#129=ORIENTED_EDGE('',*,*,#189,.F.);
#130=ORIENTED_EDGE('',*,*,#187,.F.);
#131=ORIENTED_EDGE('',*,*,#185,.F.);
#132=ORIENTED_EDGE('',*,*,#183,.F.);
#133=ORIENTED_EDGE('',*,*,#181,.F.);
#134=ORIENTED_EDGE('',*,*,#179,.F.);
#135=ORIENTED_EDGE('',*,*,#177,.F.);
#136=ORIENTED_EDGE('',*,*,#175,.F.);
#137=ORIENTED_EDGE('',*,*,#173,.F.);
#138=ORIENTED_EDGE('',*,*,#165,.T.);
#139=ORIENTED_EDGE('',*,*,#169,.T.);
#140=ORIENTED_EDGE('',*,*,#172,.T.);
#141=ORIENTED_EDGE('',*,*,#208,.T.);
#142=ORIENTED_EDGE('',*,*,#206,.T.);
#143=ORIENTED_EDGE('',*,*,#204,.T.);
#144=ORIENTED_EDGE('',*,*,#202,.T.);
#145=ORIENTED_EDGE('',*,*,#200,.T.);
#146=ORIENTED_EDGE('',*,*,#198,.T.);
#147=ORIENTED_EDGE('',*,*,#196,.T.);
#148=ORIENTED_EDGE('',*,*,#194,.T.);
#149=ORIENTED_EDGE('',*,*,#192,.T.);
#150=ORIENTED_EDGE('',*,*,#190,.T.);
#151=ORIENTED_EDGE('',*,*,#188,.T.);
#152=ORIENTED_EDGE('',*,*,#186,.T.);
#153=ORIENTED_EDGE('',*,*,#184,.T.);
#154=ORIENTED_EDGE('',*,*,#182,.T.);
#155=ORIENTED_EDGE('',*,*,#180,.T.);
#156=ORIENTED_EDGE('',*,*,#178,.T.);
#157=ORIENTED_EDGE('',*,*,#176,.T.);
#158=ORIENTED_EDGE('',*,*,#174,.T.);
#159=ORIENTED_EDGE('',*,*,#163,.F.);
#160=ORIENTED_EDGE('',*,*,#207,.F.);
#161=ORIENTED_EDGE('',*,*,#170,.F.);
#162=ORIENTED_EDGE('',*,*,#167,.F.);
#163=EDGE_CURVE('',#209,#210,#251,.T.);
#164=EDGE_CURVE('',#211,#210,#252,.T.);
#165=EDGE_CURVE('',#212,#211,#253,.T.);
#166=EDGE_CURVE('',#212,#209,#254,.T.);
#167=EDGE_CURVE('',#210,#213,#255,.T.);
#168=EDGE_CURVE('',#214,#213,#256,.T.);
#169=EDGE_CURVE('',#211,#214,#257,.T.);
#170=EDGE_CURVE('',#213,#215,#258,.T.);
#171=EDGE_CURVE('',#216,#215,#259,.T.);
#172=EDGE_CURVE('',#214,#216,#260,.T.);
#173=EDGE_CURVE('',#217,#217,#20,.T.);
#174=EDGE_CURVE('',#218,#218,#21,.T.);
#175=EDGE_CURVE('',#219,#219,#22,.T.);
#176=EDGE_CURVE('',#220,#220,#23,.T.);
#177=EDGE_CURVE('',#221,#221,#24,.T.);
#178=EDGE_CURVE('',#222,#222,#25,.T.);
#179=EDGE_CURVE('',#223,#223,#26,.T.);
#180=EDGE_CURVE('',#224,#224,#27,.T.);
#181=EDGE_CURVE('',#225,#225,#28,.T.);
#182=EDGE_CURVE('',#226,#226,#29,.T.);
#183=EDGE_CURVE('',#227,#227,#30,.T.);
#184=EDGE_CURVE('',#228,#228,#31,.T.);
#185=EDGE_CURVE('',#229,#229,#32,.T.);
#186=EDGE_CURVE('',#230,#230,#33,.T.);
#187=EDGE_CURVE('',#231,#231,#34,.T.);
#188=EDGE_CURVE('',#232,#232,#35,.T.);
#189=EDGE_CURVE('',#233,#233,#36,.T.);
#190=EDGE_CURVE('',#234,#234,#37,.T.);
#191=EDGE_CURVE('',#235,#235,#38,.T.);
#192=EDGE_CURVE('',#236,#236,#39,.T.);
#193=EDGE_CURVE('',#237,#237,#40,.T.);
#194=EDGE_CURVE('',#238,#238,#41,.T.);
#195=EDGE_CURVE('',#239,#239,#42,.T.);
#196=EDGE_CURVE('',#240,#240,#43,.T.);
#197=EDGE_CURVE('',#241,#241,#44,.T.);
#198=EDGE_CURVE('',#242,#242,#45,.T.);
#199=EDGE_CURVE('',#243,#243,#46,.T.);
#200=EDGE_CURVE('',#244,#244,#47,.T.);
#201=EDGE_CURVE('',#245,#245,#48,.T.);
#202=EDGE_CURVE('',#246,#246,#49,.T.);
#203=EDGE_CURVE('',#247,#247,#50,.T.);
#204=EDGE_CURVE('',#248,#248,#51,.T.);
#205=EDGE_CURVE('',#249,#249,#52,.T.);
#206=EDGE_CURVE('',#250,#250,#53,.T.);
#207=EDGE_CURVE('',#215,#209,#261,.T.);
#208=EDGE_CURVE('',#216,#212,#262,.T.);
#209=VERTEX_POINT('',#653);
#210=VERTEX_POINT('',#654);
#211=VERTEX_POINT('',#656);
#212=VERTEX_POINT('',#658);
#213=VERTEX_POINT('',#662);
#214=VERTEX_POINT('',#664);
#215=VERTEX_POINT('',#668);
#216=VERTEX_POINT('',#670);
#217=VERTEX_POINT('',#674);
#218=VERTEX_POINT('',#676);
#219=VERTEX_POINT('',#679);
#220=VERTEX_POINT('',#681);
#221=VERTEX_POINT('',#684);
#222=VERTEX_POINT('',#686);
#223=VERTEX_POINT('',#689);
#224=VERTEX_POINT('',#691);
#225=VERTEX_POINT('',#694);
#226=VERTEX_POINT('',#696);
#227=VERTEX_POINT('',#699);
#228=VERTEX_POINT('',#701);
#229=VERTEX_POINT('',#704);
#230=VERTEX_POINT('',#706);
#231=VERTEX_POINT('',#709);
#232=VERTEX_POINT('',#711);
#233=VERTEX_POINT('',#714);
#234=VERTEX_POINT('',#716);
#235=VERTEX_POINT('',#719);
#236=VERTEX_POINT('',#721);
#237=VERTEX_POINT('',#724);
#238=VERTEX_POINT('',#726);
#239=VERTEX_POINT('',#729);
#240=VERTEX_POINT('',#731);
#241=VERTEX_POINT('',#734);
#242=VERTEX_POINT('',#736);
#243=VERTEX_POINT('',#739);
#244=VERTEX_POINT('',#741);
#245=VERTEX_POINT('',#744);
#246=VERTEX_POINT('',#746);
#247=VERTEX_POINT('',#749);
#248=VERTEX_POINT('',#751);
#249=VERTEX_POINT('',#754);
#250=VERTEX_POINT('',#756);
#251=LINE('',#652,#263);
#252=LINE('',#655,#264);
#253=LINE('',#657,#265);
#254=LINE('',#659,#266);
#255=LINE('',#661,#267);
#256=LINE('',#663,#268);
#257=LINE('',#665,#269);
#258=LINE('',#667,#270);
#259=LINE('',#669,#271);
#260=LINE('',#671,#272);
#261=LINE('',#758,#273);
#262=LINE('',#759,#274);
#263=VECTOR('',#526,1000.);
#264=VECTOR('',#527,1000.);
#265=VECTOR('',#528,1000.);
#266=VECTOR('',#529,1000.);
#267=VECTOR('',#532,1000.);
#268=VECTOR('',#533,1000.);
#269=VECTOR('',#534,1000.);
#270=VECTOR('',#537,1000.);
#271=VECTOR('',#538,1000.);
#272=VECTOR('',#539,1000.);
#273=VECTOR('',#644,1000.);
#274=VECTOR('',#645,1000.);
#275=EDGE_LOOP('',(#71,#72,#73,#74));
#276=EDGE_LOOP('',(#75,#76,#77,#78));
#277=EDGE_LOOP('',(#79,#80,#81,#82));
#278=EDGE_LOOP('',(#83));
#279=EDGE_LOOP('',(#84));
#280=EDGE_LOOP('',(#85));
#281=EDGE_LOOP('',(#86));
#282=EDGE_LOOP('',(#87));
#283=EDGE_LOOP('',(#88));
#284=EDGE_LOOP('',(#89));
#285=EDGE_LOOP('',(#90));
#286=EDGE_LOOP('',(#91));
#287=EDGE_LOOP('',(#92));
#288=EDGE_LOOP('',(#93));
#289=EDGE_LOOP('',(#94));
#290=EDGE_LOOP('',(#95));
#291=EDGE_LOOP('',(#96));
#292=EDGE_LOOP('',(#97));
#293=EDGE_LOOP('',(#98));
#294=EDGE_LOOP('',(#99));
#295=EDGE_LOOP('',(#100));
#296=EDGE_LOOP('',(#101));
#297=EDGE_LOOP('',(#102));
#298=EDGE_LOOP('',(#103));
#299=EDGE_LOOP('',(#104));
#300=EDGE_LOOP('',(#105));
#301=EDGE_LOOP('',(#106));
#302=EDGE_LOOP('',(#107));
#303=EDGE_LOOP('',(#108));
#304=EDGE_LOOP('',(#109));
#305=EDGE_LOOP('',(#110));
#306=EDGE_LOOP('',(#111));
#307=EDGE_LOOP('',(#112));
#308=EDGE_LOOP('',(#113));
#309=EDGE_LOOP('',(#114));
#310=EDGE_LOOP('',(#115));
#311=EDGE_LOOP('',(#116));
#312=EDGE_LOOP('',(#117,#118,#119,#120));
#313=EDGE_LOOP('',(#121));
#314=EDGE_LOOP('',(#122));
#315=EDGE_LOOP('',(#123));
#316=EDGE_LOOP('',(#124));
#317=EDGE_LOOP('',(#125));
#318=EDGE_LOOP('',(#126));
#319=EDGE_LOOP('',(#127));
#320=EDGE_LOOP('',(#128));
#321=EDGE_LOOP('',(#129));
#322=EDGE_LOOP('',(#130));
#323=EDGE_LOOP('',(#131));
#324=EDGE_LOOP('',(#132));
#325=EDGE_LOOP('',(#133));
#326=EDGE_LOOP('',(#134));
#327=EDGE_LOOP('',(#135));
#328=EDGE_LOOP('',(#136));
#329=EDGE_LOOP('',(#137));
#330=EDGE_LOOP('',(#138,#139,#140,#141));
#331=EDGE_LOOP('',(#142));
#332=EDGE_LOOP('',(#143));
#333=EDGE_LOOP('',(#144));
#334=EDGE_LOOP('',(#145));
#335=EDGE_LOOP('',(#146));
#336=EDGE_LOOP('',(#147));
#337=EDGE_LOOP('',(#148));
#338=EDGE_LOOP('',(#149));
#339=EDGE_LOOP('',(#150));
#340=EDGE_LOOP('',(#151));
#341=EDGE_LOOP('',(#152));
#342=EDGE_LOOP('',(#153));
#343=EDGE_LOOP('',(#154));
#344=EDGE_LOOP('',(#155));
#345=EDGE_LOOP('',(#156));
#346=EDGE_LOOP('',(#157));
#347=EDGE_LOOP('',(#158));
#348=EDGE_LOOP('',(#159,#160,#161,#162));
#349=FACE_BOUND('',#275,.T.);
#350=FACE_BOUND('',#276,.T.);
#351=FACE_BOUND('',#277,.T.);
#352=FACE_BOUND('',#278,.T.);
#353=FACE_BOUND('',#279,.T.);
#354=FACE_BOUND('',#280,.T.);
#355=FACE_BOUND('',#281,.T.);
#356=FACE_BOUND('',#282,.T.);
#357=FACE_BOUND('',#283,.T.);
#358=FACE_BOUND('',#284,.T.);
#359=FACE_BOUND('',#285,.T.);
#360=FACE_BOUND('',#286,.T.);
#361=FACE_BOUND('',#287,.T.);
#362=FACE_BOUND('',#288,.T.);
#363=FACE_BOUND('',#289,.T.);
#364=FACE_BOUND('',#290,.T.);
#365=FACE_BOUND('',#291,.T.);
#366=FACE_BOUND('',#292,.T.);
#367=FACE_BOUND('',#293,.T.);
#368=FACE_BOUND('',#294,.T.);
#369=FACE_BOUND('',#295,.T.);
#370=FACE_BOUND('',#296,.T.);
#371=FACE_BOUND('',#297,.T.);
#372=FACE_BOUND('',#298,.T.);
#373=FACE_BOUND('',#299,.T.);
#374=FACE_BOUND('',#300,.T.);
#375=FACE_BOUND('',#301,.T.);
#376=FACE_BOUND('',#302,.T.);
#377=FACE_BOUND('',#303,.T.);
#378=FACE_BOUND('',#304,.T.);
#379=FACE_BOUND('',#305,.T.);
#380=FACE_BOUND('',#306,.T.);
#381=FACE_BOUND('',#307,.T.);
#382=FACE_BOUND('',#308,.T.);
#383=FACE_BOUND('',#309,.T.);
#384=FACE_BOUND('',#310,.T.);
#385=FACE_BOUND('',#311,.T.);
#386=FACE_BOUND('',#312,.T.);
#387=FACE_BOUND('',#313,.T.);
#388=FACE_BOUND('',#314,.T.);
#389=FACE_BOUND('',#315,.T.);
#390=FACE_BOUND('',#316,.T.);
#391=FACE_BOUND('',#317,.T.);
#392=FACE_BOUND('',#318,.T.);
#393=FACE_BOUND('',#319,.T.);
#394=FACE_BOUND('',#320,.T.);
#395=FACE_BOUND('',#321,.T.);
#396=FACE_BOUND('',#322,.T.);
#397=FACE_BOUND('',#323,.T.);
#398=FACE_BOUND('',#324,.T.);
#399=FACE_BOUND('',#325,.T.);
#400=FACE_BOUND('',#326,.T.);
#401=FACE_BOUND('',#327,.T.);
#402=FACE_BOUND('',#328,.T.);
#403=FACE_BOUND('',#329,.T.);
#404=FACE_BOUND('',#330,.T.);
#405=FACE_BOUND('',#331,.T.);
#406=FACE_BOUND('',#332,.T.);
#407=FACE_BOUND('',#333,.T.);
#408=FACE_BOUND('',#334,.T.);
#409=FACE_BOUND('',#335,.T.);
#410=FACE_BOUND('',#336,.T.);
#411=FACE_BOUND('',#337,.T.);
#412=FACE_BOUND('',#338,.T.);
#413=FACE_BOUND('',#339,.T.);
#414=FACE_BOUND('',#340,.T.);
#415=FACE_BOUND('',#341,.T.);
#416=FACE_BOUND('',#342,.T.);
#417=FACE_BOUND('',#343,.T.);
#418=FACE_BOUND('',#344,.T.);
#419=FACE_BOUND('',#345,.T.);
#420=FACE_BOUND('',#346,.T.);
#421=FACE_BOUND('',#347,.T.);
#422=FACE_BOUND('',#348,.T.);
#423=PLANE('',#465);
#424=PLANE('',#466);
#425=PLANE('',#467);
#426=PLANE('',#519);
#427=PLANE('',#520);
#428=PLANE('',#521);
#429=ADVANCED_FACE('',(#349),#423,.F.);
#430=ADVANCED_FACE('',(#350),#424,.F.);
#431=ADVANCED_FACE('',(#351),#425,.F.);
#432=ADVANCED_FACE('',(#352,#353),#54,.F.);
#433=ADVANCED_FACE('',(#354,#355),#55,.F.);
#434=ADVANCED_FACE('',(#356,#357),#56,.F.);
#435=ADVANCED_FACE('',(#358,#359),#57,.F.);
#436=ADVANCED_FACE('',(#360,#361),#58,.F.);
#437=ADVANCED_FACE('',(#362,#363),#59,.F.);
#438=ADVANCED_FACE('',(#364,#365),#60,.F.);
#439=ADVANCED_FACE('',(#366,#367),#61,.F.);
#440=ADVANCED_FACE('',(#368,#369),#62,.F.);
#441=ADVANCED_FACE('',(#370,#371),#63,.F.);
#442=ADVANCED_FACE('',(#372,#373),#64,.F.);
#443=ADVANCED_FACE('',(#374,#375),#65,.F.);
#444=ADVANCED_FACE('',(#376,#377),#66,.F.);
#445=ADVANCED_FACE('',(#378,#379),#67,.F.);
#446=ADVANCED_FACE('',(#380,#381),#68,.F.);
#447=ADVANCED_FACE('',(#382,#383),#69,.F.);
#448=ADVANCED_FACE('',(#384,#385),#70,.F.);
#449=ADVANCED_FACE('',(#386),#426,.F.);
#450=ADVANCED_FACE('',(#387,#388,#389,#390,#391,#392,#393,#394,#395,#396,
#397,#398,#399,#400,#401,#402,#403,#404),#427,.T.);
#451=ADVANCED_FACE('',(#405,#406,#407,#408,#409,#410,#411,#412,#413,#414,
#415,#416,#417,#418,#419,#420,#421,#422),#428,.F.);
#452=CLOSED_SHELL('',(#429,#430,#431,#432,#433,#434,#435,#436,#437,#438,
#439,#440,#441,#442,#443,#444,#445,#446,#447,#448,#449,#450,#451));
#453=STYLED_ITEM('',(#454),#461);
#454=PRESENTATION_STYLE_ASSIGNMENT((#455));
#455=SURFACE_STYLE_USAGE(.BOTH.,#456);
#456=SURFACE_SIDE_STYLE('',(#457));
#457=SURFACE_STYLE_FILL_AREA(#458);
#458=FILL_AREA_STYLE('',(#459));
#459=FILL_AREA_STYLE_COLOUR('',#460);
#460=COLOUR_RGB('',0.506983280181885,0.531564235687256,0.550000011920929);
#461=MANIFOLD_SOLID_BREP('',#452);
#462=SHAPE_DEFINITION_REPRESENTATION(#768,#463);
#463=SHAPE_REPRESENTATION('P05_base_plate',(#464),#763);
#464=AXIS2_PLACEMENT_3D('',#650,#522,#523);
#465=AXIS2_PLACEMENT_3D('',#651,#524,#525);
#466=AXIS2_PLACEMENT_3D('',#660,#530,#531);
#467=AXIS2_PLACEMENT_3D('',#666,#535,#536);
#468=AXIS2_PLACEMENT_3D('',#672,#540,#541);
#469=AXIS2_PLACEMENT_3D('',#673,#542,#543);
#470=AXIS2_PLACEMENT_3D('',#675,#544,#545);
#471=AXIS2_PLACEMENT_3D('',#677,#546,#547);
#472=AXIS2_PLACEMENT_3D('',#678,#548,#549);
#473=AXIS2_PLACEMENT_3D('',#680,#550,#551);
#474=AXIS2_PLACEMENT_3D('',#682,#552,#553);
#475=AXIS2_PLACEMENT_3D('',#683,#554,#555);
#476=AXIS2_PLACEMENT_3D('',#685,#556,#557);
#477=AXIS2_PLACEMENT_3D('',#687,#558,#559);
#478=AXIS2_PLACEMENT_3D('',#688,#560,#561);
#479=AXIS2_PLACEMENT_3D('',#690,#562,#563);
#480=AXIS2_PLACEMENT_3D('',#692,#564,#565);
#481=AXIS2_PLACEMENT_3D('',#693,#566,#567);
#482=AXIS2_PLACEMENT_3D('',#695,#568,#569);
#483=AXIS2_PLACEMENT_3D('',#697,#570,#571);
#484=AXIS2_PLACEMENT_3D('',#698,#572,#573);
#485=AXIS2_PLACEMENT_3D('',#700,#574,#575);
#486=AXIS2_PLACEMENT_3D('',#702,#576,#577);
#487=AXIS2_PLACEMENT_3D('',#703,#578,#579);
#488=AXIS2_PLACEMENT_3D('',#705,#580,#581);
#489=AXIS2_PLACEMENT_3D('',#707,#582,#583);
#490=AXIS2_PLACEMENT_3D('',#708,#584,#585);
#491=AXIS2_PLACEMENT_3D('',#710,#586,#587);
#492=AXIS2_PLACEMENT_3D('',#712,#588,#589);
#493=AXIS2_PLACEMENT_3D('',#713,#590,#591);
#494=AXIS2_PLACEMENT_3D('',#715,#592,#593);
#495=AXIS2_PLACEMENT_3D('',#717,#594,#595);
#496=AXIS2_PLACEMENT_3D('',#718,#596,#597);
#497=AXIS2_PLACEMENT_3D('',#720,#598,#599);
#498=AXIS2_PLACEMENT_3D('',#722,#600,#601);
#499=AXIS2_PLACEMENT_3D('',#723,#602,#603);
#500=AXIS2_PLACEMENT_3D('',#725,#604,#605);
#501=AXIS2_PLACEMENT_3D('',#727,#606,#607);
#502=AXIS2_PLACEMENT_3D('',#728,#608,#609);
#503=AXIS2_PLACEMENT_3D('',#730,#610,#611);
#504=AXIS2_PLACEMENT_3D('',#732,#612,#613);
#505=AXIS2_PLACEMENT_3D('',#733,#614,#615);
#506=AXIS2_PLACEMENT_3D('',#735,#616,#617);
#507=AXIS2_PLACEMENT_3D('',#737,#618,#619);
#508=AXIS2_PLACEMENT_3D('',#738,#620,#621);
#509=AXIS2_PLACEMENT_3D('',#740,#622,#623);
#510=AXIS2_PLACEMENT_3D('',#742,#624,#625);
#511=AXIS2_PLACEMENT_3D('',#743,#626,#627);
#512=AXIS2_PLACEMENT_3D('',#745,#628,#629);
#513=AXIS2_PLACEMENT_3D('',#747,#630,#631);
#514=AXIS2_PLACEMENT_3D('',#748,#632,#633);
#515=AXIS2_PLACEMENT_3D('',#750,#634,#635);
#516=AXIS2_PLACEMENT_3D('',#752,#636,#637);
#517=AXIS2_PLACEMENT_3D('',#753,#638,#639);
#518=AXIS2_PLACEMENT_3D('',#755,#640,#641);
#519=AXIS2_PLACEMENT_3D('',#757,#642,#643);
#520=AXIS2_PLACEMENT_3D('',#760,#646,#647);
#521=AXIS2_PLACEMENT_3D('',#761,#648,#649);
#522=DIRECTION('',(0.,0.,1.));
#523=DIRECTION('',(1.,0.,0.));
#524=DIRECTION('',(1.,0.,0.));
#525=DIRECTION('',(0.,0.,-1.));
#526=DIRECTION('',(0.,-1.,0.));
#527=DIRECTION('',(0.,0.,-1.));
#528=DIRECTION('',(0.,-1.,0.));
#529=DIRECTION('',(0.,0.,-1.));
#530=DIRECTION('',(0.,1.,0.));
#531=DIRECTION('',(0.,0.,1.));
#532=DIRECTION('',(1.,0.,0.));
#533=DIRECTION('',(0.,0.,-1.));
#534=DIRECTION('',(1.,0.,0.));
#535=DIRECTION('',(-1.,0.,0.));
#536=DIRECTION('',(0.,0.,1.));
#537=DIRECTION('',(0.,1.,0.));
#538=DIRECTION('',(0.,0.,-1.));
#539=DIRECTION('',(0.,1.,0.));
#540=DIRECTION('',(0.,0.,-1.));
#541=DIRECTION('',(-1.,0.,0.));
#542=DIRECTION('',(0.,0.,1.));
#543=DIRECTION('',(1.,0.,0.));
#544=DIRECTION('',(0.,0.,1.));
#545=DIRECTION('',(1.,0.,0.));
#546=DIRECTION('',(0.,0.,-1.));
#547=DIRECTION('',(-1.,0.,0.));
#548=DIRECTION('',(0.,0.,1.));
#549=DIRECTION('',(1.,0.,0.));
#550=DIRECTION('',(0.,0.,1.));
#551=DIRECTION('',(1.,0.,0.));
#552=DIRECTION('',(0.,0.,-1.));
#553=DIRECTION('',(-1.,0.,0.));
#554=DIRECTION('',(0.,0.,1.));
#555=DIRECTION('',(1.,0.,0.));
#556=DIRECTION('',(0.,0.,1.));
#557=DIRECTION('',(1.,0.,0.));
#558=DIRECTION('',(0.,0.,-1.));
#559=DIRECTION('',(-1.,0.,0.));
#560=DIRECTION('',(0.,0.,1.));
#561=DIRECTION('',(1.,0.,0.));
#562=DIRECTION('',(0.,0.,1.));
#563=DIRECTION('',(1.,0.,0.));
#564=DIRECTION('',(0.,0.,-1.));
#565=DIRECTION('',(-1.,0.,0.));
#566=DIRECTION('',(0.,0.,1.));
#567=DIRECTION('',(1.,0.,0.));
#568=DIRECTION('',(0.,0.,1.));
#569=DIRECTION('',(1.,0.,0.));
#570=DIRECTION('',(0.,0.,-1.));
#571=DIRECTION('',(-1.,0.,0.));
#572=DIRECTION('',(0.,0.,1.));
#573=DIRECTION('',(1.,0.,0.));
#574=DIRECTION('',(0.,0.,1.));
#575=DIRECTION('',(1.,0.,0.));
#576=DIRECTION('',(0.,0.,-1.));
#577=DIRECTION('',(-1.,0.,0.));
#578=DIRECTION('',(0.,0.,1.));
#579=DIRECTION('',(1.,0.,0.));
#580=DIRECTION('',(0.,0.,1.));
#581=DIRECTION('',(1.,0.,0.));
#582=DIRECTION('',(0.,0.,-1.));
#583=DIRECTION('',(-1.,0.,0.));
#584=DIRECTION('',(0.,0.,1.));
#585=DIRECTION('',(1.,0.,0.));
#586=DIRECTION('',(0.,0.,1.));
#587=DIRECTION('',(1.,0.,0.));
#588=DIRECTION('',(0.,0.,-1.));
#589=DIRECTION('',(-1.,0.,0.));
#590=DIRECTION('',(0.,0.,1.));
#591=DIRECTION('',(1.,0.,0.));
#592=DIRECTION('',(0.,0.,1.));
#593=DIRECTION('',(1.,0.,0.));
#594=DIRECTION('',(0.,0.,-1.));
#595=DIRECTION('',(-1.,0.,0.));
#596=DIRECTION('',(0.,0.,1.));
#597=DIRECTION('',(1.,0.,0.));
#598=DIRECTION('',(0.,0.,1.));
#599=DIRECTION('',(1.,0.,0.));
#600=DIRECTION('',(0.,0.,-1.));
#601=DIRECTION('',(-1.,0.,0.));
#602=DIRECTION('',(0.,0.,1.));
#603=DIRECTION('',(1.,0.,0.));
#604=DIRECTION('',(0.,0.,1.));
#605=DIRECTION('',(1.,0.,0.));
#606=DIRECTION('',(0.,0.,-1.));
#607=DIRECTION('',(-1.,0.,0.));
#608=DIRECTION('',(0.,0.,1.));
#609=DIRECTION('',(1.,0.,0.));
#610=DIRECTION('',(0.,0.,1.));
#611=DIRECTION('',(1.,0.,0.));
#612=DIRECTION('',(0.,0.,-1.));
#613=DIRECTION('',(-1.,0.,0.));
#614=DIRECTION('',(0.,0.,1.));
#615=DIRECTION('',(1.,0.,0.));
#616=DIRECTION('',(0.,0.,1.));
#617=DIRECTION('',(1.,0.,0.));
#618=DIRECTION('',(0.,0.,-1.));
#619=DIRECTION('',(-1.,0.,0.));
#620=DIRECTION('',(0.,0.,1.));
#621=DIRECTION('',(1.,0.,0.));
#622=DIRECTION('',(0.,0.,1.));
#623=DIRECTION('',(1.,0.,0.));
#624=DIRECTION('',(0.,0.,-1.));
#625=DIRECTION('',(-1.,0.,0.));
#626=DIRECTION('',(0.,0.,1.));
#627=DIRECTION('',(1.,0.,0.));
#628=DIRECTION('',(0.,0.,1.));
#629=DIRECTION('',(1.,0.,0.));
#630=DIRECTION('',(0.,0.,-1.));
#631=DIRECTION('',(-1.,0.,0.));
#632=DIRECTION('',(0.,0.,1.));
#633=DIRECTION('',(1.,0.,0.));
#634=DIRECTION('',(0.,0.,1.));
#635=DIRECTION('',(1.,0.,0.));
#636=DIRECTION('',(0.,0.,-1.));
#637=DIRECTION('',(-1.,0.,0.));
#638=DIRECTION('',(0.,0.,1.));
#639=DIRECTION('',(1.,0.,0.));
#640=DIRECTION('',(0.,0.,1.));
#641=DIRECTION('',(1.,0.,0.));
#642=DIRECTION('',(0.,-1.,0.));
#643=DIRECTION('',(0.,0.,-1.));
#644=DIRECTION('',(-1.,0.,0.));
#645=DIRECTION('',(-1.,0.,0.));
#646=DIRECTION('',(0.,0.,1.));
#647=DIRECTION('',(1.,0.,0.));
#648=DIRECTION('',(0.,0.,1.));
#649=DIRECTION('',(1.,0.,0.));
#650=CARTESIAN_POINT('',(0.,0.,0.));
#651=CARTESIAN_POINT('',(-100.,90.,5.));
#652=CARTESIAN_POINT('',(-100.,90.,0.));
#653=CARTESIAN_POINT('',(-100.,90.,0.));
#654=CARTESIAN_POINT('',(-100.,-90.,0.));
#655=CARTESIAN_POINT('',(-100.,-90.,5.));
#656=CARTESIAN_POINT('',(-100.,-90.,5.));
#657=CARTESIAN_POINT('',(-100.,90.,5.));
#658=CARTESIAN_POINT('',(-100.,90.,5.));
#659=CARTESIAN_POINT('',(-100.,90.,5.));
#660=CARTESIAN_POINT('',(-100.,-90.,5.));
#661=CARTESIAN_POINT('',(-100.,-90.,0.));
#662=CARTESIAN_POINT('',(100.,-90.,0.));
#663=CARTESIAN_POINT('',(100.,-90.,5.));
#664=CARTESIAN_POINT('',(100.,-90.,5.));
#665=CARTESIAN_POINT('',(-100.,-90.,5.));
#666=CARTESIAN_POINT('',(100.,-90.,5.));
#667=CARTESIAN_POINT('',(100.,-90.,0.));
#668=CARTESIAN_POINT('',(100.,90.,0.));
#669=CARTESIAN_POINT('',(100.,90.,5.));
#670=CARTESIAN_POINT('',(100.,90.,5.));
#671=CARTESIAN_POINT('',(100.,-90.,5.));
#672=CARTESIAN_POINT('',(0.,0.,5.));
#673=CARTESIAN_POINT('',(0.,0.,5.));
#674=CARTESIAN_POINT('',(22.,0.,5.));
#675=CARTESIAN_POINT('',(0.,0.,0.));
#676=CARTESIAN_POINT('',(22.,0.,0.));
#677=CARTESIAN_POINT('',(-85.,-75.,5.));
#678=CARTESIAN_POINT('',(-85.,-75.,5.));
#679=CARTESIAN_POINT('',(-81.75,-75.,5.));
#680=CARTESIAN_POINT('',(-85.,-75.,0.));
#681=CARTESIAN_POINT('',(-81.75,-75.,0.));
#682=CARTESIAN_POINT('',(-85.,75.,5.));
#683=CARTESIAN_POINT('',(-85.,75.,5.));
#684=CARTESIAN_POINT('',(-81.75,75.,5.));
#685=CARTESIAN_POINT('',(-85.,75.,0.));
#686=CARTESIAN_POINT('',(-81.75,75.,0.));
#687=CARTESIAN_POINT('',(85.,-75.,5.));
#688=CARTESIAN_POINT('',(85.,-75.,5.));
#689=CARTESIAN_POINT('',(88.25,-75.,5.));
#690=CARTESIAN_POINT('',(85.,-75.,0.));
#691=CARTESIAN_POINT('',(88.25,-75.,0.));
#692=CARTESIAN_POINT('',(85.,75.,5.));
#693=CARTESIAN_POINT('',(85.,75.,5.));
#694=CARTESIAN_POINT('',(88.25,75.,5.));
#695=CARTESIAN_POINT('',(85.,75.,0.));
#696=CARTESIAN_POINT('',(88.25,75.,0.));
#697=CARTESIAN_POINT('',(70.,0.,5.));
#698=CARTESIAN_POINT('',(70.,0.,5.));
#699=CARTESIAN_POINT('',(71.7,0.,5.));
#700=CARTESIAN_POINT('',(70.,0.,0.));
#701=CARTESIAN_POINT('',(71.7,0.,0.));
#702=CARTESIAN_POINT('',(49.4974746830583,49.4974746830583,5.));
#703=CARTESIAN_POINT('',(49.4974746830583,49.4974746830583,5.));
#704=CARTESIAN_POINT('',(51.1974746830583,49.4974746830583,5.));
#705=CARTESIAN_POINT('',(49.4974746830583,49.4974746830583,0.));
#706=CARTESIAN_POINT('',(51.1974746830583,49.4974746830583,0.));
#707=CARTESIAN_POINT('',(4.28626379701574E-15,70.,5.));
#708=CARTESIAN_POINT('',(4.28626379701574E-15,70.,5.));
#709=CARTESIAN_POINT('',(1.7,70.,5.));
#710=CARTESIAN_POINT('',(4.28626379701574E-15,70.,0.));
#711=CARTESIAN_POINT('',(1.7,70.,0.));
#712=CARTESIAN_POINT('',(-49.4974746830583,49.4974746830583,5.));
#713=CARTESIAN_POINT('',(-49.4974746830583,49.4974746830583,5.));
#714=CARTESIAN_POINT('',(-47.7974746830583,49.4974746830583,5.));
#715=CARTESIAN_POINT('',(-49.4974746830583,49.4974746830583,0.));
#716=CARTESIAN_POINT('',(-47.7974746830583,49.4974746830583,0.));
#717=CARTESIAN_POINT('',(-70.,8.57252759403147E-15,5.));
#718=CARTESIAN_POINT('',(-70.,8.57252759403147E-15,5.));
#719=CARTESIAN_POINT('',(-68.3,8.57252759403147E-15,5.));
#720=CARTESIAN_POINT('',(-70.,8.57252759403147E-15,0.));
#721=CARTESIAN_POINT('',(-68.3,8.57252759403147E-15,0.));
#722=CARTESIAN_POINT('',(-49.4974746830583,-49.4974746830583,5.));
#723=CARTESIAN_POINT('',(-49.4974746830583,-49.4974746830583,5.));
#724=CARTESIAN_POINT('',(-47.7974746830583,-49.4974746830583,5.));
#725=CARTESIAN_POINT('',(-49.4974746830583,-49.4974746830583,0.));
#726=CARTESIAN_POINT('',(-47.7974746830583,-49.4974746830583,0.));
#727=CARTESIAN_POINT('',(-1.28587913910472E-14,-70.,5.));
#728=CARTESIAN_POINT('',(-1.28587913910472E-14,-70.,5.));
#729=CARTESIAN_POINT('',(1.69999999999999,-70.,5.));
#730=CARTESIAN_POINT('',(-1.28587913910472E-14,-70.,0.));
#731=CARTESIAN_POINT('',(1.69999999999999,-70.,0.));
#732=CARTESIAN_POINT('',(49.4974746830583,-49.4974746830583,5.));
#733=CARTESIAN_POINT('',(49.4974746830583,-49.4974746830583,5.));
#734=CARTESIAN_POINT('',(51.1974746830583,-49.4974746830583,5.));
#735=CARTESIAN_POINT('',(49.4974746830583,-49.4974746830583,0.));
#736=CARTESIAN_POINT('',(51.1974746830583,-49.4974746830583,0.));
#737=CARTESIAN_POINT('',(-67.,-48.,5.));
#738=CARTESIAN_POINT('',(-67.,-48.,5.));
#739=CARTESIAN_POINT('',(-52.,-48.,5.));
#740=CARTESIAN_POINT('',(-67.,-48.,0.));
#741=CARTESIAN_POINT('',(-52.,-48.,0.));
#742=CARTESIAN_POINT('',(-67.,48.,5.));
#743=CARTESIAN_POINT('',(-67.,48.,5.));
#744=CARTESIAN_POINT('',(-52.,48.,5.));
#745=CARTESIAN_POINT('',(-67.,48.,0.));
#746=CARTESIAN_POINT('',(-52.,48.,0.));
#747=CARTESIAN_POINT('',(67.,-48.,5.));
#748=CARTESIAN_POINT('',(67.,-48.,5.));
#749=CARTESIAN_POINT('',(82.,-48.,5.));
#750=CARTESIAN_POINT('',(67.,-48.,0.));
#751=CARTESIAN_POINT('',(82.,-48.,0.));
#752=CARTESIAN_POINT('',(67.,48.,5.));
#753=CARTESIAN_POINT('',(67.,48.,5.));
#754=CARTESIAN_POINT('',(82.,48.,5.));
#755=CARTESIAN_POINT('',(67.,48.,0.));
#756=CARTESIAN_POINT('',(82.,48.,0.));
#757=CARTESIAN_POINT('',(100.,90.,5.));
#758=CARTESIAN_POINT('',(100.,90.,0.));
#759=CARTESIAN_POINT('',(100.,90.,5.));
#760=CARTESIAN_POINT('',(0.,0.,5.));
#761=CARTESIAN_POINT('',(0.,0.,0.));
#762=MECHANICAL_DESIGN_GEOMETRIC_PRESENTATION_REPRESENTATION('',(#453),
#763);
#763=(
GEOMETRIC_REPRESENTATION_CONTEXT(3)
GLOBAL_UNCERTAINTY_ASSIGNED_CONTEXT((#764))
GLOBAL_UNIT_ASSIGNED_CONTEXT((#767,#766,#765))
REPRESENTATION_CONTEXT('P05_base_plate','TOP_LEVEL_ASSEMBLY_PART')
);
#764=UNCERTAINTY_MEASURE_WITH_UNIT(LENGTH_MEASURE(0.005),#767,
'DISTANCE_ACCURACY_VALUE','Maximum Tolerance applied to model');
#765=(
NAMED_UNIT(*)
SI_UNIT($,.STERADIAN.)
SOLID_ANGLE_UNIT()
);
#766=(
NAMED_UNIT(*)
PLANE_ANGLE_UNIT()
SI_UNIT($,.RADIAN.)
);
#767=(
LENGTH_UNIT()
NAMED_UNIT(*)
SI_UNIT(.MILLI.,.METRE.)
);
#768=PRODUCT_DEFINITION_SHAPE('','',#769);
#769=PRODUCT_DEFINITION('','',#771,#770);
#770=PRODUCT_DEFINITION_CONTEXT('',#777,'design');
#771=PRODUCT_DEFINITION_FORMATION_WITH_SPECIFIED_SOURCE('','',#773,
 .NOT_KNOWN.);
#772=PRODUCT_RELATED_PRODUCT_CATEGORY('','',(#773));
#773=PRODUCT('P05_base_plate','P05_base_plate','P05_base_plate',(#775));
#774=PRODUCT_CATEGORY('','');
#775=PRODUCT_CONTEXT('',#777,'mechanical');
#776=APPLICATION_PROTOCOL_DEFINITION('international standard',
'automotive_design',2010,#777);
#777=APPLICATION_CONTEXT(
'core data for automotive mechanical design processes');
ENDSEC;
END-ISO-10303-21;
