ISO-10303-21;
HEADER;
/* Generated by software containing ST-Developer
 * from STEP Tools, Inc. (www.steptools.com) 
 */
/* OPTION: strings as raw bytes, not using required /X/ escapes */

FILE_DESCRIPTION(
/* description */ ('Unknown'),
/* implementation_level */ '2;1');

FILE_NAME(
/* name */ 'P06_turntable_interface_ring_PROVISIONAL',
/* time_stamp */ '2026-09-23T11:20:53+08:00',
/* author */ ('Unknown'),
/* organization */ ('Unknown'),
/* preprocessor_version */ 'ST-DEVELOPER v16.7',
/* originating_system */ 'Solid Edge',
/* authorisation */ 'Unknown');

FILE_SCHEMA (('AUTOMOTIVE_DESIGN {1 0 10303 214 3 1 1}'));
ENDSEC;

DATA;
#10=PROPERTY_DEFINITION_REPRESENTATION(#14,#12);
#11=PROPERTY_DEFINITION_REPRESENTATION(#15,#13);
#12=REPRESENTATION('',(#16),#593);
#13=REPRESENTATION('',(#17),#593);
#14=PROPERTY_DEFINITION('pmi validation property','',#598);
#15=PROPERTY_DEFINITION('pmi validation property','',#598);
#16=VALUE_REPRESENTATION_ITEM('number of annotations',COUNT_MEASURE(0.));
#17=VALUE_REPRESENTATION_ITEM('number of views',COUNT_MEASURE(0.));
#18=SHAPE_REPRESENTATION_RELATIONSHIP('','',#355,#19);
#19=ADVANCED_BREP_SHAPE_REPRESENTATION('',(#353),#593);
#20=PLANE('',#405);
#21=PLANE('',#406);
#22=ORIENTED_EDGE('',*,*,#86,.T.);
#23=ORIENTED_EDGE('',*,*,#87,.F.);
#24=ORIENTED_EDGE('',*,*,#88,.T.);
#25=ORIENTED_EDGE('',*,*,#89,.F.);
#26=ORIENTED_EDGE('',*,*,#90,.T.);
#27=ORIENTED_EDGE('',*,*,#91,.F.);
#28=ORIENTED_EDGE('',*,*,#92,.T.);
#29=ORIENTED_EDGE('',*,*,#93,.F.);
#30=ORIENTED_EDGE('',*,*,#94,.T.);
#31=ORIENTED_EDGE('',*,*,#95,.F.);
#32=ORIENTED_EDGE('',*,*,#96,.T.);
#33=ORIENTED_EDGE('',*,*,#97,.F.);
#34=ORIENTED_EDGE('',*,*,#98,.T.);
#35=ORIENTED_EDGE('',*,*,#99,.F.);
#36=ORIENTED_EDGE('',*,*,#100,.T.);
#37=ORIENTED_EDGE('',*,*,#101,.F.);
#38=ORIENTED_EDGE('',*,*,#102,.T.);
#39=ORIENTED_EDGE('',*,*,#103,.F.);
#40=ORIENTED_EDGE('',*,*,#104,.T.);
#41=ORIENTED_EDGE('',*,*,#105,.F.);
#42=ORIENTED_EDGE('',*,*,#106,.T.);
#43=ORIENTED_EDGE('',*,*,#107,.F.);
#44=ORIENTED_EDGE('',*,*,#108,.T.);
#45=ORIENTED_EDGE('',*,*,#109,.F.);
#46=ORIENTED_EDGE('',*,*,#110,.T.);
#47=ORIENTED_EDGE('',*,*,#111,.F.);
#48=ORIENTED_EDGE('',*,*,#112,.T.);
#49=ORIENTED_EDGE('',*,*,#113,.F.);
#50=ORIENTED_EDGE('',*,*,#114,.T.);
#51=ORIENTED_EDGE('',*,*,#115,.F.);
#52=ORIENTED_EDGE('',*,*,#116,.F.);
#53=ORIENTED_EDGE('',*,*,#117,.T.);
#54=ORIENTED_EDGE('',*,*,#114,.F.);
#55=ORIENTED_EDGE('',*,*,#112,.F.);
#56=ORIENTED_EDGE('',*,*,#110,.F.);
#57=ORIENTED_EDGE('',*,*,#108,.F.);
#58=ORIENTED_EDGE('',*,*,#106,.F.);
#59=ORIENTED_EDGE('',*,*,#104,.F.);
#60=ORIENTED_EDGE('',*,*,#102,.F.);
#61=ORIENTED_EDGE('',*,*,#100,.F.);
#62=ORIENTED_EDGE('',*,*,#98,.F.);
#63=ORIENTED_EDGE('',*,*,#96,.F.);
#64=ORIENTED_EDGE('',*,*,#94,.F.);
#65=ORIENTED_EDGE('',*,*,#92,.F.);
#66=ORIENTED_EDGE('',*,*,#90,.F.);
#67=ORIENTED_EDGE('',*,*,#88,.F.);
#68=ORIENTED_EDGE('',*,*,#86,.F.);
#69=ORIENTED_EDGE('',*,*,#116,.T.);
#70=ORIENTED_EDGE('',*,*,#115,.T.);
#71=ORIENTED_EDGE('',*,*,#113,.T.);
#72=ORIENTED_EDGE('',*,*,#111,.T.);
#73=ORIENTED_EDGE('',*,*,#109,.T.);
#74=ORIENTED_EDGE('',*,*,#107,.T.);
#75=ORIENTED_EDGE('',*,*,#105,.T.);
#76=ORIENTED_EDGE('',*,*,#103,.T.);
#77=ORIENTED_EDGE('',*,*,#101,.T.);
#78=ORIENTED_EDGE('',*,*,#99,.T.);
#79=ORIENTED_EDGE('',*,*,#97,.T.);
#80=ORIENTED_EDGE('',*,*,#95,.T.);
#81=ORIENTED_EDGE('',*,*,#93,.T.);
#82=ORIENTED_EDGE('',*,*,#91,.T.);
#83=ORIENTED_EDGE('',*,*,#89,.T.);
#84=ORIENTED_EDGE('',*,*,#87,.T.);
#85=ORIENTED_EDGE('',*,*,#117,.F.);
#86=EDGE_CURVE('',#118,#118,#150,.T.);
#87=EDGE_CURVE('',#119,#119,#151,.T.);
#88=EDGE_CURVE('',#120,#120,#152,.T.);
#89=EDGE_CURVE('',#121,#121,#153,.T.);
#90=EDGE_CURVE('',#122,#122,#154,.T.);
#91=EDGE_CURVE('',#123,#123,#155,.T.);
#92=EDGE_CURVE('',#124,#124,#156,.T.);
#93=EDGE_CURVE('',#125,#125,#157,.T.);
#94=EDGE_CURVE('',#126,#126,#158,.T.);
#95=EDGE_CURVE('',#127,#127,#159,.T.);
#96=EDGE_CURVE('',#128,#128,#160,.T.);
#97=EDGE_CURVE('',#129,#129,#161,.T.);
#98=EDGE_CURVE('',#130,#130,#162,.T.);
#99=EDGE_CURVE('',#131,#131,#163,.T.);
#100=EDGE_CURVE('',#132,#132,#164,.T.);
#101=EDGE_CURVE('',#133,#133,#165,.T.);
#102=EDGE_CURVE('',#134,#134,#166,.T.);
#103=EDGE_CURVE('',#135,#135,#167,.T.);
#104=EDGE_CURVE('',#136,#136,#168,.T.);
#105=EDGE_CURVE('',#137,#137,#169,.T.);
#106=EDGE_CURVE('',#138,#138,#170,.T.);
#107=EDGE_CURVE('',#139,#139,#171,.T.);
#108=EDGE_CURVE('',#140,#140,#172,.T.);
#109=EDGE_CURVE('',#141,#141,#173,.T.);
#110=EDGE_CURVE('',#142,#142,#174,.T.);
#111=EDGE_CURVE('',#143,#143,#175,.T.);
#112=EDGE_CURVE('',#144,#144,#176,.T.);
#113=EDGE_CURVE('',#145,#145,#177,.T.);
#114=EDGE_CURVE('',#146,#146,#178,.T.);
#115=EDGE_CURVE('',#147,#147,#179,.T.);
#116=EDGE_CURVE('',#148,#148,#180,.T.);
#117=EDGE_CURVE('',#149,#149,#181,.T.);
#118=VERTEX_POINT('',#512);
#119=VERTEX_POINT('',#514);
#120=VERTEX_POINT('',#517);
#121=VERTEX_POINT('',#519);
#122=VERTEX_POINT('',#522);
#123=VERTEX_POINT('',#524);
#124=VERTEX_POINT('',#527);
#125=VERTEX_POINT('',#529);
#126=VERTEX_POINT('',#532);
#127=VERTEX_POINT('',#534);
#128=VERTEX_POINT('',#537);
#129=VERTEX_POINT('',#539);
#130=VERTEX_POINT('',#542);
#131=VERTEX_POINT('',#544);
#132=VERTEX_POINT('',#547);
#133=VERTEX_POINT('',#549);
#134=VERTEX_POINT('',#552);
#135=VERTEX_POINT('',#554);
#136=VERTEX_POINT('',#557);
#137=VERTEX_POINT('',#559);
#138=VERTEX_POINT('',#562);
#139=VERTEX_POINT('',#564);
#140=VERTEX_POINT('',#567);
#141=VERTEX_POINT('',#569);
#142=VERTEX_POINT('',#572);
#143=VERTEX_POINT('',#574);
#144=VERTEX_POINT('',#577);
#145=VERTEX_POINT('',#579);
#146=VERTEX_POINT('',#582);
#147=VERTEX_POINT('',#584);
#148=VERTEX_POINT('',#587);
#149=VERTEX_POINT('',#589);
#150=CIRCLE('',#358,30.);
#151=CIRCLE('',#359,30.);
#152=CIRCLE('',#361,1.7);
#153=CIRCLE('',#362,1.7);
#154=CIRCLE('',#364,1.7);
#155=CIRCLE('',#365,1.7);
#156=CIRCLE('',#367,1.7);
#157=CIRCLE('',#368,1.7);
#158=CIRCLE('',#370,1.7);
#159=CIRCLE('',#371,1.7);
#160=CIRCLE('',#373,1.7);
#161=CIRCLE('',#374,1.7);
#162=CIRCLE('',#376,1.7);
#163=CIRCLE('',#377,1.7);
#164=CIRCLE('',#379,1.7);
#165=CIRCLE('',#380,1.7);
#166=CIRCLE('',#382,1.7);
#167=CIRCLE('',#383,1.7);
#168=CIRCLE('',#385,1.7);
#169=CIRCLE('',#386,1.7);
#170=CIRCLE('',#388,1.7);
#171=CIRCLE('',#389,1.7);
#172=CIRCLE('',#391,1.7);
#173=CIRCLE('',#392,1.7);
#174=CIRCLE('',#394,1.7);
#175=CIRCLE('',#395,1.7);
#176=CIRCLE('',#397,1.7);
#177=CIRCLE('',#398,1.7);
#178=CIRCLE('',#400,1.7);
#179=CIRCLE('',#401,1.7);
#180=CIRCLE('',#403,80.);
#181=CIRCLE('',#404,80.);
#182=EDGE_LOOP('',(#22));
#183=EDGE_LOOP('',(#23));
#184=EDGE_LOOP('',(#24));
#185=EDGE_LOOP('',(#25));
#186=EDGE_LOOP('',(#26));
#187=EDGE_LOOP('',(#27));
#188=EDGE_LOOP('',(#28));
#189=EDGE_LOOP('',(#29));
#190=EDGE_LOOP('',(#30));
#191=EDGE_LOOP('',(#31));
#192=EDGE_LOOP('',(#32));
#193=EDGE_LOOP('',(#33));
#194=EDGE_LOOP('',(#34));
#195=EDGE_LOOP('',(#35));
#196=EDGE_LOOP('',(#36));
#197=EDGE_LOOP('',(#37));
#198=EDGE_LOOP('',(#38));
#199=EDGE_LOOP('',(#39));
#200=EDGE_LOOP('',(#40));
#201=EDGE_LOOP('',(#41));
#202=EDGE_LOOP('',(#42));
#203=EDGE_LOOP('',(#43));
#204=EDGE_LOOP('',(#44));
#205=EDGE_LOOP('',(#45));
#206=EDGE_LOOP('',(#46));
#207=EDGE_LOOP('',(#47));
#208=EDGE_LOOP('',(#48));
#209=EDGE_LOOP('',(#49));
#210=EDGE_LOOP('',(#50));
#211=EDGE_LOOP('',(#51));
#212=EDGE_LOOP('',(#52));
#213=EDGE_LOOP('',(#53));
#214=EDGE_LOOP('',(#54));
#215=EDGE_LOOP('',(#55));
#216=EDGE_LOOP('',(#56));
#217=EDGE_LOOP('',(#57));
#218=EDGE_LOOP('',(#58));
#219=EDGE_LOOP('',(#59));
#220=EDGE_LOOP('',(#60));
#221=EDGE_LOOP('',(#61));
#222=EDGE_LOOP('',(#62));
#223=EDGE_LOOP('',(#63));
#224=EDGE_LOOP('',(#64));
#225=EDGE_LOOP('',(#65));
#226=EDGE_LOOP('',(#66));
#227=EDGE_LOOP('',(#67));
#228=EDGE_LOOP('',(#68));
#229=EDGE_LOOP('',(#69));
#230=EDGE_LOOP('',(#70));
#231=EDGE_LOOP('',(#71));
#232=EDGE_LOOP('',(#72));
#233=EDGE_LOOP('',(#73));
#234=EDGE_LOOP('',(#74));
#235=EDGE_LOOP('',(#75));
#236=EDGE_LOOP('',(#76));
#237=EDGE_LOOP('',(#77));
#238=EDGE_LOOP('',(#78));
#239=EDGE_LOOP('',(#79));
#240=EDGE_LOOP('',(#80));
#241=EDGE_LOOP('',(#81));
#242=EDGE_LOOP('',(#82));
#243=EDGE_LOOP('',(#83));
#244=EDGE_LOOP('',(#84));
#245=EDGE_LOOP('',(#85));
#246=FACE_BOUND('',#182,.T.);
#247=FACE_BOUND('',#183,.T.);
#248=FACE_BOUND('',#184,.T.);
#249=FACE_BOUND('',#185,.T.);
#250=FACE_BOUND('',#186,.T.);
#251=FACE_BOUND('',#187,.T.);
#252=FACE_BOUND('',#188,.T.);
#253=FACE_BOUND('',#189,.T.);
#254=FACE_BOUND('',#190,.T.);
#255=FACE_BOUND('',#191,.T.);
#256=FACE_BOUND('',#192,.T.);
#257=FACE_BOUND('',#193,.T.);
#258=FACE_BOUND('',#194,.T.);
#259=FACE_BOUND('',#195,.T.);
#260=FACE_BOUND('',#196,.T.);
#261=FACE_BOUND('',#197,.T.);
#262=FACE_BOUND('',#198,.T.);
#263=FACE_BOUND('',#199,.T.);
#264=FACE_BOUND('',#200,.T.);
#265=FACE_BOUND('',#201,.T.);
#266=FACE_BOUND('',#202,.T.);
#267=FACE_BOUND('',#203,.T.);
#268=FACE_BOUND('',#204,.T.);
#269=FACE_BOUND('',#205,.T.);
#270=FACE_BOUND('',#206,.T.);
#271=FACE_BOUND('',#207,.T.);
#272=FACE_BOUND('',#208,.T.);
#273=FACE_BOUND('',#209,.T.);
#274=FACE_BOUND('',#210,.T.);
#275=FACE_BOUND('',#211,.T.);
#276=FACE_BOUND('',#212,.T.);
#277=FACE_BOUND('',#213,.T.);
#278=FACE_BOUND('',#214,.T.);
#279=FACE_BOUND('',#215,.T.);
#280=FACE_BOUND('',#216,.T.);
#281=FACE_BOUND('',#217,.T.);
#282=FACE_BOUND('',#218,.T.);
#283=FACE_BOUND('',#219,.T.);
#284=FACE_BOUND('',#220,.T.);
#285=FACE_BOUND('',#221,.T.);
#286=FACE_BOUND('',#222,.T.);
#287=FACE_BOUND('',#223,.T.);
#288=FACE_BOUND('',#224,.T.);
#289=FACE_BOUND('',#225,.T.);
#290=FACE_BOUND('',#226,.T.);
#291=FACE_BOUND('',#227,.T.);
#292=FACE_BOUND('',#228,.T.);
#293=FACE_BOUND('',#229,.T.);
#294=FACE_BOUND('',#230,.T.);
#295=FACE_BOUND('',#231,.T.);
#296=FACE_BOUND('',#232,.T.);
#297=FACE_BOUND('',#233,.T.);
#298=FACE_BOUND('',#234,.T.);
#299=FACE_BOUND('',#235,.T.);
#300=FACE_BOUND('',#236,.T.);
#301=FACE_BOUND('',#237,.T.);
#302=FACE_BOUND('',#238,.T.);
#303=FACE_BOUND('',#239,.T.);
#304=FACE_BOUND('',#240,.T.);
#305=FACE_BOUND('',#241,.T.);
#306=FACE_BOUND('',#242,.T.);
#307=FACE_BOUND('',#243,.T.);
#308=FACE_BOUND('',#244,.T.);
#309=FACE_BOUND('',#245,.T.);
#310=CYLINDRICAL_SURFACE('',#357,30.);
#311=CYLINDRICAL_SURFACE('',#360,1.7);
#312=CYLINDRICAL_SURFACE('',#363,1.7);
#313=CYLINDRICAL_SURFACE('',#366,1.7);
#314=CYLINDRICAL_SURFACE('',#369,1.7);
#315=CYLINDRICAL_SURFACE('',#372,1.7);
#316=CYLINDRICAL_SURFACE('',#375,1.7);
#317=CYLINDRICAL_SURFACE('',#378,1.7);
#318=CYLINDRICAL_SURFACE('',#381,1.7);
#319=CYLINDRICAL_SURFACE('',#384,1.7);
#320=CYLINDRICAL_SURFACE('',#387,1.7);
#321=CYLINDRICAL_SURFACE('',#390,1.7);
#322=CYLINDRICAL_SURFACE('',#393,1.7);
#323=CYLINDRICAL_SURFACE('',#396,1.7);
#324=CYLINDRICAL_SURFACE('',#399,1.7);
#325=CYLINDRICAL_SURFACE('',#402,80.);
#326=ADVANCED_FACE('',(#246,#247),#310,.F.);
#327=ADVANCED_FACE('',(#248,#249),#311,.F.);
#328=ADVANCED_FACE('',(#250,#251),#312,.F.);
#329=ADVANCED_FACE('',(#252,#253),#313,.F.);
#330=ADVANCED_FACE('',(#254,#255),#314,.F.);
#331=ADVANCED_FACE('',(#256,#257),#315,.F.);
#332=ADVANCED_FACE('',(#258,#259),#316,.F.);
#333=ADVANCED_FACE('',(#260,#261),#317,.F.);
#334=ADVANCED_FACE('',(#262,#263),#318,.F.);
#335=ADVANCED_FACE('',(#264,#265),#319,.F.);
#336=ADVANCED_FACE('',(#266,#267),#320,.F.);
#337=ADVANCED_FACE('',(#268,#269),#321,.F.);
#338=ADVANCED_FACE('',(#270,#271),#322,.F.);
#339=ADVANCED_FACE('',(#272,#273),#323,.F.);
#340=ADVANCED_FACE('',(#274,#275),#324,.F.);
#341=ADVANCED_FACE('',(#276,#277),#325,.T.);
#342=ADVANCED_FACE('',(#278,#279,#280,#281,#282,#283,#284,#285,#286,#287,
#288,#289,#290,#291,#292,#293),#20,.T.);
#343=ADVANCED_FACE('',(#294,#295,#296,#297,#298,#299,#300,#301,#302,#303,
#304,#305,#306,#307,#308,#309),#21,.F.);
#344=CLOSED_SHELL('',(#326,#327,#328,#329,#330,#331,#332,#333,#334,#335,
#336,#337,#338,#339,#340,#341,#342,#343));
#345=STYLED_ITEM('',(#346),#353);
#346=PRESENTATION_STYLE_ASSIGNMENT((#347));
#347=SURFACE_STYLE_USAGE(.BOTH.,#348);
#348=SURFACE_SIDE_STYLE('',(#349));
#349=SURFACE_STYLE_FILL_AREA(#350);
#350=FILL_AREA_STYLE('',(#351));
#351=FILL_AREA_STYLE_COLOUR('',#352);
#352=COLOUR_RGB('',0.506983280181885,0.531564235687256,0.550000011920929);
#353=MANIFOLD_SOLID_BREP('',#344);
#354=SHAPE_DEFINITION_REPRESENTATION(#598,#355);
#355=SHAPE_REPRESENTATION('P06_turntable_interface_ring_PROVISIONAL',(#356),
#593);
#356=AXIS2_PLACEMENT_3D('',#509,#407,#408);
#357=AXIS2_PLACEMENT_3D('',#510,#409,#410);
#358=AXIS2_PLACEMENT_3D('',#511,#411,#412);
#359=AXIS2_PLACEMENT_3D('',#513,#413,#414);
#360=AXIS2_PLACEMENT_3D('',#515,#415,#416);
#361=AXIS2_PLACEMENT_3D('',#516,#417,#418);
#362=AXIS2_PLACEMENT_3D('',#518,#419,#420);
#363=AXIS2_PLACEMENT_3D('',#520,#421,#422);
#364=AXIS2_PLACEMENT_3D('',#521,#423,#424);
#365=AXIS2_PLACEMENT_3D('',#523,#425,#426);
#366=AXIS2_PLACEMENT_3D('',#525,#427,#428);
#367=AXIS2_PLACEMENT_3D('',#526,#429,#430);
#368=AXIS2_PLACEMENT_3D('',#528,#431,#432);
#369=AXIS2_PLACEMENT_3D('',#530,#433,#434);
#370=AXIS2_PLACEMENT_3D('',#531,#435,#436);
#371=AXIS2_PLACEMENT_3D('',#533,#437,#438);
#372=AXIS2_PLACEMENT_3D('',#535,#439,#440);
#373=AXIS2_PLACEMENT_3D('',#536,#441,#442);
#374=AXIS2_PLACEMENT_3D('',#538,#443,#444);
#375=AXIS2_PLACEMENT_3D('',#540,#445,#446);
#376=AXIS2_PLACEMENT_3D('',#541,#447,#448);
#377=AXIS2_PLACEMENT_3D('',#543,#449,#450);
#378=AXIS2_PLACEMENT_3D('',#545,#451,#452);
#379=AXIS2_PLACEMENT_3D('',#546,#453,#454);
#380=AXIS2_PLACEMENT_3D('',#548,#455,#456);
#381=AXIS2_PLACEMENT_3D('',#550,#457,#458);
#382=AXIS2_PLACEMENT_3D('',#551,#459,#460);
#383=AXIS2_PLACEMENT_3D('',#553,#461,#462);
#384=AXIS2_PLACEMENT_3D('',#555,#463,#464);
#385=AXIS2_PLACEMENT_3D('',#556,#465,#466);
#386=AXIS2_PLACEMENT_3D('',#558,#467,#468);
#387=AXIS2_PLACEMENT_3D('',#560,#469,#470);
#388=AXIS2_PLACEMENT_3D('',#561,#471,#472);
#389=AXIS2_PLACEMENT_3D('',#563,#473,#474);
#390=AXIS2_PLACEMENT_3D('',#565,#475,#476);
#391=AXIS2_PLACEMENT_3D('',#566,#477,#478);
#392=AXIS2_PLACEMENT_3D('',#568,#479,#480);
#393=AXIS2_PLACEMENT_3D('',#570,#481,#482);
#394=AXIS2_PLACEMENT_3D('',#571,#483,#484);
#395=AXIS2_PLACEMENT_3D('',#573,#485,#486);
#396=AXIS2_PLACEMENT_3D('',#575,#487,#488);
#397=AXIS2_PLACEMENT_3D('',#576,#489,#490);
#398=AXIS2_PLACEMENT_3D('',#578,#491,#492);
#399=AXIS2_PLACEMENT_3D('',#580,#493,#494);
#400=AXIS2_PLACEMENT_3D('',#581,#495,#496);
#401=AXIS2_PLACEMENT_3D('',#583,#497,#498);
#402=AXIS2_PLACEMENT_3D('',#585,#499,#500);
#403=AXIS2_PLACEMENT_3D('',#586,#501,#502);
#404=AXIS2_PLACEMENT_3D('',#588,#503,#504);
#405=AXIS2_PLACEMENT_3D('',#590,#505,#506);
#406=AXIS2_PLACEMENT_3D('',#591,#507,#508);
#407=DIRECTION('',(0.,0.,1.));
#408=DIRECTION('',(1.,0.,0.));
#409=DIRECTION('',(0.,0.,-1.));
#410=DIRECTION('',(-1.,0.,0.));
#411=DIRECTION('',(0.,0.,1.));
#412=DIRECTION('',(1.,0.,0.));
#413=DIRECTION('',(0.,0.,1.));
#414=DIRECTION('',(1.,0.,0.));
#415=DIRECTION('',(0.,0.,-1.));
#416=DIRECTION('',(-1.,0.,0.));
#417=DIRECTION('',(0.,0.,1.));
#418=DIRECTION('',(1.,0.,0.));
#419=DIRECTION('',(0.,0.,1.));
#420=DIRECTION('',(1.,0.,0.));
#421=DIRECTION('',(0.,0.,-1.));
#422=DIRECTION('',(-1.,0.,0.));
#423=DIRECTION('',(0.,0.,1.));
#424=DIRECTION('',(1.,0.,0.));
#425=DIRECTION('',(0.,0.,1.));
#426=DIRECTION('',(1.,0.,0.));
#427=DIRECTION('',(0.,0.,-1.));
#428=DIRECTION('',(-1.,0.,0.));
#429=DIRECTION('',(0.,0.,1.));
#430=DIRECTION('',(1.,0.,0.));
#431=DIRECTION('',(0.,0.,1.));
#432=DIRECTION('',(1.,0.,0.));
#433=DIRECTION('',(0.,0.,-1.));
#434=DIRECTION('',(-1.,0.,0.));
#435=DIRECTION('',(0.,0.,1.));
#436=DIRECTION('',(1.,0.,0.));
#437=DIRECTION('',(0.,0.,1.));
#438=DIRECTION('',(1.,0.,0.));
#439=DIRECTION('',(0.,0.,-1.));
#440=DIRECTION('',(-1.,0.,0.));
#441=DIRECTION('',(0.,0.,1.));
#442=DIRECTION('',(1.,0.,0.));
#443=DIRECTION('',(0.,0.,1.));
#444=DIRECTION('',(1.,0.,0.));
#445=DIRECTION('',(0.,0.,-1.));
#446=DIRECTION('',(-1.,0.,0.));
#447=DIRECTION('',(0.,0.,1.));
#448=DIRECTION('',(1.,0.,0.));
#449=DIRECTION('',(0.,0.,1.));
#450=DIRECTION('',(1.,0.,0.));
#451=DIRECTION('',(0.,0.,-1.));
#452=DIRECTION('',(-1.,0.,0.));
#453=DIRECTION('',(0.,0.,1.));
#454=DIRECTION('',(1.,0.,0.));
#455=DIRECTION('',(0.,0.,1.));
#456=DIRECTION('',(1.,0.,0.));
#457=DIRECTION('',(0.,0.,-1.));
#458=DIRECTION('',(-1.,0.,0.));
#459=DIRECTION('',(0.,0.,1.));
#460=DIRECTION('',(1.,0.,0.));
#461=DIRECTION('',(0.,0.,1.));
#462=DIRECTION('',(1.,0.,0.));
#463=DIRECTION('',(0.,0.,-1.));
#464=DIRECTION('',(-1.,0.,0.));
#465=DIRECTION('',(0.,0.,1.));
#466=DIRECTION('',(1.,0.,0.));
#467=DIRECTION('',(0.,0.,1.));
#468=DIRECTION('',(1.,0.,0.));
#469=DIRECTION('',(0.,0.,-1.));
#470=DIRECTION('',(-1.,0.,0.));
#471=DIRECTION('',(0.,0.,1.));
#472=DIRECTION('',(1.,0.,0.));
#473=DIRECTION('',(0.,0.,1.));
#474=DIRECTION('',(1.,0.,0.));
#475=DIRECTION('',(0.,0.,-1.));
#476=DIRECTION('',(-1.,0.,0.));
#477=DIRECTION('',(0.,0.,1.));
#478=DIRECTION('',(1.,0.,0.));
#479=DIRECTION('',(0.,0.,1.));
#480=DIRECTION('',(1.,0.,0.));
#481=DIRECTION('',(0.,0.,-1.));
#482=DIRECTION('',(-1.,0.,0.));
#483=DIRECTION('',(0.,0.,1.));
#484=DIRECTION('',(1.,0.,0.));
#485=DIRECTION('',(0.,0.,1.));
#486=DIRECTION('',(1.,0.,0.));
#487=DIRECTION('',(0.,0.,-1.));
#488=DIRECTION('',(-1.,0.,0.));
#489=DIRECTION('',(0.,0.,1.));
#490=DIRECTION('',(1.,0.,0.));
#491=DIRECTION('',(0.,0.,1.));
#492=DIRECTION('',(1.,0.,0.));
#493=DIRECTION('',(0.,0.,-1.));
#494=DIRECTION('',(-1.,0.,0.));
#495=DIRECTION('',(0.,0.,1.));
#496=DIRECTION('',(1.,0.,0.));
#497=DIRECTION('',(0.,0.,1.));
#498=DIRECTION('',(1.,0.,0.));
#499=DIRECTION('',(0.,0.,-1.));
#500=DIRECTION('',(-1.,0.,0.));
#501=DIRECTION('',(0.,0.,1.));
#502=DIRECTION('',(1.,0.,0.));
#503=DIRECTION('',(0.,0.,1.));
#504=DIRECTION('',(1.,0.,0.));
#505=DIRECTION('',(0.,0.,1.));
#506=DIRECTION('',(1.,0.,0.));
#507=DIRECTION('',(0.,0.,1.));
#508=DIRECTION('',(1.,0.,0.));
#509=CARTESIAN_POINT('',(0.,0.,0.));
#510=CARTESIAN_POINT('',(0.,0.,6.));
#511=CARTESIAN_POINT('',(0.,0.,6.));
#512=CARTESIAN_POINT('',(30.,0.,6.));
#513=CARTESIAN_POINT('',(0.,0.,0.));
#514=CARTESIAN_POINT('',(30.,0.,0.));
#515=CARTESIAN_POINT('',(70.,0.,6.));
#516=CARTESIAN_POINT('',(70.,0.,6.));
#517=CARTESIAN_POINT('',(71.7,0.,6.));
#518=CARTESIAN_POINT('',(70.,0.,0.));
#519=CARTESIAN_POINT('',(71.7,0.,0.));
#520=CARTESIAN_POINT('',(49.4974746830583,49.4974746830583,6.));
#521=CARTESIAN_POINT('',(49.4974746830583,49.4974746830583,6.));
#522=CARTESIAN_POINT('',(51.1974746830583,49.4974746830583,6.));
#523=CARTESIAN_POINT('',(49.4974746830583,49.4974746830583,0.));
#524=CARTESIAN_POINT('',(51.1974746830583,49.4974746830583,0.));
#525=CARTESIAN_POINT('',(4.28626379701574E-15,70.,6.));
#526=CARTESIAN_POINT('',(4.28626379701574E-15,70.,6.));
#527=CARTESIAN_POINT('',(1.7,70.,6.));
#528=CARTESIAN_POINT('',(4.28626379701574E-15,70.,0.));
#529=CARTESIAN_POINT('',(1.7,70.,0.));
#530=CARTESIAN_POINT('',(-49.4974746830583,49.4974746830583,6.));
#531=CARTESIAN_POINT('',(-49.4974746830583,49.4974746830583,6.));
#532=CARTESIAN_POINT('',(-47.7974746830583,49.4974746830583,6.));
#533=CARTESIAN_POINT('',(-49.4974746830583,49.4974746830583,0.));
#534=CARTESIAN_POINT('',(-47.7974746830583,49.4974746830583,0.));
#535=CARTESIAN_POINT('',(-70.,8.57252759403147E-15,6.));
#536=CARTESIAN_POINT('',(-70.,8.57252759403147E-15,6.));
#537=CARTESIAN_POINT('',(-68.3,8.57252759403147E-15,6.));
#538=CARTESIAN_POINT('',(-70.,8.57252759403147E-15,0.));
#539=CARTESIAN_POINT('',(-68.3,8.57252759403147E-15,0.));
#540=CARTESIAN_POINT('',(-49.4974746830583,-49.4974746830583,6.));
#541=CARTESIAN_POINT('',(-49.4974746830583,-49.4974746830583,6.));
#542=CARTESIAN_POINT('',(-47.7974746830583,-49.4974746830583,6.));
#543=CARTESIAN_POINT('',(-49.4974746830583,-49.4974746830583,0.));
#544=CARTESIAN_POINT('',(-47.7974746830583,-49.4974746830583,0.));
#545=CARTESIAN_POINT('',(-1.28587913910472E-14,-70.,6.));
#546=CARTESIAN_POINT('',(-1.28587913910472E-14,-70.,6.));
#547=CARTESIAN_POINT('',(1.69999999999999,-70.,6.));
#548=CARTESIAN_POINT('',(-1.28587913910472E-14,-70.,0.));
#549=CARTESIAN_POINT('',(1.69999999999999,-70.,0.));
#550=CARTESIAN_POINT('',(49.4974746830583,-49.4974746830583,6.));
#551=CARTESIAN_POINT('',(49.4974746830583,-49.4974746830583,6.));
#552=CARTESIAN_POINT('',(51.1974746830583,-49.4974746830583,6.));
#553=CARTESIAN_POINT('',(49.4974746830583,-49.4974746830583,0.));
#554=CARTESIAN_POINT('',(51.1974746830583,-49.4974746830583,0.));
#555=CARTESIAN_POINT('',(40.,0.,6.));
#556=CARTESIAN_POINT('',(40.,0.,6.));
#557=CARTESIAN_POINT('',(41.7,0.,6.));
#558=CARTESIAN_POINT('',(40.,0.,0.));
#559=CARTESIAN_POINT('',(41.7,0.,0.));
#560=CARTESIAN_POINT('',(20.,34.6410161513775,6.));
#561=CARTESIAN_POINT('',(20.,34.6410161513775,6.));
#562=CARTESIAN_POINT('',(21.7,34.6410161513775,6.));
#563=CARTESIAN_POINT('',(20.,34.6410161513775,0.));
#564=CARTESIAN_POINT('',(21.7,34.6410161513775,0.));
#565=CARTESIAN_POINT('',(-20.,34.6410161513775,6.));
#566=CARTESIAN_POINT('',(-20.,34.6410161513775,6.));
#567=CARTESIAN_POINT('',(-18.3,34.6410161513775,6.));
#568=CARTESIAN_POINT('',(-20.,34.6410161513775,0.));
#569=CARTESIAN_POINT('',(-18.3,34.6410161513775,0.));
#570=CARTESIAN_POINT('',(-40.,4.89858719658941E-15,6.));
#571=CARTESIAN_POINT('',(-40.,4.89858719658941E-15,6.));
#572=CARTESIAN_POINT('',(-38.3,4.89858719658941E-15,6.));
#573=CARTESIAN_POINT('',(-40.,4.89858719658941E-15,0.));
#574=CARTESIAN_POINT('',(-38.3,4.89858719658941E-15,0.));
#575=CARTESIAN_POINT('',(-20.,-34.6410161513775,6.));
#576=CARTESIAN_POINT('',(-20.,-34.6410161513775,6.));
#577=CARTESIAN_POINT('',(-18.3,-34.6410161513775,6.));
#578=CARTESIAN_POINT('',(-20.,-34.6410161513775,0.));
#579=CARTESIAN_POINT('',(-18.3,-34.6410161513775,0.));
#580=CARTESIAN_POINT('',(20.,-34.6410161513775,6.));
#581=CARTESIAN_POINT('',(20.,-34.6410161513775,6.));
#582=CARTESIAN_POINT('',(21.7,-34.6410161513775,6.));
#583=CARTESIAN_POINT('',(20.,-34.6410161513775,0.));
#584=CARTESIAN_POINT('',(21.7,-34.6410161513775,0.));
#585=CARTESIAN_POINT('',(0.,0.,6.));
#586=CARTESIAN_POINT('',(0.,0.,6.));
#587=CARTESIAN_POINT('',(80.,0.,6.));
#588=CARTESIAN_POINT('',(0.,0.,0.));
#589=CARTESIAN_POINT('',(80.,0.,0.));
#590=CARTESIAN_POINT('',(0.,0.,6.));
#591=CARTESIAN_POINT('',(0.,0.,0.));
#592=MECHANICAL_DESIGN_GEOMETRIC_PRESENTATION_REPRESENTATION('',(#345),
#593);
#593=(
GEOMETRIC_REPRESENTATION_CONTEXT(3)
GLOBAL_UNCERTAINTY_ASSIGNED_CONTEXT((#594))
GLOBAL_UNIT_ASSIGNED_CONTEXT((#597,#596,#595))
REPRESENTATION_CONTEXT('P06_turntable_interface_ring_PROVISIONAL',
'TOP_LEVEL_ASSEMBLY_PART')
);
#594=UNCERTAINTY_MEASURE_WITH_UNIT(LENGTH_MEASURE(0.005),#597,
'DISTANCE_ACCURACY_VALUE','Maximum Tolerance applied to model');
#595=(
NAMED_UNIT(*)
SI_UNIT($,.STERADIAN.)
SOLID_ANGLE_UNIT()
);
#596=(
NAMED_UNIT(*)
PLANE_ANGLE_UNIT()
SI_UNIT($,.RADIAN.)
);
#597=(
LENGTH_UNIT()
NAMED_UNIT(*)
SI_UNIT(.MILLI.,.METRE.)
);
#598=PRODUCT_DEFINITION_SHAPE('','',#599);
#599=PRODUCT_DEFINITION('','',#601,#600);
#600=PRODUCT_DEFINITION_CONTEXT('',#607,'design');
#601=PRODUCT_DEFINITION_FORMATION_WITH_SPECIFIED_SOURCE('','',#603,
 .NOT_KNOWN.);
#602=PRODUCT_RELATED_PRODUCT_CATEGORY('','',(#603));
#603=PRODUCT('P06_turntable_interface_ring_PROVISIONAL',
'P06_turntable_interface_ring_PROVISIONAL',
'P06_turntable_interface_ring_PROVISIONAL',(#605));
#604=PRODUCT_CATEGORY('','');
#605=PRODUCT_CONTEXT('',#607,'mechanical');
#606=APPLICATION_PROTOCOL_DEFINITION('international standard',
'automotive_design',2010,#607);
#607=APPLICATION_CONTEXT(
'core data for automotive mechanical design processes');
ENDSEC;
END-ISO-10303-21;
