ISO-10303-21;
HEADER;
/* Generated by software containing ST-Developer
 * from STEP Tools, Inc. (www.steptools.com) 
 */
/* OPTION: strings as raw bytes, not using required /X/ escapes */

FILE_DESCRIPTION(
/* description */ ('Unknown'),
/* implementation_level */ '2;1');

FILE_NAME(
/* name */ 'P12_shoulder_bearing_cheek',
/* time_stamp */ '2026-09-23T11:23:37+08:00',
/* author */ ('Unknown'),
/* organization */ ('Unknown'),
/* preprocessor_version */ 'ST-DEVELOPER v16.7',
/* originating_system */ 'Solid Edge',
/* authorisation */ 'Unknown');

FILE_SCHEMA (('AUTOMOTIVE_DESIGN {1 0 10303 214 3 1 1}'));
ENDSEC;

DATA;
#10=PROPERTY_DEFINITION_REPRESENTATION(#14,#12);
#11=PROPERTY_DEFINITION_REPRESENTATION(#15,#13);
#12=REPRESENTATION('',(#16),#455);
#13=REPRESENTATION('',(#17),#455);
#14=PROPERTY_DEFINITION('pmi validation property','',#460);
#15=PROPERTY_DEFINITION('pmi validation property','',#460);
#16=VALUE_REPRESENTATION_ITEM('number of annotations',COUNT_MEASURE(0.));
#17=VALUE_REPRESENTATION_ITEM('number of views',COUNT_MEASURE(0.));
#18=SHAPE_REPRESENTATION_RELATIONSHIP('','',#285,#19);
#19=ADVANCED_BREP_SHAPE_REPRESENTATION('',(#283),#455);
#20=CIRCLE('',#293,11.1);
#21=CIRCLE('',#294,11.1);
#22=CIRCLE('',#296,4.1);
#23=CIRCLE('',#297,4.1);
#24=CIRCLE('',#299,1.7);
#25=CIRCLE('',#300,1.7);
#26=CIRCLE('',#302,1.7);
#27=CIRCLE('',#303,1.7);
#28=CIRCLE('',#305,1.7);
#29=CIRCLE('',#306,1.7);
#30=CIRCLE('',#308,1.7);
#31=CIRCLE('',#309,1.7);
#32=CYLINDRICAL_SURFACE('',#292,11.1);
#33=CYLINDRICAL_SURFACE('',#295,4.1);
#34=CYLINDRICAL_SURFACE('',#298,1.7);
#35=CYLINDRICAL_SURFACE('',#301,1.7);
#36=CYLINDRICAL_SURFACE('',#304,1.7);
#37=CYLINDRICAL_SURFACE('',#307,1.7);
#38=ORIENTED_EDGE('',*,*,#98,.T.);
#39=ORIENTED_EDGE('',*,*,#99,.F.);
#40=ORIENTED_EDGE('',*,*,#100,.F.);
#41=ORIENTED_EDGE('',*,*,#101,.T.);
#42=ORIENTED_EDGE('',*,*,#102,.T.);
#43=ORIENTED_EDGE('',*,*,#103,.F.);
#44=ORIENTED_EDGE('',*,*,#104,.F.);
#45=ORIENTED_EDGE('',*,*,#99,.T.);
#46=ORIENTED_EDGE('',*,*,#105,.T.);
#47=ORIENTED_EDGE('',*,*,#106,.F.);
#48=ORIENTED_EDGE('',*,*,#107,.F.);
#49=ORIENTED_EDGE('',*,*,#103,.T.);
#50=ORIENTED_EDGE('',*,*,#108,.T.);
#51=ORIENTED_EDGE('',*,*,#109,.F.);
#52=ORIENTED_EDGE('',*,*,#110,.F.);
#53=ORIENTED_EDGE('',*,*,#106,.T.);
#54=ORIENTED_EDGE('',*,*,#111,.T.);
#55=ORIENTED_EDGE('',*,*,#112,.F.);
#56=ORIENTED_EDGE('',*,*,#113,.F.);
#57=ORIENTED_EDGE('',*,*,#109,.T.);
#58=ORIENTED_EDGE('',*,*,#114,.T.);
#59=ORIENTED_EDGE('',*,*,#115,.F.);
#60=ORIENTED_EDGE('',*,*,#116,.T.);
#61=ORIENTED_EDGE('',*,*,#117,.F.);
#62=ORIENTED_EDGE('',*,*,#118,.T.);
#63=ORIENTED_EDGE('',*,*,#119,.F.);
#64=ORIENTED_EDGE('',*,*,#120,.T.);
#65=ORIENTED_EDGE('',*,*,#121,.F.);
#66=ORIENTED_EDGE('',*,*,#122,.T.);
#67=ORIENTED_EDGE('',*,*,#123,.F.);
#68=ORIENTED_EDGE('',*,*,#124,.T.);
#69=ORIENTED_EDGE('',*,*,#125,.F.);
#70=ORIENTED_EDGE('',*,*,#126,.T.);
#71=ORIENTED_EDGE('',*,*,#101,.F.);
#72=ORIENTED_EDGE('',*,*,#127,.F.);
#73=ORIENTED_EDGE('',*,*,#112,.T.);
#74=ORIENTED_EDGE('',*,*,#124,.F.);
#75=ORIENTED_EDGE('',*,*,#122,.F.);
#76=ORIENTED_EDGE('',*,*,#120,.F.);
#77=ORIENTED_EDGE('',*,*,#118,.F.);
#78=ORIENTED_EDGE('',*,*,#116,.F.);
#79=ORIENTED_EDGE('',*,*,#114,.F.);
#80=ORIENTED_EDGE('',*,*,#100,.T.);
#81=ORIENTED_EDGE('',*,*,#104,.T.);
#82=ORIENTED_EDGE('',*,*,#107,.T.);
#83=ORIENTED_EDGE('',*,*,#110,.T.);
#84=ORIENTED_EDGE('',*,*,#113,.T.);
#85=ORIENTED_EDGE('',*,*,#127,.T.);
#86=ORIENTED_EDGE('',*,*,#125,.T.);
#87=ORIENTED_EDGE('',*,*,#123,.T.);
#88=ORIENTED_EDGE('',*,*,#121,.T.);
#89=ORIENTED_EDGE('',*,*,#119,.T.);
#90=ORIENTED_EDGE('',*,*,#117,.T.);
#91=ORIENTED_EDGE('',*,*,#115,.T.);
#92=ORIENTED_EDGE('',*,*,#98,.F.);
#93=ORIENTED_EDGE('',*,*,#126,.F.);
#94=ORIENTED_EDGE('',*,*,#111,.F.);
#95=ORIENTED_EDGE('',*,*,#108,.F.);
#96=ORIENTED_EDGE('',*,*,#105,.F.);
#97=ORIENTED_EDGE('',*,*,#102,.F.);
#98=EDGE_CURVE('',#128,#129,#152,.T.);
#99=EDGE_CURVE('',#130,#129,#153,.T.);
#100=EDGE_CURVE('',#131,#130,#154,.T.);
#101=EDGE_CURVE('',#131,#128,#155,.T.);
#102=EDGE_CURVE('',#129,#132,#156,.T.);
#103=EDGE_CURVE('',#133,#132,#157,.T.);
#104=EDGE_CURVE('',#130,#133,#158,.T.);
#105=EDGE_CURVE('',#132,#134,#159,.T.);
#106=EDGE_CURVE('',#135,#134,#160,.T.);
#107=EDGE_CURVE('',#133,#135,#161,.T.);
#108=EDGE_CURVE('',#134,#136,#162,.T.);
#109=EDGE_CURVE('',#137,#136,#163,.T.);
#110=EDGE_CURVE('',#135,#137,#164,.T.);
#111=EDGE_CURVE('',#136,#138,#165,.T.);
#112=EDGE_CURVE('',#139,#138,#166,.T.);
#113=EDGE_CURVE('',#137,#139,#167,.T.);
#114=EDGE_CURVE('',#140,#140,#20,.T.);
#115=EDGE_CURVE('',#141,#141,#21,.T.);
#116=EDGE_CURVE('',#142,#142,#22,.T.);
#117=EDGE_CURVE('',#143,#143,#23,.T.);
#118=EDGE_CURVE('',#144,#144,#24,.T.);
#119=EDGE_CURVE('',#145,#145,#25,.T.);
#120=EDGE_CURVE('',#146,#146,#26,.T.);
#121=EDGE_CURVE('',#147,#147,#27,.T.);
#122=EDGE_CURVE('',#148,#148,#28,.T.);
#123=EDGE_CURVE('',#149,#149,#29,.T.);
#124=EDGE_CURVE('',#150,#150,#30,.T.);
#125=EDGE_CURVE('',#151,#151,#31,.T.);
#126=EDGE_CURVE('',#138,#128,#168,.T.);
#127=EDGE_CURVE('',#139,#131,#169,.T.);
#128=VERTEX_POINT('',#388);
#129=VERTEX_POINT('',#389);
#130=VERTEX_POINT('',#391);
#131=VERTEX_POINT('',#393);
#132=VERTEX_POINT('',#397);
#133=VERTEX_POINT('',#399);
#134=VERTEX_POINT('',#403);
#135=VERTEX_POINT('',#405);
#136=VERTEX_POINT('',#409);
#137=VERTEX_POINT('',#411);
#138=VERTEX_POINT('',#415);
#139=VERTEX_POINT('',#417);
#140=VERTEX_POINT('',#421);
#141=VERTEX_POINT('',#423);
#142=VERTEX_POINT('',#426);
#143=VERTEX_POINT('',#428);
#144=VERTEX_POINT('',#431);
#145=VERTEX_POINT('',#433);
#146=VERTEX_POINT('',#436);
#147=VERTEX_POINT('',#438);
#148=VERTEX_POINT('',#441);
#149=VERTEX_POINT('',#443);
#150=VERTEX_POINT('',#446);
#151=VERTEX_POINT('',#448);
#152=LINE('',#387,#170);
#153=LINE('',#390,#171);
#154=LINE('',#392,#172);
#155=LINE('',#394,#173);
#156=LINE('',#396,#174);
#157=LINE('',#398,#175);
#158=LINE('',#400,#176);
#159=LINE('',#402,#177);
#160=LINE('',#404,#178);
#161=LINE('',#406,#179);
#162=LINE('',#408,#180);
#163=LINE('',#410,#181);
#164=LINE('',#412,#182);
#165=LINE('',#414,#183);
#166=LINE('',#416,#184);
#167=LINE('',#418,#185);
#168=LINE('',#450,#186);
#169=LINE('',#451,#187);
#170=VECTOR('',#317,1000.);
#171=VECTOR('',#318,1000.);
#172=VECTOR('',#319,1000.);
#173=VECTOR('',#320,1000.);
#174=VECTOR('',#323,1000.);
#175=VECTOR('',#324,1000.);
#176=VECTOR('',#325,1000.);
#177=VECTOR('',#328,1000.);
#178=VECTOR('',#329,1000.);
#179=VECTOR('',#330,1000.);
#180=VECTOR('',#333,1000.);
#181=VECTOR('',#334,1000.);
#182=VECTOR('',#335,1000.);
#183=VECTOR('',#338,1000.);
#184=VECTOR('',#339,1000.);
#185=VECTOR('',#340,1000.);
#186=VECTOR('',#379,1000.);
#187=VECTOR('',#380,1000.);
#188=EDGE_LOOP('',(#38,#39,#40,#41));
#189=EDGE_LOOP('',(#42,#43,#44,#45));
#190=EDGE_LOOP('',(#46,#47,#48,#49));
#191=EDGE_LOOP('',(#50,#51,#52,#53));
#192=EDGE_LOOP('',(#54,#55,#56,#57));
#193=EDGE_LOOP('',(#58));
#194=EDGE_LOOP('',(#59));
#195=EDGE_LOOP('',(#60));
#196=EDGE_LOOP('',(#61));
#197=EDGE_LOOP('',(#62));
#198=EDGE_LOOP('',(#63));
#199=EDGE_LOOP('',(#64));
#200=EDGE_LOOP('',(#65));
#201=EDGE_LOOP('',(#66));
#202=EDGE_LOOP('',(#67));
#203=EDGE_LOOP('',(#68));
#204=EDGE_LOOP('',(#69));
#205=EDGE_LOOP('',(#70,#71,#72,#73));
#206=EDGE_LOOP('',(#74));
#207=EDGE_LOOP('',(#75));
#208=EDGE_LOOP('',(#76));
#209=EDGE_LOOP('',(#77));
#210=EDGE_LOOP('',(#78));
#211=EDGE_LOOP('',(#79));
#212=EDGE_LOOP('',(#80,#81,#82,#83,#84,#85));
#213=EDGE_LOOP('',(#86));
#214=EDGE_LOOP('',(#87));
#215=EDGE_LOOP('',(#88));
#216=EDGE_LOOP('',(#89));
#217=EDGE_LOOP('',(#90));
#218=EDGE_LOOP('',(#91));
#219=EDGE_LOOP('',(#92,#93,#94,#95,#96,#97));
#220=FACE_BOUND('',#188,.T.);
#221=FACE_BOUND('',#189,.T.);
#222=FACE_BOUND('',#190,.T.);
#223=FACE_BOUND('',#191,.T.);
#224=FACE_BOUND('',#192,.T.);
#225=FACE_BOUND('',#193,.T.);
#226=FACE_BOUND('',#194,.T.);
#227=FACE_BOUND('',#195,.T.);
#228=FACE_BOUND('',#196,.T.);
#229=FACE_BOUND('',#197,.T.);
#230=FACE_BOUND('',#198,.T.);
#231=FACE_BOUND('',#199,.T.);
#232=FACE_BOUND('',#200,.T.);
#233=FACE_BOUND('',#201,.T.);
#234=FACE_BOUND('',#202,.T.);
#235=FACE_BOUND('',#203,.T.);
#236=FACE_BOUND('',#204,.T.);
#237=FACE_BOUND('',#205,.T.);
#238=FACE_BOUND('',#206,.T.);
#239=FACE_BOUND('',#207,.T.);
#240=FACE_BOUND('',#208,.T.);
#241=FACE_BOUND('',#209,.T.);
#242=FACE_BOUND('',#210,.T.);
#243=FACE_BOUND('',#211,.T.);
#244=FACE_BOUND('',#212,.T.);
#245=FACE_BOUND('',#213,.T.);
#246=FACE_BOUND('',#214,.T.);
#247=FACE_BOUND('',#215,.T.);
#248=FACE_BOUND('',#216,.T.);
#249=FACE_BOUND('',#217,.T.);
#250=FACE_BOUND('',#218,.T.);
#251=FACE_BOUND('',#219,.T.);
#252=PLANE('',#287);
#253=PLANE('',#288);
#254=PLANE('',#289);
#255=PLANE('',#290);
#256=PLANE('',#291);
#257=PLANE('',#310);
#258=PLANE('',#311);
#259=PLANE('',#312);
#260=ADVANCED_FACE('',(#220),#252,.F.);
#261=ADVANCED_FACE('',(#221),#253,.F.);
#262=ADVANCED_FACE('',(#222),#254,.F.);
#263=ADVANCED_FACE('',(#223),#255,.F.);
#264=ADVANCED_FACE('',(#224),#256,.F.);
#265=ADVANCED_FACE('',(#225,#226),#32,.F.);
#266=ADVANCED_FACE('',(#227,#228),#33,.F.);
#267=ADVANCED_FACE('',(#229,#230),#34,.F.);
#268=ADVANCED_FACE('',(#231,#232),#35,.F.);
#269=ADVANCED_FACE('',(#233,#234),#36,.F.);
#270=ADVANCED_FACE('',(#235,#236),#37,.F.);
#271=ADVANCED_FACE('',(#237),#257,.F.);
#272=ADVANCED_FACE('',(#238,#239,#240,#241,#242,#243,#244),#258,.T.);
#273=ADVANCED_FACE('',(#245,#246,#247,#248,#249,#250,#251),#259,.F.);
#274=CLOSED_SHELL('',(#260,#261,#262,#263,#264,#265,#266,#267,#268,#269,
#270,#271,#272,#273));
#275=STYLED_ITEM('',(#276),#283);
#276=PRESENTATION_STYLE_ASSIGNMENT((#277));
#277=SURFACE_STYLE_USAGE(.BOTH.,#278);
#278=SURFACE_SIDE_STYLE('',(#279));
#279=SURFACE_STYLE_FILL_AREA(#280);
#280=FILL_AREA_STYLE('',(#281));
#281=FILL_AREA_STYLE_COLOUR('',#282);
#282=COLOUR_RGB('',0.506983280181885,0.531564235687256,0.550000011920929);
#283=MANIFOLD_SOLID_BREP('',#274);
#284=SHAPE_DEFINITION_REPRESENTATION(#460,#285);
#285=SHAPE_REPRESENTATION('P12_shoulder_bearing_cheek',(#286),#455);
#286=AXIS2_PLACEMENT_3D('',#385,#313,#314);
#287=AXIS2_PLACEMENT_3D('',#386,#315,#316);
#288=AXIS2_PLACEMENT_3D('',#395,#321,#322);
#289=AXIS2_PLACEMENT_3D('',#401,#326,#327);
#290=AXIS2_PLACEMENT_3D('',#407,#331,#332);
#291=AXIS2_PLACEMENT_3D('',#413,#336,#337);
#292=AXIS2_PLACEMENT_3D('',#419,#341,#342);
#293=AXIS2_PLACEMENT_3D('',#420,#343,#344);
#294=AXIS2_PLACEMENT_3D('',#422,#345,#346);
#295=AXIS2_PLACEMENT_3D('',#424,#347,#348);
#296=AXIS2_PLACEMENT_3D('',#425,#349,#350);
#297=AXIS2_PLACEMENT_3D('',#427,#351,#352);
#298=AXIS2_PLACEMENT_3D('',#429,#353,#354);
#299=AXIS2_PLACEMENT_3D('',#430,#355,#356);
#300=AXIS2_PLACEMENT_3D('',#432,#357,#358);
#301=AXIS2_PLACEMENT_3D('',#434,#359,#360);
#302=AXIS2_PLACEMENT_3D('',#435,#361,#362);
#303=AXIS2_PLACEMENT_3D('',#437,#363,#364);
#304=AXIS2_PLACEMENT_3D('',#439,#365,#366);
#305=AXIS2_PLACEMENT_3D('',#440,#367,#368);
#306=AXIS2_PLACEMENT_3D('',#442,#369,#370);
#307=AXIS2_PLACEMENT_3D('',#444,#371,#372);
#308=AXIS2_PLACEMENT_3D('',#445,#373,#374);
#309=AXIS2_PLACEMENT_3D('',#447,#375,#376);
#310=AXIS2_PLACEMENT_3D('',#449,#377,#378);
#311=AXIS2_PLACEMENT_3D('',#452,#381,#382);
#312=AXIS2_PLACEMENT_3D('',#453,#383,#384);
#313=DIRECTION('',(0.,0.,1.));
#314=DIRECTION('',(1.,0.,0.));
#315=DIRECTION('',(1.,0.,0.));
#316=DIRECTION('',(0.,0.,-1.));
#317=DIRECTION('',(0.,-1.,0.));
#318=DIRECTION('',(0.,0.,-1.));
#319=DIRECTION('',(0.,-1.,0.));
#320=DIRECTION('',(0.,0.,-1.));
#321=DIRECTION('',(0.,1.,0.));
#322=DIRECTION('',(0.,0.,1.));
#323=DIRECTION('',(1.,0.,0.));
#324=DIRECTION('',(0.,0.,-1.));
#325=DIRECTION('',(1.,0.,0.));
#326=DIRECTION('',(-1.,0.,0.));
#327=DIRECTION('',(0.,0.,1.));
#328=DIRECTION('',(0.,1.,0.));
#329=DIRECTION('',(0.,0.,-1.));
#330=DIRECTION('',(0.,1.,0.));
#331=DIRECTION('',(-0.6,-0.8,0.));
#332=DIRECTION('',(0.8,-0.6,0.));
#333=DIRECTION('',(-0.8,0.6,0.));
#334=DIRECTION('',(0.,0.,-1.));
#335=DIRECTION('',(-0.8,0.6,0.));
#336=DIRECTION('',(0.,-1.,0.));
#337=DIRECTION('',(0.,0.,-1.));
#338=DIRECTION('',(-1.,0.,0.));
#339=DIRECTION('',(0.,0.,-1.));
#340=DIRECTION('',(-1.,0.,0.));
#341=DIRECTION('',(0.,0.,-1.));
#342=DIRECTION('',(-1.,0.,0.));
#343=DIRECTION('',(0.,0.,1.));
#344=DIRECTION('',(1.,0.,0.));
#345=DIRECTION('',(0.,0.,1.));
#346=DIRECTION('',(1.,0.,0.));
#347=DIRECTION('',(0.,0.,-1.));
#348=DIRECTION('',(-1.,0.,0.));
#349=DIRECTION('',(0.,0.,1.));
#350=DIRECTION('',(1.,0.,0.));
#351=DIRECTION('',(0.,0.,1.));
#352=DIRECTION('',(1.,0.,0.));
#353=DIRECTION('',(0.,0.,-1.));
#354=DIRECTION('',(-1.,0.,0.));
#355=DIRECTION('',(0.,0.,1.));
#356=DIRECTION('',(1.,0.,0.));
#357=DIRECTION('',(0.,0.,1.));
#358=DIRECTION('',(1.,0.,0.));
#359=DIRECTION('',(0.,0.,-1.));
#360=DIRECTION('',(-1.,0.,0.));
#361=DIRECTION('',(0.,0.,1.));
#362=DIRECTION('',(1.,0.,0.));
#363=DIRECTION('',(0.,0.,1.));
#364=DIRECTION('',(1.,0.,0.));
#365=DIRECTION('',(0.,0.,-1.));
#366=DIRECTION('',(-1.,0.,0.));
#367=DIRECTION('',(0.,0.,1.));
#368=DIRECTION('',(1.,0.,0.));
#369=DIRECTION('',(0.,0.,1.));
#370=DIRECTION('',(1.,0.,0.));
#371=DIRECTION('',(0.,0.,-1.));
#372=DIRECTION('',(-1.,0.,0.));
#373=DIRECTION('',(0.,0.,1.));
#374=DIRECTION('',(1.,0.,0.));
#375=DIRECTION('',(0.,0.,1.));
#376=DIRECTION('',(1.,0.,0.));
#377=DIRECTION('',(0.707106781186547,-0.707106781186547,0.));
#378=DIRECTION('',(0.707106781186548,0.707106781186548,0.));
#379=DIRECTION('',(-0.707106781186548,-0.707106781186548,0.));
#380=DIRECTION('',(-0.707106781186548,-0.707106781186548,0.));
#381=DIRECTION('',(0.,0.,1.));
#382=DIRECTION('',(1.,0.,0.));
#383=DIRECTION('',(0.,0.,1.));
#384=DIRECTION('',(1.,0.,0.));
#385=CARTESIAN_POINT('',(0.,0.,0.));
#386=CARTESIAN_POINT('',(-60.,0.,6.));
#387=CARTESIAN_POINT('',(-60.,0.,0.));
#388=CARTESIAN_POINT('',(-60.,-3.46944695195361E-15,0.));
#389=CARTESIAN_POINT('',(-60.,-75.,0.));
#390=CARTESIAN_POINT('',(-60.,-75.,6.));
#391=CARTESIAN_POINT('',(-60.,-75.,6.));
#392=CARTESIAN_POINT('',(-60.,0.,6.));
#393=CARTESIAN_POINT('',(-60.,-3.46944695195361E-15,6.));
#394=CARTESIAN_POINT('',(-60.,-3.46944695195361E-15,6.));
#395=CARTESIAN_POINT('',(-60.,-75.,6.));
#396=CARTESIAN_POINT('',(-60.,-75.,0.));
#397=CARTESIAN_POINT('',(48.,-75.,0.));
#398=CARTESIAN_POINT('',(48.,-75.,6.));
#399=CARTESIAN_POINT('',(48.,-75.,6.));
#400=CARTESIAN_POINT('',(-60.,-75.,6.));
#401=CARTESIAN_POINT('',(48.,-75.,6.));
#402=CARTESIAN_POINT('',(48.,-75.,0.));
#403=CARTESIAN_POINT('',(48.,15.,0.));
#404=CARTESIAN_POINT('',(48.,15.,6.));
#405=CARTESIAN_POINT('',(48.,15.,6.));
#406=CARTESIAN_POINT('',(48.,-75.,6.));
#407=CARTESIAN_POINT('',(48.,15.,6.));
#408=CARTESIAN_POINT('',(48.,15.,0.));
#409=CARTESIAN_POINT('',(28.,30.,0.));
#410=CARTESIAN_POINT('',(28.,30.,6.));
#411=CARTESIAN_POINT('',(28.,30.,6.));
#412=CARTESIAN_POINT('',(48.,15.,6.));
#413=CARTESIAN_POINT('',(28.,30.,6.));
#414=CARTESIAN_POINT('',(28.,30.,0.));
#415=CARTESIAN_POINT('',(-30.,30.,0.));
#416=CARTESIAN_POINT('',(-30.,30.,6.));
#417=CARTESIAN_POINT('',(-30.,30.,6.));
#418=CARTESIAN_POINT('',(28.,30.,6.));
#419=CARTESIAN_POINT('',(0.,0.,6.));
#420=CARTESIAN_POINT('',(0.,0.,6.));
#421=CARTESIAN_POINT('',(11.1,0.,6.));
#422=CARTESIAN_POINT('',(0.,0.,0.));
#423=CARTESIAN_POINT('',(11.1,0.,0.));
#424=CARTESIAN_POINT('',(-45.,-60.,6.));
#425=CARTESIAN_POINT('',(-45.,-60.,6.));
#426=CARTESIAN_POINT('',(-40.9,-60.,6.));
#427=CARTESIAN_POINT('',(-45.,-60.,0.));
#428=CARTESIAN_POINT('',(-40.9,-60.,0.));
#429=CARTESIAN_POINT('',(-25.,-64.,6.));
#430=CARTESIAN_POINT('',(-25.,-64.,6.));
#431=CARTESIAN_POINT('',(-23.3,-64.,6.));
#432=CARTESIAN_POINT('',(-25.,-64.,0.));
#433=CARTESIAN_POINT('',(-23.3,-64.,0.));
#434=CARTESIAN_POINT('',(25.,-64.,6.));
#435=CARTESIAN_POINT('',(25.,-64.,6.));
#436=CARTESIAN_POINT('',(26.7,-64.,6.));
#437=CARTESIAN_POINT('',(25.,-64.,0.));
#438=CARTESIAN_POINT('',(26.7,-64.,0.));
#439=CARTESIAN_POINT('',(-25.,-24.,6.));
#440=CARTESIAN_POINT('',(-25.,-24.,6.));
#441=CARTESIAN_POINT('',(-23.3,-24.,6.));
#442=CARTESIAN_POINT('',(-25.,-24.,0.));
#443=CARTESIAN_POINT('',(-23.3,-24.,0.));
#444=CARTESIAN_POINT('',(25.,-24.,6.));
#445=CARTESIAN_POINT('',(25.,-24.,6.));
#446=CARTESIAN_POINT('',(26.7,-24.,6.));
#447=CARTESIAN_POINT('',(25.,-24.,0.));
#448=CARTESIAN_POINT('',(26.7,-24.,0.));
#449=CARTESIAN_POINT('',(-30.,30.,6.));
#450=CARTESIAN_POINT('',(-30.,30.,0.));
#451=CARTESIAN_POINT('',(-30.,30.,6.));
#452=CARTESIAN_POINT('',(0.,0.,6.));
#453=CARTESIAN_POINT('',(0.,0.,0.));
#454=MECHANICAL_DESIGN_GEOMETRIC_PRESENTATION_REPRESENTATION('',(#275),
#455);
#455=(
GEOMETRIC_REPRESENTATION_CONTEXT(3)
GLOBAL_UNCERTAINTY_ASSIGNED_CONTEXT((#456))
GLOBAL_UNIT_ASSIGNED_CONTEXT((#459,#458,#457))
REPRESENTATION_CONTEXT('P12_shoulder_bearing_cheek',
'TOP_LEVEL_ASSEMBLY_PART')
);
#456=UNCERTAINTY_MEASURE_WITH_UNIT(LENGTH_MEASURE(0.005),#459,
'DISTANCE_ACCURACY_VALUE','Maximum Tolerance applied to model');
#457=(
NAMED_UNIT(*)
SI_UNIT($,.STERADIAN.)
SOLID_ANGLE_UNIT()
);
#458=(
NAMED_UNIT(*)
PLANE_ANGLE_UNIT()
SI_UNIT($,.RADIAN.)
);
#459=(
LENGTH_UNIT()
NAMED_UNIT(*)
SI_UNIT(.MILLI.,.METRE.)
);
#460=PRODUCT_DEFINITION_SHAPE('','',#461);
#461=PRODUCT_DEFINITION('','',#463,#462);
#462=PRODUCT_DEFINITION_CONTEXT('',#469,'design');
#463=PRODUCT_DEFINITION_FORMATION_WITH_SPECIFIED_SOURCE('','',#465,
 .NOT_KNOWN.);
#464=PRODUCT_RELATED_PRODUCT_CATEGORY('','',(#465));
#465=PRODUCT('P12_shoulder_bearing_cheek','P12_shoulder_bearing_cheek',
'P12_shoulder_bearing_cheek',(#467));
#466=PRODUCT_CATEGORY('','');
#467=PRODUCT_CONTEXT('',#469,'mechanical');
#468=APPLICATION_PROTOCOL_DEFINITION('international standard',
'automotive_design',2010,#469);
#469=APPLICATION_CONTEXT(
'core data for automotive mechanical design processes');
ENDSEC;
END-ISO-10303-21;
