ISO-10303-21;
HEADER;
/* Generated by software containing ST-Developer
 * from STEP Tools, Inc. (www.steptools.com) 
 */
/* OPTION: strings as raw bytes, not using required /X/ escapes */

FILE_DESCRIPTION(
/* description */ ('Unknown'),
/* implementation_level */ '2;1');

FILE_NAME(
/* name */ 'P14_forearm_cheek_100',
/* time_stamp */ '2026-09-23T11:23:48+08:00',
/* author */ ('Unknown'),
/* organization */ ('Unknown'),
/* preprocessor_version */ 'ST-DEVELOPER v16.7',
/* originating_system */ 'Solid Edge',
/* authorisation */ 'Unknown');

FILE_SCHEMA (('AUTOMOTIVE_DESIGN {1 0 10303 214 3 1 1}'));
ENDSEC;

DATA;
#10=PROPERTY_DEFINITION_REPRESENTATION(#14,#12);
#11=PROPERTY_DEFINITION_REPRESENTATION(#15,#13);
#12=REPRESENTATION('',(#16),#2043);
#13=REPRESENTATION('',(#17),#2043);
#14=PROPERTY_DEFINITION('pmi validation property','',#2048);
#15=PROPERTY_DEFINITION('pmi validation property','',#2048);
#16=VALUE_REPRESENTATION_ITEM('number of annotations',COUNT_MEASURE(0.));
#17=VALUE_REPRESENTATION_ITEM('number of views',COUNT_MEASURE(0.));
#18=SHAPE_REPRESENTATION_RELATIONSHIP('','',#1297,#19);
#19=ADVANCED_BREP_SHAPE_REPRESENTATION('',(#1295),#2043);
#20=CIRCLE('',#1352,4.1);
#21=CIRCLE('',#1353,4.1);
#22=CIRCLE('',#1355,4.1);
#23=CIRCLE('',#1356,4.1);
#24=CIRCLE('',#1359,1.7);
#25=CIRCLE('',#1360,1.7);
#26=CIRCLE('',#1362,1.7);
#27=CIRCLE('',#1363,1.7);
#28=CIRCLE('',#1365,1.7);
#29=CIRCLE('',#1366,1.7);
#30=CIRCLE('',#1368,1.7);
#31=CIRCLE('',#1369,1.7);
#32=CYLINDRICAL_SURFACE('',#1351,4.1);
#33=CYLINDRICAL_SURFACE('',#1354,4.1);
#34=CYLINDRICAL_SURFACE('',#1358,1.7);
#35=CYLINDRICAL_SURFACE('',#1361,1.7);
#36=CYLINDRICAL_SURFACE('',#1364,1.7);
#37=CYLINDRICAL_SURFACE('',#1367,1.7);
#38=ORIENTED_EDGE('',*,*,#386,.T.);
#39=ORIENTED_EDGE('',*,*,#387,.F.);
#40=ORIENTED_EDGE('',*,*,#388,.F.);
#41=ORIENTED_EDGE('',*,*,#389,.T.);
#42=ORIENTED_EDGE('',*,*,#390,.T.);
#43=ORIENTED_EDGE('',*,*,#391,.F.);
#44=ORIENTED_EDGE('',*,*,#392,.F.);
#45=ORIENTED_EDGE('',*,*,#387,.T.);
#46=ORIENTED_EDGE('',*,*,#393,.T.);
#47=ORIENTED_EDGE('',*,*,#394,.F.);
#48=ORIENTED_EDGE('',*,*,#395,.F.);
#49=ORIENTED_EDGE('',*,*,#391,.T.);
#50=ORIENTED_EDGE('',*,*,#396,.T.);
#51=ORIENTED_EDGE('',*,*,#397,.F.);
#52=ORIENTED_EDGE('',*,*,#398,.F.);
#53=ORIENTED_EDGE('',*,*,#394,.T.);
#54=ORIENTED_EDGE('',*,*,#399,.T.);
#55=ORIENTED_EDGE('',*,*,#400,.F.);
#56=ORIENTED_EDGE('',*,*,#401,.F.);
#57=ORIENTED_EDGE('',*,*,#397,.T.);
#58=ORIENTED_EDGE('',*,*,#402,.T.);
#59=ORIENTED_EDGE('',*,*,#403,.F.);
#60=ORIENTED_EDGE('',*,*,#404,.F.);
#61=ORIENTED_EDGE('',*,*,#400,.T.);
#62=ORIENTED_EDGE('',*,*,#405,.T.);
#63=ORIENTED_EDGE('',*,*,#406,.F.);
#64=ORIENTED_EDGE('',*,*,#407,.F.);
#65=ORIENTED_EDGE('',*,*,#403,.T.);
#66=ORIENTED_EDGE('',*,*,#408,.T.);
#67=ORIENTED_EDGE('',*,*,#409,.F.);
#68=ORIENTED_EDGE('',*,*,#410,.F.);
#69=ORIENTED_EDGE('',*,*,#406,.T.);
#70=ORIENTED_EDGE('',*,*,#411,.T.);
#71=ORIENTED_EDGE('',*,*,#412,.F.);
#72=ORIENTED_EDGE('',*,*,#413,.F.);
#73=ORIENTED_EDGE('',*,*,#409,.T.);
#74=ORIENTED_EDGE('',*,*,#414,.T.);
#75=ORIENTED_EDGE('',*,*,#415,.F.);
#76=ORIENTED_EDGE('',*,*,#416,.F.);
#77=ORIENTED_EDGE('',*,*,#412,.T.);
#78=ORIENTED_EDGE('',*,*,#417,.T.);
#79=ORIENTED_EDGE('',*,*,#418,.F.);
#80=ORIENTED_EDGE('',*,*,#419,.F.);
#81=ORIENTED_EDGE('',*,*,#415,.T.);
#82=ORIENTED_EDGE('',*,*,#420,.T.);
#83=ORIENTED_EDGE('',*,*,#421,.F.);
#84=ORIENTED_EDGE('',*,*,#422,.F.);
#85=ORIENTED_EDGE('',*,*,#418,.T.);
#86=ORIENTED_EDGE('',*,*,#423,.T.);
#87=ORIENTED_EDGE('',*,*,#424,.F.);
#88=ORIENTED_EDGE('',*,*,#425,.F.);
#89=ORIENTED_EDGE('',*,*,#421,.T.);
#90=ORIENTED_EDGE('',*,*,#426,.T.);
#91=ORIENTED_EDGE('',*,*,#427,.F.);
#92=ORIENTED_EDGE('',*,*,#428,.F.);
#93=ORIENTED_EDGE('',*,*,#424,.T.);
#94=ORIENTED_EDGE('',*,*,#429,.T.);
#95=ORIENTED_EDGE('',*,*,#430,.F.);
#96=ORIENTED_EDGE('',*,*,#431,.F.);
#97=ORIENTED_EDGE('',*,*,#427,.T.);
#98=ORIENTED_EDGE('',*,*,#432,.T.);
#99=ORIENTED_EDGE('',*,*,#433,.F.);
#100=ORIENTED_EDGE('',*,*,#434,.F.);
#101=ORIENTED_EDGE('',*,*,#430,.T.);
#102=ORIENTED_EDGE('',*,*,#435,.T.);
#103=ORIENTED_EDGE('',*,*,#436,.F.);
#104=ORIENTED_EDGE('',*,*,#437,.F.);
#105=ORIENTED_EDGE('',*,*,#433,.T.);
#106=ORIENTED_EDGE('',*,*,#438,.T.);
#107=ORIENTED_EDGE('',*,*,#439,.F.);
#108=ORIENTED_EDGE('',*,*,#440,.F.);
#109=ORIENTED_EDGE('',*,*,#436,.T.);
#110=ORIENTED_EDGE('',*,*,#441,.T.);
#111=ORIENTED_EDGE('',*,*,#442,.F.);
#112=ORIENTED_EDGE('',*,*,#443,.F.);
#113=ORIENTED_EDGE('',*,*,#439,.T.);
#114=ORIENTED_EDGE('',*,*,#444,.T.);
#115=ORIENTED_EDGE('',*,*,#445,.F.);
#116=ORIENTED_EDGE('',*,*,#446,.F.);
#117=ORIENTED_EDGE('',*,*,#442,.T.);
#118=ORIENTED_EDGE('',*,*,#447,.T.);
#119=ORIENTED_EDGE('',*,*,#448,.F.);
#120=ORIENTED_EDGE('',*,*,#449,.F.);
#121=ORIENTED_EDGE('',*,*,#445,.T.);
#122=ORIENTED_EDGE('',*,*,#450,.T.);
#123=ORIENTED_EDGE('',*,*,#451,.F.);
#124=ORIENTED_EDGE('',*,*,#452,.F.);
#125=ORIENTED_EDGE('',*,*,#448,.T.);
#126=ORIENTED_EDGE('',*,*,#453,.T.);
#127=ORIENTED_EDGE('',*,*,#454,.F.);
#128=ORIENTED_EDGE('',*,*,#455,.F.);
#129=ORIENTED_EDGE('',*,*,#451,.T.);
#130=ORIENTED_EDGE('',*,*,#456,.T.);
#131=ORIENTED_EDGE('',*,*,#457,.F.);
#132=ORIENTED_EDGE('',*,*,#458,.F.);
#133=ORIENTED_EDGE('',*,*,#454,.T.);
#134=ORIENTED_EDGE('',*,*,#459,.T.);
#135=ORIENTED_EDGE('',*,*,#460,.F.);
#136=ORIENTED_EDGE('',*,*,#461,.F.);
#137=ORIENTED_EDGE('',*,*,#457,.T.);
#138=ORIENTED_EDGE('',*,*,#462,.T.);
#139=ORIENTED_EDGE('',*,*,#463,.F.);
#140=ORIENTED_EDGE('',*,*,#464,.F.);
#141=ORIENTED_EDGE('',*,*,#460,.T.);
#142=ORIENTED_EDGE('',*,*,#465,.T.);
#143=ORIENTED_EDGE('',*,*,#466,.F.);
#144=ORIENTED_EDGE('',*,*,#467,.F.);
#145=ORIENTED_EDGE('',*,*,#463,.T.);
#146=ORIENTED_EDGE('',*,*,#468,.T.);
#147=ORIENTED_EDGE('',*,*,#469,.F.);
#148=ORIENTED_EDGE('',*,*,#470,.F.);
#149=ORIENTED_EDGE('',*,*,#466,.T.);
#150=ORIENTED_EDGE('',*,*,#471,.T.);
#151=ORIENTED_EDGE('',*,*,#472,.F.);
#152=ORIENTED_EDGE('',*,*,#473,.F.);
#153=ORIENTED_EDGE('',*,*,#469,.T.);
#154=ORIENTED_EDGE('',*,*,#474,.T.);
#155=ORIENTED_EDGE('',*,*,#475,.F.);
#156=ORIENTED_EDGE('',*,*,#476,.F.);
#157=ORIENTED_EDGE('',*,*,#472,.T.);
#158=ORIENTED_EDGE('',*,*,#477,.T.);
#159=ORIENTED_EDGE('',*,*,#478,.F.);
#160=ORIENTED_EDGE('',*,*,#479,.F.);
#161=ORIENTED_EDGE('',*,*,#475,.T.);
#162=ORIENTED_EDGE('',*,*,#480,.T.);
#163=ORIENTED_EDGE('',*,*,#481,.F.);
#164=ORIENTED_EDGE('',*,*,#482,.F.);
#165=ORIENTED_EDGE('',*,*,#478,.T.);
#166=ORIENTED_EDGE('',*,*,#483,.T.);
#167=ORIENTED_EDGE('',*,*,#484,.F.);
#168=ORIENTED_EDGE('',*,*,#485,.F.);
#169=ORIENTED_EDGE('',*,*,#481,.T.);
#170=ORIENTED_EDGE('',*,*,#486,.T.);
#171=ORIENTED_EDGE('',*,*,#487,.F.);
#172=ORIENTED_EDGE('',*,*,#488,.F.);
#173=ORIENTED_EDGE('',*,*,#484,.T.);
#174=ORIENTED_EDGE('',*,*,#489,.T.);
#175=ORIENTED_EDGE('',*,*,#490,.F.);
#176=ORIENTED_EDGE('',*,*,#491,.F.);
#177=ORIENTED_EDGE('',*,*,#487,.T.);
#178=ORIENTED_EDGE('',*,*,#492,.T.);
#179=ORIENTED_EDGE('',*,*,#493,.F.);
#180=ORIENTED_EDGE('',*,*,#494,.F.);
#181=ORIENTED_EDGE('',*,*,#490,.T.);
#182=ORIENTED_EDGE('',*,*,#495,.T.);
#183=ORIENTED_EDGE('',*,*,#496,.F.);
#184=ORIENTED_EDGE('',*,*,#497,.F.);
#185=ORIENTED_EDGE('',*,*,#493,.T.);
#186=ORIENTED_EDGE('',*,*,#498,.T.);
#187=ORIENTED_EDGE('',*,*,#499,.F.);
#188=ORIENTED_EDGE('',*,*,#500,.F.);
#189=ORIENTED_EDGE('',*,*,#496,.T.);
#190=ORIENTED_EDGE('',*,*,#501,.T.);
#191=ORIENTED_EDGE('',*,*,#502,.F.);
#192=ORIENTED_EDGE('',*,*,#503,.F.);
#193=ORIENTED_EDGE('',*,*,#499,.T.);
#194=ORIENTED_EDGE('',*,*,#504,.T.);
#195=ORIENTED_EDGE('',*,*,#505,.F.);
#196=ORIENTED_EDGE('',*,*,#506,.F.);
#197=ORIENTED_EDGE('',*,*,#502,.T.);
#198=ORIENTED_EDGE('',*,*,#507,.T.);
#199=ORIENTED_EDGE('',*,*,#508,.F.);
#200=ORIENTED_EDGE('',*,*,#509,.F.);
#201=ORIENTED_EDGE('',*,*,#505,.T.);
#202=ORIENTED_EDGE('',*,*,#510,.T.);
#203=ORIENTED_EDGE('',*,*,#511,.F.);
#204=ORIENTED_EDGE('',*,*,#512,.F.);
#205=ORIENTED_EDGE('',*,*,#508,.T.);
#206=ORIENTED_EDGE('',*,*,#513,.T.);
#207=ORIENTED_EDGE('',*,*,#514,.F.);
#208=ORIENTED_EDGE('',*,*,#515,.F.);
#209=ORIENTED_EDGE('',*,*,#511,.T.);
#210=ORIENTED_EDGE('',*,*,#516,.T.);
#211=ORIENTED_EDGE('',*,*,#517,.F.);
#212=ORIENTED_EDGE('',*,*,#518,.F.);
#213=ORIENTED_EDGE('',*,*,#514,.T.);
#214=ORIENTED_EDGE('',*,*,#519,.T.);
#215=ORIENTED_EDGE('',*,*,#520,.F.);
#216=ORIENTED_EDGE('',*,*,#521,.F.);
#217=ORIENTED_EDGE('',*,*,#517,.T.);
#218=ORIENTED_EDGE('',*,*,#522,.T.);
#219=ORIENTED_EDGE('',*,*,#523,.F.);
#220=ORIENTED_EDGE('',*,*,#524,.F.);
#221=ORIENTED_EDGE('',*,*,#520,.T.);
#222=ORIENTED_EDGE('',*,*,#525,.T.);
#223=ORIENTED_EDGE('',*,*,#526,.F.);
#224=ORIENTED_EDGE('',*,*,#527,.F.);
#225=ORIENTED_EDGE('',*,*,#523,.T.);
#226=ORIENTED_EDGE('',*,*,#528,.T.);
#227=ORIENTED_EDGE('',*,*,#529,.F.);
#228=ORIENTED_EDGE('',*,*,#530,.F.);
#229=ORIENTED_EDGE('',*,*,#526,.T.);
#230=ORIENTED_EDGE('',*,*,#531,.T.);
#231=ORIENTED_EDGE('',*,*,#532,.F.);
#232=ORIENTED_EDGE('',*,*,#533,.F.);
#233=ORIENTED_EDGE('',*,*,#529,.T.);
#234=ORIENTED_EDGE('',*,*,#534,.F.);
#235=ORIENTED_EDGE('',*,*,#535,.F.);
#236=ORIENTED_EDGE('',*,*,#536,.T.);
#237=ORIENTED_EDGE('',*,*,#537,.T.);
#238=ORIENTED_EDGE('',*,*,#538,.F.);
#239=ORIENTED_EDGE('',*,*,#539,.F.);
#240=ORIENTED_EDGE('',*,*,#540,.T.);
#241=ORIENTED_EDGE('',*,*,#535,.T.);
#242=ORIENTED_EDGE('',*,*,#541,.F.);
#243=ORIENTED_EDGE('',*,*,#542,.F.);
#244=ORIENTED_EDGE('',*,*,#543,.T.);
#245=ORIENTED_EDGE('',*,*,#539,.T.);
#246=ORIENTED_EDGE('',*,*,#544,.T.);
#247=ORIENTED_EDGE('',*,*,#545,.F.);
#248=ORIENTED_EDGE('',*,*,#546,.T.);
#249=ORIENTED_EDGE('',*,*,#547,.F.);
#250=ORIENTED_EDGE('',*,*,#548,.F.);
#251=ORIENTED_EDGE('',*,*,#537,.F.);
#252=ORIENTED_EDGE('',*,*,#549,.T.);
#253=ORIENTED_EDGE('',*,*,#542,.T.);
#254=ORIENTED_EDGE('',*,*,#550,.T.);
#255=ORIENTED_EDGE('',*,*,#551,.F.);
#256=ORIENTED_EDGE('',*,*,#552,.T.);
#257=ORIENTED_EDGE('',*,*,#553,.F.);
#258=ORIENTED_EDGE('',*,*,#554,.T.);
#259=ORIENTED_EDGE('',*,*,#555,.F.);
#260=ORIENTED_EDGE('',*,*,#556,.T.);
#261=ORIENTED_EDGE('',*,*,#557,.F.);
#262=ORIENTED_EDGE('',*,*,#558,.T.);
#263=ORIENTED_EDGE('',*,*,#389,.F.);
#264=ORIENTED_EDGE('',*,*,#559,.F.);
#265=ORIENTED_EDGE('',*,*,#532,.T.);
#266=ORIENTED_EDGE('',*,*,#556,.F.);
#267=ORIENTED_EDGE('',*,*,#554,.F.);
#268=ORIENTED_EDGE('',*,*,#552,.F.);
#269=ORIENTED_EDGE('',*,*,#550,.F.);
#270=ORIENTED_EDGE('',*,*,#536,.F.);
#271=ORIENTED_EDGE('',*,*,#540,.F.);
#272=ORIENTED_EDGE('',*,*,#543,.F.);
#273=ORIENTED_EDGE('',*,*,#549,.F.);
#274=ORIENTED_EDGE('',*,*,#546,.F.);
#275=ORIENTED_EDGE('',*,*,#544,.F.);
#276=ORIENTED_EDGE('',*,*,#388,.T.);
#277=ORIENTED_EDGE('',*,*,#392,.T.);
#278=ORIENTED_EDGE('',*,*,#395,.T.);
#279=ORIENTED_EDGE('',*,*,#398,.T.);
#280=ORIENTED_EDGE('',*,*,#401,.T.);
#281=ORIENTED_EDGE('',*,*,#404,.T.);
#282=ORIENTED_EDGE('',*,*,#407,.T.);
#283=ORIENTED_EDGE('',*,*,#410,.T.);
#284=ORIENTED_EDGE('',*,*,#413,.T.);
#285=ORIENTED_EDGE('',*,*,#416,.T.);
#286=ORIENTED_EDGE('',*,*,#419,.T.);
#287=ORIENTED_EDGE('',*,*,#422,.T.);
#288=ORIENTED_EDGE('',*,*,#425,.T.);
#289=ORIENTED_EDGE('',*,*,#428,.T.);
#290=ORIENTED_EDGE('',*,*,#431,.T.);
#291=ORIENTED_EDGE('',*,*,#434,.T.);
#292=ORIENTED_EDGE('',*,*,#437,.T.);
#293=ORIENTED_EDGE('',*,*,#440,.T.);
#294=ORIENTED_EDGE('',*,*,#443,.T.);
#295=ORIENTED_EDGE('',*,*,#446,.T.);
#296=ORIENTED_EDGE('',*,*,#449,.T.);
#297=ORIENTED_EDGE('',*,*,#452,.T.);
#298=ORIENTED_EDGE('',*,*,#455,.T.);
#299=ORIENTED_EDGE('',*,*,#458,.T.);
#300=ORIENTED_EDGE('',*,*,#461,.T.);
#301=ORIENTED_EDGE('',*,*,#464,.T.);
#302=ORIENTED_EDGE('',*,*,#467,.T.);
#303=ORIENTED_EDGE('',*,*,#470,.T.);
#304=ORIENTED_EDGE('',*,*,#473,.T.);
#305=ORIENTED_EDGE('',*,*,#476,.T.);
#306=ORIENTED_EDGE('',*,*,#479,.T.);
#307=ORIENTED_EDGE('',*,*,#482,.T.);
#308=ORIENTED_EDGE('',*,*,#485,.T.);
#309=ORIENTED_EDGE('',*,*,#488,.T.);
#310=ORIENTED_EDGE('',*,*,#491,.T.);
#311=ORIENTED_EDGE('',*,*,#494,.T.);
#312=ORIENTED_EDGE('',*,*,#497,.T.);
#313=ORIENTED_EDGE('',*,*,#500,.T.);
#314=ORIENTED_EDGE('',*,*,#503,.T.);
#315=ORIENTED_EDGE('',*,*,#506,.T.);
#316=ORIENTED_EDGE('',*,*,#509,.T.);
#317=ORIENTED_EDGE('',*,*,#512,.T.);
#318=ORIENTED_EDGE('',*,*,#515,.T.);
#319=ORIENTED_EDGE('',*,*,#518,.T.);
#320=ORIENTED_EDGE('',*,*,#521,.T.);
#321=ORIENTED_EDGE('',*,*,#524,.T.);
#322=ORIENTED_EDGE('',*,*,#527,.T.);
#323=ORIENTED_EDGE('',*,*,#530,.T.);
#324=ORIENTED_EDGE('',*,*,#533,.T.);
#325=ORIENTED_EDGE('',*,*,#559,.T.);
#326=ORIENTED_EDGE('',*,*,#557,.T.);
#327=ORIENTED_EDGE('',*,*,#555,.T.);
#328=ORIENTED_EDGE('',*,*,#553,.T.);
#329=ORIENTED_EDGE('',*,*,#551,.T.);
#330=ORIENTED_EDGE('',*,*,#534,.T.);
#331=ORIENTED_EDGE('',*,*,#548,.T.);
#332=ORIENTED_EDGE('',*,*,#541,.T.);
#333=ORIENTED_EDGE('',*,*,#538,.T.);
#334=ORIENTED_EDGE('',*,*,#547,.T.);
#335=ORIENTED_EDGE('',*,*,#545,.T.);
#336=ORIENTED_EDGE('',*,*,#386,.F.);
#337=ORIENTED_EDGE('',*,*,#558,.F.);
#338=ORIENTED_EDGE('',*,*,#531,.F.);
#339=ORIENTED_EDGE('',*,*,#528,.F.);
#340=ORIENTED_EDGE('',*,*,#525,.F.);
#341=ORIENTED_EDGE('',*,*,#522,.F.);
#342=ORIENTED_EDGE('',*,*,#519,.F.);
#343=ORIENTED_EDGE('',*,*,#516,.F.);
#344=ORIENTED_EDGE('',*,*,#513,.F.);
#345=ORIENTED_EDGE('',*,*,#510,.F.);
#346=ORIENTED_EDGE('',*,*,#507,.F.);
#347=ORIENTED_EDGE('',*,*,#504,.F.);
#348=ORIENTED_EDGE('',*,*,#501,.F.);
#349=ORIENTED_EDGE('',*,*,#498,.F.);
#350=ORIENTED_EDGE('',*,*,#495,.F.);
#351=ORIENTED_EDGE('',*,*,#492,.F.);
#352=ORIENTED_EDGE('',*,*,#489,.F.);
#353=ORIENTED_EDGE('',*,*,#486,.F.);
#354=ORIENTED_EDGE('',*,*,#483,.F.);
#355=ORIENTED_EDGE('',*,*,#480,.F.);
#356=ORIENTED_EDGE('',*,*,#477,.F.);
#357=ORIENTED_EDGE('',*,*,#474,.F.);
#358=ORIENTED_EDGE('',*,*,#471,.F.);
#359=ORIENTED_EDGE('',*,*,#468,.F.);
#360=ORIENTED_EDGE('',*,*,#465,.F.);
#361=ORIENTED_EDGE('',*,*,#462,.F.);
#362=ORIENTED_EDGE('',*,*,#459,.F.);
#363=ORIENTED_EDGE('',*,*,#456,.F.);
#364=ORIENTED_EDGE('',*,*,#453,.F.);
#365=ORIENTED_EDGE('',*,*,#450,.F.);
#366=ORIENTED_EDGE('',*,*,#447,.F.);
#367=ORIENTED_EDGE('',*,*,#444,.F.);
#368=ORIENTED_EDGE('',*,*,#441,.F.);
#369=ORIENTED_EDGE('',*,*,#438,.F.);
#370=ORIENTED_EDGE('',*,*,#435,.F.);
#371=ORIENTED_EDGE('',*,*,#432,.F.);
#372=ORIENTED_EDGE('',*,*,#429,.F.);
#373=ORIENTED_EDGE('',*,*,#426,.F.);
#374=ORIENTED_EDGE('',*,*,#423,.F.);
#375=ORIENTED_EDGE('',*,*,#420,.F.);
#376=ORIENTED_EDGE('',*,*,#417,.F.);
#377=ORIENTED_EDGE('',*,*,#414,.F.);
#378=ORIENTED_EDGE('',*,*,#411,.F.);
#379=ORIENTED_EDGE('',*,*,#408,.F.);
#380=ORIENTED_EDGE('',*,*,#405,.F.);
#381=ORIENTED_EDGE('',*,*,#402,.F.);
#382=ORIENTED_EDGE('',*,*,#399,.F.);
#383=ORIENTED_EDGE('',*,*,#396,.F.);
#384=ORIENTED_EDGE('',*,*,#393,.F.);
#385=ORIENTED_EDGE('',*,*,#390,.F.);
#386=EDGE_CURVE('',#560,#561,#680,.T.);
#387=EDGE_CURVE('',#562,#561,#681,.T.);
#388=EDGE_CURVE('',#563,#562,#682,.T.);
#389=EDGE_CURVE('',#563,#560,#683,.T.);
#390=EDGE_CURVE('',#561,#564,#684,.T.);
#391=EDGE_CURVE('',#565,#564,#685,.T.);
#392=EDGE_CURVE('',#562,#565,#686,.T.);
#393=EDGE_CURVE('',#564,#566,#687,.T.);
#394=EDGE_CURVE('',#567,#566,#688,.T.);
#395=EDGE_CURVE('',#565,#567,#689,.T.);
#396=EDGE_CURVE('',#566,#568,#690,.T.);
#397=EDGE_CURVE('',#569,#568,#691,.T.);
#398=EDGE_CURVE('',#567,#569,#692,.T.);
#399=EDGE_CURVE('',#568,#570,#693,.T.);
#400=EDGE_CURVE('',#571,#570,#694,.T.);
#401=EDGE_CURVE('',#569,#571,#695,.T.);
#402=EDGE_CURVE('',#570,#572,#696,.T.);
#403=EDGE_CURVE('',#573,#572,#697,.T.);
#404=EDGE_CURVE('',#571,#573,#698,.T.);
#405=EDGE_CURVE('',#572,#574,#699,.T.);
#406=EDGE_CURVE('',#575,#574,#700,.T.);
#407=EDGE_CURVE('',#573,#575,#701,.T.);
#408=EDGE_CURVE('',#574,#576,#702,.T.);
#409=EDGE_CURVE('',#577,#576,#703,.T.);
#410=EDGE_CURVE('',#575,#577,#704,.T.);
#411=EDGE_CURVE('',#576,#578,#705,.T.);
#412=EDGE_CURVE('',#579,#578,#706,.T.);
#413=EDGE_CURVE('',#577,#579,#707,.T.);
#414=EDGE_CURVE('',#578,#580,#708,.T.);
#415=EDGE_CURVE('',#581,#580,#709,.T.);
#416=EDGE_CURVE('',#579,#581,#710,.T.);
#417=EDGE_CURVE('',#580,#582,#711,.T.);
#418=EDGE_CURVE('',#583,#582,#712,.T.);
#419=EDGE_CURVE('',#581,#583,#713,.T.);
#420=EDGE_CURVE('',#582,#584,#714,.T.);
#421=EDGE_CURVE('',#585,#584,#715,.T.);
#422=EDGE_CURVE('',#583,#585,#716,.T.);
#423=EDGE_CURVE('',#584,#586,#717,.T.);
#424=EDGE_CURVE('',#587,#586,#718,.T.);
#425=EDGE_CURVE('',#585,#587,#719,.T.);
#426=EDGE_CURVE('',#586,#588,#720,.T.);
#427=EDGE_CURVE('',#589,#588,#721,.T.);
#428=EDGE_CURVE('',#587,#589,#722,.T.);
#429=EDGE_CURVE('',#588,#590,#723,.T.);
#430=EDGE_CURVE('',#591,#590,#724,.T.);
#431=EDGE_CURVE('',#589,#591,#725,.T.);
#432=EDGE_CURVE('',#590,#592,#726,.T.);
#433=EDGE_CURVE('',#593,#592,#727,.T.);
#434=EDGE_CURVE('',#591,#593,#728,.T.);
#435=EDGE_CURVE('',#592,#594,#729,.T.);
#436=EDGE_CURVE('',#595,#594,#730,.T.);
#437=EDGE_CURVE('',#593,#595,#731,.T.);
#438=EDGE_CURVE('',#594,#596,#732,.T.);
#439=EDGE_CURVE('',#597,#596,#733,.T.);
#440=EDGE_CURVE('',#595,#597,#734,.T.);
#441=EDGE_CURVE('',#596,#598,#735,.T.);
#442=EDGE_CURVE('',#599,#598,#736,.T.);
#443=EDGE_CURVE('',#597,#599,#737,.T.);
#444=EDGE_CURVE('',#598,#600,#738,.T.);
#445=EDGE_CURVE('',#601,#600,#739,.T.);
#446=EDGE_CURVE('',#599,#601,#740,.T.);
#447=EDGE_CURVE('',#600,#602,#741,.T.);
#448=EDGE_CURVE('',#603,#602,#742,.T.);
#449=EDGE_CURVE('',#601,#603,#743,.T.);
#450=EDGE_CURVE('',#602,#604,#744,.T.);
#451=EDGE_CURVE('',#605,#604,#745,.T.);
#452=EDGE_CURVE('',#603,#605,#746,.T.);
#453=EDGE_CURVE('',#604,#606,#747,.T.);
#454=EDGE_CURVE('',#607,#606,#748,.T.);
#455=EDGE_CURVE('',#605,#607,#749,.T.);
#456=EDGE_CURVE('',#606,#608,#750,.T.);
#457=EDGE_CURVE('',#609,#608,#751,.T.);
#458=EDGE_CURVE('',#607,#609,#752,.T.);
#459=EDGE_CURVE('',#608,#610,#753,.T.);
#460=EDGE_CURVE('',#611,#610,#754,.T.);
#461=EDGE_CURVE('',#609,#611,#755,.T.);
#462=EDGE_CURVE('',#610,#612,#756,.T.);
#463=EDGE_CURVE('',#613,#612,#757,.T.);
#464=EDGE_CURVE('',#611,#613,#758,.T.);
#465=EDGE_CURVE('',#612,#614,#759,.T.);
#466=EDGE_CURVE('',#615,#614,#760,.T.);
#467=EDGE_CURVE('',#613,#615,#761,.T.);
#468=EDGE_CURVE('',#614,#616,#762,.T.);
#469=EDGE_CURVE('',#617,#616,#763,.T.);
#470=EDGE_CURVE('',#615,#617,#764,.T.);
#471=EDGE_CURVE('',#616,#618,#765,.T.);
#472=EDGE_CURVE('',#619,#618,#766,.T.);
#473=EDGE_CURVE('',#617,#619,#767,.T.);
#474=EDGE_CURVE('',#618,#620,#768,.T.);
#475=EDGE_CURVE('',#621,#620,#769,.T.);
#476=EDGE_CURVE('',#619,#621,#770,.T.);
#477=EDGE_CURVE('',#620,#622,#771,.T.);
#478=EDGE_CURVE('',#623,#622,#772,.T.);
#479=EDGE_CURVE('',#621,#623,#773,.T.);
#480=EDGE_CURVE('',#622,#624,#774,.T.);
#481=EDGE_CURVE('',#625,#624,#775,.T.);
#482=EDGE_CURVE('',#623,#625,#776,.T.);
#483=EDGE_CURVE('',#624,#626,#777,.T.);
#484=EDGE_CURVE('',#627,#626,#778,.T.);
#485=EDGE_CURVE('',#625,#627,#779,.T.);
#486=EDGE_CURVE('',#626,#628,#780,.T.);
#487=EDGE_CURVE('',#629,#628,#781,.T.);
#488=EDGE_CURVE('',#627,#629,#782,.T.);
#489=EDGE_CURVE('',#628,#630,#783,.T.);
#490=EDGE_CURVE('',#631,#630,#784,.T.);
#491=EDGE_CURVE('',#629,#631,#785,.T.);
#492=EDGE_CURVE('',#630,#632,#786,.T.);
#493=EDGE_CURVE('',#633,#632,#787,.T.);
#494=EDGE_CURVE('',#631,#633,#788,.T.);
#495=EDGE_CURVE('',#632,#634,#789,.T.);
#496=EDGE_CURVE('',#635,#634,#790,.T.);
#497=EDGE_CURVE('',#633,#635,#791,.T.);
#498=EDGE_CURVE('',#634,#636,#792,.T.);
#499=EDGE_CURVE('',#637,#636,#793,.T.);
#500=EDGE_CURVE('',#635,#637,#794,.T.);
#501=EDGE_CURVE('',#636,#638,#795,.T.);
#502=EDGE_CURVE('',#639,#638,#796,.T.);
#503=EDGE_CURVE('',#637,#639,#797,.T.);
#504=EDGE_CURVE('',#638,#640,#798,.T.);
#505=EDGE_CURVE('',#641,#640,#799,.T.);
#506=EDGE_CURVE('',#639,#641,#800,.T.);
#507=EDGE_CURVE('',#640,#642,#801,.T.);
#508=EDGE_CURVE('',#643,#642,#802,.T.);
#509=EDGE_CURVE('',#641,#643,#803,.T.);
#510=EDGE_CURVE('',#642,#644,#804,.T.);
#511=EDGE_CURVE('',#645,#644,#805,.T.);
#512=EDGE_CURVE('',#643,#645,#806,.T.);
#513=EDGE_CURVE('',#644,#646,#807,.T.);
#514=EDGE_CURVE('',#647,#646,#808,.T.);
#515=EDGE_CURVE('',#645,#647,#809,.T.);
#516=EDGE_CURVE('',#646,#648,#810,.T.);
#517=EDGE_CURVE('',#649,#648,#811,.T.);
#518=EDGE_CURVE('',#647,#649,#812,.T.);
#519=EDGE_CURVE('',#648,#650,#813,.T.);
#520=EDGE_CURVE('',#651,#650,#814,.T.);
#521=EDGE_CURVE('',#649,#651,#815,.T.);
#522=EDGE_CURVE('',#650,#652,#816,.T.);
#523=EDGE_CURVE('',#653,#652,#817,.T.);
#524=EDGE_CURVE('',#651,#653,#818,.T.);
#525=EDGE_CURVE('',#652,#654,#819,.T.);
#526=EDGE_CURVE('',#655,#654,#820,.T.);
#527=EDGE_CURVE('',#653,#655,#821,.T.);
#528=EDGE_CURVE('',#654,#656,#822,.T.);
#529=EDGE_CURVE('',#657,#656,#823,.T.);
#530=EDGE_CURVE('',#655,#657,#824,.T.);
#531=EDGE_CURVE('',#656,#658,#825,.T.);
#532=EDGE_CURVE('',#659,#658,#826,.T.);
#533=EDGE_CURVE('',#657,#659,#827,.T.);
#534=EDGE_CURVE('',#660,#661,#828,.T.);
#535=EDGE_CURVE('',#662,#660,#829,.T.);
#536=EDGE_CURVE('',#662,#663,#830,.T.);
#537=EDGE_CURVE('',#663,#661,#831,.T.);
#538=EDGE_CURVE('',#664,#660,#832,.T.);
#539=EDGE_CURVE('',#665,#664,#833,.T.);
#540=EDGE_CURVE('',#665,#662,#834,.T.);
#541=EDGE_CURVE('',#666,#664,#835,.T.);
#542=EDGE_CURVE('',#667,#666,#836,.T.);
#543=EDGE_CURVE('',#667,#665,#837,.T.);
#544=EDGE_CURVE('',#668,#668,#20,.T.);
#545=EDGE_CURVE('',#669,#669,#21,.T.);
#546=EDGE_CURVE('',#670,#670,#22,.T.);
#547=EDGE_CURVE('',#671,#671,#23,.T.);
#548=EDGE_CURVE('',#661,#666,#838,.T.);
#549=EDGE_CURVE('',#663,#667,#839,.T.);
#550=EDGE_CURVE('',#672,#672,#24,.T.);
#551=EDGE_CURVE('',#673,#673,#25,.T.);
#552=EDGE_CURVE('',#674,#674,#26,.T.);
#553=EDGE_CURVE('',#675,#675,#27,.T.);
#554=EDGE_CURVE('',#676,#676,#28,.T.);
#555=EDGE_CURVE('',#677,#677,#29,.T.);
#556=EDGE_CURVE('',#678,#678,#30,.T.);
#557=EDGE_CURVE('',#679,#679,#31,.T.);
#558=EDGE_CURVE('',#658,#560,#840,.T.);
#559=EDGE_CURVE('',#659,#563,#841,.T.);
#560=VERTEX_POINT('',#1688);
#561=VERTEX_POINT('',#1689);
#562=VERTEX_POINT('',#1691);
#563=VERTEX_POINT('',#1693);
#564=VERTEX_POINT('',#1697);
#565=VERTEX_POINT('',#1699);
#566=VERTEX_POINT('',#1703);
#567=VERTEX_POINT('',#1705);
#568=VERTEX_POINT('',#1709);
#569=VERTEX_POINT('',#1711);
#570=VERTEX_POINT('',#1715);
#571=VERTEX_POINT('',#1717);
#572=VERTEX_POINT('',#1721);
#573=VERTEX_POINT('',#1723);
#574=VERTEX_POINT('',#1727);
#575=VERTEX_POINT('',#1729);
#576=VERTEX_POINT('',#1733);
#577=VERTEX_POINT('',#1735);
#578=VERTEX_POINT('',#1739);
#579=VERTEX_POINT('',#1741);
#580=VERTEX_POINT('',#1745);
#581=VERTEX_POINT('',#1747);
#582=VERTEX_POINT('',#1751);
#583=VERTEX_POINT('',#1753);
#584=VERTEX_POINT('',#1757);
#585=VERTEX_POINT('',#1759);
#586=VERTEX_POINT('',#1763);
#587=VERTEX_POINT('',#1765);
#588=VERTEX_POINT('',#1769);
#589=VERTEX_POINT('',#1771);
#590=VERTEX_POINT('',#1775);
#591=VERTEX_POINT('',#1777);
#592=VERTEX_POINT('',#1781);
#593=VERTEX_POINT('',#1783);
#594=VERTEX_POINT('',#1787);
#595=VERTEX_POINT('',#1789);
#596=VERTEX_POINT('',#1793);
#597=VERTEX_POINT('',#1795);
#598=VERTEX_POINT('',#1799);
#599=VERTEX_POINT('',#1801);
#600=VERTEX_POINT('',#1805);
#601=VERTEX_POINT('',#1807);
#602=VERTEX_POINT('',#1811);
#603=VERTEX_POINT('',#1813);
#604=VERTEX_POINT('',#1817);
#605=VERTEX_POINT('',#1819);
#606=VERTEX_POINT('',#1823);
#607=VERTEX_POINT('',#1825);
#608=VERTEX_POINT('',#1829);
#609=VERTEX_POINT('',#1831);
#610=VERTEX_POINT('',#1835);
#611=VERTEX_POINT('',#1837);
#612=VERTEX_POINT('',#1841);
#613=VERTEX_POINT('',#1843);
#614=VERTEX_POINT('',#1847);
#615=VERTEX_POINT('',#1849);
#616=VERTEX_POINT('',#1853);
#617=VERTEX_POINT('',#1855);
#618=VERTEX_POINT('',#1859);
#619=VERTEX_POINT('',#1861);
#620=VERTEX_POINT('',#1865);
#621=VERTEX_POINT('',#1867);
#622=VERTEX_POINT('',#1871);
#623=VERTEX_POINT('',#1873);
#624=VERTEX_POINT('',#1877);
#625=VERTEX_POINT('',#1879);
#626=VERTEX_POINT('',#1883);
#627=VERTEX_POINT('',#1885);
#628=VERTEX_POINT('',#1889);
#629=VERTEX_POINT('',#1891);
#630=VERTEX_POINT('',#1895);
#631=VERTEX_POINT('',#1897);
#632=VERTEX_POINT('',#1901);
#633=VERTEX_POINT('',#1903);
#634=VERTEX_POINT('',#1907);
#635=VERTEX_POINT('',#1909);
#636=VERTEX_POINT('',#1913);
#637=VERTEX_POINT('',#1915);
#638=VERTEX_POINT('',#1919);
#639=VERTEX_POINT('',#1921);
#640=VERTEX_POINT('',#1925);
#641=VERTEX_POINT('',#1927);
#642=VERTEX_POINT('',#1931);
#643=VERTEX_POINT('',#1933);
#644=VERTEX_POINT('',#1937);
#645=VERTEX_POINT('',#1939);
#646=VERTEX_POINT('',#1943);
#647=VERTEX_POINT('',#1945);
#648=VERTEX_POINT('',#1949);
#649=VERTEX_POINT('',#1951);
#650=VERTEX_POINT('',#1955);
#651=VERTEX_POINT('',#1957);
#652=VERTEX_POINT('',#1961);
#653=VERTEX_POINT('',#1963);
#654=VERTEX_POINT('',#1967);
#655=VERTEX_POINT('',#1969);
#656=VERTEX_POINT('',#1973);
#657=VERTEX_POINT('',#1975);
#658=VERTEX_POINT('',#1979);
#659=VERTEX_POINT('',#1981);
#660=VERTEX_POINT('',#1985);
#661=VERTEX_POINT('',#1986);
#662=VERTEX_POINT('',#1988);
#663=VERTEX_POINT('',#1990);
#664=VERTEX_POINT('',#1994);
#665=VERTEX_POINT('',#1996);
#666=VERTEX_POINT('',#2000);
#667=VERTEX_POINT('',#2002);
#668=VERTEX_POINT('',#2006);
#669=VERTEX_POINT('',#2008);
#670=VERTEX_POINT('',#2011);
#671=VERTEX_POINT('',#2013);
#672=VERTEX_POINT('',#2019);
#673=VERTEX_POINT('',#2021);
#674=VERTEX_POINT('',#2024);
#675=VERTEX_POINT('',#2026);
#676=VERTEX_POINT('',#2029);
#677=VERTEX_POINT('',#2031);
#678=VERTEX_POINT('',#2034);
#679=VERTEX_POINT('',#2036);
#680=LINE('',#1687,#842);
#681=LINE('',#1690,#843);
#682=LINE('',#1692,#844);
#683=LINE('',#1694,#845);
#684=LINE('',#1696,#846);
#685=LINE('',#1698,#847);
#686=LINE('',#1700,#848);
#687=LINE('',#1702,#849);
#688=LINE('',#1704,#850);
#689=LINE('',#1706,#851);
#690=LINE('',#1708,#852);
#691=LINE('',#1710,#853);
#692=LINE('',#1712,#854);
#693=LINE('',#1714,#855);
#694=LINE('',#1716,#856);
#695=LINE('',#1718,#857);
#696=LINE('',#1720,#858);
#697=LINE('',#1722,#859);
#698=LINE('',#1724,#860);
#699=LINE('',#1726,#861);
#700=LINE('',#1728,#862);
#701=LINE('',#1730,#863);
#702=LINE('',#1732,#864);
#703=LINE('',#1734,#865);
#704=LINE('',#1736,#866);
#705=LINE('',#1738,#867);
#706=LINE('',#1740,#868);
#707=LINE('',#1742,#869);
#708=LINE('',#1744,#870);
#709=LINE('',#1746,#871);
#710=LINE('',#1748,#872);
#711=LINE('',#1750,#873);
#712=LINE('',#1752,#874);
#713=LINE('',#1754,#875);
#714=LINE('',#1756,#876);
#715=LINE('',#1758,#877);
#716=LINE('',#1760,#878);
#717=LINE('',#1762,#879);
#718=LINE('',#1764,#880);
#719=LINE('',#1766,#881);
#720=LINE('',#1768,#882);
#721=LINE('',#1770,#883);
#722=LINE('',#1772,#884);
#723=LINE('',#1774,#885);
#724=LINE('',#1776,#886);
#725=LINE('',#1778,#887);
#726=LINE('',#1780,#888);
#727=LINE('',#1782,#889);
#728=LINE('',#1784,#890);
#729=LINE('',#1786,#891);
#730=LINE('',#1788,#892);
#731=LINE('',#1790,#893);
#732=LINE('',#1792,#894);
#733=LINE('',#1794,#895);
#734=LINE('',#1796,#896);
#735=LINE('',#1798,#897);
#736=LINE('',#1800,#898);
#737=LINE('',#1802,#899);
#738=LINE('',#1804,#900);
#739=LINE('',#1806,#901);
#740=LINE('',#1808,#902);
#741=LINE('',#1810,#903);
#742=LINE('',#1812,#904);
#743=LINE('',#1814,#905);
#744=LINE('',#1816,#906);
#745=LINE('',#1818,#907);
#746=LINE('',#1820,#908);
#747=LINE('',#1822,#909);
#748=LINE('',#1824,#910);
#749=LINE('',#1826,#911);
#750=LINE('',#1828,#912);
#751=LINE('',#1830,#913);
#752=LINE('',#1832,#914);
#753=LINE('',#1834,#915);
#754=LINE('',#1836,#916);
#755=LINE('',#1838,#917);
#756=LINE('',#1840,#918);
#757=LINE('',#1842,#919);
#758=LINE('',#1844,#920);
#759=LINE('',#1846,#921);
#760=LINE('',#1848,#922);
#761=LINE('',#1850,#923);
#762=LINE('',#1852,#924);
#763=LINE('',#1854,#925);
#764=LINE('',#1856,#926);
#765=LINE('',#1858,#927);
#766=LINE('',#1860,#928);
#767=LINE('',#1862,#929);
#768=LINE('',#1864,#930);
#769=LINE('',#1866,#931);
#770=LINE('',#1868,#932);
#771=LINE('',#1870,#933);
#772=LINE('',#1872,#934);
#773=LINE('',#1874,#935);
#774=LINE('',#1876,#936);
#775=LINE('',#1878,#937);
#776=LINE('',#1880,#938);
#777=LINE('',#1882,#939);
#778=LINE('',#1884,#940);
#779=LINE('',#1886,#941);
#780=LINE('',#1888,#942);
#781=LINE('',#1890,#943);
#782=LINE('',#1892,#944);
#783=LINE('',#1894,#945);
#784=LINE('',#1896,#946);
#785=LINE('',#1898,#947);
#786=LINE('',#1900,#948);
#787=LINE('',#1902,#949);
#788=LINE('',#1904,#950);
#789=LINE('',#1906,#951);
#790=LINE('',#1908,#952);
#791=LINE('',#1910,#953);
#792=LINE('',#1912,#954);
#793=LINE('',#1914,#955);
#794=LINE('',#1916,#956);
#795=LINE('',#1918,#957);
#796=LINE('',#1920,#958);
#797=LINE('',#1922,#959);
#798=LINE('',#1924,#960);
#799=LINE('',#1926,#961);
#800=LINE('',#1928,#962);
#801=LINE('',#1930,#963);
#802=LINE('',#1932,#964);
#803=LINE('',#1934,#965);
#804=LINE('',#1936,#966);
#805=LINE('',#1938,#967);
#806=LINE('',#1940,#968);
#807=LINE('',#1942,#969);
#808=LINE('',#1944,#970);
#809=LINE('',#1946,#971);
#810=LINE('',#1948,#972);
#811=LINE('',#1950,#973);
#812=LINE('',#1952,#974);
#813=LINE('',#1954,#975);
#814=LINE('',#1956,#976);
#815=LINE('',#1958,#977);
#816=LINE('',#1960,#978);
#817=LINE('',#1962,#979);
#818=LINE('',#1964,#980);
#819=LINE('',#1966,#981);
#820=LINE('',#1968,#982);
#821=LINE('',#1970,#983);
#822=LINE('',#1972,#984);
#823=LINE('',#1974,#985);
#824=LINE('',#1976,#986);
#825=LINE('',#1978,#987);
#826=LINE('',#1980,#988);
#827=LINE('',#1982,#989);
#828=LINE('',#1984,#990);
#829=LINE('',#1987,#991);
#830=LINE('',#1989,#992);
#831=LINE('',#1991,#993);
#832=LINE('',#1993,#994);
#833=LINE('',#1995,#995);
#834=LINE('',#1997,#996);
#835=LINE('',#1999,#997);
#836=LINE('',#2001,#998);
#837=LINE('',#2003,#999);
#838=LINE('',#2015,#1000);
#839=LINE('',#2016,#1001);
#840=LINE('',#2038,#1002);
#841=LINE('',#2039,#1003);
#842=VECTOR('',#1377,1000.);
#843=VECTOR('',#1378,1000.);
#844=VECTOR('',#1379,1000.);
#845=VECTOR('',#1380,1000.);
#846=VECTOR('',#1383,1000.);
#847=VECTOR('',#1384,1000.);
#848=VECTOR('',#1385,1000.);
#849=VECTOR('',#1388,1000.);
#850=VECTOR('',#1389,1000.);
#851=VECTOR('',#1390,1000.);
#852=VECTOR('',#1393,1000.);
#853=VECTOR('',#1394,1000.);
#854=VECTOR('',#1395,1000.);
#855=VECTOR('',#1398,1000.);
#856=VECTOR('',#1399,1000.);
#857=VECTOR('',#1400,1000.);
#858=VECTOR('',#1403,1000.);
#859=VECTOR('',#1404,1000.);
#860=VECTOR('',#1405,1000.);
#861=VECTOR('',#1408,1000.);
#862=VECTOR('',#1409,1000.);
#863=VECTOR('',#1410,1000.);
#864=VECTOR('',#1413,1000.);
#865=VECTOR('',#1414,1000.);
#866=VECTOR('',#1415,1000.);
#867=VECTOR('',#1418,1000.);
#868=VECTOR('',#1419,1000.);
#869=VECTOR('',#1420,1000.);
#870=VECTOR('',#1423,1000.);
#871=VECTOR('',#1424,1000.);
#872=VECTOR('',#1425,1000.);
#873=VECTOR('',#1428,1000.);
#874=VECTOR('',#1429,1000.);
#875=VECTOR('',#1430,1000.);
#876=VECTOR('',#1433,1000.);
#877=VECTOR('',#1434,1000.);
#878=VECTOR('',#1435,1000.);
#879=VECTOR('',#1438,1000.);
#880=VECTOR('',#1439,1000.);
#881=VECTOR('',#1440,1000.);
#882=VECTOR('',#1443,1000.);
#883=VECTOR('',#1444,1000.);
#884=VECTOR('',#1445,1000.);
#885=VECTOR('',#1448,1000.);
#886=VECTOR('',#1449,1000.);
#887=VECTOR('',#1450,1000.);
#888=VECTOR('',#1453,1000.);
#889=VECTOR('',#1454,1000.);
#890=VECTOR('',#1455,1000.);
#891=VECTOR('',#1458,1000.);
#892=VECTOR('',#1459,1000.);
#893=VECTOR('',#1460,1000.);
#894=VECTOR('',#1463,1000.);
#895=VECTOR('',#1464,1000.);
#896=VECTOR('',#1465,1000.);
#897=VECTOR('',#1468,1000.);
#898=VECTOR('',#1469,1000.);
#899=VECTOR('',#1470,1000.);
#900=VECTOR('',#1473,1000.);
#901=VECTOR('',#1474,1000.);
#902=VECTOR('',#1475,1000.);
#903=VECTOR('',#1478,1000.);
#904=VECTOR('',#1479,1000.);
#905=VECTOR('',#1480,1000.);
#906=VECTOR('',#1483,1000.);
#907=VECTOR('',#1484,1000.);
#908=VECTOR('',#1485,1000.);
#909=VECTOR('',#1488,1000.);
#910=VECTOR('',#1489,1000.);
#911=VECTOR('',#1490,1000.);
#912=VECTOR('',#1493,1000.);
#913=VECTOR('',#1494,1000.);
#914=VECTOR('',#1495,1000.);
#915=VECTOR('',#1498,1000.);
#916=VECTOR('',#1499,1000.);
#917=VECTOR('',#1500,1000.);
#918=VECTOR('',#1503,1000.);
#919=VECTOR('',#1504,1000.);
#920=VECTOR('',#1505,1000.);
#921=VECTOR('',#1508,1000.);
#922=VECTOR('',#1509,1000.);
#923=VECTOR('',#1510,1000.);
#924=VECTOR('',#1513,1000.);
#925=VECTOR('',#1514,1000.);
#926=VECTOR('',#1515,1000.);
#927=VECTOR('',#1518,1000.);
#928=VECTOR('',#1519,1000.);
#929=VECTOR('',#1520,1000.);
#930=VECTOR('',#1523,1000.);
#931=VECTOR('',#1524,1000.);
#932=VECTOR('',#1525,1000.);
#933=VECTOR('',#1528,1000.);
#934=VECTOR('',#1529,1000.);
#935=VECTOR('',#1530,1000.);
#936=VECTOR('',#1533,1000.);
#937=VECTOR('',#1534,1000.);
#938=VECTOR('',#1535,1000.);
#939=VECTOR('',#1538,1000.);
#940=VECTOR('',#1539,1000.);
#941=VECTOR('',#1540,1000.);
#942=VECTOR('',#1543,1000.);
#943=VECTOR('',#1544,1000.);
#944=VECTOR('',#1545,1000.);
#945=VECTOR('',#1548,1000.);
#946=VECTOR('',#1549,1000.);
#947=VECTOR('',#1550,1000.);
#948=VECTOR('',#1553,1000.);
#949=VECTOR('',#1554,1000.);
#950=VECTOR('',#1555,1000.);
#951=VECTOR('',#1558,1000.);
#952=VECTOR('',#1559,1000.);
#953=VECTOR('',#1560,1000.);
#954=VECTOR('',#1563,1000.);
#955=VECTOR('',#1564,1000.);
#956=VECTOR('',#1565,1000.);
#957=VECTOR('',#1568,1000.);
#958=VECTOR('',#1569,1000.);
#959=VECTOR('',#1570,1000.);
#960=VECTOR('',#1573,1000.);
#961=VECTOR('',#1574,1000.);
#962=VECTOR('',#1575,1000.);
#963=VECTOR('',#1578,1000.);
#964=VECTOR('',#1579,1000.);
#965=VECTOR('',#1580,1000.);
#966=VECTOR('',#1583,1000.);
#967=VECTOR('',#1584,1000.);
#968=VECTOR('',#1585,1000.);
#969=VECTOR('',#1588,1000.);
#970=VECTOR('',#1589,1000.);
#971=VECTOR('',#1590,1000.);
#972=VECTOR('',#1593,1000.);
#973=VECTOR('',#1594,1000.);
#974=VECTOR('',#1595,1000.);
#975=VECTOR('',#1598,1000.);
#976=VECTOR('',#1599,1000.);
#977=VECTOR('',#1600,1000.);
#978=VECTOR('',#1603,1000.);
#979=VECTOR('',#1604,1000.);
#980=VECTOR('',#1605,1000.);
#981=VECTOR('',#1608,1000.);
#982=VECTOR('',#1609,1000.);
#983=VECTOR('',#1610,1000.);
#984=VECTOR('',#1613,1000.);
#985=VECTOR('',#1614,1000.);
#986=VECTOR('',#1615,1000.);
#987=VECTOR('',#1618,1000.);
#988=VECTOR('',#1619,1000.);
#989=VECTOR('',#1620,1000.);
#990=VECTOR('',#1623,1000.);
#991=VECTOR('',#1624,1000.);
#992=VECTOR('',#1625,1000.);
#993=VECTOR('',#1626,1000.);
#994=VECTOR('',#1629,1000.);
#995=VECTOR('',#1630,1000.);
#996=VECTOR('',#1631,1000.);
#997=VECTOR('',#1634,1000.);
#998=VECTOR('',#1635,1000.);
#999=VECTOR('',#1636,1000.);
#1000=VECTOR('',#1651,1000.);
#1001=VECTOR('',#1652,1000.);
#1002=VECTOR('',#1679,1000.);
#1003=VECTOR('',#1680,1000.);
#1004=EDGE_LOOP('',(#38,#39,#40,#41));
#1005=EDGE_LOOP('',(#42,#43,#44,#45));
#1006=EDGE_LOOP('',(#46,#47,#48,#49));
#1007=EDGE_LOOP('',(#50,#51,#52,#53));
#1008=EDGE_LOOP('',(#54,#55,#56,#57));
#1009=EDGE_LOOP('',(#58,#59,#60,#61));
#1010=EDGE_LOOP('',(#62,#63,#64,#65));
#1011=EDGE_LOOP('',(#66,#67,#68,#69));
#1012=EDGE_LOOP('',(#70,#71,#72,#73));
#1013=EDGE_LOOP('',(#74,#75,#76,#77));
#1014=EDGE_LOOP('',(#78,#79,#80,#81));
#1015=EDGE_LOOP('',(#82,#83,#84,#85));
#1016=EDGE_LOOP('',(#86,#87,#88,#89));
#1017=EDGE_LOOP('',(#90,#91,#92,#93));
#1018=EDGE_LOOP('',(#94,#95,#96,#97));
#1019=EDGE_LOOP('',(#98,#99,#100,#101));
#1020=EDGE_LOOP('',(#102,#103,#104,#105));
#1021=EDGE_LOOP('',(#106,#107,#108,#109));
#1022=EDGE_LOOP('',(#110,#111,#112,#113));
#1023=EDGE_LOOP('',(#114,#115,#116,#117));
#1024=EDGE_LOOP('',(#118,#119,#120,#121));
#1025=EDGE_LOOP('',(#122,#123,#124,#125));
#1026=EDGE_LOOP('',(#126,#127,#128,#129));
#1027=EDGE_LOOP('',(#130,#131,#132,#133));
#1028=EDGE_LOOP('',(#134,#135,#136,#137));
#1029=EDGE_LOOP('',(#138,#139,#140,#141));
#1030=EDGE_LOOP('',(#142,#143,#144,#145));
#1031=EDGE_LOOP('',(#146,#147,#148,#149));
#1032=EDGE_LOOP('',(#150,#151,#152,#153));
#1033=EDGE_LOOP('',(#154,#155,#156,#157));
#1034=EDGE_LOOP('',(#158,#159,#160,#161));
#1035=EDGE_LOOP('',(#162,#163,#164,#165));
#1036=EDGE_LOOP('',(#166,#167,#168,#169));
#1037=EDGE_LOOP('',(#170,#171,#172,#173));
#1038=EDGE_LOOP('',(#174,#175,#176,#177));
#1039=EDGE_LOOP('',(#178,#179,#180,#181));
#1040=EDGE_LOOP('',(#182,#183,#184,#185));
#1041=EDGE_LOOP('',(#186,#187,#188,#189));
#1042=EDGE_LOOP('',(#190,#191,#192,#193));
#1043=EDGE_LOOP('',(#194,#195,#196,#197));
#1044=EDGE_LOOP('',(#198,#199,#200,#201));
#1045=EDGE_LOOP('',(#202,#203,#204,#205));
#1046=EDGE_LOOP('',(#206,#207,#208,#209));
#1047=EDGE_LOOP('',(#210,#211,#212,#213));
#1048=EDGE_LOOP('',(#214,#215,#216,#217));
#1049=EDGE_LOOP('',(#218,#219,#220,#221));
#1050=EDGE_LOOP('',(#222,#223,#224,#225));
#1051=EDGE_LOOP('',(#226,#227,#228,#229));
#1052=EDGE_LOOP('',(#230,#231,#232,#233));
#1053=EDGE_LOOP('',(#234,#235,#236,#237));
#1054=EDGE_LOOP('',(#238,#239,#240,#241));
#1055=EDGE_LOOP('',(#242,#243,#244,#245));
#1056=EDGE_LOOP('',(#246));
#1057=EDGE_LOOP('',(#247));
#1058=EDGE_LOOP('',(#248));
#1059=EDGE_LOOP('',(#249));
#1060=EDGE_LOOP('',(#250,#251,#252,#253));
#1061=EDGE_LOOP('',(#254));
#1062=EDGE_LOOP('',(#255));
#1063=EDGE_LOOP('',(#256));
#1064=EDGE_LOOP('',(#257));
#1065=EDGE_LOOP('',(#258));
#1066=EDGE_LOOP('',(#259));
#1067=EDGE_LOOP('',(#260));
#1068=EDGE_LOOP('',(#261));
#1069=EDGE_LOOP('',(#262,#263,#264,#265));
#1070=EDGE_LOOP('',(#266));
#1071=EDGE_LOOP('',(#267));
#1072=EDGE_LOOP('',(#268));
#1073=EDGE_LOOP('',(#269));
#1074=EDGE_LOOP('',(#270,#271,#272,#273));
#1075=EDGE_LOOP('',(#274));
#1076=EDGE_LOOP('',(#275));
#1077=EDGE_LOOP('',(#276,#277,#278,#279,#280,#281,#282,#283,#284,#285,#286,
#287,#288,#289,#290,#291,#292,#293,#294,#295,#296,#297,#298,#299,#300,#301,
#302,#303,#304,#305,#306,#307,#308,#309,#310,#311,#312,#313,#314,#315,#316,
#317,#318,#319,#320,#321,#322,#323,#324,#325));
#1078=EDGE_LOOP('',(#326));
#1079=EDGE_LOOP('',(#327));
#1080=EDGE_LOOP('',(#328));
#1081=EDGE_LOOP('',(#329));
#1082=EDGE_LOOP('',(#330,#331,#332,#333));
#1083=EDGE_LOOP('',(#334));
#1084=EDGE_LOOP('',(#335));
#1085=EDGE_LOOP('',(#336,#337,#338,#339,#340,#341,#342,#343,#344,#345,#346,
#347,#348,#349,#350,#351,#352,#353,#354,#355,#356,#357,#358,#359,#360,#361,
#362,#363,#364,#365,#366,#367,#368,#369,#370,#371,#372,#373,#374,#375,#376,
#377,#378,#379,#380,#381,#382,#383,#384,#385));
#1086=FACE_BOUND('',#1004,.T.);
#1087=FACE_BOUND('',#1005,.T.);
#1088=FACE_BOUND('',#1006,.T.);
#1089=FACE_BOUND('',#1007,.T.);
#1090=FACE_BOUND('',#1008,.T.);
#1091=FACE_BOUND('',#1009,.T.);
#1092=FACE_BOUND('',#1010,.T.);
#1093=FACE_BOUND('',#1011,.T.);
#1094=FACE_BOUND('',#1012,.T.);
#1095=FACE_BOUND('',#1013,.T.);
#1096=FACE_BOUND('',#1014,.T.);
#1097=FACE_BOUND('',#1015,.T.);
#1098=FACE_BOUND('',#1016,.T.);
#1099=FACE_BOUND('',#1017,.T.);
#1100=FACE_BOUND('',#1018,.T.);
#1101=FACE_BOUND('',#1019,.T.);
#1102=FACE_BOUND('',#1020,.T.);
#1103=FACE_BOUND('',#1021,.T.);
#1104=FACE_BOUND('',#1022,.T.);
#1105=FACE_BOUND('',#1023,.T.);
#1106=FACE_BOUND('',#1024,.T.);
#1107=FACE_BOUND('',#1025,.T.);
#1108=FACE_BOUND('',#1026,.T.);
#1109=FACE_BOUND('',#1027,.T.);
#1110=FACE_BOUND('',#1028,.T.);
#1111=FACE_BOUND('',#1029,.T.);
#1112=FACE_BOUND('',#1030,.T.);
#1113=FACE_BOUND('',#1031,.T.);
#1114=FACE_BOUND('',#1032,.T.);
#1115=FACE_BOUND('',#1033,.T.);
#1116=FACE_BOUND('',#1034,.T.);
#1117=FACE_BOUND('',#1035,.T.);
#1118=FACE_BOUND('',#1036,.T.);
#1119=FACE_BOUND('',#1037,.T.);
#1120=FACE_BOUND('',#1038,.T.);
#1121=FACE_BOUND('',#1039,.T.);
#1122=FACE_BOUND('',#1040,.T.);
#1123=FACE_BOUND('',#1041,.T.);
#1124=FACE_BOUND('',#1042,.T.);
#1125=FACE_BOUND('',#1043,.T.);
#1126=FACE_BOUND('',#1044,.T.);
#1127=FACE_BOUND('',#1045,.T.);
#1128=FACE_BOUND('',#1046,.T.);
#1129=FACE_BOUND('',#1047,.T.);
#1130=FACE_BOUND('',#1048,.T.);
#1131=FACE_BOUND('',#1049,.T.);
#1132=FACE_BOUND('',#1050,.T.);
#1133=FACE_BOUND('',#1051,.T.);
#1134=FACE_BOUND('',#1052,.T.);
#1135=FACE_BOUND('',#1053,.T.);
#1136=FACE_BOUND('',#1054,.T.);
#1137=FACE_BOUND('',#1055,.T.);
#1138=FACE_BOUND('',#1056,.T.);
#1139=FACE_BOUND('',#1057,.T.);
#1140=FACE_BOUND('',#1058,.T.);
#1141=FACE_BOUND('',#1059,.T.);
#1142=FACE_BOUND('',#1060,.T.);
#1143=FACE_BOUND('',#1061,.T.);
#1144=FACE_BOUND('',#1062,.T.);
#1145=FACE_BOUND('',#1063,.T.);
#1146=FACE_BOUND('',#1064,.T.);
#1147=FACE_BOUND('',#1065,.T.);
#1148=FACE_BOUND('',#1066,.T.);
#1149=FACE_BOUND('',#1067,.T.);
#1150=FACE_BOUND('',#1068,.T.);
#1151=FACE_BOUND('',#1069,.T.);
#1152=FACE_BOUND('',#1070,.T.);
#1153=FACE_BOUND('',#1071,.T.);
#1154=FACE_BOUND('',#1072,.T.);
#1155=FACE_BOUND('',#1073,.T.);
#1156=FACE_BOUND('',#1074,.T.);
#1157=FACE_BOUND('',#1075,.T.);
#1158=FACE_BOUND('',#1076,.T.);
#1159=FACE_BOUND('',#1077,.T.);
#1160=FACE_BOUND('',#1078,.T.);
#1161=FACE_BOUND('',#1079,.T.);
#1162=FACE_BOUND('',#1080,.T.);
#1163=FACE_BOUND('',#1081,.T.);
#1164=FACE_BOUND('',#1082,.T.);
#1165=FACE_BOUND('',#1083,.T.);
#1166=FACE_BOUND('',#1084,.T.);
#1167=FACE_BOUND('',#1085,.T.);
#1168=PLANE('',#1299);
#1169=PLANE('',#1300);
#1170=PLANE('',#1301);
#1171=PLANE('',#1302);
#1172=PLANE('',#1303);
#1173=PLANE('',#1304);
#1174=PLANE('',#1305);
#1175=PLANE('',#1306);
#1176=PLANE('',#1307);
#1177=PLANE('',#1308);
#1178=PLANE('',#1309);
#1179=PLANE('',#1310);
#1180=PLANE('',#1311);
#1181=PLANE('',#1312);
#1182=PLANE('',#1313);
#1183=PLANE('',#1314);
#1184=PLANE('',#1315);
#1185=PLANE('',#1316);
#1186=PLANE('',#1317);
#1187=PLANE('',#1318);
#1188=PLANE('',#1319);
#1189=PLANE('',#1320);
#1190=PLANE('',#1321);
#1191=PLANE('',#1322);
#1192=PLANE('',#1323);
#1193=PLANE('',#1324);
#1194=PLANE('',#1325);
#1195=PLANE('',#1326);
#1196=PLANE('',#1327);
#1197=PLANE('',#1328);
#1198=PLANE('',#1329);
#1199=PLANE('',#1330);
#1200=PLANE('',#1331);
#1201=PLANE('',#1332);
#1202=PLANE('',#1333);
#1203=PLANE('',#1334);
#1204=PLANE('',#1335);
#1205=PLANE('',#1336);
#1206=PLANE('',#1337);
#1207=PLANE('',#1338);
#1208=PLANE('',#1339);
#1209=PLANE('',#1340);
#1210=PLANE('',#1341);
#1211=PLANE('',#1342);
#1212=PLANE('',#1343);
#1213=PLANE('',#1344);
#1214=PLANE('',#1345);
#1215=PLANE('',#1346);
#1216=PLANE('',#1347);
#1217=PLANE('',#1348);
#1218=PLANE('',#1349);
#1219=PLANE('',#1350);
#1220=PLANE('',#1357);
#1221=PLANE('',#1370);
#1222=PLANE('',#1371);
#1223=PLANE('',#1372);
#1224=ADVANCED_FACE('',(#1086),#1168,.F.);
#1225=ADVANCED_FACE('',(#1087),#1169,.F.);
#1226=ADVANCED_FACE('',(#1088),#1170,.F.);
#1227=ADVANCED_FACE('',(#1089),#1171,.F.);
#1228=ADVANCED_FACE('',(#1090),#1172,.F.);
#1229=ADVANCED_FACE('',(#1091),#1173,.F.);
#1230=ADVANCED_FACE('',(#1092),#1174,.F.);
#1231=ADVANCED_FACE('',(#1093),#1175,.F.);
#1232=ADVANCED_FACE('',(#1094),#1176,.F.);
#1233=ADVANCED_FACE('',(#1095),#1177,.F.);
#1234=ADVANCED_FACE('',(#1096),#1178,.F.);
#1235=ADVANCED_FACE('',(#1097),#1179,.F.);
#1236=ADVANCED_FACE('',(#1098),#1180,.F.);
#1237=ADVANCED_FACE('',(#1099),#1181,.F.);
#1238=ADVANCED_FACE('',(#1100),#1182,.F.);
#1239=ADVANCED_FACE('',(#1101),#1183,.F.);
#1240=ADVANCED_FACE('',(#1102),#1184,.F.);
#1241=ADVANCED_FACE('',(#1103),#1185,.F.);
#1242=ADVANCED_FACE('',(#1104),#1186,.F.);
#1243=ADVANCED_FACE('',(#1105),#1187,.F.);
#1244=ADVANCED_FACE('',(#1106),#1188,.F.);
#1245=ADVANCED_FACE('',(#1107),#1189,.F.);
#1246=ADVANCED_FACE('',(#1108),#1190,.F.);
#1247=ADVANCED_FACE('',(#1109),#1191,.F.);
#1248=ADVANCED_FACE('',(#1110),#1192,.F.);
#1249=ADVANCED_FACE('',(#1111),#1193,.F.);
#1250=ADVANCED_FACE('',(#1112),#1194,.F.);
#1251=ADVANCED_FACE('',(#1113),#1195,.F.);
#1252=ADVANCED_FACE('',(#1114),#1196,.F.);
#1253=ADVANCED_FACE('',(#1115),#1197,.F.);
#1254=ADVANCED_FACE('',(#1116),#1198,.F.);
#1255=ADVANCED_FACE('',(#1117),#1199,.F.);
#1256=ADVANCED_FACE('',(#1118),#1200,.F.);
#1257=ADVANCED_FACE('',(#1119),#1201,.F.);
#1258=ADVANCED_FACE('',(#1120),#1202,.F.);
#1259=ADVANCED_FACE('',(#1121),#1203,.F.);
#1260=ADVANCED_FACE('',(#1122),#1204,.F.);
#1261=ADVANCED_FACE('',(#1123),#1205,.F.);
#1262=ADVANCED_FACE('',(#1124),#1206,.F.);
#1263=ADVANCED_FACE('',(#1125),#1207,.F.);
#1264=ADVANCED_FACE('',(#1126),#1208,.F.);
#1265=ADVANCED_FACE('',(#1127),#1209,.F.);
#1266=ADVANCED_FACE('',(#1128),#1210,.F.);
#1267=ADVANCED_FACE('',(#1129),#1211,.F.);
#1268=ADVANCED_FACE('',(#1130),#1212,.F.);
#1269=ADVANCED_FACE('',(#1131),#1213,.F.);
#1270=ADVANCED_FACE('',(#1132),#1214,.F.);
#1271=ADVANCED_FACE('',(#1133),#1215,.F.);
#1272=ADVANCED_FACE('',(#1134),#1216,.F.);
#1273=ADVANCED_FACE('',(#1135),#1217,.T.);
#1274=ADVANCED_FACE('',(#1136),#1218,.T.);
#1275=ADVANCED_FACE('',(#1137),#1219,.T.);
#1276=ADVANCED_FACE('',(#1138,#1139),#32,.F.);
#1277=ADVANCED_FACE('',(#1140,#1141),#33,.F.);
#1278=ADVANCED_FACE('',(#1142),#1220,.T.);
#1279=ADVANCED_FACE('',(#1143,#1144),#34,.F.);
#1280=ADVANCED_FACE('',(#1145,#1146),#35,.F.);
#1281=ADVANCED_FACE('',(#1147,#1148),#36,.F.);
#1282=ADVANCED_FACE('',(#1149,#1150),#37,.F.);
#1283=ADVANCED_FACE('',(#1151),#1221,.F.);
#1284=ADVANCED_FACE('',(#1152,#1153,#1154,#1155,#1156,#1157,#1158,#1159),
#1222,.T.);
#1285=ADVANCED_FACE('',(#1160,#1161,#1162,#1163,#1164,#1165,#1166,#1167),
#1223,.F.);
#1286=CLOSED_SHELL('',(#1224,#1225,#1226,#1227,#1228,#1229,#1230,#1231,
#1232,#1233,#1234,#1235,#1236,#1237,#1238,#1239,#1240,#1241,#1242,#1243,
#1244,#1245,#1246,#1247,#1248,#1249,#1250,#1251,#1252,#1253,#1254,#1255,
#1256,#1257,#1258,#1259,#1260,#1261,#1262,#1263,#1264,#1265,#1266,#1267,
#1268,#1269,#1270,#1271,#1272,#1273,#1274,#1275,#1276,#1277,#1278,#1279,
#1280,#1281,#1282,#1283,#1284,#1285));
#1287=STYLED_ITEM('',(#1288),#1295);
#1288=PRESENTATION_STYLE_ASSIGNMENT((#1289));
#1289=SURFACE_STYLE_USAGE(.BOTH.,#1290);
#1290=SURFACE_SIDE_STYLE('',(#1291));
#1291=SURFACE_STYLE_FILL_AREA(#1292);
#1292=FILL_AREA_STYLE('',(#1293));
#1293=FILL_AREA_STYLE_COLOUR('',#1294);
#1294=COLOUR_RGB('',0.506983280181885,0.531564235687256,0.550000011920929);
#1295=MANIFOLD_SOLID_BREP('',#1286);
#1296=SHAPE_DEFINITION_REPRESENTATION(#2048,#1297);
#1297=SHAPE_REPRESENTATION('P14_forearm_cheek_100',(#1298),#2043);
#1298=AXIS2_PLACEMENT_3D('',#1685,#1373,#1374);
#1299=AXIS2_PLACEMENT_3D('',#1686,#1375,#1376);
#1300=AXIS2_PLACEMENT_3D('',#1695,#1381,#1382);
#1301=AXIS2_PLACEMENT_3D('',#1701,#1386,#1387);
#1302=AXIS2_PLACEMENT_3D('',#1707,#1391,#1392);
#1303=AXIS2_PLACEMENT_3D('',#1713,#1396,#1397);
#1304=AXIS2_PLACEMENT_3D('',#1719,#1401,#1402);
#1305=AXIS2_PLACEMENT_3D('',#1725,#1406,#1407);
#1306=AXIS2_PLACEMENT_3D('',#1731,#1411,#1412);
#1307=AXIS2_PLACEMENT_3D('',#1737,#1416,#1417);
#1308=AXIS2_PLACEMENT_3D('',#1743,#1421,#1422);
#1309=AXIS2_PLACEMENT_3D('',#1749,#1426,#1427);
#1310=AXIS2_PLACEMENT_3D('',#1755,#1431,#1432);
#1311=AXIS2_PLACEMENT_3D('',#1761,#1436,#1437);
#1312=AXIS2_PLACEMENT_3D('',#1767,#1441,#1442);
#1313=AXIS2_PLACEMENT_3D('',#1773,#1446,#1447);
#1314=AXIS2_PLACEMENT_3D('',#1779,#1451,#1452);
#1315=AXIS2_PLACEMENT_3D('',#1785,#1456,#1457);
#1316=AXIS2_PLACEMENT_3D('',#1791,#1461,#1462);
#1317=AXIS2_PLACEMENT_3D('',#1797,#1466,#1467);
#1318=AXIS2_PLACEMENT_3D('',#1803,#1471,#1472);
#1319=AXIS2_PLACEMENT_3D('',#1809,#1476,#1477);
#1320=AXIS2_PLACEMENT_3D('',#1815,#1481,#1482);
#1321=AXIS2_PLACEMENT_3D('',#1821,#1486,#1487);
#1322=AXIS2_PLACEMENT_3D('',#1827,#1491,#1492);
#1323=AXIS2_PLACEMENT_3D('',#1833,#1496,#1497);
#1324=AXIS2_PLACEMENT_3D('',#1839,#1501,#1502);
#1325=AXIS2_PLACEMENT_3D('',#1845,#1506,#1507);
#1326=AXIS2_PLACEMENT_3D('',#1851,#1511,#1512);
#1327=AXIS2_PLACEMENT_3D('',#1857,#1516,#1517);
#1328=AXIS2_PLACEMENT_3D('',#1863,#1521,#1522);
#1329=AXIS2_PLACEMENT_3D('',#1869,#1526,#1527);
#1330=AXIS2_PLACEMENT_3D('',#1875,#1531,#1532);
#1331=AXIS2_PLACEMENT_3D('',#1881,#1536,#1537);
#1332=AXIS2_PLACEMENT_3D('',#1887,#1541,#1542);
#1333=AXIS2_PLACEMENT_3D('',#1893,#1546,#1547);
#1334=AXIS2_PLACEMENT_3D('',#1899,#1551,#1552);
#1335=AXIS2_PLACEMENT_3D('',#1905,#1556,#1557);
#1336=AXIS2_PLACEMENT_3D('',#1911,#1561,#1562);
#1337=AXIS2_PLACEMENT_3D('',#1917,#1566,#1567);
#1338=AXIS2_PLACEMENT_3D('',#1923,#1571,#1572);
#1339=AXIS2_PLACEMENT_3D('',#1929,#1576,#1577);
#1340=AXIS2_PLACEMENT_3D('',#1935,#1581,#1582);
#1341=AXIS2_PLACEMENT_3D('',#1941,#1586,#1587);
#1342=AXIS2_PLACEMENT_3D('',#1947,#1591,#1592);
#1343=AXIS2_PLACEMENT_3D('',#1953,#1596,#1597);
#1344=AXIS2_PLACEMENT_3D('',#1959,#1601,#1602);
#1345=AXIS2_PLACEMENT_3D('',#1965,#1606,#1607);
#1346=AXIS2_PLACEMENT_3D('',#1971,#1611,#1612);
#1347=AXIS2_PLACEMENT_3D('',#1977,#1616,#1617);
#1348=AXIS2_PLACEMENT_3D('',#1983,#1621,#1622);
#1349=AXIS2_PLACEMENT_3D('',#1992,#1627,#1628);
#1350=AXIS2_PLACEMENT_3D('',#1998,#1632,#1633);
#1351=AXIS2_PLACEMENT_3D('',#2004,#1637,#1638);
#1352=AXIS2_PLACEMENT_3D('',#2005,#1639,#1640);
#1353=AXIS2_PLACEMENT_3D('',#2007,#1641,#1642);
#1354=AXIS2_PLACEMENT_3D('',#2009,#1643,#1644);
#1355=AXIS2_PLACEMENT_3D('',#2010,#1645,#1646);
#1356=AXIS2_PLACEMENT_3D('',#2012,#1647,#1648);
#1357=AXIS2_PLACEMENT_3D('',#2014,#1649,#1650);
#1358=AXIS2_PLACEMENT_3D('',#2017,#1653,#1654);
#1359=AXIS2_PLACEMENT_3D('',#2018,#1655,#1656);
#1360=AXIS2_PLACEMENT_3D('',#2020,#1657,#1658);
#1361=AXIS2_PLACEMENT_3D('',#2022,#1659,#1660);
#1362=AXIS2_PLACEMENT_3D('',#2023,#1661,#1662);
#1363=AXIS2_PLACEMENT_3D('',#2025,#1663,#1664);
#1364=AXIS2_PLACEMENT_3D('',#2027,#1665,#1666);
#1365=AXIS2_PLACEMENT_3D('',#2028,#1667,#1668);
#1366=AXIS2_PLACEMENT_3D('',#2030,#1669,#1670);
#1367=AXIS2_PLACEMENT_3D('',#2032,#1671,#1672);
#1368=AXIS2_PLACEMENT_3D('',#2033,#1673,#1674);
#1369=AXIS2_PLACEMENT_3D('',#2035,#1675,#1676);
#1370=AXIS2_PLACEMENT_3D('',#2037,#1677,#1678);
#1371=AXIS2_PLACEMENT_3D('',#2040,#1681,#1682);
#1372=AXIS2_PLACEMENT_3D('',#2041,#1683,#1684);
#1373=DIRECTION('',(0.,0.,1.));
#1374=DIRECTION('',(1.,0.,0.));
#1375=DIRECTION('',(0.,1.,0.));
#1376=DIRECTION('',(0.,0.,1.));
#1377=DIRECTION('',(1.,0.,0.));
#1378=DIRECTION('',(0.,0.,-1.));
#1379=DIRECTION('',(1.,0.,0.));
#1380=DIRECTION('',(0.,0.,-1.));
#1381=DIRECTION('',(-0.0654031292301438,0.997858923238603,0.));
#1382=DIRECTION('',(-0.997858923238603,-0.0654031292301438,0.));
#1383=DIRECTION('',(0.997858923238603,0.0654031292301438,0.));
#1384=DIRECTION('',(0.,0.,-1.));
#1385=DIRECTION('',(0.997858923238603,0.0654031292301438,0.));
#1386=DIRECTION('',(-0.195090322016128,0.98078528040323,0.));
#1387=DIRECTION('',(-0.980785280403231,-0.195090322016128,0.));
#1388=DIRECTION('',(0.980785280403231,0.195090322016128,0.));
#1389=DIRECTION('',(0.,0.,-1.));
#1390=DIRECTION('',(0.980785280403231,0.195090322016128,0.));
#1391=DIRECTION('',(-0.321439465303161,0.946930129495106,0.));
#1392=DIRECTION('',(-0.946930129495106,-0.321439465303161,0.));
#1393=DIRECTION('',(0.946930129495106,0.321439465303161,0.));
#1394=DIRECTION('',(0.,0.,-1.));
#1395=DIRECTION('',(0.946930129495106,0.321439465303161,0.));
#1396=DIRECTION('',(-0.442288690219001,0.896872741532689,0.));
#1397=DIRECTION('',(-0.896872741532689,-0.442288690219001,0.));
#1398=DIRECTION('',(0.896872741532689,0.442288690219001,0.));
#1399=DIRECTION('',(0.,0.,-1.));
#1400=DIRECTION('',(0.896872741532689,0.442288690219001,0.));
#1401=DIRECTION('',(-0.555570233019603,0.831469612302545,0.));
#1402=DIRECTION('',(-0.831469612302545,-0.555570233019603,0.));
#1403=DIRECTION('',(0.831469612302545,0.555570233019603,0.));
#1404=DIRECTION('',(0.,0.,-1.));
#1405=DIRECTION('',(0.831469612302545,0.555570233019603,0.));
#1406=DIRECTION('',(-0.659345815100069,0.751839807478978,0.));
#1407=DIRECTION('',(-0.751839807478978,-0.659345815100069,0.));
#1408=DIRECTION('',(0.751839807478978,0.659345815100069,0.));
#1409=DIRECTION('',(0.,0.,-1.));
#1410=DIRECTION('',(0.751839807478978,0.659345815100069,0.));
#1411=DIRECTION('',(-0.751839807478977,0.659345815100069,0.));
#1412=DIRECTION('',(-0.659345815100069,-0.751839807478977,0.));
#1413=DIRECTION('',(0.659345815100069,0.751839807478977,0.));
#1414=DIRECTION('',(0.,0.,-1.));
#1415=DIRECTION('',(0.659345815100069,0.751839807478977,0.));
#1416=DIRECTION('',(-0.831469612302545,0.555570233019603,0.));
#1417=DIRECTION('',(-0.555570233019603,-0.831469612302545,0.));
#1418=DIRECTION('',(0.555570233019603,0.831469612302545,0.));
#1419=DIRECTION('',(0.,0.,-1.));
#1420=DIRECTION('',(0.555570233019603,0.831469612302545,0.));
#1421=DIRECTION('',(-0.89687274153269,0.442288690218998,0.));
#1422=DIRECTION('',(-0.442288690218998,-0.89687274153269,0.));
#1423=DIRECTION('',(0.442288690218998,0.89687274153269,0.));
#1424=DIRECTION('',(0.,0.,-1.));
#1425=DIRECTION('',(0.442288690218998,0.89687274153269,0.));
#1426=DIRECTION('',(-0.946930129495106,0.321439465303162,0.));
#1427=DIRECTION('',(-0.321439465303162,-0.946930129495106,0.));
#1428=DIRECTION('',(0.321439465303162,0.946930129495106,0.));
#1429=DIRECTION('',(0.,0.,-1.));
#1430=DIRECTION('',(0.321439465303162,0.946930129495106,0.));
#1431=DIRECTION('',(-0.98078528040323,0.19509032201613,0.));
#1432=DIRECTION('',(-0.19509032201613,-0.98078528040323,0.));
#1433=DIRECTION('',(0.19509032201613,0.98078528040323,0.));
#1434=DIRECTION('',(0.,0.,-1.));
#1435=DIRECTION('',(0.19509032201613,0.98078528040323,0.));
#1436=DIRECTION('',(-0.997858923238603,0.0654031292301422,0.));
#1437=DIRECTION('',(-0.0654031292301422,-0.997858923238604,0.));
#1438=DIRECTION('',(0.0654031292301422,0.997858923238604,0.));
#1439=DIRECTION('',(0.,0.,-1.));
#1440=DIRECTION('',(0.0654031292301422,0.997858923238604,0.));
#1441=DIRECTION('',(-0.997858923238603,-0.0654031292301422,0.));
#1442=DIRECTION('',(0.0654031292301422,-0.997858923238604,0.));
#1443=DIRECTION('',(-0.0654031292301422,0.997858923238604,0.));
#1444=DIRECTION('',(0.,0.,-1.));
#1445=DIRECTION('',(-0.0654031292301422,0.997858923238604,0.));
#1446=DIRECTION('',(-0.98078528040323,-0.19509032201613,0.));
#1447=DIRECTION('',(0.19509032201613,-0.98078528040323,0.));
#1448=DIRECTION('',(-0.19509032201613,0.98078528040323,0.));
#1449=DIRECTION('',(0.,0.,-1.));
#1450=DIRECTION('',(-0.19509032201613,0.98078528040323,0.));
#1451=DIRECTION('',(-0.946930129495105,-0.321439465303162,0.));
#1452=DIRECTION('',(0.321439465303162,-0.946930129495105,0.));
#1453=DIRECTION('',(-0.321439465303162,0.946930129495105,0.));
#1454=DIRECTION('',(0.,0.,-1.));
#1455=DIRECTION('',(-0.321439465303162,0.946930129495105,0.));
#1456=DIRECTION('',(-0.896872741532692,-0.442288690218994,0.));
#1457=DIRECTION('',(0.442288690218994,-0.896872741532692,0.));
#1458=DIRECTION('',(-0.442288690218994,0.896872741532692,0.));
#1459=DIRECTION('',(0.,0.,-1.));
#1460=DIRECTION('',(-0.442288690218994,0.896872741532692,0.));
#1461=DIRECTION('',(-0.831469612302543,-0.555570233019606,0.));
#1462=DIRECTION('',(0.555570233019606,-0.831469612302543,0.));
#1463=DIRECTION('',(-0.555570233019606,0.831469612302543,0.));
#1464=DIRECTION('',(0.,0.,-1.));
#1465=DIRECTION('',(-0.555570233019606,0.831469612302543,0.));
#1466=DIRECTION('',(-0.751839807478977,-0.659345815100069,0.));
#1467=DIRECTION('',(0.659345815100069,-0.751839807478977,0.));
#1468=DIRECTION('',(-0.659345815100069,0.751839807478977,0.));
#1469=DIRECTION('',(0.,0.,-1.));
#1470=DIRECTION('',(-0.659345815100069,0.751839807478977,0.));
#1471=DIRECTION('',(-0.659345815100068,-0.751839807478978,0.));
#1472=DIRECTION('',(0.751839807478978,-0.659345815100068,0.));
#1473=DIRECTION('',(-0.751839807478978,0.659345815100068,0.));
#1474=DIRECTION('',(0.,0.,-1.));
#1475=DIRECTION('',(-0.751839807478978,0.659345815100068,0.));
#1476=DIRECTION('',(-0.555570233019604,-0.831469612302544,0.));
#1477=DIRECTION('',(0.831469612302544,-0.555570233019604,0.));
#1478=DIRECTION('',(-0.831469612302544,0.555570233019604,0.));
#1479=DIRECTION('',(0.,0.,-1.));
#1480=DIRECTION('',(-0.831469612302544,0.555570233019604,0.));
#1481=DIRECTION('',(-0.442288690219001,-0.896872741532689,0.));
#1482=DIRECTION('',(0.896872741532689,-0.442288690219001,0.));
#1483=DIRECTION('',(-0.896872741532689,0.442288690219001,0.));
#1484=DIRECTION('',(0.,0.,-1.));
#1485=DIRECTION('',(-0.896872741532689,0.442288690219001,0.));
#1486=DIRECTION('',(-0.321439465303161,-0.946930129495106,0.));
#1487=DIRECTION('',(0.946930129495106,-0.321439465303161,0.));
#1488=DIRECTION('',(-0.946930129495106,0.321439465303161,0.));
#1489=DIRECTION('',(0.,0.,-1.));
#1490=DIRECTION('',(-0.946930129495106,0.321439465303161,0.));
#1491=DIRECTION('',(-0.195090322016128,-0.98078528040323,0.));
#1492=DIRECTION('',(0.980785280403231,-0.195090322016128,0.));
#1493=DIRECTION('',(-0.980785280403231,0.195090322016128,0.));
#1494=DIRECTION('',(0.,0.,-1.));
#1495=DIRECTION('',(-0.980785280403231,0.195090322016128,0.));
#1496=DIRECTION('',(-0.0654031292301438,-0.997858923238603,0.));
#1497=DIRECTION('',(0.997858923238603,-0.0654031292301438,0.));
#1498=DIRECTION('',(-0.997858923238603,0.0654031292301438,0.));
#1499=DIRECTION('',(0.,0.,-1.));
#1500=DIRECTION('',(-0.997858923238603,0.0654031292301438,0.));
#1501=DIRECTION('',(0.,-1.,0.));
#1502=DIRECTION('',(0.,0.,-1.));
#1503=DIRECTION('',(-1.,0.,0.));
#1504=DIRECTION('',(0.,0.,-1.));
#1505=DIRECTION('',(-1.,0.,0.));
#1506=DIRECTION('',(0.0654031292301436,-0.997858923238603,0.));
#1507=DIRECTION('',(0.997858923238603,0.0654031292301436,0.));
#1508=DIRECTION('',(-0.997858923238603,-0.0654031292301436,0.));
#1509=DIRECTION('',(0.,0.,-1.));
#1510=DIRECTION('',(-0.997858923238603,-0.0654031292301436,0.));
#1511=DIRECTION('',(0.195090322016128,-0.98078528040323,0.));
#1512=DIRECTION('',(0.98078528040323,0.195090322016128,0.));
#1513=DIRECTION('',(-0.98078528040323,-0.195090322016128,0.));
#1514=DIRECTION('',(0.,0.,-1.));
#1515=DIRECTION('',(-0.98078528040323,-0.195090322016128,0.));
#1516=DIRECTION('',(0.321439465303161,-0.946930129495106,0.));
#1517=DIRECTION('',(0.946930129495106,0.321439465303161,0.));
#1518=DIRECTION('',(-0.946930129495106,-0.321439465303161,0.));
#1519=DIRECTION('',(0.,0.,-1.));
#1520=DIRECTION('',(-0.946930129495106,-0.321439465303161,0.));
#1521=DIRECTION('',(0.442288690219001,-0.896872741532688,0.));
#1522=DIRECTION('',(0.896872741532688,0.442288690219001,0.));
#1523=DIRECTION('',(-0.896872741532688,-0.442288690219001,0.));
#1524=DIRECTION('',(0.,0.,-1.));
#1525=DIRECTION('',(-0.896872741532688,-0.442288690219001,0.));
#1526=DIRECTION('',(0.555570233019603,-0.831469612302545,0.));
#1527=DIRECTION('',(0.831469612302545,0.555570233019603,0.));
#1528=DIRECTION('',(-0.831469612302545,-0.555570233019603,0.));
#1529=DIRECTION('',(0.,0.,-1.));
#1530=DIRECTION('',(-0.831469612302545,-0.555570233019603,0.));
#1531=DIRECTION('',(0.659345815100069,-0.751839807478977,0.));
#1532=DIRECTION('',(0.751839807478977,0.659345815100069,0.));
#1533=DIRECTION('',(-0.751839807478977,-0.659345815100069,0.));
#1534=DIRECTION('',(0.,0.,-1.));
#1535=DIRECTION('',(-0.751839807478977,-0.659345815100069,0.));
#1536=DIRECTION('',(0.751839807478977,-0.65934581510007,0.));
#1537=DIRECTION('',(0.65934581510007,0.751839807478977,0.));
#1538=DIRECTION('',(-0.659345815100069,-0.751839807478977,0.));
#1539=DIRECTION('',(0.,0.,-1.));
#1540=DIRECTION('',(-0.659345815100069,-0.751839807478977,0.));
#1541=DIRECTION('',(0.831469612302545,-0.555570233019602,0.));
#1542=DIRECTION('',(0.555570233019602,0.831469612302545,0.));
#1543=DIRECTION('',(-0.555570233019602,-0.831469612302545,0.));
#1544=DIRECTION('',(0.,0.,-1.));
#1545=DIRECTION('',(-0.555570233019602,-0.831469612302545,0.));
#1546=DIRECTION('',(0.896872741532688,-0.442288690219002,0.));
#1547=DIRECTION('',(0.442288690219002,0.896872741532688,0.));
#1548=DIRECTION('',(-0.442288690219002,-0.896872741532688,0.));
#1549=DIRECTION('',(0.,0.,-1.));
#1550=DIRECTION('',(-0.442288690219002,-0.896872741532688,0.));
#1551=DIRECTION('',(0.946930129495106,-0.32143946530316,0.));
#1552=DIRECTION('',(0.32143946530316,0.946930129495106,0.));
#1553=DIRECTION('',(-0.32143946530316,-0.946930129495106,0.));
#1554=DIRECTION('',(0.,0.,-1.));
#1555=DIRECTION('',(-0.32143946530316,-0.946930129495106,0.));
#1556=DIRECTION('',(0.98078528040323,-0.195090322016128,0.));
#1557=DIRECTION('',(0.195090322016128,0.98078528040323,0.));
#1558=DIRECTION('',(-0.195090322016128,-0.98078528040323,0.));
#1559=DIRECTION('',(0.,0.,-1.));
#1560=DIRECTION('',(-0.195090322016128,-0.98078528040323,0.));
#1561=DIRECTION('',(0.997858923238603,-0.0654031292301437,0.));
#1562=DIRECTION('',(0.0654031292301437,0.997858923238603,0.));
#1563=DIRECTION('',(-0.0654031292301437,-0.997858923238603,0.));
#1564=DIRECTION('',(0.,0.,-1.));
#1565=DIRECTION('',(-0.0654031292301437,-0.997858923238603,0.));
#1566=DIRECTION('',(0.997858923238603,0.0654031292301423,0.));
#1567=DIRECTION('',(-0.0654031292301423,0.997858923238604,0.));
#1568=DIRECTION('',(0.0654031292301423,-0.997858923238604,0.));
#1569=DIRECTION('',(0.,0.,-1.));
#1570=DIRECTION('',(0.0654031292301423,-0.997858923238604,0.));
#1571=DIRECTION('',(0.98078528040323,0.195090322016128,0.));
#1572=DIRECTION('',(-0.195090322016128,0.98078528040323,0.));
#1573=DIRECTION('',(0.195090322016128,-0.98078528040323,0.));
#1574=DIRECTION('',(0.,0.,-1.));
#1575=DIRECTION('',(0.195090322016128,-0.98078528040323,0.));
#1576=DIRECTION('',(0.946930129495106,0.321439465303161,0.));
#1577=DIRECTION('',(-0.321439465303161,0.946930129495106,0.));
#1578=DIRECTION('',(0.321439465303161,-0.946930129495106,0.));
#1579=DIRECTION('',(0.,0.,-1.));
#1580=DIRECTION('',(0.321439465303161,-0.946930129495106,0.));
#1581=DIRECTION('',(0.896872741532688,0.442288690219001,0.));
#1582=DIRECTION('',(-0.442288690219001,0.896872741532688,0.));
#1583=DIRECTION('',(0.442288690219001,-0.896872741532688,0.));
#1584=DIRECTION('',(0.,0.,-1.));
#1585=DIRECTION('',(0.442288690219001,-0.896872741532688,0.));
#1586=DIRECTION('',(0.831469612302545,0.555570233019602,0.));
#1587=DIRECTION('',(-0.555570233019602,0.831469612302545,0.));
#1588=DIRECTION('',(0.555570233019602,-0.831469612302545,0.));
#1589=DIRECTION('',(0.,0.,-1.));
#1590=DIRECTION('',(0.555570233019602,-0.831469612302545,0.));
#1591=DIRECTION('',(0.751839807478978,0.659345815100068,0.));
#1592=DIRECTION('',(-0.659345815100068,0.751839807478978,0.));
#1593=DIRECTION('',(0.659345815100068,-0.751839807478978,0.));
#1594=DIRECTION('',(0.,0.,-1.));
#1595=DIRECTION('',(0.659345815100068,-0.751839807478978,0.));
#1596=DIRECTION('',(0.659345815100068,0.751839807478978,0.));
#1597=DIRECTION('',(-0.751839807478978,0.659345815100068,0.));
#1598=DIRECTION('',(0.751839807478978,-0.659345815100068,0.));
#1599=DIRECTION('',(0.,0.,-1.));
#1600=DIRECTION('',(0.751839807478978,-0.659345815100068,0.));
#1601=DIRECTION('',(0.555570233019602,0.831469612302545,0.));
#1602=DIRECTION('',(-0.831469612302545,0.555570233019602,0.));
#1603=DIRECTION('',(0.831469612302545,-0.555570233019602,0.));
#1604=DIRECTION('',(0.,0.,-1.));
#1605=DIRECTION('',(0.831469612302545,-0.555570233019602,0.));
#1606=DIRECTION('',(0.442288690219001,0.896872741532688,0.));
#1607=DIRECTION('',(-0.896872741532688,0.442288690219001,0.));
#1608=DIRECTION('',(0.896872741532688,-0.442288690219001,0.));
#1609=DIRECTION('',(0.,0.,-1.));
#1610=DIRECTION('',(0.896872741532688,-0.442288690219001,0.));
#1611=DIRECTION('',(0.321439465303162,0.946930129495106,0.));
#1612=DIRECTION('',(-0.946930129495106,0.321439465303162,0.));
#1613=DIRECTION('',(0.946930129495106,-0.321439465303162,0.));
#1614=DIRECTION('',(0.,0.,-1.));
#1615=DIRECTION('',(0.946930129495106,-0.321439465303162,0.));
#1616=DIRECTION('',(0.195090322016128,0.98078528040323,0.));
#1617=DIRECTION('',(-0.98078528040323,0.195090322016128,0.));
#1618=DIRECTION('',(0.98078528040323,-0.195090322016128,0.));
#1619=DIRECTION('',(0.,0.,-1.));
#1620=DIRECTION('',(0.98078528040323,-0.195090322016128,0.));
#1621=DIRECTION('',(1.,0.,0.));
#1622=DIRECTION('',(0.,0.,-1.));
#1623=DIRECTION('',(0.,-1.,0.));
#1624=DIRECTION('',(0.,0.,-1.));
#1625=DIRECTION('',(0.,-1.,0.));
#1626=DIRECTION('',(0.,0.,-1.));
#1627=DIRECTION('',(0.,-1.,0.));
#1628=DIRECTION('',(0.,0.,-1.));
#1629=DIRECTION('',(-1.,0.,0.));
#1630=DIRECTION('',(0.,0.,-1.));
#1631=DIRECTION('',(-1.,0.,0.));
#1632=DIRECTION('',(-1.,0.,0.));
#1633=DIRECTION('',(0.,0.,1.));
#1634=DIRECTION('',(0.,1.,0.));
#1635=DIRECTION('',(0.,0.,-1.));
#1636=DIRECTION('',(0.,1.,0.));
#1637=DIRECTION('',(0.,0.,-1.));
#1638=DIRECTION('',(-1.,0.,0.));
#1639=DIRECTION('',(0.,0.,1.));
#1640=DIRECTION('',(1.,0.,0.));
#1641=DIRECTION('',(0.,0.,1.));
#1642=DIRECTION('',(1.,0.,0.));
#1643=DIRECTION('',(0.,0.,-1.));
#1644=DIRECTION('',(-1.,0.,0.));
#1645=DIRECTION('',(0.,0.,1.));
#1646=DIRECTION('',(1.,0.,0.));
#1647=DIRECTION('',(0.,0.,1.));
#1648=DIRECTION('',(1.,0.,0.));
#1649=DIRECTION('',(0.,1.,0.));
#1650=DIRECTION('',(0.,0.,1.));
#1651=DIRECTION('',(1.,0.,0.));
#1652=DIRECTION('',(1.,0.,0.));
#1653=DIRECTION('',(0.,0.,-1.));
#1654=DIRECTION('',(-1.,0.,0.));
#1655=DIRECTION('',(0.,0.,1.));
#1656=DIRECTION('',(1.,0.,0.));
#1657=DIRECTION('',(0.,0.,1.));
#1658=DIRECTION('',(1.,0.,0.));
#1659=DIRECTION('',(0.,0.,-1.));
#1660=DIRECTION('',(-1.,0.,0.));
#1661=DIRECTION('',(0.,0.,1.));
#1662=DIRECTION('',(1.,0.,0.));
#1663=DIRECTION('',(0.,0.,1.));
#1664=DIRECTION('',(1.,0.,0.));
#1665=DIRECTION('',(0.,0.,-1.));
#1666=DIRECTION('',(-1.,0.,0.));
#1667=DIRECTION('',(0.,0.,1.));
#1668=DIRECTION('',(1.,0.,0.));
#1669=DIRECTION('',(0.,0.,1.));
#1670=DIRECTION('',(1.,0.,0.));
#1671=DIRECTION('',(0.,0.,-1.));
#1672=DIRECTION('',(-1.,0.,0.));
#1673=DIRECTION('',(0.,0.,1.));
#1674=DIRECTION('',(1.,0.,0.));
#1675=DIRECTION('',(0.,0.,1.));
#1676=DIRECTION('',(1.,0.,0.));
#1677=DIRECTION('',(0.0654031292301446,0.997858923238603,0.));
#1678=DIRECTION('',(-0.997858923238603,0.0654031292301446,0.));
#1679=DIRECTION('',(0.997858923238603,-0.0654031292301446,0.));
#1680=DIRECTION('',(0.997858923238603,-0.0654031292301446,0.));
#1681=DIRECTION('',(0.,0.,1.));
#1682=DIRECTION('',(1.,0.,0.));
#1683=DIRECTION('',(0.,0.,1.));
#1684=DIRECTION('',(1.,0.,0.));
#1685=CARTESIAN_POINT('',(0.,0.,0.));
#1686=CARTESIAN_POINT('',(-3.49024337756996E-15,-19.,4.));
#1687=CARTESIAN_POINT('',(-3.49024337756996E-15,-19.,0.));
#1688=CARTESIAN_POINT('',(-3.46944695195361E-15,-19.,0.));
#1689=CARTESIAN_POINT('',(100.,-19.,0.));
#1690=CARTESIAN_POINT('',(100.,-19.,4.));
#1691=CARTESIAN_POINT('',(100.,-19.,4.));
#1692=CARTESIAN_POINT('',(-3.49024337756996E-15,-19.,4.));
#1693=CARTESIAN_POINT('',(-3.46944695195361E-15,-19.,4.));
#1694=CARTESIAN_POINT('',(-3.46944695195361E-15,-19.,4.));
#1695=CARTESIAN_POINT('',(100.,-19.,4.));
#1696=CARTESIAN_POINT('',(100.,-19.,0.));
#1697=CARTESIAN_POINT('',(102.479997652181,-18.8374523661024,0.));
#1698=CARTESIAN_POINT('',(102.479997652181,-18.8374523661024,4.));
#1699=CARTESIAN_POINT('',(102.479997652181,-18.8374523661024,4.));
#1700=CARTESIAN_POINT('',(100.,-19.,4.));
#1701=CARTESIAN_POINT('',(102.479997652181,-18.8374523661024,4.));
#1702=CARTESIAN_POINT('',(102.479997652181,-18.8374523661024,0.));
#1703=CARTESIAN_POINT('',(104.917561856948,-18.3525906994923,0.));
#1704=CARTESIAN_POINT('',(104.917561856948,-18.3525906994923,4.));
#1705=CARTESIAN_POINT('',(104.917561856948,-18.3525906994923,4.));
#1706=CARTESIAN_POINT('',(102.479997652181,-18.8374523661024,4.));
#1707=CARTESIAN_POINT('',(104.917561856948,-18.3525906994923,4.));
#1708=CARTESIAN_POINT('',(104.917561856948,-18.3525906994923,0.));
#1709=CARTESIAN_POINT('',(107.270985214937,-17.5537111177144,0.));
#1710=CARTESIAN_POINT('',(107.270985214937,-17.5537111177144,4.));
#1711=CARTESIAN_POINT('',(107.270985214937,-17.5537111177144,4.));
#1712=CARTESIAN_POINT('',(104.917561856948,-18.3525906994923,4.));
#1713=CARTESIAN_POINT('',(107.270985214937,-17.5537111177144,4.));
#1714=CARTESIAN_POINT('',(107.270985214937,-17.5537111177144,0.));
#1715=CARTESIAN_POINT('',(109.5,-16.4544826719043,0.));
#1716=CARTESIAN_POINT('',(109.5,-16.4544826719043,4.));
#1717=CARTESIAN_POINT('',(109.5,-16.4544826719043,4.));
#1718=CARTESIAN_POINT('',(107.270985214937,-17.5537111177144,4.));
#1719=CARTESIAN_POINT('',(109.5,-16.4544826719043,4.));
#1720=CARTESIAN_POINT('',(109.5,-16.4544826719043,0.));
#1721=CARTESIAN_POINT('',(111.566467151166,-15.0737134655335,0.));
#1722=CARTESIAN_POINT('',(111.566467151166,-15.0737134655335,4.));
#1723=CARTESIAN_POINT('',(111.566467151166,-15.0737134655335,4.));
#1724=CARTESIAN_POINT('',(109.5,-16.4544826719043,4.));
#1725=CARTESIAN_POINT('',(111.566467151166,-15.0737134655335,4.));
#1726=CARTESIAN_POINT('',(111.566467151166,-15.0737134655335,0.));
#1727=CARTESIAN_POINT('',(113.435028842544,-13.4350288425444,0.));
#1728=CARTESIAN_POINT('',(113.435028842544,-13.4350288425444,4.));
#1729=CARTESIAN_POINT('',(113.435028842544,-13.4350288425444,4.));
#1730=CARTESIAN_POINT('',(111.566467151166,-15.0737134655335,4.));
#1731=CARTESIAN_POINT('',(113.435028842544,-13.4350288425444,4.));
#1732=CARTESIAN_POINT('',(113.435028842544,-13.4350288425444,0.));
#1733=CARTESIAN_POINT('',(115.073713465533,-11.5664671511657,0.));
#1734=CARTESIAN_POINT('',(115.073713465533,-11.5664671511657,4.));
#1735=CARTESIAN_POINT('',(115.073713465533,-11.5664671511657,4.));
#1736=CARTESIAN_POINT('',(113.435028842544,-13.4350288425444,4.));
#1737=CARTESIAN_POINT('',(115.073713465533,-11.5664671511657,4.));
#1738=CARTESIAN_POINT('',(115.073713465533,-11.5664671511657,0.));
#1739=CARTESIAN_POINT('',(116.454482671904,-9.5,0.));
#1740=CARTESIAN_POINT('',(116.454482671904,-9.5,4.));
#1741=CARTESIAN_POINT('',(116.454482671904,-9.5,4.));
#1742=CARTESIAN_POINT('',(115.073713465533,-11.5664671511657,4.));
#1743=CARTESIAN_POINT('',(116.454482671904,-9.5,4.));
#1744=CARTESIAN_POINT('',(116.454482671904,-9.5,0.));
#1745=CARTESIAN_POINT('',(117.553711117714,-7.27098521493671,0.));
#1746=CARTESIAN_POINT('',(117.553711117714,-7.27098521493671,4.));
#1747=CARTESIAN_POINT('',(117.553711117714,-7.27098521493671,4.));
#1748=CARTESIAN_POINT('',(116.454482671904,-9.5,4.));
#1749=CARTESIAN_POINT('',(117.553711117714,-7.27098521493671,4.));
#1750=CARTESIAN_POINT('',(117.553711117714,-7.27098521493671,0.));
#1751=CARTESIAN_POINT('',(118.352590699492,-4.91756185694789,0.));
#1752=CARTESIAN_POINT('',(118.352590699492,-4.91756185694789,4.));
#1753=CARTESIAN_POINT('',(118.352590699492,-4.91756185694789,4.));
#1754=CARTESIAN_POINT('',(117.553711117714,-7.27098521493671,4.));
#1755=CARTESIAN_POINT('',(118.352590699492,-4.91756185694789,4.));
#1756=CARTESIAN_POINT('',(118.352590699492,-4.91756185694789,0.));
#1757=CARTESIAN_POINT('',(118.837452366102,-2.47999765218098,0.));
#1758=CARTESIAN_POINT('',(118.837452366102,-2.47999765218098,4.));
#1759=CARTESIAN_POINT('',(118.837452366102,-2.47999765218098,4.));
#1760=CARTESIAN_POINT('',(118.352590699492,-4.91756185694789,4.));
#1761=CARTESIAN_POINT('',(118.837452366102,-2.47999765218098,4.));
#1762=CARTESIAN_POINT('',(118.837452366102,-2.47999765218098,0.));
#1763=CARTESIAN_POINT('',(119.,0.,0.));
#1764=CARTESIAN_POINT('',(119.,0.,4.));
#1765=CARTESIAN_POINT('',(119.,0.,4.));
#1766=CARTESIAN_POINT('',(118.837452366102,-2.47999765218098,4.));
#1767=CARTESIAN_POINT('',(119.,0.,4.));
#1768=CARTESIAN_POINT('',(119.,0.,0.));
#1769=CARTESIAN_POINT('',(118.837452366102,2.47999765218098,0.));
#1770=CARTESIAN_POINT('',(118.837452366102,2.47999765218098,4.));
#1771=CARTESIAN_POINT('',(118.837452366102,2.47999765218098,4.));
#1772=CARTESIAN_POINT('',(119.,0.,4.));
#1773=CARTESIAN_POINT('',(118.837452366102,2.47999765218098,4.));
#1774=CARTESIAN_POINT('',(118.837452366102,2.47999765218098,0.));
#1775=CARTESIAN_POINT('',(118.352590699492,4.91756185694789,0.));
#1776=CARTESIAN_POINT('',(118.352590699492,4.91756185694789,4.));
#1777=CARTESIAN_POINT('',(118.352590699492,4.91756185694789,4.));
#1778=CARTESIAN_POINT('',(118.837452366102,2.47999765218098,4.));
#1779=CARTESIAN_POINT('',(118.352590699492,4.91756185694789,4.));
#1780=CARTESIAN_POINT('',(118.352590699492,4.91756185694789,0.));
#1781=CARTESIAN_POINT('',(117.553711117714,7.2709852149367,0.));
#1782=CARTESIAN_POINT('',(117.553711117714,7.2709852149367,4.));
#1783=CARTESIAN_POINT('',(117.553711117714,7.2709852149367,4.));
#1784=CARTESIAN_POINT('',(118.352590699492,4.91756185694789,4.));
#1785=CARTESIAN_POINT('',(117.553711117714,7.2709852149367,4.));
#1786=CARTESIAN_POINT('',(117.553711117714,7.2709852149367,0.));
#1787=CARTESIAN_POINT('',(116.454482671904,9.5,0.));
#1788=CARTESIAN_POINT('',(116.454482671904,9.5,4.));
#1789=CARTESIAN_POINT('',(116.454482671904,9.5,4.));
#1790=CARTESIAN_POINT('',(117.553711117714,7.2709852149367,4.));
#1791=CARTESIAN_POINT('',(116.454482671904,9.5,4.));
#1792=CARTESIAN_POINT('',(116.454482671904,9.5,0.));
#1793=CARTESIAN_POINT('',(115.073713465533,11.5664671511657,0.));
#1794=CARTESIAN_POINT('',(115.073713465533,11.5664671511657,4.));
#1795=CARTESIAN_POINT('',(115.073713465533,11.5664671511657,4.));
#1796=CARTESIAN_POINT('',(116.454482671904,9.5,4.));
#1797=CARTESIAN_POINT('',(115.073713465533,11.5664671511657,4.));
#1798=CARTESIAN_POINT('',(115.073713465533,11.5664671511657,0.));
#1799=CARTESIAN_POINT('',(113.435028842544,13.4350288425444,0.));
#1800=CARTESIAN_POINT('',(113.435028842544,13.4350288425444,4.));
#1801=CARTESIAN_POINT('',(113.435028842544,13.4350288425444,4.));
#1802=CARTESIAN_POINT('',(115.073713465533,11.5664671511657,4.));
#1803=CARTESIAN_POINT('',(113.435028842544,13.4350288425444,4.));
#1804=CARTESIAN_POINT('',(113.435028842544,13.4350288425444,0.));
#1805=CARTESIAN_POINT('',(111.566467151166,15.0737134655335,0.));
#1806=CARTESIAN_POINT('',(111.566467151166,15.0737134655335,4.));
#1807=CARTESIAN_POINT('',(111.566467151166,15.0737134655335,4.));
#1808=CARTESIAN_POINT('',(113.435028842544,13.4350288425444,4.));
#1809=CARTESIAN_POINT('',(111.566467151166,15.0737134655335,4.));
#1810=CARTESIAN_POINT('',(111.566467151166,15.0737134655335,0.));
#1811=CARTESIAN_POINT('',(109.5,16.4544826719043,0.));
#1812=CARTESIAN_POINT('',(109.5,16.4544826719043,4.));
#1813=CARTESIAN_POINT('',(109.5,16.4544826719043,4.));
#1814=CARTESIAN_POINT('',(111.566467151166,15.0737134655335,4.));
#1815=CARTESIAN_POINT('',(109.5,16.4544826719043,4.));
#1816=CARTESIAN_POINT('',(109.5,16.4544826719043,0.));
#1817=CARTESIAN_POINT('',(107.270985214937,17.5537111177144,0.));
#1818=CARTESIAN_POINT('',(107.270985214937,17.5537111177144,4.));
#1819=CARTESIAN_POINT('',(107.270985214937,17.5537111177144,4.));
#1820=CARTESIAN_POINT('',(109.5,16.4544826719043,4.));
#1821=CARTESIAN_POINT('',(107.270985214937,17.5537111177144,4.));
#1822=CARTESIAN_POINT('',(107.270985214937,17.5537111177144,0.));
#1823=CARTESIAN_POINT('',(104.917561856948,18.3525906994923,0.));
#1824=CARTESIAN_POINT('',(104.917561856948,18.3525906994923,4.));
#1825=CARTESIAN_POINT('',(104.917561856948,18.3525906994923,4.));
#1826=CARTESIAN_POINT('',(107.270985214937,17.5537111177144,4.));
#1827=CARTESIAN_POINT('',(104.917561856948,18.3525906994923,4.));
#1828=CARTESIAN_POINT('',(104.917561856948,18.3525906994923,0.));
#1829=CARTESIAN_POINT('',(102.479997652181,18.8374523661024,0.));
#1830=CARTESIAN_POINT('',(102.479997652181,18.8374523661024,4.));
#1831=CARTESIAN_POINT('',(102.479997652181,18.8374523661024,4.));
#1832=CARTESIAN_POINT('',(104.917561856948,18.3525906994923,4.));
#1833=CARTESIAN_POINT('',(102.479997652181,18.8374523661024,4.));
#1834=CARTESIAN_POINT('',(102.479997652181,18.8374523661024,0.));
#1835=CARTESIAN_POINT('',(100.,19.,0.));
#1836=CARTESIAN_POINT('',(100.,19.,4.));
#1837=CARTESIAN_POINT('',(100.,19.,4.));
#1838=CARTESIAN_POINT('',(102.479997652181,18.8374523661024,4.));
#1839=CARTESIAN_POINT('',(100.,19.,4.));
#1840=CARTESIAN_POINT('',(100.,19.,0.));
#1841=CARTESIAN_POINT('',(0.,19.,0.));
#1842=CARTESIAN_POINT('',(0.,19.,4.));
#1843=CARTESIAN_POINT('',(0.,19.,4.));
#1844=CARTESIAN_POINT('',(100.,19.,4.));
#1845=CARTESIAN_POINT('',(1.16341445918999E-15,19.,4.));
#1846=CARTESIAN_POINT('',(1.16341445918999E-15,19.,0.));
#1847=CARTESIAN_POINT('',(-2.47999765218098,18.8374523661024,0.));
#1848=CARTESIAN_POINT('',(-2.47999765218098,18.8374523661024,4.));
#1849=CARTESIAN_POINT('',(-2.47999765218098,18.8374523661024,4.));
#1850=CARTESIAN_POINT('',(1.16341445918999E-15,19.,4.));
#1851=CARTESIAN_POINT('',(-2.47999765218098,18.8374523661024,4.));
#1852=CARTESIAN_POINT('',(-2.47999765218098,18.8374523661024,0.));
#1853=CARTESIAN_POINT('',(-4.91756185694789,18.3525906994923,0.));
#1854=CARTESIAN_POINT('',(-4.91756185694789,18.3525906994923,4.));
#1855=CARTESIAN_POINT('',(-4.91756185694789,18.3525906994923,4.));
#1856=CARTESIAN_POINT('',(-2.47999765218098,18.8374523661024,4.));
#1857=CARTESIAN_POINT('',(-4.91756185694789,18.3525906994923,4.));
#1858=CARTESIAN_POINT('',(-4.91756185694789,18.3525906994923,0.));
#1859=CARTESIAN_POINT('',(-7.2709852149367,17.5537111177144,0.));
#1860=CARTESIAN_POINT('',(-7.2709852149367,17.5537111177144,4.));
#1861=CARTESIAN_POINT('',(-7.2709852149367,17.5537111177144,4.));
#1862=CARTESIAN_POINT('',(-4.91756185694789,18.3525906994923,4.));
#1863=CARTESIAN_POINT('',(-7.2709852149367,17.5537111177144,4.));
#1864=CARTESIAN_POINT('',(-7.2709852149367,17.5537111177144,0.));
#1865=CARTESIAN_POINT('',(-9.5,16.4544826719043,0.));
#1866=CARTESIAN_POINT('',(-9.5,16.4544826719043,4.));
#1867=CARTESIAN_POINT('',(-9.5,16.4544826719043,4.));
#1868=CARTESIAN_POINT('',(-7.2709852149367,17.5537111177144,4.));
#1869=CARTESIAN_POINT('',(-9.5,16.4544826719043,4.));
#1870=CARTESIAN_POINT('',(-9.5,16.4544826719043,0.));
#1871=CARTESIAN_POINT('',(-11.5664671511657,15.0737134655335,0.));
#1872=CARTESIAN_POINT('',(-11.5664671511657,15.0737134655335,4.));
#1873=CARTESIAN_POINT('',(-11.5664671511657,15.0737134655335,4.));
#1874=CARTESIAN_POINT('',(-9.5,16.4544826719043,4.));
#1875=CARTESIAN_POINT('',(-11.5664671511657,15.0737134655335,4.));
#1876=CARTESIAN_POINT('',(-11.5664671511657,15.0737134655335,0.));
#1877=CARTESIAN_POINT('',(-13.4350288425444,13.4350288425444,0.));
#1878=CARTESIAN_POINT('',(-13.4350288425444,13.4350288425444,4.));
#1879=CARTESIAN_POINT('',(-13.4350288425444,13.4350288425444,4.));
#1880=CARTESIAN_POINT('',(-11.5664671511657,15.0737134655335,4.));
#1881=CARTESIAN_POINT('',(-13.4350288425444,13.4350288425444,4.));
#1882=CARTESIAN_POINT('',(-13.4350288425444,13.4350288425444,0.));
#1883=CARTESIAN_POINT('',(-15.0737134655335,11.5664671511657,0.));
#1884=CARTESIAN_POINT('',(-15.0737134655335,11.5664671511657,4.));
#1885=CARTESIAN_POINT('',(-15.0737134655335,11.5664671511657,4.));
#1886=CARTESIAN_POINT('',(-13.4350288425444,13.4350288425444,4.));
#1887=CARTESIAN_POINT('',(-15.0737134655335,11.5664671511657,4.));
#1888=CARTESIAN_POINT('',(-15.0737134655335,11.5664671511657,0.));
#1889=CARTESIAN_POINT('',(-16.4544826719043,9.50000000000001,0.));
#1890=CARTESIAN_POINT('',(-16.4544826719043,9.50000000000001,4.));
#1891=CARTESIAN_POINT('',(-16.4544826719043,9.50000000000001,4.));
#1892=CARTESIAN_POINT('',(-15.0737134655335,11.5664671511657,4.));
#1893=CARTESIAN_POINT('',(-16.4544826719043,9.50000000000001,4.));
#1894=CARTESIAN_POINT('',(-16.4544826719043,9.50000000000001,0.));
#1895=CARTESIAN_POINT('',(-17.5537111177144,7.27098521493671,0.));
#1896=CARTESIAN_POINT('',(-17.5537111177144,7.27098521493671,4.));
#1897=CARTESIAN_POINT('',(-17.5537111177144,7.27098521493671,4.));
#1898=CARTESIAN_POINT('',(-16.4544826719043,9.50000000000001,4.));
#1899=CARTESIAN_POINT('',(-17.5537111177144,7.27098521493671,4.));
#1900=CARTESIAN_POINT('',(-17.5537111177144,7.27098521493671,0.));
#1901=CARTESIAN_POINT('',(-18.3525906994923,4.91756185694789,0.));
#1902=CARTESIAN_POINT('',(-18.3525906994923,4.91756185694789,4.));
#1903=CARTESIAN_POINT('',(-18.3525906994923,4.91756185694789,4.));
#1904=CARTESIAN_POINT('',(-17.5537111177144,7.27098521493671,4.));
#1905=CARTESIAN_POINT('',(-18.3525906994923,4.91756185694789,4.));
#1906=CARTESIAN_POINT('',(-18.3525906994923,4.91756185694789,0.));
#1907=CARTESIAN_POINT('',(-18.8374523661024,2.47999765218098,0.));
#1908=CARTESIAN_POINT('',(-18.8374523661024,2.47999765218098,4.));
#1909=CARTESIAN_POINT('',(-18.8374523661024,2.47999765218098,4.));
#1910=CARTESIAN_POINT('',(-18.3525906994923,4.91756185694789,4.));
#1911=CARTESIAN_POINT('',(-18.8374523661024,2.47999765218098,4.));
#1912=CARTESIAN_POINT('',(-18.8374523661024,2.47999765218098,0.));
#1913=CARTESIAN_POINT('',(-19.,1.73472347597681E-15,0.));
#1914=CARTESIAN_POINT('',(-19.,1.73472347597681E-15,4.));
#1915=CARTESIAN_POINT('',(-19.,1.73472347597681E-15,4.));
#1916=CARTESIAN_POINT('',(-18.8374523661024,2.47999765218098,4.));
#1917=CARTESIAN_POINT('',(-19.,2.32682891837997E-15,4.));
#1918=CARTESIAN_POINT('',(-19.,2.32682891837997E-15,0.));
#1919=CARTESIAN_POINT('',(-18.8374523661024,-2.47999765218098,0.));
#1920=CARTESIAN_POINT('',(-18.8374523661024,-2.47999765218098,4.));
#1921=CARTESIAN_POINT('',(-18.8374523661024,-2.47999765218098,4.));
#1922=CARTESIAN_POINT('',(-19.,2.32682891837997E-15,4.));
#1923=CARTESIAN_POINT('',(-18.8374523661024,-2.47999765218098,4.));
#1924=CARTESIAN_POINT('',(-18.8374523661024,-2.47999765218098,0.));
#1925=CARTESIAN_POINT('',(-18.3525906994923,-4.91756185694789,0.));
#1926=CARTESIAN_POINT('',(-18.3525906994923,-4.91756185694789,4.));
#1927=CARTESIAN_POINT('',(-18.3525906994923,-4.91756185694789,4.));
#1928=CARTESIAN_POINT('',(-18.8374523661024,-2.47999765218098,4.));
#1929=CARTESIAN_POINT('',(-18.3525906994923,-4.91756185694789,4.));
#1930=CARTESIAN_POINT('',(-18.3525906994923,-4.91756185694789,0.));
#1931=CARTESIAN_POINT('',(-17.5537111177145,-7.2709852149367,0.));
#1932=CARTESIAN_POINT('',(-17.5537111177145,-7.2709852149367,4.));
#1933=CARTESIAN_POINT('',(-17.5537111177145,-7.2709852149367,4.));
#1934=CARTESIAN_POINT('',(-18.3525906994923,-4.91756185694789,4.));
#1935=CARTESIAN_POINT('',(-17.5537111177145,-7.2709852149367,4.));
#1936=CARTESIAN_POINT('',(-17.5537111177145,-7.2709852149367,0.));
#1937=CARTESIAN_POINT('',(-16.4544826719043,-9.49999999999999,0.));
#1938=CARTESIAN_POINT('',(-16.4544826719043,-9.49999999999999,4.));
#1939=CARTESIAN_POINT('',(-16.4544826719043,-9.49999999999999,4.));
#1940=CARTESIAN_POINT('',(-17.5537111177145,-7.2709852149367,4.));
#1941=CARTESIAN_POINT('',(-16.4544826719043,-9.49999999999999,4.));
#1942=CARTESIAN_POINT('',(-16.4544826719043,-9.49999999999999,0.));
#1943=CARTESIAN_POINT('',(-15.0737134655335,-11.5664671511657,0.));
#1944=CARTESIAN_POINT('',(-15.0737134655335,-11.5664671511657,4.));
#1945=CARTESIAN_POINT('',(-15.0737134655335,-11.5664671511657,4.));
#1946=CARTESIAN_POINT('',(-16.4544826719043,-9.49999999999999,4.));
#1947=CARTESIAN_POINT('',(-15.0737134655335,-11.5664671511657,4.));
#1948=CARTESIAN_POINT('',(-15.0737134655335,-11.5664671511657,0.));
#1949=CARTESIAN_POINT('',(-13.4350288425444,-13.4350288425444,0.));
#1950=CARTESIAN_POINT('',(-13.4350288425444,-13.4350288425444,4.));
#1951=CARTESIAN_POINT('',(-13.4350288425444,-13.4350288425444,4.));
#1952=CARTESIAN_POINT('',(-15.0737134655335,-11.5664671511657,4.));
#1953=CARTESIAN_POINT('',(-13.4350288425444,-13.4350288425444,4.));
#1954=CARTESIAN_POINT('',(-13.4350288425444,-13.4350288425444,0.));
#1955=CARTESIAN_POINT('',(-11.5664671511657,-15.0737134655335,0.));
#1956=CARTESIAN_POINT('',(-11.5664671511657,-15.0737134655335,4.));
#1957=CARTESIAN_POINT('',(-11.5664671511657,-15.0737134655335,4.));
#1958=CARTESIAN_POINT('',(-13.4350288425444,-13.4350288425444,4.));
#1959=CARTESIAN_POINT('',(-11.5664671511657,-15.0737134655335,4.));
#1960=CARTESIAN_POINT('',(-11.5664671511657,-15.0737134655335,0.));
#1961=CARTESIAN_POINT('',(-9.49999999999999,-16.4544826719043,0.));
#1962=CARTESIAN_POINT('',(-9.49999999999999,-16.4544826719043,4.));
#1963=CARTESIAN_POINT('',(-9.49999999999999,-16.4544826719043,4.));
#1964=CARTESIAN_POINT('',(-11.5664671511657,-15.0737134655335,4.));
#1965=CARTESIAN_POINT('',(-9.49999999999999,-16.4544826719043,4.));
#1966=CARTESIAN_POINT('',(-9.49999999999999,-16.4544826719043,0.));
#1967=CARTESIAN_POINT('',(-7.27098521493672,-17.5537111177144,0.));
#1968=CARTESIAN_POINT('',(-7.27098521493672,-17.5537111177144,4.));
#1969=CARTESIAN_POINT('',(-7.27098521493672,-17.5537111177144,4.));
#1970=CARTESIAN_POINT('',(-9.49999999999999,-16.4544826719043,4.));
#1971=CARTESIAN_POINT('',(-7.27098521493672,-17.5537111177144,4.));
#1972=CARTESIAN_POINT('',(-7.27098521493672,-17.5537111177144,0.));
#1973=CARTESIAN_POINT('',(-4.91756185694789,-18.3525906994923,0.));
#1974=CARTESIAN_POINT('',(-4.91756185694789,-18.3525906994923,4.));
#1975=CARTESIAN_POINT('',(-4.91756185694789,-18.3525906994923,4.));
#1976=CARTESIAN_POINT('',(-7.27098521493672,-17.5537111177144,4.));
#1977=CARTESIAN_POINT('',(-4.91756185694789,-18.3525906994923,4.));
#1978=CARTESIAN_POINT('',(-4.91756185694789,-18.3525906994923,0.));
#1979=CARTESIAN_POINT('',(-2.479997652181,-18.8374523661024,0.));
#1980=CARTESIAN_POINT('',(-2.479997652181,-18.8374523661024,4.));
#1981=CARTESIAN_POINT('',(-2.479997652181,-18.8374523661024,4.));
#1982=CARTESIAN_POINT('',(-4.91756185694789,-18.3525906994923,4.));
#1983=CARTESIAN_POINT('',(27.,10.,4.));
#1984=CARTESIAN_POINT('',(27.,10.,0.));
#1985=CARTESIAN_POINT('',(27.,10.,0.));
#1986=CARTESIAN_POINT('',(27.,-10.,0.));
#1987=CARTESIAN_POINT('',(27.,10.,4.));
#1988=CARTESIAN_POINT('',(27.,10.,4.));
#1989=CARTESIAN_POINT('',(27.,10.,4.));
#1990=CARTESIAN_POINT('',(27.,-10.,4.));
#1991=CARTESIAN_POINT('',(27.,-10.,4.));
#1992=CARTESIAN_POINT('',(73.,10.,4.));
#1993=CARTESIAN_POINT('',(73.,10.,0.));
#1994=CARTESIAN_POINT('',(73.,10.,0.));
#1995=CARTESIAN_POINT('',(73.,10.,4.));
#1996=CARTESIAN_POINT('',(73.,10.,4.));
#1997=CARTESIAN_POINT('',(73.,10.,4.));
#1998=CARTESIAN_POINT('',(73.,-10.,4.));
#1999=CARTESIAN_POINT('',(73.,-10.,0.));
#2000=CARTESIAN_POINT('',(73.,-10.,0.));
#2001=CARTESIAN_POINT('',(73.,-10.,4.));
#2002=CARTESIAN_POINT('',(73.,-10.,4.));
#2003=CARTESIAN_POINT('',(73.,-10.,4.));
#2004=CARTESIAN_POINT('',(0.,0.,4.));
#2005=CARTESIAN_POINT('',(0.,0.,4.));
#2006=CARTESIAN_POINT('',(4.1,0.,4.));
#2007=CARTESIAN_POINT('',(0.,0.,0.));
#2008=CARTESIAN_POINT('',(4.1,0.,0.));
#2009=CARTESIAN_POINT('',(100.,0.,4.));
#2010=CARTESIAN_POINT('',(100.,0.,4.));
#2011=CARTESIAN_POINT('',(104.1,0.,4.));
#2012=CARTESIAN_POINT('',(100.,0.,0.));
#2013=CARTESIAN_POINT('',(104.1,0.,0.));
#2014=CARTESIAN_POINT('',(27.,-10.,4.));
#2015=CARTESIAN_POINT('',(27.,-10.,0.));
#2016=CARTESIAN_POINT('',(27.,-10.,4.));
#2017=CARTESIAN_POINT('',(16.,-12.,4.));
#2018=CARTESIAN_POINT('',(16.,-12.,4.));
#2019=CARTESIAN_POINT('',(17.7,-12.,4.));
#2020=CARTESIAN_POINT('',(16.,-12.,0.));
#2021=CARTESIAN_POINT('',(17.7,-12.,0.));
#2022=CARTESIAN_POINT('',(16.,12.,4.));
#2023=CARTESIAN_POINT('',(16.,12.,4.));
#2024=CARTESIAN_POINT('',(17.7,12.,4.));
#2025=CARTESIAN_POINT('',(16.,12.,0.));
#2026=CARTESIAN_POINT('',(17.7,12.,0.));
#2027=CARTESIAN_POINT('',(84.,-12.,4.));
#2028=CARTESIAN_POINT('',(84.,-12.,4.));
#2029=CARTESIAN_POINT('',(85.7,-12.,4.));
#2030=CARTESIAN_POINT('',(84.,-12.,0.));
#2031=CARTESIAN_POINT('',(85.7,-12.,0.));
#2032=CARTESIAN_POINT('',(84.,12.,4.));
#2033=CARTESIAN_POINT('',(84.,12.,4.));
#2034=CARTESIAN_POINT('',(85.7,12.,4.));
#2035=CARTESIAN_POINT('',(84.,12.,0.));
#2036=CARTESIAN_POINT('',(85.7,12.,0.));
#2037=CARTESIAN_POINT('',(-2.479997652181,-18.8374523661024,4.));
#2038=CARTESIAN_POINT('',(-2.479997652181,-18.8374523661024,0.));
#2039=CARTESIAN_POINT('',(-2.479997652181,-18.8374523661024,4.));
#2040=CARTESIAN_POINT('',(0.,0.,4.));
#2041=CARTESIAN_POINT('',(0.,0.,0.));
#2042=MECHANICAL_DESIGN_GEOMETRIC_PRESENTATION_REPRESENTATION('',(#1287),
#2043);
#2043=(
GEOMETRIC_REPRESENTATION_CONTEXT(3)
GLOBAL_UNCERTAINTY_ASSIGNED_CONTEXT((#2044))
GLOBAL_UNIT_ASSIGNED_CONTEXT((#2047,#2046,#2045))
REPRESENTATION_CONTEXT('P14_forearm_cheek_100',
'TOP_LEVEL_ASSEMBLY_PART')
);
#2044=UNCERTAINTY_MEASURE_WITH_UNIT(LENGTH_MEASURE(0.005),#2047,
'DISTANCE_ACCURACY_VALUE','Maximum Tolerance applied to model');
#2045=(
NAMED_UNIT(*)
SI_UNIT($,.STERADIAN.)
SOLID_ANGLE_UNIT()
);
#2046=(
NAMED_UNIT(*)
PLANE_ANGLE_UNIT()
SI_UNIT($,.RADIAN.)
);
#2047=(
LENGTH_UNIT()
NAMED_UNIT(*)
SI_UNIT(.MILLI.,.METRE.)
);
#2048=PRODUCT_DEFINITION_SHAPE('','',#2049);
#2049=PRODUCT_DEFINITION('','',#2051,#2050);
#2050=PRODUCT_DEFINITION_CONTEXT('',#2057,'design');
#2051=PRODUCT_DEFINITION_FORMATION_WITH_SPECIFIED_SOURCE('','',#2053,
 .NOT_KNOWN.);
#2052=PRODUCT_RELATED_PRODUCT_CATEGORY('','',(#2053));
#2053=PRODUCT('P14_forearm_cheek_100','P14_forearm_cheek_100',
'P14_forearm_cheek_100',(#2055));
#2054=PRODUCT_CATEGORY('','');
#2055=PRODUCT_CONTEXT('',#2057,'mechanical');
#2056=APPLICATION_PROTOCOL_DEFINITION('international standard',
'automotive_design',2010,#2057);
#2057=APPLICATION_CONTEXT(
'core data for automotive mechanical design processes');
ENDSEC;
END-ISO-10303-21;
