ISO-10303-21;
HEADER;
/* Generated by software containing ST-Developer
 * from STEP Tools, Inc. (www.steptools.com) 
 */
/* OPTION: strings as raw bytes, not using required /X/ escapes */

FILE_DESCRIPTION(
/* description */ ('Unknown'),
/* implementation_level */ '2;1');

FILE_NAME(
/* name */ 'P16_upper_box_skin',
/* time_stamp */ '2026-09-23T11:23:56+08:00',
/* author */ ('Unknown'),
/* organization */ ('Unknown'),
/* preprocessor_version */ 'ST-DEVELOPER v16.7',
/* originating_system */ 'Solid Edge',
/* authorisation */ 'Unknown');

FILE_SCHEMA (('AUTOMOTIVE_DESIGN {1 0 10303 214 3 1 1}'));
ENDSEC;

DATA;
#10=PROPERTY_DEFINITION_REPRESENTATION(#14,#12);
#11=PROPERTY_DEFINITION_REPRESENTATION(#15,#13);
#12=REPRESENTATION('',(#16),#321);
#13=REPRESENTATION('',(#17),#321);
#14=PROPERTY_DEFINITION('pmi validation property','',#326);
#15=PROPERTY_DEFINITION('pmi validation property','',#326);
#16=VALUE_REPRESENTATION_ITEM('number of annotations',COUNT_MEASURE(0.));
#17=VALUE_REPRESENTATION_ITEM('number of views',COUNT_MEASURE(0.));
#18=SHAPE_REPRESENTATION_RELATIONSHIP('','',#203,#19);
#19=ADVANCED_BREP_SHAPE_REPRESENTATION('',(#201),#321);
#20=CIRCLE('',#209,1.7);
#21=CIRCLE('',#210,1.7);
#22=CIRCLE('',#212,1.7);
#23=CIRCLE('',#213,1.7);
#24=CIRCLE('',#215,1.7);
#25=CIRCLE('',#216,1.7);
#26=CIRCLE('',#218,1.7);
#27=CIRCLE('',#219,1.7);
#28=CYLINDRICAL_SURFACE('',#208,1.7);
#29=CYLINDRICAL_SURFACE('',#211,1.7);
#30=CYLINDRICAL_SURFACE('',#214,1.7);
#31=CYLINDRICAL_SURFACE('',#217,1.7);
#32=ORIENTED_EDGE('',*,*,#72,.T.);
#33=ORIENTED_EDGE('',*,*,#73,.F.);
#34=ORIENTED_EDGE('',*,*,#74,.F.);
#35=ORIENTED_EDGE('',*,*,#75,.T.);
#36=ORIENTED_EDGE('',*,*,#76,.T.);
#37=ORIENTED_EDGE('',*,*,#77,.F.);
#38=ORIENTED_EDGE('',*,*,#78,.F.);
#39=ORIENTED_EDGE('',*,*,#73,.T.);
#40=ORIENTED_EDGE('',*,*,#79,.T.);
#41=ORIENTED_EDGE('',*,*,#80,.F.);
#42=ORIENTED_EDGE('',*,*,#81,.F.);
#43=ORIENTED_EDGE('',*,*,#77,.T.);
#44=ORIENTED_EDGE('',*,*,#82,.T.);
#45=ORIENTED_EDGE('',*,*,#83,.F.);
#46=ORIENTED_EDGE('',*,*,#84,.T.);
#47=ORIENTED_EDGE('',*,*,#85,.F.);
#48=ORIENTED_EDGE('',*,*,#86,.T.);
#49=ORIENTED_EDGE('',*,*,#87,.F.);
#50=ORIENTED_EDGE('',*,*,#88,.T.);
#51=ORIENTED_EDGE('',*,*,#89,.F.);
#52=ORIENTED_EDGE('',*,*,#90,.T.);
#53=ORIENTED_EDGE('',*,*,#75,.F.);
#54=ORIENTED_EDGE('',*,*,#91,.F.);
#55=ORIENTED_EDGE('',*,*,#80,.T.);
#56=ORIENTED_EDGE('',*,*,#88,.F.);
#57=ORIENTED_EDGE('',*,*,#86,.F.);
#58=ORIENTED_EDGE('',*,*,#84,.F.);
#59=ORIENTED_EDGE('',*,*,#82,.F.);
#60=ORIENTED_EDGE('',*,*,#74,.T.);
#61=ORIENTED_EDGE('',*,*,#78,.T.);
#62=ORIENTED_EDGE('',*,*,#81,.T.);
#63=ORIENTED_EDGE('',*,*,#91,.T.);
#64=ORIENTED_EDGE('',*,*,#89,.T.);
#65=ORIENTED_EDGE('',*,*,#87,.T.);
#66=ORIENTED_EDGE('',*,*,#85,.T.);
#67=ORIENTED_EDGE('',*,*,#83,.T.);
#68=ORIENTED_EDGE('',*,*,#72,.F.);
#69=ORIENTED_EDGE('',*,*,#90,.F.);
#70=ORIENTED_EDGE('',*,*,#79,.F.);
#71=ORIENTED_EDGE('',*,*,#76,.F.);
#72=EDGE_CURVE('',#92,#93,#108,.T.);
#73=EDGE_CURVE('',#94,#93,#109,.T.);
#74=EDGE_CURVE('',#95,#94,#110,.T.);
#75=EDGE_CURVE('',#95,#92,#111,.T.);
#76=EDGE_CURVE('',#93,#96,#112,.T.);
#77=EDGE_CURVE('',#97,#96,#113,.T.);
#78=EDGE_CURVE('',#94,#97,#114,.T.);
#79=EDGE_CURVE('',#96,#98,#115,.T.);
#80=EDGE_CURVE('',#99,#98,#116,.T.);
#81=EDGE_CURVE('',#97,#99,#117,.T.);
#82=EDGE_CURVE('',#100,#100,#20,.T.);
#83=EDGE_CURVE('',#101,#101,#21,.T.);
#84=EDGE_CURVE('',#102,#102,#22,.T.);
#85=EDGE_CURVE('',#103,#103,#23,.T.);
#86=EDGE_CURVE('',#104,#104,#24,.T.);
#87=EDGE_CURVE('',#105,#105,#25,.T.);
#88=EDGE_CURVE('',#106,#106,#26,.T.);
#89=EDGE_CURVE('',#107,#107,#27,.T.);
#90=EDGE_CURVE('',#98,#92,#118,.T.);
#91=EDGE_CURVE('',#99,#95,#119,.T.);
#92=VERTEX_POINT('',#276);
#93=VERTEX_POINT('',#277);
#94=VERTEX_POINT('',#279);
#95=VERTEX_POINT('',#281);
#96=VERTEX_POINT('',#285);
#97=VERTEX_POINT('',#287);
#98=VERTEX_POINT('',#291);
#99=VERTEX_POINT('',#293);
#100=VERTEX_POINT('',#297);
#101=VERTEX_POINT('',#299);
#102=VERTEX_POINT('',#302);
#103=VERTEX_POINT('',#304);
#104=VERTEX_POINT('',#307);
#105=VERTEX_POINT('',#309);
#106=VERTEX_POINT('',#312);
#107=VERTEX_POINT('',#314);
#108=LINE('',#275,#120);
#109=LINE('',#278,#121);
#110=LINE('',#280,#122);
#111=LINE('',#282,#123);
#112=LINE('',#284,#124);
#113=LINE('',#286,#125);
#114=LINE('',#288,#126);
#115=LINE('',#290,#127);
#116=LINE('',#292,#128);
#117=LINE('',#294,#129);
#118=LINE('',#316,#130);
#119=LINE('',#317,#131);
#120=VECTOR('',#227,1000.);
#121=VECTOR('',#228,1000.);
#122=VECTOR('',#229,1000.);
#123=VECTOR('',#230,1000.);
#124=VECTOR('',#233,1000.);
#125=VECTOR('',#234,1000.);
#126=VECTOR('',#235,1000.);
#127=VECTOR('',#238,1000.);
#128=VECTOR('',#239,1000.);
#129=VECTOR('',#240,1000.);
#130=VECTOR('',#267,1000.);
#131=VECTOR('',#268,1000.);
#132=EDGE_LOOP('',(#32,#33,#34,#35));
#133=EDGE_LOOP('',(#36,#37,#38,#39));
#134=EDGE_LOOP('',(#40,#41,#42,#43));
#135=EDGE_LOOP('',(#44));
#136=EDGE_LOOP('',(#45));
#137=EDGE_LOOP('',(#46));
#138=EDGE_LOOP('',(#47));
#139=EDGE_LOOP('',(#48));
#140=EDGE_LOOP('',(#49));
#141=EDGE_LOOP('',(#50));
#142=EDGE_LOOP('',(#51));
#143=EDGE_LOOP('',(#52,#53,#54,#55));
#144=EDGE_LOOP('',(#56));
#145=EDGE_LOOP('',(#57));
#146=EDGE_LOOP('',(#58));
#147=EDGE_LOOP('',(#59));
#148=EDGE_LOOP('',(#60,#61,#62,#63));
#149=EDGE_LOOP('',(#64));
#150=EDGE_LOOP('',(#65));
#151=EDGE_LOOP('',(#66));
#152=EDGE_LOOP('',(#67));
#153=EDGE_LOOP('',(#68,#69,#70,#71));
#154=FACE_BOUND('',#132,.T.);
#155=FACE_BOUND('',#133,.T.);
#156=FACE_BOUND('',#134,.T.);
#157=FACE_BOUND('',#135,.T.);
#158=FACE_BOUND('',#136,.T.);
#159=FACE_BOUND('',#137,.T.);
#160=FACE_BOUND('',#138,.T.);
#161=FACE_BOUND('',#139,.T.);
#162=FACE_BOUND('',#140,.T.);
#163=FACE_BOUND('',#141,.T.);
#164=FACE_BOUND('',#142,.T.);
#165=FACE_BOUND('',#143,.T.);
#166=FACE_BOUND('',#144,.T.);
#167=FACE_BOUND('',#145,.T.);
#168=FACE_BOUND('',#146,.T.);
#169=FACE_BOUND('',#147,.T.);
#170=FACE_BOUND('',#148,.T.);
#171=FACE_BOUND('',#149,.T.);
#172=FACE_BOUND('',#150,.T.);
#173=FACE_BOUND('',#151,.T.);
#174=FACE_BOUND('',#152,.T.);
#175=FACE_BOUND('',#153,.T.);
#176=PLANE('',#205);
#177=PLANE('',#206);
#178=PLANE('',#207);
#179=PLANE('',#220);
#180=PLANE('',#221);
#181=PLANE('',#222);
#182=ADVANCED_FACE('',(#154),#176,.F.);
#183=ADVANCED_FACE('',(#155),#177,.F.);
#184=ADVANCED_FACE('',(#156),#178,.F.);
#185=ADVANCED_FACE('',(#157,#158),#28,.F.);
#186=ADVANCED_FACE('',(#159,#160),#29,.F.);
#187=ADVANCED_FACE('',(#161,#162),#30,.F.);
#188=ADVANCED_FACE('',(#163,#164),#31,.F.);
#189=ADVANCED_FACE('',(#165),#179,.F.);
#190=ADVANCED_FACE('',(#166,#167,#168,#169,#170),#180,.T.);
#191=ADVANCED_FACE('',(#171,#172,#173,#174,#175),#181,.F.);
#192=CLOSED_SHELL('',(#182,#183,#184,#185,#186,#187,#188,#189,#190,#191));
#193=STYLED_ITEM('',(#194),#201);
#194=PRESENTATION_STYLE_ASSIGNMENT((#195));
#195=SURFACE_STYLE_USAGE(.BOTH.,#196);
#196=SURFACE_SIDE_STYLE('',(#197));
#197=SURFACE_STYLE_FILL_AREA(#198);
#198=FILL_AREA_STYLE('',(#199));
#199=FILL_AREA_STYLE_COLOUR('',#200);
#200=COLOUR_RGB('',0.506983280181885,0.531564235687256,0.550000011920929);
#201=MANIFOLD_SOLID_BREP('',#192);
#202=SHAPE_DEFINITION_REPRESENTATION(#326,#203);
#203=SHAPE_REPRESENTATION('P16_upper_box_skin',(#204),#321);
#204=AXIS2_PLACEMENT_3D('',#273,#223,#224);
#205=AXIS2_PLACEMENT_3D('',#274,#225,#226);
#206=AXIS2_PLACEMENT_3D('',#283,#231,#232);
#207=AXIS2_PLACEMENT_3D('',#289,#236,#237);
#208=AXIS2_PLACEMENT_3D('',#295,#241,#242);
#209=AXIS2_PLACEMENT_3D('',#296,#243,#244);
#210=AXIS2_PLACEMENT_3D('',#298,#245,#246);
#211=AXIS2_PLACEMENT_3D('',#300,#247,#248);
#212=AXIS2_PLACEMENT_3D('',#301,#249,#250);
#213=AXIS2_PLACEMENT_3D('',#303,#251,#252);
#214=AXIS2_PLACEMENT_3D('',#305,#253,#254);
#215=AXIS2_PLACEMENT_3D('',#306,#255,#256);
#216=AXIS2_PLACEMENT_3D('',#308,#257,#258);
#217=AXIS2_PLACEMENT_3D('',#310,#259,#260);
#218=AXIS2_PLACEMENT_3D('',#311,#261,#262);
#219=AXIS2_PLACEMENT_3D('',#313,#263,#264);
#220=AXIS2_PLACEMENT_3D('',#315,#265,#266);
#221=AXIS2_PLACEMENT_3D('',#318,#269,#270);
#222=AXIS2_PLACEMENT_3D('',#319,#271,#272);
#223=DIRECTION('',(0.,0.,1.));
#224=DIRECTION('',(1.,0.,0.));
#225=DIRECTION('',(1.,0.,0.));
#226=DIRECTION('',(0.,0.,-1.));
#227=DIRECTION('',(0.,-1.,0.));
#228=DIRECTION('',(0.,0.,-1.));
#229=DIRECTION('',(0.,-1.,0.));
#230=DIRECTION('',(0.,0.,-1.));
#231=DIRECTION('',(0.,1.,0.));
#232=DIRECTION('',(0.,0.,1.));
#233=DIRECTION('',(1.,0.,0.));
#234=DIRECTION('',(0.,0.,-1.));
#235=DIRECTION('',(1.,0.,0.));
#236=DIRECTION('',(-1.,0.,0.));
#237=DIRECTION('',(0.,0.,1.));
#238=DIRECTION('',(0.,1.,0.));
#239=DIRECTION('',(0.,0.,-1.));
#240=DIRECTION('',(0.,1.,0.));
#241=DIRECTION('',(0.,0.,-1.));
#242=DIRECTION('',(-1.,0.,0.));
#243=DIRECTION('',(0.,0.,1.));
#244=DIRECTION('',(1.,0.,0.));
#245=DIRECTION('',(0.,0.,1.));
#246=DIRECTION('',(1.,0.,0.));
#247=DIRECTION('',(0.,0.,-1.));
#248=DIRECTION('',(-1.,0.,0.));
#249=DIRECTION('',(0.,0.,1.));
#250=DIRECTION('',(1.,0.,0.));
#251=DIRECTION('',(0.,0.,1.));
#252=DIRECTION('',(1.,0.,0.));
#253=DIRECTION('',(0.,0.,-1.));
#254=DIRECTION('',(-1.,0.,0.));
#255=DIRECTION('',(0.,0.,1.));
#256=DIRECTION('',(1.,0.,0.));
#257=DIRECTION('',(0.,0.,1.));
#258=DIRECTION('',(1.,0.,0.));
#259=DIRECTION('',(0.,0.,-1.));
#260=DIRECTION('',(-1.,0.,0.));
#261=DIRECTION('',(0.,0.,1.));
#262=DIRECTION('',(1.,0.,0.));
#263=DIRECTION('',(0.,0.,1.));
#264=DIRECTION('',(1.,0.,0.));
#265=DIRECTION('',(0.,-1.,0.));
#266=DIRECTION('',(0.,0.,-1.));
#267=DIRECTION('',(-1.,0.,0.));
#268=DIRECTION('',(-1.,0.,0.));
#269=DIRECTION('',(0.,0.,1.));
#270=DIRECTION('',(1.,0.,0.));
#271=DIRECTION('',(0.,0.,1.));
#272=DIRECTION('',(1.,0.,0.));
#273=CARTESIAN_POINT('',(0.,0.,0.));
#274=CARTESIAN_POINT('',(16.,25.,2.4));
#275=CARTESIAN_POINT('',(16.,25.,0.));
#276=CARTESIAN_POINT('',(16.,25.,0.));
#277=CARTESIAN_POINT('',(16.,-25.,0.));
#278=CARTESIAN_POINT('',(16.,-25.,2.4));
#279=CARTESIAN_POINT('',(16.,-25.,2.4));
#280=CARTESIAN_POINT('',(16.,25.,2.4));
#281=CARTESIAN_POINT('',(16.,25.,2.4));
#282=CARTESIAN_POINT('',(16.,25.,2.4));
#283=CARTESIAN_POINT('',(16.,-25.,2.4));
#284=CARTESIAN_POINT('',(16.,-25.,0.));
#285=CARTESIAN_POINT('',(104.,-25.,0.));
#286=CARTESIAN_POINT('',(104.,-25.,2.4));
#287=CARTESIAN_POINT('',(104.,-25.,2.4));
#288=CARTESIAN_POINT('',(16.,-25.,2.4));
#289=CARTESIAN_POINT('',(104.,-25.,2.4));
#290=CARTESIAN_POINT('',(104.,-25.,0.));
#291=CARTESIAN_POINT('',(104.,25.,0.));
#292=CARTESIAN_POINT('',(104.,25.,2.4));
#293=CARTESIAN_POINT('',(104.,25.,2.4));
#294=CARTESIAN_POINT('',(104.,-25.,2.4));
#295=CARTESIAN_POINT('',(22.,-19.,2.4));
#296=CARTESIAN_POINT('',(22.,-19.,2.4));
#297=CARTESIAN_POINT('',(23.7,-19.,2.4));
#298=CARTESIAN_POINT('',(22.,-19.,0.));
#299=CARTESIAN_POINT('',(23.7,-19.,0.));
#300=CARTESIAN_POINT('',(22.,19.,2.4));
#301=CARTESIAN_POINT('',(22.,19.,2.4));
#302=CARTESIAN_POINT('',(23.7,19.,2.4));
#303=CARTESIAN_POINT('',(22.,19.,0.));
#304=CARTESIAN_POINT('',(23.7,19.,0.));
#305=CARTESIAN_POINT('',(98.,-19.,2.4));
#306=CARTESIAN_POINT('',(98.,-19.,2.4));
#307=CARTESIAN_POINT('',(99.7,-19.,2.4));
#308=CARTESIAN_POINT('',(98.,-19.,0.));
#309=CARTESIAN_POINT('',(99.7,-19.,0.));
#310=CARTESIAN_POINT('',(98.,19.,2.4));
#311=CARTESIAN_POINT('',(98.,19.,2.4));
#312=CARTESIAN_POINT('',(99.7,19.,2.4));
#313=CARTESIAN_POINT('',(98.,19.,0.));
#314=CARTESIAN_POINT('',(99.7,19.,0.));
#315=CARTESIAN_POINT('',(104.,25.,2.4));
#316=CARTESIAN_POINT('',(104.,25.,0.));
#317=CARTESIAN_POINT('',(104.,25.,2.4));
#318=CARTESIAN_POINT('',(0.,0.,2.4));
#319=CARTESIAN_POINT('',(0.,0.,0.));
#320=MECHANICAL_DESIGN_GEOMETRIC_PRESENTATION_REPRESENTATION('',(#193),
#321);
#321=(
GEOMETRIC_REPRESENTATION_CONTEXT(3)
GLOBAL_UNCERTAINTY_ASSIGNED_CONTEXT((#322))
GLOBAL_UNIT_ASSIGNED_CONTEXT((#325,#324,#323))
REPRESENTATION_CONTEXT('P16_upper_box_skin','TOP_LEVEL_ASSEMBLY_PART')
);
#322=UNCERTAINTY_MEASURE_WITH_UNIT(LENGTH_MEASURE(0.005),#325,
'DISTANCE_ACCURACY_VALUE','Maximum Tolerance applied to model');
#323=(
NAMED_UNIT(*)
SI_UNIT($,.STERADIAN.)
SOLID_ANGLE_UNIT()
);
#324=(
NAMED_UNIT(*)
PLANE_ANGLE_UNIT()
SI_UNIT($,.RADIAN.)
);
#325=(
LENGTH_UNIT()
NAMED_UNIT(*)
SI_UNIT(.MILLI.,.METRE.)
);
#326=PRODUCT_DEFINITION_SHAPE('','',#327);
#327=PRODUCT_DEFINITION('','',#329,#328);
#328=PRODUCT_DEFINITION_CONTEXT('',#335,'design');
#329=PRODUCT_DEFINITION_FORMATION_WITH_SPECIFIED_SOURCE('','',#331,
 .NOT_KNOWN.);
#330=PRODUCT_RELATED_PRODUCT_CATEGORY('','',(#331));
#331=PRODUCT('P16_upper_box_skin','P16_upper_box_skin',
'P16_upper_box_skin',(#333));
#332=PRODUCT_CATEGORY('','');
#333=PRODUCT_CONTEXT('',#335,'mechanical');
#334=APPLICATION_PROTOCOL_DEFINITION('international standard',
'automotive_design',2010,#335);
#335=APPLICATION_CONTEXT(
'core data for automotive mechanical design processes');
ENDSEC;
END-ISO-10303-21;
