ISO-10303-21;
HEADER;
/* Generated by software containing ST-Developer
 * from STEP Tools, Inc. (www.steptools.com) 
 */
/* OPTION: strings as raw bytes, not using required /X/ escapes */

FILE_DESCRIPTION(
/* description */ ('Unknown'),
/* implementation_level */ '2;1');

FILE_NAME(
/* name */ 'P18_AX_wrist_bridge',
/* time_stamp */ '2026-09-23T11:24:17+08:00',
/* author */ ('Unknown'),
/* organization */ ('Unknown'),
/* preprocessor_version */ 'ST-DEVELOPER v16.7',
/* originating_system */ 'Solid Edge',
/* authorisation */ 'Unknown');

FILE_SCHEMA (('AUTOMOTIVE_DESIGN {1 0 10303 214 3 1 1}'));
ENDSEC;

DATA;
#10=PROPERTY_DEFINITION_REPRESENTATION(#14,#12);
#11=PROPERTY_DEFINITION_REPRESENTATION(#15,#13);
#12=REPRESENTATION('',(#16),#457);
#13=REPRESENTATION('',(#17),#457);
#14=PROPERTY_DEFINITION('pmi validation property','',#462);
#15=PROPERTY_DEFINITION('pmi validation property','',#462);
#16=VALUE_REPRESENTATION_ITEM('number of annotations',COUNT_MEASURE(0.));
#17=VALUE_REPRESENTATION_ITEM('number of views',COUNT_MEASURE(0.));
#18=SHAPE_REPRESENTATION_RELATIONSHIP('','',#291,#19);
#19=ADVANCED_BREP_SHAPE_REPRESENTATION('',(#289),#457);
#20=CIRCLE('',#301,1.7);
#21=CIRCLE('',#302,1.7);
#22=CIRCLE('',#304,1.7);
#23=CIRCLE('',#305,1.7);
#24=CIRCLE('',#307,1.7);
#25=CIRCLE('',#308,1.7);
#26=CIRCLE('',#310,1.7);
#27=CIRCLE('',#311,1.7);
#28=CYLINDRICAL_SURFACE('',#300,1.7);
#29=CYLINDRICAL_SURFACE('',#303,1.7);
#30=CYLINDRICAL_SURFACE('',#306,1.7);
#31=CYLINDRICAL_SURFACE('',#309,1.7);
#32=ORIENTED_EDGE('',*,*,#96,.T.);
#33=ORIENTED_EDGE('',*,*,#97,.F.);
#34=ORIENTED_EDGE('',*,*,#98,.F.);
#35=ORIENTED_EDGE('',*,*,#99,.T.);
#36=ORIENTED_EDGE('',*,*,#100,.T.);
#37=ORIENTED_EDGE('',*,*,#101,.F.);
#38=ORIENTED_EDGE('',*,*,#102,.F.);
#39=ORIENTED_EDGE('',*,*,#97,.T.);
#40=ORIENTED_EDGE('',*,*,#103,.T.);
#41=ORIENTED_EDGE('',*,*,#104,.F.);
#42=ORIENTED_EDGE('',*,*,#105,.F.);
#43=ORIENTED_EDGE('',*,*,#101,.T.);
#44=ORIENTED_EDGE('',*,*,#106,.F.);
#45=ORIENTED_EDGE('',*,*,#107,.F.);
#46=ORIENTED_EDGE('',*,*,#108,.T.);
#47=ORIENTED_EDGE('',*,*,#109,.T.);
#48=ORIENTED_EDGE('',*,*,#110,.F.);
#49=ORIENTED_EDGE('',*,*,#111,.F.);
#50=ORIENTED_EDGE('',*,*,#112,.T.);
#51=ORIENTED_EDGE('',*,*,#107,.T.);
#52=ORIENTED_EDGE('',*,*,#113,.F.);
#53=ORIENTED_EDGE('',*,*,#114,.F.);
#54=ORIENTED_EDGE('',*,*,#115,.T.);
#55=ORIENTED_EDGE('',*,*,#111,.T.);
#56=ORIENTED_EDGE('',*,*,#116,.F.);
#57=ORIENTED_EDGE('',*,*,#109,.F.);
#58=ORIENTED_EDGE('',*,*,#117,.T.);
#59=ORIENTED_EDGE('',*,*,#114,.T.);
#60=ORIENTED_EDGE('',*,*,#118,.T.);
#61=ORIENTED_EDGE('',*,*,#119,.F.);
#62=ORIENTED_EDGE('',*,*,#120,.T.);
#63=ORIENTED_EDGE('',*,*,#121,.F.);
#64=ORIENTED_EDGE('',*,*,#122,.T.);
#65=ORIENTED_EDGE('',*,*,#123,.F.);
#66=ORIENTED_EDGE('',*,*,#124,.T.);
#67=ORIENTED_EDGE('',*,*,#125,.F.);
#68=ORIENTED_EDGE('',*,*,#126,.T.);
#69=ORIENTED_EDGE('',*,*,#99,.F.);
#70=ORIENTED_EDGE('',*,*,#127,.F.);
#71=ORIENTED_EDGE('',*,*,#104,.T.);
#72=ORIENTED_EDGE('',*,*,#124,.F.);
#73=ORIENTED_EDGE('',*,*,#122,.F.);
#74=ORIENTED_EDGE('',*,*,#120,.F.);
#75=ORIENTED_EDGE('',*,*,#118,.F.);
#76=ORIENTED_EDGE('',*,*,#108,.F.);
#77=ORIENTED_EDGE('',*,*,#112,.F.);
#78=ORIENTED_EDGE('',*,*,#115,.F.);
#79=ORIENTED_EDGE('',*,*,#117,.F.);
#80=ORIENTED_EDGE('',*,*,#98,.T.);
#81=ORIENTED_EDGE('',*,*,#102,.T.);
#82=ORIENTED_EDGE('',*,*,#105,.T.);
#83=ORIENTED_EDGE('',*,*,#127,.T.);
#84=ORIENTED_EDGE('',*,*,#125,.T.);
#85=ORIENTED_EDGE('',*,*,#123,.T.);
#86=ORIENTED_EDGE('',*,*,#121,.T.);
#87=ORIENTED_EDGE('',*,*,#119,.T.);
#88=ORIENTED_EDGE('',*,*,#106,.T.);
#89=ORIENTED_EDGE('',*,*,#116,.T.);
#90=ORIENTED_EDGE('',*,*,#113,.T.);
#91=ORIENTED_EDGE('',*,*,#110,.T.);
#92=ORIENTED_EDGE('',*,*,#96,.F.);
#93=ORIENTED_EDGE('',*,*,#126,.F.);
#94=ORIENTED_EDGE('',*,*,#103,.F.);
#95=ORIENTED_EDGE('',*,*,#100,.F.);
#96=EDGE_CURVE('',#128,#129,#152,.T.);
#97=EDGE_CURVE('',#130,#129,#153,.T.);
#98=EDGE_CURVE('',#131,#130,#154,.T.);
#99=EDGE_CURVE('',#131,#128,#155,.T.);
#100=EDGE_CURVE('',#129,#132,#156,.T.);
#101=EDGE_CURVE('',#133,#132,#157,.T.);
#102=EDGE_CURVE('',#130,#133,#158,.T.);
#103=EDGE_CURVE('',#132,#134,#159,.T.);
#104=EDGE_CURVE('',#135,#134,#160,.T.);
#105=EDGE_CURVE('',#133,#135,#161,.T.);
#106=EDGE_CURVE('',#136,#137,#162,.T.);
#107=EDGE_CURVE('',#138,#136,#163,.T.);
#108=EDGE_CURVE('',#138,#139,#164,.T.);
#109=EDGE_CURVE('',#139,#137,#165,.T.);
#110=EDGE_CURVE('',#140,#136,#166,.T.);
#111=EDGE_CURVE('',#141,#140,#167,.T.);
#112=EDGE_CURVE('',#141,#138,#168,.T.);
#113=EDGE_CURVE('',#142,#140,#169,.T.);
#114=EDGE_CURVE('',#143,#142,#170,.T.);
#115=EDGE_CURVE('',#143,#141,#171,.T.);
#116=EDGE_CURVE('',#137,#142,#172,.T.);
#117=EDGE_CURVE('',#139,#143,#173,.T.);
#118=EDGE_CURVE('',#144,#144,#20,.T.);
#119=EDGE_CURVE('',#145,#145,#21,.T.);
#120=EDGE_CURVE('',#146,#146,#22,.T.);
#121=EDGE_CURVE('',#147,#147,#23,.T.);
#122=EDGE_CURVE('',#148,#148,#24,.T.);
#123=EDGE_CURVE('',#149,#149,#25,.T.);
#124=EDGE_CURVE('',#150,#150,#26,.T.);
#125=EDGE_CURVE('',#151,#151,#27,.T.);
#126=EDGE_CURVE('',#134,#128,#174,.T.);
#127=EDGE_CURVE('',#135,#131,#175,.T.);
#128=VERTEX_POINT('',#388);
#129=VERTEX_POINT('',#389);
#130=VERTEX_POINT('',#391);
#131=VERTEX_POINT('',#393);
#132=VERTEX_POINT('',#397);
#133=VERTEX_POINT('',#399);
#134=VERTEX_POINT('',#403);
#135=VERTEX_POINT('',#405);
#136=VERTEX_POINT('',#409);
#137=VERTEX_POINT('',#410);
#138=VERTEX_POINT('',#412);
#139=VERTEX_POINT('',#414);
#140=VERTEX_POINT('',#418);
#141=VERTEX_POINT('',#420);
#142=VERTEX_POINT('',#424);
#143=VERTEX_POINT('',#426);
#144=VERTEX_POINT('',#433);
#145=VERTEX_POINT('',#435);
#146=VERTEX_POINT('',#438);
#147=VERTEX_POINT('',#440);
#148=VERTEX_POINT('',#443);
#149=VERTEX_POINT('',#445);
#150=VERTEX_POINT('',#448);
#151=VERTEX_POINT('',#450);
#152=LINE('',#387,#176);
#153=LINE('',#390,#177);
#154=LINE('',#392,#178);
#155=LINE('',#394,#179);
#156=LINE('',#396,#180);
#157=LINE('',#398,#181);
#158=LINE('',#400,#182);
#159=LINE('',#402,#183);
#160=LINE('',#404,#184);
#161=LINE('',#406,#185);
#162=LINE('',#408,#186);
#163=LINE('',#411,#187);
#164=LINE('',#413,#188);
#165=LINE('',#415,#189);
#166=LINE('',#417,#190);
#167=LINE('',#419,#191);
#168=LINE('',#421,#192);
#169=LINE('',#423,#193);
#170=LINE('',#425,#194);
#171=LINE('',#427,#195);
#172=LINE('',#429,#196);
#173=LINE('',#430,#197);
#174=LINE('',#452,#198);
#175=LINE('',#453,#199);
#176=VECTOR('',#319,1000.);
#177=VECTOR('',#320,1000.);
#178=VECTOR('',#321,1000.);
#179=VECTOR('',#322,1000.);
#180=VECTOR('',#325,1000.);
#181=VECTOR('',#326,1000.);
#182=VECTOR('',#327,1000.);
#183=VECTOR('',#330,1000.);
#184=VECTOR('',#331,1000.);
#185=VECTOR('',#332,1000.);
#186=VECTOR('',#335,1000.);
#187=VECTOR('',#336,1000.);
#188=VECTOR('',#337,1000.);
#189=VECTOR('',#338,1000.);
#190=VECTOR('',#341,1000.);
#191=VECTOR('',#342,1000.);
#192=VECTOR('',#343,1000.);
#193=VECTOR('',#346,1000.);
#194=VECTOR('',#347,1000.);
#195=VECTOR('',#348,1000.);
#196=VECTOR('',#351,1000.);
#197=VECTOR('',#352,1000.);
#198=VECTOR('',#379,1000.);
#199=VECTOR('',#380,1000.);
#200=EDGE_LOOP('',(#32,#33,#34,#35));
#201=EDGE_LOOP('',(#36,#37,#38,#39));
#202=EDGE_LOOP('',(#40,#41,#42,#43));
#203=EDGE_LOOP('',(#44,#45,#46,#47));
#204=EDGE_LOOP('',(#48,#49,#50,#51));
#205=EDGE_LOOP('',(#52,#53,#54,#55));
#206=EDGE_LOOP('',(#56,#57,#58,#59));
#207=EDGE_LOOP('',(#60));
#208=EDGE_LOOP('',(#61));
#209=EDGE_LOOP('',(#62));
#210=EDGE_LOOP('',(#63));
#211=EDGE_LOOP('',(#64));
#212=EDGE_LOOP('',(#65));
#213=EDGE_LOOP('',(#66));
#214=EDGE_LOOP('',(#67));
#215=EDGE_LOOP('',(#68,#69,#70,#71));
#216=EDGE_LOOP('',(#72));
#217=EDGE_LOOP('',(#73));
#218=EDGE_LOOP('',(#74));
#219=EDGE_LOOP('',(#75));
#220=EDGE_LOOP('',(#76,#77,#78,#79));
#221=EDGE_LOOP('',(#80,#81,#82,#83));
#222=EDGE_LOOP('',(#84));
#223=EDGE_LOOP('',(#85));
#224=EDGE_LOOP('',(#86));
#225=EDGE_LOOP('',(#87));
#226=EDGE_LOOP('',(#88,#89,#90,#91));
#227=EDGE_LOOP('',(#92,#93,#94,#95));
#228=FACE_BOUND('',#200,.T.);
#229=FACE_BOUND('',#201,.T.);
#230=FACE_BOUND('',#202,.T.);
#231=FACE_BOUND('',#203,.T.);
#232=FACE_BOUND('',#204,.T.);
#233=FACE_BOUND('',#205,.T.);
#234=FACE_BOUND('',#206,.T.);
#235=FACE_BOUND('',#207,.T.);
#236=FACE_BOUND('',#208,.T.);
#237=FACE_BOUND('',#209,.T.);
#238=FACE_BOUND('',#210,.T.);
#239=FACE_BOUND('',#211,.T.);
#240=FACE_BOUND('',#212,.T.);
#241=FACE_BOUND('',#213,.T.);
#242=FACE_BOUND('',#214,.T.);
#243=FACE_BOUND('',#215,.T.);
#244=FACE_BOUND('',#216,.T.);
#245=FACE_BOUND('',#217,.T.);
#246=FACE_BOUND('',#218,.T.);
#247=FACE_BOUND('',#219,.T.);
#248=FACE_BOUND('',#220,.T.);
#249=FACE_BOUND('',#221,.T.);
#250=FACE_BOUND('',#222,.T.);
#251=FACE_BOUND('',#223,.T.);
#252=FACE_BOUND('',#224,.T.);
#253=FACE_BOUND('',#225,.T.);
#254=FACE_BOUND('',#226,.T.);
#255=FACE_BOUND('',#227,.T.);
#256=PLANE('',#293);
#257=PLANE('',#294);
#258=PLANE('',#295);
#259=PLANE('',#296);
#260=PLANE('',#297);
#261=PLANE('',#298);
#262=PLANE('',#299);
#263=PLANE('',#312);
#264=PLANE('',#313);
#265=PLANE('',#314);
#266=ADVANCED_FACE('',(#228),#256,.F.);
#267=ADVANCED_FACE('',(#229),#257,.F.);
#268=ADVANCED_FACE('',(#230),#258,.F.);
#269=ADVANCED_FACE('',(#231),#259,.T.);
#270=ADVANCED_FACE('',(#232),#260,.T.);
#271=ADVANCED_FACE('',(#233),#261,.T.);
#272=ADVANCED_FACE('',(#234),#262,.T.);
#273=ADVANCED_FACE('',(#235,#236),#28,.F.);
#274=ADVANCED_FACE('',(#237,#238),#29,.F.);
#275=ADVANCED_FACE('',(#239,#240),#30,.F.);
#276=ADVANCED_FACE('',(#241,#242),#31,.F.);
#277=ADVANCED_FACE('',(#243),#263,.F.);
#278=ADVANCED_FACE('',(#244,#245,#246,#247,#248,#249),#264,.T.);
#279=ADVANCED_FACE('',(#250,#251,#252,#253,#254,#255),#265,.F.);
#280=CLOSED_SHELL('',(#266,#267,#268,#269,#270,#271,#272,#273,#274,#275,
#276,#277,#278,#279));
#281=STYLED_ITEM('',(#282),#289);
#282=PRESENTATION_STYLE_ASSIGNMENT((#283));
#283=SURFACE_STYLE_USAGE(.BOTH.,#284);
#284=SURFACE_SIDE_STYLE('',(#285));
#285=SURFACE_STYLE_FILL_AREA(#286);
#286=FILL_AREA_STYLE('',(#287));
#287=FILL_AREA_STYLE_COLOUR('',#288);
#288=COLOUR_RGB('',0.506983280181885,0.531564235687256,0.550000011920929);
#289=MANIFOLD_SOLID_BREP('',#280);
#290=SHAPE_DEFINITION_REPRESENTATION(#462,#291);
#291=SHAPE_REPRESENTATION('P18_AX_wrist_bridge',(#292),#457);
#292=AXIS2_PLACEMENT_3D('',#385,#315,#316);
#293=AXIS2_PLACEMENT_3D('',#386,#317,#318);
#294=AXIS2_PLACEMENT_3D('',#395,#323,#324);
#295=AXIS2_PLACEMENT_3D('',#401,#328,#329);
#296=AXIS2_PLACEMENT_3D('',#407,#333,#334);
#297=AXIS2_PLACEMENT_3D('',#416,#339,#340);
#298=AXIS2_PLACEMENT_3D('',#422,#344,#345);
#299=AXIS2_PLACEMENT_3D('',#428,#349,#350);
#300=AXIS2_PLACEMENT_3D('',#431,#353,#354);
#301=AXIS2_PLACEMENT_3D('',#432,#355,#356);
#302=AXIS2_PLACEMENT_3D('',#434,#357,#358);
#303=AXIS2_PLACEMENT_3D('',#436,#359,#360);
#304=AXIS2_PLACEMENT_3D('',#437,#361,#362);
#305=AXIS2_PLACEMENT_3D('',#439,#363,#364);
#306=AXIS2_PLACEMENT_3D('',#441,#365,#366);
#307=AXIS2_PLACEMENT_3D('',#442,#367,#368);
#308=AXIS2_PLACEMENT_3D('',#444,#369,#370);
#309=AXIS2_PLACEMENT_3D('',#446,#371,#372);
#310=AXIS2_PLACEMENT_3D('',#447,#373,#374);
#311=AXIS2_PLACEMENT_3D('',#449,#375,#376);
#312=AXIS2_PLACEMENT_3D('',#451,#377,#378);
#313=AXIS2_PLACEMENT_3D('',#454,#381,#382);
#314=AXIS2_PLACEMENT_3D('',#455,#383,#384);
#315=DIRECTION('',(0.,0.,1.));
#316=DIRECTION('',(1.,0.,0.));
#317=DIRECTION('',(1.,0.,0.));
#318=DIRECTION('',(0.,0.,-1.));
#319=DIRECTION('',(0.,-1.,0.));
#320=DIRECTION('',(0.,0.,-1.));
#321=DIRECTION('',(0.,-1.,0.));
#322=DIRECTION('',(0.,0.,-1.));
#323=DIRECTION('',(0.,1.,0.));
#324=DIRECTION('',(0.,0.,1.));
#325=DIRECTION('',(1.,0.,0.));
#326=DIRECTION('',(0.,0.,-1.));
#327=DIRECTION('',(1.,0.,0.));
#328=DIRECTION('',(-1.,0.,0.));
#329=DIRECTION('',(0.,0.,1.));
#330=DIRECTION('',(0.,1.,0.));
#331=DIRECTION('',(0.,0.,-1.));
#332=DIRECTION('',(0.,1.,0.));
#333=DIRECTION('',(1.,0.,0.));
#334=DIRECTION('',(0.,0.,-1.));
#335=DIRECTION('',(0.,-1.,0.));
#336=DIRECTION('',(0.,0.,-1.));
#337=DIRECTION('',(0.,-1.,0.));
#338=DIRECTION('',(0.,0.,-1.));
#339=DIRECTION('',(0.,-1.,0.));
#340=DIRECTION('',(0.,0.,-1.));
#341=DIRECTION('',(-1.,0.,0.));
#342=DIRECTION('',(0.,0.,-1.));
#343=DIRECTION('',(-1.,0.,0.));
#344=DIRECTION('',(-1.,0.,0.));
#345=DIRECTION('',(0.,0.,1.));
#346=DIRECTION('',(0.,1.,0.));
#347=DIRECTION('',(0.,0.,-1.));
#348=DIRECTION('',(0.,1.,0.));
#349=DIRECTION('',(0.,1.,0.));
#350=DIRECTION('',(0.,0.,1.));
#351=DIRECTION('',(1.,0.,0.));
#352=DIRECTION('',(1.,0.,0.));
#353=DIRECTION('',(0.,0.,-1.));
#354=DIRECTION('',(-1.,0.,0.));
#355=DIRECTION('',(0.,0.,1.));
#356=DIRECTION('',(1.,0.,0.));
#357=DIRECTION('',(0.,0.,1.));
#358=DIRECTION('',(1.,0.,0.));
#359=DIRECTION('',(0.,0.,-1.));
#360=DIRECTION('',(-1.,0.,0.));
#361=DIRECTION('',(0.,0.,1.));
#362=DIRECTION('',(1.,0.,0.));
#363=DIRECTION('',(0.,0.,1.));
#364=DIRECTION('',(1.,0.,0.));
#365=DIRECTION('',(0.,0.,-1.));
#366=DIRECTION('',(-1.,0.,0.));
#367=DIRECTION('',(0.,0.,1.));
#368=DIRECTION('',(1.,0.,0.));
#369=DIRECTION('',(0.,0.,1.));
#370=DIRECTION('',(1.,0.,0.));
#371=DIRECTION('',(0.,0.,-1.));
#372=DIRECTION('',(-1.,0.,0.));
#373=DIRECTION('',(0.,0.,1.));
#374=DIRECTION('',(1.,0.,0.));
#375=DIRECTION('',(0.,0.,1.));
#376=DIRECTION('',(1.,0.,0.));
#377=DIRECTION('',(0.,-1.,0.));
#378=DIRECTION('',(0.,0.,-1.));
#379=DIRECTION('',(-1.,0.,0.));
#380=DIRECTION('',(-1.,0.,0.));
#381=DIRECTION('',(0.,0.,1.));
#382=DIRECTION('',(1.,0.,0.));
#383=DIRECTION('',(0.,0.,1.));
#384=DIRECTION('',(1.,0.,0.));
#385=CARTESIAN_POINT('',(0.,0.,0.));
#386=CARTESIAN_POINT('',(-25.,25.,4.));
#387=CARTESIAN_POINT('',(-25.,25.,0.));
#388=CARTESIAN_POINT('',(-25.,25.,0.));
#389=CARTESIAN_POINT('',(-25.,-25.,0.));
#390=CARTESIAN_POINT('',(-25.,-25.,4.));
#391=CARTESIAN_POINT('',(-25.,-25.,4.));
#392=CARTESIAN_POINT('',(-25.,25.,4.));
#393=CARTESIAN_POINT('',(-25.,25.,4.));
#394=CARTESIAN_POINT('',(-25.,25.,4.));
#395=CARTESIAN_POINT('',(-25.,-25.,4.));
#396=CARTESIAN_POINT('',(-25.,-25.,0.));
#397=CARTESIAN_POINT('',(25.,-25.,0.));
#398=CARTESIAN_POINT('',(25.,-25.,4.));
#399=CARTESIAN_POINT('',(25.,-25.,4.));
#400=CARTESIAN_POINT('',(-25.,-25.,4.));
#401=CARTESIAN_POINT('',(25.,-25.,4.));
#402=CARTESIAN_POINT('',(25.,-25.,0.));
#403=CARTESIAN_POINT('',(25.,25.,0.));
#404=CARTESIAN_POINT('',(25.,25.,4.));
#405=CARTESIAN_POINT('',(25.,25.,4.));
#406=CARTESIAN_POINT('',(25.,-25.,4.));
#407=CARTESIAN_POINT('',(-16.4,17.,4.));
#408=CARTESIAN_POINT('',(-16.4,17.,0.));
#409=CARTESIAN_POINT('',(-16.4,17.,0.));
#410=CARTESIAN_POINT('',(-16.4,-17.,0.));
#411=CARTESIAN_POINT('',(-16.4,17.,4.));
#412=CARTESIAN_POINT('',(-16.4,17.,4.));
#413=CARTESIAN_POINT('',(-16.4,17.,4.));
#414=CARTESIAN_POINT('',(-16.4,-17.,4.));
#415=CARTESIAN_POINT('',(-16.4,-17.,4.));
#416=CARTESIAN_POINT('',(16.4,17.,4.));
#417=CARTESIAN_POINT('',(16.4,17.,0.));
#418=CARTESIAN_POINT('',(16.4,17.,0.));
#419=CARTESIAN_POINT('',(16.4,17.,4.));
#420=CARTESIAN_POINT('',(16.4,17.,4.));
#421=CARTESIAN_POINT('',(16.4,17.,4.));
#422=CARTESIAN_POINT('',(16.4,-17.,4.));
#423=CARTESIAN_POINT('',(16.4,-17.,0.));
#424=CARTESIAN_POINT('',(16.4,-17.,0.));
#425=CARTESIAN_POINT('',(16.4,-17.,4.));
#426=CARTESIAN_POINT('',(16.4,-17.,4.));
#427=CARTESIAN_POINT('',(16.4,-17.,4.));
#428=CARTESIAN_POINT('',(-16.4,-17.,4.));
#429=CARTESIAN_POINT('',(-16.4,-17.,0.));
#430=CARTESIAN_POINT('',(-16.4,-17.,4.));
#431=CARTESIAN_POINT('',(-20.,-20.,4.));
#432=CARTESIAN_POINT('',(-20.,-20.,4.));
#433=CARTESIAN_POINT('',(-18.3,-20.,4.));
#434=CARTESIAN_POINT('',(-20.,-20.,0.));
#435=CARTESIAN_POINT('',(-18.3,-20.,0.));
#436=CARTESIAN_POINT('',(-20.,20.,4.));
#437=CARTESIAN_POINT('',(-20.,20.,4.));
#438=CARTESIAN_POINT('',(-18.3,20.,4.));
#439=CARTESIAN_POINT('',(-20.,20.,0.));
#440=CARTESIAN_POINT('',(-18.3,20.,0.));
#441=CARTESIAN_POINT('',(20.,-20.,4.));
#442=CARTESIAN_POINT('',(20.,-20.,4.));
#443=CARTESIAN_POINT('',(21.7,-20.,4.));
#444=CARTESIAN_POINT('',(20.,-20.,0.));
#445=CARTESIAN_POINT('',(21.7,-20.,0.));
#446=CARTESIAN_POINT('',(20.,20.,4.));
#447=CARTESIAN_POINT('',(20.,20.,4.));
#448=CARTESIAN_POINT('',(21.7,20.,4.));
#449=CARTESIAN_POINT('',(20.,20.,0.));
#450=CARTESIAN_POINT('',(21.7,20.,0.));
#451=CARTESIAN_POINT('',(25.,25.,4.));
#452=CARTESIAN_POINT('',(25.,25.,0.));
#453=CARTESIAN_POINT('',(25.,25.,4.));
#454=CARTESIAN_POINT('',(0.,0.,4.));
#455=CARTESIAN_POINT('',(0.,0.,0.));
#456=MECHANICAL_DESIGN_GEOMETRIC_PRESENTATION_REPRESENTATION('',(#281),
#457);
#457=(
GEOMETRIC_REPRESENTATION_CONTEXT(3)
GLOBAL_UNCERTAINTY_ASSIGNED_CONTEXT((#458))
GLOBAL_UNIT_ASSIGNED_CONTEXT((#461,#460,#459))
REPRESENTATION_CONTEXT('P18_AX_wrist_bridge','TOP_LEVEL_ASSEMBLY_PART')
);
#458=UNCERTAINTY_MEASURE_WITH_UNIT(LENGTH_MEASURE(0.005),#461,
'DISTANCE_ACCURACY_VALUE','Maximum Tolerance applied to model');
#459=(
NAMED_UNIT(*)
SI_UNIT($,.STERADIAN.)
SOLID_ANGLE_UNIT()
);
#460=(
NAMED_UNIT(*)
PLANE_ANGLE_UNIT()
SI_UNIT($,.RADIAN.)
);
#461=(
LENGTH_UNIT()
NAMED_UNIT(*)
SI_UNIT(.MILLI.,.METRE.)
);
#462=PRODUCT_DEFINITION_SHAPE('','',#463);
#463=PRODUCT_DEFINITION('','',#465,#464);
#464=PRODUCT_DEFINITION_CONTEXT('',#471,'design');
#465=PRODUCT_DEFINITION_FORMATION_WITH_SPECIFIED_SOURCE('','',#467,
 .NOT_KNOWN.);
#466=PRODUCT_RELATED_PRODUCT_CATEGORY('','',(#467));
#467=PRODUCT('P18_AX_wrist_bridge','P18_AX_wrist_bridge',
'P18_AX_wrist_bridge',(#469));
#468=PRODUCT_CATEGORY('','');
#469=PRODUCT_CONTEXT('',#471,'mechanical');
#470=APPLICATION_PROTOCOL_DEFINITION('international standard',
'automotive_design',2010,#471);
#471=APPLICATION_CONTEXT(
'core data for automotive mechanical design processes');
ENDSEC;
END-ISO-10303-21;
