ISO-10303-21;
HEADER;
/* Generated by software containing ST-Developer
 * from STEP Tools, Inc. (www.steptools.com) 
 */
/* OPTION: strings as raw bytes, not using required /X/ escapes */

FILE_DESCRIPTION(
/* description */ ('Unknown'),
/* implementation_level */ '2;1');

FILE_NAME(
/* name */ 'P21_gripper_rack',
/* time_stamp */ '2026-09-23T11:24:40+08:00',
/* author */ ('Unknown'),
/* organization */ ('Unknown'),
/* preprocessor_version */ 'ST-DEVELOPER v16.7',
/* originating_system */ 'Solid Edge',
/* authorisation */ 'Unknown');

FILE_SCHEMA (('AUTOMOTIVE_DESIGN {1 0 10303 214 3 1 1}'));
ENDSEC;

DATA;
#10=PROPERTY_DEFINITION_REPRESENTATION(#14,#12);
#11=PROPERTY_DEFINITION_REPRESENTATION(#15,#13);
#12=REPRESENTATION('',(#16),#2233);
#13=REPRESENTATION('',(#17),#2233);
#14=PROPERTY_DEFINITION('pmi validation property','',#2238);
#15=PROPERTY_DEFINITION('pmi validation property','',#2238);
#16=VALUE_REPRESENTATION_ITEM('number of annotations',COUNT_MEASURE(0.));
#17=VALUE_REPRESENTATION_ITEM('number of views',COUNT_MEASURE(0.));
#18=SHAPE_REPRESENTATION_RELATIONSHIP('','',#1423,#19);
#19=ADVANCED_BREP_SHAPE_REPRESENTATION('',(#1421),#2233);
#20=CIRCLE('',#1489,1.2);
#21=CIRCLE('',#1490,1.2);
#22=CIRCLE('',#1492,1.2);
#23=CIRCLE('',#1493,1.2);
#24=CYLINDRICAL_SURFACE('',#1488,1.2);
#25=CYLINDRICAL_SURFACE('',#1491,1.2);
#26=ORIENTED_EDGE('',*,*,#418,.T.);
#27=ORIENTED_EDGE('',*,*,#419,.F.);
#28=ORIENTED_EDGE('',*,*,#420,.F.);
#29=ORIENTED_EDGE('',*,*,#421,.T.);
#30=ORIENTED_EDGE('',*,*,#422,.T.);
#31=ORIENTED_EDGE('',*,*,#423,.F.);
#32=ORIENTED_EDGE('',*,*,#424,.F.);
#33=ORIENTED_EDGE('',*,*,#419,.T.);
#34=ORIENTED_EDGE('',*,*,#425,.T.);
#35=ORIENTED_EDGE('',*,*,#426,.F.);
#36=ORIENTED_EDGE('',*,*,#427,.F.);
#37=ORIENTED_EDGE('',*,*,#423,.T.);
#38=ORIENTED_EDGE('',*,*,#428,.T.);
#39=ORIENTED_EDGE('',*,*,#429,.F.);
#40=ORIENTED_EDGE('',*,*,#430,.F.);
#41=ORIENTED_EDGE('',*,*,#426,.T.);
#42=ORIENTED_EDGE('',*,*,#431,.T.);
#43=ORIENTED_EDGE('',*,*,#432,.F.);
#44=ORIENTED_EDGE('',*,*,#433,.F.);
#45=ORIENTED_EDGE('',*,*,#429,.T.);
#46=ORIENTED_EDGE('',*,*,#434,.T.);
#47=ORIENTED_EDGE('',*,*,#435,.F.);
#48=ORIENTED_EDGE('',*,*,#436,.F.);
#49=ORIENTED_EDGE('',*,*,#432,.T.);
#50=ORIENTED_EDGE('',*,*,#437,.T.);
#51=ORIENTED_EDGE('',*,*,#438,.F.);
#52=ORIENTED_EDGE('',*,*,#439,.F.);
#53=ORIENTED_EDGE('',*,*,#435,.T.);
#54=ORIENTED_EDGE('',*,*,#440,.T.);
#55=ORIENTED_EDGE('',*,*,#441,.F.);
#56=ORIENTED_EDGE('',*,*,#442,.F.);
#57=ORIENTED_EDGE('',*,*,#438,.T.);
#58=ORIENTED_EDGE('',*,*,#443,.T.);
#59=ORIENTED_EDGE('',*,*,#444,.F.);
#60=ORIENTED_EDGE('',*,*,#445,.F.);
#61=ORIENTED_EDGE('',*,*,#441,.T.);
#62=ORIENTED_EDGE('',*,*,#446,.T.);
#63=ORIENTED_EDGE('',*,*,#447,.F.);
#64=ORIENTED_EDGE('',*,*,#448,.F.);
#65=ORIENTED_EDGE('',*,*,#444,.T.);
#66=ORIENTED_EDGE('',*,*,#449,.T.);
#67=ORIENTED_EDGE('',*,*,#450,.F.);
#68=ORIENTED_EDGE('',*,*,#451,.F.);
#69=ORIENTED_EDGE('',*,*,#447,.T.);
#70=ORIENTED_EDGE('',*,*,#452,.T.);
#71=ORIENTED_EDGE('',*,*,#453,.F.);
#72=ORIENTED_EDGE('',*,*,#454,.F.);
#73=ORIENTED_EDGE('',*,*,#450,.T.);
#74=ORIENTED_EDGE('',*,*,#455,.T.);
#75=ORIENTED_EDGE('',*,*,#456,.F.);
#76=ORIENTED_EDGE('',*,*,#457,.F.);
#77=ORIENTED_EDGE('',*,*,#453,.T.);
#78=ORIENTED_EDGE('',*,*,#458,.T.);
#79=ORIENTED_EDGE('',*,*,#459,.F.);
#80=ORIENTED_EDGE('',*,*,#460,.F.);
#81=ORIENTED_EDGE('',*,*,#456,.T.);
#82=ORIENTED_EDGE('',*,*,#461,.T.);
#83=ORIENTED_EDGE('',*,*,#462,.F.);
#84=ORIENTED_EDGE('',*,*,#463,.F.);
#85=ORIENTED_EDGE('',*,*,#459,.T.);
#86=ORIENTED_EDGE('',*,*,#464,.T.);
#87=ORIENTED_EDGE('',*,*,#465,.F.);
#88=ORIENTED_EDGE('',*,*,#466,.F.);
#89=ORIENTED_EDGE('',*,*,#462,.T.);
#90=ORIENTED_EDGE('',*,*,#467,.T.);
#91=ORIENTED_EDGE('',*,*,#468,.F.);
#92=ORIENTED_EDGE('',*,*,#469,.F.);
#93=ORIENTED_EDGE('',*,*,#465,.T.);
#94=ORIENTED_EDGE('',*,*,#470,.T.);
#95=ORIENTED_EDGE('',*,*,#471,.F.);
#96=ORIENTED_EDGE('',*,*,#472,.F.);
#97=ORIENTED_EDGE('',*,*,#468,.T.);
#98=ORIENTED_EDGE('',*,*,#473,.T.);
#99=ORIENTED_EDGE('',*,*,#474,.F.);
#100=ORIENTED_EDGE('',*,*,#475,.F.);
#101=ORIENTED_EDGE('',*,*,#471,.T.);
#102=ORIENTED_EDGE('',*,*,#476,.T.);
#103=ORIENTED_EDGE('',*,*,#477,.F.);
#104=ORIENTED_EDGE('',*,*,#478,.F.);
#105=ORIENTED_EDGE('',*,*,#474,.T.);
#106=ORIENTED_EDGE('',*,*,#479,.T.);
#107=ORIENTED_EDGE('',*,*,#480,.F.);
#108=ORIENTED_EDGE('',*,*,#481,.F.);
#109=ORIENTED_EDGE('',*,*,#477,.T.);
#110=ORIENTED_EDGE('',*,*,#482,.T.);
#111=ORIENTED_EDGE('',*,*,#483,.F.);
#112=ORIENTED_EDGE('',*,*,#484,.F.);
#113=ORIENTED_EDGE('',*,*,#480,.T.);
#114=ORIENTED_EDGE('',*,*,#485,.T.);
#115=ORIENTED_EDGE('',*,*,#486,.F.);
#116=ORIENTED_EDGE('',*,*,#487,.F.);
#117=ORIENTED_EDGE('',*,*,#483,.T.);
#118=ORIENTED_EDGE('',*,*,#488,.T.);
#119=ORIENTED_EDGE('',*,*,#489,.F.);
#120=ORIENTED_EDGE('',*,*,#490,.F.);
#121=ORIENTED_EDGE('',*,*,#486,.T.);
#122=ORIENTED_EDGE('',*,*,#491,.T.);
#123=ORIENTED_EDGE('',*,*,#492,.F.);
#124=ORIENTED_EDGE('',*,*,#493,.F.);
#125=ORIENTED_EDGE('',*,*,#489,.T.);
#126=ORIENTED_EDGE('',*,*,#494,.T.);
#127=ORIENTED_EDGE('',*,*,#495,.F.);
#128=ORIENTED_EDGE('',*,*,#496,.F.);
#129=ORIENTED_EDGE('',*,*,#492,.T.);
#130=ORIENTED_EDGE('',*,*,#497,.T.);
#131=ORIENTED_EDGE('',*,*,#498,.F.);
#132=ORIENTED_EDGE('',*,*,#499,.F.);
#133=ORIENTED_EDGE('',*,*,#495,.T.);
#134=ORIENTED_EDGE('',*,*,#500,.T.);
#135=ORIENTED_EDGE('',*,*,#501,.F.);
#136=ORIENTED_EDGE('',*,*,#502,.F.);
#137=ORIENTED_EDGE('',*,*,#498,.T.);
#138=ORIENTED_EDGE('',*,*,#503,.T.);
#139=ORIENTED_EDGE('',*,*,#504,.F.);
#140=ORIENTED_EDGE('',*,*,#505,.F.);
#141=ORIENTED_EDGE('',*,*,#501,.T.);
#142=ORIENTED_EDGE('',*,*,#506,.T.);
#143=ORIENTED_EDGE('',*,*,#507,.F.);
#144=ORIENTED_EDGE('',*,*,#508,.F.);
#145=ORIENTED_EDGE('',*,*,#504,.T.);
#146=ORIENTED_EDGE('',*,*,#509,.T.);
#147=ORIENTED_EDGE('',*,*,#510,.F.);
#148=ORIENTED_EDGE('',*,*,#511,.F.);
#149=ORIENTED_EDGE('',*,*,#507,.T.);
#150=ORIENTED_EDGE('',*,*,#512,.T.);
#151=ORIENTED_EDGE('',*,*,#513,.F.);
#152=ORIENTED_EDGE('',*,*,#514,.F.);
#153=ORIENTED_EDGE('',*,*,#510,.T.);
#154=ORIENTED_EDGE('',*,*,#515,.T.);
#155=ORIENTED_EDGE('',*,*,#516,.F.);
#156=ORIENTED_EDGE('',*,*,#517,.F.);
#157=ORIENTED_EDGE('',*,*,#513,.T.);
#158=ORIENTED_EDGE('',*,*,#518,.T.);
#159=ORIENTED_EDGE('',*,*,#519,.F.);
#160=ORIENTED_EDGE('',*,*,#520,.F.);
#161=ORIENTED_EDGE('',*,*,#516,.T.);
#162=ORIENTED_EDGE('',*,*,#521,.T.);
#163=ORIENTED_EDGE('',*,*,#522,.F.);
#164=ORIENTED_EDGE('',*,*,#523,.F.);
#165=ORIENTED_EDGE('',*,*,#519,.T.);
#166=ORIENTED_EDGE('',*,*,#524,.T.);
#167=ORIENTED_EDGE('',*,*,#525,.F.);
#168=ORIENTED_EDGE('',*,*,#526,.F.);
#169=ORIENTED_EDGE('',*,*,#522,.T.);
#170=ORIENTED_EDGE('',*,*,#527,.T.);
#171=ORIENTED_EDGE('',*,*,#528,.F.);
#172=ORIENTED_EDGE('',*,*,#529,.F.);
#173=ORIENTED_EDGE('',*,*,#525,.T.);
#174=ORIENTED_EDGE('',*,*,#530,.T.);
#175=ORIENTED_EDGE('',*,*,#531,.F.);
#176=ORIENTED_EDGE('',*,*,#532,.F.);
#177=ORIENTED_EDGE('',*,*,#528,.T.);
#178=ORIENTED_EDGE('',*,*,#533,.T.);
#179=ORIENTED_EDGE('',*,*,#534,.F.);
#180=ORIENTED_EDGE('',*,*,#535,.F.);
#181=ORIENTED_EDGE('',*,*,#531,.T.);
#182=ORIENTED_EDGE('',*,*,#536,.T.);
#183=ORIENTED_EDGE('',*,*,#537,.F.);
#184=ORIENTED_EDGE('',*,*,#538,.F.);
#185=ORIENTED_EDGE('',*,*,#534,.T.);
#186=ORIENTED_EDGE('',*,*,#539,.T.);
#187=ORIENTED_EDGE('',*,*,#540,.F.);
#188=ORIENTED_EDGE('',*,*,#541,.F.);
#189=ORIENTED_EDGE('',*,*,#537,.T.);
#190=ORIENTED_EDGE('',*,*,#542,.T.);
#191=ORIENTED_EDGE('',*,*,#543,.F.);
#192=ORIENTED_EDGE('',*,*,#544,.F.);
#193=ORIENTED_EDGE('',*,*,#540,.T.);
#194=ORIENTED_EDGE('',*,*,#545,.T.);
#195=ORIENTED_EDGE('',*,*,#546,.F.);
#196=ORIENTED_EDGE('',*,*,#547,.F.);
#197=ORIENTED_EDGE('',*,*,#543,.T.);
#198=ORIENTED_EDGE('',*,*,#548,.T.);
#199=ORIENTED_EDGE('',*,*,#549,.F.);
#200=ORIENTED_EDGE('',*,*,#550,.F.);
#201=ORIENTED_EDGE('',*,*,#546,.T.);
#202=ORIENTED_EDGE('',*,*,#551,.T.);
#203=ORIENTED_EDGE('',*,*,#552,.F.);
#204=ORIENTED_EDGE('',*,*,#553,.F.);
#205=ORIENTED_EDGE('',*,*,#549,.T.);
#206=ORIENTED_EDGE('',*,*,#554,.T.);
#207=ORIENTED_EDGE('',*,*,#555,.F.);
#208=ORIENTED_EDGE('',*,*,#556,.F.);
#209=ORIENTED_EDGE('',*,*,#552,.T.);
#210=ORIENTED_EDGE('',*,*,#557,.T.);
#211=ORIENTED_EDGE('',*,*,#558,.F.);
#212=ORIENTED_EDGE('',*,*,#559,.F.);
#213=ORIENTED_EDGE('',*,*,#555,.T.);
#214=ORIENTED_EDGE('',*,*,#560,.T.);
#215=ORIENTED_EDGE('',*,*,#561,.F.);
#216=ORIENTED_EDGE('',*,*,#562,.F.);
#217=ORIENTED_EDGE('',*,*,#558,.T.);
#218=ORIENTED_EDGE('',*,*,#563,.T.);
#219=ORIENTED_EDGE('',*,*,#564,.F.);
#220=ORIENTED_EDGE('',*,*,#565,.F.);
#221=ORIENTED_EDGE('',*,*,#561,.T.);
#222=ORIENTED_EDGE('',*,*,#566,.T.);
#223=ORIENTED_EDGE('',*,*,#567,.F.);
#224=ORIENTED_EDGE('',*,*,#568,.F.);
#225=ORIENTED_EDGE('',*,*,#564,.T.);
#226=ORIENTED_EDGE('',*,*,#569,.T.);
#227=ORIENTED_EDGE('',*,*,#570,.F.);
#228=ORIENTED_EDGE('',*,*,#571,.F.);
#229=ORIENTED_EDGE('',*,*,#567,.T.);
#230=ORIENTED_EDGE('',*,*,#572,.T.);
#231=ORIENTED_EDGE('',*,*,#573,.F.);
#232=ORIENTED_EDGE('',*,*,#574,.F.);
#233=ORIENTED_EDGE('',*,*,#570,.T.);
#234=ORIENTED_EDGE('',*,*,#575,.T.);
#235=ORIENTED_EDGE('',*,*,#576,.F.);
#236=ORIENTED_EDGE('',*,*,#577,.F.);
#237=ORIENTED_EDGE('',*,*,#573,.T.);
#238=ORIENTED_EDGE('',*,*,#578,.T.);
#239=ORIENTED_EDGE('',*,*,#579,.F.);
#240=ORIENTED_EDGE('',*,*,#580,.F.);
#241=ORIENTED_EDGE('',*,*,#576,.T.);
#242=ORIENTED_EDGE('',*,*,#581,.T.);
#243=ORIENTED_EDGE('',*,*,#582,.F.);
#244=ORIENTED_EDGE('',*,*,#583,.F.);
#245=ORIENTED_EDGE('',*,*,#579,.T.);
#246=ORIENTED_EDGE('',*,*,#584,.T.);
#247=ORIENTED_EDGE('',*,*,#585,.F.);
#248=ORIENTED_EDGE('',*,*,#586,.F.);
#249=ORIENTED_EDGE('',*,*,#582,.T.);
#250=ORIENTED_EDGE('',*,*,#587,.T.);
#251=ORIENTED_EDGE('',*,*,#588,.F.);
#252=ORIENTED_EDGE('',*,*,#589,.F.);
#253=ORIENTED_EDGE('',*,*,#585,.T.);
#254=ORIENTED_EDGE('',*,*,#590,.T.);
#255=ORIENTED_EDGE('',*,*,#591,.F.);
#256=ORIENTED_EDGE('',*,*,#592,.F.);
#257=ORIENTED_EDGE('',*,*,#588,.T.);
#258=ORIENTED_EDGE('',*,*,#593,.T.);
#259=ORIENTED_EDGE('',*,*,#594,.F.);
#260=ORIENTED_EDGE('',*,*,#595,.F.);
#261=ORIENTED_EDGE('',*,*,#591,.T.);
#262=ORIENTED_EDGE('',*,*,#596,.T.);
#263=ORIENTED_EDGE('',*,*,#597,.F.);
#264=ORIENTED_EDGE('',*,*,#598,.F.);
#265=ORIENTED_EDGE('',*,*,#594,.T.);
#266=ORIENTED_EDGE('',*,*,#599,.T.);
#267=ORIENTED_EDGE('',*,*,#600,.F.);
#268=ORIENTED_EDGE('',*,*,#601,.F.);
#269=ORIENTED_EDGE('',*,*,#597,.T.);
#270=ORIENTED_EDGE('',*,*,#602,.T.);
#271=ORIENTED_EDGE('',*,*,#603,.F.);
#272=ORIENTED_EDGE('',*,*,#604,.F.);
#273=ORIENTED_EDGE('',*,*,#600,.T.);
#274=ORIENTED_EDGE('',*,*,#605,.T.);
#275=ORIENTED_EDGE('',*,*,#606,.F.);
#276=ORIENTED_EDGE('',*,*,#607,.F.);
#277=ORIENTED_EDGE('',*,*,#603,.T.);
#278=ORIENTED_EDGE('',*,*,#608,.T.);
#279=ORIENTED_EDGE('',*,*,#609,.F.);
#280=ORIENTED_EDGE('',*,*,#610,.T.);
#281=ORIENTED_EDGE('',*,*,#611,.F.);
#282=ORIENTED_EDGE('',*,*,#612,.T.);
#283=ORIENTED_EDGE('',*,*,#421,.F.);
#284=ORIENTED_EDGE('',*,*,#613,.F.);
#285=ORIENTED_EDGE('',*,*,#606,.T.);
#286=ORIENTED_EDGE('',*,*,#610,.F.);
#287=ORIENTED_EDGE('',*,*,#608,.F.);
#288=ORIENTED_EDGE('',*,*,#420,.T.);
#289=ORIENTED_EDGE('',*,*,#424,.T.);
#290=ORIENTED_EDGE('',*,*,#427,.T.);
#291=ORIENTED_EDGE('',*,*,#430,.T.);
#292=ORIENTED_EDGE('',*,*,#433,.T.);
#293=ORIENTED_EDGE('',*,*,#436,.T.);
#294=ORIENTED_EDGE('',*,*,#439,.T.);
#295=ORIENTED_EDGE('',*,*,#442,.T.);
#296=ORIENTED_EDGE('',*,*,#445,.T.);
#297=ORIENTED_EDGE('',*,*,#448,.T.);
#298=ORIENTED_EDGE('',*,*,#451,.T.);
#299=ORIENTED_EDGE('',*,*,#454,.T.);
#300=ORIENTED_EDGE('',*,*,#457,.T.);
#301=ORIENTED_EDGE('',*,*,#460,.T.);
#302=ORIENTED_EDGE('',*,*,#463,.T.);
#303=ORIENTED_EDGE('',*,*,#466,.T.);
#304=ORIENTED_EDGE('',*,*,#469,.T.);
#305=ORIENTED_EDGE('',*,*,#472,.T.);
#306=ORIENTED_EDGE('',*,*,#475,.T.);
#307=ORIENTED_EDGE('',*,*,#478,.T.);
#308=ORIENTED_EDGE('',*,*,#481,.T.);
#309=ORIENTED_EDGE('',*,*,#484,.T.);
#310=ORIENTED_EDGE('',*,*,#487,.T.);
#311=ORIENTED_EDGE('',*,*,#490,.T.);
#312=ORIENTED_EDGE('',*,*,#493,.T.);
#313=ORIENTED_EDGE('',*,*,#496,.T.);
#314=ORIENTED_EDGE('',*,*,#499,.T.);
#315=ORIENTED_EDGE('',*,*,#502,.T.);
#316=ORIENTED_EDGE('',*,*,#505,.T.);
#317=ORIENTED_EDGE('',*,*,#508,.T.);
#318=ORIENTED_EDGE('',*,*,#511,.T.);
#319=ORIENTED_EDGE('',*,*,#514,.T.);
#320=ORIENTED_EDGE('',*,*,#517,.T.);
#321=ORIENTED_EDGE('',*,*,#520,.T.);
#322=ORIENTED_EDGE('',*,*,#523,.T.);
#323=ORIENTED_EDGE('',*,*,#526,.T.);
#324=ORIENTED_EDGE('',*,*,#529,.T.);
#325=ORIENTED_EDGE('',*,*,#532,.T.);
#326=ORIENTED_EDGE('',*,*,#535,.T.);
#327=ORIENTED_EDGE('',*,*,#538,.T.);
#328=ORIENTED_EDGE('',*,*,#541,.T.);
#329=ORIENTED_EDGE('',*,*,#544,.T.);
#330=ORIENTED_EDGE('',*,*,#547,.T.);
#331=ORIENTED_EDGE('',*,*,#550,.T.);
#332=ORIENTED_EDGE('',*,*,#553,.T.);
#333=ORIENTED_EDGE('',*,*,#556,.T.);
#334=ORIENTED_EDGE('',*,*,#559,.T.);
#335=ORIENTED_EDGE('',*,*,#562,.T.);
#336=ORIENTED_EDGE('',*,*,#565,.T.);
#337=ORIENTED_EDGE('',*,*,#568,.T.);
#338=ORIENTED_EDGE('',*,*,#571,.T.);
#339=ORIENTED_EDGE('',*,*,#574,.T.);
#340=ORIENTED_EDGE('',*,*,#577,.T.);
#341=ORIENTED_EDGE('',*,*,#580,.T.);
#342=ORIENTED_EDGE('',*,*,#583,.T.);
#343=ORIENTED_EDGE('',*,*,#586,.T.);
#344=ORIENTED_EDGE('',*,*,#589,.T.);
#345=ORIENTED_EDGE('',*,*,#592,.T.);
#346=ORIENTED_EDGE('',*,*,#595,.T.);
#347=ORIENTED_EDGE('',*,*,#598,.T.);
#348=ORIENTED_EDGE('',*,*,#601,.T.);
#349=ORIENTED_EDGE('',*,*,#604,.T.);
#350=ORIENTED_EDGE('',*,*,#607,.T.);
#351=ORIENTED_EDGE('',*,*,#613,.T.);
#352=ORIENTED_EDGE('',*,*,#611,.T.);
#353=ORIENTED_EDGE('',*,*,#609,.T.);
#354=ORIENTED_EDGE('',*,*,#418,.F.);
#355=ORIENTED_EDGE('',*,*,#612,.F.);
#356=ORIENTED_EDGE('',*,*,#605,.F.);
#357=ORIENTED_EDGE('',*,*,#602,.F.);
#358=ORIENTED_EDGE('',*,*,#599,.F.);
#359=ORIENTED_EDGE('',*,*,#596,.F.);
#360=ORIENTED_EDGE('',*,*,#593,.F.);
#361=ORIENTED_EDGE('',*,*,#590,.F.);
#362=ORIENTED_EDGE('',*,*,#587,.F.);
#363=ORIENTED_EDGE('',*,*,#584,.F.);
#364=ORIENTED_EDGE('',*,*,#581,.F.);
#365=ORIENTED_EDGE('',*,*,#578,.F.);
#366=ORIENTED_EDGE('',*,*,#575,.F.);
#367=ORIENTED_EDGE('',*,*,#572,.F.);
#368=ORIENTED_EDGE('',*,*,#569,.F.);
#369=ORIENTED_EDGE('',*,*,#566,.F.);
#370=ORIENTED_EDGE('',*,*,#563,.F.);
#371=ORIENTED_EDGE('',*,*,#560,.F.);
#372=ORIENTED_EDGE('',*,*,#557,.F.);
#373=ORIENTED_EDGE('',*,*,#554,.F.);
#374=ORIENTED_EDGE('',*,*,#551,.F.);
#375=ORIENTED_EDGE('',*,*,#548,.F.);
#376=ORIENTED_EDGE('',*,*,#545,.F.);
#377=ORIENTED_EDGE('',*,*,#542,.F.);
#378=ORIENTED_EDGE('',*,*,#539,.F.);
#379=ORIENTED_EDGE('',*,*,#536,.F.);
#380=ORIENTED_EDGE('',*,*,#533,.F.);
#381=ORIENTED_EDGE('',*,*,#530,.F.);
#382=ORIENTED_EDGE('',*,*,#527,.F.);
#383=ORIENTED_EDGE('',*,*,#524,.F.);
#384=ORIENTED_EDGE('',*,*,#521,.F.);
#385=ORIENTED_EDGE('',*,*,#518,.F.);
#386=ORIENTED_EDGE('',*,*,#515,.F.);
#387=ORIENTED_EDGE('',*,*,#512,.F.);
#388=ORIENTED_EDGE('',*,*,#509,.F.);
#389=ORIENTED_EDGE('',*,*,#506,.F.);
#390=ORIENTED_EDGE('',*,*,#503,.F.);
#391=ORIENTED_EDGE('',*,*,#500,.F.);
#392=ORIENTED_EDGE('',*,*,#497,.F.);
#393=ORIENTED_EDGE('',*,*,#494,.F.);
#394=ORIENTED_EDGE('',*,*,#491,.F.);
#395=ORIENTED_EDGE('',*,*,#488,.F.);
#396=ORIENTED_EDGE('',*,*,#485,.F.);
#397=ORIENTED_EDGE('',*,*,#482,.F.);
#398=ORIENTED_EDGE('',*,*,#479,.F.);
#399=ORIENTED_EDGE('',*,*,#476,.F.);
#400=ORIENTED_EDGE('',*,*,#473,.F.);
#401=ORIENTED_EDGE('',*,*,#470,.F.);
#402=ORIENTED_EDGE('',*,*,#467,.F.);
#403=ORIENTED_EDGE('',*,*,#464,.F.);
#404=ORIENTED_EDGE('',*,*,#461,.F.);
#405=ORIENTED_EDGE('',*,*,#458,.F.);
#406=ORIENTED_EDGE('',*,*,#455,.F.);
#407=ORIENTED_EDGE('',*,*,#452,.F.);
#408=ORIENTED_EDGE('',*,*,#449,.F.);
#409=ORIENTED_EDGE('',*,*,#446,.F.);
#410=ORIENTED_EDGE('',*,*,#443,.F.);
#411=ORIENTED_EDGE('',*,*,#440,.F.);
#412=ORIENTED_EDGE('',*,*,#437,.F.);
#413=ORIENTED_EDGE('',*,*,#434,.F.);
#414=ORIENTED_EDGE('',*,*,#431,.F.);
#415=ORIENTED_EDGE('',*,*,#428,.F.);
#416=ORIENTED_EDGE('',*,*,#425,.F.);
#417=ORIENTED_EDGE('',*,*,#422,.F.);
#418=EDGE_CURVE('',#614,#615,#746,.T.);
#419=EDGE_CURVE('',#616,#615,#747,.T.);
#420=EDGE_CURVE('',#617,#616,#748,.T.);
#421=EDGE_CURVE('',#617,#614,#749,.T.);
#422=EDGE_CURVE('',#615,#618,#750,.T.);
#423=EDGE_CURVE('',#619,#618,#751,.T.);
#424=EDGE_CURVE('',#616,#619,#752,.T.);
#425=EDGE_CURVE('',#618,#620,#753,.T.);
#426=EDGE_CURVE('',#621,#620,#754,.T.);
#427=EDGE_CURVE('',#619,#621,#755,.T.);
#428=EDGE_CURVE('',#620,#622,#756,.T.);
#429=EDGE_CURVE('',#623,#622,#757,.T.);
#430=EDGE_CURVE('',#621,#623,#758,.T.);
#431=EDGE_CURVE('',#622,#624,#759,.T.);
#432=EDGE_CURVE('',#625,#624,#760,.T.);
#433=EDGE_CURVE('',#623,#625,#761,.T.);
#434=EDGE_CURVE('',#624,#626,#762,.T.);
#435=EDGE_CURVE('',#627,#626,#763,.T.);
#436=EDGE_CURVE('',#625,#627,#764,.T.);
#437=EDGE_CURVE('',#626,#628,#765,.T.);
#438=EDGE_CURVE('',#629,#628,#766,.T.);
#439=EDGE_CURVE('',#627,#629,#767,.T.);
#440=EDGE_CURVE('',#628,#630,#768,.T.);
#441=EDGE_CURVE('',#631,#630,#769,.T.);
#442=EDGE_CURVE('',#629,#631,#770,.T.);
#443=EDGE_CURVE('',#630,#632,#771,.T.);
#444=EDGE_CURVE('',#633,#632,#772,.T.);
#445=EDGE_CURVE('',#631,#633,#773,.T.);
#446=EDGE_CURVE('',#632,#634,#774,.T.);
#447=EDGE_CURVE('',#635,#634,#775,.T.);
#448=EDGE_CURVE('',#633,#635,#776,.T.);
#449=EDGE_CURVE('',#634,#636,#777,.T.);
#450=EDGE_CURVE('',#637,#636,#778,.T.);
#451=EDGE_CURVE('',#635,#637,#779,.T.);
#452=EDGE_CURVE('',#636,#638,#780,.T.);
#453=EDGE_CURVE('',#639,#638,#781,.T.);
#454=EDGE_CURVE('',#637,#639,#782,.T.);
#455=EDGE_CURVE('',#638,#640,#783,.T.);
#456=EDGE_CURVE('',#641,#640,#784,.T.);
#457=EDGE_CURVE('',#639,#641,#785,.T.);
#458=EDGE_CURVE('',#640,#642,#786,.T.);
#459=EDGE_CURVE('',#643,#642,#787,.T.);
#460=EDGE_CURVE('',#641,#643,#788,.T.);
#461=EDGE_CURVE('',#642,#644,#789,.T.);
#462=EDGE_CURVE('',#645,#644,#790,.T.);
#463=EDGE_CURVE('',#643,#645,#791,.T.);
#464=EDGE_CURVE('',#644,#646,#792,.T.);
#465=EDGE_CURVE('',#647,#646,#793,.T.);
#466=EDGE_CURVE('',#645,#647,#794,.T.);
#467=EDGE_CURVE('',#646,#648,#795,.T.);
#468=EDGE_CURVE('',#649,#648,#796,.T.);
#469=EDGE_CURVE('',#647,#649,#797,.T.);
#470=EDGE_CURVE('',#648,#650,#798,.T.);
#471=EDGE_CURVE('',#651,#650,#799,.T.);
#472=EDGE_CURVE('',#649,#651,#800,.T.);
#473=EDGE_CURVE('',#650,#652,#801,.T.);
#474=EDGE_CURVE('',#653,#652,#802,.T.);
#475=EDGE_CURVE('',#651,#653,#803,.T.);
#476=EDGE_CURVE('',#652,#654,#804,.T.);
#477=EDGE_CURVE('',#655,#654,#805,.T.);
#478=EDGE_CURVE('',#653,#655,#806,.T.);
#479=EDGE_CURVE('',#654,#656,#807,.T.);
#480=EDGE_CURVE('',#657,#656,#808,.T.);
#481=EDGE_CURVE('',#655,#657,#809,.T.);
#482=EDGE_CURVE('',#656,#658,#810,.T.);
#483=EDGE_CURVE('',#659,#658,#811,.T.);
#484=EDGE_CURVE('',#657,#659,#812,.T.);
#485=EDGE_CURVE('',#658,#660,#813,.T.);
#486=EDGE_CURVE('',#661,#660,#814,.T.);
#487=EDGE_CURVE('',#659,#661,#815,.T.);
#488=EDGE_CURVE('',#660,#662,#816,.T.);
#489=EDGE_CURVE('',#663,#662,#817,.T.);
#490=EDGE_CURVE('',#661,#663,#818,.T.);
#491=EDGE_CURVE('',#662,#664,#819,.T.);
#492=EDGE_CURVE('',#665,#664,#820,.T.);
#493=EDGE_CURVE('',#663,#665,#821,.T.);
#494=EDGE_CURVE('',#664,#666,#822,.T.);
#495=EDGE_CURVE('',#667,#666,#823,.T.);
#496=EDGE_CURVE('',#665,#667,#824,.T.);
#497=EDGE_CURVE('',#666,#668,#825,.T.);
#498=EDGE_CURVE('',#669,#668,#826,.T.);
#499=EDGE_CURVE('',#667,#669,#827,.T.);
#500=EDGE_CURVE('',#668,#670,#828,.T.);
#501=EDGE_CURVE('',#671,#670,#829,.T.);
#502=EDGE_CURVE('',#669,#671,#830,.T.);
#503=EDGE_CURVE('',#670,#672,#831,.T.);
#504=EDGE_CURVE('',#673,#672,#832,.T.);
#505=EDGE_CURVE('',#671,#673,#833,.T.);
#506=EDGE_CURVE('',#672,#674,#834,.T.);
#507=EDGE_CURVE('',#675,#674,#835,.T.);
#508=EDGE_CURVE('',#673,#675,#836,.T.);
#509=EDGE_CURVE('',#674,#676,#837,.T.);
#510=EDGE_CURVE('',#677,#676,#838,.T.);
#511=EDGE_CURVE('',#675,#677,#839,.T.);
#512=EDGE_CURVE('',#676,#678,#840,.T.);
#513=EDGE_CURVE('',#679,#678,#841,.T.);
#514=EDGE_CURVE('',#677,#679,#842,.T.);
#515=EDGE_CURVE('',#678,#680,#843,.T.);
#516=EDGE_CURVE('',#681,#680,#844,.T.);
#517=EDGE_CURVE('',#679,#681,#845,.T.);
#518=EDGE_CURVE('',#680,#682,#846,.T.);
#519=EDGE_CURVE('',#683,#682,#847,.T.);
#520=EDGE_CURVE('',#681,#683,#848,.T.);
#521=EDGE_CURVE('',#682,#684,#849,.T.);
#522=EDGE_CURVE('',#685,#684,#850,.T.);
#523=EDGE_CURVE('',#683,#685,#851,.T.);
#524=EDGE_CURVE('',#684,#686,#852,.T.);
#525=EDGE_CURVE('',#687,#686,#853,.T.);
#526=EDGE_CURVE('',#685,#687,#854,.T.);
#527=EDGE_CURVE('',#686,#688,#855,.T.);
#528=EDGE_CURVE('',#689,#688,#856,.T.);
#529=EDGE_CURVE('',#687,#689,#857,.T.);
#530=EDGE_CURVE('',#688,#690,#858,.T.);
#531=EDGE_CURVE('',#691,#690,#859,.T.);
#532=EDGE_CURVE('',#689,#691,#860,.T.);
#533=EDGE_CURVE('',#690,#692,#861,.T.);
#534=EDGE_CURVE('',#693,#692,#862,.T.);
#535=EDGE_CURVE('',#691,#693,#863,.T.);
#536=EDGE_CURVE('',#692,#694,#864,.T.);
#537=EDGE_CURVE('',#695,#694,#865,.T.);
#538=EDGE_CURVE('',#693,#695,#866,.T.);
#539=EDGE_CURVE('',#694,#696,#867,.T.);
#540=EDGE_CURVE('',#697,#696,#868,.T.);
#541=EDGE_CURVE('',#695,#697,#869,.T.);
#542=EDGE_CURVE('',#696,#698,#870,.T.);
#543=EDGE_CURVE('',#699,#698,#871,.T.);
#544=EDGE_CURVE('',#697,#699,#872,.T.);
#545=EDGE_CURVE('',#698,#700,#873,.T.);
#546=EDGE_CURVE('',#701,#700,#874,.T.);
#547=EDGE_CURVE('',#699,#701,#875,.T.);
#548=EDGE_CURVE('',#700,#702,#876,.T.);
#549=EDGE_CURVE('',#703,#702,#877,.T.);
#550=EDGE_CURVE('',#701,#703,#878,.T.);
#551=EDGE_CURVE('',#702,#704,#879,.T.);
#552=EDGE_CURVE('',#705,#704,#880,.T.);
#553=EDGE_CURVE('',#703,#705,#881,.T.);
#554=EDGE_CURVE('',#704,#706,#882,.T.);
#555=EDGE_CURVE('',#707,#706,#883,.T.);
#556=EDGE_CURVE('',#705,#707,#884,.T.);
#557=EDGE_CURVE('',#706,#708,#885,.T.);
#558=EDGE_CURVE('',#709,#708,#886,.T.);
#559=EDGE_CURVE('',#707,#709,#887,.T.);
#560=EDGE_CURVE('',#708,#710,#888,.T.);
#561=EDGE_CURVE('',#711,#710,#889,.T.);
#562=EDGE_CURVE('',#709,#711,#890,.T.);
#563=EDGE_CURVE('',#710,#712,#891,.T.);
#564=EDGE_CURVE('',#713,#712,#892,.T.);
#565=EDGE_CURVE('',#711,#713,#893,.T.);
#566=EDGE_CURVE('',#712,#714,#894,.T.);
#567=EDGE_CURVE('',#715,#714,#895,.T.);
#568=EDGE_CURVE('',#713,#715,#896,.T.);
#569=EDGE_CURVE('',#714,#716,#897,.T.);
#570=EDGE_CURVE('',#717,#716,#898,.T.);
#571=EDGE_CURVE('',#715,#717,#899,.T.);
#572=EDGE_CURVE('',#716,#718,#900,.T.);
#573=EDGE_CURVE('',#719,#718,#901,.T.);
#574=EDGE_CURVE('',#717,#719,#902,.T.);
#575=EDGE_CURVE('',#718,#720,#903,.T.);
#576=EDGE_CURVE('',#721,#720,#904,.T.);
#577=EDGE_CURVE('',#719,#721,#905,.T.);
#578=EDGE_CURVE('',#720,#722,#906,.T.);
#579=EDGE_CURVE('',#723,#722,#907,.T.);
#580=EDGE_CURVE('',#721,#723,#908,.T.);
#581=EDGE_CURVE('',#722,#724,#909,.T.);
#582=EDGE_CURVE('',#725,#724,#910,.T.);
#583=EDGE_CURVE('',#723,#725,#911,.T.);
#584=EDGE_CURVE('',#724,#726,#912,.T.);
#585=EDGE_CURVE('',#727,#726,#913,.T.);
#586=EDGE_CURVE('',#725,#727,#914,.T.);
#587=EDGE_CURVE('',#726,#728,#915,.T.);
#588=EDGE_CURVE('',#729,#728,#916,.T.);
#589=EDGE_CURVE('',#727,#729,#917,.T.);
#590=EDGE_CURVE('',#728,#730,#918,.T.);
#591=EDGE_CURVE('',#731,#730,#919,.T.);
#592=EDGE_CURVE('',#729,#731,#920,.T.);
#593=EDGE_CURVE('',#730,#732,#921,.T.);
#594=EDGE_CURVE('',#733,#732,#922,.T.);
#595=EDGE_CURVE('',#731,#733,#923,.T.);
#596=EDGE_CURVE('',#732,#734,#924,.T.);
#597=EDGE_CURVE('',#735,#734,#925,.T.);
#598=EDGE_CURVE('',#733,#735,#926,.T.);
#599=EDGE_CURVE('',#734,#736,#927,.T.);
#600=EDGE_CURVE('',#737,#736,#928,.T.);
#601=EDGE_CURVE('',#735,#737,#929,.T.);
#602=EDGE_CURVE('',#736,#738,#930,.T.);
#603=EDGE_CURVE('',#739,#738,#931,.T.);
#604=EDGE_CURVE('',#737,#739,#932,.T.);
#605=EDGE_CURVE('',#738,#740,#933,.T.);
#606=EDGE_CURVE('',#741,#740,#934,.T.);
#607=EDGE_CURVE('',#739,#741,#935,.T.);
#608=EDGE_CURVE('',#742,#742,#20,.T.);
#609=EDGE_CURVE('',#743,#743,#21,.T.);
#610=EDGE_CURVE('',#744,#744,#22,.T.);
#611=EDGE_CURVE('',#745,#745,#23,.T.);
#612=EDGE_CURVE('',#740,#614,#936,.T.);
#613=EDGE_CURVE('',#741,#617,#937,.T.);
#614=VERTEX_POINT('',#1838);
#615=VERTEX_POINT('',#1839);
#616=VERTEX_POINT('',#1841);
#617=VERTEX_POINT('',#1843);
#618=VERTEX_POINT('',#1847);
#619=VERTEX_POINT('',#1849);
#620=VERTEX_POINT('',#1853);
#621=VERTEX_POINT('',#1855);
#622=VERTEX_POINT('',#1859);
#623=VERTEX_POINT('',#1861);
#624=VERTEX_POINT('',#1865);
#625=VERTEX_POINT('',#1867);
#626=VERTEX_POINT('',#1871);
#627=VERTEX_POINT('',#1873);
#628=VERTEX_POINT('',#1877);
#629=VERTEX_POINT('',#1879);
#630=VERTEX_POINT('',#1883);
#631=VERTEX_POINT('',#1885);
#632=VERTEX_POINT('',#1889);
#633=VERTEX_POINT('',#1891);
#634=VERTEX_POINT('',#1895);
#635=VERTEX_POINT('',#1897);
#636=VERTEX_POINT('',#1901);
#637=VERTEX_POINT('',#1903);
#638=VERTEX_POINT('',#1907);
#639=VERTEX_POINT('',#1909);
#640=VERTEX_POINT('',#1913);
#641=VERTEX_POINT('',#1915);
#642=VERTEX_POINT('',#1919);
#643=VERTEX_POINT('',#1921);
#644=VERTEX_POINT('',#1925);
#645=VERTEX_POINT('',#1927);
#646=VERTEX_POINT('',#1931);
#647=VERTEX_POINT('',#1933);
#648=VERTEX_POINT('',#1937);
#649=VERTEX_POINT('',#1939);
#650=VERTEX_POINT('',#1943);
#651=VERTEX_POINT('',#1945);
#652=VERTEX_POINT('',#1949);
#653=VERTEX_POINT('',#1951);
#654=VERTEX_POINT('',#1955);
#655=VERTEX_POINT('',#1957);
#656=VERTEX_POINT('',#1961);
#657=VERTEX_POINT('',#1963);
#658=VERTEX_POINT('',#1967);
#659=VERTEX_POINT('',#1969);
#660=VERTEX_POINT('',#1973);
#661=VERTEX_POINT('',#1975);
#662=VERTEX_POINT('',#1979);
#663=VERTEX_POINT('',#1981);
#664=VERTEX_POINT('',#1985);
#665=VERTEX_POINT('',#1987);
#666=VERTEX_POINT('',#1991);
#667=VERTEX_POINT('',#1993);
#668=VERTEX_POINT('',#1997);
#669=VERTEX_POINT('',#1999);
#670=VERTEX_POINT('',#2003);
#671=VERTEX_POINT('',#2005);
#672=VERTEX_POINT('',#2009);
#673=VERTEX_POINT('',#2011);
#674=VERTEX_POINT('',#2015);
#675=VERTEX_POINT('',#2017);
#676=VERTEX_POINT('',#2021);
#677=VERTEX_POINT('',#2023);
#678=VERTEX_POINT('',#2027);
#679=VERTEX_POINT('',#2029);
#680=VERTEX_POINT('',#2033);
#681=VERTEX_POINT('',#2035);
#682=VERTEX_POINT('',#2039);
#683=VERTEX_POINT('',#2041);
#684=VERTEX_POINT('',#2045);
#685=VERTEX_POINT('',#2047);
#686=VERTEX_POINT('',#2051);
#687=VERTEX_POINT('',#2053);
#688=VERTEX_POINT('',#2057);
#689=VERTEX_POINT('',#2059);
#690=VERTEX_POINT('',#2063);
#691=VERTEX_POINT('',#2065);
#692=VERTEX_POINT('',#2069);
#693=VERTEX_POINT('',#2071);
#694=VERTEX_POINT('',#2075);
#695=VERTEX_POINT('',#2077);
#696=VERTEX_POINT('',#2081);
#697=VERTEX_POINT('',#2083);
#698=VERTEX_POINT('',#2087);
#699=VERTEX_POINT('',#2089);
#700=VERTEX_POINT('',#2093);
#701=VERTEX_POINT('',#2095);
#702=VERTEX_POINT('',#2099);
#703=VERTEX_POINT('',#2101);
#704=VERTEX_POINT('',#2105);
#705=VERTEX_POINT('',#2107);
#706=VERTEX_POINT('',#2111);
#707=VERTEX_POINT('',#2113);
#708=VERTEX_POINT('',#2117);
#709=VERTEX_POINT('',#2119);
#710=VERTEX_POINT('',#2123);
#711=VERTEX_POINT('',#2125);
#712=VERTEX_POINT('',#2129);
#713=VERTEX_POINT('',#2131);
#714=VERTEX_POINT('',#2135);
#715=VERTEX_POINT('',#2137);
#716=VERTEX_POINT('',#2141);
#717=VERTEX_POINT('',#2143);
#718=VERTEX_POINT('',#2147);
#719=VERTEX_POINT('',#2149);
#720=VERTEX_POINT('',#2153);
#721=VERTEX_POINT('',#2155);
#722=VERTEX_POINT('',#2159);
#723=VERTEX_POINT('',#2161);
#724=VERTEX_POINT('',#2165);
#725=VERTEX_POINT('',#2167);
#726=VERTEX_POINT('',#2171);
#727=VERTEX_POINT('',#2173);
#728=VERTEX_POINT('',#2177);
#729=VERTEX_POINT('',#2179);
#730=VERTEX_POINT('',#2183);
#731=VERTEX_POINT('',#2185);
#732=VERTEX_POINT('',#2189);
#733=VERTEX_POINT('',#2191);
#734=VERTEX_POINT('',#2195);
#735=VERTEX_POINT('',#2197);
#736=VERTEX_POINT('',#2201);
#737=VERTEX_POINT('',#2203);
#738=VERTEX_POINT('',#2207);
#739=VERTEX_POINT('',#2209);
#740=VERTEX_POINT('',#2213);
#741=VERTEX_POINT('',#2215);
#742=VERTEX_POINT('',#2219);
#743=VERTEX_POINT('',#2221);
#744=VERTEX_POINT('',#2224);
#745=VERTEX_POINT('',#2226);
#746=LINE('',#1837,#938);
#747=LINE('',#1840,#939);
#748=LINE('',#1842,#940);
#749=LINE('',#1844,#941);
#750=LINE('',#1846,#942);
#751=LINE('',#1848,#943);
#752=LINE('',#1850,#944);
#753=LINE('',#1852,#945);
#754=LINE('',#1854,#946);
#755=LINE('',#1856,#947);
#756=LINE('',#1858,#948);
#757=LINE('',#1860,#949);
#758=LINE('',#1862,#950);
#759=LINE('',#1864,#951);
#760=LINE('',#1866,#952);
#761=LINE('',#1868,#953);
#762=LINE('',#1870,#954);
#763=LINE('',#1872,#955);
#764=LINE('',#1874,#956);
#765=LINE('',#1876,#957);
#766=LINE('',#1878,#958);
#767=LINE('',#1880,#959);
#768=LINE('',#1882,#960);
#769=LINE('',#1884,#961);
#770=LINE('',#1886,#962);
#771=LINE('',#1888,#963);
#772=LINE('',#1890,#964);
#773=LINE('',#1892,#965);
#774=LINE('',#1894,#966);
#775=LINE('',#1896,#967);
#776=LINE('',#1898,#968);
#777=LINE('',#1900,#969);
#778=LINE('',#1902,#970);
#779=LINE('',#1904,#971);
#780=LINE('',#1906,#972);
#781=LINE('',#1908,#973);
#782=LINE('',#1910,#974);
#783=LINE('',#1912,#975);
#784=LINE('',#1914,#976);
#785=LINE('',#1916,#977);
#786=LINE('',#1918,#978);
#787=LINE('',#1920,#979);
#788=LINE('',#1922,#980);
#789=LINE('',#1924,#981);
#790=LINE('',#1926,#982);
#791=LINE('',#1928,#983);
#792=LINE('',#1930,#984);
#793=LINE('',#1932,#985);
#794=LINE('',#1934,#986);
#795=LINE('',#1936,#987);
#796=LINE('',#1938,#988);
#797=LINE('',#1940,#989);
#798=LINE('',#1942,#990);
#799=LINE('',#1944,#991);
#800=LINE('',#1946,#992);
#801=LINE('',#1948,#993);
#802=LINE('',#1950,#994);
#803=LINE('',#1952,#995);
#804=LINE('',#1954,#996);
#805=LINE('',#1956,#997);
#806=LINE('',#1958,#998);
#807=LINE('',#1960,#999);
#808=LINE('',#1962,#1000);
#809=LINE('',#1964,#1001);
#810=LINE('',#1966,#1002);
#811=LINE('',#1968,#1003);
#812=LINE('',#1970,#1004);
#813=LINE('',#1972,#1005);
#814=LINE('',#1974,#1006);
#815=LINE('',#1976,#1007);
#816=LINE('',#1978,#1008);
#817=LINE('',#1980,#1009);
#818=LINE('',#1982,#1010);
#819=LINE('',#1984,#1011);
#820=LINE('',#1986,#1012);
#821=LINE('',#1988,#1013);
#822=LINE('',#1990,#1014);
#823=LINE('',#1992,#1015);
#824=LINE('',#1994,#1016);
#825=LINE('',#1996,#1017);
#826=LINE('',#1998,#1018);
#827=LINE('',#2000,#1019);
#828=LINE('',#2002,#1020);
#829=LINE('',#2004,#1021);
#830=LINE('',#2006,#1022);
#831=LINE('',#2008,#1023);
#832=LINE('',#2010,#1024);
#833=LINE('',#2012,#1025);
#834=LINE('',#2014,#1026);
#835=LINE('',#2016,#1027);
#836=LINE('',#2018,#1028);
#837=LINE('',#2020,#1029);
#838=LINE('',#2022,#1030);
#839=LINE('',#2024,#1031);
#840=LINE('',#2026,#1032);
#841=LINE('',#2028,#1033);
#842=LINE('',#2030,#1034);
#843=LINE('',#2032,#1035);
#844=LINE('',#2034,#1036);
#845=LINE('',#2036,#1037);
#846=LINE('',#2038,#1038);
#847=LINE('',#2040,#1039);
#848=LINE('',#2042,#1040);
#849=LINE('',#2044,#1041);
#850=LINE('',#2046,#1042);
#851=LINE('',#2048,#1043);
#852=LINE('',#2050,#1044);
#853=LINE('',#2052,#1045);
#854=LINE('',#2054,#1046);
#855=LINE('',#2056,#1047);
#856=LINE('',#2058,#1048);
#857=LINE('',#2060,#1049);
#858=LINE('',#2062,#1050);
#859=LINE('',#2064,#1051);
#860=LINE('',#2066,#1052);
#861=LINE('',#2068,#1053);
#862=LINE('',#2070,#1054);
#863=LINE('',#2072,#1055);
#864=LINE('',#2074,#1056);
#865=LINE('',#2076,#1057);
#866=LINE('',#2078,#1058);
#867=LINE('',#2080,#1059);
#868=LINE('',#2082,#1060);
#869=LINE('',#2084,#1061);
#870=LINE('',#2086,#1062);
#871=LINE('',#2088,#1063);
#872=LINE('',#2090,#1064);
#873=LINE('',#2092,#1065);
#874=LINE('',#2094,#1066);
#875=LINE('',#2096,#1067);
#876=LINE('',#2098,#1068);
#877=LINE('',#2100,#1069);
#878=LINE('',#2102,#1070);
#879=LINE('',#2104,#1071);
#880=LINE('',#2106,#1072);
#881=LINE('',#2108,#1073);
#882=LINE('',#2110,#1074);
#883=LINE('',#2112,#1075);
#884=LINE('',#2114,#1076);
#885=LINE('',#2116,#1077);
#886=LINE('',#2118,#1078);
#887=LINE('',#2120,#1079);
#888=LINE('',#2122,#1080);
#889=LINE('',#2124,#1081);
#890=LINE('',#2126,#1082);
#891=LINE('',#2128,#1083);
#892=LINE('',#2130,#1084);
#893=LINE('',#2132,#1085);
#894=LINE('',#2134,#1086);
#895=LINE('',#2136,#1087);
#896=LINE('',#2138,#1088);
#897=LINE('',#2140,#1089);
#898=LINE('',#2142,#1090);
#899=LINE('',#2144,#1091);
#900=LINE('',#2146,#1092);
#901=LINE('',#2148,#1093);
#902=LINE('',#2150,#1094);
#903=LINE('',#2152,#1095);
#904=LINE('',#2154,#1096);
#905=LINE('',#2156,#1097);
#906=LINE('',#2158,#1098);
#907=LINE('',#2160,#1099);
#908=LINE('',#2162,#1100);
#909=LINE('',#2164,#1101);
#910=LINE('',#2166,#1102);
#911=LINE('',#2168,#1103);
#912=LINE('',#2170,#1104);
#913=LINE('',#2172,#1105);
#914=LINE('',#2174,#1106);
#915=LINE('',#2176,#1107);
#916=LINE('',#2178,#1108);
#917=LINE('',#2180,#1109);
#918=LINE('',#2182,#1110);
#919=LINE('',#2184,#1111);
#920=LINE('',#2186,#1112);
#921=LINE('',#2188,#1113);
#922=LINE('',#2190,#1114);
#923=LINE('',#2192,#1115);
#924=LINE('',#2194,#1116);
#925=LINE('',#2196,#1117);
#926=LINE('',#2198,#1118);
#927=LINE('',#2200,#1119);
#928=LINE('',#2202,#1120);
#929=LINE('',#2204,#1121);
#930=LINE('',#2206,#1122);
#931=LINE('',#2208,#1123);
#932=LINE('',#2210,#1124);
#933=LINE('',#2212,#1125);
#934=LINE('',#2214,#1126);
#935=LINE('',#2216,#1127);
#936=LINE('',#2228,#1128);
#937=LINE('',#2229,#1129);
#938=VECTOR('',#1501,1000.);
#939=VECTOR('',#1502,1000.);
#940=VECTOR('',#1503,1000.);
#941=VECTOR('',#1504,1000.);
#942=VECTOR('',#1507,1000.);
#943=VECTOR('',#1508,1000.);
#944=VECTOR('',#1509,1000.);
#945=VECTOR('',#1512,1000.);
#946=VECTOR('',#1513,1000.);
#947=VECTOR('',#1514,1000.);
#948=VECTOR('',#1517,1000.);
#949=VECTOR('',#1518,1000.);
#950=VECTOR('',#1519,1000.);
#951=VECTOR('',#1522,1000.);
#952=VECTOR('',#1523,1000.);
#953=VECTOR('',#1524,1000.);
#954=VECTOR('',#1527,1000.);
#955=VECTOR('',#1528,1000.);
#956=VECTOR('',#1529,1000.);
#957=VECTOR('',#1532,1000.);
#958=VECTOR('',#1533,1000.);
#959=VECTOR('',#1534,1000.);
#960=VECTOR('',#1537,1000.);
#961=VECTOR('',#1538,1000.);
#962=VECTOR('',#1539,1000.);
#963=VECTOR('',#1542,1000.);
#964=VECTOR('',#1543,1000.);
#965=VECTOR('',#1544,1000.);
#966=VECTOR('',#1547,1000.);
#967=VECTOR('',#1548,1000.);
#968=VECTOR('',#1549,1000.);
#969=VECTOR('',#1552,1000.);
#970=VECTOR('',#1553,1000.);
#971=VECTOR('',#1554,1000.);
#972=VECTOR('',#1557,1000.);
#973=VECTOR('',#1558,1000.);
#974=VECTOR('',#1559,1000.);
#975=VECTOR('',#1562,1000.);
#976=VECTOR('',#1563,1000.);
#977=VECTOR('',#1564,1000.);
#978=VECTOR('',#1567,1000.);
#979=VECTOR('',#1568,1000.);
#980=VECTOR('',#1569,1000.);
#981=VECTOR('',#1572,1000.);
#982=VECTOR('',#1573,1000.);
#983=VECTOR('',#1574,1000.);
#984=VECTOR('',#1577,1000.);
#985=VECTOR('',#1578,1000.);
#986=VECTOR('',#1579,1000.);
#987=VECTOR('',#1582,1000.);
#988=VECTOR('',#1583,1000.);
#989=VECTOR('',#1584,1000.);
#990=VECTOR('',#1587,1000.);
#991=VECTOR('',#1588,1000.);
#992=VECTOR('',#1589,1000.);
#993=VECTOR('',#1592,1000.);
#994=VECTOR('',#1593,1000.);
#995=VECTOR('',#1594,1000.);
#996=VECTOR('',#1597,1000.);
#997=VECTOR('',#1598,1000.);
#998=VECTOR('',#1599,1000.);
#999=VECTOR('',#1602,1000.);
#1000=VECTOR('',#1603,1000.);
#1001=VECTOR('',#1604,1000.);
#1002=VECTOR('',#1607,1000.);
#1003=VECTOR('',#1608,1000.);
#1004=VECTOR('',#1609,1000.);
#1005=VECTOR('',#1612,1000.);
#1006=VECTOR('',#1613,1000.);
#1007=VECTOR('',#1614,1000.);
#1008=VECTOR('',#1617,1000.);
#1009=VECTOR('',#1618,1000.);
#1010=VECTOR('',#1619,1000.);
#1011=VECTOR('',#1622,1000.);
#1012=VECTOR('',#1623,1000.);
#1013=VECTOR('',#1624,1000.);
#1014=VECTOR('',#1627,1000.);
#1015=VECTOR('',#1628,1000.);
#1016=VECTOR('',#1629,1000.);
#1017=VECTOR('',#1632,1000.);
#1018=VECTOR('',#1633,1000.);
#1019=VECTOR('',#1634,1000.);
#1020=VECTOR('',#1637,1000.);
#1021=VECTOR('',#1638,1000.);
#1022=VECTOR('',#1639,1000.);
#1023=VECTOR('',#1642,1000.);
#1024=VECTOR('',#1643,1000.);
#1025=VECTOR('',#1644,1000.);
#1026=VECTOR('',#1647,1000.);
#1027=VECTOR('',#1648,1000.);
#1028=VECTOR('',#1649,1000.);
#1029=VECTOR('',#1652,1000.);
#1030=VECTOR('',#1653,1000.);
#1031=VECTOR('',#1654,1000.);
#1032=VECTOR('',#1657,1000.);
#1033=VECTOR('',#1658,1000.);
#1034=VECTOR('',#1659,1000.);
#1035=VECTOR('',#1662,1000.);
#1036=VECTOR('',#1663,1000.);
#1037=VECTOR('',#1664,1000.);
#1038=VECTOR('',#1667,1000.);
#1039=VECTOR('',#1668,1000.);
#1040=VECTOR('',#1669,1000.);
#1041=VECTOR('',#1672,1000.);
#1042=VECTOR('',#1673,1000.);
#1043=VECTOR('',#1674,1000.);
#1044=VECTOR('',#1677,1000.);
#1045=VECTOR('',#1678,1000.);
#1046=VECTOR('',#1679,1000.);
#1047=VECTOR('',#1682,1000.);
#1048=VECTOR('',#1683,1000.);
#1049=VECTOR('',#1684,1000.);
#1050=VECTOR('',#1687,1000.);
#1051=VECTOR('',#1688,1000.);
#1052=VECTOR('',#1689,1000.);
#1053=VECTOR('',#1692,1000.);
#1054=VECTOR('',#1693,1000.);
#1055=VECTOR('',#1694,1000.);
#1056=VECTOR('',#1697,1000.);
#1057=VECTOR('',#1698,1000.);
#1058=VECTOR('',#1699,1000.);
#1059=VECTOR('',#1702,1000.);
#1060=VECTOR('',#1703,1000.);
#1061=VECTOR('',#1704,1000.);
#1062=VECTOR('',#1707,1000.);
#1063=VECTOR('',#1708,1000.);
#1064=VECTOR('',#1709,1000.);
#1065=VECTOR('',#1712,1000.);
#1066=VECTOR('',#1713,1000.);
#1067=VECTOR('',#1714,1000.);
#1068=VECTOR('',#1717,1000.);
#1069=VECTOR('',#1718,1000.);
#1070=VECTOR('',#1719,1000.);
#1071=VECTOR('',#1722,1000.);
#1072=VECTOR('',#1723,1000.);
#1073=VECTOR('',#1724,1000.);
#1074=VECTOR('',#1727,1000.);
#1075=VECTOR('',#1728,1000.);
#1076=VECTOR('',#1729,1000.);
#1077=VECTOR('',#1732,1000.);
#1078=VECTOR('',#1733,1000.);
#1079=VECTOR('',#1734,1000.);
#1080=VECTOR('',#1737,1000.);
#1081=VECTOR('',#1738,1000.);
#1082=VECTOR('',#1739,1000.);
#1083=VECTOR('',#1742,1000.);
#1084=VECTOR('',#1743,1000.);
#1085=VECTOR('',#1744,1000.);
#1086=VECTOR('',#1747,1000.);
#1087=VECTOR('',#1748,1000.);
#1088=VECTOR('',#1749,1000.);
#1089=VECTOR('',#1752,1000.);
#1090=VECTOR('',#1753,1000.);
#1091=VECTOR('',#1754,1000.);
#1092=VECTOR('',#1757,1000.);
#1093=VECTOR('',#1758,1000.);
#1094=VECTOR('',#1759,1000.);
#1095=VECTOR('',#1762,1000.);
#1096=VECTOR('',#1763,1000.);
#1097=VECTOR('',#1764,1000.);
#1098=VECTOR('',#1767,1000.);
#1099=VECTOR('',#1768,1000.);
#1100=VECTOR('',#1769,1000.);
#1101=VECTOR('',#1772,1000.);
#1102=VECTOR('',#1773,1000.);
#1103=VECTOR('',#1774,1000.);
#1104=VECTOR('',#1777,1000.);
#1105=VECTOR('',#1778,1000.);
#1106=VECTOR('',#1779,1000.);
#1107=VECTOR('',#1782,1000.);
#1108=VECTOR('',#1783,1000.);
#1109=VECTOR('',#1784,1000.);
#1110=VECTOR('',#1787,1000.);
#1111=VECTOR('',#1788,1000.);
#1112=VECTOR('',#1789,1000.);
#1113=VECTOR('',#1792,1000.);
#1114=VECTOR('',#1793,1000.);
#1115=VECTOR('',#1794,1000.);
#1116=VECTOR('',#1797,1000.);
#1117=VECTOR('',#1798,1000.);
#1118=VECTOR('',#1799,1000.);
#1119=VECTOR('',#1802,1000.);
#1120=VECTOR('',#1803,1000.);
#1121=VECTOR('',#1804,1000.);
#1122=VECTOR('',#1807,1000.);
#1123=VECTOR('',#1808,1000.);
#1124=VECTOR('',#1809,1000.);
#1125=VECTOR('',#1812,1000.);
#1126=VECTOR('',#1813,1000.);
#1127=VECTOR('',#1814,1000.);
#1128=VECTOR('',#1829,1000.);
#1129=VECTOR('',#1830,1000.);
#1130=EDGE_LOOP('',(#26,#27,#28,#29));
#1131=EDGE_LOOP('',(#30,#31,#32,#33));
#1132=EDGE_LOOP('',(#34,#35,#36,#37));
#1133=EDGE_LOOP('',(#38,#39,#40,#41));
#1134=EDGE_LOOP('',(#42,#43,#44,#45));
#1135=EDGE_LOOP('',(#46,#47,#48,#49));
#1136=EDGE_LOOP('',(#50,#51,#52,#53));
#1137=EDGE_LOOP('',(#54,#55,#56,#57));
#1138=EDGE_LOOP('',(#58,#59,#60,#61));
#1139=EDGE_LOOP('',(#62,#63,#64,#65));
#1140=EDGE_LOOP('',(#66,#67,#68,#69));
#1141=EDGE_LOOP('',(#70,#71,#72,#73));
#1142=EDGE_LOOP('',(#74,#75,#76,#77));
#1143=EDGE_LOOP('',(#78,#79,#80,#81));
#1144=EDGE_LOOP('',(#82,#83,#84,#85));
#1145=EDGE_LOOP('',(#86,#87,#88,#89));
#1146=EDGE_LOOP('',(#90,#91,#92,#93));
#1147=EDGE_LOOP('',(#94,#95,#96,#97));
#1148=EDGE_LOOP('',(#98,#99,#100,#101));
#1149=EDGE_LOOP('',(#102,#103,#104,#105));
#1150=EDGE_LOOP('',(#106,#107,#108,#109));
#1151=EDGE_LOOP('',(#110,#111,#112,#113));
#1152=EDGE_LOOP('',(#114,#115,#116,#117));
#1153=EDGE_LOOP('',(#118,#119,#120,#121));
#1154=EDGE_LOOP('',(#122,#123,#124,#125));
#1155=EDGE_LOOP('',(#126,#127,#128,#129));
#1156=EDGE_LOOP('',(#130,#131,#132,#133));
#1157=EDGE_LOOP('',(#134,#135,#136,#137));
#1158=EDGE_LOOP('',(#138,#139,#140,#141));
#1159=EDGE_LOOP('',(#142,#143,#144,#145));
#1160=EDGE_LOOP('',(#146,#147,#148,#149));
#1161=EDGE_LOOP('',(#150,#151,#152,#153));
#1162=EDGE_LOOP('',(#154,#155,#156,#157));
#1163=EDGE_LOOP('',(#158,#159,#160,#161));
#1164=EDGE_LOOP('',(#162,#163,#164,#165));
#1165=EDGE_LOOP('',(#166,#167,#168,#169));
#1166=EDGE_LOOP('',(#170,#171,#172,#173));
#1167=EDGE_LOOP('',(#174,#175,#176,#177));
#1168=EDGE_LOOP('',(#178,#179,#180,#181));
#1169=EDGE_LOOP('',(#182,#183,#184,#185));
#1170=EDGE_LOOP('',(#186,#187,#188,#189));
#1171=EDGE_LOOP('',(#190,#191,#192,#193));
#1172=EDGE_LOOP('',(#194,#195,#196,#197));
#1173=EDGE_LOOP('',(#198,#199,#200,#201));
#1174=EDGE_LOOP('',(#202,#203,#204,#205));
#1175=EDGE_LOOP('',(#206,#207,#208,#209));
#1176=EDGE_LOOP('',(#210,#211,#212,#213));
#1177=EDGE_LOOP('',(#214,#215,#216,#217));
#1178=EDGE_LOOP('',(#218,#219,#220,#221));
#1179=EDGE_LOOP('',(#222,#223,#224,#225));
#1180=EDGE_LOOP('',(#226,#227,#228,#229));
#1181=EDGE_LOOP('',(#230,#231,#232,#233));
#1182=EDGE_LOOP('',(#234,#235,#236,#237));
#1183=EDGE_LOOP('',(#238,#239,#240,#241));
#1184=EDGE_LOOP('',(#242,#243,#244,#245));
#1185=EDGE_LOOP('',(#246,#247,#248,#249));
#1186=EDGE_LOOP('',(#250,#251,#252,#253));
#1187=EDGE_LOOP('',(#254,#255,#256,#257));
#1188=EDGE_LOOP('',(#258,#259,#260,#261));
#1189=EDGE_LOOP('',(#262,#263,#264,#265));
#1190=EDGE_LOOP('',(#266,#267,#268,#269));
#1191=EDGE_LOOP('',(#270,#271,#272,#273));
#1192=EDGE_LOOP('',(#274,#275,#276,#277));
#1193=EDGE_LOOP('',(#278));
#1194=EDGE_LOOP('',(#279));
#1195=EDGE_LOOP('',(#280));
#1196=EDGE_LOOP('',(#281));
#1197=EDGE_LOOP('',(#282,#283,#284,#285));
#1198=EDGE_LOOP('',(#286));
#1199=EDGE_LOOP('',(#287));
#1200=EDGE_LOOP('',(#288,#289,#290,#291,#292,#293,#294,#295,#296,#297,#298,
#299,#300,#301,#302,#303,#304,#305,#306,#307,#308,#309,#310,#311,#312,#313,
#314,#315,#316,#317,#318,#319,#320,#321,#322,#323,#324,#325,#326,#327,#328,
#329,#330,#331,#332,#333,#334,#335,#336,#337,#338,#339,#340,#341,#342,#343,
#344,#345,#346,#347,#348,#349,#350,#351));
#1201=EDGE_LOOP('',(#352));
#1202=EDGE_LOOP('',(#353));
#1203=EDGE_LOOP('',(#354,#355,#356,#357,#358,#359,#360,#361,#362,#363,#364,
#365,#366,#367,#368,#369,#370,#371,#372,#373,#374,#375,#376,#377,#378,#379,
#380,#381,#382,#383,#384,#385,#386,#387,#388,#389,#390,#391,#392,#393,#394,
#395,#396,#397,#398,#399,#400,#401,#402,#403,#404,#405,#406,#407,#408,#409,
#410,#411,#412,#413,#414,#415,#416,#417));
#1204=FACE_BOUND('',#1130,.T.);
#1205=FACE_BOUND('',#1131,.T.);
#1206=FACE_BOUND('',#1132,.T.);
#1207=FACE_BOUND('',#1133,.T.);
#1208=FACE_BOUND('',#1134,.T.);
#1209=FACE_BOUND('',#1135,.T.);
#1210=FACE_BOUND('',#1136,.T.);
#1211=FACE_BOUND('',#1137,.T.);
#1212=FACE_BOUND('',#1138,.T.);
#1213=FACE_BOUND('',#1139,.T.);
#1214=FACE_BOUND('',#1140,.T.);
#1215=FACE_BOUND('',#1141,.T.);
#1216=FACE_BOUND('',#1142,.T.);
#1217=FACE_BOUND('',#1143,.T.);
#1218=FACE_BOUND('',#1144,.T.);
#1219=FACE_BOUND('',#1145,.T.);
#1220=FACE_BOUND('',#1146,.T.);
#1221=FACE_BOUND('',#1147,.T.);
#1222=FACE_BOUND('',#1148,.T.);
#1223=FACE_BOUND('',#1149,.T.);
#1224=FACE_BOUND('',#1150,.T.);
#1225=FACE_BOUND('',#1151,.T.);
#1226=FACE_BOUND('',#1152,.T.);
#1227=FACE_BOUND('',#1153,.T.);
#1228=FACE_BOUND('',#1154,.T.);
#1229=FACE_BOUND('',#1155,.T.);
#1230=FACE_BOUND('',#1156,.T.);
#1231=FACE_BOUND('',#1157,.T.);
#1232=FACE_BOUND('',#1158,.T.);
#1233=FACE_BOUND('',#1159,.T.);
#1234=FACE_BOUND('',#1160,.T.);
#1235=FACE_BOUND('',#1161,.T.);
#1236=FACE_BOUND('',#1162,.T.);
#1237=FACE_BOUND('',#1163,.T.);
#1238=FACE_BOUND('',#1164,.T.);
#1239=FACE_BOUND('',#1165,.T.);
#1240=FACE_BOUND('',#1166,.T.);
#1241=FACE_BOUND('',#1167,.T.);
#1242=FACE_BOUND('',#1168,.T.);
#1243=FACE_BOUND('',#1169,.T.);
#1244=FACE_BOUND('',#1170,.T.);
#1245=FACE_BOUND('',#1171,.T.);
#1246=FACE_BOUND('',#1172,.T.);
#1247=FACE_BOUND('',#1173,.T.);
#1248=FACE_BOUND('',#1174,.T.);
#1249=FACE_BOUND('',#1175,.T.);
#1250=FACE_BOUND('',#1176,.T.);
#1251=FACE_BOUND('',#1177,.T.);
#1252=FACE_BOUND('',#1178,.T.);
#1253=FACE_BOUND('',#1179,.T.);
#1254=FACE_BOUND('',#1180,.T.);
#1255=FACE_BOUND('',#1181,.T.);
#1256=FACE_BOUND('',#1182,.T.);
#1257=FACE_BOUND('',#1183,.T.);
#1258=FACE_BOUND('',#1184,.T.);
#1259=FACE_BOUND('',#1185,.T.);
#1260=FACE_BOUND('',#1186,.T.);
#1261=FACE_BOUND('',#1187,.T.);
#1262=FACE_BOUND('',#1188,.T.);
#1263=FACE_BOUND('',#1189,.T.);
#1264=FACE_BOUND('',#1190,.T.);
#1265=FACE_BOUND('',#1191,.T.);
#1266=FACE_BOUND('',#1192,.T.);
#1267=FACE_BOUND('',#1193,.T.);
#1268=FACE_BOUND('',#1194,.T.);
#1269=FACE_BOUND('',#1195,.T.);
#1270=FACE_BOUND('',#1196,.T.);
#1271=FACE_BOUND('',#1197,.T.);
#1272=FACE_BOUND('',#1198,.T.);
#1273=FACE_BOUND('',#1199,.T.);
#1274=FACE_BOUND('',#1200,.T.);
#1275=FACE_BOUND('',#1201,.T.);
#1276=FACE_BOUND('',#1202,.T.);
#1277=FACE_BOUND('',#1203,.T.);
#1278=PLANE('',#1425);
#1279=PLANE('',#1426);
#1280=PLANE('',#1427);
#1281=PLANE('',#1428);
#1282=PLANE('',#1429);
#1283=PLANE('',#1430);
#1284=PLANE('',#1431);
#1285=PLANE('',#1432);
#1286=PLANE('',#1433);
#1287=PLANE('',#1434);
#1288=PLANE('',#1435);
#1289=PLANE('',#1436);
#1290=PLANE('',#1437);
#1291=PLANE('',#1438);
#1292=PLANE('',#1439);
#1293=PLANE('',#1440);
#1294=PLANE('',#1441);
#1295=PLANE('',#1442);
#1296=PLANE('',#1443);
#1297=PLANE('',#1444);
#1298=PLANE('',#1445);
#1299=PLANE('',#1446);
#1300=PLANE('',#1447);
#1301=PLANE('',#1448);
#1302=PLANE('',#1449);
#1303=PLANE('',#1450);
#1304=PLANE('',#1451);
#1305=PLANE('',#1452);
#1306=PLANE('',#1453);
#1307=PLANE('',#1454);
#1308=PLANE('',#1455);
#1309=PLANE('',#1456);
#1310=PLANE('',#1457);
#1311=PLANE('',#1458);
#1312=PLANE('',#1459);
#1313=PLANE('',#1460);
#1314=PLANE('',#1461);
#1315=PLANE('',#1462);
#1316=PLANE('',#1463);
#1317=PLANE('',#1464);
#1318=PLANE('',#1465);
#1319=PLANE('',#1466);
#1320=PLANE('',#1467);
#1321=PLANE('',#1468);
#1322=PLANE('',#1469);
#1323=PLANE('',#1470);
#1324=PLANE('',#1471);
#1325=PLANE('',#1472);
#1326=PLANE('',#1473);
#1327=PLANE('',#1474);
#1328=PLANE('',#1475);
#1329=PLANE('',#1476);
#1330=PLANE('',#1477);
#1331=PLANE('',#1478);
#1332=PLANE('',#1479);
#1333=PLANE('',#1480);
#1334=PLANE('',#1481);
#1335=PLANE('',#1482);
#1336=PLANE('',#1483);
#1337=PLANE('',#1484);
#1338=PLANE('',#1485);
#1339=PLANE('',#1486);
#1340=PLANE('',#1487);
#1341=PLANE('',#1494);
#1342=PLANE('',#1495);
#1343=PLANE('',#1496);
#1344=ADVANCED_FACE('',(#1204),#1278,.F.);
#1345=ADVANCED_FACE('',(#1205),#1279,.F.);
#1346=ADVANCED_FACE('',(#1206),#1280,.F.);
#1347=ADVANCED_FACE('',(#1207),#1281,.F.);
#1348=ADVANCED_FACE('',(#1208),#1282,.F.);
#1349=ADVANCED_FACE('',(#1209),#1283,.F.);
#1350=ADVANCED_FACE('',(#1210),#1284,.F.);
#1351=ADVANCED_FACE('',(#1211),#1285,.F.);
#1352=ADVANCED_FACE('',(#1212),#1286,.F.);
#1353=ADVANCED_FACE('',(#1213),#1287,.F.);
#1354=ADVANCED_FACE('',(#1214),#1288,.F.);
#1355=ADVANCED_FACE('',(#1215),#1289,.F.);
#1356=ADVANCED_FACE('',(#1216),#1290,.F.);
#1357=ADVANCED_FACE('',(#1217),#1291,.F.);
#1358=ADVANCED_FACE('',(#1218),#1292,.F.);
#1359=ADVANCED_FACE('',(#1219),#1293,.F.);
#1360=ADVANCED_FACE('',(#1220),#1294,.F.);
#1361=ADVANCED_FACE('',(#1221),#1295,.F.);
#1362=ADVANCED_FACE('',(#1222),#1296,.F.);
#1363=ADVANCED_FACE('',(#1223),#1297,.F.);
#1364=ADVANCED_FACE('',(#1224),#1298,.F.);
#1365=ADVANCED_FACE('',(#1225),#1299,.F.);
#1366=ADVANCED_FACE('',(#1226),#1300,.F.);
#1367=ADVANCED_FACE('',(#1227),#1301,.F.);
#1368=ADVANCED_FACE('',(#1228),#1302,.F.);
#1369=ADVANCED_FACE('',(#1229),#1303,.F.);
#1370=ADVANCED_FACE('',(#1230),#1304,.F.);
#1371=ADVANCED_FACE('',(#1231),#1305,.F.);
#1372=ADVANCED_FACE('',(#1232),#1306,.F.);
#1373=ADVANCED_FACE('',(#1233),#1307,.F.);
#1374=ADVANCED_FACE('',(#1234),#1308,.F.);
#1375=ADVANCED_FACE('',(#1235),#1309,.F.);
#1376=ADVANCED_FACE('',(#1236),#1310,.F.);
#1377=ADVANCED_FACE('',(#1237),#1311,.F.);
#1378=ADVANCED_FACE('',(#1238),#1312,.F.);
#1379=ADVANCED_FACE('',(#1239),#1313,.F.);
#1380=ADVANCED_FACE('',(#1240),#1314,.F.);
#1381=ADVANCED_FACE('',(#1241),#1315,.F.);
#1382=ADVANCED_FACE('',(#1242),#1316,.F.);
#1383=ADVANCED_FACE('',(#1243),#1317,.F.);
#1384=ADVANCED_FACE('',(#1244),#1318,.F.);
#1385=ADVANCED_FACE('',(#1245),#1319,.F.);
#1386=ADVANCED_FACE('',(#1246),#1320,.F.);
#1387=ADVANCED_FACE('',(#1247),#1321,.F.);
#1388=ADVANCED_FACE('',(#1248),#1322,.F.);
#1389=ADVANCED_FACE('',(#1249),#1323,.F.);
#1390=ADVANCED_FACE('',(#1250),#1324,.F.);
#1391=ADVANCED_FACE('',(#1251),#1325,.F.);
#1392=ADVANCED_FACE('',(#1252),#1326,.F.);
#1393=ADVANCED_FACE('',(#1253),#1327,.F.);
#1394=ADVANCED_FACE('',(#1254),#1328,.F.);
#1395=ADVANCED_FACE('',(#1255),#1329,.F.);
#1396=ADVANCED_FACE('',(#1256),#1330,.F.);
#1397=ADVANCED_FACE('',(#1257),#1331,.F.);
#1398=ADVANCED_FACE('',(#1258),#1332,.F.);
#1399=ADVANCED_FACE('',(#1259),#1333,.F.);
#1400=ADVANCED_FACE('',(#1260),#1334,.F.);
#1401=ADVANCED_FACE('',(#1261),#1335,.F.);
#1402=ADVANCED_FACE('',(#1262),#1336,.F.);
#1403=ADVANCED_FACE('',(#1263),#1337,.F.);
#1404=ADVANCED_FACE('',(#1264),#1338,.F.);
#1405=ADVANCED_FACE('',(#1265),#1339,.F.);
#1406=ADVANCED_FACE('',(#1266),#1340,.F.);
#1407=ADVANCED_FACE('',(#1267,#1268),#24,.F.);
#1408=ADVANCED_FACE('',(#1269,#1270),#25,.F.);
#1409=ADVANCED_FACE('',(#1271),#1341,.F.);
#1410=ADVANCED_FACE('',(#1272,#1273,#1274),#1342,.T.);
#1411=ADVANCED_FACE('',(#1275,#1276,#1277),#1343,.F.);
#1412=CLOSED_SHELL('',(#1344,#1345,#1346,#1347,#1348,#1349,#1350,#1351,
#1352,#1353,#1354,#1355,#1356,#1357,#1358,#1359,#1360,#1361,#1362,#1363,
#1364,#1365,#1366,#1367,#1368,#1369,#1370,#1371,#1372,#1373,#1374,#1375,
#1376,#1377,#1378,#1379,#1380,#1381,#1382,#1383,#1384,#1385,#1386,#1387,
#1388,#1389,#1390,#1391,#1392,#1393,#1394,#1395,#1396,#1397,#1398,#1399,
#1400,#1401,#1402,#1403,#1404,#1405,#1406,#1407,#1408,#1409,#1410,#1411));
#1413=STYLED_ITEM('',(#1414),#1421);
#1414=PRESENTATION_STYLE_ASSIGNMENT((#1415));
#1415=SURFACE_STYLE_USAGE(.BOTH.,#1416);
#1416=SURFACE_SIDE_STYLE('',(#1417));
#1417=SURFACE_STYLE_FILL_AREA(#1418);
#1418=FILL_AREA_STYLE('',(#1419));
#1419=FILL_AREA_STYLE_COLOUR('',#1420);
#1420=COLOUR_RGB('',0.506983280181885,0.531564235687256,0.550000011920929);
#1421=MANIFOLD_SOLID_BREP('',#1412);
#1422=SHAPE_DEFINITION_REPRESENTATION(#2238,#1423);
#1423=SHAPE_REPRESENTATION('P21_gripper_rack',(#1424),#2233);
#1424=AXIS2_PLACEMENT_3D('',#1835,#1497,#1498);
#1425=AXIS2_PLACEMENT_3D('',#1836,#1499,#1500);
#1426=AXIS2_PLACEMENT_3D('',#1845,#1505,#1506);
#1427=AXIS2_PLACEMENT_3D('',#1851,#1510,#1511);
#1428=AXIS2_PLACEMENT_3D('',#1857,#1515,#1516);
#1429=AXIS2_PLACEMENT_3D('',#1863,#1520,#1521);
#1430=AXIS2_PLACEMENT_3D('',#1869,#1525,#1526);
#1431=AXIS2_PLACEMENT_3D('',#1875,#1530,#1531);
#1432=AXIS2_PLACEMENT_3D('',#1881,#1535,#1536);
#1433=AXIS2_PLACEMENT_3D('',#1887,#1540,#1541);
#1434=AXIS2_PLACEMENT_3D('',#1893,#1545,#1546);
#1435=AXIS2_PLACEMENT_3D('',#1899,#1550,#1551);
#1436=AXIS2_PLACEMENT_3D('',#1905,#1555,#1556);
#1437=AXIS2_PLACEMENT_3D('',#1911,#1560,#1561);
#1438=AXIS2_PLACEMENT_3D('',#1917,#1565,#1566);
#1439=AXIS2_PLACEMENT_3D('',#1923,#1570,#1571);
#1440=AXIS2_PLACEMENT_3D('',#1929,#1575,#1576);
#1441=AXIS2_PLACEMENT_3D('',#1935,#1580,#1581);
#1442=AXIS2_PLACEMENT_3D('',#1941,#1585,#1586);
#1443=AXIS2_PLACEMENT_3D('',#1947,#1590,#1591);
#1444=AXIS2_PLACEMENT_3D('',#1953,#1595,#1596);
#1445=AXIS2_PLACEMENT_3D('',#1959,#1600,#1601);
#1446=AXIS2_PLACEMENT_3D('',#1965,#1605,#1606);
#1447=AXIS2_PLACEMENT_3D('',#1971,#1610,#1611);
#1448=AXIS2_PLACEMENT_3D('',#1977,#1615,#1616);
#1449=AXIS2_PLACEMENT_3D('',#1983,#1620,#1621);
#1450=AXIS2_PLACEMENT_3D('',#1989,#1625,#1626);
#1451=AXIS2_PLACEMENT_3D('',#1995,#1630,#1631);
#1452=AXIS2_PLACEMENT_3D('',#2001,#1635,#1636);
#1453=AXIS2_PLACEMENT_3D('',#2007,#1640,#1641);
#1454=AXIS2_PLACEMENT_3D('',#2013,#1645,#1646);
#1455=AXIS2_PLACEMENT_3D('',#2019,#1650,#1651);
#1456=AXIS2_PLACEMENT_3D('',#2025,#1655,#1656);
#1457=AXIS2_PLACEMENT_3D('',#2031,#1660,#1661);
#1458=AXIS2_PLACEMENT_3D('',#2037,#1665,#1666);
#1459=AXIS2_PLACEMENT_3D('',#2043,#1670,#1671);
#1460=AXIS2_PLACEMENT_3D('',#2049,#1675,#1676);
#1461=AXIS2_PLACEMENT_3D('',#2055,#1680,#1681);
#1462=AXIS2_PLACEMENT_3D('',#2061,#1685,#1686);
#1463=AXIS2_PLACEMENT_3D('',#2067,#1690,#1691);
#1464=AXIS2_PLACEMENT_3D('',#2073,#1695,#1696);
#1465=AXIS2_PLACEMENT_3D('',#2079,#1700,#1701);
#1466=AXIS2_PLACEMENT_3D('',#2085,#1705,#1706);
#1467=AXIS2_PLACEMENT_3D('',#2091,#1710,#1711);
#1468=AXIS2_PLACEMENT_3D('',#2097,#1715,#1716);
#1469=AXIS2_PLACEMENT_3D('',#2103,#1720,#1721);
#1470=AXIS2_PLACEMENT_3D('',#2109,#1725,#1726);
#1471=AXIS2_PLACEMENT_3D('',#2115,#1730,#1731);
#1472=AXIS2_PLACEMENT_3D('',#2121,#1735,#1736);
#1473=AXIS2_PLACEMENT_3D('',#2127,#1740,#1741);
#1474=AXIS2_PLACEMENT_3D('',#2133,#1745,#1746);
#1475=AXIS2_PLACEMENT_3D('',#2139,#1750,#1751);
#1476=AXIS2_PLACEMENT_3D('',#2145,#1755,#1756);
#1477=AXIS2_PLACEMENT_3D('',#2151,#1760,#1761);
#1478=AXIS2_PLACEMENT_3D('',#2157,#1765,#1766);
#1479=AXIS2_PLACEMENT_3D('',#2163,#1770,#1771);
#1480=AXIS2_PLACEMENT_3D('',#2169,#1775,#1776);
#1481=AXIS2_PLACEMENT_3D('',#2175,#1780,#1781);
#1482=AXIS2_PLACEMENT_3D('',#2181,#1785,#1786);
#1483=AXIS2_PLACEMENT_3D('',#2187,#1790,#1791);
#1484=AXIS2_PLACEMENT_3D('',#2193,#1795,#1796);
#1485=AXIS2_PLACEMENT_3D('',#2199,#1800,#1801);
#1486=AXIS2_PLACEMENT_3D('',#2205,#1805,#1806);
#1487=AXIS2_PLACEMENT_3D('',#2211,#1810,#1811);
#1488=AXIS2_PLACEMENT_3D('',#2217,#1815,#1816);
#1489=AXIS2_PLACEMENT_3D('',#2218,#1817,#1818);
#1490=AXIS2_PLACEMENT_3D('',#2220,#1819,#1820);
#1491=AXIS2_PLACEMENT_3D('',#2222,#1821,#1822);
#1492=AXIS2_PLACEMENT_3D('',#2223,#1823,#1824);
#1493=AXIS2_PLACEMENT_3D('',#2225,#1825,#1826);
#1494=AXIS2_PLACEMENT_3D('',#2227,#1827,#1828);
#1495=AXIS2_PLACEMENT_3D('',#2230,#1831,#1832);
#1496=AXIS2_PLACEMENT_3D('',#2231,#1833,#1834);
#1497=DIRECTION('',(0.,0.,1.));
#1498=DIRECTION('',(1.,0.,0.));
#1499=DIRECTION('',(1.,0.,0.));
#1500=DIRECTION('',(0.,0.,-1.));
#1501=DIRECTION('',(0.,-1.,0.));
#1502=DIRECTION('',(0.,0.,-1.));
#1503=DIRECTION('',(0.,-1.,0.));
#1504=DIRECTION('',(0.,0.,-1.));
#1505=DIRECTION('',(0.,1.,0.));
#1506=DIRECTION('',(0.,0.,1.));
#1507=DIRECTION('',(1.,0.,0.));
#1508=DIRECTION('',(0.,0.,-1.));
#1509=DIRECTION('',(1.,0.,0.));
#1510=DIRECTION('',(-1.,0.,0.));
#1511=DIRECTION('',(0.,0.,1.));
#1512=DIRECTION('',(0.,1.,0.));
#1513=DIRECTION('',(0.,0.,-1.));
#1514=DIRECTION('',(0.,1.,0.));
#1515=DIRECTION('',(0.,-1.,0.));
#1516=DIRECTION('',(0.,0.,-1.));
#1517=DIRECTION('',(-1.,0.,0.));
#1518=DIRECTION('',(0.,0.,-1.));
#1519=DIRECTION('',(-1.,0.,0.));
#1520=DIRECTION('',(-0.939692620785909,-0.342020143325667,0.));
#1521=DIRECTION('',(0.342020143325667,-0.939692620785909,0.));
#1522=DIRECTION('',(-0.342020143325667,0.939692620785909,0.));
#1523=DIRECTION('',(0.,0.,-1.));
#1524=DIRECTION('',(-0.342020143325667,0.939692620785909,0.));
#1525=DIRECTION('',(0.,-1.,0.));
#1526=DIRECTION('',(0.,0.,-1.));
#1527=DIRECTION('',(-1.,0.,0.));
#1528=DIRECTION('',(0.,0.,-1.));
#1529=DIRECTION('',(-1.,0.,0.));
#1530=DIRECTION('',(0.939692620785909,-0.342020143325668,0.));
#1531=DIRECTION('',(0.342020143325668,0.939692620785909,0.));
#1532=DIRECTION('',(-0.342020143325668,-0.939692620785909,0.));
#1533=DIRECTION('',(0.,0.,-1.));
#1534=DIRECTION('',(-0.342020143325668,-0.939692620785909,0.));
#1535=DIRECTION('',(0.,-1.,0.));
#1536=DIRECTION('',(0.,0.,-1.));
#1537=DIRECTION('',(-1.,0.,0.));
#1538=DIRECTION('',(0.,0.,-1.));
#1539=DIRECTION('',(-1.,0.,0.));
#1540=DIRECTION('',(-0.939692620785908,-0.342020143325669,0.));
#1541=DIRECTION('',(0.342020143325669,-0.939692620785908,0.));
#1542=DIRECTION('',(-0.342020143325669,0.939692620785908,0.));
#1543=DIRECTION('',(0.,0.,-1.));
#1544=DIRECTION('',(-0.342020143325669,0.939692620785908,0.));
#1545=DIRECTION('',(0.,-1.,0.));
#1546=DIRECTION('',(0.,0.,-1.));
#1547=DIRECTION('',(-1.,0.,0.));
#1548=DIRECTION('',(0.,0.,-1.));
#1549=DIRECTION('',(-1.,0.,0.));
#1550=DIRECTION('',(0.939692620785908,-0.342020143325669,0.));
#1551=DIRECTION('',(0.342020143325669,0.939692620785908,0.));
#1552=DIRECTION('',(-0.342020143325669,-0.939692620785908,0.));
#1553=DIRECTION('',(0.,0.,-1.));
#1554=DIRECTION('',(-0.342020143325669,-0.939692620785908,0.));
#1555=DIRECTION('',(0.,-1.,0.));
#1556=DIRECTION('',(0.,0.,-1.));
#1557=DIRECTION('',(-1.,0.,0.));
#1558=DIRECTION('',(0.,0.,-1.));
#1559=DIRECTION('',(-1.,0.,0.));
#1560=DIRECTION('',(-0.939692620785908,-0.342020143325669,0.));
#1561=DIRECTION('',(0.342020143325669,-0.939692620785908,0.));
#1562=DIRECTION('',(-0.342020143325669,0.939692620785908,0.));
#1563=DIRECTION('',(0.,0.,-1.));
#1564=DIRECTION('',(-0.342020143325669,0.939692620785908,0.));
#1565=DIRECTION('',(0.,-1.,0.));
#1566=DIRECTION('',(0.,0.,-1.));
#1567=DIRECTION('',(-1.,0.,0.));
#1568=DIRECTION('',(0.,0.,-1.));
#1569=DIRECTION('',(-1.,0.,0.));
#1570=DIRECTION('',(0.939692620785908,-0.342020143325669,0.));
#1571=DIRECTION('',(0.342020143325669,0.939692620785908,0.));
#1572=DIRECTION('',(-0.342020143325669,-0.939692620785908,0.));
#1573=DIRECTION('',(0.,0.,-1.));
#1574=DIRECTION('',(-0.342020143325669,-0.939692620785908,0.));
#1575=DIRECTION('',(0.,-1.,0.));
#1576=DIRECTION('',(0.,0.,-1.));
#1577=DIRECTION('',(-1.,0.,0.));
#1578=DIRECTION('',(0.,0.,-1.));
#1579=DIRECTION('',(-1.,0.,0.));
#1580=DIRECTION('',(-0.939692620785908,-0.342020143325669,0.));
#1581=DIRECTION('',(0.342020143325669,-0.939692620785908,0.));
#1582=DIRECTION('',(-0.342020143325669,0.939692620785908,0.));
#1583=DIRECTION('',(0.,0.,-1.));
#1584=DIRECTION('',(-0.342020143325669,0.939692620785908,0.));
#1585=DIRECTION('',(0.,-1.,0.));
#1586=DIRECTION('',(0.,0.,-1.));
#1587=DIRECTION('',(-1.,0.,0.));
#1588=DIRECTION('',(0.,0.,-1.));
#1589=DIRECTION('',(-1.,0.,0.));
#1590=DIRECTION('',(0.939692620785908,-0.342020143325669,0.));
#1591=DIRECTION('',(0.342020143325669,0.939692620785908,0.));
#1592=DIRECTION('',(-0.342020143325669,-0.939692620785908,0.));
#1593=DIRECTION('',(0.,0.,-1.));
#1594=DIRECTION('',(-0.342020143325669,-0.939692620785908,0.));
#1595=DIRECTION('',(0.,-1.,0.));
#1596=DIRECTION('',(0.,0.,-1.));
#1597=DIRECTION('',(-1.,0.,0.));
#1598=DIRECTION('',(0.,0.,-1.));
#1599=DIRECTION('',(-1.,0.,0.));
#1600=DIRECTION('',(-0.939692620785908,-0.342020143325669,0.));
#1601=DIRECTION('',(0.342020143325669,-0.939692620785908,0.));
#1602=DIRECTION('',(-0.342020143325669,0.939692620785908,0.));
#1603=DIRECTION('',(0.,0.,-1.));
#1604=DIRECTION('',(-0.342020143325669,0.939692620785908,0.));
#1605=DIRECTION('',(0.,-1.,0.));
#1606=DIRECTION('',(0.,0.,-1.));
#1607=DIRECTION('',(-1.,0.,0.));
#1608=DIRECTION('',(0.,0.,-1.));
#1609=DIRECTION('',(-1.,0.,0.));
#1610=DIRECTION('',(0.939692620785908,-0.342020143325668,0.));
#1611=DIRECTION('',(0.342020143325669,0.939692620785909,0.));
#1612=DIRECTION('',(-0.342020143325669,-0.939692620785909,0.));
#1613=DIRECTION('',(0.,0.,-1.));
#1614=DIRECTION('',(-0.342020143325669,-0.939692620785909,0.));
#1615=DIRECTION('',(0.,-1.,0.));
#1616=DIRECTION('',(0.,0.,-1.));
#1617=DIRECTION('',(-1.,0.,0.));
#1618=DIRECTION('',(0.,0.,-1.));
#1619=DIRECTION('',(-1.,0.,0.));
#1620=DIRECTION('',(-0.939692620785908,-0.342020143325669,0.));
#1621=DIRECTION('',(0.342020143325669,-0.939692620785908,0.));
#1622=DIRECTION('',(-0.342020143325669,0.939692620785908,0.));
#1623=DIRECTION('',(0.,0.,-1.));
#1624=DIRECTION('',(-0.342020143325669,0.939692620785908,0.));
#1625=DIRECTION('',(0.,-1.,0.));
#1626=DIRECTION('',(0.,0.,-1.));
#1627=DIRECTION('',(-1.,0.,0.));
#1628=DIRECTION('',(0.,0.,-1.));
#1629=DIRECTION('',(-1.,0.,0.));
#1630=DIRECTION('',(0.939692620785908,-0.342020143325669,0.));
#1631=DIRECTION('',(0.342020143325669,0.939692620785908,0.));
#1632=DIRECTION('',(-0.342020143325669,-0.939692620785908,0.));
#1633=DIRECTION('',(0.,0.,-1.));
#1634=DIRECTION('',(-0.342020143325669,-0.939692620785908,0.));
#1635=DIRECTION('',(0.,-1.,0.));
#1636=DIRECTION('',(0.,0.,-1.));
#1637=DIRECTION('',(-1.,0.,0.));
#1638=DIRECTION('',(0.,0.,-1.));
#1639=DIRECTION('',(-1.,0.,0.));
#1640=DIRECTION('',(-0.939692620785908,-0.342020143325669,0.));
#1641=DIRECTION('',(0.342020143325669,-0.939692620785908,0.));
#1642=DIRECTION('',(-0.342020143325669,0.939692620785908,0.));
#1643=DIRECTION('',(0.,0.,-1.));
#1644=DIRECTION('',(-0.342020143325669,0.939692620785908,0.));
#1645=DIRECTION('',(0.,-1.,0.));
#1646=DIRECTION('',(0.,0.,-1.));
#1647=DIRECTION('',(-1.,0.,0.));
#1648=DIRECTION('',(0.,0.,-1.));
#1649=DIRECTION('',(-1.,0.,0.));
#1650=DIRECTION('',(0.939692620785908,-0.342020143325669,0.));
#1651=DIRECTION('',(0.342020143325669,0.939692620785908,0.));
#1652=DIRECTION('',(-0.342020143325669,-0.939692620785908,0.));
#1653=DIRECTION('',(0.,0.,-1.));
#1654=DIRECTION('',(-0.342020143325669,-0.939692620785908,0.));
#1655=DIRECTION('',(0.,-1.,0.));
#1656=DIRECTION('',(0.,0.,-1.));
#1657=DIRECTION('',(-1.,0.,0.));
#1658=DIRECTION('',(0.,0.,-1.));
#1659=DIRECTION('',(-1.,0.,0.));
#1660=DIRECTION('',(-0.939692620785908,-0.342020143325669,0.));
#1661=DIRECTION('',(0.342020143325669,-0.939692620785908,0.));
#1662=DIRECTION('',(-0.342020143325669,0.939692620785908,0.));
#1663=DIRECTION('',(0.,0.,-1.));
#1664=DIRECTION('',(-0.342020143325669,0.939692620785908,0.));
#1665=DIRECTION('',(0.,-1.,0.));
#1666=DIRECTION('',(0.,0.,-1.));
#1667=DIRECTION('',(-1.,0.,0.));
#1668=DIRECTION('',(0.,0.,-1.));
#1669=DIRECTION('',(-1.,0.,0.));
#1670=DIRECTION('',(0.939692620785908,-0.342020143325669,0.));
#1671=DIRECTION('',(0.342020143325669,0.939692620785908,0.));
#1672=DIRECTION('',(-0.342020143325669,-0.939692620785908,0.));
#1673=DIRECTION('',(0.,0.,-1.));
#1674=DIRECTION('',(-0.342020143325669,-0.939692620785908,0.));
#1675=DIRECTION('',(0.,-1.,0.));
#1676=DIRECTION('',(0.,0.,-1.));
#1677=DIRECTION('',(-1.,0.,0.));
#1678=DIRECTION('',(0.,0.,-1.));
#1679=DIRECTION('',(-1.,0.,0.));
#1680=DIRECTION('',(-0.939692620785908,-0.342020143325669,0.));
#1681=DIRECTION('',(0.342020143325669,-0.939692620785908,0.));
#1682=DIRECTION('',(-0.342020143325669,0.939692620785908,0.));
#1683=DIRECTION('',(0.,0.,-1.));
#1684=DIRECTION('',(-0.342020143325669,0.939692620785908,0.));
#1685=DIRECTION('',(0.,-1.,0.));
#1686=DIRECTION('',(0.,0.,-1.));
#1687=DIRECTION('',(-1.,0.,0.));
#1688=DIRECTION('',(0.,0.,-1.));
#1689=DIRECTION('',(-1.,0.,0.));
#1690=DIRECTION('',(0.939692620785908,-0.342020143325669,0.));
#1691=DIRECTION('',(0.342020143325669,0.939692620785908,0.));
#1692=DIRECTION('',(-0.342020143325669,-0.939692620785908,0.));
#1693=DIRECTION('',(0.,0.,-1.));
#1694=DIRECTION('',(-0.342020143325669,-0.939692620785908,0.));
#1695=DIRECTION('',(0.,-1.,0.));
#1696=DIRECTION('',(0.,0.,-1.));
#1697=DIRECTION('',(-1.,0.,0.));
#1698=DIRECTION('',(0.,0.,-1.));
#1699=DIRECTION('',(-1.,0.,0.));
#1700=DIRECTION('',(-0.939692620785908,-0.342020143325669,0.));
#1701=DIRECTION('',(0.342020143325669,-0.939692620785908,0.));
#1702=DIRECTION('',(-0.342020143325669,0.939692620785908,0.));
#1703=DIRECTION('',(0.,0.,-1.));
#1704=DIRECTION('',(-0.342020143325669,0.939692620785908,0.));
#1705=DIRECTION('',(0.,-1.,0.));
#1706=DIRECTION('',(0.,0.,-1.));
#1707=DIRECTION('',(-1.,0.,0.));
#1708=DIRECTION('',(0.,0.,-1.));
#1709=DIRECTION('',(-1.,0.,0.));
#1710=DIRECTION('',(0.939692620785908,-0.342020143325669,0.));
#1711=DIRECTION('',(0.342020143325669,0.939692620785908,0.));
#1712=DIRECTION('',(-0.342020143325669,-0.939692620785908,0.));
#1713=DIRECTION('',(0.,0.,-1.));
#1714=DIRECTION('',(-0.342020143325669,-0.939692620785908,0.));
#1715=DIRECTION('',(0.,-1.,0.));
#1716=DIRECTION('',(0.,0.,-1.));
#1717=DIRECTION('',(-1.,0.,0.));
#1718=DIRECTION('',(0.,0.,-1.));
#1719=DIRECTION('',(-1.,0.,0.));
#1720=DIRECTION('',(-0.939692620785908,-0.342020143325668,0.));
#1721=DIRECTION('',(0.342020143325669,-0.939692620785909,0.));
#1722=DIRECTION('',(-0.342020143325669,0.939692620785909,0.));
#1723=DIRECTION('',(0.,0.,-1.));
#1724=DIRECTION('',(-0.342020143325669,0.939692620785909,0.));
#1725=DIRECTION('',(0.,-1.,0.));
#1726=DIRECTION('',(0.,0.,-1.));
#1727=DIRECTION('',(-1.,0.,0.));
#1728=DIRECTION('',(0.,0.,-1.));
#1729=DIRECTION('',(-1.,0.,0.));
#1730=DIRECTION('',(0.939692620785908,-0.342020143325669,0.));
#1731=DIRECTION('',(0.342020143325669,0.939692620785908,0.));
#1732=DIRECTION('',(-0.342020143325669,-0.939692620785908,0.));
#1733=DIRECTION('',(0.,0.,-1.));
#1734=DIRECTION('',(-0.342020143325669,-0.939692620785908,0.));
#1735=DIRECTION('',(0.,-1.,0.));
#1736=DIRECTION('',(0.,0.,-1.));
#1737=DIRECTION('',(-1.,0.,0.));
#1738=DIRECTION('',(0.,0.,-1.));
#1739=DIRECTION('',(-1.,0.,0.));
#1740=DIRECTION('',(-0.939692620785908,-0.342020143325669,0.));
#1741=DIRECTION('',(0.342020143325669,-0.939692620785908,0.));
#1742=DIRECTION('',(-0.342020143325669,0.939692620785908,0.));
#1743=DIRECTION('',(0.,0.,-1.));
#1744=DIRECTION('',(-0.342020143325669,0.939692620785908,0.));
#1745=DIRECTION('',(0.,-1.,0.));
#1746=DIRECTION('',(0.,0.,-1.));
#1747=DIRECTION('',(-1.,0.,0.));
#1748=DIRECTION('',(0.,0.,-1.));
#1749=DIRECTION('',(-1.,0.,0.));
#1750=DIRECTION('',(0.939692620785908,-0.342020143325669,0.));
#1751=DIRECTION('',(0.342020143325669,0.939692620785908,0.));
#1752=DIRECTION('',(-0.342020143325669,-0.939692620785908,0.));
#1753=DIRECTION('',(0.,0.,-1.));
#1754=DIRECTION('',(-0.342020143325669,-0.939692620785908,0.));
#1755=DIRECTION('',(0.,-1.,0.));
#1756=DIRECTION('',(0.,0.,-1.));
#1757=DIRECTION('',(-1.,0.,0.));
#1758=DIRECTION('',(0.,0.,-1.));
#1759=DIRECTION('',(-1.,0.,0.));
#1760=DIRECTION('',(-0.939692620785908,-0.342020143325669,0.));
#1761=DIRECTION('',(0.342020143325669,-0.939692620785908,0.));
#1762=DIRECTION('',(-0.342020143325669,0.939692620785908,0.));
#1763=DIRECTION('',(0.,0.,-1.));
#1764=DIRECTION('',(-0.342020143325669,0.939692620785908,0.));
#1765=DIRECTION('',(0.,-1.,0.));
#1766=DIRECTION('',(0.,0.,-1.));
#1767=DIRECTION('',(-1.,0.,0.));
#1768=DIRECTION('',(0.,0.,-1.));
#1769=DIRECTION('',(-1.,0.,0.));
#1770=DIRECTION('',(0.939692620785908,-0.342020143325669,0.));
#1771=DIRECTION('',(0.342020143325669,0.939692620785908,0.));
#1772=DIRECTION('',(-0.342020143325669,-0.939692620785908,0.));
#1773=DIRECTION('',(0.,0.,-1.));
#1774=DIRECTION('',(-0.342020143325669,-0.939692620785908,0.));
#1775=DIRECTION('',(0.,-1.,0.));
#1776=DIRECTION('',(0.,0.,-1.));
#1777=DIRECTION('',(-1.,0.,0.));
#1778=DIRECTION('',(0.,0.,-1.));
#1779=DIRECTION('',(-1.,0.,0.));
#1780=DIRECTION('',(-0.939692620785908,-0.342020143325669,0.));
#1781=DIRECTION('',(0.342020143325669,-0.939692620785908,0.));
#1782=DIRECTION('',(-0.342020143325669,0.939692620785908,0.));
#1783=DIRECTION('',(0.,0.,-1.));
#1784=DIRECTION('',(-0.342020143325669,0.939692620785908,0.));
#1785=DIRECTION('',(0.,-1.,0.));
#1786=DIRECTION('',(0.,0.,-1.));
#1787=DIRECTION('',(-1.,0.,0.));
#1788=DIRECTION('',(0.,0.,-1.));
#1789=DIRECTION('',(-1.,0.,0.));
#1790=DIRECTION('',(0.939692620785908,-0.342020143325669,0.));
#1791=DIRECTION('',(0.342020143325669,0.939692620785908,0.));
#1792=DIRECTION('',(-0.342020143325669,-0.939692620785908,0.));
#1793=DIRECTION('',(0.,0.,-1.));
#1794=DIRECTION('',(-0.342020143325669,-0.939692620785908,0.));
#1795=DIRECTION('',(0.,-1.,0.));
#1796=DIRECTION('',(0.,0.,-1.));
#1797=DIRECTION('',(-1.,0.,0.));
#1798=DIRECTION('',(0.,0.,-1.));
#1799=DIRECTION('',(-1.,0.,0.));
#1800=DIRECTION('',(-0.939692620785909,-0.342020143325668,0.));
#1801=DIRECTION('',(0.342020143325668,-0.939692620785909,0.));
#1802=DIRECTION('',(-0.342020143325668,0.939692620785909,0.));
#1803=DIRECTION('',(0.,0.,-1.));
#1804=DIRECTION('',(-0.342020143325668,0.939692620785909,0.));
#1805=DIRECTION('',(0.,-1.,0.));
#1806=DIRECTION('',(0.,0.,-1.));
#1807=DIRECTION('',(-1.,0.,0.));
#1808=DIRECTION('',(0.,0.,-1.));
#1809=DIRECTION('',(-1.,0.,0.));
#1810=DIRECTION('',(0.939692620785909,-0.342020143325667,0.));
#1811=DIRECTION('',(0.342020143325667,0.939692620785909,0.));
#1812=DIRECTION('',(-0.342020143325667,-0.939692620785909,0.));
#1813=DIRECTION('',(0.,0.,-1.));
#1814=DIRECTION('',(-0.342020143325667,-0.939692620785909,0.));
#1815=DIRECTION('',(0.,0.,-1.));
#1816=DIRECTION('',(-1.,0.,0.));
#1817=DIRECTION('',(0.,0.,1.));
#1818=DIRECTION('',(1.,0.,0.));
#1819=DIRECTION('',(0.,0.,1.));
#1820=DIRECTION('',(1.,0.,0.));
#1821=DIRECTION('',(0.,0.,-1.));
#1822=DIRECTION('',(-1.,0.,0.));
#1823=DIRECTION('',(0.,0.,1.));
#1824=DIRECTION('',(1.,0.,0.));
#1825=DIRECTION('',(0.,0.,1.));
#1826=DIRECTION('',(1.,0.,0.));
#1827=DIRECTION('',(0.,-1.,0.));
#1828=DIRECTION('',(0.,0.,-1.));
#1829=DIRECTION('',(-1.,0.,0.));
#1830=DIRECTION('',(-1.,0.,0.));
#1831=DIRECTION('',(0.,0.,1.));
#1832=DIRECTION('',(1.,0.,0.));
#1833=DIRECTION('',(0.,0.,1.));
#1834=DIRECTION('',(1.,0.,0.));
#1835=CARTESIAN_POINT('',(0.,0.,0.));
#1836=CARTESIAN_POINT('',(-38.,-1.875,6.));
#1837=CARTESIAN_POINT('',(-38.,-1.875,0.));
#1838=CARTESIAN_POINT('',(-38.,-1.875,0.));
#1839=CARTESIAN_POINT('',(-38.,-6.,0.));
#1840=CARTESIAN_POINT('',(-38.,-6.,6.));
#1841=CARTESIAN_POINT('',(-38.,-6.,6.));
#1842=CARTESIAN_POINT('',(-38.,-1.875,6.));
#1843=CARTESIAN_POINT('',(-38.,-1.875,6.));
#1844=CARTESIAN_POINT('',(-38.,-1.875,6.));
#1845=CARTESIAN_POINT('',(-38.,-6.,6.));
#1846=CARTESIAN_POINT('',(-38.,-6.,0.));
#1847=CARTESIAN_POINT('',(38.,-6.,0.));
#1848=CARTESIAN_POINT('',(38.,-6.,6.));
#1849=CARTESIAN_POINT('',(38.,-6.,6.));
#1850=CARTESIAN_POINT('',(-38.,-6.,6.));
#1851=CARTESIAN_POINT('',(38.,-6.,6.));
#1852=CARTESIAN_POINT('',(38.,-6.,0.));
#1853=CARTESIAN_POINT('',(38.,-1.875,0.));
#1854=CARTESIAN_POINT('',(38.,-1.875,6.));
#1855=CARTESIAN_POINT('',(38.,-1.875,6.));
#1856=CARTESIAN_POINT('',(38.,-6.,6.));
#1857=CARTESIAN_POINT('',(38.,-1.875,6.));
#1858=CARTESIAN_POINT('',(38.,-1.875,0.));
#1859=CARTESIAN_POINT('',(34.7672642970381,-1.875,0.));
#1860=CARTESIAN_POINT('',(34.7672642970381,-1.875,6.));
#1861=CARTESIAN_POINT('',(34.7672642970381,-1.875,6.));
#1862=CARTESIAN_POINT('',(38.,-1.875,6.));
#1863=CARTESIAN_POINT('',(34.7672642970381,-1.875,6.));
#1864=CARTESIAN_POINT('',(34.7672642970381,-1.875,0.));
#1865=CARTESIAN_POINT('',(33.5388647563897,1.5,0.));
#1866=CARTESIAN_POINT('',(33.5388647563897,1.5,6.));
#1867=CARTESIAN_POINT('',(33.5388647563897,1.5,6.));
#1868=CARTESIAN_POINT('',(34.7672642970381,-1.875,6.));
#1869=CARTESIAN_POINT('',(33.5388647563897,1.5,6.));
#1870=CARTESIAN_POINT('',(33.5388647563897,1.5,0.));
#1871=CARTESIAN_POINT('',(32.434580968996,1.5,0.));
#1872=CARTESIAN_POINT('',(32.434580968996,1.5,6.));
#1873=CARTESIAN_POINT('',(32.434580968996,1.5,6.));
#1874=CARTESIAN_POINT('',(33.5388647563897,1.5,6.));
#1875=CARTESIAN_POINT('',(32.434580968996,1.5,6.));
#1876=CARTESIAN_POINT('',(32.434580968996,1.5,0.));
#1877=CARTESIAN_POINT('',(31.2061814283475,-1.875,0.));
#1878=CARTESIAN_POINT('',(31.2061814283475,-1.875,6.));
#1879=CARTESIAN_POINT('',(31.2061814283475,-1.875,6.));
#1880=CARTESIAN_POINT('',(32.434580968996,1.5,6.));
#1881=CARTESIAN_POINT('',(31.2061814283475,-1.875,6.));
#1882=CARTESIAN_POINT('',(31.2061814283475,-1.875,0.));
#1883=CARTESIAN_POINT('',(30.0548753166534,-1.875,0.));
#1884=CARTESIAN_POINT('',(30.0548753166534,-1.875,6.));
#1885=CARTESIAN_POINT('',(30.0548753166534,-1.875,6.));
#1886=CARTESIAN_POINT('',(31.2061814283475,-1.875,6.));
#1887=CARTESIAN_POINT('',(30.0548753166534,-1.875,6.));
#1888=CARTESIAN_POINT('',(30.0548753166534,-1.875,0.));
#1889=CARTESIAN_POINT('',(28.826475776005,1.5,0.));
#1890=CARTESIAN_POINT('',(28.826475776005,1.5,6.));
#1891=CARTESIAN_POINT('',(28.826475776005,1.5,6.));
#1892=CARTESIAN_POINT('',(30.0548753166534,-1.875,6.));
#1893=CARTESIAN_POINT('',(28.826475776005,1.5,6.));
#1894=CARTESIAN_POINT('',(28.826475776005,1.5,0.));
#1895=CARTESIAN_POINT('',(27.7221919886113,1.5,0.));
#1896=CARTESIAN_POINT('',(27.7221919886113,1.5,6.));
#1897=CARTESIAN_POINT('',(27.7221919886113,1.5,6.));
#1898=CARTESIAN_POINT('',(28.826475776005,1.5,6.));
#1899=CARTESIAN_POINT('',(27.7221919886113,1.5,6.));
#1900=CARTESIAN_POINT('',(27.7221919886113,1.5,0.));
#1901=CARTESIAN_POINT('',(26.4937924479628,-1.875,0.));
#1902=CARTESIAN_POINT('',(26.4937924479628,-1.875,6.));
#1903=CARTESIAN_POINT('',(26.4937924479628,-1.875,6.));
#1904=CARTESIAN_POINT('',(27.7221919886113,1.5,6.));
#1905=CARTESIAN_POINT('',(26.4937924479628,-1.875,6.));
#1906=CARTESIAN_POINT('',(26.4937924479628,-1.875,0.));
#1907=CARTESIAN_POINT('',(25.3424863362687,-1.875,0.));
#1908=CARTESIAN_POINT('',(25.3424863362687,-1.875,6.));
#1909=CARTESIAN_POINT('',(25.3424863362687,-1.875,6.));
#1910=CARTESIAN_POINT('',(26.4937924479628,-1.875,6.));
#1911=CARTESIAN_POINT('',(25.3424863362687,-1.875,6.));
#1912=CARTESIAN_POINT('',(25.3424863362687,-1.875,0.));
#1913=CARTESIAN_POINT('',(24.1140867956203,1.5,0.));
#1914=CARTESIAN_POINT('',(24.1140867956203,1.5,6.));
#1915=CARTESIAN_POINT('',(24.1140867956203,1.5,6.));
#1916=CARTESIAN_POINT('',(25.3424863362687,-1.875,6.));
#1917=CARTESIAN_POINT('',(24.1140867956203,1.5,6.));
#1918=CARTESIAN_POINT('',(24.1140867956203,1.5,0.));
#1919=CARTESIAN_POINT('',(23.0098030082266,1.5,0.));
#1920=CARTESIAN_POINT('',(23.0098030082266,1.5,6.));
#1921=CARTESIAN_POINT('',(23.0098030082266,1.5,6.));
#1922=CARTESIAN_POINT('',(24.1140867956203,1.5,6.));
#1923=CARTESIAN_POINT('',(23.0098030082266,1.5,6.));
#1924=CARTESIAN_POINT('',(23.0098030082266,1.5,0.));
#1925=CARTESIAN_POINT('',(21.7814034675781,-1.875,0.));
#1926=CARTESIAN_POINT('',(21.7814034675781,-1.875,6.));
#1927=CARTESIAN_POINT('',(21.7814034675781,-1.875,6.));
#1928=CARTESIAN_POINT('',(23.0098030082266,1.5,6.));
#1929=CARTESIAN_POINT('',(21.7814034675781,-1.875,6.));
#1930=CARTESIAN_POINT('',(21.7814034675781,-1.875,0.));
#1931=CARTESIAN_POINT('',(20.6300973558841,-1.875,0.));
#1932=CARTESIAN_POINT('',(20.6300973558841,-1.875,6.));
#1933=CARTESIAN_POINT('',(20.6300973558841,-1.875,6.));
#1934=CARTESIAN_POINT('',(21.7814034675781,-1.875,6.));
#1935=CARTESIAN_POINT('',(20.6300973558841,-1.875,6.));
#1936=CARTESIAN_POINT('',(20.6300973558841,-1.875,0.));
#1937=CARTESIAN_POINT('',(19.4016978152356,1.5,0.));
#1938=CARTESIAN_POINT('',(19.4016978152356,1.5,6.));
#1939=CARTESIAN_POINT('',(19.4016978152356,1.5,6.));
#1940=CARTESIAN_POINT('',(20.6300973558841,-1.875,6.));
#1941=CARTESIAN_POINT('',(19.4016978152356,1.5,6.));
#1942=CARTESIAN_POINT('',(19.4016978152356,1.5,0.));
#1943=CARTESIAN_POINT('',(18.2974140278419,1.5,0.));
#1944=CARTESIAN_POINT('',(18.2974140278419,1.5,6.));
#1945=CARTESIAN_POINT('',(18.2974140278419,1.5,6.));
#1946=CARTESIAN_POINT('',(19.4016978152356,1.5,6.));
#1947=CARTESIAN_POINT('',(18.2974140278419,1.5,6.));
#1948=CARTESIAN_POINT('',(18.2974140278419,1.5,0.));
#1949=CARTESIAN_POINT('',(17.0690144871935,-1.875,0.));
#1950=CARTESIAN_POINT('',(17.0690144871935,-1.875,6.));
#1951=CARTESIAN_POINT('',(17.0690144871935,-1.875,6.));
#1952=CARTESIAN_POINT('',(18.2974140278419,1.5,6.));
#1953=CARTESIAN_POINT('',(17.0690144871935,-1.875,6.));
#1954=CARTESIAN_POINT('',(17.0690144871935,-1.875,0.));
#1955=CARTESIAN_POINT('',(15.9177083754994,-1.875,0.));
#1956=CARTESIAN_POINT('',(15.9177083754994,-1.875,6.));
#1957=CARTESIAN_POINT('',(15.9177083754994,-1.875,6.));
#1958=CARTESIAN_POINT('',(17.0690144871935,-1.875,6.));
#1959=CARTESIAN_POINT('',(15.9177083754994,-1.875,6.));
#1960=CARTESIAN_POINT('',(15.9177083754994,-1.875,0.));
#1961=CARTESIAN_POINT('',(14.6893088348509,1.5,0.));
#1962=CARTESIAN_POINT('',(14.6893088348509,1.5,6.));
#1963=CARTESIAN_POINT('',(14.6893088348509,1.5,6.));
#1964=CARTESIAN_POINT('',(15.9177083754994,-1.875,6.));
#1965=CARTESIAN_POINT('',(14.6893088348509,1.5,6.));
#1966=CARTESIAN_POINT('',(14.6893088348509,1.5,0.));
#1967=CARTESIAN_POINT('',(13.5850250474572,1.5,0.));
#1968=CARTESIAN_POINT('',(13.5850250474572,1.5,6.));
#1969=CARTESIAN_POINT('',(13.5850250474572,1.5,6.));
#1970=CARTESIAN_POINT('',(14.6893088348509,1.5,6.));
#1971=CARTESIAN_POINT('',(13.5850250474572,1.5,6.));
#1972=CARTESIAN_POINT('',(13.5850250474572,1.5,0.));
#1973=CARTESIAN_POINT('',(12.3566255068088,-1.875,0.));
#1974=CARTESIAN_POINT('',(12.3566255068088,-1.875,6.));
#1975=CARTESIAN_POINT('',(12.3566255068088,-1.875,6.));
#1976=CARTESIAN_POINT('',(13.5850250474572,1.5,6.));
#1977=CARTESIAN_POINT('',(12.3566255068088,-1.875,6.));
#1978=CARTESIAN_POINT('',(12.3566255068088,-1.875,0.));
#1979=CARTESIAN_POINT('',(11.2053193951147,-1.875,0.));
#1980=CARTESIAN_POINT('',(11.2053193951147,-1.875,6.));
#1981=CARTESIAN_POINT('',(11.2053193951147,-1.875,6.));
#1982=CARTESIAN_POINT('',(12.3566255068088,-1.875,6.));
#1983=CARTESIAN_POINT('',(11.2053193951147,-1.875,6.));
#1984=CARTESIAN_POINT('',(11.2053193951147,-1.875,0.));
#1985=CARTESIAN_POINT('',(9.97691985446625,1.5,0.));
#1986=CARTESIAN_POINT('',(9.97691985446625,1.5,6.));
#1987=CARTESIAN_POINT('',(9.97691985446625,1.5,6.));
#1988=CARTESIAN_POINT('',(11.2053193951147,-1.875,6.));
#1989=CARTESIAN_POINT('',(9.97691985446625,1.5,6.));
#1990=CARTESIAN_POINT('',(9.97691985446625,1.5,0.));
#1991=CARTESIAN_POINT('',(8.87263606707251,1.5,0.));
#1992=CARTESIAN_POINT('',(8.87263606707251,1.5,6.));
#1993=CARTESIAN_POINT('',(8.87263606707251,1.5,6.));
#1994=CARTESIAN_POINT('',(9.97691985446625,1.5,6.));
#1995=CARTESIAN_POINT('',(8.87263606707251,1.5,6.));
#1996=CARTESIAN_POINT('',(8.87263606707251,1.5,0.));
#1997=CARTESIAN_POINT('',(7.64423652642408,-1.875,0.));
#1998=CARTESIAN_POINT('',(7.64423652642408,-1.875,6.));
#1999=CARTESIAN_POINT('',(7.64423652642408,-1.875,6.));
#2000=CARTESIAN_POINT('',(8.87263606707251,1.5,6.));
#2001=CARTESIAN_POINT('',(7.64423652642408,-1.875,6.));
#2002=CARTESIAN_POINT('',(7.64423652642408,-1.875,0.));
#2003=CARTESIAN_POINT('',(6.49293041472999,-1.875,0.));
#2004=CARTESIAN_POINT('',(6.49293041472999,-1.875,6.));
#2005=CARTESIAN_POINT('',(6.49293041472999,-1.875,6.));
#2006=CARTESIAN_POINT('',(7.64423652642408,-1.875,6.));
#2007=CARTESIAN_POINT('',(6.49293041472999,-1.875,6.));
#2008=CARTESIAN_POINT('',(6.49293041472999,-1.875,0.));
#2009=CARTESIAN_POINT('',(5.26453087408156,1.5,0.));
#2010=CARTESIAN_POINT('',(5.26453087408156,1.5,6.));
#2011=CARTESIAN_POINT('',(5.26453087408156,1.5,6.));
#2012=CARTESIAN_POINT('',(6.49293041472999,-1.875,6.));
#2013=CARTESIAN_POINT('',(5.26453087408156,1.5,6.));
#2014=CARTESIAN_POINT('',(5.26453087408156,1.5,0.));
#2015=CARTESIAN_POINT('',(4.16024708668782,1.5,0.));
#2016=CARTESIAN_POINT('',(4.16024708668782,1.5,6.));
#2017=CARTESIAN_POINT('',(4.16024708668782,1.5,6.));
#2018=CARTESIAN_POINT('',(5.26453087408156,1.5,6.));
#2019=CARTESIAN_POINT('',(4.16024708668782,1.5,6.));
#2020=CARTESIAN_POINT('',(4.16024708668782,1.5,0.));
#2021=CARTESIAN_POINT('',(2.93184754603939,-1.875,0.));
#2022=CARTESIAN_POINT('',(2.93184754603939,-1.875,6.));
#2023=CARTESIAN_POINT('',(2.93184754603939,-1.875,6.));
#2024=CARTESIAN_POINT('',(4.16024708668782,1.5,6.));
#2025=CARTESIAN_POINT('',(2.93184754603939,-1.875,6.));
#2026=CARTESIAN_POINT('',(2.93184754603939,-1.875,0.));
#2027=CARTESIAN_POINT('',(1.7805414343453,-1.875,0.));
#2028=CARTESIAN_POINT('',(1.7805414343453,-1.875,6.));
#2029=CARTESIAN_POINT('',(1.7805414343453,-1.875,6.));
#2030=CARTESIAN_POINT('',(2.93184754603939,-1.875,6.));
#2031=CARTESIAN_POINT('',(1.7805414343453,-1.875,6.));
#2032=CARTESIAN_POINT('',(1.7805414343453,-1.875,0.));
#2033=CARTESIAN_POINT('',(0.552141893696869,1.5,0.));
#2034=CARTESIAN_POINT('',(0.552141893696869,1.5,6.));
#2035=CARTESIAN_POINT('',(0.552141893696869,1.5,6.));
#2036=CARTESIAN_POINT('',(1.7805414343453,-1.875,6.));
#2037=CARTESIAN_POINT('',(0.552141893696869,1.5,6.));
#2038=CARTESIAN_POINT('',(0.552141893696869,1.5,0.));
#2039=CARTESIAN_POINT('',(-0.552141893696869,1.5,0.));
#2040=CARTESIAN_POINT('',(-0.552141893696869,1.5,6.));
#2041=CARTESIAN_POINT('',(-0.552141893696869,1.5,6.));
#2042=CARTESIAN_POINT('',(0.552141893696869,1.5,6.));
#2043=CARTESIAN_POINT('',(-0.552141893696869,1.5,6.));
#2044=CARTESIAN_POINT('',(-0.552141893696869,1.5,0.));
#2045=CARTESIAN_POINT('',(-1.7805414343453,-1.875,0.));
#2046=CARTESIAN_POINT('',(-1.7805414343453,-1.875,6.));
#2047=CARTESIAN_POINT('',(-1.7805414343453,-1.875,6.));
#2048=CARTESIAN_POINT('',(-0.552141893696869,1.5,6.));
#2049=CARTESIAN_POINT('',(-1.7805414343453,-1.875,6.));
#2050=CARTESIAN_POINT('',(-1.7805414343453,-1.875,0.));
#2051=CARTESIAN_POINT('',(-2.93184754603939,-1.875,0.));
#2052=CARTESIAN_POINT('',(-2.93184754603939,-1.875,6.));
#2053=CARTESIAN_POINT('',(-2.93184754603939,-1.875,6.));
#2054=CARTESIAN_POINT('',(-1.7805414343453,-1.875,6.));
#2055=CARTESIAN_POINT('',(-2.93184754603939,-1.875,6.));
#2056=CARTESIAN_POINT('',(-2.93184754603939,-1.875,0.));
#2057=CARTESIAN_POINT('',(-4.16024708668782,1.5,0.));
#2058=CARTESIAN_POINT('',(-4.16024708668782,1.5,6.));
#2059=CARTESIAN_POINT('',(-4.16024708668782,1.5,6.));
#2060=CARTESIAN_POINT('',(-2.93184754603939,-1.875,6.));
#2061=CARTESIAN_POINT('',(-4.16024708668782,1.5,6.));
#2062=CARTESIAN_POINT('',(-4.16024708668782,1.5,0.));
#2063=CARTESIAN_POINT('',(-5.26453087408156,1.5,0.));
#2064=CARTESIAN_POINT('',(-5.26453087408156,1.5,6.));
#2065=CARTESIAN_POINT('',(-5.26453087408156,1.5,6.));
#2066=CARTESIAN_POINT('',(-4.16024708668782,1.5,6.));
#2067=CARTESIAN_POINT('',(-5.26453087408156,1.5,6.));
#2068=CARTESIAN_POINT('',(-5.26453087408156,1.5,0.));
#2069=CARTESIAN_POINT('',(-6.49293041472999,-1.875,0.));
#2070=CARTESIAN_POINT('',(-6.49293041472999,-1.875,6.));
#2071=CARTESIAN_POINT('',(-6.49293041472999,-1.875,6.));
#2072=CARTESIAN_POINT('',(-5.26453087408156,1.5,6.));
#2073=CARTESIAN_POINT('',(-6.49293041472999,-1.875,6.));
#2074=CARTESIAN_POINT('',(-6.49293041472999,-1.875,0.));
#2075=CARTESIAN_POINT('',(-7.64423652642408,-1.875,0.));
#2076=CARTESIAN_POINT('',(-7.64423652642408,-1.875,6.));
#2077=CARTESIAN_POINT('',(-7.64423652642408,-1.875,6.));
#2078=CARTESIAN_POINT('',(-6.49293041472999,-1.875,6.));
#2079=CARTESIAN_POINT('',(-7.64423652642408,-1.875,6.));
#2080=CARTESIAN_POINT('',(-7.64423652642408,-1.875,0.));
#2081=CARTESIAN_POINT('',(-8.87263606707251,1.5,0.));
#2082=CARTESIAN_POINT('',(-8.87263606707251,1.5,6.));
#2083=CARTESIAN_POINT('',(-8.87263606707251,1.5,6.));
#2084=CARTESIAN_POINT('',(-7.64423652642408,-1.875,6.));
#2085=CARTESIAN_POINT('',(-8.87263606707251,1.5,6.));
#2086=CARTESIAN_POINT('',(-8.87263606707251,1.5,0.));
#2087=CARTESIAN_POINT('',(-9.97691985446625,1.5,0.));
#2088=CARTESIAN_POINT('',(-9.97691985446625,1.5,6.));
#2089=CARTESIAN_POINT('',(-9.97691985446625,1.5,6.));
#2090=CARTESIAN_POINT('',(-8.87263606707251,1.5,6.));
#2091=CARTESIAN_POINT('',(-9.97691985446625,1.5,6.));
#2092=CARTESIAN_POINT('',(-9.97691985446625,1.5,0.));
#2093=CARTESIAN_POINT('',(-11.2053193951147,-1.875,0.));
#2094=CARTESIAN_POINT('',(-11.2053193951147,-1.875,6.));
#2095=CARTESIAN_POINT('',(-11.2053193951147,-1.875,6.));
#2096=CARTESIAN_POINT('',(-9.97691985446625,1.5,6.));
#2097=CARTESIAN_POINT('',(-11.2053193951147,-1.875,6.));
#2098=CARTESIAN_POINT('',(-11.2053193951147,-1.875,0.));
#2099=CARTESIAN_POINT('',(-12.3566255068088,-1.875,0.));
#2100=CARTESIAN_POINT('',(-12.3566255068088,-1.875,6.));
#2101=CARTESIAN_POINT('',(-12.3566255068088,-1.875,6.));
#2102=CARTESIAN_POINT('',(-11.2053193951147,-1.875,6.));
#2103=CARTESIAN_POINT('',(-12.3566255068088,-1.875,6.));
#2104=CARTESIAN_POINT('',(-12.3566255068088,-1.875,0.));
#2105=CARTESIAN_POINT('',(-13.5850250474572,1.5,0.));
#2106=CARTESIAN_POINT('',(-13.5850250474572,1.5,6.));
#2107=CARTESIAN_POINT('',(-13.5850250474572,1.5,6.));
#2108=CARTESIAN_POINT('',(-12.3566255068088,-1.875,6.));
#2109=CARTESIAN_POINT('',(-13.5850250474572,1.5,6.));
#2110=CARTESIAN_POINT('',(-13.5850250474572,1.5,0.));
#2111=CARTESIAN_POINT('',(-14.6893088348509,1.5,0.));
#2112=CARTESIAN_POINT('',(-14.6893088348509,1.5,6.));
#2113=CARTESIAN_POINT('',(-14.6893088348509,1.5,6.));
#2114=CARTESIAN_POINT('',(-13.5850250474572,1.5,6.));
#2115=CARTESIAN_POINT('',(-14.6893088348509,1.5,6.));
#2116=CARTESIAN_POINT('',(-14.6893088348509,1.5,0.));
#2117=CARTESIAN_POINT('',(-15.9177083754994,-1.875,0.));
#2118=CARTESIAN_POINT('',(-15.9177083754994,-1.875,6.));
#2119=CARTESIAN_POINT('',(-15.9177083754994,-1.875,6.));
#2120=CARTESIAN_POINT('',(-14.6893088348509,1.5,6.));
#2121=CARTESIAN_POINT('',(-15.9177083754994,-1.875,6.));
#2122=CARTESIAN_POINT('',(-15.9177083754994,-1.875,0.));
#2123=CARTESIAN_POINT('',(-17.0690144871935,-1.875,0.));
#2124=CARTESIAN_POINT('',(-17.0690144871935,-1.875,6.));
#2125=CARTESIAN_POINT('',(-17.0690144871935,-1.875,6.));
#2126=CARTESIAN_POINT('',(-15.9177083754994,-1.875,6.));
#2127=CARTESIAN_POINT('',(-17.0690144871935,-1.875,6.));
#2128=CARTESIAN_POINT('',(-17.0690144871935,-1.875,0.));
#2129=CARTESIAN_POINT('',(-18.2974140278419,1.5,0.));
#2130=CARTESIAN_POINT('',(-18.2974140278419,1.5,6.));
#2131=CARTESIAN_POINT('',(-18.2974140278419,1.5,6.));
#2132=CARTESIAN_POINT('',(-17.0690144871935,-1.875,6.));
#2133=CARTESIAN_POINT('',(-18.2974140278419,1.5,6.));
#2134=CARTESIAN_POINT('',(-18.2974140278419,1.5,0.));
#2135=CARTESIAN_POINT('',(-19.4016978152356,1.5,0.));
#2136=CARTESIAN_POINT('',(-19.4016978152356,1.5,6.));
#2137=CARTESIAN_POINT('',(-19.4016978152356,1.5,6.));
#2138=CARTESIAN_POINT('',(-18.2974140278419,1.5,6.));
#2139=CARTESIAN_POINT('',(-19.4016978152356,1.5,6.));
#2140=CARTESIAN_POINT('',(-19.4016978152356,1.5,0.));
#2141=CARTESIAN_POINT('',(-20.6300973558841,-1.875,0.));
#2142=CARTESIAN_POINT('',(-20.6300973558841,-1.875,6.));
#2143=CARTESIAN_POINT('',(-20.6300973558841,-1.875,6.));
#2144=CARTESIAN_POINT('',(-19.4016978152356,1.5,6.));
#2145=CARTESIAN_POINT('',(-20.6300973558841,-1.875,6.));
#2146=CARTESIAN_POINT('',(-20.6300973558841,-1.875,0.));
#2147=CARTESIAN_POINT('',(-21.7814034675781,-1.875,0.));
#2148=CARTESIAN_POINT('',(-21.7814034675781,-1.875,6.));
#2149=CARTESIAN_POINT('',(-21.7814034675781,-1.875,6.));
#2150=CARTESIAN_POINT('',(-20.6300973558841,-1.875,6.));
#2151=CARTESIAN_POINT('',(-21.7814034675781,-1.875,6.));
#2152=CARTESIAN_POINT('',(-21.7814034675781,-1.875,0.));
#2153=CARTESIAN_POINT('',(-23.0098030082266,1.5,0.));
#2154=CARTESIAN_POINT('',(-23.0098030082266,1.5,6.));
#2155=CARTESIAN_POINT('',(-23.0098030082266,1.5,6.));
#2156=CARTESIAN_POINT('',(-21.7814034675781,-1.875,6.));
#2157=CARTESIAN_POINT('',(-23.0098030082266,1.5,6.));
#2158=CARTESIAN_POINT('',(-23.0098030082266,1.5,0.));
#2159=CARTESIAN_POINT('',(-24.1140867956203,1.5,0.));
#2160=CARTESIAN_POINT('',(-24.1140867956203,1.5,6.));
#2161=CARTESIAN_POINT('',(-24.1140867956203,1.5,6.));
#2162=CARTESIAN_POINT('',(-23.0098030082266,1.5,6.));
#2163=CARTESIAN_POINT('',(-24.1140867956203,1.5,6.));
#2164=CARTESIAN_POINT('',(-24.1140867956203,1.5,0.));
#2165=CARTESIAN_POINT('',(-25.3424863362687,-1.875,0.));
#2166=CARTESIAN_POINT('',(-25.3424863362687,-1.875,6.));
#2167=CARTESIAN_POINT('',(-25.3424863362687,-1.875,6.));
#2168=CARTESIAN_POINT('',(-24.1140867956203,1.5,6.));
#2169=CARTESIAN_POINT('',(-25.3424863362687,-1.875,6.));
#2170=CARTESIAN_POINT('',(-25.3424863362687,-1.875,0.));
#2171=CARTESIAN_POINT('',(-26.4937924479628,-1.875,0.));
#2172=CARTESIAN_POINT('',(-26.4937924479628,-1.875,6.));
#2173=CARTESIAN_POINT('',(-26.4937924479628,-1.875,6.));
#2174=CARTESIAN_POINT('',(-25.3424863362687,-1.875,6.));
#2175=CARTESIAN_POINT('',(-26.4937924479628,-1.875,6.));
#2176=CARTESIAN_POINT('',(-26.4937924479628,-1.875,0.));
#2177=CARTESIAN_POINT('',(-27.7221919886113,1.5,0.));
#2178=CARTESIAN_POINT('',(-27.7221919886113,1.5,6.));
#2179=CARTESIAN_POINT('',(-27.7221919886113,1.5,6.));
#2180=CARTESIAN_POINT('',(-26.4937924479628,-1.875,6.));
#2181=CARTESIAN_POINT('',(-27.7221919886113,1.5,6.));
#2182=CARTESIAN_POINT('',(-27.7221919886113,1.5,0.));
#2183=CARTESIAN_POINT('',(-28.826475776005,1.5,0.));
#2184=CARTESIAN_POINT('',(-28.826475776005,1.5,6.));
#2185=CARTESIAN_POINT('',(-28.826475776005,1.5,6.));
#2186=CARTESIAN_POINT('',(-27.7221919886113,1.5,6.));
#2187=CARTESIAN_POINT('',(-28.826475776005,1.5,6.));
#2188=CARTESIAN_POINT('',(-28.826475776005,1.5,0.));
#2189=CARTESIAN_POINT('',(-30.0548753166534,-1.875,0.));
#2190=CARTESIAN_POINT('',(-30.0548753166534,-1.875,6.));
#2191=CARTESIAN_POINT('',(-30.0548753166534,-1.875,6.));
#2192=CARTESIAN_POINT('',(-28.826475776005,1.5,6.));
#2193=CARTESIAN_POINT('',(-30.0548753166534,-1.875,6.));
#2194=CARTESIAN_POINT('',(-30.0548753166534,-1.875,0.));
#2195=CARTESIAN_POINT('',(-31.2061814283475,-1.875,0.));
#2196=CARTESIAN_POINT('',(-31.2061814283475,-1.875,6.));
#2197=CARTESIAN_POINT('',(-31.2061814283475,-1.875,6.));
#2198=CARTESIAN_POINT('',(-30.0548753166534,-1.875,6.));
#2199=CARTESIAN_POINT('',(-31.2061814283475,-1.875,6.));
#2200=CARTESIAN_POINT('',(-31.2061814283475,-1.875,0.));
#2201=CARTESIAN_POINT('',(-32.434580968996,1.5,0.));
#2202=CARTESIAN_POINT('',(-32.434580968996,1.5,6.));
#2203=CARTESIAN_POINT('',(-32.434580968996,1.5,6.));
#2204=CARTESIAN_POINT('',(-31.2061814283475,-1.875,6.));
#2205=CARTESIAN_POINT('',(-32.434580968996,1.5,6.));
#2206=CARTESIAN_POINT('',(-32.434580968996,1.5,0.));
#2207=CARTESIAN_POINT('',(-33.5388647563897,1.5,0.));
#2208=CARTESIAN_POINT('',(-33.5388647563897,1.5,6.));
#2209=CARTESIAN_POINT('',(-33.5388647563897,1.5,6.));
#2210=CARTESIAN_POINT('',(-32.434580968996,1.5,6.));
#2211=CARTESIAN_POINT('',(-33.5388647563897,1.5,6.));
#2212=CARTESIAN_POINT('',(-33.5388647563897,1.5,0.));
#2213=CARTESIAN_POINT('',(-34.7672642970381,-1.875,0.));
#2214=CARTESIAN_POINT('',(-34.7672642970381,-1.875,6.));
#2215=CARTESIAN_POINT('',(-34.7672642970381,-1.875,6.));
#2216=CARTESIAN_POINT('',(-33.5388647563897,1.5,6.));
#2217=CARTESIAN_POINT('',(-31.,-4.,6.));
#2218=CARTESIAN_POINT('',(-31.,-4.,6.));
#2219=CARTESIAN_POINT('',(-29.8,-4.,6.));
#2220=CARTESIAN_POINT('',(-31.,-4.,0.));
#2221=CARTESIAN_POINT('',(-29.8,-4.,0.));
#2222=CARTESIAN_POINT('',(31.,-4.,6.));
#2223=CARTESIAN_POINT('',(31.,-4.,6.));
#2224=CARTESIAN_POINT('',(32.2,-4.,6.));
#2225=CARTESIAN_POINT('',(31.,-4.,0.));
#2226=CARTESIAN_POINT('',(32.2,-4.,0.));
#2227=CARTESIAN_POINT('',(-34.7672642970381,-1.875,6.));
#2228=CARTESIAN_POINT('',(-34.7672642970381,-1.875,0.));
#2229=CARTESIAN_POINT('',(-34.7672642970381,-1.875,6.));
#2230=CARTESIAN_POINT('',(0.,0.,6.));
#2231=CARTESIAN_POINT('',(0.,0.,0.));
#2232=MECHANICAL_DESIGN_GEOMETRIC_PRESENTATION_REPRESENTATION('',(#1413),
#2233);
#2233=(
GEOMETRIC_REPRESENTATION_CONTEXT(3)
GLOBAL_UNCERTAINTY_ASSIGNED_CONTEXT((#2234))
GLOBAL_UNIT_ASSIGNED_CONTEXT((#2237,#2236,#2235))
REPRESENTATION_CONTEXT('P21_gripper_rack','TOP_LEVEL_ASSEMBLY_PART')
);
#2234=UNCERTAINTY_MEASURE_WITH_UNIT(LENGTH_MEASURE(0.005),#2237,
'DISTANCE_ACCURACY_VALUE','Maximum Tolerance applied to model');
#2235=(
NAMED_UNIT(*)
SI_UNIT($,.STERADIAN.)
SOLID_ANGLE_UNIT()
);
#2236=(
NAMED_UNIT(*)
PLANE_ANGLE_UNIT()
SI_UNIT($,.RADIAN.)
);
#2237=(
LENGTH_UNIT()
NAMED_UNIT(*)
SI_UNIT(.MILLI.,.METRE.)
);
#2238=PRODUCT_DEFINITION_SHAPE('','',#2239);
#2239=PRODUCT_DEFINITION('','',#2241,#2240);
#2240=PRODUCT_DEFINITION_CONTEXT('',#2247,'design');
#2241=PRODUCT_DEFINITION_FORMATION_WITH_SPECIFIED_SOURCE('','',#2243,
 .NOT_KNOWN.);
#2242=PRODUCT_RELATED_PRODUCT_CATEGORY('','',(#2243));
#2243=PRODUCT('P21_gripper_rack','P21_gripper_rack','P21_gripper_rack',
(#2245));
#2244=PRODUCT_CATEGORY('','');
#2245=PRODUCT_CONTEXT('',#2247,'mechanical');
#2246=APPLICATION_PROTOCOL_DEFINITION('international standard',
'automotive_design',2010,#2247);
#2247=APPLICATION_CONTEXT(
'core data for automotive mechanical design processes');
ENDSEC;
END-ISO-10303-21;
