ISO-10303-21;
HEADER;
/* Generated by software containing ST-Developer
 * from STEP Tools, Inc. (www.steptools.com) 
 */
/* OPTION: strings as raw bytes, not using required /X/ escapes */

FILE_DESCRIPTION(
/* description */ ('Unknown'),
/* implementation_level */ '2;1');

FILE_NAME(
/* name */ 'P23_gripper_finger',
/* time_stamp */ '2026-09-23T11:24:48+08:00',
/* author */ ('Unknown'),
/* organization */ ('Unknown'),
/* preprocessor_version */ 'ST-DEVELOPER v16.7',
/* originating_system */ 'Solid Edge',
/* authorisation */ 'Unknown');

FILE_SCHEMA (('AUTOMOTIVE_DESIGN {1 0 10303 214 3 1 1}'));
ENDSEC;

DATA;
#10=PROPERTY_DEFINITION_REPRESENTATION(#14,#12);
#11=PROPERTY_DEFINITION_REPRESENTATION(#15,#13);
#12=REPRESENTATION('',(#16),#319);
#13=REPRESENTATION('',(#17),#319);
#14=PROPERTY_DEFINITION('pmi validation property','',#324);
#15=PROPERTY_DEFINITION('pmi validation property','',#324);
#16=VALUE_REPRESENTATION_ITEM('number of annotations',COUNT_MEASURE(0.));
#17=VALUE_REPRESENTATION_ITEM('number of views',COUNT_MEASURE(0.));
#18=SHAPE_REPRESENTATION_RELATIONSHIP('','',#205,#19);
#19=ADVANCED_BREP_SHAPE_REPRESENTATION('',(#203),#319);
#20=CIRCLE('',#213,1.2);
#21=CIRCLE('',#214,1.2);
#22=CIRCLE('',#216,1.2);
#23=CIRCLE('',#217,1.2);
#24=CYLINDRICAL_SURFACE('',#212,1.2);
#25=CYLINDRICAL_SURFACE('',#215,1.2);
#26=ORIENTED_EDGE('',*,*,#70,.T.);
#27=ORIENTED_EDGE('',*,*,#71,.F.);
#28=ORIENTED_EDGE('',*,*,#72,.F.);
#29=ORIENTED_EDGE('',*,*,#73,.T.);
#30=ORIENTED_EDGE('',*,*,#74,.T.);
#31=ORIENTED_EDGE('',*,*,#75,.F.);
#32=ORIENTED_EDGE('',*,*,#76,.F.);
#33=ORIENTED_EDGE('',*,*,#71,.T.);
#34=ORIENTED_EDGE('',*,*,#77,.T.);
#35=ORIENTED_EDGE('',*,*,#78,.F.);
#36=ORIENTED_EDGE('',*,*,#79,.F.);
#37=ORIENTED_EDGE('',*,*,#75,.T.);
#38=ORIENTED_EDGE('',*,*,#80,.T.);
#39=ORIENTED_EDGE('',*,*,#81,.F.);
#40=ORIENTED_EDGE('',*,*,#82,.F.);
#41=ORIENTED_EDGE('',*,*,#78,.T.);
#42=ORIENTED_EDGE('',*,*,#83,.T.);
#43=ORIENTED_EDGE('',*,*,#84,.F.);
#44=ORIENTED_EDGE('',*,*,#85,.F.);
#45=ORIENTED_EDGE('',*,*,#81,.T.);
#46=ORIENTED_EDGE('',*,*,#86,.T.);
#47=ORIENTED_EDGE('',*,*,#87,.F.);
#48=ORIENTED_EDGE('',*,*,#88,.T.);
#49=ORIENTED_EDGE('',*,*,#89,.F.);
#50=ORIENTED_EDGE('',*,*,#90,.T.);
#51=ORIENTED_EDGE('',*,*,#73,.F.);
#52=ORIENTED_EDGE('',*,*,#91,.F.);
#53=ORIENTED_EDGE('',*,*,#84,.T.);
#54=ORIENTED_EDGE('',*,*,#88,.F.);
#55=ORIENTED_EDGE('',*,*,#86,.F.);
#56=ORIENTED_EDGE('',*,*,#72,.T.);
#57=ORIENTED_EDGE('',*,*,#76,.T.);
#58=ORIENTED_EDGE('',*,*,#79,.T.);
#59=ORIENTED_EDGE('',*,*,#82,.T.);
#60=ORIENTED_EDGE('',*,*,#85,.T.);
#61=ORIENTED_EDGE('',*,*,#91,.T.);
#62=ORIENTED_EDGE('',*,*,#89,.T.);
#63=ORIENTED_EDGE('',*,*,#87,.T.);
#64=ORIENTED_EDGE('',*,*,#70,.F.);
#65=ORIENTED_EDGE('',*,*,#90,.F.);
#66=ORIENTED_EDGE('',*,*,#83,.F.);
#67=ORIENTED_EDGE('',*,*,#80,.F.);
#68=ORIENTED_EDGE('',*,*,#77,.F.);
#69=ORIENTED_EDGE('',*,*,#74,.F.);
#70=EDGE_CURVE('',#92,#93,#108,.T.);
#71=EDGE_CURVE('',#94,#93,#109,.T.);
#72=EDGE_CURVE('',#95,#94,#110,.T.);
#73=EDGE_CURVE('',#95,#92,#111,.T.);
#74=EDGE_CURVE('',#93,#96,#112,.T.);
#75=EDGE_CURVE('',#97,#96,#113,.T.);
#76=EDGE_CURVE('',#94,#97,#114,.T.);
#77=EDGE_CURVE('',#96,#98,#115,.T.);
#78=EDGE_CURVE('',#99,#98,#116,.T.);
#79=EDGE_CURVE('',#97,#99,#117,.T.);
#80=EDGE_CURVE('',#98,#100,#118,.T.);
#81=EDGE_CURVE('',#101,#100,#119,.T.);
#82=EDGE_CURVE('',#99,#101,#120,.T.);
#83=EDGE_CURVE('',#100,#102,#121,.T.);
#84=EDGE_CURVE('',#103,#102,#122,.T.);
#85=EDGE_CURVE('',#101,#103,#123,.T.);
#86=EDGE_CURVE('',#104,#104,#20,.T.);
#87=EDGE_CURVE('',#105,#105,#21,.T.);
#88=EDGE_CURVE('',#106,#106,#22,.T.);
#89=EDGE_CURVE('',#107,#107,#23,.T.);
#90=EDGE_CURVE('',#102,#92,#124,.T.);
#91=EDGE_CURVE('',#103,#95,#125,.T.);
#92=VERTEX_POINT('',#272);
#93=VERTEX_POINT('',#273);
#94=VERTEX_POINT('',#275);
#95=VERTEX_POINT('',#277);
#96=VERTEX_POINT('',#281);
#97=VERTEX_POINT('',#283);
#98=VERTEX_POINT('',#287);
#99=VERTEX_POINT('',#289);
#100=VERTEX_POINT('',#293);
#101=VERTEX_POINT('',#295);
#102=VERTEX_POINT('',#299);
#103=VERTEX_POINT('',#301);
#104=VERTEX_POINT('',#305);
#105=VERTEX_POINT('',#307);
#106=VERTEX_POINT('',#310);
#107=VERTEX_POINT('',#312);
#108=LINE('',#271,#126);
#109=LINE('',#274,#127);
#110=LINE('',#276,#128);
#111=LINE('',#278,#129);
#112=LINE('',#280,#130);
#113=LINE('',#282,#131);
#114=LINE('',#284,#132);
#115=LINE('',#286,#133);
#116=LINE('',#288,#134);
#117=LINE('',#290,#135);
#118=LINE('',#292,#136);
#119=LINE('',#294,#137);
#120=LINE('',#296,#138);
#121=LINE('',#298,#139);
#122=LINE('',#300,#140);
#123=LINE('',#302,#141);
#124=LINE('',#314,#142);
#125=LINE('',#315,#143);
#126=VECTOR('',#225,1000.);
#127=VECTOR('',#226,1000.);
#128=VECTOR('',#227,1000.);
#129=VECTOR('',#228,1000.);
#130=VECTOR('',#231,1000.);
#131=VECTOR('',#232,1000.);
#132=VECTOR('',#233,1000.);
#133=VECTOR('',#236,1000.);
#134=VECTOR('',#237,1000.);
#135=VECTOR('',#238,1000.);
#136=VECTOR('',#241,1000.);
#137=VECTOR('',#242,1000.);
#138=VECTOR('',#243,1000.);
#139=VECTOR('',#246,1000.);
#140=VECTOR('',#247,1000.);
#141=VECTOR('',#248,1000.);
#142=VECTOR('',#263,1000.);
#143=VECTOR('',#264,1000.);
#144=EDGE_LOOP('',(#26,#27,#28,#29));
#145=EDGE_LOOP('',(#30,#31,#32,#33));
#146=EDGE_LOOP('',(#34,#35,#36,#37));
#147=EDGE_LOOP('',(#38,#39,#40,#41));
#148=EDGE_LOOP('',(#42,#43,#44,#45));
#149=EDGE_LOOP('',(#46));
#150=EDGE_LOOP('',(#47));
#151=EDGE_LOOP('',(#48));
#152=EDGE_LOOP('',(#49));
#153=EDGE_LOOP('',(#50,#51,#52,#53));
#154=EDGE_LOOP('',(#54));
#155=EDGE_LOOP('',(#55));
#156=EDGE_LOOP('',(#56,#57,#58,#59,#60,#61));
#157=EDGE_LOOP('',(#62));
#158=EDGE_LOOP('',(#63));
#159=EDGE_LOOP('',(#64,#65,#66,#67,#68,#69));
#160=FACE_BOUND('',#144,.T.);
#161=FACE_BOUND('',#145,.T.);
#162=FACE_BOUND('',#146,.T.);
#163=FACE_BOUND('',#147,.T.);
#164=FACE_BOUND('',#148,.T.);
#165=FACE_BOUND('',#149,.T.);
#166=FACE_BOUND('',#150,.T.);
#167=FACE_BOUND('',#151,.T.);
#168=FACE_BOUND('',#152,.T.);
#169=FACE_BOUND('',#153,.T.);
#170=FACE_BOUND('',#154,.T.);
#171=FACE_BOUND('',#155,.T.);
#172=FACE_BOUND('',#156,.T.);
#173=FACE_BOUND('',#157,.T.);
#174=FACE_BOUND('',#158,.T.);
#175=FACE_BOUND('',#159,.T.);
#176=PLANE('',#207);
#177=PLANE('',#208);
#178=PLANE('',#209);
#179=PLANE('',#210);
#180=PLANE('',#211);
#181=PLANE('',#218);
#182=PLANE('',#219);
#183=PLANE('',#220);
#184=ADVANCED_FACE('',(#160),#176,.F.);
#185=ADVANCED_FACE('',(#161),#177,.F.);
#186=ADVANCED_FACE('',(#162),#178,.F.);
#187=ADVANCED_FACE('',(#163),#179,.F.);
#188=ADVANCED_FACE('',(#164),#180,.F.);
#189=ADVANCED_FACE('',(#165,#166),#24,.F.);
#190=ADVANCED_FACE('',(#167,#168),#25,.F.);
#191=ADVANCED_FACE('',(#169),#181,.F.);
#192=ADVANCED_FACE('',(#170,#171,#172),#182,.T.);
#193=ADVANCED_FACE('',(#173,#174,#175),#183,.F.);
#194=CLOSED_SHELL('',(#184,#185,#186,#187,#188,#189,#190,#191,#192,#193));
#195=STYLED_ITEM('',(#196),#203);
#196=PRESENTATION_STYLE_ASSIGNMENT((#197));
#197=SURFACE_STYLE_USAGE(.BOTH.,#198);
#198=SURFACE_SIDE_STYLE('',(#199));
#199=SURFACE_STYLE_FILL_AREA(#200);
#200=FILL_AREA_STYLE('',(#201));
#201=FILL_AREA_STYLE_COLOUR('',#202);
#202=COLOUR_RGB('',0.506983280181885,0.531564235687256,0.550000011920929);
#203=MANIFOLD_SOLID_BREP('',#194);
#204=SHAPE_DEFINITION_REPRESENTATION(#324,#205);
#205=SHAPE_REPRESENTATION('P23_gripper_finger',(#206),#319);
#206=AXIS2_PLACEMENT_3D('',#269,#221,#222);
#207=AXIS2_PLACEMENT_3D('',#270,#223,#224);
#208=AXIS2_PLACEMENT_3D('',#279,#229,#230);
#209=AXIS2_PLACEMENT_3D('',#285,#234,#235);
#210=AXIS2_PLACEMENT_3D('',#291,#239,#240);
#211=AXIS2_PLACEMENT_3D('',#297,#244,#245);
#212=AXIS2_PLACEMENT_3D('',#303,#249,#250);
#213=AXIS2_PLACEMENT_3D('',#304,#251,#252);
#214=AXIS2_PLACEMENT_3D('',#306,#253,#254);
#215=AXIS2_PLACEMENT_3D('',#308,#255,#256);
#216=AXIS2_PLACEMENT_3D('',#309,#257,#258);
#217=AXIS2_PLACEMENT_3D('',#311,#259,#260);
#218=AXIS2_PLACEMENT_3D('',#313,#261,#262);
#219=AXIS2_PLACEMENT_3D('',#316,#265,#266);
#220=AXIS2_PLACEMENT_3D('',#317,#267,#268);
#221=DIRECTION('',(0.,0.,1.));
#222=DIRECTION('',(1.,0.,0.));
#223=DIRECTION('',(1.,0.,0.));
#224=DIRECTION('',(0.,0.,-1.));
#225=DIRECTION('',(0.,-1.,0.));
#226=DIRECTION('',(0.,0.,-1.));
#227=DIRECTION('',(0.,-1.,0.));
#228=DIRECTION('',(0.,0.,-1.));
#229=DIRECTION('',(0.,1.,0.));
#230=DIRECTION('',(0.,0.,1.));
#231=DIRECTION('',(1.,0.,0.));
#232=DIRECTION('',(0.,0.,-1.));
#233=DIRECTION('',(1.,0.,0.));
#234=DIRECTION('',(-1.,0.,0.));
#235=DIRECTION('',(0.,0.,1.));
#236=DIRECTION('',(0.,1.,0.));
#237=DIRECTION('',(0.,0.,-1.));
#238=DIRECTION('',(0.,1.,0.));
#239=DIRECTION('',(0.,1.,0.));
#240=DIRECTION('',(0.,0.,1.));
#241=DIRECTION('',(1.,0.,0.));
#242=DIRECTION('',(0.,0.,-1.));
#243=DIRECTION('',(1.,0.,0.));
#244=DIRECTION('',(-1.,0.,0.));
#245=DIRECTION('',(0.,0.,1.));
#246=DIRECTION('',(0.,1.,0.));
#247=DIRECTION('',(0.,0.,-1.));
#248=DIRECTION('',(0.,1.,0.));
#249=DIRECTION('',(0.,0.,-1.));
#250=DIRECTION('',(-1.,0.,0.));
#251=DIRECTION('',(0.,0.,1.));
#252=DIRECTION('',(1.,0.,0.));
#253=DIRECTION('',(0.,0.,1.));
#254=DIRECTION('',(1.,0.,0.));
#255=DIRECTION('',(0.,0.,-1.));
#256=DIRECTION('',(-1.,0.,0.));
#257=DIRECTION('',(0.,0.,1.));
#258=DIRECTION('',(1.,0.,0.));
#259=DIRECTION('',(0.,0.,1.));
#260=DIRECTION('',(1.,0.,0.));
#261=DIRECTION('',(0.,-1.,0.));
#262=DIRECTION('',(0.,0.,-1.));
#263=DIRECTION('',(-1.,0.,0.));
#264=DIRECTION('',(-1.,0.,0.));
#265=DIRECTION('',(0.,0.,1.));
#266=DIRECTION('',(1.,0.,0.));
#267=DIRECTION('',(0.,0.,1.));
#268=DIRECTION('',(1.,0.,0.));
#269=CARTESIAN_POINT('',(0.,0.,0.));
#270=CARTESIAN_POINT('',(0.,48.,6.));
#271=CARTESIAN_POINT('',(0.,48.,0.));
#272=CARTESIAN_POINT('',(0.,48.,0.));
#273=CARTESIAN_POINT('',(0.,0.,0.));
#274=CARTESIAN_POINT('',(0.,0.,6.));
#275=CARTESIAN_POINT('',(0.,0.,6.));
#276=CARTESIAN_POINT('',(0.,48.,6.));
#277=CARTESIAN_POINT('',(0.,48.,6.));
#278=CARTESIAN_POINT('',(0.,48.,6.));
#279=CARTESIAN_POINT('',(0.,0.,6.));
#280=CARTESIAN_POINT('',(0.,0.,0.));
#281=CARTESIAN_POINT('',(12.,0.,0.));
#282=CARTESIAN_POINT('',(12.,0.,6.));
#283=CARTESIAN_POINT('',(12.,0.,6.));
#284=CARTESIAN_POINT('',(0.,0.,6.));
#285=CARTESIAN_POINT('',(12.,0.,6.));
#286=CARTESIAN_POINT('',(12.,0.,0.));
#287=CARTESIAN_POINT('',(12.,40.,0.));
#288=CARTESIAN_POINT('',(12.,40.,6.));
#289=CARTESIAN_POINT('',(12.,40.,6.));
#290=CARTESIAN_POINT('',(12.,0.,6.));
#291=CARTESIAN_POINT('',(12.,40.,6.));
#292=CARTESIAN_POINT('',(12.,40.,0.));
#293=CARTESIAN_POINT('',(25.,40.,0.));
#294=CARTESIAN_POINT('',(25.,40.,6.));
#295=CARTESIAN_POINT('',(25.,40.,6.));
#296=CARTESIAN_POINT('',(12.,40.,6.));
#297=CARTESIAN_POINT('',(25.,40.,6.));
#298=CARTESIAN_POINT('',(25.,40.,0.));
#299=CARTESIAN_POINT('',(25.,48.,0.));
#300=CARTESIAN_POINT('',(25.,48.,6.));
#301=CARTESIAN_POINT('',(25.,48.,6.));
#302=CARTESIAN_POINT('',(25.,40.,6.));
#303=CARTESIAN_POINT('',(6.,8.,6.));
#304=CARTESIAN_POINT('',(6.,8.,6.));
#305=CARTESIAN_POINT('',(7.2,8.,6.));
#306=CARTESIAN_POINT('',(6.,8.,0.));
#307=CARTESIAN_POINT('',(7.2,8.,0.));
#308=CARTESIAN_POINT('',(6.,18.,6.));
#309=CARTESIAN_POINT('',(6.,18.,6.));
#310=CARTESIAN_POINT('',(7.2,18.,6.));
#311=CARTESIAN_POINT('',(6.,18.,0.));
#312=CARTESIAN_POINT('',(7.2,18.,0.));
#313=CARTESIAN_POINT('',(25.,48.,6.));
#314=CARTESIAN_POINT('',(25.,48.,0.));
#315=CARTESIAN_POINT('',(25.,48.,6.));
#316=CARTESIAN_POINT('',(0.,0.,6.));
#317=CARTESIAN_POINT('',(0.,0.,0.));
#318=MECHANICAL_DESIGN_GEOMETRIC_PRESENTATION_REPRESENTATION('',(#195),
#319);
#319=(
GEOMETRIC_REPRESENTATION_CONTEXT(3)
GLOBAL_UNCERTAINTY_ASSIGNED_CONTEXT((#320))
GLOBAL_UNIT_ASSIGNED_CONTEXT((#323,#322,#321))
REPRESENTATION_CONTEXT('P23_gripper_finger','TOP_LEVEL_ASSEMBLY_PART')
);
#320=UNCERTAINTY_MEASURE_WITH_UNIT(LENGTH_MEASURE(0.005),#323,
'DISTANCE_ACCURACY_VALUE','Maximum Tolerance applied to model');
#321=(
NAMED_UNIT(*)
SI_UNIT($,.STERADIAN.)
SOLID_ANGLE_UNIT()
);
#322=(
NAMED_UNIT(*)
PLANE_ANGLE_UNIT()
SI_UNIT($,.RADIAN.)
);
#323=(
LENGTH_UNIT()
NAMED_UNIT(*)
SI_UNIT(.MILLI.,.METRE.)
);
#324=PRODUCT_DEFINITION_SHAPE('','',#325);
#325=PRODUCT_DEFINITION('','',#327,#326);
#326=PRODUCT_DEFINITION_CONTEXT('',#333,'design');
#327=PRODUCT_DEFINITION_FORMATION_WITH_SPECIFIED_SOURCE('','',#329,
 .NOT_KNOWN.);
#328=PRODUCT_RELATED_PRODUCT_CATEGORY('','',(#329));
#329=PRODUCT('P23_gripper_finger','P23_gripper_finger',
'P23_gripper_finger',(#331));
#330=PRODUCT_CATEGORY('','');
#331=PRODUCT_CONTEXT('',#333,'mechanical');
#332=APPLICATION_PROTOCOL_DEFINITION('international standard',
'automotive_design',2010,#333);
#333=APPLICATION_CONTEXT(
'core data for automotive mechanical design processes');
ENDSEC;
END-ISO-10303-21;
