ISO-10303-21;
HEADER;
/* Generated by software containing ST-Developer
 * from STEP Tools, Inc. (www.steptools.com) 
 */
/* OPTION: strings as raw bytes, not using required /X/ escapes */

FILE_DESCRIPTION(
/* description */ ('Unknown'),
/* implementation_level */ '2;1');

FILE_NAME(
/* name */ 'A01_rotating_platform',
/* time_stamp */ '2026-09-23T11:56:06+08:00',
/* author */ ('Unknown'),
/* organization */ ('Unknown'),
/* preprocessor_version */ 'ST-DEVELOPER v16.7',
/* originating_system */ 'Solid Edge',
/* authorisation */ 'Unknown');

FILE_SCHEMA (('AUTOMOTIVE_DESIGN {1 0 10303 214 3 1 1}'));
ENDSEC;

DATA;
#10=PROPERTY_DEFINITION_REPRESENTATION(#14,#12);
#11=PROPERTY_DEFINITION_REPRESENTATION(#15,#13);
#12=REPRESENTATION('',(#16),#423);
#13=REPRESENTATION('',(#17),#423);
#14=PROPERTY_DEFINITION('pmi validation property','',#428);
#15=PROPERTY_DEFINITION('pmi validation property','',#428);
#16=VALUE_REPRESENTATION_ITEM('number of annotations',COUNT_MEASURE(0.));
#17=VALUE_REPRESENTATION_ITEM('number of views',COUNT_MEASURE(0.));
#18=SHAPE_REPRESENTATION_RELATIONSHIP('','',#263,#19);
#19=ADVANCED_BREP_SHAPE_REPRESENTATION('',(#261),#423);
#20=CIRCLE('',#269,7.);
#21=CIRCLE('',#270,7.);
#22=CIRCLE('',#272,1.7);
#23=CIRCLE('',#273,1.7);
#24=CIRCLE('',#275,1.7);
#25=CIRCLE('',#276,1.7);
#26=CIRCLE('',#278,1.7);
#27=CIRCLE('',#279,1.7);
#28=CIRCLE('',#281,1.7);
#29=CIRCLE('',#282,1.7);
#30=CIRCLE('',#284,1.7);
#31=CIRCLE('',#285,1.7);
#32=CIRCLE('',#287,1.7);
#33=CIRCLE('',#288,1.7);
#34=CYLINDRICAL_SURFACE('',#268,7.);
#35=CYLINDRICAL_SURFACE('',#271,1.7);
#36=CYLINDRICAL_SURFACE('',#274,1.7);
#37=CYLINDRICAL_SURFACE('',#277,1.7);
#38=CYLINDRICAL_SURFACE('',#280,1.7);
#39=CYLINDRICAL_SURFACE('',#283,1.7);
#40=CYLINDRICAL_SURFACE('',#286,1.7);
#41=ORIENTED_EDGE('',*,*,#93,.T.);
#42=ORIENTED_EDGE('',*,*,#94,.F.);
#43=ORIENTED_EDGE('',*,*,#95,.F.);
#44=ORIENTED_EDGE('',*,*,#96,.T.);
#45=ORIENTED_EDGE('',*,*,#97,.T.);
#46=ORIENTED_EDGE('',*,*,#98,.F.);
#47=ORIENTED_EDGE('',*,*,#99,.F.);
#48=ORIENTED_EDGE('',*,*,#94,.T.);
#49=ORIENTED_EDGE('',*,*,#100,.T.);
#50=ORIENTED_EDGE('',*,*,#101,.F.);
#51=ORIENTED_EDGE('',*,*,#102,.F.);
#52=ORIENTED_EDGE('',*,*,#98,.T.);
#53=ORIENTED_EDGE('',*,*,#103,.T.);
#54=ORIENTED_EDGE('',*,*,#104,.F.);
#55=ORIENTED_EDGE('',*,*,#105,.T.);
#56=ORIENTED_EDGE('',*,*,#106,.F.);
#57=ORIENTED_EDGE('',*,*,#107,.T.);
#58=ORIENTED_EDGE('',*,*,#108,.F.);
#59=ORIENTED_EDGE('',*,*,#109,.T.);
#60=ORIENTED_EDGE('',*,*,#110,.F.);
#61=ORIENTED_EDGE('',*,*,#111,.T.);
#62=ORIENTED_EDGE('',*,*,#112,.F.);
#63=ORIENTED_EDGE('',*,*,#113,.T.);
#64=ORIENTED_EDGE('',*,*,#114,.F.);
#65=ORIENTED_EDGE('',*,*,#115,.T.);
#66=ORIENTED_EDGE('',*,*,#116,.F.);
#67=ORIENTED_EDGE('',*,*,#117,.T.);
#68=ORIENTED_EDGE('',*,*,#96,.F.);
#69=ORIENTED_EDGE('',*,*,#118,.F.);
#70=ORIENTED_EDGE('',*,*,#101,.T.);
#71=ORIENTED_EDGE('',*,*,#115,.F.);
#72=ORIENTED_EDGE('',*,*,#113,.F.);
#73=ORIENTED_EDGE('',*,*,#111,.F.);
#74=ORIENTED_EDGE('',*,*,#109,.F.);
#75=ORIENTED_EDGE('',*,*,#107,.F.);
#76=ORIENTED_EDGE('',*,*,#105,.F.);
#77=ORIENTED_EDGE('',*,*,#103,.F.);
#78=ORIENTED_EDGE('',*,*,#95,.T.);
#79=ORIENTED_EDGE('',*,*,#99,.T.);
#80=ORIENTED_EDGE('',*,*,#102,.T.);
#81=ORIENTED_EDGE('',*,*,#118,.T.);
#82=ORIENTED_EDGE('',*,*,#116,.T.);
#83=ORIENTED_EDGE('',*,*,#114,.T.);
#84=ORIENTED_EDGE('',*,*,#112,.T.);
#85=ORIENTED_EDGE('',*,*,#110,.T.);
#86=ORIENTED_EDGE('',*,*,#108,.T.);
#87=ORIENTED_EDGE('',*,*,#106,.T.);
#88=ORIENTED_EDGE('',*,*,#104,.T.);
#89=ORIENTED_EDGE('',*,*,#93,.F.);
#90=ORIENTED_EDGE('',*,*,#117,.F.);
#91=ORIENTED_EDGE('',*,*,#100,.F.);
#92=ORIENTED_EDGE('',*,*,#97,.F.);
#93=EDGE_CURVE('',#119,#120,#141,.T.);
#94=EDGE_CURVE('',#121,#120,#142,.T.);
#95=EDGE_CURVE('',#122,#121,#143,.T.);
#96=EDGE_CURVE('',#122,#119,#144,.T.);
#97=EDGE_CURVE('',#120,#123,#145,.T.);
#98=EDGE_CURVE('',#124,#123,#146,.T.);
#99=EDGE_CURVE('',#121,#124,#147,.T.);
#100=EDGE_CURVE('',#123,#125,#148,.T.);
#101=EDGE_CURVE('',#126,#125,#149,.T.);
#102=EDGE_CURVE('',#124,#126,#150,.T.);
#103=EDGE_CURVE('',#127,#127,#20,.T.);
#104=EDGE_CURVE('',#128,#128,#21,.T.);
#105=EDGE_CURVE('',#129,#129,#22,.T.);
#106=EDGE_CURVE('',#130,#130,#23,.T.);
#107=EDGE_CURVE('',#131,#131,#24,.T.);
#108=EDGE_CURVE('',#132,#132,#25,.T.);
#109=EDGE_CURVE('',#133,#133,#26,.T.);
#110=EDGE_CURVE('',#134,#134,#27,.T.);
#111=EDGE_CURVE('',#135,#135,#28,.T.);
#112=EDGE_CURVE('',#136,#136,#29,.T.);
#113=EDGE_CURVE('',#137,#137,#30,.T.);
#114=EDGE_CURVE('',#138,#138,#31,.T.);
#115=EDGE_CURVE('',#139,#139,#32,.T.);
#116=EDGE_CURVE('',#140,#140,#33,.T.);
#117=EDGE_CURVE('',#125,#119,#151,.T.);
#118=EDGE_CURVE('',#126,#122,#152,.T.);
#119=VERTEX_POINT('',#363);
#120=VERTEX_POINT('',#364);
#121=VERTEX_POINT('',#366);
#122=VERTEX_POINT('',#368);
#123=VERTEX_POINT('',#372);
#124=VERTEX_POINT('',#374);
#125=VERTEX_POINT('',#378);
#126=VERTEX_POINT('',#380);
#127=VERTEX_POINT('',#384);
#128=VERTEX_POINT('',#386);
#129=VERTEX_POINT('',#389);
#130=VERTEX_POINT('',#391);
#131=VERTEX_POINT('',#394);
#132=VERTEX_POINT('',#396);
#133=VERTEX_POINT('',#399);
#134=VERTEX_POINT('',#401);
#135=VERTEX_POINT('',#404);
#136=VERTEX_POINT('',#406);
#137=VERTEX_POINT('',#409);
#138=VERTEX_POINT('',#411);
#139=VERTEX_POINT('',#414);
#140=VERTEX_POINT('',#416);
#141=LINE('',#362,#153);
#142=LINE('',#365,#154);
#143=LINE('',#367,#155);
#144=LINE('',#369,#156);
#145=LINE('',#371,#157);
#146=LINE('',#373,#158);
#147=LINE('',#375,#159);
#148=LINE('',#377,#160);
#149=LINE('',#379,#161);
#150=LINE('',#381,#162);
#151=LINE('',#418,#163);
#152=LINE('',#419,#164);
#153=VECTOR('',#296,1000.);
#154=VECTOR('',#297,1000.);
#155=VECTOR('',#298,1000.);
#156=VECTOR('',#299,1000.);
#157=VECTOR('',#302,1000.);
#158=VECTOR('',#303,1000.);
#159=VECTOR('',#304,1000.);
#160=VECTOR('',#307,1000.);
#161=VECTOR('',#308,1000.);
#162=VECTOR('',#309,1000.);
#163=VECTOR('',#354,1000.);
#164=VECTOR('',#355,1000.);
#165=EDGE_LOOP('',(#41,#42,#43,#44));
#166=EDGE_LOOP('',(#45,#46,#47,#48));
#167=EDGE_LOOP('',(#49,#50,#51,#52));
#168=EDGE_LOOP('',(#53));
#169=EDGE_LOOP('',(#54));
#170=EDGE_LOOP('',(#55));
#171=EDGE_LOOP('',(#56));
#172=EDGE_LOOP('',(#57));
#173=EDGE_LOOP('',(#58));
#174=EDGE_LOOP('',(#59));
#175=EDGE_LOOP('',(#60));
#176=EDGE_LOOP('',(#61));
#177=EDGE_LOOP('',(#62));
#178=EDGE_LOOP('',(#63));
#179=EDGE_LOOP('',(#64));
#180=EDGE_LOOP('',(#65));
#181=EDGE_LOOP('',(#66));
#182=EDGE_LOOP('',(#67,#68,#69,#70));
#183=EDGE_LOOP('',(#71));
#184=EDGE_LOOP('',(#72));
#185=EDGE_LOOP('',(#73));
#186=EDGE_LOOP('',(#74));
#187=EDGE_LOOP('',(#75));
#188=EDGE_LOOP('',(#76));
#189=EDGE_LOOP('',(#77));
#190=EDGE_LOOP('',(#78,#79,#80,#81));
#191=EDGE_LOOP('',(#82));
#192=EDGE_LOOP('',(#83));
#193=EDGE_LOOP('',(#84));
#194=EDGE_LOOP('',(#85));
#195=EDGE_LOOP('',(#86));
#196=EDGE_LOOP('',(#87));
#197=EDGE_LOOP('',(#88));
#198=EDGE_LOOP('',(#89,#90,#91,#92));
#199=FACE_BOUND('',#165,.T.);
#200=FACE_BOUND('',#166,.T.);
#201=FACE_BOUND('',#167,.T.);
#202=FACE_BOUND('',#168,.T.);
#203=FACE_BOUND('',#169,.T.);
#204=FACE_BOUND('',#170,.T.);
#205=FACE_BOUND('',#171,.T.);
#206=FACE_BOUND('',#172,.T.);
#207=FACE_BOUND('',#173,.T.);
#208=FACE_BOUND('',#174,.T.);
#209=FACE_BOUND('',#175,.T.);
#210=FACE_BOUND('',#176,.T.);
#211=FACE_BOUND('',#177,.T.);
#212=FACE_BOUND('',#178,.T.);
#213=FACE_BOUND('',#179,.T.);
#214=FACE_BOUND('',#180,.T.);
#215=FACE_BOUND('',#181,.T.);
#216=FACE_BOUND('',#182,.T.);
#217=FACE_BOUND('',#183,.T.);
#218=FACE_BOUND('',#184,.T.);
#219=FACE_BOUND('',#185,.T.);
#220=FACE_BOUND('',#186,.T.);
#221=FACE_BOUND('',#187,.T.);
#222=FACE_BOUND('',#188,.T.);
#223=FACE_BOUND('',#189,.T.);
#224=FACE_BOUND('',#190,.T.);
#225=FACE_BOUND('',#191,.T.);
#226=FACE_BOUND('',#192,.T.);
#227=FACE_BOUND('',#193,.T.);
#228=FACE_BOUND('',#194,.T.);
#229=FACE_BOUND('',#195,.T.);
#230=FACE_BOUND('',#196,.T.);
#231=FACE_BOUND('',#197,.T.);
#232=FACE_BOUND('',#198,.T.);
#233=PLANE('',#265);
#234=PLANE('',#266);
#235=PLANE('',#267);
#236=PLANE('',#289);
#237=PLANE('',#290);
#238=PLANE('',#291);
#239=ADVANCED_FACE('',(#199),#233,.F.);
#240=ADVANCED_FACE('',(#200),#234,.F.);
#241=ADVANCED_FACE('',(#201),#235,.F.);
#242=ADVANCED_FACE('',(#202,#203),#34,.F.);
#243=ADVANCED_FACE('',(#204,#205),#35,.F.);
#244=ADVANCED_FACE('',(#206,#207),#36,.F.);
#245=ADVANCED_FACE('',(#208,#209),#37,.F.);
#246=ADVANCED_FACE('',(#210,#211),#38,.F.);
#247=ADVANCED_FACE('',(#212,#213),#39,.F.);
#248=ADVANCED_FACE('',(#214,#215),#40,.F.);
#249=ADVANCED_FACE('',(#216),#236,.F.);
#250=ADVANCED_FACE('',(#217,#218,#219,#220,#221,#222,#223,#224),#237,.T.);
#251=ADVANCED_FACE('',(#225,#226,#227,#228,#229,#230,#231,#232),#238,.F.);
#252=CLOSED_SHELL('',(#239,#240,#241,#242,#243,#244,#245,#246,#247,#248,
#249,#250,#251));
#253=STYLED_ITEM('',(#254),#261);
#254=PRESENTATION_STYLE_ASSIGNMENT((#255));
#255=SURFACE_STYLE_USAGE(.BOTH.,#256);
#256=SURFACE_SIDE_STYLE('',(#257));
#257=SURFACE_STYLE_FILL_AREA(#258);
#258=FILL_AREA_STYLE('',(#259));
#259=FILL_AREA_STYLE_COLOUR('',#260);
#260=COLOUR_RGB('',0.100000001490116,0.349999994039536,0.280000001192093);
#261=MANIFOLD_SOLID_BREP('',#252);
#262=SHAPE_DEFINITION_REPRESENTATION(#428,#263);
#263=SHAPE_REPRESENTATION('A01_rotating_platform',(#264),#423);
#264=AXIS2_PLACEMENT_3D('',#360,#292,#293);
#265=AXIS2_PLACEMENT_3D('',#361,#294,#295);
#266=AXIS2_PLACEMENT_3D('',#370,#300,#301);
#267=AXIS2_PLACEMENT_3D('',#376,#305,#306);
#268=AXIS2_PLACEMENT_3D('',#382,#310,#311);
#269=AXIS2_PLACEMENT_3D('',#383,#312,#313);
#270=AXIS2_PLACEMENT_3D('',#385,#314,#315);
#271=AXIS2_PLACEMENT_3D('',#387,#316,#317);
#272=AXIS2_PLACEMENT_3D('',#388,#318,#319);
#273=AXIS2_PLACEMENT_3D('',#390,#320,#321);
#274=AXIS2_PLACEMENT_3D('',#392,#322,#323);
#275=AXIS2_PLACEMENT_3D('',#393,#324,#325);
#276=AXIS2_PLACEMENT_3D('',#395,#326,#327);
#277=AXIS2_PLACEMENT_3D('',#397,#328,#329);
#278=AXIS2_PLACEMENT_3D('',#398,#330,#331);
#279=AXIS2_PLACEMENT_3D('',#400,#332,#333);
#280=AXIS2_PLACEMENT_3D('',#402,#334,#335);
#281=AXIS2_PLACEMENT_3D('',#403,#336,#337);
#282=AXIS2_PLACEMENT_3D('',#405,#338,#339);
#283=AXIS2_PLACEMENT_3D('',#407,#340,#341);
#284=AXIS2_PLACEMENT_3D('',#408,#342,#343);
#285=AXIS2_PLACEMENT_3D('',#410,#344,#345);
#286=AXIS2_PLACEMENT_3D('',#412,#346,#347);
#287=AXIS2_PLACEMENT_3D('',#413,#348,#349);
#288=AXIS2_PLACEMENT_3D('',#415,#350,#351);
#289=AXIS2_PLACEMENT_3D('',#417,#352,#353);
#290=AXIS2_PLACEMENT_3D('',#420,#356,#357);
#291=AXIS2_PLACEMENT_3D('',#421,#358,#359);
#292=DIRECTION('',(0.,0.,1.));
#293=DIRECTION('',(1.,0.,0.));
#294=DIRECTION('',(1.,0.,0.));
#295=DIRECTION('',(0.,0.,-1.));
#296=DIRECTION('',(0.,-1.,0.));
#297=DIRECTION('',(0.,0.,-1.));
#298=DIRECTION('',(0.,-1.,0.));
#299=DIRECTION('',(0.,0.,-1.));
#300=DIRECTION('',(0.,1.,0.));
#301=DIRECTION('',(0.,0.,1.));
#302=DIRECTION('',(1.,0.,0.));
#303=DIRECTION('',(0.,0.,-1.));
#304=DIRECTION('',(1.,0.,0.));
#305=DIRECTION('',(-1.,0.,0.));
#306=DIRECTION('',(0.,0.,1.));
#307=DIRECTION('',(0.,1.,0.));
#308=DIRECTION('',(0.,0.,-1.));
#309=DIRECTION('',(0.,1.,0.));
#310=DIRECTION('',(0.,0.,-1.));
#311=DIRECTION('',(-1.,0.,0.));
#312=DIRECTION('',(0.,0.,1.));
#313=DIRECTION('',(1.,0.,0.));
#314=DIRECTION('',(0.,0.,1.));
#315=DIRECTION('',(1.,0.,0.));
#316=DIRECTION('',(0.,0.,-1.));
#317=DIRECTION('',(-1.,0.,0.));
#318=DIRECTION('',(0.,0.,1.));
#319=DIRECTION('',(1.,0.,0.));
#320=DIRECTION('',(0.,0.,1.));
#321=DIRECTION('',(1.,0.,0.));
#322=DIRECTION('',(0.,0.,-1.));
#323=DIRECTION('',(-1.,0.,0.));
#324=DIRECTION('',(0.,0.,1.));
#325=DIRECTION('',(1.,0.,0.));
#326=DIRECTION('',(0.,0.,1.));
#327=DIRECTION('',(1.,0.,0.));
#328=DIRECTION('',(0.,0.,-1.));
#329=DIRECTION('',(-1.,0.,0.));
#330=DIRECTION('',(0.,0.,1.));
#331=DIRECTION('',(1.,0.,0.));
#332=DIRECTION('',(0.,0.,1.));
#333=DIRECTION('',(1.,0.,0.));
#334=DIRECTION('',(0.,0.,-1.));
#335=DIRECTION('',(-1.,0.,0.));
#336=DIRECTION('',(0.,0.,1.));
#337=DIRECTION('',(1.,0.,0.));
#338=DIRECTION('',(0.,0.,1.));
#339=DIRECTION('',(1.,0.,0.));
#340=DIRECTION('',(0.,0.,-1.));
#341=DIRECTION('',(-1.,0.,0.));
#342=DIRECTION('',(0.,0.,1.));
#343=DIRECTION('',(1.,0.,0.));
#344=DIRECTION('',(0.,0.,1.));
#345=DIRECTION('',(1.,0.,0.));
#346=DIRECTION('',(0.,0.,-1.));
#347=DIRECTION('',(-1.,0.,0.));
#348=DIRECTION('',(0.,0.,1.));
#349=DIRECTION('',(1.,0.,0.));
#350=DIRECTION('',(0.,0.,1.));
#351=DIRECTION('',(1.,0.,0.));
#352=DIRECTION('',(0.,-1.,0.));
#353=DIRECTION('',(0.,0.,-1.));
#354=DIRECTION('',(-1.,0.,0.));
#355=DIRECTION('',(-1.,0.,0.));
#356=DIRECTION('',(0.,0.,1.));
#357=DIRECTION('',(1.,0.,0.));
#358=DIRECTION('',(0.,0.,1.));
#359=DIRECTION('',(1.,0.,0.));
#360=CARTESIAN_POINT('',(0.,0.,0.));
#361=CARTESIAN_POINT('',(-44.,40.,6.));
#362=CARTESIAN_POINT('',(-44.,40.,0.));
#363=CARTESIAN_POINT('',(-44.,40.,0.));
#364=CARTESIAN_POINT('',(-44.,-40.,0.));
#365=CARTESIAN_POINT('',(-44.,-40.,6.));
#366=CARTESIAN_POINT('',(-44.,-40.,6.));
#367=CARTESIAN_POINT('',(-44.,40.,6.));
#368=CARTESIAN_POINT('',(-44.,40.,6.));
#369=CARTESIAN_POINT('',(-44.,40.,6.));
#370=CARTESIAN_POINT('',(-44.,-40.,6.));
#371=CARTESIAN_POINT('',(-44.,-40.,0.));
#372=CARTESIAN_POINT('',(44.,-40.,0.));
#373=CARTESIAN_POINT('',(44.,-40.,6.));
#374=CARTESIAN_POINT('',(44.,-40.,6.));
#375=CARTESIAN_POINT('',(-44.,-40.,6.));
#376=CARTESIAN_POINT('',(44.,-40.,6.));
#377=CARTESIAN_POINT('',(44.,-40.,0.));
#378=CARTESIAN_POINT('',(44.,40.,0.));
#379=CARTESIAN_POINT('',(44.,40.,6.));
#380=CARTESIAN_POINT('',(44.,40.,6.));
#381=CARTESIAN_POINT('',(44.,-40.,6.));
#382=CARTESIAN_POINT('',(0.,0.,6.));
#383=CARTESIAN_POINT('',(0.,0.,6.));
#384=CARTESIAN_POINT('',(7.,0.,6.));
#385=CARTESIAN_POINT('',(0.,0.,0.));
#386=CARTESIAN_POINT('',(7.,0.,0.));
#387=CARTESIAN_POINT('',(19.0918830920368,19.0918830920368,6.));
#388=CARTESIAN_POINT('',(19.0918830920368,19.0918830920368,6.));
#389=CARTESIAN_POINT('',(20.7918830920368,19.0918830920368,6.));
#390=CARTESIAN_POINT('',(19.0918830920368,19.0918830920368,0.));
#391=CARTESIAN_POINT('',(20.7918830920368,19.0918830920368,0.));
#392=CARTESIAN_POINT('',(-19.0918830920368,19.0918830920368,6.));
#393=CARTESIAN_POINT('',(-19.0918830920368,19.0918830920368,6.));
#394=CARTESIAN_POINT('',(-17.3918830920368,19.0918830920368,6.));
#395=CARTESIAN_POINT('',(-19.0918830920368,19.0918830920368,0.));
#396=CARTESIAN_POINT('',(-17.3918830920368,19.0918830920368,0.));
#397=CARTESIAN_POINT('',(-19.0918830920368,-19.0918830920368,6.));
#398=CARTESIAN_POINT('',(-19.0918830920368,-19.0918830920368,6.));
#399=CARTESIAN_POINT('',(-17.3918830920368,-19.0918830920368,6.));
#400=CARTESIAN_POINT('',(-19.0918830920368,-19.0918830920368,0.));
#401=CARTESIAN_POINT('',(-17.3918830920368,-19.0918830920368,0.));
#402=CARTESIAN_POINT('',(19.0918830920368,-19.0918830920368,6.));
#403=CARTESIAN_POINT('',(19.0918830920368,-19.0918830920368,6.));
#404=CARTESIAN_POINT('',(20.7918830920368,-19.0918830920368,6.));
#405=CARTESIAN_POINT('',(19.0918830920368,-19.0918830920368,0.));
#406=CARTESIAN_POINT('',(20.7918830920368,-19.0918830920368,0.));
#407=CARTESIAN_POINT('',(-20.,30.,6.));
#408=CARTESIAN_POINT('',(-20.,30.,6.));
#409=CARTESIAN_POINT('',(-18.3,30.,6.));
#410=CARTESIAN_POINT('',(-20.,30.,0.));
#411=CARTESIAN_POINT('',(-18.3,30.,0.));
#412=CARTESIAN_POINT('',(20.,30.,6.));
#413=CARTESIAN_POINT('',(20.,30.,6.));
#414=CARTESIAN_POINT('',(21.7,30.,6.));
#415=CARTESIAN_POINT('',(20.,30.,0.));
#416=CARTESIAN_POINT('',(21.7,30.,0.));
#417=CARTESIAN_POINT('',(44.,40.,6.));
#418=CARTESIAN_POINT('',(44.,40.,0.));
#419=CARTESIAN_POINT('',(44.,40.,6.));
#420=CARTESIAN_POINT('',(0.,0.,6.));
#421=CARTESIAN_POINT('',(0.,0.,0.));
#422=MECHANICAL_DESIGN_GEOMETRIC_PRESENTATION_REPRESENTATION('',(#253),
#423);
#423=(
GEOMETRIC_REPRESENTATION_CONTEXT(3)
GLOBAL_UNCERTAINTY_ASSIGNED_CONTEXT((#424))
GLOBAL_UNIT_ASSIGNED_CONTEXT((#427,#426,#425))
REPRESENTATION_CONTEXT('A01_rotating_platform',
'TOP_LEVEL_ASSEMBLY_PART')
);
#424=UNCERTAINTY_MEASURE_WITH_UNIT(LENGTH_MEASURE(0.005),#427,
'DISTANCE_ACCURACY_VALUE','Maximum Tolerance applied to model');
#425=(
NAMED_UNIT(*)
SI_UNIT($,.STERADIAN.)
SOLID_ANGLE_UNIT()
);
#426=(
NAMED_UNIT(*)
PLANE_ANGLE_UNIT()
SI_UNIT($,.RADIAN.)
);
#427=(
LENGTH_UNIT()
NAMED_UNIT(*)
SI_UNIT(.MILLI.,.METRE.)
);
#428=PRODUCT_DEFINITION_SHAPE('','',#429);
#429=PRODUCT_DEFINITION('','',#431,#430);
#430=PRODUCT_DEFINITION_CONTEXT('',#437,'design');
#431=PRODUCT_DEFINITION_FORMATION_WITH_SPECIFIED_SOURCE('','',#433,
 .NOT_KNOWN.);
#432=PRODUCT_RELATED_PRODUCT_CATEGORY('','',(#433));
#433=PRODUCT('A01_rotating_platform','A01_rotating_platform',
'A01_rotating_platform',(#435));
#434=PRODUCT_CATEGORY('','');
#435=PRODUCT_CONTEXT('',#437,'mechanical');
#436=APPLICATION_PROTOCOL_DEFINITION('international standard',
'automotive_design',2010,#437);
#437=APPLICATION_CONTEXT(
'core data for automotive mechanical design processes');
ENDSEC;
END-ISO-10303-21;
