ISO-10303-21;
HEADER;
/* Generated by software containing ST-Developer
 * from STEP Tools, Inc. (www.steptools.com) 
 */
/* OPTION: strings as raw bytes, not using required /X/ escapes */

FILE_DESCRIPTION(
/* description */ ('Unknown'),
/* implementation_level */ '2;1');

FILE_NAME(
/* name */ 'A02_shoulder_pedestal',
/* time_stamp */ '2026-09-23T11:56:09+08:00',
/* author */ ('Unknown'),
/* organization */ ('Unknown'),
/* preprocessor_version */ 'ST-DEVELOPER v16.7',
/* originating_system */ 'Solid Edge',
/* authorisation */ 'Unknown');

FILE_SCHEMA (('AUTOMOTIVE_DESIGN {1 0 10303 214 3 1 1}'));
ENDSEC;

DATA;
#10=PROPERTY_DEFINITION_REPRESENTATION(#14,#12);
#11=PROPERTY_DEFINITION_REPRESENTATION(#15,#13);
#12=REPRESENTATION('',(#16),#707);
#13=REPRESENTATION('',(#17),#707);
#14=PROPERTY_DEFINITION('pmi validation property','',#712);
#15=PROPERTY_DEFINITION('pmi validation property','',#712);
#16=VALUE_REPRESENTATION_ITEM('number of annotations',COUNT_MEASURE(0.));
#17=VALUE_REPRESENTATION_ITEM('number of views',COUNT_MEASURE(0.));
#18=SHAPE_REPRESENTATION_RELATIONSHIP('','',#437,#19);
#19=ADVANCED_BREP_SHAPE_REPRESENTATION('',(#435),#707);
#20=CYLINDRICAL_SURFACE('',#452,1.7);
#21=CYLINDRICAL_SURFACE('',#455,1.7);
#22=CYLINDRICAL_SURFACE('',#458,1.7);
#23=CYLINDRICAL_SURFACE('',#460,1.7);
#24=CYLINDRICAL_SURFACE('',#471,1.7);
#25=CYLINDRICAL_SURFACE('',#476,1.7);
#26=CIRCLE('',#440,1.7);
#27=CIRCLE('',#441,1.7);
#28=CIRCLE('',#443,1.7);
#29=CIRCLE('',#444,1.7);
#30=CIRCLE('',#445,1.7);
#31=CIRCLE('',#446,1.7);
#32=CIRCLE('',#449,1.7);
#33=CIRCLE('',#450,1.7);
#34=CIRCLE('',#453,1.7);
#35=CIRCLE('',#454,1.7);
#36=CIRCLE('',#456,1.7);
#37=CIRCLE('',#457,1.7);
#38=CIRCLE('',#459,1.7);
#39=CIRCLE('',#461,1.7);
#40=CIRCLE('',#472,1.7);
#41=CIRCLE('',#475,1.7);
#42=ORIENTED_EDGE('',*,*,#150,.T.);
#43=ORIENTED_EDGE('',*,*,#151,.T.);
#44=ORIENTED_EDGE('',*,*,#152,.T.);
#45=ORIENTED_EDGE('',*,*,#153,.T.);
#46=ORIENTED_EDGE('',*,*,#154,.F.);
#47=ORIENTED_EDGE('',*,*,#155,.T.);
#48=ORIENTED_EDGE('',*,*,#156,.F.);
#49=ORIENTED_EDGE('',*,*,#157,.F.);
#50=ORIENTED_EDGE('',*,*,#158,.F.);
#51=ORIENTED_EDGE('',*,*,#159,.F.);
#52=ORIENTED_EDGE('',*,*,#160,.T.);
#53=ORIENTED_EDGE('',*,*,#161,.T.);
#54=ORIENTED_EDGE('',*,*,#162,.F.);
#55=ORIENTED_EDGE('',*,*,#163,.F.);
#56=ORIENTED_EDGE('',*,*,#153,.F.);
#57=ORIENTED_EDGE('',*,*,#164,.T.);
#58=ORIENTED_EDGE('',*,*,#165,.F.);
#59=ORIENTED_EDGE('',*,*,#166,.T.);
#60=ORIENTED_EDGE('',*,*,#167,.T.);
#61=ORIENTED_EDGE('',*,*,#168,.T.);
#62=ORIENTED_EDGE('',*,*,#169,.T.);
#63=ORIENTED_EDGE('',*,*,#170,.F.);
#64=ORIENTED_EDGE('',*,*,#171,.F.);
#65=ORIENTED_EDGE('',*,*,#172,.F.);
#66=ORIENTED_EDGE('',*,*,#173,.T.);
#67=ORIENTED_EDGE('',*,*,#174,.F.);
#68=ORIENTED_EDGE('',*,*,#175,.F.);
#69=ORIENTED_EDGE('',*,*,#158,.T.);
#70=ORIENTED_EDGE('',*,*,#176,.F.);
#71=ORIENTED_EDGE('',*,*,#177,.T.);
#72=ORIENTED_EDGE('',*,*,#169,.F.);
#73=ORIENTED_EDGE('',*,*,#178,.T.);
#74=ORIENTED_EDGE('',*,*,#179,.F.);
#75=ORIENTED_EDGE('',*,*,#180,.F.);
#76=ORIENTED_EDGE('',*,*,#181,.T.);
#77=ORIENTED_EDGE('',*,*,#182,.F.);
#78=ORIENTED_EDGE('',*,*,#183,.F.);
#79=ORIENTED_EDGE('',*,*,#174,.T.);
#80=ORIENTED_EDGE('',*,*,#184,.T.);
#81=ORIENTED_EDGE('',*,*,#185,.F.);
#82=ORIENTED_EDGE('',*,*,#167,.F.);
#83=ORIENTED_EDGE('',*,*,#186,.F.);
#84=ORIENTED_EDGE('',*,*,#187,.T.);
#85=ORIENTED_EDGE('',*,*,#160,.F.);
#86=ORIENTED_EDGE('',*,*,#188,.F.);
#87=ORIENTED_EDGE('',*,*,#182,.T.);
#88=ORIENTED_EDGE('',*,*,#189,.T.);
#89=ORIENTED_EDGE('',*,*,#171,.T.);
#90=ORIENTED_EDGE('',*,*,#190,.F.);
#91=ORIENTED_EDGE('',*,*,#165,.T.);
#92=ORIENTED_EDGE('',*,*,#191,.T.);
#93=ORIENTED_EDGE('',*,*,#192,.F.);
#94=ORIENTED_EDGE('',*,*,#163,.T.);
#95=ORIENTED_EDGE('',*,*,#193,.F.);
#96=ORIENTED_EDGE('',*,*,#162,.T.);
#97=ORIENTED_EDGE('',*,*,#194,.F.);
#98=ORIENTED_EDGE('',*,*,#195,.T.);
#99=ORIENTED_EDGE('',*,*,#178,.F.);
#100=ORIENTED_EDGE('',*,*,#168,.F.);
#101=ORIENTED_EDGE('',*,*,#185,.T.);
#102=ORIENTED_EDGE('',*,*,#194,.T.);
#103=ORIENTED_EDGE('',*,*,#193,.T.);
#104=ORIENTED_EDGE('',*,*,#192,.T.);
#105=ORIENTED_EDGE('',*,*,#190,.T.);
#106=ORIENTED_EDGE('',*,*,#173,.F.);
#107=ORIENTED_EDGE('',*,*,#195,.F.);
#108=ORIENTED_EDGE('',*,*,#184,.F.);
#109=ORIENTED_EDGE('',*,*,#181,.F.);
#110=ORIENTED_EDGE('',*,*,#175,.T.);
#111=ORIENTED_EDGE('',*,*,#183,.T.);
#112=ORIENTED_EDGE('',*,*,#188,.T.);
#113=ORIENTED_EDGE('',*,*,#159,.T.);
#114=ORIENTED_EDGE('',*,*,#189,.F.);
#115=ORIENTED_EDGE('',*,*,#196,.F.);
#116=ORIENTED_EDGE('',*,*,#172,.T.);
#117=ORIENTED_EDGE('',*,*,#196,.T.);
#118=ORIENTED_EDGE('',*,*,#170,.T.);
#119=ORIENTED_EDGE('',*,*,#177,.F.);
#120=ORIENTED_EDGE('',*,*,#197,.F.);
#121=ORIENTED_EDGE('',*,*,#156,.T.);
#122=ORIENTED_EDGE('',*,*,#198,.T.);
#123=ORIENTED_EDGE('',*,*,#154,.T.);
#124=ORIENTED_EDGE('',*,*,#176,.T.);
#125=ORIENTED_EDGE('',*,*,#157,.T.);
#126=ORIENTED_EDGE('',*,*,#197,.T.);
#127=ORIENTED_EDGE('',*,*,#164,.F.);
#128=ORIENTED_EDGE('',*,*,#152,.F.);
#129=ORIENTED_EDGE('',*,*,#199,.F.);
#130=ORIENTED_EDGE('',*,*,#150,.F.);
#131=ORIENTED_EDGE('',*,*,#200,.T.);
#132=ORIENTED_EDGE('',*,*,#186,.T.);
#133=ORIENTED_EDGE('',*,*,#166,.F.);
#134=ORIENTED_EDGE('',*,*,#201,.F.);
#135=ORIENTED_EDGE('',*,*,#187,.F.);
#136=ORIENTED_EDGE('',*,*,#200,.F.);
#137=ORIENTED_EDGE('',*,*,#161,.F.);
#138=ORIENTED_EDGE('',*,*,#191,.F.);
#139=ORIENTED_EDGE('',*,*,#201,.T.);
#140=ORIENTED_EDGE('',*,*,#180,.T.);
#141=ORIENTED_EDGE('',*,*,#202,.F.);
#142=ORIENTED_EDGE('',*,*,#155,.F.);
#143=ORIENTED_EDGE('',*,*,#202,.T.);
#144=ORIENTED_EDGE('',*,*,#198,.F.);
#145=ORIENTED_EDGE('',*,*,#199,.T.);
#146=ORIENTED_EDGE('',*,*,#203,.T.);
#147=ORIENTED_EDGE('',*,*,#179,.T.);
#148=ORIENTED_EDGE('',*,*,#151,.F.);
#149=ORIENTED_EDGE('',*,*,#203,.F.);
#150=EDGE_CURVE('',#204,#205,#240,.T.);
#151=EDGE_CURVE('',#205,#206,#26,.T.);
#152=EDGE_CURVE('',#206,#207,#241,.T.);
#153=EDGE_CURVE('',#207,#208,#242,.T.);
#154=EDGE_CURVE('',#209,#208,#243,.T.);
#155=EDGE_CURVE('',#209,#210,#27,.T.);
#156=EDGE_CURVE('',#211,#210,#244,.T.);
#157=EDGE_CURVE('',#212,#211,#245,.T.);
#158=EDGE_CURVE('',#213,#212,#246,.T.);
#159=EDGE_CURVE('',#214,#213,#247,.T.);
#160=EDGE_CURVE('',#214,#215,#248,.T.);
#161=EDGE_CURVE('',#215,#204,#249,.T.);
#162=EDGE_CURVE('',#216,#216,#28,.T.);
#163=EDGE_CURVE('',#217,#217,#29,.T.);
#164=EDGE_CURVE('',#207,#218,#250,.T.);
#165=EDGE_CURVE('',#219,#218,#30,.T.);
#166=EDGE_CURVE('',#219,#220,#251,.T.);
#167=EDGE_CURVE('',#220,#221,#252,.T.);
#168=EDGE_CURVE('',#221,#222,#253,.T.);
#169=EDGE_CURVE('',#222,#223,#254,.T.);
#170=EDGE_CURVE('',#224,#223,#255,.T.);
#171=EDGE_CURVE('',#225,#224,#31,.T.);
#172=EDGE_CURVE('',#208,#225,#256,.T.);
#173=EDGE_CURVE('',#226,#227,#257,.T.);
#174=EDGE_CURVE('',#228,#227,#258,.T.);
#175=EDGE_CURVE('',#213,#228,#259,.T.);
#176=EDGE_CURVE('',#229,#212,#260,.T.);
#177=EDGE_CURVE('',#229,#223,#261,.T.);
#178=EDGE_CURVE('',#222,#226,#262,.T.);
#179=EDGE_CURVE('',#230,#230,#32,.T.);
#180=EDGE_CURVE('',#231,#231,#33,.T.);
#181=EDGE_CURVE('',#227,#232,#263,.T.);
#182=EDGE_CURVE('',#233,#232,#264,.T.);
#183=EDGE_CURVE('',#228,#233,#265,.T.);
#184=EDGE_CURVE('',#232,#234,#266,.T.);
#185=EDGE_CURVE('',#221,#234,#267,.T.);
#186=EDGE_CURVE('',#235,#220,#268,.T.);
#187=EDGE_CURVE('',#235,#215,#269,.T.);
#188=EDGE_CURVE('',#233,#214,#270,.T.);
#189=EDGE_CURVE('',#224,#225,#34,.T.);
#190=EDGE_CURVE('',#236,#236,#35,.T.);
#191=EDGE_CURVE('',#218,#219,#36,.T.);
#192=EDGE_CURVE('',#237,#237,#37,.T.);
#193=EDGE_CURVE('',#238,#238,#38,.T.);
#194=EDGE_CURVE('',#239,#239,#39,.T.);
#195=EDGE_CURVE('',#234,#226,#271,.T.);
#196=EDGE_CURVE('',#225,#224,#272,.T.);
#197=EDGE_CURVE('',#211,#229,#273,.T.);
#198=EDGE_CURVE('',#210,#209,#274,.T.);
#199=EDGE_CURVE('',#205,#206,#275,.T.);
#200=EDGE_CURVE('',#204,#235,#276,.T.);
#201=EDGE_CURVE('',#218,#219,#277,.T.);
#202=EDGE_CURVE('',#210,#209,#40,.T.);
#203=EDGE_CURVE('',#206,#205,#41,.T.);
#204=VERTEX_POINT('',#596);
#205=VERTEX_POINT('',#597);
#206=VERTEX_POINT('',#599);
#207=VERTEX_POINT('',#601);
#208=VERTEX_POINT('',#603);
#209=VERTEX_POINT('',#605);
#210=VERTEX_POINT('',#607);
#211=VERTEX_POINT('',#609);
#212=VERTEX_POINT('',#611);
#213=VERTEX_POINT('',#613);
#214=VERTEX_POINT('',#615);
#215=VERTEX_POINT('',#617);
#216=VERTEX_POINT('',#621);
#217=VERTEX_POINT('',#623);
#218=VERTEX_POINT('',#625);
#219=VERTEX_POINT('',#627);
#220=VERTEX_POINT('',#629);
#221=VERTEX_POINT('',#631);
#222=VERTEX_POINT('',#633);
#223=VERTEX_POINT('',#635);
#224=VERTEX_POINT('',#637);
#225=VERTEX_POINT('',#639);
#226=VERTEX_POINT('',#643);
#227=VERTEX_POINT('',#644);
#228=VERTEX_POINT('',#646);
#229=VERTEX_POINT('',#649);
#230=VERTEX_POINT('',#654);
#231=VERTEX_POINT('',#656);
#232=VERTEX_POINT('',#658);
#233=VERTEX_POINT('',#660);
#234=VERTEX_POINT('',#664);
#235=VERTEX_POINT('',#667);
#236=VERTEX_POINT('',#673);
#237=VERTEX_POINT('',#677);
#238=VERTEX_POINT('',#680);
#239=VERTEX_POINT('',#683);
#240=LINE('',#595,#278);
#241=LINE('',#600,#279);
#242=LINE('',#602,#280);
#243=LINE('',#604,#281);
#244=LINE('',#608,#282);
#245=LINE('',#610,#283);
#246=LINE('',#612,#284);
#247=LINE('',#614,#285);
#248=LINE('',#616,#286);
#249=LINE('',#618,#287);
#250=LINE('',#624,#288);
#251=LINE('',#628,#289);
#252=LINE('',#630,#290);
#253=LINE('',#632,#291);
#254=LINE('',#634,#292);
#255=LINE('',#636,#293);
#256=LINE('',#640,#294);
#257=LINE('',#642,#295);
#258=LINE('',#645,#296);
#259=LINE('',#647,#297);
#260=LINE('',#648,#298);
#261=LINE('',#650,#299);
#262=LINE('',#651,#300);
#263=LINE('',#657,#301);
#264=LINE('',#659,#302);
#265=LINE('',#661,#303);
#266=LINE('',#663,#304);
#267=LINE('',#665,#305);
#268=LINE('',#666,#306);
#269=LINE('',#668,#307);
#270=LINE('',#669,#308);
#271=LINE('',#685,#309);
#272=LINE('',#689,#310);
#273=LINE('',#691,#311);
#274=LINE('',#692,#312);
#275=LINE('',#695,#313);
#276=LINE('',#696,#314);
#277=LINE('',#697,#315);
#278=VECTOR('',#481,1000.);
#279=VECTOR('',#484,1000.);
#280=VECTOR('',#485,1000.);
#281=VECTOR('',#486,1000.);
#282=VECTOR('',#489,1000.);
#283=VECTOR('',#490,1000.);
#284=VECTOR('',#491,1000.);
#285=VECTOR('',#492,1000.);
#286=VECTOR('',#493,1000.);
#287=VECTOR('',#494,1000.);
#288=VECTOR('',#501,1000.);
#289=VECTOR('',#504,1000.);
#290=VECTOR('',#505,1000.);
#291=VECTOR('',#506,1000.);
#292=VECTOR('',#507,1000.);
#293=VECTOR('',#508,1000.);
#294=VECTOR('',#511,1000.);
#295=VECTOR('',#514,1000.);
#296=VECTOR('',#515,1000.);
#297=VECTOR('',#516,1000.);
#298=VECTOR('',#517,1000.);
#299=VECTOR('',#518,1000.);
#300=VECTOR('',#519,1000.);
#301=VECTOR('',#526,1000.);
#302=VECTOR('',#527,1000.);
#303=VECTOR('',#528,1000.);
#304=VECTOR('',#531,1000.);
#305=VECTOR('',#532,1000.);
#306=VECTOR('',#533,1000.);
#307=VECTOR('',#534,1000.);
#308=VECTOR('',#535,1000.);
#309=VECTOR('',#558,1000.);
#310=VECTOR('',#565,1000.);
#311=VECTOR('',#568,1000.);
#312=VECTOR('',#569,1000.);
#313=VECTOR('',#574,1000.);
#314=VECTOR('',#575,1000.);
#315=VECTOR('',#576,1000.);
#316=EDGE_LOOP('',(#42,#43,#44,#45,#46,#47,#48,#49,#50,#51,#52,#53));
#317=EDGE_LOOP('',(#54));
#318=EDGE_LOOP('',(#55));
#319=EDGE_LOOP('',(#56,#57,#58,#59,#60,#61,#62,#63,#64,#65));
#320=EDGE_LOOP('',(#66,#67,#68,#69,#70,#71,#72,#73));
#321=EDGE_LOOP('',(#74));
#322=EDGE_LOOP('',(#75));
#323=EDGE_LOOP('',(#76,#77,#78,#79));
#324=EDGE_LOOP('',(#80,#81,#82,#83,#84,#85,#86,#87));
#325=EDGE_LOOP('',(#88,#89));
#326=EDGE_LOOP('',(#90));
#327=EDGE_LOOP('',(#91,#92));
#328=EDGE_LOOP('',(#93));
#329=EDGE_LOOP('',(#94));
#330=EDGE_LOOP('',(#95));
#331=EDGE_LOOP('',(#96));
#332=EDGE_LOOP('',(#97));
#333=EDGE_LOOP('',(#98,#99,#100,#101));
#334=EDGE_LOOP('',(#102));
#335=EDGE_LOOP('',(#103));
#336=EDGE_LOOP('',(#104));
#337=EDGE_LOOP('',(#105));
#338=EDGE_LOOP('',(#106,#107,#108,#109));
#339=EDGE_LOOP('',(#110,#111,#112,#113));
#340=EDGE_LOOP('',(#114,#115));
#341=EDGE_LOOP('',(#116,#117,#118,#119,#120,#121,#122,#123));
#342=EDGE_LOOP('',(#124,#125,#126));
#343=EDGE_LOOP('',(#127,#128,#129,#130,#131,#132,#133,#134));
#344=EDGE_LOOP('',(#135,#136,#137));
#345=EDGE_LOOP('',(#138,#139));
#346=EDGE_LOOP('',(#140));
#347=EDGE_LOOP('',(#141,#142));
#348=EDGE_LOOP('',(#143,#144));
#349=EDGE_LOOP('',(#145,#146));
#350=EDGE_LOOP('',(#147));
#351=EDGE_LOOP('',(#148,#149));
#352=FACE_BOUND('',#316,.T.);
#353=FACE_BOUND('',#317,.T.);
#354=FACE_BOUND('',#318,.T.);
#355=FACE_BOUND('',#319,.T.);
#356=FACE_BOUND('',#320,.T.);
#357=FACE_BOUND('',#321,.T.);
#358=FACE_BOUND('',#322,.T.);
#359=FACE_BOUND('',#323,.T.);
#360=FACE_BOUND('',#324,.T.);
#361=FACE_BOUND('',#325,.T.);
#362=FACE_BOUND('',#326,.T.);
#363=FACE_BOUND('',#327,.T.);
#364=FACE_BOUND('',#328,.T.);
#365=FACE_BOUND('',#329,.T.);
#366=FACE_BOUND('',#330,.T.);
#367=FACE_BOUND('',#331,.T.);
#368=FACE_BOUND('',#332,.T.);
#369=FACE_BOUND('',#333,.T.);
#370=FACE_BOUND('',#334,.T.);
#371=FACE_BOUND('',#335,.T.);
#372=FACE_BOUND('',#336,.T.);
#373=FACE_BOUND('',#337,.T.);
#374=FACE_BOUND('',#338,.T.);
#375=FACE_BOUND('',#339,.T.);
#376=FACE_BOUND('',#340,.T.);
#377=FACE_BOUND('',#341,.T.);
#378=FACE_BOUND('',#342,.T.);
#379=FACE_BOUND('',#343,.T.);
#380=FACE_BOUND('',#344,.T.);
#381=FACE_BOUND('',#345,.T.);
#382=FACE_BOUND('',#346,.T.);
#383=FACE_BOUND('',#347,.T.);
#384=FACE_BOUND('',#348,.T.);
#385=FACE_BOUND('',#349,.T.);
#386=FACE_BOUND('',#350,.T.);
#387=FACE_BOUND('',#351,.T.);
#388=PLANE('',#439);
#389=PLANE('',#442);
#390=PLANE('',#447);
#391=PLANE('',#448);
#392=PLANE('',#451);
#393=PLANE('',#462);
#394=PLANE('',#463);
#395=PLANE('',#464);
#396=PLANE('',#465);
#397=PLANE('',#466);
#398=PLANE('',#467);
#399=PLANE('',#468);
#400=PLANE('',#469);
#401=PLANE('',#470);
#402=PLANE('',#473);
#403=PLANE('',#474);
#404=ADVANCED_FACE('',(#352),#388,.F.);
#405=ADVANCED_FACE('',(#353,#354,#355),#389,.T.);
#406=ADVANCED_FACE('',(#356),#390,.F.);
#407=ADVANCED_FACE('',(#357,#358,#359),#391,.F.);
#408=ADVANCED_FACE('',(#360),#392,.F.);
#409=ADVANCED_FACE('',(#361,#362),#20,.F.);
#410=ADVANCED_FACE('',(#363,#364),#21,.F.);
#411=ADVANCED_FACE('',(#365,#366),#22,.F.);
#412=ADVANCED_FACE('',(#367,#368),#23,.F.);
#413=ADVANCED_FACE('',(#369),#393,.F.);
#414=ADVANCED_FACE('',(#370,#371,#372,#373,#374),#394,.F.);
#415=ADVANCED_FACE('',(#375),#395,.T.);
#416=ADVANCED_FACE('',(#376),#396,.F.);
#417=ADVANCED_FACE('',(#377),#397,.F.);
#418=ADVANCED_FACE('',(#378),#398,.T.);
#419=ADVANCED_FACE('',(#379),#399,.T.);
#420=ADVANCED_FACE('',(#380),#400,.F.);
#421=ADVANCED_FACE('',(#381),#401,.T.);
#422=ADVANCED_FACE('',(#382,#383),#24,.F.);
#423=ADVANCED_FACE('',(#384),#402,.T.);
#424=ADVANCED_FACE('',(#385),#403,.T.);
#425=ADVANCED_FACE('',(#386,#387),#25,.F.);
#426=CLOSED_SHELL('',(#404,#405,#406,#407,#408,#409,#410,#411,#412,#413,
#414,#415,#416,#417,#418,#419,#420,#421,#422,#423,#424,#425));
#427=STYLED_ITEM('',(#428),#435);
#428=PRESENTATION_STYLE_ASSIGNMENT((#429));
#429=SURFACE_STYLE_USAGE(.BOTH.,#430);
#430=SURFACE_SIDE_STYLE('',(#431));
#431=SURFACE_STYLE_FILL_AREA(#432);
#432=FILL_AREA_STYLE('',(#433));
#433=FILL_AREA_STYLE_COLOUR('',#434);
#434=COLOUR_RGB('',0.100000001490116,0.349999994039536,0.280000001192093);
#435=MANIFOLD_SOLID_BREP('',#426);
#436=SHAPE_DEFINITION_REPRESENTATION(#712,#437);
#437=SHAPE_REPRESENTATION('A02_shoulder_pedestal',(#438),#707);
#438=AXIS2_PLACEMENT_3D('',#593,#477,#478);
#439=AXIS2_PLACEMENT_3D('',#594,#479,#480);
#440=AXIS2_PLACEMENT_3D('',#598,#482,#483);
#441=AXIS2_PLACEMENT_3D('',#606,#487,#488);
#442=AXIS2_PLACEMENT_3D('',#619,#495,#496);
#443=AXIS2_PLACEMENT_3D('',#620,#497,#498);
#444=AXIS2_PLACEMENT_3D('',#622,#499,#500);
#445=AXIS2_PLACEMENT_3D('',#626,#502,#503);
#446=AXIS2_PLACEMENT_3D('',#638,#509,#510);
#447=AXIS2_PLACEMENT_3D('',#641,#512,#513);
#448=AXIS2_PLACEMENT_3D('',#652,#520,#521);
#449=AXIS2_PLACEMENT_3D('',#653,#522,#523);
#450=AXIS2_PLACEMENT_3D('',#655,#524,#525);
#451=AXIS2_PLACEMENT_3D('',#662,#529,#530);
#452=AXIS2_PLACEMENT_3D('',#670,#536,#537);
#453=AXIS2_PLACEMENT_3D('',#671,#538,#539);
#454=AXIS2_PLACEMENT_3D('',#672,#540,#541);
#455=AXIS2_PLACEMENT_3D('',#674,#542,#543);
#456=AXIS2_PLACEMENT_3D('',#675,#544,#545);
#457=AXIS2_PLACEMENT_3D('',#676,#546,#547);
#458=AXIS2_PLACEMENT_3D('',#678,#548,#549);
#459=AXIS2_PLACEMENT_3D('',#679,#550,#551);
#460=AXIS2_PLACEMENT_3D('',#681,#552,#553);
#461=AXIS2_PLACEMENT_3D('',#682,#554,#555);
#462=AXIS2_PLACEMENT_3D('',#684,#556,#557);
#463=AXIS2_PLACEMENT_3D('',#686,#559,#560);
#464=AXIS2_PLACEMENT_3D('',#687,#561,#562);
#465=AXIS2_PLACEMENT_3D('',#688,#563,#564);
#466=AXIS2_PLACEMENT_3D('',#690,#566,#567);
#467=AXIS2_PLACEMENT_3D('',#693,#570,#571);
#468=AXIS2_PLACEMENT_3D('',#694,#572,#573);
#469=AXIS2_PLACEMENT_3D('',#698,#577,#578);
#470=AXIS2_PLACEMENT_3D('',#699,#579,#580);
#471=AXIS2_PLACEMENT_3D('',#700,#581,#582);
#472=AXIS2_PLACEMENT_3D('',#701,#583,#584);
#473=AXIS2_PLACEMENT_3D('',#702,#585,#586);
#474=AXIS2_PLACEMENT_3D('',#703,#587,#588);
#475=AXIS2_PLACEMENT_3D('',#704,#589,#590);
#476=AXIS2_PLACEMENT_3D('',#705,#591,#592);
#477=DIRECTION('',(0.,0.,1.));
#478=DIRECTION('',(1.,0.,0.));
#479=DIRECTION('',(0.,-1.,0.));
#480=DIRECTION('',(0.,0.,-1.));
#481=DIRECTION('',(0.,0.,-1.));
#482=DIRECTION('',(0.,-1.,0.));
#483=DIRECTION('',(1.,0.,0.));
#484=DIRECTION('',(0.,0.,-1.));
#485=DIRECTION('',(-1.,0.,0.));
#486=DIRECTION('',(0.,0.,-1.));
#487=DIRECTION('',(0.,-1.,0.));
#488=DIRECTION('',(1.,0.,0.));
#489=DIRECTION('',(0.,0.,-1.));
#490=DIRECTION('',(1.,0.,0.));
#491=DIRECTION('',(0.,0.,-1.));
#492=DIRECTION('',(-1.,0.,0.));
#493=DIRECTION('',(0.,0.,-1.));
#494=DIRECTION('',(-1.,0.,0.));
#495=DIRECTION('',(0.,0.,1.));
#496=DIRECTION('',(1.,0.,0.));
#497=DIRECTION('',(0.,0.,1.));
#498=DIRECTION('',(1.,0.,0.));
#499=DIRECTION('',(0.,0.,1.));
#500=DIRECTION('',(1.,0.,0.));
#501=DIRECTION('',(0.222824801502141,0.974858506571867,0.));
#502=DIRECTION('',(0.,0.,1.));
#503=DIRECTION('',(1.,0.,0.));
#504=DIRECTION('',(0.222824801502141,0.974858506571867,0.));
#505=DIRECTION('',(0.,1.,0.));
#506=DIRECTION('',(-1.,0.,0.));
#507=DIRECTION('',(0.,-1.,0.));
#508=DIRECTION('',(-0.222824801502141,0.974858506571867,0.));
#509=DIRECTION('',(0.,0.,1.));
#510=DIRECTION('',(1.,0.,0.));
#511=DIRECTION('',(-0.222824801502141,0.974858506571867,0.));
#512=DIRECTION('',(1.,0.,0.));
#513=DIRECTION('',(0.,0.,-1.));
#514=DIRECTION('',(0.,-1.,0.));
#515=DIRECTION('',(0.,0.,-1.));
#516=DIRECTION('',(0.,-1.,0.));
#517=DIRECTION('',(0.,-1.,0.));
#518=DIRECTION('',(0.,0.,-1.));
#519=DIRECTION('',(0.,0.,-1.));
#520=DIRECTION('',(0.,1.,0.));
#521=DIRECTION('',(0.,0.,1.));
#522=DIRECTION('',(0.,-1.,0.));
#523=DIRECTION('',(1.,0.,0.));
#524=DIRECTION('',(0.,-1.,0.));
#525=DIRECTION('',(1.,0.,0.));
#526=DIRECTION('',(1.,0.,0.));
#527=DIRECTION('',(0.,0.,-1.));
#528=DIRECTION('',(1.,0.,0.));
#529=DIRECTION('',(-1.,0.,0.));
#530=DIRECTION('',(0.,0.,1.));
#531=DIRECTION('',(0.,1.,0.));
#532=DIRECTION('',(0.,0.,-1.));
#533=DIRECTION('',(0.,0.,-1.));
#534=DIRECTION('',(0.,-1.,0.));
#535=DIRECTION('',(0.,1.,0.));
#536=DIRECTION('',(0.,0.,-1.));
#537=DIRECTION('',(-1.,0.,0.));
#538=DIRECTION('',(0.,0.,1.));
#539=DIRECTION('',(1.,0.,0.));
#540=DIRECTION('',(0.,0.,1.));
#541=DIRECTION('',(1.,0.,0.));
#542=DIRECTION('',(0.,0.,-1.));
#543=DIRECTION('',(-1.,0.,0.));
#544=DIRECTION('',(0.,0.,1.));
#545=DIRECTION('',(1.,0.,0.));
#546=DIRECTION('',(0.,0.,1.));
#547=DIRECTION('',(1.,0.,0.));
#548=DIRECTION('',(0.,0.,-1.));
#549=DIRECTION('',(-1.,0.,0.));
#550=DIRECTION('',(0.,0.,1.));
#551=DIRECTION('',(1.,0.,0.));
#552=DIRECTION('',(0.,0.,-1.));
#553=DIRECTION('',(-1.,0.,0.));
#554=DIRECTION('',(0.,0.,1.));
#555=DIRECTION('',(1.,0.,0.));
#556=DIRECTION('',(0.,-1.,0.));
#557=DIRECTION('',(0.,0.,-1.));
#558=DIRECTION('',(-1.,0.,0.));
#559=DIRECTION('',(0.,0.,1.));
#560=DIRECTION('',(1.,0.,0.));
#561=DIRECTION('',(0.,0.,1.));
#562=DIRECTION('',(1.,0.,0.));
#563=DIRECTION('',(0.,0.,1.));
#564=DIRECTION('',(1.,0.,0.));
#565=DIRECTION('',(-0.222824801502141,0.974858506571867,0.));
#566=DIRECTION('',(-0.974858506571867,-0.222824801502141,0.));
#567=DIRECTION('',(0.222824801502141,-0.974858506571867,0.));
#568=DIRECTION('',(-0.222824801502141,0.974858506571867,0.));
#569=DIRECTION('',(0.,0.,-1.));
#570=DIRECTION('',(0.,0.,1.));
#571=DIRECTION('',(1.,0.,0.));
#572=DIRECTION('',(-0.974858506571867,0.222824801502141,0.));
#573=DIRECTION('',(-0.222824801502141,-0.974858506571867,0.));
#574=DIRECTION('',(0.,0.,-1.));
#575=DIRECTION('',(0.222824801502141,0.974858506571867,0.));
#576=DIRECTION('',(0.222824801502141,0.974858506571867,0.));
#577=DIRECTION('',(0.,0.,-1.));
#578=DIRECTION('',(-1.,0.,0.));
#579=DIRECTION('',(0.,0.,-1.));
#580=DIRECTION('',(-1.,0.,0.));
#581=DIRECTION('',(0.,1.,0.));
#582=DIRECTION('',(0.,0.,1.));
#583=DIRECTION('',(0.,-1.,0.));
#584=DIRECTION('',(1.,0.,0.));
#585=DIRECTION('',(0.,-1.,0.));
#586=DIRECTION('',(0.,0.,-1.));
#587=DIRECTION('',(0.,-1.,0.));
#588=DIRECTION('',(0.,0.,-1.));
#589=DIRECTION('',(0.,-1.,0.));
#590=DIRECTION('',(1.,0.,0.));
#591=DIRECTION('',(0.,1.,0.));
#592=DIRECTION('',(0.,0.,1.));
#593=CARTESIAN_POINT('',(0.,0.,0.));
#594=CARTESIAN_POINT('',(28.,-55.,30.));
#595=CARTESIAN_POINT('',(20.,-55.,26.));
#596=CARTESIAN_POINT('',(20.,-55.,26.));
#597=CARTESIAN_POINT('',(20.,-55.,20.4));
#598=CARTESIAN_POINT('',(20.,-55.,18.7));
#599=CARTESIAN_POINT('',(20.,-55.,17.));
#600=CARTESIAN_POINT('',(20.,-55.,26.));
#601=CARTESIAN_POINT('',(20.,-55.,6.));
#602=CARTESIAN_POINT('',(28.,-55.,6.));
#603=CARTESIAN_POINT('',(-20.,-55.,6.));
#604=CARTESIAN_POINT('',(-20.,-55.,26.));
#605=CARTESIAN_POINT('',(-20.,-55.,17.));
#606=CARTESIAN_POINT('',(-20.,-55.,18.7));
#607=CARTESIAN_POINT('',(-20.,-55.,20.4));
#608=CARTESIAN_POINT('',(-20.,-55.,26.));
#609=CARTESIAN_POINT('',(-20.,-55.,26.));
#610=CARTESIAN_POINT('',(-28.,-55.,26.));
#611=CARTESIAN_POINT('',(-28.,-55.,26.));
#612=CARTESIAN_POINT('',(-28.,-55.,30.));
#613=CARTESIAN_POINT('',(-28.,-55.,30.));
#614=CARTESIAN_POINT('',(28.,-55.,30.));
#615=CARTESIAN_POINT('',(28.,-55.,30.));
#616=CARTESIAN_POINT('',(28.,-55.,30.));
#617=CARTESIAN_POINT('',(28.,-55.,26.));
#618=CARTESIAN_POINT('',(28.,-55.,26.));
#619=CARTESIAN_POINT('',(0.,0.,6.));
#620=CARTESIAN_POINT('',(23.,18.,6.));
#621=CARTESIAN_POINT('',(24.7,18.,6.));
#622=CARTESIAN_POINT('',(-23.,18.,6.));
#623=CARTESIAN_POINT('',(-21.3,18.,6.));
#624=CARTESIAN_POINT('',(20.,-55.,6.));
#625=CARTESIAN_POINT('',(22.38096327405,-44.5832856760311,6.));
#626=CARTESIAN_POINT('',(23.,-43.,6.));
#627=CARTESIAN_POINT('',(23.130285756206,-41.3049998165989,6.));
#628=CARTESIAN_POINT('',(20.,-55.,6.));
#629=CARTESIAN_POINT('',(28.,-20.,6.));
#630=CARTESIAN_POINT('',(28.,-63.,6.));
#631=CARTESIAN_POINT('',(28.,24.,6.));
#632=CARTESIAN_POINT('',(28.,24.,6.));
#633=CARTESIAN_POINT('',(-28.,24.,6.));
#634=CARTESIAN_POINT('',(-28.,24.,6.));
#635=CARTESIAN_POINT('',(-28.,-20.,6.));
#636=CARTESIAN_POINT('',(-20.,-55.,6.));
#637=CARTESIAN_POINT('',(-23.130285756206,-41.3049998165989,6.));
#638=CARTESIAN_POINT('',(-23.,-43.,6.));
#639=CARTESIAN_POINT('',(-22.38096327405,-44.5832856760311,6.));
#640=CARTESIAN_POINT('',(-20.,-55.,6.));
#641=CARTESIAN_POINT('',(-28.,24.,6.));
#642=CARTESIAN_POINT('',(-28.,24.,0.));
#643=CARTESIAN_POINT('',(-28.,24.,0.));
#644=CARTESIAN_POINT('',(-28.,-63.,0.));
#645=CARTESIAN_POINT('',(-28.,-63.,6.));
#646=CARTESIAN_POINT('',(-28.,-63.,30.));
#647=CARTESIAN_POINT('',(-28.,-55.,30.));
#648=CARTESIAN_POINT('',(-28.,-20.,26.));
#649=CARTESIAN_POINT('',(-28.,-20.,26.));
#650=CARTESIAN_POINT('',(-28.,-20.,26.));
#651=CARTESIAN_POINT('',(-28.,24.,6.));
#652=CARTESIAN_POINT('',(-28.,-63.,6.));
#653=CARTESIAN_POINT('',(20.,-63.,18.7));
#654=CARTESIAN_POINT('',(21.7,-63.,18.7));
#655=CARTESIAN_POINT('',(-20.,-63.,18.7));
#656=CARTESIAN_POINT('',(-18.3,-63.,18.7));
#657=CARTESIAN_POINT('',(-28.,-63.,0.));
#658=CARTESIAN_POINT('',(28.,-63.,0.));
#659=CARTESIAN_POINT('',(28.,-63.,6.));
#660=CARTESIAN_POINT('',(28.,-63.,30.));
#661=CARTESIAN_POINT('',(-28.,-63.,30.));
#662=CARTESIAN_POINT('',(28.,-63.,6.));
#663=CARTESIAN_POINT('',(28.,-63.,0.));
#664=CARTESIAN_POINT('',(28.,24.,0.));
#665=CARTESIAN_POINT('',(28.,24.,6.));
#666=CARTESIAN_POINT('',(28.,-20.,26.));
#667=CARTESIAN_POINT('',(28.,-20.,26.));
#668=CARTESIAN_POINT('',(28.,-20.,26.));
#669=CARTESIAN_POINT('',(28.,-63.,30.));
#670=CARTESIAN_POINT('',(-23.,-43.,6.));
#671=CARTESIAN_POINT('',(-23.,-43.,6.));
#672=CARTESIAN_POINT('',(-23.,-43.,0.));
#673=CARTESIAN_POINT('',(-21.3,-43.,0.));
#674=CARTESIAN_POINT('',(23.,-43.,6.));
#675=CARTESIAN_POINT('',(23.,-43.,6.));
#676=CARTESIAN_POINT('',(23.,-43.,0.));
#677=CARTESIAN_POINT('',(24.7,-43.,0.));
#678=CARTESIAN_POINT('',(-23.,18.,6.));
#679=CARTESIAN_POINT('',(-23.,18.,0.));
#680=CARTESIAN_POINT('',(-21.3,18.,0.));
#681=CARTESIAN_POINT('',(23.,18.,6.));
#682=CARTESIAN_POINT('',(23.,18.,0.));
#683=CARTESIAN_POINT('',(24.7,18.,0.));
#684=CARTESIAN_POINT('',(28.,24.,6.));
#685=CARTESIAN_POINT('',(28.,24.,0.));
#686=CARTESIAN_POINT('',(0.,0.,0.));
#687=CARTESIAN_POINT('',(0.,0.,30.));
#688=CARTESIAN_POINT('',(0.,0.,6.));
#689=CARTESIAN_POINT('',(-20.,-55.,6.));
#690=CARTESIAN_POINT('',(-20.,-55.,26.));
#691=CARTESIAN_POINT('',(-20.,-55.,26.));
#692=CARTESIAN_POINT('',(-20.,-55.,26.));
#693=CARTESIAN_POINT('',(0.,0.,26.));
#694=CARTESIAN_POINT('',(20.,-55.,26.));
#695=CARTESIAN_POINT('',(20.,-55.,26.));
#696=CARTESIAN_POINT('',(20.,-55.,26.));
#697=CARTESIAN_POINT('',(20.,-55.,6.));
#698=CARTESIAN_POINT('',(0.,0.,26.));
#699=CARTESIAN_POINT('',(0.,0.,6.));
#700=CARTESIAN_POINT('',(-20.,-63.,18.7));
#701=CARTESIAN_POINT('',(-20.,-55.,18.7));
#702=CARTESIAN_POINT('',(-20.,-55.,18.7));
#703=CARTESIAN_POINT('',(20.,-55.,18.7));
#704=CARTESIAN_POINT('',(20.,-55.,18.7));
#705=CARTESIAN_POINT('',(20.,-63.,18.7));
#706=MECHANICAL_DESIGN_GEOMETRIC_PRESENTATION_REPRESENTATION('',(#427),
#707);
#707=(
GEOMETRIC_REPRESENTATION_CONTEXT(3)
GLOBAL_UNCERTAINTY_ASSIGNED_CONTEXT((#708))
GLOBAL_UNIT_ASSIGNED_CONTEXT((#711,#710,#709))
REPRESENTATION_CONTEXT('A02_shoulder_pedestal',
'TOP_LEVEL_ASSEMBLY_PART')
);
#708=UNCERTAINTY_MEASURE_WITH_UNIT(LENGTH_MEASURE(0.005),#711,
'DISTANCE_ACCURACY_VALUE','Maximum Tolerance applied to model');
#709=(
NAMED_UNIT(*)
SI_UNIT($,.STERADIAN.)
SOLID_ANGLE_UNIT()
);
#710=(
NAMED_UNIT(*)
PLANE_ANGLE_UNIT()
SI_UNIT($,.RADIAN.)
);
#711=(
LENGTH_UNIT()
NAMED_UNIT(*)
SI_UNIT(.MILLI.,.METRE.)
);
#712=PRODUCT_DEFINITION_SHAPE('','',#713);
#713=PRODUCT_DEFINITION('','',#715,#714);
#714=PRODUCT_DEFINITION_CONTEXT('',#721,'design');
#715=PRODUCT_DEFINITION_FORMATION_WITH_SPECIFIED_SOURCE('','',#717,
 .NOT_KNOWN.);
#716=PRODUCT_RELATED_PRODUCT_CATEGORY('','',(#717));
#717=PRODUCT('A02_shoulder_pedestal','A02_shoulder_pedestal',
'A02_shoulder_pedestal',(#719));
#718=PRODUCT_CATEGORY('','');
#719=PRODUCT_CONTEXT('',#721,'mechanical');
#720=APPLICATION_PROTOCOL_DEFINITION('international standard',
'automotive_design',2010,#721);
#721=APPLICATION_CONTEXT(
'core data for automotive mechanical design processes');
ENDSEC;
END-ISO-10303-21;
