ISO-10303-21;
HEADER;
/* Generated by software containing ST-Developer
 * from STEP Tools, Inc. (www.steptools.com) 
 */
/* OPTION: strings as raw bytes, not using required /X/ escapes */

FILE_DESCRIPTION(
/* description */ ('Unknown'),
/* implementation_level */ '2;1');

FILE_NAME(
/* name */ 'A02b_shoulder_pedestal',
/* time_stamp */ '2026-09-23T12:06:38+08:00',
/* author */ ('Unknown'),
/* organization */ ('Unknown'),
/* preprocessor_version */ 'ST-DEVELOPER v16.7',
/* originating_system */ 'Solid Edge',
/* authorisation */ 'Unknown');

FILE_SCHEMA (('AUTOMOTIVE_DESIGN {1 0 10303 214 3 1 1}'));
ENDSEC;

DATA;
#10=PROPERTY_DEFINITION_REPRESENTATION(#14,#12);
#11=PROPERTY_DEFINITION_REPRESENTATION(#15,#13);
#12=REPRESENTATION('',(#16),#587);
#13=REPRESENTATION('',(#17),#587);
#14=PROPERTY_DEFINITION('pmi validation property','',#592);
#15=PROPERTY_DEFINITION('pmi validation property','',#592);
#16=VALUE_REPRESENTATION_ITEM('number of annotations',COUNT_MEASURE(0.));
#17=VALUE_REPRESENTATION_ITEM('number of views',COUNT_MEASURE(0.));
#18=SHAPE_REPRESENTATION_RELATIONSHIP('','',#369,#19);
#19=ADVANCED_BREP_SHAPE_REPRESENTATION('',(#367),#587);
#20=CYLINDRICAL_SURFACE('',#384,1.7);
#21=CYLINDRICAL_SURFACE('',#386,1.7);
#22=CYLINDRICAL_SURFACE('',#388,1.7);
#23=CYLINDRICAL_SURFACE('',#390,1.7);
#24=CYLINDRICAL_SURFACE('',#399,1.7);
#25=CYLINDRICAL_SURFACE('',#400,1.7);
#26=LINE('',#503,#56);
#27=LINE('',#506,#57);
#28=LINE('',#508,#58);
#29=LINE('',#510,#59);
#30=LINE('',#512,#60);
#31=LINE('',#514,#61);
#32=LINE('',#520,#62);
#33=LINE('',#523,#63);
#34=LINE('',#525,#64);
#35=LINE('',#526,#65);
#36=LINE('',#528,#66);
#37=LINE('',#530,#67);
#38=LINE('',#532,#68);
#39=LINE('',#534,#69);
#40=LINE('',#537,#70);
#41=LINE('',#539,#71);
#42=LINE('',#540,#72);
#43=LINE('',#542,#73);
#44=LINE('',#543,#74);
#45=LINE('',#549,#75);
#46=LINE('',#551,#76);
#47=LINE('',#553,#77);
#48=LINE('',#555,#78);
#49=LINE('',#557,#79);
#50=LINE('',#558,#80);
#51=LINE('',#560,#81);
#52=LINE('',#561,#82);
#53=LINE('',#575,#83);
#54=LINE('',#579,#84);
#55=LINE('',#582,#85);
#56=VECTOR('',#413,1000.);
#57=VECTOR('',#414,1000.);
#58=VECTOR('',#415,1000.);
#59=VECTOR('',#416,1000.);
#60=VECTOR('',#417,1000.);
#61=VECTOR('',#418,1000.);
#62=VECTOR('',#425,1000.);
#63=VECTOR('',#426,1000.);
#64=VECTOR('',#427,1000.);
#65=VECTOR('',#428,1000.);
#66=VECTOR('',#429,1000.);
#67=VECTOR('',#430,1000.);
#68=VECTOR('',#431,1000.);
#69=VECTOR('',#434,1000.);
#70=VECTOR('',#435,1000.);
#71=VECTOR('',#436,1000.);
#72=VECTOR('',#437,1000.);
#73=VECTOR('',#438,1000.);
#74=VECTOR('',#439,1000.);
#75=VECTOR('',#446,1000.);
#76=VECTOR('',#447,1000.);
#77=VECTOR('',#448,1000.);
#78=VECTOR('',#451,1000.);
#79=VECTOR('',#452,1000.);
#80=VECTOR('',#453,1000.);
#81=VECTOR('',#454,1000.);
#82=VECTOR('',#455,1000.);
#83=VECTOR('',#474,1000.);
#84=VECTOR('',#481,1000.);
#85=VECTOR('',#486,1000.);
#86=ORIENTED_EDGE('',*,*,#170,.F.);
#87=ORIENTED_EDGE('',*,*,#171,.F.);
#88=ORIENTED_EDGE('',*,*,#172,.F.);
#89=ORIENTED_EDGE('',*,*,#173,.F.);
#90=ORIENTED_EDGE('',*,*,#174,.F.);
#91=ORIENTED_EDGE('',*,*,#175,.T.);
#92=ORIENTED_EDGE('',*,*,#176,.T.);
#93=ORIENTED_EDGE('',*,*,#177,.T.);
#94=ORIENTED_EDGE('',*,*,#178,.T.);
#95=ORIENTED_EDGE('',*,*,#179,.F.);
#96=ORIENTED_EDGE('',*,*,#180,.T.);
#97=ORIENTED_EDGE('',*,*,#181,.T.);
#98=ORIENTED_EDGE('',*,*,#182,.T.);
#99=ORIENTED_EDGE('',*,*,#183,.T.);
#100=ORIENTED_EDGE('',*,*,#184,.T.);
#101=ORIENTED_EDGE('',*,*,#174,.T.);
#102=ORIENTED_EDGE('',*,*,#185,.F.);
#103=ORIENTED_EDGE('',*,*,#186,.F.);
#104=ORIENTED_EDGE('',*,*,#187,.F.);
#105=ORIENTED_EDGE('',*,*,#188,.F.);
#106=ORIENTED_EDGE('',*,*,#189,.T.);
#107=ORIENTED_EDGE('',*,*,#190,.F.);
#108=ORIENTED_EDGE('',*,*,#191,.F.);
#109=ORIENTED_EDGE('',*,*,#187,.T.);
#110=ORIENTED_EDGE('',*,*,#192,.F.);
#111=ORIENTED_EDGE('',*,*,#193,.T.);
#112=ORIENTED_EDGE('',*,*,#178,.F.);
#113=ORIENTED_EDGE('',*,*,#194,.T.);
#114=ORIENTED_EDGE('',*,*,#195,.F.);
#115=ORIENTED_EDGE('',*,*,#196,.F.);
#116=ORIENTED_EDGE('',*,*,#197,.T.);
#117=ORIENTED_EDGE('',*,*,#198,.F.);
#118=ORIENTED_EDGE('',*,*,#199,.F.);
#119=ORIENTED_EDGE('',*,*,#190,.T.);
#120=ORIENTED_EDGE('',*,*,#200,.T.);
#121=ORIENTED_EDGE('',*,*,#201,.F.);
#122=ORIENTED_EDGE('',*,*,#176,.F.);
#123=ORIENTED_EDGE('',*,*,#202,.F.);
#124=ORIENTED_EDGE('',*,*,#203,.T.);
#125=ORIENTED_EDGE('',*,*,#182,.F.);
#126=ORIENTED_EDGE('',*,*,#204,.F.);
#127=ORIENTED_EDGE('',*,*,#198,.T.);
#128=ORIENTED_EDGE('',*,*,#173,.T.);
#129=ORIENTED_EDGE('',*,*,#205,.F.);
#130=ORIENTED_EDGE('',*,*,#172,.T.);
#131=ORIENTED_EDGE('',*,*,#206,.F.);
#132=ORIENTED_EDGE('',*,*,#171,.T.);
#133=ORIENTED_EDGE('',*,*,#207,.F.);
#134=ORIENTED_EDGE('',*,*,#170,.T.);
#135=ORIENTED_EDGE('',*,*,#208,.F.);
#136=ORIENTED_EDGE('',*,*,#209,.T.);
#137=ORIENTED_EDGE('',*,*,#194,.F.);
#138=ORIENTED_EDGE('',*,*,#177,.F.);
#139=ORIENTED_EDGE('',*,*,#201,.T.);
#140=ORIENTED_EDGE('',*,*,#208,.T.);
#141=ORIENTED_EDGE('',*,*,#207,.T.);
#142=ORIENTED_EDGE('',*,*,#206,.T.);
#143=ORIENTED_EDGE('',*,*,#205,.T.);
#144=ORIENTED_EDGE('',*,*,#189,.F.);
#145=ORIENTED_EDGE('',*,*,#209,.F.);
#146=ORIENTED_EDGE('',*,*,#200,.F.);
#147=ORIENTED_EDGE('',*,*,#197,.F.);
#148=ORIENTED_EDGE('',*,*,#191,.T.);
#149=ORIENTED_EDGE('',*,*,#199,.T.);
#150=ORIENTED_EDGE('',*,*,#204,.T.);
#151=ORIENTED_EDGE('',*,*,#188,.T.);
#152=ORIENTED_EDGE('',*,*,#179,.T.);
#153=ORIENTED_EDGE('',*,*,#193,.F.);
#154=ORIENTED_EDGE('',*,*,#210,.F.);
#155=ORIENTED_EDGE('',*,*,#185,.T.);
#156=ORIENTED_EDGE('',*,*,#192,.T.);
#157=ORIENTED_EDGE('',*,*,#186,.T.);
#158=ORIENTED_EDGE('',*,*,#210,.T.);
#159=ORIENTED_EDGE('',*,*,#175,.F.);
#160=ORIENTED_EDGE('',*,*,#184,.F.);
#161=ORIENTED_EDGE('',*,*,#211,.T.);
#162=ORIENTED_EDGE('',*,*,#202,.T.);
#163=ORIENTED_EDGE('',*,*,#203,.F.);
#164=ORIENTED_EDGE('',*,*,#211,.F.);
#165=ORIENTED_EDGE('',*,*,#183,.F.);
#166=ORIENTED_EDGE('',*,*,#196,.T.);
#167=ORIENTED_EDGE('',*,*,#181,.F.);
#168=ORIENTED_EDGE('',*,*,#195,.T.);
#169=ORIENTED_EDGE('',*,*,#180,.F.);
#170=EDGE_CURVE('',#212,#212,#244,.T.);
#171=EDGE_CURVE('',#213,#213,#245,.T.);
#172=EDGE_CURVE('',#214,#214,#246,.T.);
#173=EDGE_CURVE('',#215,#215,#247,.T.);
#174=EDGE_CURVE('',#216,#217,#26,.T.);
#175=EDGE_CURVE('',#216,#218,#27,.T.);
#176=EDGE_CURVE('',#218,#219,#28,.T.);
#177=EDGE_CURVE('',#219,#220,#29,.T.);
#178=EDGE_CURVE('',#220,#221,#30,.T.);
#179=EDGE_CURVE('',#217,#221,#31,.T.);
#180=EDGE_CURVE('',#222,#222,#248,.T.);
#181=EDGE_CURVE('',#223,#223,#249,.T.);
#182=EDGE_CURVE('',#224,#225,#32,.T.);
#183=EDGE_CURVE('',#225,#226,#33,.T.);
#184=EDGE_CURVE('',#226,#216,#34,.T.);
#185=EDGE_CURVE('',#227,#217,#35,.T.);
#186=EDGE_CURVE('',#228,#227,#36,.T.);
#187=EDGE_CURVE('',#229,#228,#37,.T.);
#188=EDGE_CURVE('',#224,#229,#38,.T.);
#189=EDGE_CURVE('',#230,#231,#39,.T.);
#190=EDGE_CURVE('',#232,#231,#40,.T.);
#191=EDGE_CURVE('',#229,#232,#41,.T.);
#192=EDGE_CURVE('',#233,#228,#42,.T.);
#193=EDGE_CURVE('',#233,#221,#43,.T.);
#194=EDGE_CURVE('',#220,#230,#44,.T.);
#195=EDGE_CURVE('',#234,#234,#250,.T.);
#196=EDGE_CURVE('',#235,#235,#251,.T.);
#197=EDGE_CURVE('',#231,#236,#45,.T.);
#198=EDGE_CURVE('',#237,#236,#46,.T.);
#199=EDGE_CURVE('',#232,#237,#47,.T.);
#200=EDGE_CURVE('',#236,#238,#48,.T.);
#201=EDGE_CURVE('',#219,#238,#49,.T.);
#202=EDGE_CURVE('',#239,#218,#50,.T.);
#203=EDGE_CURVE('',#239,#225,#51,.T.);
#204=EDGE_CURVE('',#237,#224,#52,.T.);
#205=EDGE_CURVE('',#240,#240,#252,.T.);
#206=EDGE_CURVE('',#241,#241,#253,.T.);
#207=EDGE_CURVE('',#242,#242,#254,.T.);
#208=EDGE_CURVE('',#243,#243,#255,.T.);
#209=EDGE_CURVE('',#238,#230,#53,.T.);
#210=EDGE_CURVE('',#227,#233,#54,.T.);
#211=EDGE_CURVE('',#226,#239,#55,.T.);
#212=VERTEX_POINT('',#496);
#213=VERTEX_POINT('',#498);
#214=VERTEX_POINT('',#500);
#215=VERTEX_POINT('',#502);
#216=VERTEX_POINT('',#504);
#217=VERTEX_POINT('',#505);
#218=VERTEX_POINT('',#507);
#219=VERTEX_POINT('',#509);
#220=VERTEX_POINT('',#511);
#221=VERTEX_POINT('',#513);
#222=VERTEX_POINT('',#517);
#223=VERTEX_POINT('',#519);
#224=VERTEX_POINT('',#521);
#225=VERTEX_POINT('',#522);
#226=VERTEX_POINT('',#524);
#227=VERTEX_POINT('',#527);
#228=VERTEX_POINT('',#529);
#229=VERTEX_POINT('',#531);
#230=VERTEX_POINT('',#535);
#231=VERTEX_POINT('',#536);
#232=VERTEX_POINT('',#538);
#233=VERTEX_POINT('',#541);
#234=VERTEX_POINT('',#546);
#235=VERTEX_POINT('',#548);
#236=VERTEX_POINT('',#550);
#237=VERTEX_POINT('',#552);
#238=VERTEX_POINT('',#556);
#239=VERTEX_POINT('',#559);
#240=VERTEX_POINT('',#564);
#241=VERTEX_POINT('',#567);
#242=VERTEX_POINT('',#570);
#243=VERTEX_POINT('',#573);
#244=CIRCLE('',#372,1.7);
#245=CIRCLE('',#373,1.7);
#246=CIRCLE('',#374,1.7);
#247=CIRCLE('',#375,1.7);
#248=CIRCLE('',#377,1.7);
#249=CIRCLE('',#378,1.7);
#250=CIRCLE('',#381,1.7);
#251=CIRCLE('',#382,1.7);
#252=CIRCLE('',#385,1.7);
#253=CIRCLE('',#387,1.7);
#254=CIRCLE('',#389,1.7);
#255=CIRCLE('',#391,1.7);
#256=EDGE_LOOP('',(#86));
#257=EDGE_LOOP('',(#87));
#258=EDGE_LOOP('',(#88));
#259=EDGE_LOOP('',(#89));
#260=EDGE_LOOP('',(#90,#91,#92,#93,#94,#95));
#261=EDGE_LOOP('',(#96));
#262=EDGE_LOOP('',(#97));
#263=EDGE_LOOP('',(#98,#99,#100,#101,#102,#103,#104,#105));
#264=EDGE_LOOP('',(#106,#107,#108,#109,#110,#111,#112,#113));
#265=EDGE_LOOP('',(#114));
#266=EDGE_LOOP('',(#115));
#267=EDGE_LOOP('',(#116,#117,#118,#119));
#268=EDGE_LOOP('',(#120,#121,#122,#123,#124,#125,#126,#127));
#269=EDGE_LOOP('',(#128));
#270=EDGE_LOOP('',(#129));
#271=EDGE_LOOP('',(#130));
#272=EDGE_LOOP('',(#131));
#273=EDGE_LOOP('',(#132));
#274=EDGE_LOOP('',(#133));
#275=EDGE_LOOP('',(#134));
#276=EDGE_LOOP('',(#135));
#277=EDGE_LOOP('',(#136,#137,#138,#139));
#278=EDGE_LOOP('',(#140));
#279=EDGE_LOOP('',(#141));
#280=EDGE_LOOP('',(#142));
#281=EDGE_LOOP('',(#143));
#282=EDGE_LOOP('',(#144,#145,#146,#147));
#283=EDGE_LOOP('',(#148,#149,#150,#151));
#284=EDGE_LOOP('',(#152,#153,#154,#155));
#285=EDGE_LOOP('',(#156,#157,#158));
#286=EDGE_LOOP('',(#159,#160,#161,#162));
#287=EDGE_LOOP('',(#163,#164,#165));
#288=EDGE_LOOP('',(#166));
#289=EDGE_LOOP('',(#167));
#290=EDGE_LOOP('',(#168));
#291=EDGE_LOOP('',(#169));
#292=FACE_BOUND('',#256,.T.);
#293=FACE_BOUND('',#257,.T.);
#294=FACE_BOUND('',#258,.T.);
#295=FACE_BOUND('',#259,.T.);
#296=FACE_BOUND('',#260,.T.);
#297=FACE_BOUND('',#261,.T.);
#298=FACE_BOUND('',#262,.T.);
#299=FACE_BOUND('',#263,.T.);
#300=FACE_BOUND('',#264,.T.);
#301=FACE_BOUND('',#265,.T.);
#302=FACE_BOUND('',#266,.T.);
#303=FACE_BOUND('',#267,.T.);
#304=FACE_BOUND('',#268,.T.);
#305=FACE_BOUND('',#269,.T.);
#306=FACE_BOUND('',#270,.T.);
#307=FACE_BOUND('',#271,.T.);
#308=FACE_BOUND('',#272,.T.);
#309=FACE_BOUND('',#273,.T.);
#310=FACE_BOUND('',#274,.T.);
#311=FACE_BOUND('',#275,.T.);
#312=FACE_BOUND('',#276,.T.);
#313=FACE_BOUND('',#277,.T.);
#314=FACE_BOUND('',#278,.T.);
#315=FACE_BOUND('',#279,.T.);
#316=FACE_BOUND('',#280,.T.);
#317=FACE_BOUND('',#281,.T.);
#318=FACE_BOUND('',#282,.T.);
#319=FACE_BOUND('',#283,.T.);
#320=FACE_BOUND('',#284,.T.);
#321=FACE_BOUND('',#285,.T.);
#322=FACE_BOUND('',#286,.T.);
#323=FACE_BOUND('',#287,.T.);
#324=FACE_BOUND('',#288,.T.);
#325=FACE_BOUND('',#289,.T.);
#326=FACE_BOUND('',#290,.T.);
#327=FACE_BOUND('',#291,.T.);
#328=PLANE('',#371);
#329=PLANE('',#376);
#330=PLANE('',#379);
#331=PLANE('',#380);
#332=PLANE('',#383);
#333=PLANE('',#392);
#334=PLANE('',#393);
#335=PLANE('',#394);
#336=PLANE('',#395);
#337=PLANE('',#396);
#338=PLANE('',#397);
#339=PLANE('',#398);
#340=ADVANCED_FACE('',(#292,#293,#294,#295,#296),#328,.T.);
#341=ADVANCED_FACE('',(#297,#298,#299),#329,.F.);
#342=ADVANCED_FACE('',(#300),#330,.F.);
#343=ADVANCED_FACE('',(#301,#302,#303),#331,.F.);
#344=ADVANCED_FACE('',(#304),#332,.F.);
#345=ADVANCED_FACE('',(#305,#306),#20,.F.);
#346=ADVANCED_FACE('',(#307,#308),#21,.F.);
#347=ADVANCED_FACE('',(#309,#310),#22,.F.);
#348=ADVANCED_FACE('',(#311,#312),#23,.F.);
#349=ADVANCED_FACE('',(#313),#333,.F.);
#350=ADVANCED_FACE('',(#314,#315,#316,#317,#318),#334,.F.);
#351=ADVANCED_FACE('',(#319),#335,.T.);
#352=ADVANCED_FACE('',(#320),#336,.F.);
#353=ADVANCED_FACE('',(#321),#337,.T.);
#354=ADVANCED_FACE('',(#322),#338,.T.);
#355=ADVANCED_FACE('',(#323),#339,.F.);
#356=ADVANCED_FACE('',(#324,#325),#24,.F.);
#357=ADVANCED_FACE('',(#326,#327),#25,.F.);
#358=CLOSED_SHELL('',(#340,#341,#342,#343,#344,#345,#346,#347,#348,#349,
#350,#351,#352,#353,#354,#355,#356,#357));
#359=STYLED_ITEM('',(#360),#367);
#360=PRESENTATION_STYLE_ASSIGNMENT((#361));
#361=SURFACE_STYLE_USAGE(.BOTH.,#362);
#362=SURFACE_SIDE_STYLE('',(#363));
#363=SURFACE_STYLE_FILL_AREA(#364);
#364=FILL_AREA_STYLE('',(#365));
#365=FILL_AREA_STYLE_COLOUR('',#366);
#366=COLOUR_RGB('',0.100000001490116,0.349999994039536,0.280000001192093);
#367=MANIFOLD_SOLID_BREP('',#358);
#368=SHAPE_DEFINITION_REPRESENTATION(#592,#369);
#369=SHAPE_REPRESENTATION('A02b_shoulder_pedestal',(#370),#587);
#370=AXIS2_PLACEMENT_3D('',#493,#401,#402);
#371=AXIS2_PLACEMENT_3D('',#494,#403,#404);
#372=AXIS2_PLACEMENT_3D('',#495,#405,#406);
#373=AXIS2_PLACEMENT_3D('',#497,#407,#408);
#374=AXIS2_PLACEMENT_3D('',#499,#409,#410);
#375=AXIS2_PLACEMENT_3D('',#501,#411,#412);
#376=AXIS2_PLACEMENT_3D('',#515,#419,#420);
#377=AXIS2_PLACEMENT_3D('',#516,#421,#422);
#378=AXIS2_PLACEMENT_3D('',#518,#423,#424);
#379=AXIS2_PLACEMENT_3D('',#533,#432,#433);
#380=AXIS2_PLACEMENT_3D('',#544,#440,#441);
#381=AXIS2_PLACEMENT_3D('',#545,#442,#443);
#382=AXIS2_PLACEMENT_3D('',#547,#444,#445);
#383=AXIS2_PLACEMENT_3D('',#554,#449,#450);
#384=AXIS2_PLACEMENT_3D('',#562,#456,#457);
#385=AXIS2_PLACEMENT_3D('',#563,#458,#459);
#386=AXIS2_PLACEMENT_3D('',#565,#460,#461);
#387=AXIS2_PLACEMENT_3D('',#566,#462,#463);
#388=AXIS2_PLACEMENT_3D('',#568,#464,#465);
#389=AXIS2_PLACEMENT_3D('',#569,#466,#467);
#390=AXIS2_PLACEMENT_3D('',#571,#468,#469);
#391=AXIS2_PLACEMENT_3D('',#572,#470,#471);
#392=AXIS2_PLACEMENT_3D('',#574,#472,#473);
#393=AXIS2_PLACEMENT_3D('',#576,#475,#476);
#394=AXIS2_PLACEMENT_3D('',#577,#477,#478);
#395=AXIS2_PLACEMENT_3D('',#578,#479,#480);
#396=AXIS2_PLACEMENT_3D('',#580,#482,#483);
#397=AXIS2_PLACEMENT_3D('',#581,#484,#485);
#398=AXIS2_PLACEMENT_3D('',#583,#487,#488);
#399=AXIS2_PLACEMENT_3D('',#584,#489,#490);
#400=AXIS2_PLACEMENT_3D('',#585,#491,#492);
#401=DIRECTION('',(0.,0.,1.));
#402=DIRECTION('',(1.,0.,0.));
#403=DIRECTION('',(0.,0.,1.));
#404=DIRECTION('',(1.,0.,0.));
#405=DIRECTION('',(0.,0.,1.));
#406=DIRECTION('',(1.,0.,0.));
#407=DIRECTION('',(0.,0.,1.));
#408=DIRECTION('',(1.,0.,0.));
#409=DIRECTION('',(0.,0.,1.));
#410=DIRECTION('',(1.,0.,0.));
#411=DIRECTION('',(0.,0.,1.));
#412=DIRECTION('',(1.,0.,0.));
#413=DIRECTION('',(-1.,0.,0.));
#414=DIRECTION('',(0.222824801502141,0.974858506571867,0.));
#415=DIRECTION('',(0.,1.,0.));
#416=DIRECTION('',(-1.,0.,0.));
#417=DIRECTION('',(0.,-1.,0.));
#418=DIRECTION('',(-0.222824801502141,0.974858506571867,0.));
#419=DIRECTION('',(0.,-1.,0.));
#420=DIRECTION('',(0.,0.,-1.));
#421=DIRECTION('',(0.,-1.,0.));
#422=DIRECTION('',(1.,0.,0.));
#423=DIRECTION('',(0.,-1.,0.));
#424=DIRECTION('',(1.,0.,0.));
#425=DIRECTION('',(0.,0.,-1.));
#426=DIRECTION('',(-1.,0.,0.));
#427=DIRECTION('',(0.,0.,-1.));
#428=DIRECTION('',(0.,0.,-1.));
#429=DIRECTION('',(1.,0.,0.));
#430=DIRECTION('',(0.,0.,-1.));
#431=DIRECTION('',(-1.,0.,0.));
#432=DIRECTION('',(1.,0.,0.));
#433=DIRECTION('',(0.,0.,-1.));
#434=DIRECTION('',(0.,-1.,0.));
#435=DIRECTION('',(0.,0.,-1.));
#436=DIRECTION('',(0.,-1.,0.));
#437=DIRECTION('',(0.,-1.,0.));
#438=DIRECTION('',(0.,0.,-1.));
#439=DIRECTION('',(0.,0.,-1.));
#440=DIRECTION('',(0.,1.,0.));
#441=DIRECTION('',(0.,0.,1.));
#442=DIRECTION('',(0.,-1.,0.));
#443=DIRECTION('',(1.,0.,0.));
#444=DIRECTION('',(0.,-1.,0.));
#445=DIRECTION('',(1.,0.,0.));
#446=DIRECTION('',(1.,0.,0.));
#447=DIRECTION('',(0.,0.,-1.));
#448=DIRECTION('',(1.,0.,0.));
#449=DIRECTION('',(-1.,0.,0.));
#450=DIRECTION('',(0.,0.,1.));
#451=DIRECTION('',(0.,1.,0.));
#452=DIRECTION('',(0.,0.,-1.));
#453=DIRECTION('',(0.,0.,-1.));
#454=DIRECTION('',(0.,-1.,0.));
#455=DIRECTION('',(0.,1.,0.));
#456=DIRECTION('',(0.,0.,-1.));
#457=DIRECTION('',(-1.,0.,0.));
#458=DIRECTION('',(0.,0.,1.));
#459=DIRECTION('',(1.,0.,0.));
#460=DIRECTION('',(0.,0.,-1.));
#461=DIRECTION('',(-1.,0.,0.));
#462=DIRECTION('',(0.,0.,1.));
#463=DIRECTION('',(1.,0.,0.));
#464=DIRECTION('',(0.,0.,-1.));
#465=DIRECTION('',(-1.,0.,0.));
#466=DIRECTION('',(0.,0.,1.));
#467=DIRECTION('',(1.,0.,0.));
#468=DIRECTION('',(0.,0.,-1.));
#469=DIRECTION('',(-1.,0.,0.));
#470=DIRECTION('',(0.,0.,1.));
#471=DIRECTION('',(1.,0.,0.));
#472=DIRECTION('',(0.,-1.,0.));
#473=DIRECTION('',(0.,0.,-1.));
#474=DIRECTION('',(-1.,0.,0.));
#475=DIRECTION('',(0.,0.,1.));
#476=DIRECTION('',(1.,0.,0.));
#477=DIRECTION('',(0.,0.,1.));
#478=DIRECTION('',(1.,0.,0.));
#479=DIRECTION('',(-0.974858506571867,-0.222824801502141,0.));
#480=DIRECTION('',(0.222824801502141,-0.974858506571867,0.));
#481=DIRECTION('',(-0.222824801502141,0.974858506571867,0.));
#482=DIRECTION('',(0.,0.,1.));
#483=DIRECTION('',(1.,0.,0.));
#484=DIRECTION('',(-0.974858506571867,0.222824801502141,0.));
#485=DIRECTION('',(-0.222824801502141,-0.974858506571867,0.));
#486=DIRECTION('',(0.222824801502141,0.974858506571867,0.));
#487=DIRECTION('',(0.,0.,-1.));
#488=DIRECTION('',(-1.,0.,0.));
#489=DIRECTION('',(0.,1.,0.));
#490=DIRECTION('',(0.,0.,1.));
#491=DIRECTION('',(0.,1.,0.));
#492=DIRECTION('',(0.,0.,1.));
#493=CARTESIAN_POINT('',(0.,0.,0.));
#494=CARTESIAN_POINT('',(0.,0.,6.));
#495=CARTESIAN_POINT('',(23.,18.,6.));
#496=CARTESIAN_POINT('',(24.7,18.,6.));
#497=CARTESIAN_POINT('',(-23.,18.,6.));
#498=CARTESIAN_POINT('',(-21.3,18.,6.));
#499=CARTESIAN_POINT('',(23.,-43.,6.));
#500=CARTESIAN_POINT('',(24.7,-43.,6.));
#501=CARTESIAN_POINT('',(-23.,-43.,6.));
#502=CARTESIAN_POINT('',(-21.3,-43.,6.));
#503=CARTESIAN_POINT('',(40.,-55.,6.));
#504=CARTESIAN_POINT('',(32.,-55.,6.));
#505=CARTESIAN_POINT('',(-32.,-55.,6.));
#506=CARTESIAN_POINT('',(32.,-55.,6.));
#507=CARTESIAN_POINT('',(40.,-20.,6.));
#508=CARTESIAN_POINT('',(40.,-63.,6.));
#509=CARTESIAN_POINT('',(40.,24.,6.));
#510=CARTESIAN_POINT('',(40.,24.,6.));
#511=CARTESIAN_POINT('',(-40.,24.,6.));
#512=CARTESIAN_POINT('',(-40.,24.,6.));
#513=CARTESIAN_POINT('',(-40.,-20.,6.));
#514=CARTESIAN_POINT('',(-32.,-55.,6.));
#515=CARTESIAN_POINT('',(40.,-55.,30.));
#516=CARTESIAN_POINT('',(20.,-55.,18.7));
#517=CARTESIAN_POINT('',(21.7,-55.,18.7));
#518=CARTESIAN_POINT('',(-20.,-55.,18.7));
#519=CARTESIAN_POINT('',(-18.3,-55.,18.7));
#520=CARTESIAN_POINT('',(40.,-55.,30.));
#521=CARTESIAN_POINT('',(40.,-55.,30.));
#522=CARTESIAN_POINT('',(40.,-55.,26.));
#523=CARTESIAN_POINT('',(40.,-55.,26.));
#524=CARTESIAN_POINT('',(32.,-55.,26.));
#525=CARTESIAN_POINT('',(32.,-55.,26.));
#526=CARTESIAN_POINT('',(-32.,-55.,26.));
#527=CARTESIAN_POINT('',(-32.,-55.,26.));
#528=CARTESIAN_POINT('',(-40.,-55.,26.));
#529=CARTESIAN_POINT('',(-40.,-55.,26.));
#530=CARTESIAN_POINT('',(-40.,-55.,30.));
#531=CARTESIAN_POINT('',(-40.,-55.,30.));
#532=CARTESIAN_POINT('',(40.,-55.,30.));
#533=CARTESIAN_POINT('',(-40.,24.,6.));
#534=CARTESIAN_POINT('',(-40.,24.,0.));
#535=CARTESIAN_POINT('',(-40.,24.,0.));
#536=CARTESIAN_POINT('',(-40.,-63.,0.));
#537=CARTESIAN_POINT('',(-40.,-63.,6.));
#538=CARTESIAN_POINT('',(-40.,-63.,30.));
#539=CARTESIAN_POINT('',(-40.,-55.,30.));
#540=CARTESIAN_POINT('',(-40.,-20.,26.));
#541=CARTESIAN_POINT('',(-40.,-20.,26.));
#542=CARTESIAN_POINT('',(-40.,-20.,26.));
#543=CARTESIAN_POINT('',(-40.,24.,6.));
#544=CARTESIAN_POINT('',(-40.,-63.,6.));
#545=CARTESIAN_POINT('',(20.,-63.,18.7));
#546=CARTESIAN_POINT('',(21.7,-63.,18.7));
#547=CARTESIAN_POINT('',(-20.,-63.,18.7));
#548=CARTESIAN_POINT('',(-18.3,-63.,18.7));
#549=CARTESIAN_POINT('',(-40.,-63.,0.));
#550=CARTESIAN_POINT('',(40.,-63.,0.));
#551=CARTESIAN_POINT('',(40.,-63.,6.));
#552=CARTESIAN_POINT('',(40.,-63.,30.));
#553=CARTESIAN_POINT('',(-40.,-63.,30.));
#554=CARTESIAN_POINT('',(40.,-63.,6.));
#555=CARTESIAN_POINT('',(40.,-63.,0.));
#556=CARTESIAN_POINT('',(40.,24.,0.));
#557=CARTESIAN_POINT('',(40.,24.,6.));
#558=CARTESIAN_POINT('',(40.,-20.,26.));
#559=CARTESIAN_POINT('',(40.,-20.,26.));
#560=CARTESIAN_POINT('',(40.,-20.,26.));
#561=CARTESIAN_POINT('',(40.,-63.,30.));
#562=CARTESIAN_POINT('',(-23.,-43.,6.));
#563=CARTESIAN_POINT('',(-23.,-43.,0.));
#564=CARTESIAN_POINT('',(-21.3,-43.,0.));
#565=CARTESIAN_POINT('',(23.,-43.,6.));
#566=CARTESIAN_POINT('',(23.,-43.,0.));
#567=CARTESIAN_POINT('',(24.7,-43.,0.));
#568=CARTESIAN_POINT('',(-23.,18.,6.));
#569=CARTESIAN_POINT('',(-23.,18.,0.));
#570=CARTESIAN_POINT('',(-21.3,18.,0.));
#571=CARTESIAN_POINT('',(23.,18.,6.));
#572=CARTESIAN_POINT('',(23.,18.,0.));
#573=CARTESIAN_POINT('',(24.7,18.,0.));
#574=CARTESIAN_POINT('',(40.,24.,6.));
#575=CARTESIAN_POINT('',(40.,24.,0.));
#576=CARTESIAN_POINT('',(0.,0.,0.));
#577=CARTESIAN_POINT('',(0.,0.,30.));
#578=CARTESIAN_POINT('',(-32.,-55.,26.));
#579=CARTESIAN_POINT('',(-32.,-55.,26.));
#580=CARTESIAN_POINT('',(0.,0.,26.));
#581=CARTESIAN_POINT('',(32.,-55.,26.));
#582=CARTESIAN_POINT('',(32.,-55.,26.));
#583=CARTESIAN_POINT('',(0.,0.,26.));
#584=CARTESIAN_POINT('',(-20.,-63.,18.7));
#585=CARTESIAN_POINT('',(20.,-63.,18.7));
#586=MECHANICAL_DESIGN_GEOMETRIC_PRESENTATION_REPRESENTATION('',(#359),
#587);
#587=(
GEOMETRIC_REPRESENTATION_CONTEXT(3)
GLOBAL_UNCERTAINTY_ASSIGNED_CONTEXT((#588))
GLOBAL_UNIT_ASSIGNED_CONTEXT((#591,#590,#589))
REPRESENTATION_CONTEXT('A02b_shoulder_pedestal',
'TOP_LEVEL_ASSEMBLY_PART')
);
#588=UNCERTAINTY_MEASURE_WITH_UNIT(LENGTH_MEASURE(0.005),#591,
'DISTANCE_ACCURACY_VALUE','Maximum Tolerance applied to model');
#589=(
NAMED_UNIT(*)
SI_UNIT($,.STERADIAN.)
SOLID_ANGLE_UNIT()
);
#590=(
NAMED_UNIT(*)
PLANE_ANGLE_UNIT()
SI_UNIT($,.RADIAN.)
);
#591=(
LENGTH_UNIT()
NAMED_UNIT(*)
SI_UNIT(.MILLI.,.METRE.)
);
#592=PRODUCT_DEFINITION_SHAPE('','',#593);
#593=PRODUCT_DEFINITION('','',#595,#594);
#594=PRODUCT_DEFINITION_CONTEXT('',#601,'design');
#595=PRODUCT_DEFINITION_FORMATION_WITH_SPECIFIED_SOURCE('','',#597,
 .NOT_KNOWN.);
#596=PRODUCT_RELATED_PRODUCT_CATEGORY('','',(#597));
#597=PRODUCT('A02b_shoulder_pedestal','A02b_shoulder_pedestal',
'A02b_shoulder_pedestal',(#599));
#598=PRODUCT_CATEGORY('','');
#599=PRODUCT_CONTEXT('',#601,'mechanical');
#600=APPLICATION_PROTOCOL_DEFINITION('international standard',
'automotive_design',2010,#601);
#601=APPLICATION_CONTEXT(
'core data for automotive mechanical design processes');
ENDSEC;
END-ISO-10303-21;
