ISO-10303-21;
HEADER;
/* Generated by software containing ST-Developer
 * from STEP Tools, Inc. (www.steptools.com) 
 */
/* OPTION: strings as raw bytes, not using required /X/ escapes */

FILE_DESCRIPTION(
/* description */ ('Unknown'),
/* implementation_level */ '2;1');

FILE_NAME(
/* name */ 'A05_forearm_link_85',
/* time_stamp */ '2026-09-23T11:56:19+08:00',
/* author */ ('Unknown'),
/* organization */ ('Unknown'),
/* preprocessor_version */ 'ST-DEVELOPER v16.7',
/* originating_system */ 'Solid Edge',
/* authorisation */ 'Unknown');

FILE_SCHEMA (('AUTOMOTIVE_DESIGN {1 0 10303 214 3 1 1}'));
ENDSEC;

DATA;
#10=PROPERTY_DEFINITION_REPRESENTATION(#14,#12);
#11=PROPERTY_DEFINITION_REPRESENTATION(#15,#13);
#12=REPRESENTATION('',(#16),#767);
#13=REPRESENTATION('',(#17),#767);
#14=PROPERTY_DEFINITION('pmi validation property','',#772);
#15=PROPERTY_DEFINITION('pmi validation property','',#772);
#16=VALUE_REPRESENTATION_ITEM('number of annotations',COUNT_MEASURE(0.));
#17=VALUE_REPRESENTATION_ITEM('number of views',COUNT_MEASURE(0.));
#18=SHAPE_REPRESENTATION_RELATIONSHIP('','',#475,#19);
#19=ADVANCED_BREP_SHAPE_REPRESENTATION('',(#473),#767);
#20=CIRCLE('',#480,1.7);
#21=CIRCLE('',#481,1.7);
#22=CIRCLE('',#483,1.7);
#23=CIRCLE('',#484,1.7);
#24=CIRCLE('',#486,21.);
#25=CIRCLE('',#487,21.);
#26=CIRCLE('',#489,12.);
#27=CIRCLE('',#490,12.);
#28=CIRCLE('',#492,1.7);
#29=CIRCLE('',#493,1.7);
#30=CIRCLE('',#495,1.7);
#31=CIRCLE('',#496,1.7);
#32=CIRCLE('',#498,1.7);
#33=CIRCLE('',#499,1.7);
#34=CIRCLE('',#500,1.7);
#35=CIRCLE('',#501,1.7);
#36=CIRCLE('',#503,1.7);
#37=CIRCLE('',#504,1.7);
#38=CIRCLE('',#505,1.7);
#39=CIRCLE('',#506,1.7);
#40=CYLINDRICAL_SURFACE('',#479,1.7);
#41=CYLINDRICAL_SURFACE('',#482,1.7);
#42=CYLINDRICAL_SURFACE('',#485,21.);
#43=CYLINDRICAL_SURFACE('',#488,12.);
#44=CYLINDRICAL_SURFACE('',#491,1.7);
#45=CYLINDRICAL_SURFACE('',#494,1.7);
#46=CYLINDRICAL_SURFACE('',#515,1.7);
#47=CYLINDRICAL_SURFACE('',#516,1.7);
#48=CYLINDRICAL_SURFACE('',#517,1.7);
#49=CYLINDRICAL_SURFACE('',#518,1.7);
#50=ORIENTED_EDGE('',*,*,#162,.F.);
#51=ORIENTED_EDGE('',*,*,#163,.T.);
#52=ORIENTED_EDGE('',*,*,#164,.T.);
#53=ORIENTED_EDGE('',*,*,#165,.F.);
#54=ORIENTED_EDGE('',*,*,#166,.F.);
#55=ORIENTED_EDGE('',*,*,#167,.F.);
#56=ORIENTED_EDGE('',*,*,#168,.T.);
#57=ORIENTED_EDGE('',*,*,#169,.T.);
#58=ORIENTED_EDGE('',*,*,#170,.T.);
#59=ORIENTED_EDGE('',*,*,#171,.T.);
#60=ORIENTED_EDGE('',*,*,#172,.F.);
#61=ORIENTED_EDGE('',*,*,#173,.T.);
#62=ORIENTED_EDGE('',*,*,#174,.F.);
#63=ORIENTED_EDGE('',*,*,#175,.T.);
#64=ORIENTED_EDGE('',*,*,#176,.T.);
#65=ORIENTED_EDGE('',*,*,#177,.T.);
#66=ORIENTED_EDGE('',*,*,#168,.F.);
#67=ORIENTED_EDGE('',*,*,#178,.F.);
#68=ORIENTED_EDGE('',*,*,#164,.F.);
#69=ORIENTED_EDGE('',*,*,#179,.T.);
#70=ORIENTED_EDGE('',*,*,#180,.F.);
#71=ORIENTED_EDGE('',*,*,#181,.T.);
#72=ORIENTED_EDGE('',*,*,#182,.T.);
#73=ORIENTED_EDGE('',*,*,#183,.F.);
#74=ORIENTED_EDGE('',*,*,#184,.T.);
#75=ORIENTED_EDGE('',*,*,#185,.F.);
#76=ORIENTED_EDGE('',*,*,#186,.T.);
#77=ORIENTED_EDGE('',*,*,#165,.T.);
#78=ORIENTED_EDGE('',*,*,#178,.T.);
#79=ORIENTED_EDGE('',*,*,#167,.T.);
#80=ORIENTED_EDGE('',*,*,#187,.T.);
#81=ORIENTED_EDGE('',*,*,#188,.T.);
#82=ORIENTED_EDGE('',*,*,#189,.T.);
#83=ORIENTED_EDGE('',*,*,#190,.T.);
#84=ORIENTED_EDGE('',*,*,#181,.F.);
#85=ORIENTED_EDGE('',*,*,#176,.F.);
#86=ORIENTED_EDGE('',*,*,#191,.T.);
#87=ORIENTED_EDGE('',*,*,#192,.T.);
#88=ORIENTED_EDGE('',*,*,#170,.F.);
#89=ORIENTED_EDGE('',*,*,#193,.T.);
#90=ORIENTED_EDGE('',*,*,#194,.T.);
#91=ORIENTED_EDGE('',*,*,#184,.F.);
#92=ORIENTED_EDGE('',*,*,#182,.F.);
#93=ORIENTED_EDGE('',*,*,#195,.F.);
#94=ORIENTED_EDGE('',*,*,#196,.F.);
#95=ORIENTED_EDGE('',*,*,#197,.F.);
#96=ORIENTED_EDGE('',*,*,#198,.F.);
#97=ORIENTED_EDGE('',*,*,#163,.F.);
#98=ORIENTED_EDGE('',*,*,#199,.F.);
#99=ORIENTED_EDGE('',*,*,#200,.F.);
#100=ORIENTED_EDGE('',*,*,#201,.F.);
#101=ORIENTED_EDGE('',*,*,#202,.F.);
#102=ORIENTED_EDGE('',*,*,#203,.F.);
#103=ORIENTED_EDGE('',*,*,#169,.F.);
#104=ORIENTED_EDGE('',*,*,#179,.F.);
#105=ORIENTED_EDGE('',*,*,#180,.T.);
#106=ORIENTED_EDGE('',*,*,#174,.T.);
#107=ORIENTED_EDGE('',*,*,#204,.F.);
#108=ORIENTED_EDGE('',*,*,#205,.F.);
#109=ORIENTED_EDGE('',*,*,#172,.T.);
#110=ORIENTED_EDGE('',*,*,#206,.F.);
#111=ORIENTED_EDGE('',*,*,#207,.F.);
#112=ORIENTED_EDGE('',*,*,#185,.T.);
#113=ORIENTED_EDGE('',*,*,#183,.T.);
#114=ORIENTED_EDGE('',*,*,#208,.T.);
#115=ORIENTED_EDGE('',*,*,#209,.T.);
#116=ORIENTED_EDGE('',*,*,#210,.T.);
#117=ORIENTED_EDGE('',*,*,#211,.T.);
#118=ORIENTED_EDGE('',*,*,#177,.F.);
#119=ORIENTED_EDGE('',*,*,#192,.F.);
#120=ORIENTED_EDGE('',*,*,#212,.T.);
#121=ORIENTED_EDGE('',*,*,#204,.T.);
#122=ORIENTED_EDGE('',*,*,#175,.F.);
#123=ORIENTED_EDGE('',*,*,#205,.T.);
#124=ORIENTED_EDGE('',*,*,#212,.F.);
#125=ORIENTED_EDGE('',*,*,#191,.F.);
#126=ORIENTED_EDGE('',*,*,#171,.F.);
#127=ORIENTED_EDGE('',*,*,#194,.F.);
#128=ORIENTED_EDGE('',*,*,#213,.T.);
#129=ORIENTED_EDGE('',*,*,#206,.T.);
#130=ORIENTED_EDGE('',*,*,#173,.F.);
#131=ORIENTED_EDGE('',*,*,#207,.T.);
#132=ORIENTED_EDGE('',*,*,#213,.F.);
#133=ORIENTED_EDGE('',*,*,#193,.F.);
#134=ORIENTED_EDGE('',*,*,#199,.T.);
#135=ORIENTED_EDGE('',*,*,#162,.T.);
#136=ORIENTED_EDGE('',*,*,#186,.F.);
#137=ORIENTED_EDGE('',*,*,#214,.T.);
#138=ORIENTED_EDGE('',*,*,#187,.F.);
#139=ORIENTED_EDGE('',*,*,#166,.T.);
#140=ORIENTED_EDGE('',*,*,#203,.T.);
#141=ORIENTED_EDGE('',*,*,#215,.F.);
#142=ORIENTED_EDGE('',*,*,#202,.T.);
#143=ORIENTED_EDGE('',*,*,#216,.F.);
#144=ORIENTED_EDGE('',*,*,#188,.F.);
#145=ORIENTED_EDGE('',*,*,#215,.T.);
#146=ORIENTED_EDGE('',*,*,#201,.T.);
#147=ORIENTED_EDGE('',*,*,#217,.F.);
#148=ORIENTED_EDGE('',*,*,#189,.F.);
#149=ORIENTED_EDGE('',*,*,#216,.T.);
#150=ORIENTED_EDGE('',*,*,#195,.T.);
#151=ORIENTED_EDGE('',*,*,#211,.F.);
#152=ORIENTED_EDGE('',*,*,#196,.T.);
#153=ORIENTED_EDGE('',*,*,#210,.F.);
#154=ORIENTED_EDGE('',*,*,#197,.T.);
#155=ORIENTED_EDGE('',*,*,#209,.F.);
#156=ORIENTED_EDGE('',*,*,#198,.T.);
#157=ORIENTED_EDGE('',*,*,#208,.F.);
#158=ORIENTED_EDGE('',*,*,#200,.T.);
#159=ORIENTED_EDGE('',*,*,#214,.F.);
#160=ORIENTED_EDGE('',*,*,#190,.F.);
#161=ORIENTED_EDGE('',*,*,#217,.T.);
#162=EDGE_CURVE('',#218,#219,#260,.T.);
#163=EDGE_CURVE('',#218,#220,#261,.T.);
#164=EDGE_CURVE('',#220,#221,#262,.F.);
#165=EDGE_CURVE('',#219,#221,#263,.T.);
#166=EDGE_CURVE('',#222,#223,#264,.T.);
#167=EDGE_CURVE('',#224,#222,#265,.T.);
#168=EDGE_CURVE('',#224,#225,#266,.T.);
#169=EDGE_CURVE('',#225,#223,#267,.T.);
#170=EDGE_CURVE('',#226,#227,#20,.T.);
#171=EDGE_CURVE('',#227,#228,#268,.T.);
#172=EDGE_CURVE('',#229,#228,#21,.T.);
#173=EDGE_CURVE('',#229,#226,#269,.F.);
#174=EDGE_CURVE('',#230,#231,#22,.T.);
#175=EDGE_CURVE('',#230,#232,#270,.F.);
#176=EDGE_CURVE('',#232,#233,#23,.T.);
#177=EDGE_CURVE('',#233,#231,#271,.T.);
#178=EDGE_CURVE('',#221,#224,#24,.T.);
#179=EDGE_CURVE('',#220,#225,#25,.T.);
#180=EDGE_CURVE('',#234,#234,#26,.T.);
#181=EDGE_CURVE('',#235,#235,#27,.T.);
#182=EDGE_CURVE('',#236,#236,#28,.T.);
#183=EDGE_CURVE('',#237,#237,#29,.T.);
#184=EDGE_CURVE('',#238,#238,#30,.T.);
#185=EDGE_CURVE('',#239,#239,#31,.T.);
#186=EDGE_CURVE('',#240,#219,#272,.T.);
#187=EDGE_CURVE('',#222,#241,#273,.T.);
#188=EDGE_CURVE('',#241,#242,#274,.T.);
#189=EDGE_CURVE('',#242,#243,#275,.T.);
#190=EDGE_CURVE('',#243,#240,#276,.T.);
#191=EDGE_CURVE('',#232,#244,#277,.T.);
#192=EDGE_CURVE('',#244,#233,#278,.T.);
#193=EDGE_CURVE('',#226,#245,#279,.T.);
#194=EDGE_CURVE('',#245,#227,#280,.T.);
#195=EDGE_CURVE('',#246,#246,#32,.T.);
#196=EDGE_CURVE('',#247,#247,#33,.T.);
#197=EDGE_CURVE('',#248,#248,#34,.T.);
#198=EDGE_CURVE('',#249,#249,#35,.T.);
#199=EDGE_CURVE('',#250,#218,#281,.T.);
#200=EDGE_CURVE('',#251,#250,#282,.T.);
#201=EDGE_CURVE('',#252,#251,#283,.T.);
#202=EDGE_CURVE('',#253,#252,#284,.T.);
#203=EDGE_CURVE('',#223,#253,#285,.T.);
#204=EDGE_CURVE('',#254,#231,#286,.T.);
#205=EDGE_CURVE('',#230,#254,#287,.T.);
#206=EDGE_CURVE('',#255,#228,#288,.T.);
#207=EDGE_CURVE('',#229,#255,#289,.T.);
#208=EDGE_CURVE('',#256,#256,#36,.T.);
#209=EDGE_CURVE('',#257,#257,#37,.T.);
#210=EDGE_CURVE('',#258,#258,#38,.T.);
#211=EDGE_CURVE('',#259,#259,#39,.T.);
#212=EDGE_CURVE('',#244,#254,#290,.T.);
#213=EDGE_CURVE('',#245,#255,#291,.T.);
#214=EDGE_CURVE('',#240,#250,#292,.T.);
#215=EDGE_CURVE('',#241,#253,#293,.T.);
#216=EDGE_CURVE('',#242,#252,#294,.T.);
#217=EDGE_CURVE('',#243,#251,#295,.T.);
#218=VERTEX_POINT('',#647);
#219=VERTEX_POINT('',#648);
#220=VERTEX_POINT('',#650);
#221=VERTEX_POINT('',#652);
#222=VERTEX_POINT('',#656);
#223=VERTEX_POINT('',#657);
#224=VERTEX_POINT('',#659);
#225=VERTEX_POINT('',#661);
#226=VERTEX_POINT('',#665);
#227=VERTEX_POINT('',#666);
#228=VERTEX_POINT('',#668);
#229=VERTEX_POINT('',#670);
#230=VERTEX_POINT('',#674);
#231=VERTEX_POINT('',#675);
#232=VERTEX_POINT('',#677);
#233=VERTEX_POINT('',#679);
#234=VERTEX_POINT('',#686);
#235=VERTEX_POINT('',#688);
#236=VERTEX_POINT('',#691);
#237=VERTEX_POINT('',#693);
#238=VERTEX_POINT('',#696);
#239=VERTEX_POINT('',#698);
#240=VERTEX_POINT('',#701);
#241=VERTEX_POINT('',#703);
#242=VERTEX_POINT('',#705);
#243=VERTEX_POINT('',#707);
#244=VERTEX_POINT('',#710);
#245=VERTEX_POINT('',#713);
#246=VERTEX_POINT('',#716);
#247=VERTEX_POINT('',#718);
#248=VERTEX_POINT('',#720);
#249=VERTEX_POINT('',#722);
#250=VERTEX_POINT('',#725);
#251=VERTEX_POINT('',#727);
#252=VERTEX_POINT('',#729);
#253=VERTEX_POINT('',#731);
#254=VERTEX_POINT('',#734);
#255=VERTEX_POINT('',#737);
#256=VERTEX_POINT('',#740);
#257=VERTEX_POINT('',#742);
#258=VERTEX_POINT('',#744);
#259=VERTEX_POINT('',#746);
#260=LINE('',#646,#296);
#261=LINE('',#649,#297);
#262=LINE('',#651,#298);
#263=LINE('',#653,#299);
#264=LINE('',#655,#300);
#265=LINE('',#658,#301);
#266=LINE('',#660,#302);
#267=LINE('',#662,#303);
#268=LINE('',#667,#304);
#269=LINE('',#671,#305);
#270=LINE('',#676,#306);
#271=LINE('',#680,#307);
#272=LINE('',#700,#308);
#273=LINE('',#702,#309);
#274=LINE('',#704,#310);
#275=LINE('',#706,#311);
#276=LINE('',#708,#312);
#277=LINE('',#709,#313);
#278=LINE('',#711,#314);
#279=LINE('',#712,#315);
#280=LINE('',#714,#316);
#281=LINE('',#724,#317);
#282=LINE('',#726,#318);
#283=LINE('',#728,#319);
#284=LINE('',#730,#320);
#285=LINE('',#732,#321);
#286=LINE('',#733,#322);
#287=LINE('',#735,#323);
#288=LINE('',#736,#324);
#289=LINE('',#738,#325);
#290=LINE('',#748,#326);
#291=LINE('',#751,#327);
#292=LINE('',#754,#328);
#293=LINE('',#756,#329);
#294=LINE('',#758,#330);
#295=LINE('',#760,#331);
#296=VECTOR('',#524,1000.);
#297=VECTOR('',#525,1000.);
#298=VECTOR('',#526,1000.);
#299=VECTOR('',#527,1000.);
#300=VECTOR('',#530,1000.);
#301=VECTOR('',#531,1000.);
#302=VECTOR('',#532,1000.);
#303=VECTOR('',#533,1000.);
#304=VECTOR('',#538,1000.);
#305=VECTOR('',#541,1000.);
#306=VECTOR('',#546,1000.);
#307=VECTOR('',#549,1000.);
#308=VECTOR('',#576,1000.);
#309=VECTOR('',#577,1000.);
#310=VECTOR('',#578,1000.);
#311=VECTOR('',#579,1000.);
#312=VECTOR('',#580,1000.);
#313=VECTOR('',#581,1000.);
#314=VECTOR('',#582,1000.);
#315=VECTOR('',#583,1000.);
#316=VECTOR('',#584,1000.);
#317=VECTOR('',#595,1000.);
#318=VECTOR('',#596,1000.);
#319=VECTOR('',#597,1000.);
#320=VECTOR('',#598,1000.);
#321=VECTOR('',#599,1000.);
#322=VECTOR('',#600,1000.);
#323=VECTOR('',#601,1000.);
#324=VECTOR('',#602,1000.);
#325=VECTOR('',#603,1000.);
#326=VECTOR('',#614,1000.);
#327=VECTOR('',#619,1000.);
#328=VECTOR('',#624,1000.);
#329=VECTOR('',#627,1000.);
#330=VECTOR('',#630,1000.);
#331=VECTOR('',#633,1000.);
#332=EDGE_LOOP('',(#50,#51,#52,#53));
#333=EDGE_LOOP('',(#54,#55,#56,#57));
#334=EDGE_LOOP('',(#58,#59,#60,#61));
#335=EDGE_LOOP('',(#62,#63,#64,#65));
#336=EDGE_LOOP('',(#66,#67,#68,#69));
#337=EDGE_LOOP('',(#70));
#338=EDGE_LOOP('',(#71));
#339=EDGE_LOOP('',(#72));
#340=EDGE_LOOP('',(#73));
#341=EDGE_LOOP('',(#74));
#342=EDGE_LOOP('',(#75));
#343=EDGE_LOOP('',(#76,#77,#78,#79,#80,#81,#82,#83));
#344=EDGE_LOOP('',(#84));
#345=EDGE_LOOP('',(#85,#86,#87));
#346=EDGE_LOOP('',(#88,#89,#90));
#347=EDGE_LOOP('',(#91));
#348=EDGE_LOOP('',(#92));
#349=EDGE_LOOP('',(#93));
#350=EDGE_LOOP('',(#94));
#351=EDGE_LOOP('',(#95));
#352=EDGE_LOOP('',(#96));
#353=EDGE_LOOP('',(#97,#98,#99,#100,#101,#102,#103,#104));
#354=EDGE_LOOP('',(#105));
#355=EDGE_LOOP('',(#106,#107,#108));
#356=EDGE_LOOP('',(#109,#110,#111));
#357=EDGE_LOOP('',(#112));
#358=EDGE_LOOP('',(#113));
#359=EDGE_LOOP('',(#114));
#360=EDGE_LOOP('',(#115));
#361=EDGE_LOOP('',(#116));
#362=EDGE_LOOP('',(#117));
#363=EDGE_LOOP('',(#118,#119,#120,#121));
#364=EDGE_LOOP('',(#122,#123,#124,#125));
#365=EDGE_LOOP('',(#126,#127,#128,#129));
#366=EDGE_LOOP('',(#130,#131,#132,#133));
#367=EDGE_LOOP('',(#134,#135,#136,#137));
#368=EDGE_LOOP('',(#138,#139,#140,#141));
#369=EDGE_LOOP('',(#142,#143,#144,#145));
#370=EDGE_LOOP('',(#146,#147,#148,#149));
#371=EDGE_LOOP('',(#150));
#372=EDGE_LOOP('',(#151));
#373=EDGE_LOOP('',(#152));
#374=EDGE_LOOP('',(#153));
#375=EDGE_LOOP('',(#154));
#376=EDGE_LOOP('',(#155));
#377=EDGE_LOOP('',(#156));
#378=EDGE_LOOP('',(#157));
#379=EDGE_LOOP('',(#158,#159,#160,#161));
#380=FACE_BOUND('',#332,.T.);
#381=FACE_BOUND('',#333,.T.);
#382=FACE_BOUND('',#334,.T.);
#383=FACE_BOUND('',#335,.T.);
#384=FACE_BOUND('',#336,.T.);
#385=FACE_BOUND('',#337,.T.);
#386=FACE_BOUND('',#338,.T.);
#387=FACE_BOUND('',#339,.T.);
#388=FACE_BOUND('',#340,.T.);
#389=FACE_BOUND('',#341,.T.);
#390=FACE_BOUND('',#342,.T.);
#391=FACE_BOUND('',#343,.T.);
#392=FACE_BOUND('',#344,.T.);
#393=FACE_BOUND('',#345,.T.);
#394=FACE_BOUND('',#346,.T.);
#395=FACE_BOUND('',#347,.T.);
#396=FACE_BOUND('',#348,.T.);
#397=FACE_BOUND('',#349,.T.);
#398=FACE_BOUND('',#350,.T.);
#399=FACE_BOUND('',#351,.T.);
#400=FACE_BOUND('',#352,.T.);
#401=FACE_BOUND('',#353,.T.);
#402=FACE_BOUND('',#354,.T.);
#403=FACE_BOUND('',#355,.T.);
#404=FACE_BOUND('',#356,.T.);
#405=FACE_BOUND('',#357,.T.);
#406=FACE_BOUND('',#358,.T.);
#407=FACE_BOUND('',#359,.T.);
#408=FACE_BOUND('',#360,.T.);
#409=FACE_BOUND('',#361,.T.);
#410=FACE_BOUND('',#362,.T.);
#411=FACE_BOUND('',#363,.T.);
#412=FACE_BOUND('',#364,.T.);
#413=FACE_BOUND('',#365,.T.);
#414=FACE_BOUND('',#366,.T.);
#415=FACE_BOUND('',#367,.T.);
#416=FACE_BOUND('',#368,.T.);
#417=FACE_BOUND('',#369,.T.);
#418=FACE_BOUND('',#370,.T.);
#419=FACE_BOUND('',#371,.T.);
#420=FACE_BOUND('',#372,.T.);
#421=FACE_BOUND('',#373,.T.);
#422=FACE_BOUND('',#374,.T.);
#423=FACE_BOUND('',#375,.T.);
#424=FACE_BOUND('',#376,.T.);
#425=FACE_BOUND('',#377,.T.);
#426=FACE_BOUND('',#378,.T.);
#427=FACE_BOUND('',#379,.T.);
#428=PLANE('',#477);
#429=PLANE('',#478);
#430=PLANE('',#497);
#431=PLANE('',#502);
#432=PLANE('',#507);
#433=PLANE('',#508);
#434=PLANE('',#509);
#435=PLANE('',#510);
#436=PLANE('',#511);
#437=PLANE('',#512);
#438=PLANE('',#513);
#439=PLANE('',#514);
#440=PLANE('',#519);
#441=ADVANCED_FACE('',(#380),#428,.F.);
#442=ADVANCED_FACE('',(#381),#429,.F.);
#443=ADVANCED_FACE('',(#382),#40,.F.);
#444=ADVANCED_FACE('',(#383),#41,.F.);
#445=ADVANCED_FACE('',(#384),#42,.T.);
#446=ADVANCED_FACE('',(#385,#386),#43,.F.);
#447=ADVANCED_FACE('',(#387,#388),#44,.F.);
#448=ADVANCED_FACE('',(#389,#390),#45,.F.);
#449=ADVANCED_FACE('',(#391,#392,#393,#394,#395,#396,#397,#398,#399,#400),
#430,.T.);
#450=ADVANCED_FACE('',(#401,#402,#403,#404,#405,#406,#407,#408,#409,#410),
#431,.F.);
#451=ADVANCED_FACE('',(#411),#432,.F.);
#452=ADVANCED_FACE('',(#412),#433,.F.);
#453=ADVANCED_FACE('',(#413),#434,.F.);
#454=ADVANCED_FACE('',(#414),#435,.F.);
#455=ADVANCED_FACE('',(#415),#436,.F.);
#456=ADVANCED_FACE('',(#416),#437,.F.);
#457=ADVANCED_FACE('',(#417),#438,.F.);
#458=ADVANCED_FACE('',(#418),#439,.F.);
#459=ADVANCED_FACE('',(#419,#420),#46,.F.);
#460=ADVANCED_FACE('',(#421,#422),#47,.F.);
#461=ADVANCED_FACE('',(#423,#424),#48,.F.);
#462=ADVANCED_FACE('',(#425,#426),#49,.F.);
#463=ADVANCED_FACE('',(#427),#440,.F.);
#464=CLOSED_SHELL('',(#441,#442,#443,#444,#445,#446,#447,#448,#449,#450,
#451,#452,#453,#454,#455,#456,#457,#458,#459,#460,#461,#462,#463));
#465=STYLED_ITEM('',(#466),#473);
#466=PRESENTATION_STYLE_ASSIGNMENT((#467));
#467=SURFACE_STYLE_USAGE(.BOTH.,#468);
#468=SURFACE_SIDE_STYLE('',(#469));
#469=SURFACE_STYLE_FILL_AREA(#470);
#470=FILL_AREA_STYLE('',(#471));
#471=FILL_AREA_STYLE_COLOUR('',#472);
#472=COLOUR_RGB('',0.100000001490116,0.349999994039536,0.280000001192093);
#473=MANIFOLD_SOLID_BREP('',#464);
#474=SHAPE_DEFINITION_REPRESENTATION(#772,#475);
#475=SHAPE_REPRESENTATION('A05_forearm_link_85',(#476),#767);
#476=AXIS2_PLACEMENT_3D('',#644,#520,#521);
#477=AXIS2_PLACEMENT_3D('',#645,#522,#523);
#478=AXIS2_PLACEMENT_3D('',#654,#528,#529);
#479=AXIS2_PLACEMENT_3D('',#663,#534,#535);
#480=AXIS2_PLACEMENT_3D('',#664,#536,#537);
#481=AXIS2_PLACEMENT_3D('',#669,#539,#540);
#482=AXIS2_PLACEMENT_3D('',#672,#542,#543);
#483=AXIS2_PLACEMENT_3D('',#673,#544,#545);
#484=AXIS2_PLACEMENT_3D('',#678,#547,#548);
#485=AXIS2_PLACEMENT_3D('',#681,#550,#551);
#486=AXIS2_PLACEMENT_3D('',#682,#552,#553);
#487=AXIS2_PLACEMENT_3D('',#683,#554,#555);
#488=AXIS2_PLACEMENT_3D('',#684,#556,#557);
#489=AXIS2_PLACEMENT_3D('',#685,#558,#559);
#490=AXIS2_PLACEMENT_3D('',#687,#560,#561);
#491=AXIS2_PLACEMENT_3D('',#689,#562,#563);
#492=AXIS2_PLACEMENT_3D('',#690,#564,#565);
#493=AXIS2_PLACEMENT_3D('',#692,#566,#567);
#494=AXIS2_PLACEMENT_3D('',#694,#568,#569);
#495=AXIS2_PLACEMENT_3D('',#695,#570,#571);
#496=AXIS2_PLACEMENT_3D('',#697,#572,#573);
#497=AXIS2_PLACEMENT_3D('',#699,#574,#575);
#498=AXIS2_PLACEMENT_3D('',#715,#585,#586);
#499=AXIS2_PLACEMENT_3D('',#717,#587,#588);
#500=AXIS2_PLACEMENT_3D('',#719,#589,#590);
#501=AXIS2_PLACEMENT_3D('',#721,#591,#592);
#502=AXIS2_PLACEMENT_3D('',#723,#593,#594);
#503=AXIS2_PLACEMENT_3D('',#739,#604,#605);
#504=AXIS2_PLACEMENT_3D('',#741,#606,#607);
#505=AXIS2_PLACEMENT_3D('',#743,#608,#609);
#506=AXIS2_PLACEMENT_3D('',#745,#610,#611);
#507=AXIS2_PLACEMENT_3D('',#747,#612,#613);
#508=AXIS2_PLACEMENT_3D('',#749,#615,#616);
#509=AXIS2_PLACEMENT_3D('',#750,#617,#618);
#510=AXIS2_PLACEMENT_3D('',#752,#620,#621);
#511=AXIS2_PLACEMENT_3D('',#753,#622,#623);
#512=AXIS2_PLACEMENT_3D('',#755,#625,#626);
#513=AXIS2_PLACEMENT_3D('',#757,#628,#629);
#514=AXIS2_PLACEMENT_3D('',#759,#631,#632);
#515=AXIS2_PLACEMENT_3D('',#761,#634,#635);
#516=AXIS2_PLACEMENT_3D('',#762,#636,#637);
#517=AXIS2_PLACEMENT_3D('',#763,#638,#639);
#518=AXIS2_PLACEMENT_3D('',#764,#640,#641);
#519=AXIS2_PLACEMENT_3D('',#765,#642,#643);
#520=DIRECTION('',(0.,0.,1.));
#521=DIRECTION('',(1.,0.,0.));
#522=DIRECTION('',(0.,-1.,0.));
#523=DIRECTION('',(0.,0.,-1.));
#524=DIRECTION('',(0.,0.,1.));
#525=DIRECTION('',(-1.,0.,0.));
#526=DIRECTION('',(0.,0.,-1.));
#527=DIRECTION('',(-1.,0.,0.));
#528=DIRECTION('',(0.,1.,0.));
#529=DIRECTION('',(0.,0.,1.));
#530=DIRECTION('',(0.,0.,-1.));
#531=DIRECTION('',(1.,0.,0.));
#532=DIRECTION('',(0.,0.,-1.));
#533=DIRECTION('',(1.,0.,0.));
#534=DIRECTION('',(0.,0.,-1.));
#535=DIRECTION('',(-1.,0.,0.));
#536=DIRECTION('',(0.,0.,1.));
#537=DIRECTION('',(1.,0.,0.));
#538=DIRECTION('',(0.,0.,-1.));
#539=DIRECTION('',(0.,0.,1.));
#540=DIRECTION('',(1.,0.,0.));
#541=DIRECTION('',(0.,0.,-1.));
#542=DIRECTION('',(0.,0.,-1.));
#543=DIRECTION('',(-1.,0.,0.));
#544=DIRECTION('',(0.,0.,1.));
#545=DIRECTION('',(1.,0.,0.));
#546=DIRECTION('',(0.,0.,-1.));
#547=DIRECTION('',(0.,0.,1.));
#548=DIRECTION('',(1.,0.,0.));
#549=DIRECTION('',(0.,0.,-1.));
#550=DIRECTION('',(0.,0.,-1.));
#551=DIRECTION('',(-1.,0.,0.));
#552=DIRECTION('',(0.,0.,1.));
#553=DIRECTION('',(1.,0.,0.));
#554=DIRECTION('',(0.,0.,1.));
#555=DIRECTION('',(1.,0.,0.));
#556=DIRECTION('',(0.,0.,-1.));
#557=DIRECTION('',(-1.,0.,0.));
#558=DIRECTION('',(0.,0.,1.));
#559=DIRECTION('',(1.,0.,0.));
#560=DIRECTION('',(0.,0.,1.));
#561=DIRECTION('',(1.,0.,0.));
#562=DIRECTION('',(0.,0.,-1.));
#563=DIRECTION('',(-1.,0.,0.));
#564=DIRECTION('',(0.,0.,1.));
#565=DIRECTION('',(1.,0.,0.));
#566=DIRECTION('',(0.,0.,1.));
#567=DIRECTION('',(1.,0.,0.));
#568=DIRECTION('',(0.,0.,-1.));
#569=DIRECTION('',(-1.,0.,0.));
#570=DIRECTION('',(0.,0.,1.));
#571=DIRECTION('',(1.,0.,0.));
#572=DIRECTION('',(0.,0.,1.));
#573=DIRECTION('',(1.,0.,0.));
#574=DIRECTION('',(0.,0.,1.));
#575=DIRECTION('',(1.,0.,0.));
#576=DIRECTION('',(0.,-1.,0.));
#577=DIRECTION('',(0.,-1.,0.));
#578=DIRECTION('',(1.,0.,0.));
#579=DIRECTION('',(0.,1.,0.));
#580=DIRECTION('',(-1.,0.,0.));
#581=DIRECTION('',(0.,-1.,0.));
#582=DIRECTION('',(1.,0.,0.));
#583=DIRECTION('',(-1.,0.,0.));
#584=DIRECTION('',(0.,-1.,0.));
#585=DIRECTION('',(0.,0.,1.));
#586=DIRECTION('',(1.,0.,0.));
#587=DIRECTION('',(0.,0.,1.));
#588=DIRECTION('',(1.,0.,0.));
#589=DIRECTION('',(0.,0.,1.));
#590=DIRECTION('',(1.,0.,0.));
#591=DIRECTION('',(0.,0.,1.));
#592=DIRECTION('',(1.,0.,0.));
#593=DIRECTION('',(0.,0.,1.));
#594=DIRECTION('',(1.,0.,0.));
#595=DIRECTION('',(0.,-1.,0.));
#596=DIRECTION('',(-1.,0.,0.));
#597=DIRECTION('',(0.,1.,0.));
#598=DIRECTION('',(1.,0.,0.));
#599=DIRECTION('',(0.,-1.,0.));
#600=DIRECTION('',(1.,0.,0.));
#601=DIRECTION('',(0.,-1.,0.));
#602=DIRECTION('',(0.,-1.,0.));
#603=DIRECTION('',(-1.,0.,0.));
#604=DIRECTION('',(0.,0.,1.));
#605=DIRECTION('',(1.,0.,0.));
#606=DIRECTION('',(0.,0.,1.));
#607=DIRECTION('',(1.,0.,0.));
#608=DIRECTION('',(0.,0.,1.));
#609=DIRECTION('',(1.,0.,0.));
#610=DIRECTION('',(0.,0.,1.));
#611=DIRECTION('',(1.,0.,0.));
#612=DIRECTION('',(0.,1.,0.));
#613=DIRECTION('',(0.,0.,1.));
#614=DIRECTION('',(0.,0.,-1.));
#615=DIRECTION('',(1.,0.,0.));
#616=DIRECTION('',(0.,0.,-1.));
#617=DIRECTION('',(1.,0.,0.));
#618=DIRECTION('',(0.,0.,-1.));
#619=DIRECTION('',(0.,0.,-1.));
#620=DIRECTION('',(0.,-1.,0.));
#621=DIRECTION('',(0.,0.,-1.));
#622=DIRECTION('',(1.,0.,0.));
#623=DIRECTION('',(0.,0.,-1.));
#624=DIRECTION('',(0.,0.,-1.));
#625=DIRECTION('',(1.,0.,0.));
#626=DIRECTION('',(0.,0.,-1.));
#627=DIRECTION('',(0.,0.,-1.));
#628=DIRECTION('',(0.,1.,0.));
#629=DIRECTION('',(0.,0.,1.));
#630=DIRECTION('',(0.,0.,-1.));
#631=DIRECTION('',(-1.,0.,0.));
#632=DIRECTION('',(0.,0.,1.));
#633=DIRECTION('',(0.,0.,-1.));
#634=DIRECTION('',(0.,0.,-1.));
#635=DIRECTION('',(-1.,0.,0.));
#636=DIRECTION('',(0.,0.,-1.));
#637=DIRECTION('',(-1.,0.,0.));
#638=DIRECTION('',(0.,0.,-1.));
#639=DIRECTION('',(-1.,0.,0.));
#640=DIRECTION('',(0.,0.,-1.));
#641=DIRECTION('',(-1.,0.,0.));
#642=DIRECTION('',(0.,-1.,0.));
#643=DIRECTION('',(0.,0.,-1.));
#644=CARTESIAN_POINT('',(0.,0.,0.));
#645=CARTESIAN_POINT('',(73.,12.,12.));
#646=CARTESIAN_POINT('',(57.,12.,12.));
#647=CARTESIAN_POINT('',(57.,12.,8.));
#648=CARTESIAN_POINT('',(57.,12.,12.));
#649=CARTESIAN_POINT('',(73.,12.,8.));
#650=CARTESIAN_POINT('',(17.2336879396141,12.,8.));
#651=CARTESIAN_POINT('',(17.2336879396141,12.,12.));
#652=CARTESIAN_POINT('',(17.2336879396141,12.,12.));
#653=CARTESIAN_POINT('',(73.,12.,12.));
#654=CARTESIAN_POINT('',(12.,-12.,12.));
#655=CARTESIAN_POINT('',(57.,-12.,12.));
#656=CARTESIAN_POINT('',(57.,-12.,12.));
#657=CARTESIAN_POINT('',(57.,-12.,8.));
#658=CARTESIAN_POINT('',(12.,-12.,12.));
#659=CARTESIAN_POINT('',(17.2336879396141,-12.,12.));
#660=CARTESIAN_POINT('',(17.2336879396141,-12.,12.));
#661=CARTESIAN_POINT('',(17.2336879396141,-12.,8.));
#662=CARTESIAN_POINT('',(12.,-12.,8.));
#663=CARTESIAN_POINT('',(11.3137084989848,11.3137084989848,12.));
#664=CARTESIAN_POINT('',(11.3137084989848,11.3137084989848,12.));
#665=CARTESIAN_POINT('',(12.8690232502921,12.,12.));
#666=CARTESIAN_POINT('',(12.,9.75839374767741,12.));
#667=CARTESIAN_POINT('',(12.,9.75839374767741,12.));
#668=CARTESIAN_POINT('',(12.,9.75839374767741,8.));
#669=CARTESIAN_POINT('',(11.3137084989848,11.3137084989848,8.));
#670=CARTESIAN_POINT('',(12.8690232502921,12.,8.));
#671=CARTESIAN_POINT('',(12.8690232502921,12.,12.));
#672=CARTESIAN_POINT('',(11.3137084989848,-11.3137084989848,12.));
#673=CARTESIAN_POINT('',(11.3137084989848,-11.3137084989848,8.));
#674=CARTESIAN_POINT('',(12.,-9.75839374767741,8.));
#675=CARTESIAN_POINT('',(12.8690232502921,-12.,8.));
#676=CARTESIAN_POINT('',(12.,-9.75839374767741,12.));
#677=CARTESIAN_POINT('',(12.,-9.75839374767741,12.));
#678=CARTESIAN_POINT('',(11.3137084989848,-11.3137084989848,12.));
#679=CARTESIAN_POINT('',(12.8690232502921,-12.,12.));
#680=CARTESIAN_POINT('',(12.8690232502921,-12.,12.));
#681=CARTESIAN_POINT('',(0.,0.,12.));
#682=CARTESIAN_POINT('',(0.,0.,12.));
#683=CARTESIAN_POINT('',(0.,0.,8.));
#684=CARTESIAN_POINT('',(0.,0.,12.));
#685=CARTESIAN_POINT('',(0.,0.,8.));
#686=CARTESIAN_POINT('',(12.,0.,8.));
#687=CARTESIAN_POINT('',(0.,0.,12.));
#688=CARTESIAN_POINT('',(12.,0.,12.));
#689=CARTESIAN_POINT('',(-11.3137084989848,11.3137084989848,12.));
#690=CARTESIAN_POINT('',(-11.3137084989848,11.3137084989848,12.));
#691=CARTESIAN_POINT('',(-9.61370849898476,11.3137084989848,12.));
#692=CARTESIAN_POINT('',(-11.3137084989848,11.3137084989848,8.));
#693=CARTESIAN_POINT('',(-9.61370849898476,11.3137084989848,8.));
#694=CARTESIAN_POINT('',(-11.3137084989848,-11.3137084989848,12.));
#695=CARTESIAN_POINT('',(-11.3137084989848,-11.3137084989848,12.));
#696=CARTESIAN_POINT('',(-9.61370849898476,-11.3137084989848,12.));
#697=CARTESIAN_POINT('',(-11.3137084989848,-11.3137084989848,8.));
#698=CARTESIAN_POINT('',(-9.61370849898476,-11.3137084989848,8.));
#699=CARTESIAN_POINT('',(0.,0.,12.));
#700=CARTESIAN_POINT('',(57.,24.,12.));
#701=CARTESIAN_POINT('',(57.,24.,12.));
#702=CARTESIAN_POINT('',(57.,24.,12.));
#703=CARTESIAN_POINT('',(57.,-49.,12.));
#704=CARTESIAN_POINT('',(57.,-49.,12.));
#705=CARTESIAN_POINT('',(113.,-49.,12.));
#706=CARTESIAN_POINT('',(113.,-49.,12.));
#707=CARTESIAN_POINT('',(113.,24.,12.));
#708=CARTESIAN_POINT('',(113.,24.,12.));
#709=CARTESIAN_POINT('',(12.,12.,12.));
#710=CARTESIAN_POINT('',(12.,-12.,12.));
#711=CARTESIAN_POINT('',(12.,-12.,12.));
#712=CARTESIAN_POINT('',(73.,12.,12.));
#713=CARTESIAN_POINT('',(12.,12.,12.));
#714=CARTESIAN_POINT('',(12.,12.,12.));
#715=CARTESIAN_POINT('',(62.,-43.,12.));
#716=CARTESIAN_POINT('',(63.7,-43.,12.));
#717=CARTESIAN_POINT('',(108.,-43.,12.));
#718=CARTESIAN_POINT('',(109.7,-43.,12.));
#719=CARTESIAN_POINT('',(62.,18.,12.));
#720=CARTESIAN_POINT('',(63.7,18.,12.));
#721=CARTESIAN_POINT('',(108.,18.,12.));
#722=CARTESIAN_POINT('',(109.7,18.,12.));
#723=CARTESIAN_POINT('',(0.,0.,8.));
#724=CARTESIAN_POINT('',(57.,24.,8.));
#725=CARTESIAN_POINT('',(57.,24.,8.));
#726=CARTESIAN_POINT('',(113.,24.,8.));
#727=CARTESIAN_POINT('',(113.,24.,8.));
#728=CARTESIAN_POINT('',(113.,-49.,8.));
#729=CARTESIAN_POINT('',(113.,-49.,8.));
#730=CARTESIAN_POINT('',(57.,-49.,8.));
#731=CARTESIAN_POINT('',(57.,-49.,8.));
#732=CARTESIAN_POINT('',(57.,24.,8.));
#733=CARTESIAN_POINT('',(12.,-12.,8.));
#734=CARTESIAN_POINT('',(12.,-12.,8.));
#735=CARTESIAN_POINT('',(12.,12.,8.));
#736=CARTESIAN_POINT('',(12.,12.,8.));
#737=CARTESIAN_POINT('',(12.,12.,8.));
#738=CARTESIAN_POINT('',(73.,12.,8.));
#739=CARTESIAN_POINT('',(108.,18.,8.));
#740=CARTESIAN_POINT('',(109.7,18.,8.));
#741=CARTESIAN_POINT('',(62.,18.,8.));
#742=CARTESIAN_POINT('',(63.7,18.,8.));
#743=CARTESIAN_POINT('',(108.,-43.,8.));
#744=CARTESIAN_POINT('',(109.7,-43.,8.));
#745=CARTESIAN_POINT('',(62.,-43.,8.));
#746=CARTESIAN_POINT('',(63.7,-43.,8.));
#747=CARTESIAN_POINT('',(12.,-12.,12.));
#748=CARTESIAN_POINT('',(12.,-12.,12.));
#749=CARTESIAN_POINT('',(12.,12.,12.));
#750=CARTESIAN_POINT('',(12.,12.,12.));
#751=CARTESIAN_POINT('',(12.,12.,12.));
#752=CARTESIAN_POINT('',(73.,12.,12.));
#753=CARTESIAN_POINT('',(57.,24.,12.));
#754=CARTESIAN_POINT('',(57.,24.,12.));
#755=CARTESIAN_POINT('',(57.,24.,12.));
#756=CARTESIAN_POINT('',(57.,-49.,12.));
#757=CARTESIAN_POINT('',(57.,-49.,12.));
#758=CARTESIAN_POINT('',(113.,-49.,12.));
#759=CARTESIAN_POINT('',(113.,-49.,12.));
#760=CARTESIAN_POINT('',(113.,24.,12.));
#761=CARTESIAN_POINT('',(62.,-43.,12.));
#762=CARTESIAN_POINT('',(108.,-43.,12.));
#763=CARTESIAN_POINT('',(62.,18.,12.));
#764=CARTESIAN_POINT('',(108.,18.,12.));
#765=CARTESIAN_POINT('',(113.,24.,12.));
#766=MECHANICAL_DESIGN_GEOMETRIC_PRESENTATION_REPRESENTATION('',(#465),
#767);
#767=(
GEOMETRIC_REPRESENTATION_CONTEXT(3)
GLOBAL_UNCERTAINTY_ASSIGNED_CONTEXT((#768))
GLOBAL_UNIT_ASSIGNED_CONTEXT((#771,#770,#769))
REPRESENTATION_CONTEXT('A05_forearm_link_85','TOP_LEVEL_ASSEMBLY_PART')
);
#768=UNCERTAINTY_MEASURE_WITH_UNIT(LENGTH_MEASURE(0.005),#771,
'DISTANCE_ACCURACY_VALUE','Maximum Tolerance applied to model');
#769=(
NAMED_UNIT(*)
SI_UNIT($,.STERADIAN.)
SOLID_ANGLE_UNIT()
);
#770=(
NAMED_UNIT(*)
PLANE_ANGLE_UNIT()
SI_UNIT($,.RADIAN.)
);
#771=(
LENGTH_UNIT()
NAMED_UNIT(*)
SI_UNIT(.MILLI.,.METRE.)
);
#772=PRODUCT_DEFINITION_SHAPE('','',#773);
#773=PRODUCT_DEFINITION('','',#775,#774);
#774=PRODUCT_DEFINITION_CONTEXT('',#781,'design');
#775=PRODUCT_DEFINITION_FORMATION_WITH_SPECIFIED_SOURCE('','',#777,
 .NOT_KNOWN.);
#776=PRODUCT_RELATED_PRODUCT_CATEGORY('','',(#777));
#777=PRODUCT('A05_forearm_link_85','A05_forearm_link_85',
'A05_forearm_link_85',(#779));
#778=PRODUCT_CATEGORY('','');
#779=PRODUCT_CONTEXT('',#781,'mechanical');
#780=APPLICATION_PROTOCOL_DEFINITION('international standard',
'automotive_design',2010,#781);
#781=APPLICATION_CONTEXT(
'core data for automotive mechanical design processes');
ENDSEC;
END-ISO-10303-21;
