ISO-10303-21;
HEADER;
/* Generated by software containing ST-Developer
 * from STEP Tools, Inc. (www.steptools.com) 
 */
/* OPTION: strings as raw bytes, not using required /X/ escapes */

FILE_DESCRIPTION(
/* description */ ('Unknown'),
/* implementation_level */ '2;1');

FILE_NAME(
/* name */ 'A05b_forearm_link_85',
/* time_stamp */ '2026-09-23T11:58:45+08:00',
/* author */ ('Unknown'),
/* organization */ ('Unknown'),
/* preprocessor_version */ 'ST-DEVELOPER v16.7',
/* originating_system */ 'Solid Edge',
/* authorisation */ 'Unknown');

FILE_SCHEMA (('AUTOMOTIVE_DESIGN {1 0 10303 214 3 1 1}'));
ENDSEC;

DATA;
#10=PROPERTY_DEFINITION_REPRESENTATION(#14,#12);
#11=PROPERTY_DEFINITION_REPRESENTATION(#15,#13);
#12=REPRESENTATION('',(#16),#625);
#13=REPRESENTATION('',(#17),#625);
#14=PROPERTY_DEFINITION('pmi validation property','',#630);
#15=PROPERTY_DEFINITION('pmi validation property','',#630);
#16=VALUE_REPRESENTATION_ITEM('number of annotations',COUNT_MEASURE(0.));
#17=VALUE_REPRESENTATION_ITEM('number of views',COUNT_MEASURE(0.));
#18=SHAPE_REPRESENTATION_RELATIONSHIP('','',#385,#19);
#19=ADVANCED_BREP_SHAPE_REPRESENTATION('',(#383),#625);
#20=CIRCLE('',#390,1.7);
#21=CIRCLE('',#391,1.7);
#22=CIRCLE('',#393,1.7);
#23=CIRCLE('',#394,1.7);
#24=CIRCLE('',#396,21.);
#25=CIRCLE('',#397,21.);
#26=CIRCLE('',#399,12.);
#27=CIRCLE('',#400,12.);
#28=CIRCLE('',#402,1.7);
#29=CIRCLE('',#403,1.7);
#30=CIRCLE('',#405,1.7);
#31=CIRCLE('',#406,1.7);
#32=CIRCLE('',#408,1.7);
#33=CIRCLE('',#409,1.7);
#34=CIRCLE('',#410,1.7);
#35=CIRCLE('',#411,1.7);
#36=CIRCLE('',#413,1.7);
#37=CIRCLE('',#414,1.7);
#38=CIRCLE('',#415,1.7);
#39=CIRCLE('',#416,1.7);
#40=CYLINDRICAL_SURFACE('',#389,1.7);
#41=CYLINDRICAL_SURFACE('',#392,1.7);
#42=CYLINDRICAL_SURFACE('',#395,21.);
#43=CYLINDRICAL_SURFACE('',#398,12.);
#44=CYLINDRICAL_SURFACE('',#401,1.7);
#45=CYLINDRICAL_SURFACE('',#404,1.7);
#46=CYLINDRICAL_SURFACE('',#421,1.7);
#47=CYLINDRICAL_SURFACE('',#422,1.7);
#48=CYLINDRICAL_SURFACE('',#423,1.7);
#49=CYLINDRICAL_SURFACE('',#424,1.7);
#50=ORIENTED_EDGE('',*,*,#134,.F.);
#51=ORIENTED_EDGE('',*,*,#135,.T.);
#52=ORIENTED_EDGE('',*,*,#136,.T.);
#53=ORIENTED_EDGE('',*,*,#137,.F.);
#54=ORIENTED_EDGE('',*,*,#138,.F.);
#55=ORIENTED_EDGE('',*,*,#139,.F.);
#56=ORIENTED_EDGE('',*,*,#140,.T.);
#57=ORIENTED_EDGE('',*,*,#141,.T.);
#58=ORIENTED_EDGE('',*,*,#142,.F.);
#59=ORIENTED_EDGE('',*,*,#143,.T.);
#60=ORIENTED_EDGE('',*,*,#144,.T.);
#61=ORIENTED_EDGE('',*,*,#145,.F.);
#62=ORIENTED_EDGE('',*,*,#140,.F.);
#63=ORIENTED_EDGE('',*,*,#146,.F.);
#64=ORIENTED_EDGE('',*,*,#136,.F.);
#65=ORIENTED_EDGE('',*,*,#147,.T.);
#66=ORIENTED_EDGE('',*,*,#148,.F.);
#67=ORIENTED_EDGE('',*,*,#149,.T.);
#68=ORIENTED_EDGE('',*,*,#150,.T.);
#69=ORIENTED_EDGE('',*,*,#151,.F.);
#70=ORIENTED_EDGE('',*,*,#152,.T.);
#71=ORIENTED_EDGE('',*,*,#153,.F.);
#72=ORIENTED_EDGE('',*,*,#144,.F.);
#73=ORIENTED_EDGE('',*,*,#143,.F.);
#74=ORIENTED_EDGE('',*,*,#154,.T.);
#75=ORIENTED_EDGE('',*,*,#137,.T.);
#76=ORIENTED_EDGE('',*,*,#146,.T.);
#77=ORIENTED_EDGE('',*,*,#139,.T.);
#78=ORIENTED_EDGE('',*,*,#155,.T.);
#79=ORIENTED_EDGE('',*,*,#156,.T.);
#80=ORIENTED_EDGE('',*,*,#157,.T.);
#81=ORIENTED_EDGE('',*,*,#158,.T.);
#82=ORIENTED_EDGE('',*,*,#149,.F.);
#83=ORIENTED_EDGE('',*,*,#152,.F.);
#84=ORIENTED_EDGE('',*,*,#150,.F.);
#85=ORIENTED_EDGE('',*,*,#159,.F.);
#86=ORIENTED_EDGE('',*,*,#160,.F.);
#87=ORIENTED_EDGE('',*,*,#161,.F.);
#88=ORIENTED_EDGE('',*,*,#162,.F.);
#89=ORIENTED_EDGE('',*,*,#135,.F.);
#90=ORIENTED_EDGE('',*,*,#163,.F.);
#91=ORIENTED_EDGE('',*,*,#164,.F.);
#92=ORIENTED_EDGE('',*,*,#165,.F.);
#93=ORIENTED_EDGE('',*,*,#166,.F.);
#94=ORIENTED_EDGE('',*,*,#167,.F.);
#95=ORIENTED_EDGE('',*,*,#141,.F.);
#96=ORIENTED_EDGE('',*,*,#147,.F.);
#97=ORIENTED_EDGE('',*,*,#148,.T.);
#98=ORIENTED_EDGE('',*,*,#145,.T.);
#99=ORIENTED_EDGE('',*,*,#142,.T.);
#100=ORIENTED_EDGE('',*,*,#153,.T.);
#101=ORIENTED_EDGE('',*,*,#151,.T.);
#102=ORIENTED_EDGE('',*,*,#168,.T.);
#103=ORIENTED_EDGE('',*,*,#169,.T.);
#104=ORIENTED_EDGE('',*,*,#170,.T.);
#105=ORIENTED_EDGE('',*,*,#171,.T.);
#106=ORIENTED_EDGE('',*,*,#163,.T.);
#107=ORIENTED_EDGE('',*,*,#134,.T.);
#108=ORIENTED_EDGE('',*,*,#154,.F.);
#109=ORIENTED_EDGE('',*,*,#172,.T.);
#110=ORIENTED_EDGE('',*,*,#155,.F.);
#111=ORIENTED_EDGE('',*,*,#138,.T.);
#112=ORIENTED_EDGE('',*,*,#167,.T.);
#113=ORIENTED_EDGE('',*,*,#173,.F.);
#114=ORIENTED_EDGE('',*,*,#166,.T.);
#115=ORIENTED_EDGE('',*,*,#174,.F.);
#116=ORIENTED_EDGE('',*,*,#156,.F.);
#117=ORIENTED_EDGE('',*,*,#173,.T.);
#118=ORIENTED_EDGE('',*,*,#165,.T.);
#119=ORIENTED_EDGE('',*,*,#175,.F.);
#120=ORIENTED_EDGE('',*,*,#157,.F.);
#121=ORIENTED_EDGE('',*,*,#174,.T.);
#122=ORIENTED_EDGE('',*,*,#159,.T.);
#123=ORIENTED_EDGE('',*,*,#171,.F.);
#124=ORIENTED_EDGE('',*,*,#160,.T.);
#125=ORIENTED_EDGE('',*,*,#170,.F.);
#126=ORIENTED_EDGE('',*,*,#161,.T.);
#127=ORIENTED_EDGE('',*,*,#169,.F.);
#128=ORIENTED_EDGE('',*,*,#162,.T.);
#129=ORIENTED_EDGE('',*,*,#168,.F.);
#130=ORIENTED_EDGE('',*,*,#164,.T.);
#131=ORIENTED_EDGE('',*,*,#172,.F.);
#132=ORIENTED_EDGE('',*,*,#158,.F.);
#133=ORIENTED_EDGE('',*,*,#175,.T.);
#134=EDGE_CURVE('',#176,#177,#210,.T.);
#135=EDGE_CURVE('',#176,#178,#211,.T.);
#136=EDGE_CURVE('',#178,#179,#212,.F.);
#137=EDGE_CURVE('',#177,#179,#213,.T.);
#138=EDGE_CURVE('',#180,#181,#214,.T.);
#139=EDGE_CURVE('',#182,#180,#215,.T.);
#140=EDGE_CURVE('',#182,#183,#216,.T.);
#141=EDGE_CURVE('',#183,#181,#217,.T.);
#142=EDGE_CURVE('',#184,#184,#20,.T.);
#143=EDGE_CURVE('',#185,#185,#21,.T.);
#144=EDGE_CURVE('',#186,#186,#22,.T.);
#145=EDGE_CURVE('',#187,#187,#23,.T.);
#146=EDGE_CURVE('',#179,#182,#24,.T.);
#147=EDGE_CURVE('',#178,#183,#25,.T.);
#148=EDGE_CURVE('',#188,#188,#26,.T.);
#149=EDGE_CURVE('',#189,#189,#27,.T.);
#150=EDGE_CURVE('',#190,#190,#28,.T.);
#151=EDGE_CURVE('',#191,#191,#29,.T.);
#152=EDGE_CURVE('',#192,#192,#30,.T.);
#153=EDGE_CURVE('',#193,#193,#31,.T.);
#154=EDGE_CURVE('',#194,#177,#218,.T.);
#155=EDGE_CURVE('',#180,#195,#219,.T.);
#156=EDGE_CURVE('',#195,#196,#220,.T.);
#157=EDGE_CURVE('',#196,#197,#221,.T.);
#158=EDGE_CURVE('',#197,#194,#222,.T.);
#159=EDGE_CURVE('',#198,#198,#32,.T.);
#160=EDGE_CURVE('',#199,#199,#33,.T.);
#161=EDGE_CURVE('',#200,#200,#34,.T.);
#162=EDGE_CURVE('',#201,#201,#35,.T.);
#163=EDGE_CURVE('',#202,#176,#223,.T.);
#164=EDGE_CURVE('',#203,#202,#224,.T.);
#165=EDGE_CURVE('',#204,#203,#225,.T.);
#166=EDGE_CURVE('',#205,#204,#226,.T.);
#167=EDGE_CURVE('',#181,#205,#227,.T.);
#168=EDGE_CURVE('',#206,#206,#36,.T.);
#169=EDGE_CURVE('',#207,#207,#37,.T.);
#170=EDGE_CURVE('',#208,#208,#38,.T.);
#171=EDGE_CURVE('',#209,#209,#39,.T.);
#172=EDGE_CURVE('',#194,#202,#228,.T.);
#173=EDGE_CURVE('',#195,#205,#229,.T.);
#174=EDGE_CURVE('',#196,#204,#230,.T.);
#175=EDGE_CURVE('',#197,#203,#231,.T.);
#176=VERTEX_POINT('',#531);
#177=VERTEX_POINT('',#532);
#178=VERTEX_POINT('',#534);
#179=VERTEX_POINT('',#536);
#180=VERTEX_POINT('',#540);
#181=VERTEX_POINT('',#541);
#182=VERTEX_POINT('',#543);
#183=VERTEX_POINT('',#545);
#184=VERTEX_POINT('',#549);
#185=VERTEX_POINT('',#551);
#186=VERTEX_POINT('',#554);
#187=VERTEX_POINT('',#556);
#188=VERTEX_POINT('',#562);
#189=VERTEX_POINT('',#564);
#190=VERTEX_POINT('',#567);
#191=VERTEX_POINT('',#569);
#192=VERTEX_POINT('',#572);
#193=VERTEX_POINT('',#574);
#194=VERTEX_POINT('',#577);
#195=VERTEX_POINT('',#579);
#196=VERTEX_POINT('',#581);
#197=VERTEX_POINT('',#583);
#198=VERTEX_POINT('',#586);
#199=VERTEX_POINT('',#588);
#200=VERTEX_POINT('',#590);
#201=VERTEX_POINT('',#592);
#202=VERTEX_POINT('',#595);
#203=VERTEX_POINT('',#597);
#204=VERTEX_POINT('',#599);
#205=VERTEX_POINT('',#601);
#206=VERTEX_POINT('',#604);
#207=VERTEX_POINT('',#606);
#208=VERTEX_POINT('',#608);
#209=VERTEX_POINT('',#610);
#210=LINE('',#530,#232);
#211=LINE('',#533,#233);
#212=LINE('',#535,#234);
#213=LINE('',#537,#235);
#214=LINE('',#539,#236);
#215=LINE('',#542,#237);
#216=LINE('',#544,#238);
#217=LINE('',#546,#239);
#218=LINE('',#576,#240);
#219=LINE('',#578,#241);
#220=LINE('',#580,#242);
#221=LINE('',#582,#243);
#222=LINE('',#584,#244);
#223=LINE('',#594,#245);
#224=LINE('',#596,#246);
#225=LINE('',#598,#247);
#226=LINE('',#600,#248);
#227=LINE('',#602,#249);
#228=LINE('',#612,#250);
#229=LINE('',#614,#251);
#230=LINE('',#616,#252);
#231=LINE('',#618,#253);
#232=VECTOR('',#430,1000.);
#233=VECTOR('',#431,1000.);
#234=VECTOR('',#432,1000.);
#235=VECTOR('',#433,1000.);
#236=VECTOR('',#436,1000.);
#237=VECTOR('',#437,1000.);
#238=VECTOR('',#438,1000.);
#239=VECTOR('',#439,1000.);
#240=VECTOR('',#478,1000.);
#241=VECTOR('',#479,1000.);
#242=VECTOR('',#480,1000.);
#243=VECTOR('',#481,1000.);
#244=VECTOR('',#482,1000.);
#245=VECTOR('',#493,1000.);
#246=VECTOR('',#494,1000.);
#247=VECTOR('',#495,1000.);
#248=VECTOR('',#496,1000.);
#249=VECTOR('',#497,1000.);
#250=VECTOR('',#508,1000.);
#251=VECTOR('',#511,1000.);
#252=VECTOR('',#514,1000.);
#253=VECTOR('',#517,1000.);
#254=EDGE_LOOP('',(#50,#51,#52,#53));
#255=EDGE_LOOP('',(#54,#55,#56,#57));
#256=EDGE_LOOP('',(#58));
#257=EDGE_LOOP('',(#59));
#258=EDGE_LOOP('',(#60));
#259=EDGE_LOOP('',(#61));
#260=EDGE_LOOP('',(#62,#63,#64,#65));
#261=EDGE_LOOP('',(#66));
#262=EDGE_LOOP('',(#67));
#263=EDGE_LOOP('',(#68));
#264=EDGE_LOOP('',(#69));
#265=EDGE_LOOP('',(#70));
#266=EDGE_LOOP('',(#71));
#267=EDGE_LOOP('',(#72));
#268=EDGE_LOOP('',(#73));
#269=EDGE_LOOP('',(#74,#75,#76,#77,#78,#79,#80,#81));
#270=EDGE_LOOP('',(#82));
#271=EDGE_LOOP('',(#83));
#272=EDGE_LOOP('',(#84));
#273=EDGE_LOOP('',(#85));
#274=EDGE_LOOP('',(#86));
#275=EDGE_LOOP('',(#87));
#276=EDGE_LOOP('',(#88));
#277=EDGE_LOOP('',(#89,#90,#91,#92,#93,#94,#95,#96));
#278=EDGE_LOOP('',(#97));
#279=EDGE_LOOP('',(#98));
#280=EDGE_LOOP('',(#99));
#281=EDGE_LOOP('',(#100));
#282=EDGE_LOOP('',(#101));
#283=EDGE_LOOP('',(#102));
#284=EDGE_LOOP('',(#103));
#285=EDGE_LOOP('',(#104));
#286=EDGE_LOOP('',(#105));
#287=EDGE_LOOP('',(#106,#107,#108,#109));
#288=EDGE_LOOP('',(#110,#111,#112,#113));
#289=EDGE_LOOP('',(#114,#115,#116,#117));
#290=EDGE_LOOP('',(#118,#119,#120,#121));
#291=EDGE_LOOP('',(#122));
#292=EDGE_LOOP('',(#123));
#293=EDGE_LOOP('',(#124));
#294=EDGE_LOOP('',(#125));
#295=EDGE_LOOP('',(#126));
#296=EDGE_LOOP('',(#127));
#297=EDGE_LOOP('',(#128));
#298=EDGE_LOOP('',(#129));
#299=EDGE_LOOP('',(#130,#131,#132,#133));
#300=FACE_BOUND('',#254,.T.);
#301=FACE_BOUND('',#255,.T.);
#302=FACE_BOUND('',#256,.T.);
#303=FACE_BOUND('',#257,.T.);
#304=FACE_BOUND('',#258,.T.);
#305=FACE_BOUND('',#259,.T.);
#306=FACE_BOUND('',#260,.T.);
#307=FACE_BOUND('',#261,.T.);
#308=FACE_BOUND('',#262,.T.);
#309=FACE_BOUND('',#263,.T.);
#310=FACE_BOUND('',#264,.T.);
#311=FACE_BOUND('',#265,.T.);
#312=FACE_BOUND('',#266,.T.);
#313=FACE_BOUND('',#267,.T.);
#314=FACE_BOUND('',#268,.T.);
#315=FACE_BOUND('',#269,.T.);
#316=FACE_BOUND('',#270,.T.);
#317=FACE_BOUND('',#271,.T.);
#318=FACE_BOUND('',#272,.T.);
#319=FACE_BOUND('',#273,.T.);
#320=FACE_BOUND('',#274,.T.);
#321=FACE_BOUND('',#275,.T.);
#322=FACE_BOUND('',#276,.T.);
#323=FACE_BOUND('',#277,.T.);
#324=FACE_BOUND('',#278,.T.);
#325=FACE_BOUND('',#279,.T.);
#326=FACE_BOUND('',#280,.T.);
#327=FACE_BOUND('',#281,.T.);
#328=FACE_BOUND('',#282,.T.);
#329=FACE_BOUND('',#283,.T.);
#330=FACE_BOUND('',#284,.T.);
#331=FACE_BOUND('',#285,.T.);
#332=FACE_BOUND('',#286,.T.);
#333=FACE_BOUND('',#287,.T.);
#334=FACE_BOUND('',#288,.T.);
#335=FACE_BOUND('',#289,.T.);
#336=FACE_BOUND('',#290,.T.);
#337=FACE_BOUND('',#291,.T.);
#338=FACE_BOUND('',#292,.T.);
#339=FACE_BOUND('',#293,.T.);
#340=FACE_BOUND('',#294,.T.);
#341=FACE_BOUND('',#295,.T.);
#342=FACE_BOUND('',#296,.T.);
#343=FACE_BOUND('',#297,.T.);
#344=FACE_BOUND('',#298,.T.);
#345=FACE_BOUND('',#299,.T.);
#346=PLANE('',#387);
#347=PLANE('',#388);
#348=PLANE('',#407);
#349=PLANE('',#412);
#350=PLANE('',#417);
#351=PLANE('',#418);
#352=PLANE('',#419);
#353=PLANE('',#420);
#354=PLANE('',#425);
#355=ADVANCED_FACE('',(#300),#346,.F.);
#356=ADVANCED_FACE('',(#301),#347,.F.);
#357=ADVANCED_FACE('',(#302,#303),#40,.F.);
#358=ADVANCED_FACE('',(#304,#305),#41,.F.);
#359=ADVANCED_FACE('',(#306),#42,.T.);
#360=ADVANCED_FACE('',(#307,#308),#43,.F.);
#361=ADVANCED_FACE('',(#309,#310),#44,.F.);
#362=ADVANCED_FACE('',(#311,#312),#45,.F.);
#363=ADVANCED_FACE('',(#313,#314,#315,#316,#317,#318,#319,#320,#321,#322),
#348,.T.);
#364=ADVANCED_FACE('',(#323,#324,#325,#326,#327,#328,#329,#330,#331,#332),
#349,.F.);
#365=ADVANCED_FACE('',(#333),#350,.F.);
#366=ADVANCED_FACE('',(#334),#351,.F.);
#367=ADVANCED_FACE('',(#335),#352,.F.);
#368=ADVANCED_FACE('',(#336),#353,.F.);
#369=ADVANCED_FACE('',(#337,#338),#46,.F.);
#370=ADVANCED_FACE('',(#339,#340),#47,.F.);
#371=ADVANCED_FACE('',(#341,#342),#48,.F.);
#372=ADVANCED_FACE('',(#343,#344),#49,.F.);
#373=ADVANCED_FACE('',(#345),#354,.F.);
#374=CLOSED_SHELL('',(#355,#356,#357,#358,#359,#360,#361,#362,#363,#364,
#365,#366,#367,#368,#369,#370,#371,#372,#373));
#375=STYLED_ITEM('',(#376),#383);
#376=PRESENTATION_STYLE_ASSIGNMENT((#377));
#377=SURFACE_STYLE_USAGE(.BOTH.,#378);
#378=SURFACE_SIDE_STYLE('',(#379));
#379=SURFACE_STYLE_FILL_AREA(#380);
#380=FILL_AREA_STYLE('',(#381));
#381=FILL_AREA_STYLE_COLOUR('',#382);
#382=COLOUR_RGB('',0.100000001490116,0.349999994039536,0.280000001192093);
#383=MANIFOLD_SOLID_BREP('',#374);
#384=SHAPE_DEFINITION_REPRESENTATION(#630,#385);
#385=SHAPE_REPRESENTATION('A05b_forearm_link_85',(#386),#625);
#386=AXIS2_PLACEMENT_3D('',#528,#426,#427);
#387=AXIS2_PLACEMENT_3D('',#529,#428,#429);
#388=AXIS2_PLACEMENT_3D('',#538,#434,#435);
#389=AXIS2_PLACEMENT_3D('',#547,#440,#441);
#390=AXIS2_PLACEMENT_3D('',#548,#442,#443);
#391=AXIS2_PLACEMENT_3D('',#550,#444,#445);
#392=AXIS2_PLACEMENT_3D('',#552,#446,#447);
#393=AXIS2_PLACEMENT_3D('',#553,#448,#449);
#394=AXIS2_PLACEMENT_3D('',#555,#450,#451);
#395=AXIS2_PLACEMENT_3D('',#557,#452,#453);
#396=AXIS2_PLACEMENT_3D('',#558,#454,#455);
#397=AXIS2_PLACEMENT_3D('',#559,#456,#457);
#398=AXIS2_PLACEMENT_3D('',#560,#458,#459);
#399=AXIS2_PLACEMENT_3D('',#561,#460,#461);
#400=AXIS2_PLACEMENT_3D('',#563,#462,#463);
#401=AXIS2_PLACEMENT_3D('',#565,#464,#465);
#402=AXIS2_PLACEMENT_3D('',#566,#466,#467);
#403=AXIS2_PLACEMENT_3D('',#568,#468,#469);
#404=AXIS2_PLACEMENT_3D('',#570,#470,#471);
#405=AXIS2_PLACEMENT_3D('',#571,#472,#473);
#406=AXIS2_PLACEMENT_3D('',#573,#474,#475);
#407=AXIS2_PLACEMENT_3D('',#575,#476,#477);
#408=AXIS2_PLACEMENT_3D('',#585,#483,#484);
#409=AXIS2_PLACEMENT_3D('',#587,#485,#486);
#410=AXIS2_PLACEMENT_3D('',#589,#487,#488);
#411=AXIS2_PLACEMENT_3D('',#591,#489,#490);
#412=AXIS2_PLACEMENT_3D('',#593,#491,#492);
#413=AXIS2_PLACEMENT_3D('',#603,#498,#499);
#414=AXIS2_PLACEMENT_3D('',#605,#500,#501);
#415=AXIS2_PLACEMENT_3D('',#607,#502,#503);
#416=AXIS2_PLACEMENT_3D('',#609,#504,#505);
#417=AXIS2_PLACEMENT_3D('',#611,#506,#507);
#418=AXIS2_PLACEMENT_3D('',#613,#509,#510);
#419=AXIS2_PLACEMENT_3D('',#615,#512,#513);
#420=AXIS2_PLACEMENT_3D('',#617,#515,#516);
#421=AXIS2_PLACEMENT_3D('',#619,#518,#519);
#422=AXIS2_PLACEMENT_3D('',#620,#520,#521);
#423=AXIS2_PLACEMENT_3D('',#621,#522,#523);
#424=AXIS2_PLACEMENT_3D('',#622,#524,#525);
#425=AXIS2_PLACEMENT_3D('',#623,#526,#527);
#426=DIRECTION('',(0.,0.,1.));
#427=DIRECTION('',(1.,0.,0.));
#428=DIRECTION('',(0.,-1.,0.));
#429=DIRECTION('',(0.,0.,-1.));
#430=DIRECTION('',(0.,0.,1.));
#431=DIRECTION('',(-1.,0.,0.));
#432=DIRECTION('',(0.,0.,-1.));
#433=DIRECTION('',(-1.,0.,0.));
#434=DIRECTION('',(0.,1.,0.));
#435=DIRECTION('',(0.,0.,1.));
#436=DIRECTION('',(0.,0.,-1.));
#437=DIRECTION('',(1.,0.,0.));
#438=DIRECTION('',(0.,0.,-1.));
#439=DIRECTION('',(1.,0.,0.));
#440=DIRECTION('',(0.,0.,-1.));
#441=DIRECTION('',(-1.,0.,0.));
#442=DIRECTION('',(0.,0.,1.));
#443=DIRECTION('',(1.,0.,0.));
#444=DIRECTION('',(0.,0.,1.));
#445=DIRECTION('',(1.,0.,0.));
#446=DIRECTION('',(0.,0.,-1.));
#447=DIRECTION('',(-1.,0.,0.));
#448=DIRECTION('',(0.,0.,1.));
#449=DIRECTION('',(1.,0.,0.));
#450=DIRECTION('',(0.,0.,1.));
#451=DIRECTION('',(1.,0.,0.));
#452=DIRECTION('',(0.,0.,-1.));
#453=DIRECTION('',(-1.,0.,0.));
#454=DIRECTION('',(0.,0.,1.));
#455=DIRECTION('',(1.,0.,0.));
#456=DIRECTION('',(0.,0.,1.));
#457=DIRECTION('',(1.,0.,0.));
#458=DIRECTION('',(0.,0.,-1.));
#459=DIRECTION('',(-1.,0.,0.));
#460=DIRECTION('',(0.,0.,1.));
#461=DIRECTION('',(1.,0.,0.));
#462=DIRECTION('',(0.,0.,1.));
#463=DIRECTION('',(1.,0.,0.));
#464=DIRECTION('',(0.,0.,-1.));
#465=DIRECTION('',(-1.,0.,0.));
#466=DIRECTION('',(0.,0.,1.));
#467=DIRECTION('',(1.,0.,0.));
#468=DIRECTION('',(0.,0.,1.));
#469=DIRECTION('',(1.,0.,0.));
#470=DIRECTION('',(0.,0.,-1.));
#471=DIRECTION('',(-1.,0.,0.));
#472=DIRECTION('',(0.,0.,1.));
#473=DIRECTION('',(1.,0.,0.));
#474=DIRECTION('',(0.,0.,1.));
#475=DIRECTION('',(1.,0.,0.));
#476=DIRECTION('',(0.,0.,1.));
#477=DIRECTION('',(1.,0.,0.));
#478=DIRECTION('',(0.,-1.,0.));
#479=DIRECTION('',(0.,-1.,0.));
#480=DIRECTION('',(1.,0.,0.));
#481=DIRECTION('',(0.,1.,0.));
#482=DIRECTION('',(-1.,0.,0.));
#483=DIRECTION('',(0.,0.,1.));
#484=DIRECTION('',(1.,0.,0.));
#485=DIRECTION('',(0.,0.,1.));
#486=DIRECTION('',(1.,0.,0.));
#487=DIRECTION('',(0.,0.,1.));
#488=DIRECTION('',(1.,0.,0.));
#489=DIRECTION('',(0.,0.,1.));
#490=DIRECTION('',(1.,0.,0.));
#491=DIRECTION('',(0.,0.,1.));
#492=DIRECTION('',(1.,0.,0.));
#493=DIRECTION('',(0.,-1.,0.));
#494=DIRECTION('',(-1.,0.,0.));
#495=DIRECTION('',(0.,1.,0.));
#496=DIRECTION('',(1.,0.,0.));
#497=DIRECTION('',(0.,-1.,0.));
#498=DIRECTION('',(0.,0.,1.));
#499=DIRECTION('',(1.,0.,0.));
#500=DIRECTION('',(0.,0.,1.));
#501=DIRECTION('',(1.,0.,0.));
#502=DIRECTION('',(0.,0.,1.));
#503=DIRECTION('',(1.,0.,0.));
#504=DIRECTION('',(0.,0.,1.));
#505=DIRECTION('',(1.,0.,0.));
#506=DIRECTION('',(1.,0.,0.));
#507=DIRECTION('',(0.,0.,-1.));
#508=DIRECTION('',(0.,0.,-1.));
#509=DIRECTION('',(1.,0.,0.));
#510=DIRECTION('',(0.,0.,-1.));
#511=DIRECTION('',(0.,0.,-1.));
#512=DIRECTION('',(0.,1.,0.));
#513=DIRECTION('',(0.,0.,1.));
#514=DIRECTION('',(0.,0.,-1.));
#515=DIRECTION('',(-1.,0.,0.));
#516=DIRECTION('',(0.,0.,1.));
#517=DIRECTION('',(0.,0.,-1.));
#518=DIRECTION('',(0.,0.,-1.));
#519=DIRECTION('',(-1.,0.,0.));
#520=DIRECTION('',(0.,0.,-1.));
#521=DIRECTION('',(-1.,0.,0.));
#522=DIRECTION('',(0.,0.,-1.));
#523=DIRECTION('',(-1.,0.,0.));
#524=DIRECTION('',(0.,0.,-1.));
#525=DIRECTION('',(-1.,0.,0.));
#526=DIRECTION('',(0.,-1.,0.));
#527=DIRECTION('',(0.,0.,-1.));
#528=CARTESIAN_POINT('',(0.,0.,0.));
#529=CARTESIAN_POINT('',(73.,12.,12.));
#530=CARTESIAN_POINT('',(57.,12.,12.));
#531=CARTESIAN_POINT('',(57.,12.,8.));
#532=CARTESIAN_POINT('',(57.,12.,12.));
#533=CARTESIAN_POINT('',(73.,12.,8.));
#534=CARTESIAN_POINT('',(17.2336879396141,12.,8.));
#535=CARTESIAN_POINT('',(17.2336879396141,12.,12.));
#536=CARTESIAN_POINT('',(17.2336879396141,12.,12.));
#537=CARTESIAN_POINT('',(73.,12.,12.));
#538=CARTESIAN_POINT('',(12.,-12.,12.));
#539=CARTESIAN_POINT('',(57.,-12.,12.));
#540=CARTESIAN_POINT('',(57.,-12.,12.));
#541=CARTESIAN_POINT('',(57.,-12.,8.));
#542=CARTESIAN_POINT('',(12.,-12.,12.));
#543=CARTESIAN_POINT('',(17.2336879396141,-12.,12.));
#544=CARTESIAN_POINT('',(17.2336879396141,-12.,12.));
#545=CARTESIAN_POINT('',(17.2336879396141,-12.,8.));
#546=CARTESIAN_POINT('',(12.,-12.,8.));
#547=CARTESIAN_POINT('',(11.3137084989848,11.3137084989848,12.));
#548=CARTESIAN_POINT('',(11.3137084989848,11.3137084989848,8.));
#549=CARTESIAN_POINT('',(13.0137084989848,11.3137084989848,8.));
#550=CARTESIAN_POINT('',(11.3137084989848,11.3137084989848,12.));
#551=CARTESIAN_POINT('',(13.0137084989848,11.3137084989848,12.));
#552=CARTESIAN_POINT('',(11.3137084989848,-11.3137084989848,12.));
#553=CARTESIAN_POINT('',(11.3137084989848,-11.3137084989848,12.));
#554=CARTESIAN_POINT('',(13.0137084989848,-11.3137084989848,12.));
#555=CARTESIAN_POINT('',(11.3137084989848,-11.3137084989848,8.));
#556=CARTESIAN_POINT('',(13.0137084989848,-11.3137084989848,8.));
#557=CARTESIAN_POINT('',(0.,0.,12.));
#558=CARTESIAN_POINT('',(0.,0.,12.));
#559=CARTESIAN_POINT('',(0.,0.,8.));
#560=CARTESIAN_POINT('',(0.,0.,12.));
#561=CARTESIAN_POINT('',(0.,0.,8.));
#562=CARTESIAN_POINT('',(12.,0.,8.));
#563=CARTESIAN_POINT('',(0.,0.,12.));
#564=CARTESIAN_POINT('',(12.,0.,12.));
#565=CARTESIAN_POINT('',(-11.3137084989848,11.3137084989848,12.));
#566=CARTESIAN_POINT('',(-11.3137084989848,11.3137084989848,12.));
#567=CARTESIAN_POINT('',(-9.61370849898476,11.3137084989848,12.));
#568=CARTESIAN_POINT('',(-11.3137084989848,11.3137084989848,8.));
#569=CARTESIAN_POINT('',(-9.61370849898476,11.3137084989848,8.));
#570=CARTESIAN_POINT('',(-11.3137084989848,-11.3137084989848,12.));
#571=CARTESIAN_POINT('',(-11.3137084989848,-11.3137084989848,12.));
#572=CARTESIAN_POINT('',(-9.61370849898476,-11.3137084989848,12.));
#573=CARTESIAN_POINT('',(-11.3137084989848,-11.3137084989848,8.));
#574=CARTESIAN_POINT('',(-9.61370849898476,-11.3137084989848,8.));
#575=CARTESIAN_POINT('',(0.,0.,12.));
#576=CARTESIAN_POINT('',(57.,24.,12.));
#577=CARTESIAN_POINT('',(57.,24.,12.));
#578=CARTESIAN_POINT('',(57.,24.,12.));
#579=CARTESIAN_POINT('',(57.,-49.,12.));
#580=CARTESIAN_POINT('',(57.,-49.,12.));
#581=CARTESIAN_POINT('',(113.,-49.,12.));
#582=CARTESIAN_POINT('',(113.,-49.,12.));
#583=CARTESIAN_POINT('',(113.,24.,12.));
#584=CARTESIAN_POINT('',(113.,24.,12.));
#585=CARTESIAN_POINT('',(62.,-43.,12.));
#586=CARTESIAN_POINT('',(63.7,-43.,12.));
#587=CARTESIAN_POINT('',(108.,-43.,12.));
#588=CARTESIAN_POINT('',(109.7,-43.,12.));
#589=CARTESIAN_POINT('',(62.,18.,12.));
#590=CARTESIAN_POINT('',(63.7,18.,12.));
#591=CARTESIAN_POINT('',(108.,18.,12.));
#592=CARTESIAN_POINT('',(109.7,18.,12.));
#593=CARTESIAN_POINT('',(0.,0.,8.));
#594=CARTESIAN_POINT('',(57.,24.,8.));
#595=CARTESIAN_POINT('',(57.,24.,8.));
#596=CARTESIAN_POINT('',(113.,24.,8.));
#597=CARTESIAN_POINT('',(113.,24.,8.));
#598=CARTESIAN_POINT('',(113.,-49.,8.));
#599=CARTESIAN_POINT('',(113.,-49.,8.));
#600=CARTESIAN_POINT('',(57.,-49.,8.));
#601=CARTESIAN_POINT('',(57.,-49.,8.));
#602=CARTESIAN_POINT('',(57.,24.,8.));
#603=CARTESIAN_POINT('',(108.,18.,8.));
#604=CARTESIAN_POINT('',(109.7,18.,8.));
#605=CARTESIAN_POINT('',(62.,18.,8.));
#606=CARTESIAN_POINT('',(63.7,18.,8.));
#607=CARTESIAN_POINT('',(108.,-43.,8.));
#608=CARTESIAN_POINT('',(109.7,-43.,8.));
#609=CARTESIAN_POINT('',(62.,-43.,8.));
#610=CARTESIAN_POINT('',(63.7,-43.,8.));
#611=CARTESIAN_POINT('',(57.,24.,12.));
#612=CARTESIAN_POINT('',(57.,24.,12.));
#613=CARTESIAN_POINT('',(57.,24.,12.));
#614=CARTESIAN_POINT('',(57.,-49.,12.));
#615=CARTESIAN_POINT('',(57.,-49.,12.));
#616=CARTESIAN_POINT('',(113.,-49.,12.));
#617=CARTESIAN_POINT('',(113.,-49.,12.));
#618=CARTESIAN_POINT('',(113.,24.,12.));
#619=CARTESIAN_POINT('',(62.,-43.,12.));
#620=CARTESIAN_POINT('',(108.,-43.,12.));
#621=CARTESIAN_POINT('',(62.,18.,12.));
#622=CARTESIAN_POINT('',(108.,18.,12.));
#623=CARTESIAN_POINT('',(113.,24.,12.));
#624=MECHANICAL_DESIGN_GEOMETRIC_PRESENTATION_REPRESENTATION('',(#375),
#625);
#625=(
GEOMETRIC_REPRESENTATION_CONTEXT(3)
GLOBAL_UNCERTAINTY_ASSIGNED_CONTEXT((#626))
GLOBAL_UNIT_ASSIGNED_CONTEXT((#629,#628,#627))
REPRESENTATION_CONTEXT('A05b_forearm_link_85','TOP_LEVEL_ASSEMBLY_PART')
);
#626=UNCERTAINTY_MEASURE_WITH_UNIT(LENGTH_MEASURE(0.005),#629,
'DISTANCE_ACCURACY_VALUE','Maximum Tolerance applied to model');
#627=(
NAMED_UNIT(*)
SI_UNIT($,.STERADIAN.)
SOLID_ANGLE_UNIT()
);
#628=(
NAMED_UNIT(*)
PLANE_ANGLE_UNIT()
SI_UNIT($,.RADIAN.)
);
#629=(
LENGTH_UNIT()
NAMED_UNIT(*)
SI_UNIT(.MILLI.,.METRE.)
);
#630=PRODUCT_DEFINITION_SHAPE('','',#631);
#631=PRODUCT_DEFINITION('','',#633,#632);
#632=PRODUCT_DEFINITION_CONTEXT('',#639,'design');
#633=PRODUCT_DEFINITION_FORMATION_WITH_SPECIFIED_SOURCE('','',#635,
 .NOT_KNOWN.);
#634=PRODUCT_RELATED_PRODUCT_CATEGORY('','',(#635));
#635=PRODUCT('A05b_forearm_link_85','A05b_forearm_link_85',
'A05b_forearm_link_85',(#637));
#636=PRODUCT_CATEGORY('','');
#637=PRODUCT_CONTEXT('',#639,'mechanical');
#638=APPLICATION_PROTOCOL_DEFINITION('international standard',
'automotive_design',2010,#639);
#639=APPLICATION_CONTEXT(
'core data for automotive mechanical design processes');
ENDSEC;
END-ISO-10303-21;
