ISO-10303-21;
HEADER;
/* Generated by software containing ST-Developer
 * from STEP Tools, Inc. (www.steptools.com) 
 */
/* OPTION: strings as raw bytes, not using required /X/ escapes */

FILE_DESCRIPTION(
/* description */ ('Unknown'),
/* implementation_level */ '2;1');

FILE_NAME(
/* name */ 'A06_wrist_right_angle_bracket',
/* time_stamp */ '2026-09-23T11:56:23+08:00',
/* author */ ('Unknown'),
/* organization */ ('Unknown'),
/* preprocessor_version */ 'ST-DEVELOPER v16.7',
/* originating_system */ 'Solid Edge',
/* authorisation */ 'Unknown');

FILE_SCHEMA (('AUTOMOTIVE_DESIGN {1 0 10303 214 3 1 1}'));
ENDSEC;

DATA;
#10=PROPERTY_DEFINITION_REPRESENTATION(#14,#12);
#11=PROPERTY_DEFINITION_REPRESENTATION(#15,#13);
#12=REPRESENTATION('',(#16),#583);
#13=REPRESENTATION('',(#17),#583);
#14=PROPERTY_DEFINITION('pmi validation property','',#588);
#15=PROPERTY_DEFINITION('pmi validation property','',#588);
#16=VALUE_REPRESENTATION_ITEM('number of annotations',COUNT_MEASURE(0.));
#17=VALUE_REPRESENTATION_ITEM('number of views',COUNT_MEASURE(0.));
#18=SHAPE_REPRESENTATION_RELATIONSHIP('','',#359,#19);
#19=ADVANCED_BREP_SHAPE_REPRESENTATION('',(#357),#583);
#20=CYLINDRICAL_SURFACE('',#368,1.7);
#21=CYLINDRICAL_SURFACE('',#371,1.7);
#22=CYLINDRICAL_SURFACE('',#375,1.7);
#23=CYLINDRICAL_SURFACE('',#378,1.7);
#24=CYLINDRICAL_SURFACE('',#393,1.7);
#25=CYLINDRICAL_SURFACE('',#394,1.7);
#26=CYLINDRICAL_SURFACE('',#395,1.7);
#27=CYLINDRICAL_SURFACE('',#396,1.7);
#28=CIRCLE('',#364,1.7);
#29=CIRCLE('',#365,1.7);
#30=CIRCLE('',#366,1.7);
#31=CIRCLE('',#367,1.7);
#32=CIRCLE('',#369,1.7);
#33=CIRCLE('',#370,1.7);
#34=CIRCLE('',#372,1.7);
#35=CIRCLE('',#373,1.7);
#36=CIRCLE('',#374,1.7);
#37=CIRCLE('',#376,1.7);
#38=CIRCLE('',#377,1.7);
#39=CIRCLE('',#379,1.7);
#40=CIRCLE('',#380,1.7);
#41=CIRCLE('',#381,1.7);
#42=CIRCLE('',#387,1.7);
#43=CIRCLE('',#388,1.7);
#44=CIRCLE('',#389,1.7);
#45=CIRCLE('',#390,1.7);
#46=ORIENTED_EDGE('',*,*,#126,.T.);
#47=ORIENTED_EDGE('',*,*,#127,.F.);
#48=ORIENTED_EDGE('',*,*,#128,.F.);
#49=ORIENTED_EDGE('',*,*,#129,.T.);
#50=ORIENTED_EDGE('',*,*,#130,.T.);
#51=ORIENTED_EDGE('',*,*,#131,.F.);
#52=ORIENTED_EDGE('',*,*,#132,.F.);
#53=ORIENTED_EDGE('',*,*,#133,.T.);
#54=ORIENTED_EDGE('',*,*,#134,.F.);
#55=ORIENTED_EDGE('',*,*,#127,.T.);
#56=ORIENTED_EDGE('',*,*,#135,.F.);
#57=ORIENTED_EDGE('',*,*,#136,.F.);
#58=ORIENTED_EDGE('',*,*,#137,.F.);
#59=ORIENTED_EDGE('',*,*,#138,.F.);
#60=ORIENTED_EDGE('',*,*,#139,.T.);
#61=ORIENTED_EDGE('',*,*,#140,.F.);
#62=ORIENTED_EDGE('',*,*,#141,.F.);
#63=ORIENTED_EDGE('',*,*,#131,.T.);
#64=ORIENTED_EDGE('',*,*,#142,.T.);
#65=ORIENTED_EDGE('',*,*,#143,.F.);
#66=ORIENTED_EDGE('',*,*,#144,.T.);
#67=ORIENTED_EDGE('',*,*,#145,.T.);
#68=ORIENTED_EDGE('',*,*,#146,.F.);
#69=ORIENTED_EDGE('',*,*,#147,.T.);
#70=ORIENTED_EDGE('',*,*,#148,.F.);
#71=ORIENTED_EDGE('',*,*,#149,.T.);
#72=ORIENTED_EDGE('',*,*,#150,.T.);
#73=ORIENTED_EDGE('',*,*,#151,.F.);
#74=ORIENTED_EDGE('',*,*,#152,.T.);
#75=ORIENTED_EDGE('',*,*,#129,.F.);
#76=ORIENTED_EDGE('',*,*,#153,.F.);
#77=ORIENTED_EDGE('',*,*,#154,.F.);
#78=ORIENTED_EDGE('',*,*,#155,.F.);
#79=ORIENTED_EDGE('',*,*,#140,.T.);
#80=ORIENTED_EDGE('',*,*,#156,.F.);
#81=ORIENTED_EDGE('',*,*,#153,.T.);
#82=ORIENTED_EDGE('',*,*,#128,.T.);
#83=ORIENTED_EDGE('',*,*,#134,.T.);
#84=ORIENTED_EDGE('',*,*,#157,.F.);
#85=ORIENTED_EDGE('',*,*,#144,.F.);
#86=ORIENTED_EDGE('',*,*,#158,.F.);
#87=ORIENTED_EDGE('',*,*,#149,.F.);
#88=ORIENTED_EDGE('',*,*,#147,.F.);
#89=ORIENTED_EDGE('',*,*,#142,.F.);
#90=ORIENTED_EDGE('',*,*,#151,.T.);
#91=ORIENTED_EDGE('',*,*,#148,.T.);
#92=ORIENTED_EDGE('',*,*,#146,.T.);
#93=ORIENTED_EDGE('',*,*,#143,.T.);
#94=ORIENTED_EDGE('',*,*,#126,.F.);
#95=ORIENTED_EDGE('',*,*,#152,.F.);
#96=ORIENTED_EDGE('',*,*,#139,.F.);
#97=ORIENTED_EDGE('',*,*,#130,.F.);
#98=ORIENTED_EDGE('',*,*,#150,.F.);
#99=ORIENTED_EDGE('',*,*,#159,.F.);
#100=ORIENTED_EDGE('',*,*,#160,.T.);
#101=ORIENTED_EDGE('',*,*,#161,.T.);
#102=ORIENTED_EDGE('',*,*,#162,.T.);
#103=ORIENTED_EDGE('',*,*,#163,.T.);
#104=ORIENTED_EDGE('',*,*,#156,.T.);
#105=ORIENTED_EDGE('',*,*,#159,.T.);
#106=ORIENTED_EDGE('',*,*,#158,.T.);
#107=ORIENTED_EDGE('',*,*,#164,.T.);
#108=ORIENTED_EDGE('',*,*,#157,.T.);
#109=ORIENTED_EDGE('',*,*,#133,.F.);
#110=ORIENTED_EDGE('',*,*,#165,.F.);
#111=ORIENTED_EDGE('',*,*,#154,.T.);
#112=ORIENTED_EDGE('',*,*,#165,.T.);
#113=ORIENTED_EDGE('',*,*,#132,.T.);
#114=ORIENTED_EDGE('',*,*,#141,.T.);
#115=ORIENTED_EDGE('',*,*,#155,.T.);
#116=ORIENTED_EDGE('',*,*,#145,.F.);
#117=ORIENTED_EDGE('',*,*,#164,.F.);
#118=ORIENTED_EDGE('',*,*,#138,.T.);
#119=ORIENTED_EDGE('',*,*,#163,.F.);
#120=ORIENTED_EDGE('',*,*,#137,.T.);
#121=ORIENTED_EDGE('',*,*,#162,.F.);
#122=ORIENTED_EDGE('',*,*,#136,.T.);
#123=ORIENTED_EDGE('',*,*,#161,.F.);
#124=ORIENTED_EDGE('',*,*,#135,.T.);
#125=ORIENTED_EDGE('',*,*,#160,.F.);
#126=EDGE_CURVE('',#166,#167,#196,.T.);
#127=EDGE_CURVE('',#168,#167,#197,.T.);
#128=EDGE_CURVE('',#169,#168,#198,.T.);
#129=EDGE_CURVE('',#169,#166,#199,.T.);
#130=EDGE_CURVE('',#167,#170,#200,.T.);
#131=EDGE_CURVE('',#171,#170,#201,.T.);
#132=EDGE_CURVE('',#172,#171,#202,.T.);
#133=EDGE_CURVE('',#172,#173,#203,.T.);
#134=EDGE_CURVE('',#168,#173,#204,.T.);
#135=EDGE_CURVE('',#174,#174,#28,.T.);
#136=EDGE_CURVE('',#175,#175,#29,.T.);
#137=EDGE_CURVE('',#176,#176,#30,.T.);
#138=EDGE_CURVE('',#177,#177,#31,.T.);
#139=EDGE_CURVE('',#170,#178,#205,.T.);
#140=EDGE_CURVE('',#179,#178,#206,.T.);
#141=EDGE_CURVE('',#171,#179,#207,.T.);
#142=EDGE_CURVE('',#180,#180,#32,.T.);
#143=EDGE_CURVE('',#181,#181,#33,.T.);
#144=EDGE_CURVE('',#182,#183,#34,.T.);
#145=EDGE_CURVE('',#183,#182,#35,.T.);
#146=EDGE_CURVE('',#184,#184,#36,.T.);
#147=EDGE_CURVE('',#185,#185,#37,.T.);
#148=EDGE_CURVE('',#186,#186,#38,.T.);
#149=EDGE_CURVE('',#187,#188,#39,.T.);
#150=EDGE_CURVE('',#188,#187,#40,.T.);
#151=EDGE_CURVE('',#189,#189,#41,.T.);
#152=EDGE_CURVE('',#178,#166,#208,.T.);
#153=EDGE_CURVE('',#190,#169,#209,.T.);
#154=EDGE_CURVE('',#191,#190,#210,.T.);
#155=EDGE_CURVE('',#179,#191,#211,.T.);
#156=EDGE_CURVE('',#190,#187,#212,.T.);
#157=EDGE_CURVE('',#183,#173,#213,.T.);
#158=EDGE_CURVE('',#188,#182,#214,.T.);
#159=EDGE_CURVE('',#187,#188,#215,.T.);
#160=EDGE_CURVE('',#192,#192,#42,.T.);
#161=EDGE_CURVE('',#193,#193,#43,.T.);
#162=EDGE_CURVE('',#194,#194,#44,.T.);
#163=EDGE_CURVE('',#195,#195,#45,.T.);
#164=EDGE_CURVE('',#182,#183,#216,.T.);
#165=EDGE_CURVE('',#191,#172,#217,.T.);
#166=VERTEX_POINT('',#496);
#167=VERTEX_POINT('',#497);
#168=VERTEX_POINT('',#499);
#169=VERTEX_POINT('',#501);
#170=VERTEX_POINT('',#505);
#171=VERTEX_POINT('',#507);
#172=VERTEX_POINT('',#509);
#173=VERTEX_POINT('',#511);
#174=VERTEX_POINT('',#515);
#175=VERTEX_POINT('',#517);
#176=VERTEX_POINT('',#519);
#177=VERTEX_POINT('',#521);
#178=VERTEX_POINT('',#523);
#179=VERTEX_POINT('',#525);
#180=VERTEX_POINT('',#529);
#181=VERTEX_POINT('',#531);
#182=VERTEX_POINT('',#534);
#183=VERTEX_POINT('',#535);
#184=VERTEX_POINT('',#538);
#185=VERTEX_POINT('',#541);
#186=VERTEX_POINT('',#543);
#187=VERTEX_POINT('',#546);
#188=VERTEX_POINT('',#547);
#189=VERTEX_POINT('',#550);
#190=VERTEX_POINT('',#554);
#191=VERTEX_POINT('',#556);
#192=VERTEX_POINT('',#567);
#193=VERTEX_POINT('',#569);
#194=VERTEX_POINT('',#571);
#195=VERTEX_POINT('',#573);
#196=LINE('',#495,#218);
#197=LINE('',#498,#219);
#198=LINE('',#500,#220);
#199=LINE('',#502,#221);
#200=LINE('',#504,#222);
#201=LINE('',#506,#223);
#202=LINE('',#508,#224);
#203=LINE('',#510,#225);
#204=LINE('',#512,#226);
#205=LINE('',#522,#227);
#206=LINE('',#524,#228);
#207=LINE('',#526,#229);
#208=LINE('',#552,#230);
#209=LINE('',#553,#231);
#210=LINE('',#555,#232);
#211=LINE('',#557,#233);
#212=LINE('',#559,#234);
#213=LINE('',#560,#235);
#214=LINE('',#561,#236);
#215=LINE('',#564,#237);
#216=LINE('',#574,#238);
#217=LINE('',#575,#239);
#218=VECTOR('',#401,1000.);
#219=VECTOR('',#402,1000.);
#220=VECTOR('',#403,1000.);
#221=VECTOR('',#404,1000.);
#222=VECTOR('',#407,1000.);
#223=VECTOR('',#408,1000.);
#224=VECTOR('',#409,1000.);
#225=VECTOR('',#410,1000.);
#226=VECTOR('',#411,1000.);
#227=VECTOR('',#422,1000.);
#228=VECTOR('',#423,1000.);
#229=VECTOR('',#424,1000.);
#230=VECTOR('',#455,1000.);
#231=VECTOR('',#456,1000.);
#232=VECTOR('',#457,1000.);
#233=VECTOR('',#458,1000.);
#234=VECTOR('',#461,1000.);
#235=VECTOR('',#462,1000.);
#236=VECTOR('',#463,1000.);
#237=VECTOR('',#468,1000.);
#238=VECTOR('',#479,1000.);
#239=VECTOR('',#480,1000.);
#240=EDGE_LOOP('',(#46,#47,#48,#49));
#241=EDGE_LOOP('',(#50,#51,#52,#53,#54,#55));
#242=EDGE_LOOP('',(#56));
#243=EDGE_LOOP('',(#57));
#244=EDGE_LOOP('',(#58));
#245=EDGE_LOOP('',(#59));
#246=EDGE_LOOP('',(#60,#61,#62,#63));
#247=EDGE_LOOP('',(#64));
#248=EDGE_LOOP('',(#65));
#249=EDGE_LOOP('',(#66,#67));
#250=EDGE_LOOP('',(#68));
#251=EDGE_LOOP('',(#69));
#252=EDGE_LOOP('',(#70));
#253=EDGE_LOOP('',(#71,#72));
#254=EDGE_LOOP('',(#73));
#255=EDGE_LOOP('',(#74,#75,#76,#77,#78,#79));
#256=EDGE_LOOP('',(#80,#81,#82,#83,#84,#85,#86,#87));
#257=EDGE_LOOP('',(#88));
#258=EDGE_LOOP('',(#89));
#259=EDGE_LOOP('',(#90));
#260=EDGE_LOOP('',(#91));
#261=EDGE_LOOP('',(#92));
#262=EDGE_LOOP('',(#93));
#263=EDGE_LOOP('',(#94,#95,#96,#97));
#264=EDGE_LOOP('',(#98,#99));
#265=EDGE_LOOP('',(#100));
#266=EDGE_LOOP('',(#101));
#267=EDGE_LOOP('',(#102));
#268=EDGE_LOOP('',(#103));
#269=EDGE_LOOP('',(#104,#105,#106,#107,#108,#109,#110,#111));
#270=EDGE_LOOP('',(#112,#113,#114,#115));
#271=EDGE_LOOP('',(#116,#117));
#272=EDGE_LOOP('',(#118));
#273=EDGE_LOOP('',(#119));
#274=EDGE_LOOP('',(#120));
#275=EDGE_LOOP('',(#121));
#276=EDGE_LOOP('',(#122));
#277=EDGE_LOOP('',(#123));
#278=EDGE_LOOP('',(#124));
#279=EDGE_LOOP('',(#125));
#280=FACE_BOUND('',#240,.T.);
#281=FACE_BOUND('',#241,.T.);
#282=FACE_BOUND('',#242,.T.);
#283=FACE_BOUND('',#243,.T.);
#284=FACE_BOUND('',#244,.T.);
#285=FACE_BOUND('',#245,.T.);
#286=FACE_BOUND('',#246,.T.);
#287=FACE_BOUND('',#247,.T.);
#288=FACE_BOUND('',#248,.T.);
#289=FACE_BOUND('',#249,.T.);
#290=FACE_BOUND('',#250,.T.);
#291=FACE_BOUND('',#251,.T.);
#292=FACE_BOUND('',#252,.T.);
#293=FACE_BOUND('',#253,.T.);
#294=FACE_BOUND('',#254,.T.);
#295=FACE_BOUND('',#255,.T.);
#296=FACE_BOUND('',#256,.T.);
#297=FACE_BOUND('',#257,.T.);
#298=FACE_BOUND('',#258,.T.);
#299=FACE_BOUND('',#259,.T.);
#300=FACE_BOUND('',#260,.T.);
#301=FACE_BOUND('',#261,.T.);
#302=FACE_BOUND('',#262,.T.);
#303=FACE_BOUND('',#263,.T.);
#304=FACE_BOUND('',#264,.T.);
#305=FACE_BOUND('',#265,.T.);
#306=FACE_BOUND('',#266,.T.);
#307=FACE_BOUND('',#267,.T.);
#308=FACE_BOUND('',#268,.T.);
#309=FACE_BOUND('',#269,.T.);
#310=FACE_BOUND('',#270,.T.);
#311=FACE_BOUND('',#271,.T.);
#312=FACE_BOUND('',#272,.T.);
#313=FACE_BOUND('',#273,.T.);
#314=FACE_BOUND('',#274,.T.);
#315=FACE_BOUND('',#275,.T.);
#316=FACE_BOUND('',#276,.T.);
#317=FACE_BOUND('',#277,.T.);
#318=FACE_BOUND('',#278,.T.);
#319=FACE_BOUND('',#279,.T.);
#320=PLANE('',#361);
#321=PLANE('',#362);
#322=PLANE('',#363);
#323=PLANE('',#382);
#324=PLANE('',#383);
#325=PLANE('',#384);
#326=PLANE('',#385);
#327=PLANE('',#386);
#328=PLANE('',#391);
#329=PLANE('',#392);
#330=ADVANCED_FACE('',(#280),#320,.F.);
#331=ADVANCED_FACE('',(#281),#321,.F.);
#332=ADVANCED_FACE('',(#282,#283,#284,#285,#286),#322,.F.);
#333=ADVANCED_FACE('',(#287,#288),#20,.F.);
#334=ADVANCED_FACE('',(#289,#290),#21,.F.);
#335=ADVANCED_FACE('',(#291,#292),#22,.F.);
#336=ADVANCED_FACE('',(#293,#294),#23,.F.);
#337=ADVANCED_FACE('',(#295),#323,.F.);
#338=ADVANCED_FACE('',(#296,#297,#298),#324,.T.);
#339=ADVANCED_FACE('',(#299,#300,#301,#302,#303),#325,.F.);
#340=ADVANCED_FACE('',(#304),#326,.F.);
#341=ADVANCED_FACE('',(#305,#306,#307,#308,#309),#327,.F.);
#342=ADVANCED_FACE('',(#310),#328,.T.);
#343=ADVANCED_FACE('',(#311),#329,.F.);
#344=ADVANCED_FACE('',(#312,#313),#24,.F.);
#345=ADVANCED_FACE('',(#314,#315),#25,.F.);
#346=ADVANCED_FACE('',(#316,#317),#26,.F.);
#347=ADVANCED_FACE('',(#318,#319),#27,.F.);
#348=CLOSED_SHELL('',(#330,#331,#332,#333,#334,#335,#336,#337,#338,#339,
#340,#341,#342,#343,#344,#345,#346,#347));
#349=STYLED_ITEM('',(#350),#357);
#350=PRESENTATION_STYLE_ASSIGNMENT((#351));
#351=SURFACE_STYLE_USAGE(.BOTH.,#352);
#352=SURFACE_SIDE_STYLE('',(#353));
#353=SURFACE_STYLE_FILL_AREA(#354);
#354=FILL_AREA_STYLE('',(#355));
#355=FILL_AREA_STYLE_COLOUR('',#356);
#356=COLOUR_RGB('',0.680000007152557,0.819999992847443,0.600000023841858);
#357=MANIFOLD_SOLID_BREP('',#348);
#358=SHAPE_DEFINITION_REPRESENTATION(#588,#359);
#359=SHAPE_REPRESENTATION('A06_wrist_right_angle_bracket',(#360),#583);
#360=AXIS2_PLACEMENT_3D('',#493,#397,#398);
#361=AXIS2_PLACEMENT_3D('',#494,#399,#400);
#362=AXIS2_PLACEMENT_3D('',#503,#405,#406);
#363=AXIS2_PLACEMENT_3D('',#513,#412,#413);
#364=AXIS2_PLACEMENT_3D('',#514,#414,#415);
#365=AXIS2_PLACEMENT_3D('',#516,#416,#417);
#366=AXIS2_PLACEMENT_3D('',#518,#418,#419);
#367=AXIS2_PLACEMENT_3D('',#520,#420,#421);
#368=AXIS2_PLACEMENT_3D('',#527,#425,#426);
#369=AXIS2_PLACEMENT_3D('',#528,#427,#428);
#370=AXIS2_PLACEMENT_3D('',#530,#429,#430);
#371=AXIS2_PLACEMENT_3D('',#532,#431,#432);
#372=AXIS2_PLACEMENT_3D('',#533,#433,#434);
#373=AXIS2_PLACEMENT_3D('',#536,#435,#436);
#374=AXIS2_PLACEMENT_3D('',#537,#437,#438);
#375=AXIS2_PLACEMENT_3D('',#539,#439,#440);
#376=AXIS2_PLACEMENT_3D('',#540,#441,#442);
#377=AXIS2_PLACEMENT_3D('',#542,#443,#444);
#378=AXIS2_PLACEMENT_3D('',#544,#445,#446);
#379=AXIS2_PLACEMENT_3D('',#545,#447,#448);
#380=AXIS2_PLACEMENT_3D('',#548,#449,#450);
#381=AXIS2_PLACEMENT_3D('',#549,#451,#452);
#382=AXIS2_PLACEMENT_3D('',#551,#453,#454);
#383=AXIS2_PLACEMENT_3D('',#558,#459,#460);
#384=AXIS2_PLACEMENT_3D('',#562,#464,#465);
#385=AXIS2_PLACEMENT_3D('',#563,#466,#467);
#386=AXIS2_PLACEMENT_3D('',#565,#469,#470);
#387=AXIS2_PLACEMENT_3D('',#566,#471,#472);
#388=AXIS2_PLACEMENT_3D('',#568,#473,#474);
#389=AXIS2_PLACEMENT_3D('',#570,#475,#476);
#390=AXIS2_PLACEMENT_3D('',#572,#477,#478);
#391=AXIS2_PLACEMENT_3D('',#576,#481,#482);
#392=AXIS2_PLACEMENT_3D('',#577,#483,#484);
#393=AXIS2_PLACEMENT_3D('',#578,#485,#486);
#394=AXIS2_PLACEMENT_3D('',#579,#487,#488);
#395=AXIS2_PLACEMENT_3D('',#580,#489,#490);
#396=AXIS2_PLACEMENT_3D('',#581,#491,#492);
#397=DIRECTION('',(0.,0.,1.));
#398=DIRECTION('',(1.,0.,0.));
#399=DIRECTION('',(1.,0.,0.));
#400=DIRECTION('',(0.,0.,-1.));
#401=DIRECTION('',(0.,-1.,0.));
#402=DIRECTION('',(0.,0.,-1.));
#403=DIRECTION('',(0.,-1.,0.));
#404=DIRECTION('',(0.,0.,-1.));
#405=DIRECTION('',(0.,1.,0.));
#406=DIRECTION('',(0.,0.,1.));
#407=DIRECTION('',(1.,0.,0.));
#408=DIRECTION('',(0.,0.,-1.));
#409=DIRECTION('',(1.,0.,0.));
#410=DIRECTION('',(0.,0.,-1.));
#411=DIRECTION('',(1.,0.,0.));
#412=DIRECTION('',(-1.,0.,0.));
#413=DIRECTION('',(0.,0.,1.));
#414=DIRECTION('',(1.,-6.12303176911189E-17,0.));
#415=DIRECTION('',(6.12303176911189E-17,1.,0.));
#416=DIRECTION('',(1.,-6.12303176911189E-17,0.));
#417=DIRECTION('',(6.12303176911189E-17,1.,0.));
#418=DIRECTION('',(1.,-6.12303176911189E-17,0.));
#419=DIRECTION('',(6.12303176911189E-17,1.,0.));
#420=DIRECTION('',(1.,-6.12303176911189E-17,0.));
#421=DIRECTION('',(6.12303176911189E-17,1.,0.));
#422=DIRECTION('',(0.,1.,0.));
#423=DIRECTION('',(0.,0.,-1.));
#424=DIRECTION('',(0.,1.,0.));
#425=DIRECTION('',(0.,0.,-1.));
#426=DIRECTION('',(-1.,0.,0.));
#427=DIRECTION('',(0.,0.,1.));
#428=DIRECTION('',(1.,0.,0.));
#429=DIRECTION('',(0.,0.,1.));
#430=DIRECTION('',(1.,0.,0.));
#431=DIRECTION('',(0.,0.,-1.));
#432=DIRECTION('',(-1.,0.,0.));
#433=DIRECTION('',(0.,0.,1.));
#434=DIRECTION('',(1.,0.,0.));
#435=DIRECTION('',(0.,0.,1.));
#436=DIRECTION('',(1.,0.,0.));
#437=DIRECTION('',(0.,0.,1.));
#438=DIRECTION('',(1.,0.,0.));
#439=DIRECTION('',(0.,0.,-1.));
#440=DIRECTION('',(-1.,0.,0.));
#441=DIRECTION('',(0.,0.,1.));
#442=DIRECTION('',(1.,0.,0.));
#443=DIRECTION('',(0.,0.,1.));
#444=DIRECTION('',(1.,0.,0.));
#445=DIRECTION('',(0.,0.,-1.));
#446=DIRECTION('',(-1.,0.,0.));
#447=DIRECTION('',(0.,0.,1.));
#448=DIRECTION('',(1.,0.,0.));
#449=DIRECTION('',(0.,0.,1.));
#450=DIRECTION('',(1.,0.,0.));
#451=DIRECTION('',(0.,0.,1.));
#452=DIRECTION('',(1.,0.,0.));
#453=DIRECTION('',(0.,-1.,0.));
#454=DIRECTION('',(0.,0.,-1.));
#455=DIRECTION('',(-1.,0.,0.));
#456=DIRECTION('',(-1.,0.,0.));
#457=DIRECTION('',(0.,0.,-1.));
#458=DIRECTION('',(-1.,0.,0.));
#459=DIRECTION('',(0.,0.,1.));
#460=DIRECTION('',(1.,0.,0.));
#461=DIRECTION('',(0.,-1.,0.));
#462=DIRECTION('',(0.,-1.,0.));
#463=DIRECTION('',(0.,-1.,0.));
#464=DIRECTION('',(0.,0.,1.));
#465=DIRECTION('',(1.,0.,0.));
#466=DIRECTION('',(0.,0.,1.));
#467=DIRECTION('',(1.,0.,0.));
#468=DIRECTION('',(0.,-1.,0.));
#469=DIRECTION('',(1.,0.,0.));
#470=DIRECTION('',(0.,0.,-1.));
#471=DIRECTION('',(1.,-6.12303176911189E-17,0.));
#472=DIRECTION('',(6.12303176911189E-17,1.,0.));
#473=DIRECTION('',(1.,-6.12303176911189E-17,0.));
#474=DIRECTION('',(6.12303176911189E-17,1.,0.));
#475=DIRECTION('',(1.,-6.12303176911189E-17,0.));
#476=DIRECTION('',(6.12303176911189E-17,1.,0.));
#477=DIRECTION('',(1.,-6.12303176911189E-17,0.));
#478=DIRECTION('',(6.12303176911189E-17,1.,0.));
#479=DIRECTION('',(0.,-1.,0.));
#480=DIRECTION('',(0.,-1.,0.));
#481=DIRECTION('',(0.,0.,1.));
#482=DIRECTION('',(1.,0.,0.));
#483=DIRECTION('',(0.,0.,1.));
#484=DIRECTION('',(1.,0.,0.));
#485=DIRECTION('',(-1.,0.,0.));
#486=DIRECTION('',(0.,0.,1.));
#487=DIRECTION('',(-1.,0.,0.));
#488=DIRECTION('',(0.,0.,1.));
#489=DIRECTION('',(-1.,0.,0.));
#490=DIRECTION('',(0.,0.,1.));
#491=DIRECTION('',(-1.,0.,0.));
#492=DIRECTION('',(0.,0.,1.));
#493=CARTESIAN_POINT('',(0.,0.,0.));
#494=CARTESIAN_POINT('',(-28.,24.,6.));
#495=CARTESIAN_POINT('',(-28.,24.,0.));
#496=CARTESIAN_POINT('',(-28.,24.,0.));
#497=CARTESIAN_POINT('',(-28.,-49.,0.));
#498=CARTESIAN_POINT('',(-28.,-49.,6.));
#499=CARTESIAN_POINT('',(-28.,-49.,6.));
#500=CARTESIAN_POINT('',(-28.,24.,6.));
#501=CARTESIAN_POINT('',(-28.,24.,6.));
#502=CARTESIAN_POINT('',(-28.,24.,6.));
#503=CARTESIAN_POINT('',(-28.,-49.,6.));
#504=CARTESIAN_POINT('',(-28.,-49.,0.));
#505=CARTESIAN_POINT('',(28.,-49.,0.));
#506=CARTESIAN_POINT('',(28.,-49.,6.));
#507=CARTESIAN_POINT('',(28.,-49.,62.));
#508=CARTESIAN_POINT('',(22.,-49.,62.));
#509=CARTESIAN_POINT('',(22.,-49.,62.));
#510=CARTESIAN_POINT('',(22.,-49.,62.));
#511=CARTESIAN_POINT('',(22.,-49.,6.));
#512=CARTESIAN_POINT('',(-28.,-49.,6.));
#513=CARTESIAN_POINT('',(28.,-49.,6.));
#514=CARTESIAN_POINT('',(28.,18.,11.));
#515=CARTESIAN_POINT('',(28.,19.7,11.));
#516=CARTESIAN_POINT('',(28.,18.,57.));
#517=CARTESIAN_POINT('',(28.,19.7,57.));
#518=CARTESIAN_POINT('',(28.,-43.,11.));
#519=CARTESIAN_POINT('',(28.,-41.3,11.));
#520=CARTESIAN_POINT('',(28.,-43.,57.));
#521=CARTESIAN_POINT('',(28.,-41.3,57.));
#522=CARTESIAN_POINT('',(28.,-49.,0.));
#523=CARTESIAN_POINT('',(28.,24.,0.));
#524=CARTESIAN_POINT('',(28.,24.,6.));
#525=CARTESIAN_POINT('',(28.,24.,62.));
#526=CARTESIAN_POINT('',(28.,-49.,62.));
#527=CARTESIAN_POINT('',(-23.,-43.,6.));
#528=CARTESIAN_POINT('',(-23.,-43.,6.));
#529=CARTESIAN_POINT('',(-21.3,-43.,6.));
#530=CARTESIAN_POINT('',(-23.,-43.,0.));
#531=CARTESIAN_POINT('',(-21.3,-43.,0.));
#532=CARTESIAN_POINT('',(23.,-43.,6.));
#533=CARTESIAN_POINT('',(23.,-43.,6.));
#534=CARTESIAN_POINT('',(22.,-41.6252272915132,6.));
#535=CARTESIAN_POINT('',(22.,-44.3747727084867,6.));
#536=CARTESIAN_POINT('',(23.,-43.,6.));
#537=CARTESIAN_POINT('',(23.,-43.,0.));
#538=CARTESIAN_POINT('',(24.7,-43.,0.));
#539=CARTESIAN_POINT('',(-23.,18.,6.));
#540=CARTESIAN_POINT('',(-23.,18.,6.));
#541=CARTESIAN_POINT('',(-21.3,18.,6.));
#542=CARTESIAN_POINT('',(-23.,18.,0.));
#543=CARTESIAN_POINT('',(-21.3,18.,0.));
#544=CARTESIAN_POINT('',(23.,18.,6.));
#545=CARTESIAN_POINT('',(23.,18.,6.));
#546=CARTESIAN_POINT('',(22.,19.3747727084868,6.));
#547=CARTESIAN_POINT('',(22.,16.6252272915132,6.));
#548=CARTESIAN_POINT('',(23.,18.,6.));
#549=CARTESIAN_POINT('',(23.,18.,0.));
#550=CARTESIAN_POINT('',(24.7,18.,0.));
#551=CARTESIAN_POINT('',(28.,24.,6.));
#552=CARTESIAN_POINT('',(28.,24.,0.));
#553=CARTESIAN_POINT('',(28.,24.,6.));
#554=CARTESIAN_POINT('',(22.,24.,6.));
#555=CARTESIAN_POINT('',(22.,24.,62.));
#556=CARTESIAN_POINT('',(22.,24.,62.));
#557=CARTESIAN_POINT('',(28.,24.,62.));
#558=CARTESIAN_POINT('',(0.,0.,6.));
#559=CARTESIAN_POINT('',(22.,24.,6.));
#560=CARTESIAN_POINT('',(22.,24.,6.));
#561=CARTESIAN_POINT('',(22.,24.,6.));
#562=CARTESIAN_POINT('',(0.,0.,0.));
#563=CARTESIAN_POINT('',(0.,0.,6.));
#564=CARTESIAN_POINT('',(22.,24.,6.));
#565=CARTESIAN_POINT('',(22.,24.,62.));
#566=CARTESIAN_POINT('',(22.,18.,11.));
#567=CARTESIAN_POINT('',(22.,19.7,11.));
#568=CARTESIAN_POINT('',(22.,18.,57.));
#569=CARTESIAN_POINT('',(22.,19.7,57.));
#570=CARTESIAN_POINT('',(22.,-43.,11.));
#571=CARTESIAN_POINT('',(22.,-41.3,11.));
#572=CARTESIAN_POINT('',(22.,-43.,57.));
#573=CARTESIAN_POINT('',(22.,-41.3,57.));
#574=CARTESIAN_POINT('',(22.,24.,6.));
#575=CARTESIAN_POINT('',(22.,24.,62.));
#576=CARTESIAN_POINT('',(0.,0.,62.));
#577=CARTESIAN_POINT('',(0.,0.,6.));
#578=CARTESIAN_POINT('',(28.,-43.,57.));
#579=CARTESIAN_POINT('',(28.,-43.,11.));
#580=CARTESIAN_POINT('',(28.,18.,57.));
#581=CARTESIAN_POINT('',(28.,18.,11.));
#582=MECHANICAL_DESIGN_GEOMETRIC_PRESENTATION_REPRESENTATION('',(#349),
#583);
#583=(
GEOMETRIC_REPRESENTATION_CONTEXT(3)
GLOBAL_UNCERTAINTY_ASSIGNED_CONTEXT((#584))
GLOBAL_UNIT_ASSIGNED_CONTEXT((#587,#586,#585))
REPRESENTATION_CONTEXT('A06_wrist_right_angle_bracket',
'TOP_LEVEL_ASSEMBLY_PART')
);
#584=UNCERTAINTY_MEASURE_WITH_UNIT(LENGTH_MEASURE(0.005),#587,
'DISTANCE_ACCURACY_VALUE','Maximum Tolerance applied to model');
#585=(
NAMED_UNIT(*)
SI_UNIT($,.STERADIAN.)
SOLID_ANGLE_UNIT()
);
#586=(
NAMED_UNIT(*)
PLANE_ANGLE_UNIT()
SI_UNIT($,.RADIAN.)
);
#587=(
LENGTH_UNIT()
NAMED_UNIT(*)
SI_UNIT(.MILLI.,.METRE.)
);
#588=PRODUCT_DEFINITION_SHAPE('','',#589);
#589=PRODUCT_DEFINITION('','',#591,#590);
#590=PRODUCT_DEFINITION_CONTEXT('',#597,'design');
#591=PRODUCT_DEFINITION_FORMATION_WITH_SPECIFIED_SOURCE('','',#593,
 .NOT_KNOWN.);
#592=PRODUCT_RELATED_PRODUCT_CATEGORY('','',(#593));
#593=PRODUCT('A06_wrist_right_angle_bracket',
'A06_wrist_right_angle_bracket','A06_wrist_right_angle_bracket',(#595));
#594=PRODUCT_CATEGORY('','');
#595=PRODUCT_CONTEXT('',#597,'mechanical');
#596=APPLICATION_PROTOCOL_DEFINITION('international standard',
'automotive_design',2010,#597);
#597=APPLICATION_CONTEXT(
'core data for automotive mechanical design processes');
ENDSEC;
END-ISO-10303-21;
