ISO-10303-21;
HEADER;
/* Generated by software containing ST-Developer
 * from STEP Tools, Inc. (www.steptools.com) 
 */
/* OPTION: strings as raw bytes, not using required /X/ escapes */

FILE_DESCRIPTION(
/* description */ ('Unknown'),
/* implementation_level */ '2;1');

FILE_NAME(
/* name */ 'A06b_wrist_right_angle_bracket',
/* time_stamp */ '2026-09-23T11:58:48+08:00',
/* author */ ('Unknown'),
/* organization */ ('Unknown'),
/* preprocessor_version */ 'ST-DEVELOPER v16.7',
/* originating_system */ 'Solid Edge',
/* authorisation */ 'Unknown');

FILE_SCHEMA (('AUTOMOTIVE_DESIGN {1 0 10303 214 3 1 1}'));
ENDSEC;

DATA;
#10=PROPERTY_DEFINITION_REPRESENTATION(#14,#12);
#11=PROPERTY_DEFINITION_REPRESENTATION(#15,#13);
#12=REPRESENTATION('',(#16),#523);
#13=REPRESENTATION('',(#17),#523);
#14=PROPERTY_DEFINITION('pmi validation property','',#528);
#15=PROPERTY_DEFINITION('pmi validation property','',#528);
#16=VALUE_REPRESENTATION_ITEM('number of annotations',COUNT_MEASURE(0.));
#17=VALUE_REPRESENTATION_ITEM('number of views',COUNT_MEASURE(0.));
#18=SHAPE_REPRESENTATION_RELATIONSHIP('','',#325,#19);
#19=ADVANCED_BREP_SHAPE_REPRESENTATION('',(#323),#523);
#20=CYLINDRICAL_SURFACE('',#334,1.7);
#21=CYLINDRICAL_SURFACE('',#337,1.7);
#22=CYLINDRICAL_SURFACE('',#340,1.7);
#23=CYLINDRICAL_SURFACE('',#343,1.7);
#24=CYLINDRICAL_SURFACE('',#355,1.7);
#25=CYLINDRICAL_SURFACE('',#356,1.7);
#26=CYLINDRICAL_SURFACE('',#357,1.7);
#27=CYLINDRICAL_SURFACE('',#358,1.7);
#28=CIRCLE('',#330,1.7);
#29=CIRCLE('',#331,1.7);
#30=CIRCLE('',#332,1.7);
#31=CIRCLE('',#333,1.7);
#32=CIRCLE('',#335,1.7);
#33=CIRCLE('',#336,1.7);
#34=CIRCLE('',#338,1.7);
#35=CIRCLE('',#339,1.7);
#36=CIRCLE('',#341,1.7);
#37=CIRCLE('',#342,1.7);
#38=CIRCLE('',#344,1.7);
#39=CIRCLE('',#345,1.7);
#40=CIRCLE('',#350,1.7);
#41=CIRCLE('',#351,1.7);
#42=CIRCLE('',#352,1.7);
#43=CIRCLE('',#353,1.7);
#44=ORIENTED_EDGE('',*,*,#112,.T.);
#45=ORIENTED_EDGE('',*,*,#113,.F.);
#46=ORIENTED_EDGE('',*,*,#114,.F.);
#47=ORIENTED_EDGE('',*,*,#115,.T.);
#48=ORIENTED_EDGE('',*,*,#116,.T.);
#49=ORIENTED_EDGE('',*,*,#117,.F.);
#50=ORIENTED_EDGE('',*,*,#118,.F.);
#51=ORIENTED_EDGE('',*,*,#119,.T.);
#52=ORIENTED_EDGE('',*,*,#120,.F.);
#53=ORIENTED_EDGE('',*,*,#113,.T.);
#54=ORIENTED_EDGE('',*,*,#121,.F.);
#55=ORIENTED_EDGE('',*,*,#122,.F.);
#56=ORIENTED_EDGE('',*,*,#123,.F.);
#57=ORIENTED_EDGE('',*,*,#124,.F.);
#58=ORIENTED_EDGE('',*,*,#125,.T.);
#59=ORIENTED_EDGE('',*,*,#126,.F.);
#60=ORIENTED_EDGE('',*,*,#127,.F.);
#61=ORIENTED_EDGE('',*,*,#117,.T.);
#62=ORIENTED_EDGE('',*,*,#128,.T.);
#63=ORIENTED_EDGE('',*,*,#129,.F.);
#64=ORIENTED_EDGE('',*,*,#130,.T.);
#65=ORIENTED_EDGE('',*,*,#131,.F.);
#66=ORIENTED_EDGE('',*,*,#132,.T.);
#67=ORIENTED_EDGE('',*,*,#133,.F.);
#68=ORIENTED_EDGE('',*,*,#134,.T.);
#69=ORIENTED_EDGE('',*,*,#135,.F.);
#70=ORIENTED_EDGE('',*,*,#136,.T.);
#71=ORIENTED_EDGE('',*,*,#115,.F.);
#72=ORIENTED_EDGE('',*,*,#137,.F.);
#73=ORIENTED_EDGE('',*,*,#138,.F.);
#74=ORIENTED_EDGE('',*,*,#139,.F.);
#75=ORIENTED_EDGE('',*,*,#126,.T.);
#76=ORIENTED_EDGE('',*,*,#140,.F.);
#77=ORIENTED_EDGE('',*,*,#137,.T.);
#78=ORIENTED_EDGE('',*,*,#114,.T.);
#79=ORIENTED_EDGE('',*,*,#120,.T.);
#80=ORIENTED_EDGE('',*,*,#134,.F.);
#81=ORIENTED_EDGE('',*,*,#132,.F.);
#82=ORIENTED_EDGE('',*,*,#130,.F.);
#83=ORIENTED_EDGE('',*,*,#128,.F.);
#84=ORIENTED_EDGE('',*,*,#135,.T.);
#85=ORIENTED_EDGE('',*,*,#133,.T.);
#86=ORIENTED_EDGE('',*,*,#131,.T.);
#87=ORIENTED_EDGE('',*,*,#129,.T.);
#88=ORIENTED_EDGE('',*,*,#112,.F.);
#89=ORIENTED_EDGE('',*,*,#136,.F.);
#90=ORIENTED_EDGE('',*,*,#125,.F.);
#91=ORIENTED_EDGE('',*,*,#116,.F.);
#92=ORIENTED_EDGE('',*,*,#141,.T.);
#93=ORIENTED_EDGE('',*,*,#142,.T.);
#94=ORIENTED_EDGE('',*,*,#143,.T.);
#95=ORIENTED_EDGE('',*,*,#144,.T.);
#96=ORIENTED_EDGE('',*,*,#140,.T.);
#97=ORIENTED_EDGE('',*,*,#119,.F.);
#98=ORIENTED_EDGE('',*,*,#145,.F.);
#99=ORIENTED_EDGE('',*,*,#138,.T.);
#100=ORIENTED_EDGE('',*,*,#145,.T.);
#101=ORIENTED_EDGE('',*,*,#118,.T.);
#102=ORIENTED_EDGE('',*,*,#127,.T.);
#103=ORIENTED_EDGE('',*,*,#139,.T.);
#104=ORIENTED_EDGE('',*,*,#124,.T.);
#105=ORIENTED_EDGE('',*,*,#144,.F.);
#106=ORIENTED_EDGE('',*,*,#123,.T.);
#107=ORIENTED_EDGE('',*,*,#143,.F.);
#108=ORIENTED_EDGE('',*,*,#122,.T.);
#109=ORIENTED_EDGE('',*,*,#142,.F.);
#110=ORIENTED_EDGE('',*,*,#121,.T.);
#111=ORIENTED_EDGE('',*,*,#141,.F.);
#112=EDGE_CURVE('',#146,#147,#174,.T.);
#113=EDGE_CURVE('',#148,#147,#175,.T.);
#114=EDGE_CURVE('',#149,#148,#176,.T.);
#115=EDGE_CURVE('',#149,#146,#177,.T.);
#116=EDGE_CURVE('',#147,#150,#178,.T.);
#117=EDGE_CURVE('',#151,#150,#179,.T.);
#118=EDGE_CURVE('',#152,#151,#180,.T.);
#119=EDGE_CURVE('',#152,#153,#181,.T.);
#120=EDGE_CURVE('',#148,#153,#182,.T.);
#121=EDGE_CURVE('',#154,#154,#28,.T.);
#122=EDGE_CURVE('',#155,#155,#29,.T.);
#123=EDGE_CURVE('',#156,#156,#30,.T.);
#124=EDGE_CURVE('',#157,#157,#31,.T.);
#125=EDGE_CURVE('',#150,#158,#183,.T.);
#126=EDGE_CURVE('',#159,#158,#184,.T.);
#127=EDGE_CURVE('',#151,#159,#185,.T.);
#128=EDGE_CURVE('',#160,#160,#32,.T.);
#129=EDGE_CURVE('',#161,#161,#33,.T.);
#130=EDGE_CURVE('',#162,#162,#34,.T.);
#131=EDGE_CURVE('',#163,#163,#35,.T.);
#132=EDGE_CURVE('',#164,#164,#36,.T.);
#133=EDGE_CURVE('',#165,#165,#37,.T.);
#134=EDGE_CURVE('',#166,#166,#38,.T.);
#135=EDGE_CURVE('',#167,#167,#39,.T.);
#136=EDGE_CURVE('',#158,#146,#186,.T.);
#137=EDGE_CURVE('',#168,#149,#187,.T.);
#138=EDGE_CURVE('',#169,#168,#188,.T.);
#139=EDGE_CURVE('',#159,#169,#189,.T.);
#140=EDGE_CURVE('',#168,#153,#190,.T.);
#141=EDGE_CURVE('',#170,#170,#40,.T.);
#142=EDGE_CURVE('',#171,#171,#41,.T.);
#143=EDGE_CURVE('',#172,#172,#42,.T.);
#144=EDGE_CURVE('',#173,#173,#43,.T.);
#145=EDGE_CURVE('',#169,#152,#191,.T.);
#146=VERTEX_POINT('',#446);
#147=VERTEX_POINT('',#447);
#148=VERTEX_POINT('',#449);
#149=VERTEX_POINT('',#451);
#150=VERTEX_POINT('',#455);
#151=VERTEX_POINT('',#457);
#152=VERTEX_POINT('',#459);
#153=VERTEX_POINT('',#461);
#154=VERTEX_POINT('',#465);
#155=VERTEX_POINT('',#467);
#156=VERTEX_POINT('',#469);
#157=VERTEX_POINT('',#471);
#158=VERTEX_POINT('',#473);
#159=VERTEX_POINT('',#475);
#160=VERTEX_POINT('',#479);
#161=VERTEX_POINT('',#481);
#162=VERTEX_POINT('',#484);
#163=VERTEX_POINT('',#486);
#164=VERTEX_POINT('',#489);
#165=VERTEX_POINT('',#491);
#166=VERTEX_POINT('',#494);
#167=VERTEX_POINT('',#496);
#168=VERTEX_POINT('',#500);
#169=VERTEX_POINT('',#502);
#170=VERTEX_POINT('',#509);
#171=VERTEX_POINT('',#511);
#172=VERTEX_POINT('',#513);
#173=VERTEX_POINT('',#515);
#174=LINE('',#445,#192);
#175=LINE('',#448,#193);
#176=LINE('',#450,#194);
#177=LINE('',#452,#195);
#178=LINE('',#454,#196);
#179=LINE('',#456,#197);
#180=LINE('',#458,#198);
#181=LINE('',#460,#199);
#182=LINE('',#462,#200);
#183=LINE('',#472,#201);
#184=LINE('',#474,#202);
#185=LINE('',#476,#203);
#186=LINE('',#498,#204);
#187=LINE('',#499,#205);
#188=LINE('',#501,#206);
#189=LINE('',#503,#207);
#190=LINE('',#505,#208);
#191=LINE('',#516,#209);
#192=VECTOR('',#363,1000.);
#193=VECTOR('',#364,1000.);
#194=VECTOR('',#365,1000.);
#195=VECTOR('',#366,1000.);
#196=VECTOR('',#369,1000.);
#197=VECTOR('',#370,1000.);
#198=VECTOR('',#371,1000.);
#199=VECTOR('',#372,1000.);
#200=VECTOR('',#373,1000.);
#201=VECTOR('',#384,1000.);
#202=VECTOR('',#385,1000.);
#203=VECTOR('',#386,1000.);
#204=VECTOR('',#413,1000.);
#205=VECTOR('',#414,1000.);
#206=VECTOR('',#415,1000.);
#207=VECTOR('',#416,1000.);
#208=VECTOR('',#419,1000.);
#209=VECTOR('',#432,1000.);
#210=EDGE_LOOP('',(#44,#45,#46,#47));
#211=EDGE_LOOP('',(#48,#49,#50,#51,#52,#53));
#212=EDGE_LOOP('',(#54));
#213=EDGE_LOOP('',(#55));
#214=EDGE_LOOP('',(#56));
#215=EDGE_LOOP('',(#57));
#216=EDGE_LOOP('',(#58,#59,#60,#61));
#217=EDGE_LOOP('',(#62));
#218=EDGE_LOOP('',(#63));
#219=EDGE_LOOP('',(#64));
#220=EDGE_LOOP('',(#65));
#221=EDGE_LOOP('',(#66));
#222=EDGE_LOOP('',(#67));
#223=EDGE_LOOP('',(#68));
#224=EDGE_LOOP('',(#69));
#225=EDGE_LOOP('',(#70,#71,#72,#73,#74,#75));
#226=EDGE_LOOP('',(#76,#77,#78,#79));
#227=EDGE_LOOP('',(#80));
#228=EDGE_LOOP('',(#81));
#229=EDGE_LOOP('',(#82));
#230=EDGE_LOOP('',(#83));
#231=EDGE_LOOP('',(#84));
#232=EDGE_LOOP('',(#85));
#233=EDGE_LOOP('',(#86));
#234=EDGE_LOOP('',(#87));
#235=EDGE_LOOP('',(#88,#89,#90,#91));
#236=EDGE_LOOP('',(#92));
#237=EDGE_LOOP('',(#93));
#238=EDGE_LOOP('',(#94));
#239=EDGE_LOOP('',(#95));
#240=EDGE_LOOP('',(#96,#97,#98,#99));
#241=EDGE_LOOP('',(#100,#101,#102,#103));
#242=EDGE_LOOP('',(#104));
#243=EDGE_LOOP('',(#105));
#244=EDGE_LOOP('',(#106));
#245=EDGE_LOOP('',(#107));
#246=EDGE_LOOP('',(#108));
#247=EDGE_LOOP('',(#109));
#248=EDGE_LOOP('',(#110));
#249=EDGE_LOOP('',(#111));
#250=FACE_BOUND('',#210,.T.);
#251=FACE_BOUND('',#211,.T.);
#252=FACE_BOUND('',#212,.T.);
#253=FACE_BOUND('',#213,.T.);
#254=FACE_BOUND('',#214,.T.);
#255=FACE_BOUND('',#215,.T.);
#256=FACE_BOUND('',#216,.T.);
#257=FACE_BOUND('',#217,.T.);
#258=FACE_BOUND('',#218,.T.);
#259=FACE_BOUND('',#219,.T.);
#260=FACE_BOUND('',#220,.T.);
#261=FACE_BOUND('',#221,.T.);
#262=FACE_BOUND('',#222,.T.);
#263=FACE_BOUND('',#223,.T.);
#264=FACE_BOUND('',#224,.T.);
#265=FACE_BOUND('',#225,.T.);
#266=FACE_BOUND('',#226,.T.);
#267=FACE_BOUND('',#227,.T.);
#268=FACE_BOUND('',#228,.T.);
#269=FACE_BOUND('',#229,.T.);
#270=FACE_BOUND('',#230,.T.);
#271=FACE_BOUND('',#231,.T.);
#272=FACE_BOUND('',#232,.T.);
#273=FACE_BOUND('',#233,.T.);
#274=FACE_BOUND('',#234,.T.);
#275=FACE_BOUND('',#235,.T.);
#276=FACE_BOUND('',#236,.T.);
#277=FACE_BOUND('',#237,.T.);
#278=FACE_BOUND('',#238,.T.);
#279=FACE_BOUND('',#239,.T.);
#280=FACE_BOUND('',#240,.T.);
#281=FACE_BOUND('',#241,.T.);
#282=FACE_BOUND('',#242,.T.);
#283=FACE_BOUND('',#243,.T.);
#284=FACE_BOUND('',#244,.T.);
#285=FACE_BOUND('',#245,.T.);
#286=FACE_BOUND('',#246,.T.);
#287=FACE_BOUND('',#247,.T.);
#288=FACE_BOUND('',#248,.T.);
#289=FACE_BOUND('',#249,.T.);
#290=PLANE('',#327);
#291=PLANE('',#328);
#292=PLANE('',#329);
#293=PLANE('',#346);
#294=PLANE('',#347);
#295=PLANE('',#348);
#296=PLANE('',#349);
#297=PLANE('',#354);
#298=ADVANCED_FACE('',(#250),#290,.F.);
#299=ADVANCED_FACE('',(#251),#291,.F.);
#300=ADVANCED_FACE('',(#252,#253,#254,#255,#256),#292,.F.);
#301=ADVANCED_FACE('',(#257,#258),#20,.F.);
#302=ADVANCED_FACE('',(#259,#260),#21,.F.);
#303=ADVANCED_FACE('',(#261,#262),#22,.F.);
#304=ADVANCED_FACE('',(#263,#264),#23,.F.);
#305=ADVANCED_FACE('',(#265),#293,.F.);
#306=ADVANCED_FACE('',(#266,#267,#268,#269,#270),#294,.T.);
#307=ADVANCED_FACE('',(#271,#272,#273,#274,#275),#295,.F.);
#308=ADVANCED_FACE('',(#276,#277,#278,#279,#280),#296,.F.);
#309=ADVANCED_FACE('',(#281),#297,.T.);
#310=ADVANCED_FACE('',(#282,#283),#24,.F.);
#311=ADVANCED_FACE('',(#284,#285),#25,.F.);
#312=ADVANCED_FACE('',(#286,#287),#26,.F.);
#313=ADVANCED_FACE('',(#288,#289),#27,.F.);
#314=CLOSED_SHELL('',(#298,#299,#300,#301,#302,#303,#304,#305,#306,#307,
#308,#309,#310,#311,#312,#313));
#315=STYLED_ITEM('',(#316),#323);
#316=PRESENTATION_STYLE_ASSIGNMENT((#317));
#317=SURFACE_STYLE_USAGE(.BOTH.,#318);
#318=SURFACE_SIDE_STYLE('',(#319));
#319=SURFACE_STYLE_FILL_AREA(#320);
#320=FILL_AREA_STYLE('',(#321));
#321=FILL_AREA_STYLE_COLOUR('',#322);
#322=COLOUR_RGB('',0.680000007152557,0.819999992847443,0.600000023841858);
#323=MANIFOLD_SOLID_BREP('',#314);
#324=SHAPE_DEFINITION_REPRESENTATION(#528,#325);
#325=SHAPE_REPRESENTATION('A06b_wrist_right_angle_bracket',(#326),#523);
#326=AXIS2_PLACEMENT_3D('',#443,#359,#360);
#327=AXIS2_PLACEMENT_3D('',#444,#361,#362);
#328=AXIS2_PLACEMENT_3D('',#453,#367,#368);
#329=AXIS2_PLACEMENT_3D('',#463,#374,#375);
#330=AXIS2_PLACEMENT_3D('',#464,#376,#377);
#331=AXIS2_PLACEMENT_3D('',#466,#378,#379);
#332=AXIS2_PLACEMENT_3D('',#468,#380,#381);
#333=AXIS2_PLACEMENT_3D('',#470,#382,#383);
#334=AXIS2_PLACEMENT_3D('',#477,#387,#388);
#335=AXIS2_PLACEMENT_3D('',#478,#389,#390);
#336=AXIS2_PLACEMENT_3D('',#480,#391,#392);
#337=AXIS2_PLACEMENT_3D('',#482,#393,#394);
#338=AXIS2_PLACEMENT_3D('',#483,#395,#396);
#339=AXIS2_PLACEMENT_3D('',#485,#397,#398);
#340=AXIS2_PLACEMENT_3D('',#487,#399,#400);
#341=AXIS2_PLACEMENT_3D('',#488,#401,#402);
#342=AXIS2_PLACEMENT_3D('',#490,#403,#404);
#343=AXIS2_PLACEMENT_3D('',#492,#405,#406);
#344=AXIS2_PLACEMENT_3D('',#493,#407,#408);
#345=AXIS2_PLACEMENT_3D('',#495,#409,#410);
#346=AXIS2_PLACEMENT_3D('',#497,#411,#412);
#347=AXIS2_PLACEMENT_3D('',#504,#417,#418);
#348=AXIS2_PLACEMENT_3D('',#506,#420,#421);
#349=AXIS2_PLACEMENT_3D('',#507,#422,#423);
#350=AXIS2_PLACEMENT_3D('',#508,#424,#425);
#351=AXIS2_PLACEMENT_3D('',#510,#426,#427);
#352=AXIS2_PLACEMENT_3D('',#512,#428,#429);
#353=AXIS2_PLACEMENT_3D('',#514,#430,#431);
#354=AXIS2_PLACEMENT_3D('',#517,#433,#434);
#355=AXIS2_PLACEMENT_3D('',#518,#435,#436);
#356=AXIS2_PLACEMENT_3D('',#519,#437,#438);
#357=AXIS2_PLACEMENT_3D('',#520,#439,#440);
#358=AXIS2_PLACEMENT_3D('',#521,#441,#442);
#359=DIRECTION('',(0.,0.,1.));
#360=DIRECTION('',(1.,0.,0.));
#361=DIRECTION('',(1.,0.,0.));
#362=DIRECTION('',(0.,0.,-1.));
#363=DIRECTION('',(0.,-1.,0.));
#364=DIRECTION('',(0.,0.,-1.));
#365=DIRECTION('',(0.,-1.,0.));
#366=DIRECTION('',(0.,0.,-1.));
#367=DIRECTION('',(0.,1.,0.));
#368=DIRECTION('',(0.,0.,1.));
#369=DIRECTION('',(1.,0.,0.));
#370=DIRECTION('',(0.,0.,-1.));
#371=DIRECTION('',(1.,0.,0.));
#372=DIRECTION('',(0.,0.,-1.));
#373=DIRECTION('',(1.,0.,0.));
#374=DIRECTION('',(-1.,0.,0.));
#375=DIRECTION('',(0.,0.,1.));
#376=DIRECTION('',(1.,-6.12303176911189E-17,0.));
#377=DIRECTION('',(6.12303176911189E-17,1.,0.));
#378=DIRECTION('',(1.,-6.12303176911189E-17,0.));
#379=DIRECTION('',(6.12303176911189E-17,1.,0.));
#380=DIRECTION('',(1.,-6.12303176911189E-17,0.));
#381=DIRECTION('',(6.12303176911189E-17,1.,0.));
#382=DIRECTION('',(1.,-6.12303176911189E-17,0.));
#383=DIRECTION('',(6.12303176911189E-17,1.,0.));
#384=DIRECTION('',(0.,1.,0.));
#385=DIRECTION('',(0.,0.,-1.));
#386=DIRECTION('',(0.,1.,0.));
#387=DIRECTION('',(0.,0.,-1.));
#388=DIRECTION('',(-1.,0.,0.));
#389=DIRECTION('',(0.,0.,1.));
#390=DIRECTION('',(1.,0.,0.));
#391=DIRECTION('',(0.,0.,1.));
#392=DIRECTION('',(1.,0.,0.));
#393=DIRECTION('',(0.,0.,-1.));
#394=DIRECTION('',(-1.,0.,0.));
#395=DIRECTION('',(0.,0.,1.));
#396=DIRECTION('',(1.,0.,0.));
#397=DIRECTION('',(0.,0.,1.));
#398=DIRECTION('',(1.,0.,0.));
#399=DIRECTION('',(0.,0.,-1.));
#400=DIRECTION('',(-1.,0.,0.));
#401=DIRECTION('',(0.,0.,1.));
#402=DIRECTION('',(1.,0.,0.));
#403=DIRECTION('',(0.,0.,1.));
#404=DIRECTION('',(1.,0.,0.));
#405=DIRECTION('',(0.,0.,-1.));
#406=DIRECTION('',(-1.,0.,0.));
#407=DIRECTION('',(0.,0.,1.));
#408=DIRECTION('',(1.,0.,0.));
#409=DIRECTION('',(0.,0.,1.));
#410=DIRECTION('',(1.,0.,0.));
#411=DIRECTION('',(0.,-1.,0.));
#412=DIRECTION('',(0.,0.,-1.));
#413=DIRECTION('',(-1.,0.,0.));
#414=DIRECTION('',(-1.,0.,0.));
#415=DIRECTION('',(0.,0.,-1.));
#416=DIRECTION('',(-1.,0.,0.));
#417=DIRECTION('',(0.,0.,1.));
#418=DIRECTION('',(1.,0.,0.));
#419=DIRECTION('',(0.,-1.,0.));
#420=DIRECTION('',(0.,0.,1.));
#421=DIRECTION('',(1.,0.,0.));
#422=DIRECTION('',(1.,0.,0.));
#423=DIRECTION('',(0.,0.,-1.));
#424=DIRECTION('',(1.,-6.12303176911189E-17,0.));
#425=DIRECTION('',(6.12303176911189E-17,1.,0.));
#426=DIRECTION('',(1.,-6.12303176911189E-17,0.));
#427=DIRECTION('',(6.12303176911189E-17,1.,0.));
#428=DIRECTION('',(1.,-6.12303176911189E-17,0.));
#429=DIRECTION('',(6.12303176911189E-17,1.,0.));
#430=DIRECTION('',(1.,-6.12303176911189E-17,0.));
#431=DIRECTION('',(6.12303176911189E-17,1.,0.));
#432=DIRECTION('',(0.,-1.,0.));
#433=DIRECTION('',(0.,0.,1.));
#434=DIRECTION('',(1.,0.,0.));
#435=DIRECTION('',(-1.,0.,0.));
#436=DIRECTION('',(0.,0.,1.));
#437=DIRECTION('',(-1.,0.,0.));
#438=DIRECTION('',(0.,0.,1.));
#439=DIRECTION('',(-1.,0.,0.));
#440=DIRECTION('',(0.,0.,1.));
#441=DIRECTION('',(-1.,0.,0.));
#442=DIRECTION('',(0.,0.,1.));
#443=CARTESIAN_POINT('',(0.,0.,0.));
#444=CARTESIAN_POINT('',(-28.,24.,6.));
#445=CARTESIAN_POINT('',(-28.,24.,0.));
#446=CARTESIAN_POINT('',(-28.,24.,0.));
#447=CARTESIAN_POINT('',(-28.,-49.,0.));
#448=CARTESIAN_POINT('',(-28.,-49.,6.));
#449=CARTESIAN_POINT('',(-28.,-49.,6.));
#450=CARTESIAN_POINT('',(-28.,24.,6.));
#451=CARTESIAN_POINT('',(-28.,24.,6.));
#452=CARTESIAN_POINT('',(-28.,24.,6.));
#453=CARTESIAN_POINT('',(-28.,-49.,6.));
#454=CARTESIAN_POINT('',(-28.,-49.,0.));
#455=CARTESIAN_POINT('',(40.,-49.,0.));
#456=CARTESIAN_POINT('',(40.,-49.,6.));
#457=CARTESIAN_POINT('',(40.,-49.,62.));
#458=CARTESIAN_POINT('',(34.,-49.,62.));
#459=CARTESIAN_POINT('',(34.,-49.,62.));
#460=CARTESIAN_POINT('',(34.,-49.,62.));
#461=CARTESIAN_POINT('',(34.,-49.,6.));
#462=CARTESIAN_POINT('',(-28.,-49.,6.));
#463=CARTESIAN_POINT('',(40.,-49.,6.));
#464=CARTESIAN_POINT('',(40.,18.,11.));
#465=CARTESIAN_POINT('',(40.,19.7,11.));
#466=CARTESIAN_POINT('',(40.,18.,57.));
#467=CARTESIAN_POINT('',(40.,19.7,57.));
#468=CARTESIAN_POINT('',(40.,-43.,11.));
#469=CARTESIAN_POINT('',(40.,-41.3,11.));
#470=CARTESIAN_POINT('',(40.,-43.,57.));
#471=CARTESIAN_POINT('',(40.,-41.3,57.));
#472=CARTESIAN_POINT('',(40.,-49.,0.));
#473=CARTESIAN_POINT('',(40.,24.,0.));
#474=CARTESIAN_POINT('',(40.,24.,6.));
#475=CARTESIAN_POINT('',(40.,24.,62.));
#476=CARTESIAN_POINT('',(40.,-49.,62.));
#477=CARTESIAN_POINT('',(-23.,-43.,6.));
#478=CARTESIAN_POINT('',(-23.,-43.,6.));
#479=CARTESIAN_POINT('',(-21.3,-43.,6.));
#480=CARTESIAN_POINT('',(-23.,-43.,0.));
#481=CARTESIAN_POINT('',(-21.3,-43.,0.));
#482=CARTESIAN_POINT('',(23.,-43.,6.));
#483=CARTESIAN_POINT('',(23.,-43.,6.));
#484=CARTESIAN_POINT('',(24.7,-43.,6.));
#485=CARTESIAN_POINT('',(23.,-43.,0.));
#486=CARTESIAN_POINT('',(24.7,-43.,0.));
#487=CARTESIAN_POINT('',(-23.,18.,6.));
#488=CARTESIAN_POINT('',(-23.,18.,6.));
#489=CARTESIAN_POINT('',(-21.3,18.,6.));
#490=CARTESIAN_POINT('',(-23.,18.,0.));
#491=CARTESIAN_POINT('',(-21.3,18.,0.));
#492=CARTESIAN_POINT('',(23.,18.,6.));
#493=CARTESIAN_POINT('',(23.,18.,6.));
#494=CARTESIAN_POINT('',(24.7,18.,6.));
#495=CARTESIAN_POINT('',(23.,18.,0.));
#496=CARTESIAN_POINT('',(24.7,18.,0.));
#497=CARTESIAN_POINT('',(40.,24.,6.));
#498=CARTESIAN_POINT('',(40.,24.,0.));
#499=CARTESIAN_POINT('',(40.,24.,6.));
#500=CARTESIAN_POINT('',(34.,24.,6.));
#501=CARTESIAN_POINT('',(34.,24.,62.));
#502=CARTESIAN_POINT('',(34.,24.,62.));
#503=CARTESIAN_POINT('',(40.,24.,62.));
#504=CARTESIAN_POINT('',(0.,0.,6.));
#505=CARTESIAN_POINT('',(34.,24.,6.));
#506=CARTESIAN_POINT('',(0.,0.,0.));
#507=CARTESIAN_POINT('',(34.,24.,62.));
#508=CARTESIAN_POINT('',(34.,18.,11.));
#509=CARTESIAN_POINT('',(34.,19.7,11.));
#510=CARTESIAN_POINT('',(34.,18.,57.));
#511=CARTESIAN_POINT('',(34.,19.7,57.));
#512=CARTESIAN_POINT('',(34.,-43.,11.));
#513=CARTESIAN_POINT('',(34.,-41.3,11.));
#514=CARTESIAN_POINT('',(34.,-43.,57.));
#515=CARTESIAN_POINT('',(34.,-41.3,57.));
#516=CARTESIAN_POINT('',(34.,24.,62.));
#517=CARTESIAN_POINT('',(0.,0.,62.));
#518=CARTESIAN_POINT('',(40.,-43.,57.));
#519=CARTESIAN_POINT('',(40.,-43.,11.));
#520=CARTESIAN_POINT('',(40.,18.,57.));
#521=CARTESIAN_POINT('',(40.,18.,11.));
#522=MECHANICAL_DESIGN_GEOMETRIC_PRESENTATION_REPRESENTATION('',(#315),
#523);
#523=(
GEOMETRIC_REPRESENTATION_CONTEXT(3)
GLOBAL_UNCERTAINTY_ASSIGNED_CONTEXT((#524))
GLOBAL_UNIT_ASSIGNED_CONTEXT((#527,#526,#525))
REPRESENTATION_CONTEXT('A06b_wrist_right_angle_bracket',
'TOP_LEVEL_ASSEMBLY_PART')
);
#524=UNCERTAINTY_MEASURE_WITH_UNIT(LENGTH_MEASURE(0.005),#527,
'DISTANCE_ACCURACY_VALUE','Maximum Tolerance applied to model');
#525=(
NAMED_UNIT(*)
SI_UNIT($,.STERADIAN.)
SOLID_ANGLE_UNIT()
);
#526=(
NAMED_UNIT(*)
PLANE_ANGLE_UNIT()
SI_UNIT($,.RADIAN.)
);
#527=(
LENGTH_UNIT()
NAMED_UNIT(*)
SI_UNIT(.MILLI.,.METRE.)
);
#528=PRODUCT_DEFINITION_SHAPE('','',#529);
#529=PRODUCT_DEFINITION('','',#531,#530);
#530=PRODUCT_DEFINITION_CONTEXT('',#537,'design');
#531=PRODUCT_DEFINITION_FORMATION_WITH_SPECIFIED_SOURCE('','',#533,
 .NOT_KNOWN.);
#532=PRODUCT_RELATED_PRODUCT_CATEGORY('','',(#533));
#533=PRODUCT('A06b_wrist_right_angle_bracket',
'A06b_wrist_right_angle_bracket','A06b_wrist_right_angle_bracket',(#535));
#534=PRODUCT_CATEGORY('','');
#535=PRODUCT_CONTEXT('',#537,'mechanical');
#536=APPLICATION_PROTOCOL_DEFINITION('international standard',
'automotive_design',2010,#537);
#537=APPLICATION_CONTEXT(
'core data for automotive mechanical design processes');
ENDSEC;
END-ISO-10303-21;
