ISO-10303-21;
HEADER;
/* Generated by software containing ST-Developer
 * from STEP Tools, Inc. (www.steptools.com) 
 */
/* OPTION: strings as raw bytes, not using required /X/ escapes */

FILE_DESCRIPTION(
/* description */ ('Unknown'),
/* implementation_level */ '2;1');

FILE_NAME(
/* name */ 'A08_tool_mount',
/* time_stamp */ '2026-09-23T11:56:30+08:00',
/* author */ ('Unknown'),
/* organization */ ('Unknown'),
/* preprocessor_version */ 'ST-DEVELOPER v16.7',
/* originating_system */ 'Solid Edge',
/* authorisation */ 'Unknown');

FILE_SCHEMA (('AUTOMOTIVE_DESIGN {1 0 10303 214 3 1 1}'));
ENDSEC;

DATA;
#10=PROPERTY_DEFINITION_REPRESENTATION(#14,#12);
#11=PROPERTY_DEFINITION_REPRESENTATION(#15,#13);
#12=REPRESENTATION('',(#16),#491);
#13=REPRESENTATION('',(#17),#491);
#14=PROPERTY_DEFINITION('pmi validation property','',#496);
#15=PROPERTY_DEFINITION('pmi validation property','',#496);
#16=VALUE_REPRESENTATION_ITEM('number of annotations',COUNT_MEASURE(0.));
#17=VALUE_REPRESENTATION_ITEM('number of views',COUNT_MEASURE(0.));
#18=SHAPE_REPRESENTATION_RELATIONSHIP('','',#303,#19);
#19=ADVANCED_BREP_SHAPE_REPRESENTATION('',(#301),#491);
#20=CIRCLE('',#309,12.);
#21=CIRCLE('',#310,12.);
#22=CIRCLE('',#312,1.7);
#23=CIRCLE('',#313,1.7);
#24=CIRCLE('',#315,1.7);
#25=CIRCLE('',#316,1.7);
#26=CIRCLE('',#318,1.7);
#27=CIRCLE('',#319,1.7);
#28=CIRCLE('',#321,1.7);
#29=CIRCLE('',#322,1.7);
#30=CIRCLE('',#324,1.7);
#31=CIRCLE('',#325,1.7);
#32=CIRCLE('',#327,1.7);
#33=CIRCLE('',#328,1.7);
#34=CIRCLE('',#330,1.7);
#35=CIRCLE('',#331,1.7);
#36=CIRCLE('',#333,1.7);
#37=CIRCLE('',#334,1.7);
#38=CYLINDRICAL_SURFACE('',#308,12.);
#39=CYLINDRICAL_SURFACE('',#311,1.7);
#40=CYLINDRICAL_SURFACE('',#314,1.7);
#41=CYLINDRICAL_SURFACE('',#317,1.7);
#42=CYLINDRICAL_SURFACE('',#320,1.7);
#43=CYLINDRICAL_SURFACE('',#323,1.7);
#44=CYLINDRICAL_SURFACE('',#326,1.7);
#45=CYLINDRICAL_SURFACE('',#329,1.7);
#46=CYLINDRICAL_SURFACE('',#332,1.7);
#47=ORIENTED_EDGE('',*,*,#107,.T.);
#48=ORIENTED_EDGE('',*,*,#108,.F.);
#49=ORIENTED_EDGE('',*,*,#109,.F.);
#50=ORIENTED_EDGE('',*,*,#110,.T.);
#51=ORIENTED_EDGE('',*,*,#111,.T.);
#52=ORIENTED_EDGE('',*,*,#112,.F.);
#53=ORIENTED_EDGE('',*,*,#113,.F.);
#54=ORIENTED_EDGE('',*,*,#108,.T.);
#55=ORIENTED_EDGE('',*,*,#114,.T.);
#56=ORIENTED_EDGE('',*,*,#115,.F.);
#57=ORIENTED_EDGE('',*,*,#116,.F.);
#58=ORIENTED_EDGE('',*,*,#112,.T.);
#59=ORIENTED_EDGE('',*,*,#117,.T.);
#60=ORIENTED_EDGE('',*,*,#118,.F.);
#61=ORIENTED_EDGE('',*,*,#119,.T.);
#62=ORIENTED_EDGE('',*,*,#120,.F.);
#63=ORIENTED_EDGE('',*,*,#121,.T.);
#64=ORIENTED_EDGE('',*,*,#122,.F.);
#65=ORIENTED_EDGE('',*,*,#123,.T.);
#66=ORIENTED_EDGE('',*,*,#124,.F.);
#67=ORIENTED_EDGE('',*,*,#125,.T.);
#68=ORIENTED_EDGE('',*,*,#126,.F.);
#69=ORIENTED_EDGE('',*,*,#127,.T.);
#70=ORIENTED_EDGE('',*,*,#128,.F.);
#71=ORIENTED_EDGE('',*,*,#129,.T.);
#72=ORIENTED_EDGE('',*,*,#130,.F.);
#73=ORIENTED_EDGE('',*,*,#131,.T.);
#74=ORIENTED_EDGE('',*,*,#132,.F.);
#75=ORIENTED_EDGE('',*,*,#133,.T.);
#76=ORIENTED_EDGE('',*,*,#134,.F.);
#77=ORIENTED_EDGE('',*,*,#135,.T.);
#78=ORIENTED_EDGE('',*,*,#110,.F.);
#79=ORIENTED_EDGE('',*,*,#136,.F.);
#80=ORIENTED_EDGE('',*,*,#115,.T.);
#81=ORIENTED_EDGE('',*,*,#133,.F.);
#82=ORIENTED_EDGE('',*,*,#131,.F.);
#83=ORIENTED_EDGE('',*,*,#129,.F.);
#84=ORIENTED_EDGE('',*,*,#127,.F.);
#85=ORIENTED_EDGE('',*,*,#125,.F.);
#86=ORIENTED_EDGE('',*,*,#123,.F.);
#87=ORIENTED_EDGE('',*,*,#121,.F.);
#88=ORIENTED_EDGE('',*,*,#119,.F.);
#89=ORIENTED_EDGE('',*,*,#117,.F.);
#90=ORIENTED_EDGE('',*,*,#109,.T.);
#91=ORIENTED_EDGE('',*,*,#113,.T.);
#92=ORIENTED_EDGE('',*,*,#116,.T.);
#93=ORIENTED_EDGE('',*,*,#136,.T.);
#94=ORIENTED_EDGE('',*,*,#134,.T.);
#95=ORIENTED_EDGE('',*,*,#132,.T.);
#96=ORIENTED_EDGE('',*,*,#130,.T.);
#97=ORIENTED_EDGE('',*,*,#128,.T.);
#98=ORIENTED_EDGE('',*,*,#126,.T.);
#99=ORIENTED_EDGE('',*,*,#124,.T.);
#100=ORIENTED_EDGE('',*,*,#122,.T.);
#101=ORIENTED_EDGE('',*,*,#120,.T.);
#102=ORIENTED_EDGE('',*,*,#118,.T.);
#103=ORIENTED_EDGE('',*,*,#107,.F.);
#104=ORIENTED_EDGE('',*,*,#135,.F.);
#105=ORIENTED_EDGE('',*,*,#114,.F.);
#106=ORIENTED_EDGE('',*,*,#111,.F.);
#107=EDGE_CURVE('',#137,#138,#163,.T.);
#108=EDGE_CURVE('',#139,#138,#164,.T.);
#109=EDGE_CURVE('',#140,#139,#165,.T.);
#110=EDGE_CURVE('',#140,#137,#166,.T.);
#111=EDGE_CURVE('',#138,#141,#167,.T.);
#112=EDGE_CURVE('',#142,#141,#168,.T.);
#113=EDGE_CURVE('',#139,#142,#169,.T.);
#114=EDGE_CURVE('',#141,#143,#170,.T.);
#115=EDGE_CURVE('',#144,#143,#171,.T.);
#116=EDGE_CURVE('',#142,#144,#172,.T.);
#117=EDGE_CURVE('',#145,#145,#20,.T.);
#118=EDGE_CURVE('',#146,#146,#21,.T.);
#119=EDGE_CURVE('',#147,#147,#22,.T.);
#120=EDGE_CURVE('',#148,#148,#23,.T.);
#121=EDGE_CURVE('',#149,#149,#24,.T.);
#122=EDGE_CURVE('',#150,#150,#25,.T.);
#123=EDGE_CURVE('',#151,#151,#26,.T.);
#124=EDGE_CURVE('',#152,#152,#27,.T.);
#125=EDGE_CURVE('',#153,#153,#28,.T.);
#126=EDGE_CURVE('',#154,#154,#29,.T.);
#127=EDGE_CURVE('',#155,#155,#30,.T.);
#128=EDGE_CURVE('',#156,#156,#31,.T.);
#129=EDGE_CURVE('',#157,#157,#32,.T.);
#130=EDGE_CURVE('',#158,#158,#33,.T.);
#131=EDGE_CURVE('',#159,#159,#34,.T.);
#132=EDGE_CURVE('',#160,#160,#35,.T.);
#133=EDGE_CURVE('',#161,#161,#36,.T.);
#134=EDGE_CURVE('',#162,#162,#37,.T.);
#135=EDGE_CURVE('',#143,#137,#173,.T.);
#136=EDGE_CURVE('',#144,#140,#174,.T.);
#137=VERTEX_POINT('',#421);
#138=VERTEX_POINT('',#422);
#139=VERTEX_POINT('',#424);
#140=VERTEX_POINT('',#426);
#141=VERTEX_POINT('',#430);
#142=VERTEX_POINT('',#432);
#143=VERTEX_POINT('',#436);
#144=VERTEX_POINT('',#438);
#145=VERTEX_POINT('',#442);
#146=VERTEX_POINT('',#444);
#147=VERTEX_POINT('',#447);
#148=VERTEX_POINT('',#449);
#149=VERTEX_POINT('',#452);
#150=VERTEX_POINT('',#454);
#151=VERTEX_POINT('',#457);
#152=VERTEX_POINT('',#459);
#153=VERTEX_POINT('',#462);
#154=VERTEX_POINT('',#464);
#155=VERTEX_POINT('',#467);
#156=VERTEX_POINT('',#469);
#157=VERTEX_POINT('',#472);
#158=VERTEX_POINT('',#474);
#159=VERTEX_POINT('',#477);
#160=VERTEX_POINT('',#479);
#161=VERTEX_POINT('',#482);
#162=VERTEX_POINT('',#484);
#163=LINE('',#420,#175);
#164=LINE('',#423,#176);
#165=LINE('',#425,#177);
#166=LINE('',#427,#178);
#167=LINE('',#429,#179);
#168=LINE('',#431,#180);
#169=LINE('',#433,#181);
#170=LINE('',#435,#182);
#171=LINE('',#437,#183);
#172=LINE('',#439,#184);
#173=LINE('',#486,#185);
#174=LINE('',#487,#186);
#175=VECTOR('',#342,1000.);
#176=VECTOR('',#343,1000.);
#177=VECTOR('',#344,1000.);
#178=VECTOR('',#345,1000.);
#179=VECTOR('',#348,1000.);
#180=VECTOR('',#349,1000.);
#181=VECTOR('',#350,1000.);
#182=VECTOR('',#353,1000.);
#183=VECTOR('',#354,1000.);
#184=VECTOR('',#355,1000.);
#185=VECTOR('',#412,1000.);
#186=VECTOR('',#413,1000.);
#187=EDGE_LOOP('',(#47,#48,#49,#50));
#188=EDGE_LOOP('',(#51,#52,#53,#54));
#189=EDGE_LOOP('',(#55,#56,#57,#58));
#190=EDGE_LOOP('',(#59));
#191=EDGE_LOOP('',(#60));
#192=EDGE_LOOP('',(#61));
#193=EDGE_LOOP('',(#62));
#194=EDGE_LOOP('',(#63));
#195=EDGE_LOOP('',(#64));
#196=EDGE_LOOP('',(#65));
#197=EDGE_LOOP('',(#66));
#198=EDGE_LOOP('',(#67));
#199=EDGE_LOOP('',(#68));
#200=EDGE_LOOP('',(#69));
#201=EDGE_LOOP('',(#70));
#202=EDGE_LOOP('',(#71));
#203=EDGE_LOOP('',(#72));
#204=EDGE_LOOP('',(#73));
#205=EDGE_LOOP('',(#74));
#206=EDGE_LOOP('',(#75));
#207=EDGE_LOOP('',(#76));
#208=EDGE_LOOP('',(#77,#78,#79,#80));
#209=EDGE_LOOP('',(#81));
#210=EDGE_LOOP('',(#82));
#211=EDGE_LOOP('',(#83));
#212=EDGE_LOOP('',(#84));
#213=EDGE_LOOP('',(#85));
#214=EDGE_LOOP('',(#86));
#215=EDGE_LOOP('',(#87));
#216=EDGE_LOOP('',(#88));
#217=EDGE_LOOP('',(#89));
#218=EDGE_LOOP('',(#90,#91,#92,#93));
#219=EDGE_LOOP('',(#94));
#220=EDGE_LOOP('',(#95));
#221=EDGE_LOOP('',(#96));
#222=EDGE_LOOP('',(#97));
#223=EDGE_LOOP('',(#98));
#224=EDGE_LOOP('',(#99));
#225=EDGE_LOOP('',(#100));
#226=EDGE_LOOP('',(#101));
#227=EDGE_LOOP('',(#102));
#228=EDGE_LOOP('',(#103,#104,#105,#106));
#229=FACE_BOUND('',#187,.T.);
#230=FACE_BOUND('',#188,.T.);
#231=FACE_BOUND('',#189,.T.);
#232=FACE_BOUND('',#190,.T.);
#233=FACE_BOUND('',#191,.T.);
#234=FACE_BOUND('',#192,.T.);
#235=FACE_BOUND('',#193,.T.);
#236=FACE_BOUND('',#194,.T.);
#237=FACE_BOUND('',#195,.T.);
#238=FACE_BOUND('',#196,.T.);
#239=FACE_BOUND('',#197,.T.);
#240=FACE_BOUND('',#198,.T.);
#241=FACE_BOUND('',#199,.T.);
#242=FACE_BOUND('',#200,.T.);
#243=FACE_BOUND('',#201,.T.);
#244=FACE_BOUND('',#202,.T.);
#245=FACE_BOUND('',#203,.T.);
#246=FACE_BOUND('',#204,.T.);
#247=FACE_BOUND('',#205,.T.);
#248=FACE_BOUND('',#206,.T.);
#249=FACE_BOUND('',#207,.T.);
#250=FACE_BOUND('',#208,.T.);
#251=FACE_BOUND('',#209,.T.);
#252=FACE_BOUND('',#210,.T.);
#253=FACE_BOUND('',#211,.T.);
#254=FACE_BOUND('',#212,.T.);
#255=FACE_BOUND('',#213,.T.);
#256=FACE_BOUND('',#214,.T.);
#257=FACE_BOUND('',#215,.T.);
#258=FACE_BOUND('',#216,.T.);
#259=FACE_BOUND('',#217,.T.);
#260=FACE_BOUND('',#218,.T.);
#261=FACE_BOUND('',#219,.T.);
#262=FACE_BOUND('',#220,.T.);
#263=FACE_BOUND('',#221,.T.);
#264=FACE_BOUND('',#222,.T.);
#265=FACE_BOUND('',#223,.T.);
#266=FACE_BOUND('',#224,.T.);
#267=FACE_BOUND('',#225,.T.);
#268=FACE_BOUND('',#226,.T.);
#269=FACE_BOUND('',#227,.T.);
#270=FACE_BOUND('',#228,.T.);
#271=PLANE('',#305);
#272=PLANE('',#306);
#273=PLANE('',#307);
#274=PLANE('',#335);
#275=PLANE('',#336);
#276=PLANE('',#337);
#277=ADVANCED_FACE('',(#229),#271,.F.);
#278=ADVANCED_FACE('',(#230),#272,.F.);
#279=ADVANCED_FACE('',(#231),#273,.F.);
#280=ADVANCED_FACE('',(#232,#233),#38,.F.);
#281=ADVANCED_FACE('',(#234,#235),#39,.F.);
#282=ADVANCED_FACE('',(#236,#237),#40,.F.);
#283=ADVANCED_FACE('',(#238,#239),#41,.F.);
#284=ADVANCED_FACE('',(#240,#241),#42,.F.);
#285=ADVANCED_FACE('',(#242,#243),#43,.F.);
#286=ADVANCED_FACE('',(#244,#245),#44,.F.);
#287=ADVANCED_FACE('',(#246,#247),#45,.F.);
#288=ADVANCED_FACE('',(#248,#249),#46,.F.);
#289=ADVANCED_FACE('',(#250),#274,.F.);
#290=ADVANCED_FACE('',(#251,#252,#253,#254,#255,#256,#257,#258,#259,#260),
#275,.T.);
#291=ADVANCED_FACE('',(#261,#262,#263,#264,#265,#266,#267,#268,#269,#270),
#276,.F.);
#292=CLOSED_SHELL('',(#277,#278,#279,#280,#281,#282,#283,#284,#285,#286,
#287,#288,#289,#290,#291));
#293=STYLED_ITEM('',(#294),#301);
#294=PRESENTATION_STYLE_ASSIGNMENT((#295));
#295=SURFACE_STYLE_USAGE(.BOTH.,#296);
#296=SURFACE_SIDE_STYLE('',(#297));
#297=SURFACE_STYLE_FILL_AREA(#298);
#298=FILL_AREA_STYLE('',(#299));
#299=FILL_AREA_STYLE_COLOUR('',#300);
#300=COLOUR_RGB('',0.100000001490116,0.349999994039536,0.280000001192093);
#301=MANIFOLD_SOLID_BREP('',#292);
#302=SHAPE_DEFINITION_REPRESENTATION(#496,#303);
#303=SHAPE_REPRESENTATION('A08_tool_mount',(#304),#491);
#304=AXIS2_PLACEMENT_3D('',#418,#338,#339);
#305=AXIS2_PLACEMENT_3D('',#419,#340,#341);
#306=AXIS2_PLACEMENT_3D('',#428,#346,#347);
#307=AXIS2_PLACEMENT_3D('',#434,#351,#352);
#308=AXIS2_PLACEMENT_3D('',#440,#356,#357);
#309=AXIS2_PLACEMENT_3D('',#441,#358,#359);
#310=AXIS2_PLACEMENT_3D('',#443,#360,#361);
#311=AXIS2_PLACEMENT_3D('',#445,#362,#363);
#312=AXIS2_PLACEMENT_3D('',#446,#364,#365);
#313=AXIS2_PLACEMENT_3D('',#448,#366,#367);
#314=AXIS2_PLACEMENT_3D('',#450,#368,#369);
#315=AXIS2_PLACEMENT_3D('',#451,#370,#371);
#316=AXIS2_PLACEMENT_3D('',#453,#372,#373);
#317=AXIS2_PLACEMENT_3D('',#455,#374,#375);
#318=AXIS2_PLACEMENT_3D('',#456,#376,#377);
#319=AXIS2_PLACEMENT_3D('',#458,#378,#379);
#320=AXIS2_PLACEMENT_3D('',#460,#380,#381);
#321=AXIS2_PLACEMENT_3D('',#461,#382,#383);
#322=AXIS2_PLACEMENT_3D('',#463,#384,#385);
#323=AXIS2_PLACEMENT_3D('',#465,#386,#387);
#324=AXIS2_PLACEMENT_3D('',#466,#388,#389);
#325=AXIS2_PLACEMENT_3D('',#468,#390,#391);
#326=AXIS2_PLACEMENT_3D('',#470,#392,#393);
#327=AXIS2_PLACEMENT_3D('',#471,#394,#395);
#328=AXIS2_PLACEMENT_3D('',#473,#396,#397);
#329=AXIS2_PLACEMENT_3D('',#475,#398,#399);
#330=AXIS2_PLACEMENT_3D('',#476,#400,#401);
#331=AXIS2_PLACEMENT_3D('',#478,#402,#403);
#332=AXIS2_PLACEMENT_3D('',#480,#404,#405);
#333=AXIS2_PLACEMENT_3D('',#481,#406,#407);
#334=AXIS2_PLACEMENT_3D('',#483,#408,#409);
#335=AXIS2_PLACEMENT_3D('',#485,#410,#411);
#336=AXIS2_PLACEMENT_3D('',#488,#414,#415);
#337=AXIS2_PLACEMENT_3D('',#489,#416,#417);
#338=DIRECTION('',(0.,0.,1.));
#339=DIRECTION('',(1.,0.,0.));
#340=DIRECTION('',(1.,0.,0.));
#341=DIRECTION('',(0.,0.,-1.));
#342=DIRECTION('',(0.,-1.,0.));
#343=DIRECTION('',(0.,0.,-1.));
#344=DIRECTION('',(0.,-1.,0.));
#345=DIRECTION('',(0.,0.,-1.));
#346=DIRECTION('',(0.,1.,0.));
#347=DIRECTION('',(0.,0.,1.));
#348=DIRECTION('',(1.,0.,0.));
#349=DIRECTION('',(0.,0.,-1.));
#350=DIRECTION('',(1.,0.,0.));
#351=DIRECTION('',(-1.,0.,0.));
#352=DIRECTION('',(0.,0.,1.));
#353=DIRECTION('',(0.,1.,0.));
#354=DIRECTION('',(0.,0.,-1.));
#355=DIRECTION('',(0.,1.,0.));
#356=DIRECTION('',(0.,0.,-1.));
#357=DIRECTION('',(-1.,0.,0.));
#358=DIRECTION('',(0.,0.,1.));
#359=DIRECTION('',(1.,0.,0.));
#360=DIRECTION('',(0.,0.,1.));
#361=DIRECTION('',(1.,0.,0.));
#362=DIRECTION('',(0.,0.,-1.));
#363=DIRECTION('',(-1.,0.,0.));
#364=DIRECTION('',(0.,0.,1.));
#365=DIRECTION('',(1.,0.,0.));
#366=DIRECTION('',(0.,0.,1.));
#367=DIRECTION('',(1.,0.,0.));
#368=DIRECTION('',(0.,0.,-1.));
#369=DIRECTION('',(-1.,0.,0.));
#370=DIRECTION('',(0.,0.,1.));
#371=DIRECTION('',(1.,0.,0.));
#372=DIRECTION('',(0.,0.,1.));
#373=DIRECTION('',(1.,0.,0.));
#374=DIRECTION('',(0.,0.,-1.));
#375=DIRECTION('',(-1.,0.,0.));
#376=DIRECTION('',(0.,0.,1.));
#377=DIRECTION('',(1.,0.,0.));
#378=DIRECTION('',(0.,0.,1.));
#379=DIRECTION('',(1.,0.,0.));
#380=DIRECTION('',(0.,0.,-1.));
#381=DIRECTION('',(-1.,0.,0.));
#382=DIRECTION('',(0.,0.,1.));
#383=DIRECTION('',(1.,0.,0.));
#384=DIRECTION('',(0.,0.,1.));
#385=DIRECTION('',(1.,0.,0.));
#386=DIRECTION('',(0.,0.,-1.));
#387=DIRECTION('',(-1.,0.,0.));
#388=DIRECTION('',(0.,0.,1.));
#389=DIRECTION('',(1.,0.,0.));
#390=DIRECTION('',(0.,0.,1.));
#391=DIRECTION('',(1.,0.,0.));
#392=DIRECTION('',(0.,0.,-1.));
#393=DIRECTION('',(-1.,0.,0.));
#394=DIRECTION('',(0.,0.,1.));
#395=DIRECTION('',(1.,0.,0.));
#396=DIRECTION('',(0.,0.,1.));
#397=DIRECTION('',(1.,0.,0.));
#398=DIRECTION('',(0.,0.,-1.));
#399=DIRECTION('',(-1.,0.,0.));
#400=DIRECTION('',(0.,0.,1.));
#401=DIRECTION('',(1.,0.,0.));
#402=DIRECTION('',(0.,0.,1.));
#403=DIRECTION('',(1.,0.,0.));
#404=DIRECTION('',(0.,0.,-1.));
#405=DIRECTION('',(-1.,0.,0.));
#406=DIRECTION('',(0.,0.,1.));
#407=DIRECTION('',(1.,0.,0.));
#408=DIRECTION('',(0.,0.,1.));
#409=DIRECTION('',(1.,0.,0.));
#410=DIRECTION('',(0.,-1.,0.));
#411=DIRECTION('',(0.,0.,-1.));
#412=DIRECTION('',(-1.,0.,0.));
#413=DIRECTION('',(-1.,0.,0.));
#414=DIRECTION('',(0.,0.,1.));
#415=DIRECTION('',(1.,0.,0.));
#416=DIRECTION('',(0.,0.,1.));
#417=DIRECTION('',(1.,0.,0.));
#418=CARTESIAN_POINT('',(0.,0.,0.));
#419=CARTESIAN_POINT('',(-28.,24.,12.));
#420=CARTESIAN_POINT('',(-28.,24.,8.));
#421=CARTESIAN_POINT('',(-28.,24.,8.));
#422=CARTESIAN_POINT('',(-28.,-49.,8.));
#423=CARTESIAN_POINT('',(-28.,-49.,12.));
#424=CARTESIAN_POINT('',(-28.,-49.,12.));
#425=CARTESIAN_POINT('',(-28.,24.,12.));
#426=CARTESIAN_POINT('',(-28.,24.,12.));
#427=CARTESIAN_POINT('',(-28.,24.,12.));
#428=CARTESIAN_POINT('',(-28.,-49.,12.));
#429=CARTESIAN_POINT('',(-28.,-49.,8.));
#430=CARTESIAN_POINT('',(28.,-49.,8.));
#431=CARTESIAN_POINT('',(28.,-49.,12.));
#432=CARTESIAN_POINT('',(28.,-49.,12.));
#433=CARTESIAN_POINT('',(-28.,-49.,12.));
#434=CARTESIAN_POINT('',(28.,-49.,12.));
#435=CARTESIAN_POINT('',(28.,-49.,8.));
#436=CARTESIAN_POINT('',(28.,24.,8.));
#437=CARTESIAN_POINT('',(28.,24.,12.));
#438=CARTESIAN_POINT('',(28.,24.,12.));
#439=CARTESIAN_POINT('',(28.,-49.,12.));
#440=CARTESIAN_POINT('',(0.,0.,12.));
#441=CARTESIAN_POINT('',(0.,0.,12.));
#442=CARTESIAN_POINT('',(12.,0.,12.));
#443=CARTESIAN_POINT('',(0.,0.,8.));
#444=CARTESIAN_POINT('',(12.,0.,8.));
#445=CARTESIAN_POINT('',(11.3137084989848,11.3137084989848,12.));
#446=CARTESIAN_POINT('',(11.3137084989848,11.3137084989848,12.));
#447=CARTESIAN_POINT('',(13.0137084989848,11.3137084989848,12.));
#448=CARTESIAN_POINT('',(11.3137084989848,11.3137084989848,8.));
#449=CARTESIAN_POINT('',(13.0137084989848,11.3137084989848,8.));
#450=CARTESIAN_POINT('',(-11.3137084989848,11.3137084989848,12.));
#451=CARTESIAN_POINT('',(-11.3137084989848,11.3137084989848,12.));
#452=CARTESIAN_POINT('',(-9.61370849898476,11.3137084989848,12.));
#453=CARTESIAN_POINT('',(-11.3137084989848,11.3137084989848,8.));
#454=CARTESIAN_POINT('',(-9.61370849898476,11.3137084989848,8.));
#455=CARTESIAN_POINT('',(-11.3137084989848,-11.3137084989848,12.));
#456=CARTESIAN_POINT('',(-11.3137084989848,-11.3137084989848,12.));
#457=CARTESIAN_POINT('',(-9.61370849898476,-11.3137084989848,12.));
#458=CARTESIAN_POINT('',(-11.3137084989848,-11.3137084989848,8.));
#459=CARTESIAN_POINT('',(-9.61370849898476,-11.3137084989848,8.));
#460=CARTESIAN_POINT('',(11.3137084989848,-11.3137084989848,12.));
#461=CARTESIAN_POINT('',(11.3137084989848,-11.3137084989848,12.));
#462=CARTESIAN_POINT('',(13.0137084989848,-11.3137084989848,12.));
#463=CARTESIAN_POINT('',(11.3137084989848,-11.3137084989848,8.));
#464=CARTESIAN_POINT('',(13.0137084989848,-11.3137084989848,8.));
#465=CARTESIAN_POINT('',(-23.,-43.,12.));
#466=CARTESIAN_POINT('',(-23.,-43.,12.));
#467=CARTESIAN_POINT('',(-21.3,-43.,12.));
#468=CARTESIAN_POINT('',(-23.,-43.,8.));
#469=CARTESIAN_POINT('',(-21.3,-43.,8.));
#470=CARTESIAN_POINT('',(23.,-43.,12.));
#471=CARTESIAN_POINT('',(23.,-43.,12.));
#472=CARTESIAN_POINT('',(24.7,-43.,12.));
#473=CARTESIAN_POINT('',(23.,-43.,8.));
#474=CARTESIAN_POINT('',(24.7,-43.,8.));
#475=CARTESIAN_POINT('',(-23.,18.,12.));
#476=CARTESIAN_POINT('',(-23.,18.,12.));
#477=CARTESIAN_POINT('',(-21.3,18.,12.));
#478=CARTESIAN_POINT('',(-23.,18.,8.));
#479=CARTESIAN_POINT('',(-21.3,18.,8.));
#480=CARTESIAN_POINT('',(23.,18.,12.));
#481=CARTESIAN_POINT('',(23.,18.,12.));
#482=CARTESIAN_POINT('',(24.7,18.,12.));
#483=CARTESIAN_POINT('',(23.,18.,8.));
#484=CARTESIAN_POINT('',(24.7,18.,8.));
#485=CARTESIAN_POINT('',(28.,24.,12.));
#486=CARTESIAN_POINT('',(28.,24.,8.));
#487=CARTESIAN_POINT('',(28.,24.,12.));
#488=CARTESIAN_POINT('',(0.,0.,12.));
#489=CARTESIAN_POINT('',(0.,0.,8.));
#490=MECHANICAL_DESIGN_GEOMETRIC_PRESENTATION_REPRESENTATION('',(#293),
#491);
#491=(
GEOMETRIC_REPRESENTATION_CONTEXT(3)
GLOBAL_UNCERTAINTY_ASSIGNED_CONTEXT((#492))
GLOBAL_UNIT_ASSIGNED_CONTEXT((#495,#494,#493))
REPRESENTATION_CONTEXT('A08_tool_mount','TOP_LEVEL_ASSEMBLY_PART')
);
#492=UNCERTAINTY_MEASURE_WITH_UNIT(LENGTH_MEASURE(0.005),#495,
'DISTANCE_ACCURACY_VALUE','Maximum Tolerance applied to model');
#493=(
NAMED_UNIT(*)
SI_UNIT($,.STERADIAN.)
SOLID_ANGLE_UNIT()
);
#494=(
NAMED_UNIT(*)
PLANE_ANGLE_UNIT()
SI_UNIT($,.RADIAN.)
);
#495=(
LENGTH_UNIT()
NAMED_UNIT(*)
SI_UNIT(.MILLI.,.METRE.)
);
#496=PRODUCT_DEFINITION_SHAPE('','',#497);
#497=PRODUCT_DEFINITION('','',#499,#498);
#498=PRODUCT_DEFINITION_CONTEXT('',#505,'design');
#499=PRODUCT_DEFINITION_FORMATION_WITH_SPECIFIED_SOURCE('','',#501,
 .NOT_KNOWN.);
#500=PRODUCT_RELATED_PRODUCT_CATEGORY('','',(#501));
#501=PRODUCT('A08_tool_mount','A08_tool_mount','A08_tool_mount',(#503));
#502=PRODUCT_CATEGORY('','');
#503=PRODUCT_CONTEXT('',#505,'mechanical');
#504=APPLICATION_PROTOCOL_DEFINITION('international standard',
'automotive_design',2010,#505);
#505=APPLICATION_CONTEXT(
'core data for automotive mechanical design processes');
ENDSEC;
END-ISO-10303-21;
