ISO-10303-21;
HEADER;
/* Generated by software containing ST-Developer
 * from STEP Tools, Inc. (www.steptools.com) 
 */
/* OPTION: strings as raw bytes, not using required /X/ escapes */

FILE_DESCRIPTION(
/* description */ ('Unknown'),
/* implementation_level */ '2;1');

FILE_NAME(
/* name */ 'A09_left_wrist_rotor_platform',
/* time_stamp */ '2026-09-23T12:06:42+08:00',
/* author */ ('Unknown'),
/* organization */ ('Unknown'),
/* preprocessor_version */ 'ST-DEVELOPER v16.7',
/* originating_system */ 'Solid Edge',
/* authorisation */ 'Unknown');

FILE_SCHEMA (('AUTOMOTIVE_DESIGN {1 0 10303 214 3 1 1}'));
ENDSEC;

DATA;
#10=PROPERTY_DEFINITION_REPRESENTATION(#14,#12);
#11=PROPERTY_DEFINITION_REPRESENTATION(#15,#13);
#12=REPRESENTATION('',(#16),#557);
#13=REPRESENTATION('',(#17),#557);
#14=PROPERTY_DEFINITION('pmi validation property','',#562);
#15=PROPERTY_DEFINITION('pmi validation property','',#562);
#16=VALUE_REPRESENTATION_ITEM('number of annotations',COUNT_MEASURE(0.));
#17=VALUE_REPRESENTATION_ITEM('number of views',COUNT_MEASURE(0.));
#18=SHAPE_REPRESENTATION_RELATIONSHIP('','',#345,#19);
#19=ADVANCED_BREP_SHAPE_REPRESENTATION('',(#343),#557);
#20=CYLINDRICAL_SURFACE('',#354,12.);
#21=CYLINDRICAL_SURFACE('',#357,1.7);
#22=CYLINDRICAL_SURFACE('',#360,1.7);
#23=CYLINDRICAL_SURFACE('',#363,1.7);
#24=CYLINDRICAL_SURFACE('',#366,1.7);
#25=CYLINDRICAL_SURFACE('',#378,1.7);
#26=CYLINDRICAL_SURFACE('',#379,1.7);
#27=CYLINDRICAL_SURFACE('',#380,1.7);
#28=CYLINDRICAL_SURFACE('',#381,1.7);
#29=LINE('',#482,#47);
#30=LINE('',#485,#48);
#31=LINE('',#487,#49);
#32=LINE('',#489,#50);
#33=LINE('',#491,#51);
#34=LINE('',#493,#52);
#35=LINE('',#495,#53);
#36=LINE('',#497,#54);
#37=LINE('',#499,#55);
#38=LINE('',#501,#56);
#39=LINE('',#503,#57);
#40=LINE('',#505,#58);
#41=LINE('',#532,#59);
#42=LINE('',#533,#60);
#43=LINE('',#535,#61);
#44=LINE('',#537,#62);
#45=LINE('',#539,#63);
#46=LINE('',#550,#64);
#47=VECTOR('',#394,1000.);
#48=VECTOR('',#395,1000.);
#49=VECTOR('',#396,1000.);
#50=VECTOR('',#397,1000.);
#51=VECTOR('',#400,1000.);
#52=VECTOR('',#401,1000.);
#53=VECTOR('',#402,1000.);
#54=VECTOR('',#403,1000.);
#55=VECTOR('',#404,1000.);
#56=VECTOR('',#407,1000.);
#57=VECTOR('',#408,1000.);
#58=VECTOR('',#409,1000.);
#59=VECTOR('',#442,1000.);
#60=VECTOR('',#443,1000.);
#61=VECTOR('',#444,1000.);
#62=VECTOR('',#445,1000.);
#63=VECTOR('',#448,1000.);
#64=VECTOR('',#461,1000.);
#65=ORIENTED_EDGE('',*,*,#137,.T.);
#66=ORIENTED_EDGE('',*,*,#138,.T.);
#67=ORIENTED_EDGE('',*,*,#139,.T.);
#68=ORIENTED_EDGE('',*,*,#140,.T.);
#69=ORIENTED_EDGE('',*,*,#141,.T.);
#70=ORIENTED_EDGE('',*,*,#142,.F.);
#71=ORIENTED_EDGE('',*,*,#143,.F.);
#72=ORIENTED_EDGE('',*,*,#144,.T.);
#73=ORIENTED_EDGE('',*,*,#145,.T.);
#74=ORIENTED_EDGE('',*,*,#146,.F.);
#75=ORIENTED_EDGE('',*,*,#147,.F.);
#76=ORIENTED_EDGE('',*,*,#148,.F.);
#77=ORIENTED_EDGE('',*,*,#149,.F.);
#78=ORIENTED_EDGE('',*,*,#142,.T.);
#79=ORIENTED_EDGE('',*,*,#150,.T.);
#80=ORIENTED_EDGE('',*,*,#151,.F.);
#81=ORIENTED_EDGE('',*,*,#152,.F.);
#82=ORIENTED_EDGE('',*,*,#146,.T.);
#83=ORIENTED_EDGE('',*,*,#153,.T.);
#84=ORIENTED_EDGE('',*,*,#154,.F.);
#85=ORIENTED_EDGE('',*,*,#155,.T.);
#86=ORIENTED_EDGE('',*,*,#156,.F.);
#87=ORIENTED_EDGE('',*,*,#157,.T.);
#88=ORIENTED_EDGE('',*,*,#158,.F.);
#89=ORIENTED_EDGE('',*,*,#159,.T.);
#90=ORIENTED_EDGE('',*,*,#160,.F.);
#91=ORIENTED_EDGE('',*,*,#161,.T.);
#92=ORIENTED_EDGE('',*,*,#162,.F.);
#93=ORIENTED_EDGE('',*,*,#163,.T.);
#94=ORIENTED_EDGE('',*,*,#144,.F.);
#95=ORIENTED_EDGE('',*,*,#164,.F.);
#96=ORIENTED_EDGE('',*,*,#165,.T.);
#97=ORIENTED_EDGE('',*,*,#166,.F.);
#98=ORIENTED_EDGE('',*,*,#151,.T.);
#99=ORIENTED_EDGE('',*,*,#167,.F.);
#100=ORIENTED_EDGE('',*,*,#147,.T.);
#101=ORIENTED_EDGE('',*,*,#152,.T.);
#102=ORIENTED_EDGE('',*,*,#166,.T.);
#103=ORIENTED_EDGE('',*,*,#161,.F.);
#104=ORIENTED_EDGE('',*,*,#159,.F.);
#105=ORIENTED_EDGE('',*,*,#157,.F.);
#106=ORIENTED_EDGE('',*,*,#155,.F.);
#107=ORIENTED_EDGE('',*,*,#153,.F.);
#108=ORIENTED_EDGE('',*,*,#162,.T.);
#109=ORIENTED_EDGE('',*,*,#160,.T.);
#110=ORIENTED_EDGE('',*,*,#158,.T.);
#111=ORIENTED_EDGE('',*,*,#156,.T.);
#112=ORIENTED_EDGE('',*,*,#154,.T.);
#113=ORIENTED_EDGE('',*,*,#141,.F.);
#114=ORIENTED_EDGE('',*,*,#163,.F.);
#115=ORIENTED_EDGE('',*,*,#150,.F.);
#116=ORIENTED_EDGE('',*,*,#145,.F.);
#117=ORIENTED_EDGE('',*,*,#168,.F.);
#118=ORIENTED_EDGE('',*,*,#169,.F.);
#119=ORIENTED_EDGE('',*,*,#170,.F.);
#120=ORIENTED_EDGE('',*,*,#171,.F.);
#121=ORIENTED_EDGE('',*,*,#167,.T.);
#122=ORIENTED_EDGE('',*,*,#165,.F.);
#123=ORIENTED_EDGE('',*,*,#172,.F.);
#124=ORIENTED_EDGE('',*,*,#148,.T.);
#125=ORIENTED_EDGE('',*,*,#143,.T.);
#126=ORIENTED_EDGE('',*,*,#149,.T.);
#127=ORIENTED_EDGE('',*,*,#172,.T.);
#128=ORIENTED_EDGE('',*,*,#164,.T.);
#129=ORIENTED_EDGE('',*,*,#171,.T.);
#130=ORIENTED_EDGE('',*,*,#140,.F.);
#131=ORIENTED_EDGE('',*,*,#170,.T.);
#132=ORIENTED_EDGE('',*,*,#139,.F.);
#133=ORIENTED_EDGE('',*,*,#169,.T.);
#134=ORIENTED_EDGE('',*,*,#138,.F.);
#135=ORIENTED_EDGE('',*,*,#168,.T.);
#136=ORIENTED_EDGE('',*,*,#137,.F.);
#137=EDGE_CURVE('',#173,#173,#203,.T.);
#138=EDGE_CURVE('',#174,#174,#204,.T.);
#139=EDGE_CURVE('',#175,#175,#205,.T.);
#140=EDGE_CURVE('',#176,#176,#206,.T.);
#141=EDGE_CURVE('',#177,#178,#29,.T.);
#142=EDGE_CURVE('',#179,#178,#30,.T.);
#143=EDGE_CURVE('',#180,#179,#31,.T.);
#144=EDGE_CURVE('',#180,#177,#32,.T.);
#145=EDGE_CURVE('',#178,#181,#33,.T.);
#146=EDGE_CURVE('',#182,#181,#34,.T.);
#147=EDGE_CURVE('',#183,#182,#35,.T.);
#148=EDGE_CURVE('',#184,#183,#36,.T.);
#149=EDGE_CURVE('',#179,#184,#37,.T.);
#150=EDGE_CURVE('',#181,#185,#38,.T.);
#151=EDGE_CURVE('',#186,#185,#39,.T.);
#152=EDGE_CURVE('',#182,#186,#40,.T.);
#153=EDGE_CURVE('',#187,#187,#207,.T.);
#154=EDGE_CURVE('',#188,#188,#208,.T.);
#155=EDGE_CURVE('',#189,#189,#209,.T.);
#156=EDGE_CURVE('',#190,#190,#210,.T.);
#157=EDGE_CURVE('',#191,#191,#211,.T.);
#158=EDGE_CURVE('',#192,#192,#212,.T.);
#159=EDGE_CURVE('',#193,#193,#213,.T.);
#160=EDGE_CURVE('',#194,#194,#214,.T.);
#161=EDGE_CURVE('',#195,#195,#215,.T.);
#162=EDGE_CURVE('',#196,#196,#216,.T.);
#163=EDGE_CURVE('',#185,#177,#41,.T.);
#164=EDGE_CURVE('',#197,#180,#42,.T.);
#165=EDGE_CURVE('',#197,#198,#43,.T.);
#166=EDGE_CURVE('',#186,#198,#44,.T.);
#167=EDGE_CURVE('',#183,#198,#45,.T.);
#168=EDGE_CURVE('',#199,#199,#217,.T.);
#169=EDGE_CURVE('',#200,#200,#218,.T.);
#170=EDGE_CURVE('',#201,#201,#219,.T.);
#171=EDGE_CURVE('',#202,#202,#220,.T.);
#172=EDGE_CURVE('',#184,#197,#46,.T.);
#173=VERTEX_POINT('',#475);
#174=VERTEX_POINT('',#477);
#175=VERTEX_POINT('',#479);
#176=VERTEX_POINT('',#481);
#177=VERTEX_POINT('',#483);
#178=VERTEX_POINT('',#484);
#179=VERTEX_POINT('',#486);
#180=VERTEX_POINT('',#488);
#181=VERTEX_POINT('',#492);
#182=VERTEX_POINT('',#494);
#183=VERTEX_POINT('',#496);
#184=VERTEX_POINT('',#498);
#185=VERTEX_POINT('',#502);
#186=VERTEX_POINT('',#504);
#187=VERTEX_POINT('',#508);
#188=VERTEX_POINT('',#510);
#189=VERTEX_POINT('',#513);
#190=VERTEX_POINT('',#515);
#191=VERTEX_POINT('',#518);
#192=VERTEX_POINT('',#520);
#193=VERTEX_POINT('',#523);
#194=VERTEX_POINT('',#525);
#195=VERTEX_POINT('',#528);
#196=VERTEX_POINT('',#530);
#197=VERTEX_POINT('',#534);
#198=VERTEX_POINT('',#536);
#199=VERTEX_POINT('',#543);
#200=VERTEX_POINT('',#545);
#201=VERTEX_POINT('',#547);
#202=VERTEX_POINT('',#549);
#203=CIRCLE('',#348,1.7);
#204=CIRCLE('',#349,1.7);
#205=CIRCLE('',#350,1.7);
#206=CIRCLE('',#351,1.7);
#207=CIRCLE('',#355,12.);
#208=CIRCLE('',#356,12.);
#209=CIRCLE('',#358,1.7);
#210=CIRCLE('',#359,1.7);
#211=CIRCLE('',#361,1.7);
#212=CIRCLE('',#362,1.7);
#213=CIRCLE('',#364,1.7);
#214=CIRCLE('',#365,1.7);
#215=CIRCLE('',#367,1.7);
#216=CIRCLE('',#368,1.7);
#217=CIRCLE('',#373,1.7);
#218=CIRCLE('',#374,1.7);
#219=CIRCLE('',#375,1.7);
#220=CIRCLE('',#376,1.7);
#221=EDGE_LOOP('',(#65));
#222=EDGE_LOOP('',(#66));
#223=EDGE_LOOP('',(#67));
#224=EDGE_LOOP('',(#68));
#225=EDGE_LOOP('',(#69,#70,#71,#72));
#226=EDGE_LOOP('',(#73,#74,#75,#76,#77,#78));
#227=EDGE_LOOP('',(#79,#80,#81,#82));
#228=EDGE_LOOP('',(#83));
#229=EDGE_LOOP('',(#84));
#230=EDGE_LOOP('',(#85));
#231=EDGE_LOOP('',(#86));
#232=EDGE_LOOP('',(#87));
#233=EDGE_LOOP('',(#88));
#234=EDGE_LOOP('',(#89));
#235=EDGE_LOOP('',(#90));
#236=EDGE_LOOP('',(#91));
#237=EDGE_LOOP('',(#92));
#238=EDGE_LOOP('',(#93,#94,#95,#96,#97,#98));
#239=EDGE_LOOP('',(#99,#100,#101,#102));
#240=EDGE_LOOP('',(#103));
#241=EDGE_LOOP('',(#104));
#242=EDGE_LOOP('',(#105));
#243=EDGE_LOOP('',(#106));
#244=EDGE_LOOP('',(#107));
#245=EDGE_LOOP('',(#108));
#246=EDGE_LOOP('',(#109));
#247=EDGE_LOOP('',(#110));
#248=EDGE_LOOP('',(#111));
#249=EDGE_LOOP('',(#112));
#250=EDGE_LOOP('',(#113,#114,#115,#116));
#251=EDGE_LOOP('',(#117));
#252=EDGE_LOOP('',(#118));
#253=EDGE_LOOP('',(#119));
#254=EDGE_LOOP('',(#120));
#255=EDGE_LOOP('',(#121,#122,#123,#124));
#256=EDGE_LOOP('',(#125,#126,#127,#128));
#257=EDGE_LOOP('',(#129));
#258=EDGE_LOOP('',(#130));
#259=EDGE_LOOP('',(#131));
#260=EDGE_LOOP('',(#132));
#261=EDGE_LOOP('',(#133));
#262=EDGE_LOOP('',(#134));
#263=EDGE_LOOP('',(#135));
#264=EDGE_LOOP('',(#136));
#265=FACE_BOUND('',#221,.T.);
#266=FACE_BOUND('',#222,.T.);
#267=FACE_BOUND('',#223,.T.);
#268=FACE_BOUND('',#224,.T.);
#269=FACE_BOUND('',#225,.T.);
#270=FACE_BOUND('',#226,.T.);
#271=FACE_BOUND('',#227,.T.);
#272=FACE_BOUND('',#228,.T.);
#273=FACE_BOUND('',#229,.T.);
#274=FACE_BOUND('',#230,.T.);
#275=FACE_BOUND('',#231,.T.);
#276=FACE_BOUND('',#232,.T.);
#277=FACE_BOUND('',#233,.T.);
#278=FACE_BOUND('',#234,.T.);
#279=FACE_BOUND('',#235,.T.);
#280=FACE_BOUND('',#236,.T.);
#281=FACE_BOUND('',#237,.T.);
#282=FACE_BOUND('',#238,.T.);
#283=FACE_BOUND('',#239,.T.);
#284=FACE_BOUND('',#240,.T.);
#285=FACE_BOUND('',#241,.T.);
#286=FACE_BOUND('',#242,.T.);
#287=FACE_BOUND('',#243,.T.);
#288=FACE_BOUND('',#244,.T.);
#289=FACE_BOUND('',#245,.T.);
#290=FACE_BOUND('',#246,.T.);
#291=FACE_BOUND('',#247,.T.);
#292=FACE_BOUND('',#248,.T.);
#293=FACE_BOUND('',#249,.T.);
#294=FACE_BOUND('',#250,.T.);
#295=FACE_BOUND('',#251,.T.);
#296=FACE_BOUND('',#252,.T.);
#297=FACE_BOUND('',#253,.T.);
#298=FACE_BOUND('',#254,.T.);
#299=FACE_BOUND('',#255,.T.);
#300=FACE_BOUND('',#256,.T.);
#301=FACE_BOUND('',#257,.T.);
#302=FACE_BOUND('',#258,.T.);
#303=FACE_BOUND('',#259,.T.);
#304=FACE_BOUND('',#260,.T.);
#305=FACE_BOUND('',#261,.T.);
#306=FACE_BOUND('',#262,.T.);
#307=FACE_BOUND('',#263,.T.);
#308=FACE_BOUND('',#264,.T.);
#309=PLANE('',#347);
#310=PLANE('',#352);
#311=PLANE('',#353);
#312=PLANE('',#369);
#313=PLANE('',#370);
#314=PLANE('',#371);
#315=PLANE('',#372);
#316=PLANE('',#377);
#317=ADVANCED_FACE('',(#265,#266,#267,#268,#269),#309,.F.);
#318=ADVANCED_FACE('',(#270),#310,.F.);
#319=ADVANCED_FACE('',(#271),#311,.F.);
#320=ADVANCED_FACE('',(#272,#273),#20,.F.);
#321=ADVANCED_FACE('',(#274,#275),#21,.F.);
#322=ADVANCED_FACE('',(#276,#277),#22,.F.);
#323=ADVANCED_FACE('',(#278,#279),#23,.F.);
#324=ADVANCED_FACE('',(#280,#281),#24,.F.);
#325=ADVANCED_FACE('',(#282),#312,.F.);
#326=ADVANCED_FACE('',(#283,#284,#285,#286,#287,#288),#313,.T.);
#327=ADVANCED_FACE('',(#289,#290,#291,#292,#293,#294),#314,.F.);
#328=ADVANCED_FACE('',(#295,#296,#297,#298,#299),#315,.F.);
#329=ADVANCED_FACE('',(#300),#316,.T.);
#330=ADVANCED_FACE('',(#301,#302),#25,.F.);
#331=ADVANCED_FACE('',(#303,#304),#26,.F.);
#332=ADVANCED_FACE('',(#305,#306),#27,.F.);
#333=ADVANCED_FACE('',(#307,#308),#28,.F.);
#334=CLOSED_SHELL('',(#317,#318,#319,#320,#321,#322,#323,#324,#325,#326,
#327,#328,#329,#330,#331,#332,#333));
#335=STYLED_ITEM('',(#336),#343);
#336=PRESENTATION_STYLE_ASSIGNMENT((#337));
#337=SURFACE_STYLE_USAGE(.BOTH.,#338);
#338=SURFACE_SIDE_STYLE('',(#339));
#339=SURFACE_STYLE_FILL_AREA(#340);
#340=FILL_AREA_STYLE('',(#341));
#341=FILL_AREA_STYLE_COLOUR('',#342);
#342=COLOUR_RGB('',0.100000001490116,0.349999994039536,0.280000001192093);
#343=MANIFOLD_SOLID_BREP('',#334);
#344=SHAPE_DEFINITION_REPRESENTATION(#562,#345);
#345=SHAPE_REPRESENTATION('A09_left_wrist_rotor_platform',(#346),#557);
#346=AXIS2_PLACEMENT_3D('',#472,#382,#383);
#347=AXIS2_PLACEMENT_3D('',#473,#384,#385);
#348=AXIS2_PLACEMENT_3D('',#474,#386,#387);
#349=AXIS2_PLACEMENT_3D('',#476,#388,#389);
#350=AXIS2_PLACEMENT_3D('',#478,#390,#391);
#351=AXIS2_PLACEMENT_3D('',#480,#392,#393);
#352=AXIS2_PLACEMENT_3D('',#490,#398,#399);
#353=AXIS2_PLACEMENT_3D('',#500,#405,#406);
#354=AXIS2_PLACEMENT_3D('',#506,#410,#411);
#355=AXIS2_PLACEMENT_3D('',#507,#412,#413);
#356=AXIS2_PLACEMENT_3D('',#509,#414,#415);
#357=AXIS2_PLACEMENT_3D('',#511,#416,#417);
#358=AXIS2_PLACEMENT_3D('',#512,#418,#419);
#359=AXIS2_PLACEMENT_3D('',#514,#420,#421);
#360=AXIS2_PLACEMENT_3D('',#516,#422,#423);
#361=AXIS2_PLACEMENT_3D('',#517,#424,#425);
#362=AXIS2_PLACEMENT_3D('',#519,#426,#427);
#363=AXIS2_PLACEMENT_3D('',#521,#428,#429);
#364=AXIS2_PLACEMENT_3D('',#522,#430,#431);
#365=AXIS2_PLACEMENT_3D('',#524,#432,#433);
#366=AXIS2_PLACEMENT_3D('',#526,#434,#435);
#367=AXIS2_PLACEMENT_3D('',#527,#436,#437);
#368=AXIS2_PLACEMENT_3D('',#529,#438,#439);
#369=AXIS2_PLACEMENT_3D('',#531,#440,#441);
#370=AXIS2_PLACEMENT_3D('',#538,#446,#447);
#371=AXIS2_PLACEMENT_3D('',#540,#449,#450);
#372=AXIS2_PLACEMENT_3D('',#541,#451,#452);
#373=AXIS2_PLACEMENT_3D('',#542,#453,#454);
#374=AXIS2_PLACEMENT_3D('',#544,#455,#456);
#375=AXIS2_PLACEMENT_3D('',#546,#457,#458);
#376=AXIS2_PLACEMENT_3D('',#548,#459,#460);
#377=AXIS2_PLACEMENT_3D('',#551,#462,#463);
#378=AXIS2_PLACEMENT_3D('',#552,#464,#465);
#379=AXIS2_PLACEMENT_3D('',#553,#466,#467);
#380=AXIS2_PLACEMENT_3D('',#554,#468,#469);
#381=AXIS2_PLACEMENT_3D('',#555,#470,#471);
#382=DIRECTION('',(0.,0.,1.));
#383=DIRECTION('',(1.,0.,0.));
#384=DIRECTION('',(1.,0.,0.));
#385=DIRECTION('',(0.,0.,-1.));
#386=DIRECTION('',(1.,-6.12303176911189E-17,0.));
#387=DIRECTION('',(6.12303176911189E-17,1.,0.));
#388=DIRECTION('',(1.,-6.12303176911189E-17,0.));
#389=DIRECTION('',(6.12303176911189E-17,1.,0.));
#390=DIRECTION('',(1.,-6.12303176911189E-17,0.));
#391=DIRECTION('',(6.12303176911189E-17,1.,0.));
#392=DIRECTION('',(1.,-6.12303176911189E-17,0.));
#393=DIRECTION('',(6.12303176911189E-17,1.,0.));
#394=DIRECTION('',(0.,-1.,0.));
#395=DIRECTION('',(0.,0.,-1.));
#396=DIRECTION('',(0.,-1.,0.));
#397=DIRECTION('',(0.,0.,-1.));
#398=DIRECTION('',(0.,1.,0.));
#399=DIRECTION('',(0.,0.,1.));
#400=DIRECTION('',(1.,0.,0.));
#401=DIRECTION('',(0.,0.,-1.));
#402=DIRECTION('',(1.,0.,0.));
#403=DIRECTION('',(0.,0.,-1.));
#404=DIRECTION('',(1.,0.,0.));
#405=DIRECTION('',(-1.,0.,0.));
#406=DIRECTION('',(0.,0.,1.));
#407=DIRECTION('',(0.,1.,0.));
#408=DIRECTION('',(0.,0.,-1.));
#409=DIRECTION('',(0.,1.,0.));
#410=DIRECTION('',(0.,0.,-1.));
#411=DIRECTION('',(-1.,0.,0.));
#412=DIRECTION('',(0.,0.,1.));
#413=DIRECTION('',(1.,0.,0.));
#414=DIRECTION('',(0.,0.,1.));
#415=DIRECTION('',(1.,0.,0.));
#416=DIRECTION('',(0.,0.,-1.));
#417=DIRECTION('',(-1.,0.,0.));
#418=DIRECTION('',(0.,0.,1.));
#419=DIRECTION('',(1.,0.,0.));
#420=DIRECTION('',(0.,0.,1.));
#421=DIRECTION('',(1.,0.,0.));
#422=DIRECTION('',(0.,0.,-1.));
#423=DIRECTION('',(-1.,0.,0.));
#424=DIRECTION('',(0.,0.,1.));
#425=DIRECTION('',(1.,0.,0.));
#426=DIRECTION('',(0.,0.,1.));
#427=DIRECTION('',(1.,0.,0.));
#428=DIRECTION('',(0.,0.,-1.));
#429=DIRECTION('',(-1.,0.,0.));
#430=DIRECTION('',(0.,0.,1.));
#431=DIRECTION('',(1.,0.,0.));
#432=DIRECTION('',(0.,0.,1.));
#433=DIRECTION('',(1.,0.,0.));
#434=DIRECTION('',(0.,0.,-1.));
#435=DIRECTION('',(-1.,0.,0.));
#436=DIRECTION('',(0.,0.,1.));
#437=DIRECTION('',(1.,0.,0.));
#438=DIRECTION('',(0.,0.,1.));
#439=DIRECTION('',(1.,0.,0.));
#440=DIRECTION('',(0.,-1.,0.));
#441=DIRECTION('',(0.,0.,-1.));
#442=DIRECTION('',(-1.,0.,0.));
#443=DIRECTION('',(-1.,0.,0.));
#444=DIRECTION('',(0.,0.,-1.));
#445=DIRECTION('',(-1.,0.,0.));
#446=DIRECTION('',(0.,0.,1.));
#447=DIRECTION('',(1.,0.,0.));
#448=DIRECTION('',(0.,1.,0.));
#449=DIRECTION('',(0.,0.,1.));
#450=DIRECTION('',(1.,0.,0.));
#451=DIRECTION('',(-1.,0.,0.));
#452=DIRECTION('',(0.,0.,1.));
#453=DIRECTION('',(1.,-6.12303176911189E-17,0.));
#454=DIRECTION('',(6.12303176911189E-17,1.,0.));
#455=DIRECTION('',(1.,-6.12303176911189E-17,0.));
#456=DIRECTION('',(6.12303176911189E-17,1.,0.));
#457=DIRECTION('',(1.,-6.12303176911189E-17,0.));
#458=DIRECTION('',(6.12303176911189E-17,1.,0.));
#459=DIRECTION('',(1.,-6.12303176911189E-17,0.));
#460=DIRECTION('',(6.12303176911189E-17,1.,0.));
#461=DIRECTION('',(0.,1.,0.));
#462=DIRECTION('',(0.,0.,1.));
#463=DIRECTION('',(1.,0.,0.));
#464=DIRECTION('',(-1.,0.,0.));
#465=DIRECTION('',(0.,0.,1.));
#466=DIRECTION('',(-1.,0.,0.));
#467=DIRECTION('',(0.,0.,1.));
#468=DIRECTION('',(-1.,0.,0.));
#469=DIRECTION('',(0.,0.,1.));
#470=DIRECTION('',(-1.,0.,0.));
#471=DIRECTION('',(0.,0.,1.));
#472=CARTESIAN_POINT('',(0.,0.,0.));
#473=CARTESIAN_POINT('',(-40.,24.,12.));
#474=CARTESIAN_POINT('',(-40.,18.,17.));
#475=CARTESIAN_POINT('',(-40.,19.7,17.));
#476=CARTESIAN_POINT('',(-40.,18.,63.));
#477=CARTESIAN_POINT('',(-40.,19.7,63.));
#478=CARTESIAN_POINT('',(-40.,-43.,17.));
#479=CARTESIAN_POINT('',(-40.,-41.3,17.));
#480=CARTESIAN_POINT('',(-40.,-43.,63.));
#481=CARTESIAN_POINT('',(-40.,-41.3,63.));
#482=CARTESIAN_POINT('',(-40.,24.,8.));
#483=CARTESIAN_POINT('',(-40.,24.,8.));
#484=CARTESIAN_POINT('',(-40.,-49.,8.));
#485=CARTESIAN_POINT('',(-40.,-49.,12.));
#486=CARTESIAN_POINT('',(-40.,-49.,68.));
#487=CARTESIAN_POINT('',(-40.,24.,68.));
#488=CARTESIAN_POINT('',(-40.,24.,68.));
#489=CARTESIAN_POINT('',(-40.,24.,12.));
#490=CARTESIAN_POINT('',(-40.,-49.,12.));
#491=CARTESIAN_POINT('',(-40.,-49.,8.));
#492=CARTESIAN_POINT('',(28.,-49.,8.));
#493=CARTESIAN_POINT('',(28.,-49.,12.));
#494=CARTESIAN_POINT('',(28.,-49.,12.));
#495=CARTESIAN_POINT('',(-40.,-49.,12.));
#496=CARTESIAN_POINT('',(-34.,-49.,12.));
#497=CARTESIAN_POINT('',(-34.,-49.,68.));
#498=CARTESIAN_POINT('',(-34.,-49.,68.));
#499=CARTESIAN_POINT('',(-40.,-49.,68.));
#500=CARTESIAN_POINT('',(28.,-49.,12.));
#501=CARTESIAN_POINT('',(28.,-49.,8.));
#502=CARTESIAN_POINT('',(28.,24.,8.));
#503=CARTESIAN_POINT('',(28.,24.,12.));
#504=CARTESIAN_POINT('',(28.,24.,12.));
#505=CARTESIAN_POINT('',(28.,-49.,12.));
#506=CARTESIAN_POINT('',(0.,0.,12.));
#507=CARTESIAN_POINT('',(0.,0.,12.));
#508=CARTESIAN_POINT('',(12.,0.,12.));
#509=CARTESIAN_POINT('',(0.,0.,8.));
#510=CARTESIAN_POINT('',(12.,0.,8.));
#511=CARTESIAN_POINT('',(11.3137084989848,11.3137084989848,12.));
#512=CARTESIAN_POINT('',(11.3137084989848,11.3137084989848,12.));
#513=CARTESIAN_POINT('',(13.0137084989848,11.3137084989848,12.));
#514=CARTESIAN_POINT('',(11.3137084989848,11.3137084989848,8.));
#515=CARTESIAN_POINT('',(13.0137084989848,11.3137084989848,8.));
#516=CARTESIAN_POINT('',(-11.3137084989848,11.3137084989848,12.));
#517=CARTESIAN_POINT('',(-11.3137084989848,11.3137084989848,12.));
#518=CARTESIAN_POINT('',(-9.61370849898476,11.3137084989848,12.));
#519=CARTESIAN_POINT('',(-11.3137084989848,11.3137084989848,8.));
#520=CARTESIAN_POINT('',(-9.61370849898476,11.3137084989848,8.));
#521=CARTESIAN_POINT('',(-11.3137084989848,-11.3137084989848,12.));
#522=CARTESIAN_POINT('',(-11.3137084989848,-11.3137084989848,12.));
#523=CARTESIAN_POINT('',(-9.61370849898476,-11.3137084989848,12.));
#524=CARTESIAN_POINT('',(-11.3137084989848,-11.3137084989848,8.));
#525=CARTESIAN_POINT('',(-9.61370849898476,-11.3137084989848,8.));
#526=CARTESIAN_POINT('',(11.3137084989848,-11.3137084989848,12.));
#527=CARTESIAN_POINT('',(11.3137084989848,-11.3137084989848,12.));
#528=CARTESIAN_POINT('',(13.0137084989848,-11.3137084989848,12.));
#529=CARTESIAN_POINT('',(11.3137084989848,-11.3137084989848,8.));
#530=CARTESIAN_POINT('',(13.0137084989848,-11.3137084989848,8.));
#531=CARTESIAN_POINT('',(28.,24.,12.));
#532=CARTESIAN_POINT('',(28.,24.,8.));
#533=CARTESIAN_POINT('',(-34.,24.,68.));
#534=CARTESIAN_POINT('',(-34.,24.,68.));
#535=CARTESIAN_POINT('',(-34.,24.,68.));
#536=CARTESIAN_POINT('',(-34.,24.,12.));
#537=CARTESIAN_POINT('',(28.,24.,12.));
#538=CARTESIAN_POINT('',(0.,0.,12.));
#539=CARTESIAN_POINT('',(-34.,-49.,12.));
#540=CARTESIAN_POINT('',(0.,0.,8.));
#541=CARTESIAN_POINT('',(-34.,-49.,68.));
#542=CARTESIAN_POINT('',(-34.,18.,17.));
#543=CARTESIAN_POINT('',(-34.,19.7,17.));
#544=CARTESIAN_POINT('',(-34.,18.,63.));
#545=CARTESIAN_POINT('',(-34.,19.7,63.));
#546=CARTESIAN_POINT('',(-34.,-43.,17.));
#547=CARTESIAN_POINT('',(-34.,-41.3,17.));
#548=CARTESIAN_POINT('',(-34.,-43.,63.));
#549=CARTESIAN_POINT('',(-34.,-41.3,63.));
#550=CARTESIAN_POINT('',(-34.,-49.,68.));
#551=CARTESIAN_POINT('',(0.,0.,68.));
#552=CARTESIAN_POINT('',(-34.,-43.,63.));
#553=CARTESIAN_POINT('',(-34.,-43.,17.));
#554=CARTESIAN_POINT('',(-34.,18.,63.));
#555=CARTESIAN_POINT('',(-34.,18.,17.));
#556=MECHANICAL_DESIGN_GEOMETRIC_PRESENTATION_REPRESENTATION('',(#335),
#557);
#557=(
GEOMETRIC_REPRESENTATION_CONTEXT(3)
GLOBAL_UNCERTAINTY_ASSIGNED_CONTEXT((#558))
GLOBAL_UNIT_ASSIGNED_CONTEXT((#561,#560,#559))
REPRESENTATION_CONTEXT('A09_left_wrist_rotor_platform',
'TOP_LEVEL_ASSEMBLY_PART')
);
#558=UNCERTAINTY_MEASURE_WITH_UNIT(LENGTH_MEASURE(0.005),#561,
'DISTANCE_ACCURACY_VALUE','Maximum Tolerance applied to model');
#559=(
NAMED_UNIT(*)
SI_UNIT($,.STERADIAN.)
SOLID_ANGLE_UNIT()
);
#560=(
NAMED_UNIT(*)
PLANE_ANGLE_UNIT()
SI_UNIT($,.RADIAN.)
);
#561=(
LENGTH_UNIT()
NAMED_UNIT(*)
SI_UNIT(.MILLI.,.METRE.)
);
#562=PRODUCT_DEFINITION_SHAPE('','',#563);
#563=PRODUCT_DEFINITION('','',#565,#564);
#564=PRODUCT_DEFINITION_CONTEXT('',#571,'design');
#565=PRODUCT_DEFINITION_FORMATION_WITH_SPECIFIED_SOURCE('','',#567,
 .NOT_KNOWN.);
#566=PRODUCT_RELATED_PRODUCT_CATEGORY('','',(#567));
#567=PRODUCT('A09_left_wrist_rotor_platform',
'A09_left_wrist_rotor_platform','A09_left_wrist_rotor_platform',(#569));
#568=PRODUCT_CATEGORY('','');
#569=PRODUCT_CONTEXT('',#571,'mechanical');
#570=APPLICATION_PROTOCOL_DEFINITION('international standard',
'automotive_design',2010,#571);
#571=APPLICATION_CONTEXT(
'core data for automotive mechanical design processes');
ENDSEC;
END-ISO-10303-21;
