ISO-10303-21;
HEADER;
/* Generated by software containing ST-Developer
 * from STEP Tools, Inc. (www.steptools.com) 
 */
/* OPTION: strings as raw bytes, not using required /X/ escapes */

FILE_DESCRIPTION(
/* description */ ('Unknown'),
/* implementation_level */ '2;1');

FILE_NAME(
/* name */ 'B02_removable_structural_lid',
/* time_stamp */ '2026-09-23T11:54:22+08:00',
/* author */ ('Unknown'),
/* organization */ ('Unknown'),
/* preprocessor_version */ 'ST-DEVELOPER v16.7',
/* originating_system */ 'Solid Edge',
/* authorisation */ 'Unknown');

FILE_SCHEMA (('AUTOMOTIVE_DESIGN {1 0 10303 214 3 1 1}'));
ENDSEC;

DATA;
#10=PROPERTY_DEFINITION_REPRESENTATION(#14,#12);
#11=PROPERTY_DEFINITION_REPRESENTATION(#15,#13);
#12=REPRESENTATION('',(#16),#1239);
#13=REPRESENTATION('',(#17),#1239);
#14=PROPERTY_DEFINITION('pmi validation property','',#1244);
#15=PROPERTY_DEFINITION('pmi validation property','',#1244);
#16=VALUE_REPRESENTATION_ITEM('number of annotations',COUNT_MEASURE(0.));
#17=VALUE_REPRESENTATION_ITEM('number of views',COUNT_MEASURE(0.));
#18=SHAPE_REPRESENTATION_RELATIONSHIP('','',#783,#19);
#19=ADVANCED_BREP_SHAPE_REPRESENTATION('',(#781),#1239);
#20=CIRCLE('',#804,32.3);
#21=CIRCLE('',#805,32.3);
#22=CIRCLE('',#807,1.7);
#23=CIRCLE('',#808,1.7);
#24=CIRCLE('',#810,1.7);
#25=CIRCLE('',#811,1.7);
#26=CIRCLE('',#813,1.7);
#27=CIRCLE('',#814,1.7);
#28=CIRCLE('',#816,1.7);
#29=CIRCLE('',#817,1.7);
#30=CIRCLE('',#819,1.7);
#31=CIRCLE('',#820,1.7);
#32=CIRCLE('',#822,1.7);
#33=CIRCLE('',#823,1.7);
#34=CIRCLE('',#825,1.7);
#35=CIRCLE('',#826,1.7);
#36=CIRCLE('',#828,1.7);
#37=CIRCLE('',#829,1.7);
#38=CIRCLE('',#831,1.7);
#39=CIRCLE('',#832,1.7);
#40=CIRCLE('',#834,1.7);
#41=CIRCLE('',#835,1.7);
#42=CYLINDRICAL_SURFACE('',#803,32.3);
#43=CYLINDRICAL_SURFACE('',#806,1.7);
#44=CYLINDRICAL_SURFACE('',#809,1.7);
#45=CYLINDRICAL_SURFACE('',#812,1.7);
#46=CYLINDRICAL_SURFACE('',#815,1.7);
#47=CYLINDRICAL_SURFACE('',#818,1.7);
#48=CYLINDRICAL_SURFACE('',#821,1.7);
#49=CYLINDRICAL_SURFACE('',#824,1.7);
#50=CYLINDRICAL_SURFACE('',#827,1.7);
#51=CYLINDRICAL_SURFACE('',#830,1.7);
#52=CYLINDRICAL_SURFACE('',#833,1.7);
#53=ORIENTED_EDGE('',*,*,#241,.T.);
#54=ORIENTED_EDGE('',*,*,#242,.F.);
#55=ORIENTED_EDGE('',*,*,#243,.F.);
#56=ORIENTED_EDGE('',*,*,#244,.T.);
#57=ORIENTED_EDGE('',*,*,#245,.T.);
#58=ORIENTED_EDGE('',*,*,#246,.F.);
#59=ORIENTED_EDGE('',*,*,#247,.F.);
#60=ORIENTED_EDGE('',*,*,#242,.T.);
#61=ORIENTED_EDGE('',*,*,#248,.T.);
#62=ORIENTED_EDGE('',*,*,#249,.F.);
#63=ORIENTED_EDGE('',*,*,#250,.F.);
#64=ORIENTED_EDGE('',*,*,#246,.T.);
#65=ORIENTED_EDGE('',*,*,#251,.F.);
#66=ORIENTED_EDGE('',*,*,#252,.F.);
#67=ORIENTED_EDGE('',*,*,#253,.T.);
#68=ORIENTED_EDGE('',*,*,#254,.T.);
#69=ORIENTED_EDGE('',*,*,#255,.F.);
#70=ORIENTED_EDGE('',*,*,#256,.F.);
#71=ORIENTED_EDGE('',*,*,#257,.T.);
#72=ORIENTED_EDGE('',*,*,#252,.T.);
#73=ORIENTED_EDGE('',*,*,#258,.F.);
#74=ORIENTED_EDGE('',*,*,#259,.F.);
#75=ORIENTED_EDGE('',*,*,#260,.T.);
#76=ORIENTED_EDGE('',*,*,#256,.T.);
#77=ORIENTED_EDGE('',*,*,#261,.F.);
#78=ORIENTED_EDGE('',*,*,#262,.F.);
#79=ORIENTED_EDGE('',*,*,#263,.T.);
#80=ORIENTED_EDGE('',*,*,#264,.T.);
#81=ORIENTED_EDGE('',*,*,#265,.F.);
#82=ORIENTED_EDGE('',*,*,#266,.F.);
#83=ORIENTED_EDGE('',*,*,#267,.T.);
#84=ORIENTED_EDGE('',*,*,#262,.T.);
#85=ORIENTED_EDGE('',*,*,#268,.F.);
#86=ORIENTED_EDGE('',*,*,#269,.F.);
#87=ORIENTED_EDGE('',*,*,#270,.T.);
#88=ORIENTED_EDGE('',*,*,#266,.T.);
#89=ORIENTED_EDGE('',*,*,#271,.F.);
#90=ORIENTED_EDGE('',*,*,#272,.F.);
#91=ORIENTED_EDGE('',*,*,#273,.T.);
#92=ORIENTED_EDGE('',*,*,#274,.T.);
#93=ORIENTED_EDGE('',*,*,#275,.F.);
#94=ORIENTED_EDGE('',*,*,#276,.F.);
#95=ORIENTED_EDGE('',*,*,#277,.T.);
#96=ORIENTED_EDGE('',*,*,#272,.T.);
#97=ORIENTED_EDGE('',*,*,#278,.F.);
#98=ORIENTED_EDGE('',*,*,#279,.F.);
#99=ORIENTED_EDGE('',*,*,#280,.T.);
#100=ORIENTED_EDGE('',*,*,#276,.T.);
#101=ORIENTED_EDGE('',*,*,#281,.F.);
#102=ORIENTED_EDGE('',*,*,#282,.F.);
#103=ORIENTED_EDGE('',*,*,#283,.T.);
#104=ORIENTED_EDGE('',*,*,#284,.T.);
#105=ORIENTED_EDGE('',*,*,#285,.F.);
#106=ORIENTED_EDGE('',*,*,#286,.F.);
#107=ORIENTED_EDGE('',*,*,#287,.T.);
#108=ORIENTED_EDGE('',*,*,#282,.T.);
#109=ORIENTED_EDGE('',*,*,#288,.F.);
#110=ORIENTED_EDGE('',*,*,#289,.F.);
#111=ORIENTED_EDGE('',*,*,#290,.T.);
#112=ORIENTED_EDGE('',*,*,#286,.T.);
#113=ORIENTED_EDGE('',*,*,#291,.F.);
#114=ORIENTED_EDGE('',*,*,#292,.F.);
#115=ORIENTED_EDGE('',*,*,#293,.T.);
#116=ORIENTED_EDGE('',*,*,#294,.T.);
#117=ORIENTED_EDGE('',*,*,#295,.F.);
#118=ORIENTED_EDGE('',*,*,#296,.F.);
#119=ORIENTED_EDGE('',*,*,#297,.T.);
#120=ORIENTED_EDGE('',*,*,#292,.T.);
#121=ORIENTED_EDGE('',*,*,#298,.F.);
#122=ORIENTED_EDGE('',*,*,#299,.F.);
#123=ORIENTED_EDGE('',*,*,#300,.T.);
#124=ORIENTED_EDGE('',*,*,#296,.T.);
#125=ORIENTED_EDGE('',*,*,#301,.T.);
#126=ORIENTED_EDGE('',*,*,#302,.F.);
#127=ORIENTED_EDGE('',*,*,#303,.T.);
#128=ORIENTED_EDGE('',*,*,#304,.F.);
#129=ORIENTED_EDGE('',*,*,#305,.T.);
#130=ORIENTED_EDGE('',*,*,#306,.F.);
#131=ORIENTED_EDGE('',*,*,#307,.T.);
#132=ORIENTED_EDGE('',*,*,#308,.F.);
#133=ORIENTED_EDGE('',*,*,#309,.T.);
#134=ORIENTED_EDGE('',*,*,#310,.F.);
#135=ORIENTED_EDGE('',*,*,#311,.T.);
#136=ORIENTED_EDGE('',*,*,#312,.F.);
#137=ORIENTED_EDGE('',*,*,#313,.T.);
#138=ORIENTED_EDGE('',*,*,#314,.F.);
#139=ORIENTED_EDGE('',*,*,#315,.T.);
#140=ORIENTED_EDGE('',*,*,#316,.F.);
#141=ORIENTED_EDGE('',*,*,#317,.T.);
#142=ORIENTED_EDGE('',*,*,#318,.F.);
#143=ORIENTED_EDGE('',*,*,#319,.T.);
#144=ORIENTED_EDGE('',*,*,#320,.F.);
#145=ORIENTED_EDGE('',*,*,#321,.T.);
#146=ORIENTED_EDGE('',*,*,#322,.F.);
#147=ORIENTED_EDGE('',*,*,#323,.F.);
#148=ORIENTED_EDGE('',*,*,#254,.F.);
#149=ORIENTED_EDGE('',*,*,#324,.T.);
#150=ORIENTED_EDGE('',*,*,#259,.T.);
#151=ORIENTED_EDGE('',*,*,#325,.F.);
#152=ORIENTED_EDGE('',*,*,#264,.F.);
#153=ORIENTED_EDGE('',*,*,#326,.T.);
#154=ORIENTED_EDGE('',*,*,#269,.T.);
#155=ORIENTED_EDGE('',*,*,#327,.F.);
#156=ORIENTED_EDGE('',*,*,#274,.F.);
#157=ORIENTED_EDGE('',*,*,#328,.T.);
#158=ORIENTED_EDGE('',*,*,#279,.T.);
#159=ORIENTED_EDGE('',*,*,#329,.F.);
#160=ORIENTED_EDGE('',*,*,#284,.F.);
#161=ORIENTED_EDGE('',*,*,#330,.T.);
#162=ORIENTED_EDGE('',*,*,#289,.T.);
#163=ORIENTED_EDGE('',*,*,#331,.F.);
#164=ORIENTED_EDGE('',*,*,#294,.F.);
#165=ORIENTED_EDGE('',*,*,#332,.T.);
#166=ORIENTED_EDGE('',*,*,#299,.T.);
#167=ORIENTED_EDGE('',*,*,#333,.T.);
#168=ORIENTED_EDGE('',*,*,#244,.F.);
#169=ORIENTED_EDGE('',*,*,#334,.F.);
#170=ORIENTED_EDGE('',*,*,#249,.T.);
#171=ORIENTED_EDGE('',*,*,#293,.F.);
#172=ORIENTED_EDGE('',*,*,#297,.F.);
#173=ORIENTED_EDGE('',*,*,#300,.F.);
#174=ORIENTED_EDGE('',*,*,#332,.F.);
#175=ORIENTED_EDGE('',*,*,#283,.F.);
#176=ORIENTED_EDGE('',*,*,#287,.F.);
#177=ORIENTED_EDGE('',*,*,#290,.F.);
#178=ORIENTED_EDGE('',*,*,#330,.F.);
#179=ORIENTED_EDGE('',*,*,#273,.F.);
#180=ORIENTED_EDGE('',*,*,#277,.F.);
#181=ORIENTED_EDGE('',*,*,#280,.F.);
#182=ORIENTED_EDGE('',*,*,#328,.F.);
#183=ORIENTED_EDGE('',*,*,#263,.F.);
#184=ORIENTED_EDGE('',*,*,#267,.F.);
#185=ORIENTED_EDGE('',*,*,#270,.F.);
#186=ORIENTED_EDGE('',*,*,#326,.F.);
#187=ORIENTED_EDGE('',*,*,#253,.F.);
#188=ORIENTED_EDGE('',*,*,#257,.F.);
#189=ORIENTED_EDGE('',*,*,#260,.F.);
#190=ORIENTED_EDGE('',*,*,#324,.F.);
#191=ORIENTED_EDGE('',*,*,#321,.F.);
#192=ORIENTED_EDGE('',*,*,#319,.F.);
#193=ORIENTED_EDGE('',*,*,#317,.F.);
#194=ORIENTED_EDGE('',*,*,#315,.F.);
#195=ORIENTED_EDGE('',*,*,#313,.F.);
#196=ORIENTED_EDGE('',*,*,#311,.F.);
#197=ORIENTED_EDGE('',*,*,#309,.F.);
#198=ORIENTED_EDGE('',*,*,#307,.F.);
#199=ORIENTED_EDGE('',*,*,#305,.F.);
#200=ORIENTED_EDGE('',*,*,#303,.F.);
#201=ORIENTED_EDGE('',*,*,#301,.F.);
#202=ORIENTED_EDGE('',*,*,#243,.T.);
#203=ORIENTED_EDGE('',*,*,#247,.T.);
#204=ORIENTED_EDGE('',*,*,#250,.T.);
#205=ORIENTED_EDGE('',*,*,#334,.T.);
#206=ORIENTED_EDGE('',*,*,#291,.T.);
#207=ORIENTED_EDGE('',*,*,#331,.T.);
#208=ORIENTED_EDGE('',*,*,#298,.T.);
#209=ORIENTED_EDGE('',*,*,#295,.T.);
#210=ORIENTED_EDGE('',*,*,#281,.T.);
#211=ORIENTED_EDGE('',*,*,#329,.T.);
#212=ORIENTED_EDGE('',*,*,#288,.T.);
#213=ORIENTED_EDGE('',*,*,#285,.T.);
#214=ORIENTED_EDGE('',*,*,#271,.T.);
#215=ORIENTED_EDGE('',*,*,#327,.T.);
#216=ORIENTED_EDGE('',*,*,#278,.T.);
#217=ORIENTED_EDGE('',*,*,#275,.T.);
#218=ORIENTED_EDGE('',*,*,#261,.T.);
#219=ORIENTED_EDGE('',*,*,#325,.T.);
#220=ORIENTED_EDGE('',*,*,#268,.T.);
#221=ORIENTED_EDGE('',*,*,#265,.T.);
#222=ORIENTED_EDGE('',*,*,#251,.T.);
#223=ORIENTED_EDGE('',*,*,#323,.T.);
#224=ORIENTED_EDGE('',*,*,#258,.T.);
#225=ORIENTED_EDGE('',*,*,#255,.T.);
#226=ORIENTED_EDGE('',*,*,#322,.T.);
#227=ORIENTED_EDGE('',*,*,#320,.T.);
#228=ORIENTED_EDGE('',*,*,#318,.T.);
#229=ORIENTED_EDGE('',*,*,#316,.T.);
#230=ORIENTED_EDGE('',*,*,#314,.T.);
#231=ORIENTED_EDGE('',*,*,#312,.T.);
#232=ORIENTED_EDGE('',*,*,#310,.T.);
#233=ORIENTED_EDGE('',*,*,#308,.T.);
#234=ORIENTED_EDGE('',*,*,#306,.T.);
#235=ORIENTED_EDGE('',*,*,#304,.T.);
#236=ORIENTED_EDGE('',*,*,#302,.T.);
#237=ORIENTED_EDGE('',*,*,#241,.F.);
#238=ORIENTED_EDGE('',*,*,#333,.F.);
#239=ORIENTED_EDGE('',*,*,#248,.F.);
#240=ORIENTED_EDGE('',*,*,#245,.F.);
#241=EDGE_CURVE('',#335,#336,#405,.T.);
#242=EDGE_CURVE('',#337,#336,#406,.T.);
#243=EDGE_CURVE('',#338,#337,#407,.T.);
#244=EDGE_CURVE('',#338,#335,#408,.T.);
#245=EDGE_CURVE('',#336,#339,#409,.T.);
#246=EDGE_CURVE('',#340,#339,#410,.T.);
#247=EDGE_CURVE('',#337,#340,#411,.T.);
#248=EDGE_CURVE('',#339,#341,#412,.T.);
#249=EDGE_CURVE('',#342,#341,#413,.T.);
#250=EDGE_CURVE('',#340,#342,#414,.T.);
#251=EDGE_CURVE('',#343,#344,#415,.T.);
#252=EDGE_CURVE('',#345,#343,#416,.T.);
#253=EDGE_CURVE('',#345,#346,#417,.T.);
#254=EDGE_CURVE('',#346,#344,#418,.T.);
#255=EDGE_CURVE('',#347,#343,#419,.T.);
#256=EDGE_CURVE('',#348,#347,#420,.T.);
#257=EDGE_CURVE('',#348,#345,#421,.T.);
#258=EDGE_CURVE('',#349,#347,#422,.T.);
#259=EDGE_CURVE('',#350,#349,#423,.T.);
#260=EDGE_CURVE('',#350,#348,#424,.T.);
#261=EDGE_CURVE('',#351,#352,#425,.T.);
#262=EDGE_CURVE('',#353,#351,#426,.T.);
#263=EDGE_CURVE('',#353,#354,#427,.T.);
#264=EDGE_CURVE('',#354,#352,#428,.T.);
#265=EDGE_CURVE('',#355,#351,#429,.T.);
#266=EDGE_CURVE('',#356,#355,#430,.T.);
#267=EDGE_CURVE('',#356,#353,#431,.T.);
#268=EDGE_CURVE('',#357,#355,#432,.T.);
#269=EDGE_CURVE('',#358,#357,#433,.T.);
#270=EDGE_CURVE('',#358,#356,#434,.T.);
#271=EDGE_CURVE('',#359,#360,#435,.T.);
#272=EDGE_CURVE('',#361,#359,#436,.T.);
#273=EDGE_CURVE('',#361,#362,#437,.T.);
#274=EDGE_CURVE('',#362,#360,#438,.T.);
#275=EDGE_CURVE('',#363,#359,#439,.T.);
#276=EDGE_CURVE('',#364,#363,#440,.T.);
#277=EDGE_CURVE('',#364,#361,#441,.T.);
#278=EDGE_CURVE('',#365,#363,#442,.T.);
#279=EDGE_CURVE('',#366,#365,#443,.T.);
#280=EDGE_CURVE('',#366,#364,#444,.T.);
#281=EDGE_CURVE('',#367,#368,#445,.T.);
#282=EDGE_CURVE('',#369,#367,#446,.T.);
#283=EDGE_CURVE('',#369,#370,#447,.T.);
#284=EDGE_CURVE('',#370,#368,#448,.T.);
#285=EDGE_CURVE('',#371,#367,#449,.T.);
#286=EDGE_CURVE('',#372,#371,#450,.T.);
#287=EDGE_CURVE('',#372,#369,#451,.T.);
#288=EDGE_CURVE('',#373,#371,#452,.T.);
#289=EDGE_CURVE('',#374,#373,#453,.T.);
#290=EDGE_CURVE('',#374,#372,#454,.T.);
#291=EDGE_CURVE('',#375,#376,#455,.T.);
#292=EDGE_CURVE('',#377,#375,#456,.T.);
#293=EDGE_CURVE('',#377,#378,#457,.T.);
#294=EDGE_CURVE('',#378,#376,#458,.T.);
#295=EDGE_CURVE('',#379,#375,#459,.T.);
#296=EDGE_CURVE('',#380,#379,#460,.T.);
#297=EDGE_CURVE('',#380,#377,#461,.T.);
#298=EDGE_CURVE('',#381,#379,#462,.T.);
#299=EDGE_CURVE('',#382,#381,#463,.T.);
#300=EDGE_CURVE('',#382,#380,#464,.T.);
#301=EDGE_CURVE('',#383,#383,#20,.T.);
#302=EDGE_CURVE('',#384,#384,#21,.T.);
#303=EDGE_CURVE('',#385,#385,#22,.T.);
#304=EDGE_CURVE('',#386,#386,#23,.T.);
#305=EDGE_CURVE('',#387,#387,#24,.T.);
#306=EDGE_CURVE('',#388,#388,#25,.T.);
#307=EDGE_CURVE('',#389,#389,#26,.T.);
#308=EDGE_CURVE('',#390,#390,#27,.T.);
#309=EDGE_CURVE('',#391,#391,#28,.T.);
#310=EDGE_CURVE('',#392,#392,#29,.T.);
#311=EDGE_CURVE('',#393,#393,#30,.T.);
#312=EDGE_CURVE('',#394,#394,#31,.T.);
#313=EDGE_CURVE('',#395,#395,#32,.T.);
#314=EDGE_CURVE('',#396,#396,#33,.T.);
#315=EDGE_CURVE('',#397,#397,#34,.T.);
#316=EDGE_CURVE('',#398,#398,#35,.T.);
#317=EDGE_CURVE('',#399,#399,#36,.T.);
#318=EDGE_CURVE('',#400,#400,#37,.T.);
#319=EDGE_CURVE('',#401,#401,#38,.T.);
#320=EDGE_CURVE('',#402,#402,#39,.T.);
#321=EDGE_CURVE('',#403,#403,#40,.T.);
#322=EDGE_CURVE('',#404,#404,#41,.T.);
#323=EDGE_CURVE('',#344,#349,#465,.T.);
#324=EDGE_CURVE('',#346,#350,#466,.T.);
#325=EDGE_CURVE('',#352,#357,#467,.T.);
#326=EDGE_CURVE('',#354,#358,#468,.T.);
#327=EDGE_CURVE('',#360,#365,#469,.T.);
#328=EDGE_CURVE('',#362,#366,#470,.T.);
#329=EDGE_CURVE('',#368,#373,#471,.T.);
#330=EDGE_CURVE('',#370,#374,#472,.T.);
#331=EDGE_CURVE('',#376,#381,#473,.T.);
#332=EDGE_CURVE('',#378,#382,#474,.T.);
#333=EDGE_CURVE('',#341,#335,#475,.T.);
#334=EDGE_CURVE('',#342,#338,#476,.T.);
#335=VERTEX_POINT('',#1039);
#336=VERTEX_POINT('',#1040);
#337=VERTEX_POINT('',#1042);
#338=VERTEX_POINT('',#1044);
#339=VERTEX_POINT('',#1048);
#340=VERTEX_POINT('',#1050);
#341=VERTEX_POINT('',#1054);
#342=VERTEX_POINT('',#1056);
#343=VERTEX_POINT('',#1060);
#344=VERTEX_POINT('',#1061);
#345=VERTEX_POINT('',#1063);
#346=VERTEX_POINT('',#1065);
#347=VERTEX_POINT('',#1069);
#348=VERTEX_POINT('',#1071);
#349=VERTEX_POINT('',#1075);
#350=VERTEX_POINT('',#1077);
#351=VERTEX_POINT('',#1081);
#352=VERTEX_POINT('',#1082);
#353=VERTEX_POINT('',#1084);
#354=VERTEX_POINT('',#1086);
#355=VERTEX_POINT('',#1090);
#356=VERTEX_POINT('',#1092);
#357=VERTEX_POINT('',#1096);
#358=VERTEX_POINT('',#1098);
#359=VERTEX_POINT('',#1102);
#360=VERTEX_POINT('',#1103);
#361=VERTEX_POINT('',#1105);
#362=VERTEX_POINT('',#1107);
#363=VERTEX_POINT('',#1111);
#364=VERTEX_POINT('',#1113);
#365=VERTEX_POINT('',#1117);
#366=VERTEX_POINT('',#1119);
#367=VERTEX_POINT('',#1123);
#368=VERTEX_POINT('',#1124);
#369=VERTEX_POINT('',#1126);
#370=VERTEX_POINT('',#1128);
#371=VERTEX_POINT('',#1132);
#372=VERTEX_POINT('',#1134);
#373=VERTEX_POINT('',#1138);
#374=VERTEX_POINT('',#1140);
#375=VERTEX_POINT('',#1144);
#376=VERTEX_POINT('',#1145);
#377=VERTEX_POINT('',#1147);
#378=VERTEX_POINT('',#1149);
#379=VERTEX_POINT('',#1153);
#380=VERTEX_POINT('',#1155);
#381=VERTEX_POINT('',#1159);
#382=VERTEX_POINT('',#1161);
#383=VERTEX_POINT('',#1165);
#384=VERTEX_POINT('',#1167);
#385=VERTEX_POINT('',#1170);
#386=VERTEX_POINT('',#1172);
#387=VERTEX_POINT('',#1175);
#388=VERTEX_POINT('',#1177);
#389=VERTEX_POINT('',#1180);
#390=VERTEX_POINT('',#1182);
#391=VERTEX_POINT('',#1185);
#392=VERTEX_POINT('',#1187);
#393=VERTEX_POINT('',#1190);
#394=VERTEX_POINT('',#1192);
#395=VERTEX_POINT('',#1195);
#396=VERTEX_POINT('',#1197);
#397=VERTEX_POINT('',#1200);
#398=VERTEX_POINT('',#1202);
#399=VERTEX_POINT('',#1205);
#400=VERTEX_POINT('',#1207);
#401=VERTEX_POINT('',#1210);
#402=VERTEX_POINT('',#1212);
#403=VERTEX_POINT('',#1215);
#404=VERTEX_POINT('',#1217);
#405=LINE('',#1038,#477);
#406=LINE('',#1041,#478);
#407=LINE('',#1043,#479);
#408=LINE('',#1045,#480);
#409=LINE('',#1047,#481);
#410=LINE('',#1049,#482);
#411=LINE('',#1051,#483);
#412=LINE('',#1053,#484);
#413=LINE('',#1055,#485);
#414=LINE('',#1057,#486);
#415=LINE('',#1059,#487);
#416=LINE('',#1062,#488);
#417=LINE('',#1064,#489);
#418=LINE('',#1066,#490);
#419=LINE('',#1068,#491);
#420=LINE('',#1070,#492);
#421=LINE('',#1072,#493);
#422=LINE('',#1074,#494);
#423=LINE('',#1076,#495);
#424=LINE('',#1078,#496);
#425=LINE('',#1080,#497);
#426=LINE('',#1083,#498);
#427=LINE('',#1085,#499);
#428=LINE('',#1087,#500);
#429=LINE('',#1089,#501);
#430=LINE('',#1091,#502);
#431=LINE('',#1093,#503);
#432=LINE('',#1095,#504);
#433=LINE('',#1097,#505);
#434=LINE('',#1099,#506);
#435=LINE('',#1101,#507);
#436=LINE('',#1104,#508);
#437=LINE('',#1106,#509);
#438=LINE('',#1108,#510);
#439=LINE('',#1110,#511);
#440=LINE('',#1112,#512);
#441=LINE('',#1114,#513);
#442=LINE('',#1116,#514);
#443=LINE('',#1118,#515);
#444=LINE('',#1120,#516);
#445=LINE('',#1122,#517);
#446=LINE('',#1125,#518);
#447=LINE('',#1127,#519);
#448=LINE('',#1129,#520);
#449=LINE('',#1131,#521);
#450=LINE('',#1133,#522);
#451=LINE('',#1135,#523);
#452=LINE('',#1137,#524);
#453=LINE('',#1139,#525);
#454=LINE('',#1141,#526);
#455=LINE('',#1143,#527);
#456=LINE('',#1146,#528);
#457=LINE('',#1148,#529);
#458=LINE('',#1150,#530);
#459=LINE('',#1152,#531);
#460=LINE('',#1154,#532);
#461=LINE('',#1156,#533);
#462=LINE('',#1158,#534);
#463=LINE('',#1160,#535);
#464=LINE('',#1162,#536);
#465=LINE('',#1219,#537);
#466=LINE('',#1220,#538);
#467=LINE('',#1222,#539);
#468=LINE('',#1223,#540);
#469=LINE('',#1225,#541);
#470=LINE('',#1226,#542);
#471=LINE('',#1228,#543);
#472=LINE('',#1229,#544);
#473=LINE('',#1231,#545);
#474=LINE('',#1232,#546);
#475=LINE('',#1234,#547);
#476=LINE('',#1235,#548);
#477=VECTOR('',#848,1000.);
#478=VECTOR('',#849,1000.);
#479=VECTOR('',#850,1000.);
#480=VECTOR('',#851,1000.);
#481=VECTOR('',#854,1000.);
#482=VECTOR('',#855,1000.);
#483=VECTOR('',#856,1000.);
#484=VECTOR('',#859,1000.);
#485=VECTOR('',#860,1000.);
#486=VECTOR('',#861,1000.);
#487=VECTOR('',#864,1000.);
#488=VECTOR('',#865,1000.);
#489=VECTOR('',#866,1000.);
#490=VECTOR('',#867,1000.);
#491=VECTOR('',#870,1000.);
#492=VECTOR('',#871,1000.);
#493=VECTOR('',#872,1000.);
#494=VECTOR('',#875,1000.);
#495=VECTOR('',#876,1000.);
#496=VECTOR('',#877,1000.);
#497=VECTOR('',#880,1000.);
#498=VECTOR('',#881,1000.);
#499=VECTOR('',#882,1000.);
#500=VECTOR('',#883,1000.);
#501=VECTOR('',#886,1000.);
#502=VECTOR('',#887,1000.);
#503=VECTOR('',#888,1000.);
#504=VECTOR('',#891,1000.);
#505=VECTOR('',#892,1000.);
#506=VECTOR('',#893,1000.);
#507=VECTOR('',#896,1000.);
#508=VECTOR('',#897,1000.);
#509=VECTOR('',#898,1000.);
#510=VECTOR('',#899,1000.);
#511=VECTOR('',#902,1000.);
#512=VECTOR('',#903,1000.);
#513=VECTOR('',#904,1000.);
#514=VECTOR('',#907,1000.);
#515=VECTOR('',#908,1000.);
#516=VECTOR('',#909,1000.);
#517=VECTOR('',#912,1000.);
#518=VECTOR('',#913,1000.);
#519=VECTOR('',#914,1000.);
#520=VECTOR('',#915,1000.);
#521=VECTOR('',#918,1000.);
#522=VECTOR('',#919,1000.);
#523=VECTOR('',#920,1000.);
#524=VECTOR('',#923,1000.);
#525=VECTOR('',#924,1000.);
#526=VECTOR('',#925,1000.);
#527=VECTOR('',#928,1000.);
#528=VECTOR('',#929,1000.);
#529=VECTOR('',#930,1000.);
#530=VECTOR('',#931,1000.);
#531=VECTOR('',#934,1000.);
#532=VECTOR('',#935,1000.);
#533=VECTOR('',#936,1000.);
#534=VECTOR('',#939,1000.);
#535=VECTOR('',#940,1000.);
#536=VECTOR('',#941,1000.);
#537=VECTOR('',#1010,1000.);
#538=VECTOR('',#1011,1000.);
#539=VECTOR('',#1014,1000.);
#540=VECTOR('',#1015,1000.);
#541=VECTOR('',#1018,1000.);
#542=VECTOR('',#1019,1000.);
#543=VECTOR('',#1022,1000.);
#544=VECTOR('',#1023,1000.);
#545=VECTOR('',#1026,1000.);
#546=VECTOR('',#1027,1000.);
#547=VECTOR('',#1030,1000.);
#548=VECTOR('',#1031,1000.);
#549=EDGE_LOOP('',(#53,#54,#55,#56));
#550=EDGE_LOOP('',(#57,#58,#59,#60));
#551=EDGE_LOOP('',(#61,#62,#63,#64));
#552=EDGE_LOOP('',(#65,#66,#67,#68));
#553=EDGE_LOOP('',(#69,#70,#71,#72));
#554=EDGE_LOOP('',(#73,#74,#75,#76));
#555=EDGE_LOOP('',(#77,#78,#79,#80));
#556=EDGE_LOOP('',(#81,#82,#83,#84));
#557=EDGE_LOOP('',(#85,#86,#87,#88));
#558=EDGE_LOOP('',(#89,#90,#91,#92));
#559=EDGE_LOOP('',(#93,#94,#95,#96));
#560=EDGE_LOOP('',(#97,#98,#99,#100));
#561=EDGE_LOOP('',(#101,#102,#103,#104));
#562=EDGE_LOOP('',(#105,#106,#107,#108));
#563=EDGE_LOOP('',(#109,#110,#111,#112));
#564=EDGE_LOOP('',(#113,#114,#115,#116));
#565=EDGE_LOOP('',(#117,#118,#119,#120));
#566=EDGE_LOOP('',(#121,#122,#123,#124));
#567=EDGE_LOOP('',(#125));
#568=EDGE_LOOP('',(#126));
#569=EDGE_LOOP('',(#127));
#570=EDGE_LOOP('',(#128));
#571=EDGE_LOOP('',(#129));
#572=EDGE_LOOP('',(#130));
#573=EDGE_LOOP('',(#131));
#574=EDGE_LOOP('',(#132));
#575=EDGE_LOOP('',(#133));
#576=EDGE_LOOP('',(#134));
#577=EDGE_LOOP('',(#135));
#578=EDGE_LOOP('',(#136));
#579=EDGE_LOOP('',(#137));
#580=EDGE_LOOP('',(#138));
#581=EDGE_LOOP('',(#139));
#582=EDGE_LOOP('',(#140));
#583=EDGE_LOOP('',(#141));
#584=EDGE_LOOP('',(#142));
#585=EDGE_LOOP('',(#143));
#586=EDGE_LOOP('',(#144));
#587=EDGE_LOOP('',(#145));
#588=EDGE_LOOP('',(#146));
#589=EDGE_LOOP('',(#147,#148,#149,#150));
#590=EDGE_LOOP('',(#151,#152,#153,#154));
#591=EDGE_LOOP('',(#155,#156,#157,#158));
#592=EDGE_LOOP('',(#159,#160,#161,#162));
#593=EDGE_LOOP('',(#163,#164,#165,#166));
#594=EDGE_LOOP('',(#167,#168,#169,#170));
#595=EDGE_LOOP('',(#171,#172,#173,#174));
#596=EDGE_LOOP('',(#175,#176,#177,#178));
#597=EDGE_LOOP('',(#179,#180,#181,#182));
#598=EDGE_LOOP('',(#183,#184,#185,#186));
#599=EDGE_LOOP('',(#187,#188,#189,#190));
#600=EDGE_LOOP('',(#191));
#601=EDGE_LOOP('',(#192));
#602=EDGE_LOOP('',(#193));
#603=EDGE_LOOP('',(#194));
#604=EDGE_LOOP('',(#195));
#605=EDGE_LOOP('',(#196));
#606=EDGE_LOOP('',(#197));
#607=EDGE_LOOP('',(#198));
#608=EDGE_LOOP('',(#199));
#609=EDGE_LOOP('',(#200));
#610=EDGE_LOOP('',(#201));
#611=EDGE_LOOP('',(#202,#203,#204,#205));
#612=EDGE_LOOP('',(#206,#207,#208,#209));
#613=EDGE_LOOP('',(#210,#211,#212,#213));
#614=EDGE_LOOP('',(#214,#215,#216,#217));
#615=EDGE_LOOP('',(#218,#219,#220,#221));
#616=EDGE_LOOP('',(#222,#223,#224,#225));
#617=EDGE_LOOP('',(#226));
#618=EDGE_LOOP('',(#227));
#619=EDGE_LOOP('',(#228));
#620=EDGE_LOOP('',(#229));
#621=EDGE_LOOP('',(#230));
#622=EDGE_LOOP('',(#231));
#623=EDGE_LOOP('',(#232));
#624=EDGE_LOOP('',(#233));
#625=EDGE_LOOP('',(#234));
#626=EDGE_LOOP('',(#235));
#627=EDGE_LOOP('',(#236));
#628=EDGE_LOOP('',(#237,#238,#239,#240));
#629=FACE_BOUND('',#549,.T.);
#630=FACE_BOUND('',#550,.T.);
#631=FACE_BOUND('',#551,.T.);
#632=FACE_BOUND('',#552,.T.);
#633=FACE_BOUND('',#553,.T.);
#634=FACE_BOUND('',#554,.T.);
#635=FACE_BOUND('',#555,.T.);
#636=FACE_BOUND('',#556,.T.);
#637=FACE_BOUND('',#557,.T.);
#638=FACE_BOUND('',#558,.T.);
#639=FACE_BOUND('',#559,.T.);
#640=FACE_BOUND('',#560,.T.);
#641=FACE_BOUND('',#561,.T.);
#642=FACE_BOUND('',#562,.T.);
#643=FACE_BOUND('',#563,.T.);
#644=FACE_BOUND('',#564,.T.);
#645=FACE_BOUND('',#565,.T.);
#646=FACE_BOUND('',#566,.T.);
#647=FACE_BOUND('',#567,.T.);
#648=FACE_BOUND('',#568,.T.);
#649=FACE_BOUND('',#569,.T.);
#650=FACE_BOUND('',#570,.T.);
#651=FACE_BOUND('',#571,.T.);
#652=FACE_BOUND('',#572,.T.);
#653=FACE_BOUND('',#573,.T.);
#654=FACE_BOUND('',#574,.T.);
#655=FACE_BOUND('',#575,.T.);
#656=FACE_BOUND('',#576,.T.);
#657=FACE_BOUND('',#577,.T.);
#658=FACE_BOUND('',#578,.T.);
#659=FACE_BOUND('',#579,.T.);
#660=FACE_BOUND('',#580,.T.);
#661=FACE_BOUND('',#581,.T.);
#662=FACE_BOUND('',#582,.T.);
#663=FACE_BOUND('',#583,.T.);
#664=FACE_BOUND('',#584,.T.);
#665=FACE_BOUND('',#585,.T.);
#666=FACE_BOUND('',#586,.T.);
#667=FACE_BOUND('',#587,.T.);
#668=FACE_BOUND('',#588,.T.);
#669=FACE_BOUND('',#589,.T.);
#670=FACE_BOUND('',#590,.T.);
#671=FACE_BOUND('',#591,.T.);
#672=FACE_BOUND('',#592,.T.);
#673=FACE_BOUND('',#593,.T.);
#674=FACE_BOUND('',#594,.T.);
#675=FACE_BOUND('',#595,.T.);
#676=FACE_BOUND('',#596,.T.);
#677=FACE_BOUND('',#597,.T.);
#678=FACE_BOUND('',#598,.T.);
#679=FACE_BOUND('',#599,.T.);
#680=FACE_BOUND('',#600,.T.);
#681=FACE_BOUND('',#601,.T.);
#682=FACE_BOUND('',#602,.T.);
#683=FACE_BOUND('',#603,.T.);
#684=FACE_BOUND('',#604,.T.);
#685=FACE_BOUND('',#605,.T.);
#686=FACE_BOUND('',#606,.T.);
#687=FACE_BOUND('',#607,.T.);
#688=FACE_BOUND('',#608,.T.);
#689=FACE_BOUND('',#609,.T.);
#690=FACE_BOUND('',#610,.T.);
#691=FACE_BOUND('',#611,.T.);
#692=FACE_BOUND('',#612,.T.);
#693=FACE_BOUND('',#613,.T.);
#694=FACE_BOUND('',#614,.T.);
#695=FACE_BOUND('',#615,.T.);
#696=FACE_BOUND('',#616,.T.);
#697=FACE_BOUND('',#617,.T.);
#698=FACE_BOUND('',#618,.T.);
#699=FACE_BOUND('',#619,.T.);
#700=FACE_BOUND('',#620,.T.);
#701=FACE_BOUND('',#621,.T.);
#702=FACE_BOUND('',#622,.T.);
#703=FACE_BOUND('',#623,.T.);
#704=FACE_BOUND('',#624,.T.);
#705=FACE_BOUND('',#625,.T.);
#706=FACE_BOUND('',#626,.T.);
#707=FACE_BOUND('',#627,.T.);
#708=FACE_BOUND('',#628,.T.);
#709=PLANE('',#785);
#710=PLANE('',#786);
#711=PLANE('',#787);
#712=PLANE('',#788);
#713=PLANE('',#789);
#714=PLANE('',#790);
#715=PLANE('',#791);
#716=PLANE('',#792);
#717=PLANE('',#793);
#718=PLANE('',#794);
#719=PLANE('',#795);
#720=PLANE('',#796);
#721=PLANE('',#797);
#722=PLANE('',#798);
#723=PLANE('',#799);
#724=PLANE('',#800);
#725=PLANE('',#801);
#726=PLANE('',#802);
#727=PLANE('',#836);
#728=PLANE('',#837);
#729=PLANE('',#838);
#730=PLANE('',#839);
#731=PLANE('',#840);
#732=PLANE('',#841);
#733=PLANE('',#842);
#734=PLANE('',#843);
#735=ADVANCED_FACE('',(#629),#709,.F.);
#736=ADVANCED_FACE('',(#630),#710,.F.);
#737=ADVANCED_FACE('',(#631),#711,.F.);
#738=ADVANCED_FACE('',(#632),#712,.T.);
#739=ADVANCED_FACE('',(#633),#713,.T.);
#740=ADVANCED_FACE('',(#634),#714,.T.);
#741=ADVANCED_FACE('',(#635),#715,.T.);
#742=ADVANCED_FACE('',(#636),#716,.T.);
#743=ADVANCED_FACE('',(#637),#717,.T.);
#744=ADVANCED_FACE('',(#638),#718,.T.);
#745=ADVANCED_FACE('',(#639),#719,.T.);
#746=ADVANCED_FACE('',(#640),#720,.T.);
#747=ADVANCED_FACE('',(#641),#721,.T.);
#748=ADVANCED_FACE('',(#642),#722,.T.);
#749=ADVANCED_FACE('',(#643),#723,.T.);
#750=ADVANCED_FACE('',(#644),#724,.T.);
#751=ADVANCED_FACE('',(#645),#725,.T.);
#752=ADVANCED_FACE('',(#646),#726,.T.);
#753=ADVANCED_FACE('',(#647,#648),#42,.F.);
#754=ADVANCED_FACE('',(#649,#650),#43,.F.);
#755=ADVANCED_FACE('',(#651,#652),#44,.F.);
#756=ADVANCED_FACE('',(#653,#654),#45,.F.);
#757=ADVANCED_FACE('',(#655,#656),#46,.F.);
#758=ADVANCED_FACE('',(#657,#658),#47,.F.);
#759=ADVANCED_FACE('',(#659,#660),#48,.F.);
#760=ADVANCED_FACE('',(#661,#662),#49,.F.);
#761=ADVANCED_FACE('',(#663,#664),#50,.F.);
#762=ADVANCED_FACE('',(#665,#666),#51,.F.);
#763=ADVANCED_FACE('',(#667,#668),#52,.F.);
#764=ADVANCED_FACE('',(#669),#727,.T.);
#765=ADVANCED_FACE('',(#670),#728,.T.);
#766=ADVANCED_FACE('',(#671),#729,.T.);
#767=ADVANCED_FACE('',(#672),#730,.T.);
#768=ADVANCED_FACE('',(#673),#731,.T.);
#769=ADVANCED_FACE('',(#674),#732,.F.);
#770=ADVANCED_FACE('',(#675,#676,#677,#678,#679,#680,#681,#682,#683,#684,
#685,#686,#687,#688,#689,#690,#691),#733,.T.);
#771=ADVANCED_FACE('',(#692,#693,#694,#695,#696,#697,#698,#699,#700,#701,
#702,#703,#704,#705,#706,#707,#708),#734,.F.);
#772=CLOSED_SHELL('',(#735,#736,#737,#738,#739,#740,#741,#742,#743,#744,
#745,#746,#747,#748,#749,#750,#751,#752,#753,#754,#755,#756,#757,#758,#759,
#760,#761,#762,#763,#764,#765,#766,#767,#768,#769,#770,#771));
#773=STYLED_ITEM('',(#774),#781);
#774=PRESENTATION_STYLE_ASSIGNMENT((#775));
#775=SURFACE_STYLE_USAGE(.BOTH.,#776);
#776=SURFACE_SIDE_STYLE('',(#777));
#777=SURFACE_STYLE_FILL_AREA(#778);
#778=FILL_AREA_STYLE('',(#779));
#779=FILL_AREA_STYLE_COLOUR('',#780);
#780=COLOUR_RGB('',0.100000001490116,0.349999994039536,0.280000001192093);
#781=MANIFOLD_SOLID_BREP('',#772);
#782=SHAPE_DEFINITION_REPRESENTATION(#1244,#783);
#783=SHAPE_REPRESENTATION('B02_removable_structural_lid',(#784),#1239);
#784=AXIS2_PLACEMENT_3D('',#1036,#844,#845);
#785=AXIS2_PLACEMENT_3D('',#1037,#846,#847);
#786=AXIS2_PLACEMENT_3D('',#1046,#852,#853);
#787=AXIS2_PLACEMENT_3D('',#1052,#857,#858);
#788=AXIS2_PLACEMENT_3D('',#1058,#862,#863);
#789=AXIS2_PLACEMENT_3D('',#1067,#868,#869);
#790=AXIS2_PLACEMENT_3D('',#1073,#873,#874);
#791=AXIS2_PLACEMENT_3D('',#1079,#878,#879);
#792=AXIS2_PLACEMENT_3D('',#1088,#884,#885);
#793=AXIS2_PLACEMENT_3D('',#1094,#889,#890);
#794=AXIS2_PLACEMENT_3D('',#1100,#894,#895);
#795=AXIS2_PLACEMENT_3D('',#1109,#900,#901);
#796=AXIS2_PLACEMENT_3D('',#1115,#905,#906);
#797=AXIS2_PLACEMENT_3D('',#1121,#910,#911);
#798=AXIS2_PLACEMENT_3D('',#1130,#916,#917);
#799=AXIS2_PLACEMENT_3D('',#1136,#921,#922);
#800=AXIS2_PLACEMENT_3D('',#1142,#926,#927);
#801=AXIS2_PLACEMENT_3D('',#1151,#932,#933);
#802=AXIS2_PLACEMENT_3D('',#1157,#937,#938);
#803=AXIS2_PLACEMENT_3D('',#1163,#942,#943);
#804=AXIS2_PLACEMENT_3D('',#1164,#944,#945);
#805=AXIS2_PLACEMENT_3D('',#1166,#946,#947);
#806=AXIS2_PLACEMENT_3D('',#1168,#948,#949);
#807=AXIS2_PLACEMENT_3D('',#1169,#950,#951);
#808=AXIS2_PLACEMENT_3D('',#1171,#952,#953);
#809=AXIS2_PLACEMENT_3D('',#1173,#954,#955);
#810=AXIS2_PLACEMENT_3D('',#1174,#956,#957);
#811=AXIS2_PLACEMENT_3D('',#1176,#958,#959);
#812=AXIS2_PLACEMENT_3D('',#1178,#960,#961);
#813=AXIS2_PLACEMENT_3D('',#1179,#962,#963);
#814=AXIS2_PLACEMENT_3D('',#1181,#964,#965);
#815=AXIS2_PLACEMENT_3D('',#1183,#966,#967);
#816=AXIS2_PLACEMENT_3D('',#1184,#968,#969);
#817=AXIS2_PLACEMENT_3D('',#1186,#970,#971);
#818=AXIS2_PLACEMENT_3D('',#1188,#972,#973);
#819=AXIS2_PLACEMENT_3D('',#1189,#974,#975);
#820=AXIS2_PLACEMENT_3D('',#1191,#976,#977);
#821=AXIS2_PLACEMENT_3D('',#1193,#978,#979);
#822=AXIS2_PLACEMENT_3D('',#1194,#980,#981);
#823=AXIS2_PLACEMENT_3D('',#1196,#982,#983);
#824=AXIS2_PLACEMENT_3D('',#1198,#984,#985);
#825=AXIS2_PLACEMENT_3D('',#1199,#986,#987);
#826=AXIS2_PLACEMENT_3D('',#1201,#988,#989);
#827=AXIS2_PLACEMENT_3D('',#1203,#990,#991);
#828=AXIS2_PLACEMENT_3D('',#1204,#992,#993);
#829=AXIS2_PLACEMENT_3D('',#1206,#994,#995);
#830=AXIS2_PLACEMENT_3D('',#1208,#996,#997);
#831=AXIS2_PLACEMENT_3D('',#1209,#998,#999);
#832=AXIS2_PLACEMENT_3D('',#1211,#1000,#1001);
#833=AXIS2_PLACEMENT_3D('',#1213,#1002,#1003);
#834=AXIS2_PLACEMENT_3D('',#1214,#1004,#1005);
#835=AXIS2_PLACEMENT_3D('',#1216,#1006,#1007);
#836=AXIS2_PLACEMENT_3D('',#1218,#1008,#1009);
#837=AXIS2_PLACEMENT_3D('',#1221,#1012,#1013);
#838=AXIS2_PLACEMENT_3D('',#1224,#1016,#1017);
#839=AXIS2_PLACEMENT_3D('',#1227,#1020,#1021);
#840=AXIS2_PLACEMENT_3D('',#1230,#1024,#1025);
#841=AXIS2_PLACEMENT_3D('',#1233,#1028,#1029);
#842=AXIS2_PLACEMENT_3D('',#1236,#1032,#1033);
#843=AXIS2_PLACEMENT_3D('',#1237,#1034,#1035);
#844=DIRECTION('',(0.,0.,1.));
#845=DIRECTION('',(1.,0.,0.));
#846=DIRECTION('',(1.,0.,0.));
#847=DIRECTION('',(0.,0.,-1.));
#848=DIRECTION('',(0.,-1.,0.));
#849=DIRECTION('',(0.,0.,-1.));
#850=DIRECTION('',(0.,-1.,0.));
#851=DIRECTION('',(0.,0.,-1.));
#852=DIRECTION('',(0.,1.,0.));
#853=DIRECTION('',(0.,0.,1.));
#854=DIRECTION('',(1.,0.,0.));
#855=DIRECTION('',(0.,0.,-1.));
#856=DIRECTION('',(1.,0.,0.));
#857=DIRECTION('',(-1.,0.,0.));
#858=DIRECTION('',(0.,0.,1.));
#859=DIRECTION('',(0.,1.,0.));
#860=DIRECTION('',(0.,0.,-1.));
#861=DIRECTION('',(0.,1.,0.));
#862=DIRECTION('',(1.,0.,0.));
#863=DIRECTION('',(0.,0.,-1.));
#864=DIRECTION('',(0.,-1.,0.));
#865=DIRECTION('',(0.,0.,-1.));
#866=DIRECTION('',(0.,-1.,0.));
#867=DIRECTION('',(0.,0.,-1.));
#868=DIRECTION('',(0.,-1.,0.));
#869=DIRECTION('',(0.,0.,-1.));
#870=DIRECTION('',(-1.,0.,0.));
#871=DIRECTION('',(0.,0.,-1.));
#872=DIRECTION('',(-1.,0.,0.));
#873=DIRECTION('',(-1.,0.,0.));
#874=DIRECTION('',(0.,0.,1.));
#875=DIRECTION('',(0.,1.,0.));
#876=DIRECTION('',(0.,0.,-1.));
#877=DIRECTION('',(0.,1.,0.));
#878=DIRECTION('',(1.,0.,0.));
#879=DIRECTION('',(0.,0.,-1.));
#880=DIRECTION('',(0.,-1.,0.));
#881=DIRECTION('',(0.,0.,-1.));
#882=DIRECTION('',(0.,-1.,0.));
#883=DIRECTION('',(0.,0.,-1.));
#884=DIRECTION('',(0.,-1.,0.));
#885=DIRECTION('',(0.,0.,-1.));
#886=DIRECTION('',(-1.,0.,0.));
#887=DIRECTION('',(0.,0.,-1.));
#888=DIRECTION('',(-1.,0.,0.));
#889=DIRECTION('',(-1.,0.,0.));
#890=DIRECTION('',(0.,0.,1.));
#891=DIRECTION('',(0.,1.,0.));
#892=DIRECTION('',(0.,0.,-1.));
#893=DIRECTION('',(0.,1.,0.));
#894=DIRECTION('',(1.,0.,0.));
#895=DIRECTION('',(0.,0.,-1.));
#896=DIRECTION('',(0.,-1.,0.));
#897=DIRECTION('',(0.,0.,-1.));
#898=DIRECTION('',(0.,-1.,0.));
#899=DIRECTION('',(0.,0.,-1.));
#900=DIRECTION('',(0.,-1.,0.));
#901=DIRECTION('',(0.,0.,-1.));
#902=DIRECTION('',(-1.,0.,0.));
#903=DIRECTION('',(0.,0.,-1.));
#904=DIRECTION('',(-1.,0.,0.));
#905=DIRECTION('',(-1.,0.,0.));
#906=DIRECTION('',(0.,0.,1.));
#907=DIRECTION('',(0.,1.,0.));
#908=DIRECTION('',(0.,0.,-1.));
#909=DIRECTION('',(0.,1.,0.));
#910=DIRECTION('',(1.,0.,0.));
#911=DIRECTION('',(0.,0.,-1.));
#912=DIRECTION('',(0.,-1.,0.));
#913=DIRECTION('',(0.,0.,-1.));
#914=DIRECTION('',(0.,-1.,0.));
#915=DIRECTION('',(0.,0.,-1.));
#916=DIRECTION('',(0.,-1.,0.));
#917=DIRECTION('',(0.,0.,-1.));
#918=DIRECTION('',(-1.,0.,0.));
#919=DIRECTION('',(0.,0.,-1.));
#920=DIRECTION('',(-1.,0.,0.));
#921=DIRECTION('',(-1.,0.,0.));
#922=DIRECTION('',(0.,0.,1.));
#923=DIRECTION('',(0.,1.,0.));
#924=DIRECTION('',(0.,0.,-1.));
#925=DIRECTION('',(0.,1.,0.));
#926=DIRECTION('',(1.,0.,0.));
#927=DIRECTION('',(0.,0.,-1.));
#928=DIRECTION('',(0.,-1.,0.));
#929=DIRECTION('',(0.,0.,-1.));
#930=DIRECTION('',(0.,-1.,0.));
#931=DIRECTION('',(0.,0.,-1.));
#932=DIRECTION('',(0.,-1.,0.));
#933=DIRECTION('',(0.,0.,-1.));
#934=DIRECTION('',(-1.,0.,0.));
#935=DIRECTION('',(0.,0.,-1.));
#936=DIRECTION('',(-1.,0.,0.));
#937=DIRECTION('',(-1.,0.,0.));
#938=DIRECTION('',(0.,0.,1.));
#939=DIRECTION('',(0.,1.,0.));
#940=DIRECTION('',(0.,0.,-1.));
#941=DIRECTION('',(0.,1.,0.));
#942=DIRECTION('',(0.,0.,-1.));
#943=DIRECTION('',(-1.,0.,0.));
#944=DIRECTION('',(0.,0.,1.));
#945=DIRECTION('',(1.,0.,0.));
#946=DIRECTION('',(0.,0.,1.));
#947=DIRECTION('',(1.,0.,0.));
#948=DIRECTION('',(0.,0.,-1.));
#949=DIRECTION('',(-1.,0.,0.));
#950=DIRECTION('',(0.,0.,1.));
#951=DIRECTION('',(1.,0.,0.));
#952=DIRECTION('',(0.,0.,1.));
#953=DIRECTION('',(1.,0.,0.));
#954=DIRECTION('',(0.,0.,-1.));
#955=DIRECTION('',(-1.,0.,0.));
#956=DIRECTION('',(0.,0.,1.));
#957=DIRECTION('',(1.,0.,0.));
#958=DIRECTION('',(0.,0.,1.));
#959=DIRECTION('',(1.,0.,0.));
#960=DIRECTION('',(0.,0.,-1.));
#961=DIRECTION('',(-1.,0.,0.));
#962=DIRECTION('',(0.,0.,1.));
#963=DIRECTION('',(1.,0.,0.));
#964=DIRECTION('',(0.,0.,1.));
#965=DIRECTION('',(1.,0.,0.));
#966=DIRECTION('',(0.,0.,-1.));
#967=DIRECTION('',(-1.,0.,0.));
#968=DIRECTION('',(0.,0.,1.));
#969=DIRECTION('',(1.,0.,0.));
#970=DIRECTION('',(0.,0.,1.));
#971=DIRECTION('',(1.,0.,0.));
#972=DIRECTION('',(0.,0.,-1.));
#973=DIRECTION('',(-1.,0.,0.));
#974=DIRECTION('',(0.,0.,1.));
#975=DIRECTION('',(1.,0.,0.));
#976=DIRECTION('',(0.,0.,1.));
#977=DIRECTION('',(1.,0.,0.));
#978=DIRECTION('',(0.,0.,-1.));
#979=DIRECTION('',(-1.,0.,0.));
#980=DIRECTION('',(0.,0.,1.));
#981=DIRECTION('',(1.,0.,0.));
#982=DIRECTION('',(0.,0.,1.));
#983=DIRECTION('',(1.,0.,0.));
#984=DIRECTION('',(0.,0.,-1.));
#985=DIRECTION('',(-1.,0.,0.));
#986=DIRECTION('',(0.,0.,1.));
#987=DIRECTION('',(1.,0.,0.));
#988=DIRECTION('',(0.,0.,1.));
#989=DIRECTION('',(1.,0.,0.));
#990=DIRECTION('',(0.,0.,-1.));
#991=DIRECTION('',(-1.,0.,0.));
#992=DIRECTION('',(0.,0.,1.));
#993=DIRECTION('',(1.,0.,0.));
#994=DIRECTION('',(0.,0.,1.));
#995=DIRECTION('',(1.,0.,0.));
#996=DIRECTION('',(0.,0.,-1.));
#997=DIRECTION('',(-1.,0.,0.));
#998=DIRECTION('',(0.,0.,1.));
#999=DIRECTION('',(1.,0.,0.));
#1000=DIRECTION('',(0.,0.,1.));
#1001=DIRECTION('',(1.,0.,0.));
#1002=DIRECTION('',(0.,0.,-1.));
#1003=DIRECTION('',(-1.,0.,0.));
#1004=DIRECTION('',(0.,0.,1.));
#1005=DIRECTION('',(1.,0.,0.));
#1006=DIRECTION('',(0.,0.,1.));
#1007=DIRECTION('',(1.,0.,0.));
#1008=DIRECTION('',(0.,1.,0.));
#1009=DIRECTION('',(0.,0.,1.));
#1010=DIRECTION('',(1.,0.,0.));
#1011=DIRECTION('',(1.,0.,0.));
#1012=DIRECTION('',(0.,1.,0.));
#1013=DIRECTION('',(0.,0.,1.));
#1014=DIRECTION('',(1.,0.,0.));
#1015=DIRECTION('',(1.,0.,0.));
#1016=DIRECTION('',(0.,1.,0.));
#1017=DIRECTION('',(0.,0.,1.));
#1018=DIRECTION('',(1.,0.,0.));
#1019=DIRECTION('',(1.,0.,0.));
#1020=DIRECTION('',(0.,1.,0.));
#1021=DIRECTION('',(0.,0.,1.));
#1022=DIRECTION('',(1.,0.,0.));
#1023=DIRECTION('',(1.,0.,0.));
#1024=DIRECTION('',(0.,1.,0.));
#1025=DIRECTION('',(0.,0.,1.));
#1026=DIRECTION('',(1.,0.,0.));
#1027=DIRECTION('',(1.,0.,0.));
#1028=DIRECTION('',(0.,-1.,0.));
#1029=DIRECTION('',(0.,0.,-1.));
#1030=DIRECTION('',(-1.,0.,0.));
#1031=DIRECTION('',(-1.,0.,0.));
#1032=DIRECTION('',(0.,0.,1.));
#1033=DIRECTION('',(1.,0.,0.));
#1034=DIRECTION('',(0.,0.,1.));
#1035=DIRECTION('',(1.,0.,0.));
#1036=CARTESIAN_POINT('',(0.,0.,0.));
#1037=CARTESIAN_POINT('',(-110.,90.,5.));
#1038=CARTESIAN_POINT('',(-110.,90.,0.));
#1039=CARTESIAN_POINT('',(-110.,90.,0.));
#1040=CARTESIAN_POINT('',(-110.,-90.,0.));
#1041=CARTESIAN_POINT('',(-110.,-90.,5.));
#1042=CARTESIAN_POINT('',(-110.,-90.,5.));
#1043=CARTESIAN_POINT('',(-110.,90.,5.));
#1044=CARTESIAN_POINT('',(-110.,90.,5.));
#1045=CARTESIAN_POINT('',(-110.,90.,5.));
#1046=CARTESIAN_POINT('',(-110.,-90.,5.));
#1047=CARTESIAN_POINT('',(-110.,-90.,0.));
#1048=CARTESIAN_POINT('',(110.,-90.,0.));
#1049=CARTESIAN_POINT('',(110.,-90.,5.));
#1050=CARTESIAN_POINT('',(110.,-90.,5.));
#1051=CARTESIAN_POINT('',(-110.,-90.,5.));
#1052=CARTESIAN_POINT('',(110.,-90.,5.));
#1053=CARTESIAN_POINT('',(110.,-90.,0.));
#1054=CARTESIAN_POINT('',(110.,90.,0.));
#1055=CARTESIAN_POINT('',(110.,90.,5.));
#1056=CARTESIAN_POINT('',(110.,90.,5.));
#1057=CARTESIAN_POINT('',(110.,-90.,5.));
#1058=CARTESIAN_POINT('',(-80.,78.,5.));
#1059=CARTESIAN_POINT('',(-80.,78.,0.));
#1060=CARTESIAN_POINT('',(-80.,78.,0.));
#1061=CARTESIAN_POINT('',(-80.,58.,0.));
#1062=CARTESIAN_POINT('',(-80.,78.,5.));
#1063=CARTESIAN_POINT('',(-80.,78.,5.));
#1064=CARTESIAN_POINT('',(-80.,78.,5.));
#1065=CARTESIAN_POINT('',(-80.,58.,5.));
#1066=CARTESIAN_POINT('',(-80.,58.,5.));
#1067=CARTESIAN_POINT('',(-75.,78.,5.));
#1068=CARTESIAN_POINT('',(-75.,78.,0.));
#1069=CARTESIAN_POINT('',(-75.,78.,0.));
#1070=CARTESIAN_POINT('',(-75.,78.,5.));
#1071=CARTESIAN_POINT('',(-75.,78.,5.));
#1072=CARTESIAN_POINT('',(-75.,78.,5.));
#1073=CARTESIAN_POINT('',(-75.,58.,5.));
#1074=CARTESIAN_POINT('',(-75.,58.,0.));
#1075=CARTESIAN_POINT('',(-75.,58.,0.));
#1076=CARTESIAN_POINT('',(-75.,58.,5.));
#1077=CARTESIAN_POINT('',(-75.,58.,5.));
#1078=CARTESIAN_POINT('',(-75.,58.,5.));
#1079=CARTESIAN_POINT('',(-68.,78.,5.));
#1080=CARTESIAN_POINT('',(-68.,78.,0.));
#1081=CARTESIAN_POINT('',(-68.,78.,0.));
#1082=CARTESIAN_POINT('',(-68.,58.,0.));
#1083=CARTESIAN_POINT('',(-68.,78.,5.));
#1084=CARTESIAN_POINT('',(-68.,78.,5.));
#1085=CARTESIAN_POINT('',(-68.,78.,5.));
#1086=CARTESIAN_POINT('',(-68.,58.,5.));
#1087=CARTESIAN_POINT('',(-68.,58.,5.));
#1088=CARTESIAN_POINT('',(-63.,78.,5.));
#1089=CARTESIAN_POINT('',(-63.,78.,0.));
#1090=CARTESIAN_POINT('',(-63.,78.,0.));
#1091=CARTESIAN_POINT('',(-63.,78.,5.));
#1092=CARTESIAN_POINT('',(-63.,78.,5.));
#1093=CARTESIAN_POINT('',(-63.,78.,5.));
#1094=CARTESIAN_POINT('',(-63.,58.,5.));
#1095=CARTESIAN_POINT('',(-63.,58.,0.));
#1096=CARTESIAN_POINT('',(-63.,58.,0.));
#1097=CARTESIAN_POINT('',(-63.,58.,5.));
#1098=CARTESIAN_POINT('',(-63.,58.,5.));
#1099=CARTESIAN_POINT('',(-63.,58.,5.));
#1100=CARTESIAN_POINT('',(-56.,78.,5.));
#1101=CARTESIAN_POINT('',(-56.,78.,0.));
#1102=CARTESIAN_POINT('',(-56.,78.,0.));
#1103=CARTESIAN_POINT('',(-56.,58.,0.));
#1104=CARTESIAN_POINT('',(-56.,78.,5.));
#1105=CARTESIAN_POINT('',(-56.,78.,5.));
#1106=CARTESIAN_POINT('',(-56.,78.,5.));
#1107=CARTESIAN_POINT('',(-56.,58.,5.));
#1108=CARTESIAN_POINT('',(-56.,58.,5.));
#1109=CARTESIAN_POINT('',(-51.,78.,5.));
#1110=CARTESIAN_POINT('',(-51.,78.,0.));
#1111=CARTESIAN_POINT('',(-51.,78.,0.));
#1112=CARTESIAN_POINT('',(-51.,78.,5.));
#1113=CARTESIAN_POINT('',(-51.,78.,5.));
#1114=CARTESIAN_POINT('',(-51.,78.,5.));
#1115=CARTESIAN_POINT('',(-51.,58.,5.));
#1116=CARTESIAN_POINT('',(-51.,58.,0.));
#1117=CARTESIAN_POINT('',(-51.,58.,0.));
#1118=CARTESIAN_POINT('',(-51.,58.,5.));
#1119=CARTESIAN_POINT('',(-51.,58.,5.));
#1120=CARTESIAN_POINT('',(-51.,58.,5.));
#1121=CARTESIAN_POINT('',(-44.,78.,5.));
#1122=CARTESIAN_POINT('',(-44.,78.,0.));
#1123=CARTESIAN_POINT('',(-44.,78.,0.));
#1124=CARTESIAN_POINT('',(-44.,58.,0.));
#1125=CARTESIAN_POINT('',(-44.,78.,5.));
#1126=CARTESIAN_POINT('',(-44.,78.,5.));
#1127=CARTESIAN_POINT('',(-44.,78.,5.));
#1128=CARTESIAN_POINT('',(-44.,58.,5.));
#1129=CARTESIAN_POINT('',(-44.,58.,5.));
#1130=CARTESIAN_POINT('',(-39.,78.,5.));
#1131=CARTESIAN_POINT('',(-39.,78.,0.));
#1132=CARTESIAN_POINT('',(-39.,78.,0.));
#1133=CARTESIAN_POINT('',(-39.,78.,5.));
#1134=CARTESIAN_POINT('',(-39.,78.,5.));
#1135=CARTESIAN_POINT('',(-39.,78.,5.));
#1136=CARTESIAN_POINT('',(-39.,58.,5.));
#1137=CARTESIAN_POINT('',(-39.,58.,0.));
#1138=CARTESIAN_POINT('',(-39.,58.,0.));
#1139=CARTESIAN_POINT('',(-39.,58.,5.));
#1140=CARTESIAN_POINT('',(-39.,58.,5.));
#1141=CARTESIAN_POINT('',(-39.,58.,5.));
#1142=CARTESIAN_POINT('',(-32.,78.,5.));
#1143=CARTESIAN_POINT('',(-32.,78.,0.));
#1144=CARTESIAN_POINT('',(-32.,78.,0.));
#1145=CARTESIAN_POINT('',(-32.,58.,0.));
#1146=CARTESIAN_POINT('',(-32.,78.,5.));
#1147=CARTESIAN_POINT('',(-32.,78.,5.));
#1148=CARTESIAN_POINT('',(-32.,78.,5.));
#1149=CARTESIAN_POINT('',(-32.,58.,5.));
#1150=CARTESIAN_POINT('',(-32.,58.,5.));
#1151=CARTESIAN_POINT('',(-27.,78.,5.));
#1152=CARTESIAN_POINT('',(-27.,78.,0.));
#1153=CARTESIAN_POINT('',(-27.,78.,0.));
#1154=CARTESIAN_POINT('',(-27.,78.,5.));
#1155=CARTESIAN_POINT('',(-27.,78.,5.));
#1156=CARTESIAN_POINT('',(-27.,78.,5.));
#1157=CARTESIAN_POINT('',(-27.,58.,5.));
#1158=CARTESIAN_POINT('',(-27.,58.,0.));
#1159=CARTESIAN_POINT('',(-27.,58.,0.));
#1160=CARTESIAN_POINT('',(-27.,58.,5.));
#1161=CARTESIAN_POINT('',(-27.,58.,5.));
#1162=CARTESIAN_POINT('',(-27.,58.,5.));
#1163=CARTESIAN_POINT('',(-20.,0.,5.));
#1164=CARTESIAN_POINT('',(-20.,0.,5.));
#1165=CARTESIAN_POINT('',(12.3,0.,5.));
#1166=CARTESIAN_POINT('',(-20.,0.,0.));
#1167=CARTESIAN_POINT('',(12.3,0.,0.));
#1168=CARTESIAN_POINT('',(-102.,-82.,5.));
#1169=CARTESIAN_POINT('',(-102.,-82.,5.));
#1170=CARTESIAN_POINT('',(-100.3,-82.,5.));
#1171=CARTESIAN_POINT('',(-102.,-82.,0.));
#1172=CARTESIAN_POINT('',(-100.3,-82.,0.));
#1173=CARTESIAN_POINT('',(-102.,82.,5.));
#1174=CARTESIAN_POINT('',(-102.,82.,5.));
#1175=CARTESIAN_POINT('',(-100.3,82.,5.));
#1176=CARTESIAN_POINT('',(-102.,82.,0.));
#1177=CARTESIAN_POINT('',(-100.3,82.,0.));
#1178=CARTESIAN_POINT('',(102.,-82.,5.));
#1179=CARTESIAN_POINT('',(102.,-82.,5.));
#1180=CARTESIAN_POINT('',(103.7,-82.,5.));
#1181=CARTESIAN_POINT('',(102.,-82.,0.));
#1182=CARTESIAN_POINT('',(103.7,-82.,0.));
#1183=CARTESIAN_POINT('',(102.,82.,5.));
#1184=CARTESIAN_POINT('',(102.,82.,5.));
#1185=CARTESIAN_POINT('',(103.7,82.,5.));
#1186=CARTESIAN_POINT('',(102.,82.,0.));
#1187=CARTESIAN_POINT('',(103.7,82.,0.));
#1188=CARTESIAN_POINT('',(0.,-82.,5.));
#1189=CARTESIAN_POINT('',(0.,-82.,5.));
#1190=CARTESIAN_POINT('',(1.7,-82.,5.));
#1191=CARTESIAN_POINT('',(0.,-82.,0.));
#1192=CARTESIAN_POINT('',(1.7,-82.,0.));
#1193=CARTESIAN_POINT('',(0.,82.,5.));
#1194=CARTESIAN_POINT('',(0.,82.,5.));
#1195=CARTESIAN_POINT('',(1.7,82.,5.));
#1196=CARTESIAN_POINT('',(0.,82.,0.));
#1197=CARTESIAN_POINT('',(1.7,82.,0.));
#1198=CARTESIAN_POINT('',(17.,0.,5.));
#1199=CARTESIAN_POINT('',(17.,0.,5.));
#1200=CARTESIAN_POINT('',(18.7,0.,5.));
#1201=CARTESIAN_POINT('',(17.,0.,0.));
#1202=CARTESIAN_POINT('',(18.7,0.,0.));
#1203=CARTESIAN_POINT('',(-57.,0.,5.));
#1204=CARTESIAN_POINT('',(-57.,0.,5.));
#1205=CARTESIAN_POINT('',(-55.3,0.,5.));
#1206=CARTESIAN_POINT('',(-57.,0.,0.));
#1207=CARTESIAN_POINT('',(-55.3,0.,0.));
#1208=CARTESIAN_POINT('',(-20.,37.,5.));
#1209=CARTESIAN_POINT('',(-20.,37.,5.));
#1210=CARTESIAN_POINT('',(-18.3,37.,5.));
#1211=CARTESIAN_POINT('',(-20.,37.,0.));
#1212=CARTESIAN_POINT('',(-18.3,37.,0.));
#1213=CARTESIAN_POINT('',(-20.,-37.,5.));
#1214=CARTESIAN_POINT('',(-20.,-37.,5.));
#1215=CARTESIAN_POINT('',(-18.3,-37.,5.));
#1216=CARTESIAN_POINT('',(-20.,-37.,0.));
#1217=CARTESIAN_POINT('',(-18.3,-37.,0.));
#1218=CARTESIAN_POINT('',(-80.,58.,5.));
#1219=CARTESIAN_POINT('',(-80.,58.,0.));
#1220=CARTESIAN_POINT('',(-80.,58.,5.));
#1221=CARTESIAN_POINT('',(-68.,58.,5.));
#1222=CARTESIAN_POINT('',(-68.,58.,0.));
#1223=CARTESIAN_POINT('',(-68.,58.,5.));
#1224=CARTESIAN_POINT('',(-56.,58.,5.));
#1225=CARTESIAN_POINT('',(-56.,58.,0.));
#1226=CARTESIAN_POINT('',(-56.,58.,5.));
#1227=CARTESIAN_POINT('',(-44.,58.,5.));
#1228=CARTESIAN_POINT('',(-44.,58.,0.));
#1229=CARTESIAN_POINT('',(-44.,58.,5.));
#1230=CARTESIAN_POINT('',(-32.,58.,5.));
#1231=CARTESIAN_POINT('',(-32.,58.,0.));
#1232=CARTESIAN_POINT('',(-32.,58.,5.));
#1233=CARTESIAN_POINT('',(110.,90.,5.));
#1234=CARTESIAN_POINT('',(110.,90.,0.));
#1235=CARTESIAN_POINT('',(110.,90.,5.));
#1236=CARTESIAN_POINT('',(0.,0.,5.));
#1237=CARTESIAN_POINT('',(0.,0.,0.));
#1238=MECHANICAL_DESIGN_GEOMETRIC_PRESENTATION_REPRESENTATION('',(#773),
#1239);
#1239=(
GEOMETRIC_REPRESENTATION_CONTEXT(3)
GLOBAL_UNCERTAINTY_ASSIGNED_CONTEXT((#1240))
GLOBAL_UNIT_ASSIGNED_CONTEXT((#1243,#1242,#1241))
REPRESENTATION_CONTEXT('B02_removable_structural_lid',
'TOP_LEVEL_ASSEMBLY_PART')
);
#1240=UNCERTAINTY_MEASURE_WITH_UNIT(LENGTH_MEASURE(0.005),#1243,
'DISTANCE_ACCURACY_VALUE','Maximum Tolerance applied to model');
#1241=(
NAMED_UNIT(*)
SI_UNIT($,.STERADIAN.)
SOLID_ANGLE_UNIT()
);
#1242=(
NAMED_UNIT(*)
PLANE_ANGLE_UNIT()
SI_UNIT($,.RADIAN.)
);
#1243=(
LENGTH_UNIT()
NAMED_UNIT(*)
SI_UNIT(.MILLI.,.METRE.)
);
#1244=PRODUCT_DEFINITION_SHAPE('','',#1245);
#1245=PRODUCT_DEFINITION('','',#1247,#1246);
#1246=PRODUCT_DEFINITION_CONTEXT('',#1253,'design');
#1247=PRODUCT_DEFINITION_FORMATION_WITH_SPECIFIED_SOURCE('','',#1249,
 .NOT_KNOWN.);
#1248=PRODUCT_RELATED_PRODUCT_CATEGORY('','',(#1249));
#1249=PRODUCT('B02_removable_structural_lid',
'B02_removable_structural_lid','B02_removable_structural_lid',(#1251));
#1250=PRODUCT_CATEGORY('','');
#1251=PRODUCT_CONTEXT('',#1253,'mechanical');
#1252=APPLICATION_PROTOCOL_DEFINITION('international standard',
'automotive_design',2010,#1253);
#1253=APPLICATION_CONTEXT(
'core data for automotive mechanical design processes');
ENDSEC;
END-ISO-10303-21;
