ISO-10303-21;
HEADER;
/* Generated by software containing ST-Developer
 * from STEP Tools, Inc. (www.steptools.com) 
 */
/* OPTION: strings as raw bytes, not using required /X/ escapes */

FILE_DESCRIPTION(
/* description */ ('Unknown'),
/* implementation_level */ '2;1');

FILE_NAME(
/* name */ 'B02b_removable_structural_lid',
/* time_stamp */ '2026-09-23T11:58:16+08:00',
/* author */ ('Unknown'),
/* organization */ ('Unknown'),
/* preprocessor_version */ 'ST-DEVELOPER v16.7',
/* originating_system */ 'Solid Edge',
/* authorisation */ 'Unknown');

FILE_SCHEMA (('AUTOMOTIVE_DESIGN {1 0 10303 214 3 1 1}'));
ENDSEC;

DATA;
#10=PROPERTY_DEFINITION_REPRESENTATION(#14,#12);
#11=PROPERTY_DEFINITION_REPRESENTATION(#15,#13);
#12=REPRESENTATION('',(#16),#1375);
#13=REPRESENTATION('',(#17),#1375);
#14=PROPERTY_DEFINITION('pmi validation property','',#1380);
#15=PROPERTY_DEFINITION('pmi validation property','',#1380);
#16=VALUE_REPRESENTATION_ITEM('number of annotations',COUNT_MEASURE(0.));
#17=VALUE_REPRESENTATION_ITEM('number of views',COUNT_MEASURE(0.));
#18=SHAPE_REPRESENTATION_RELATIONSHIP('','',#863,#19);
#19=ADVANCED_BREP_SHAPE_REPRESENTATION('',(#861),#1375);
#20=CIRCLE('',#884,32.3);
#21=CIRCLE('',#885,32.3);
#22=CIRCLE('',#887,1.7);
#23=CIRCLE('',#888,1.7);
#24=CIRCLE('',#890,1.7);
#25=CIRCLE('',#891,1.7);
#26=CIRCLE('',#893,1.7);
#27=CIRCLE('',#894,1.7);
#28=CIRCLE('',#896,1.7);
#29=CIRCLE('',#897,1.7);
#30=CIRCLE('',#899,1.7);
#31=CIRCLE('',#900,1.7);
#32=CIRCLE('',#902,1.7);
#33=CIRCLE('',#903,1.7);
#34=CIRCLE('',#905,1.7);
#35=CIRCLE('',#906,1.7);
#36=CIRCLE('',#908,1.7);
#37=CIRCLE('',#909,1.7);
#38=CIRCLE('',#911,1.7);
#39=CIRCLE('',#912,1.7);
#40=CIRCLE('',#914,1.7);
#41=CIRCLE('',#915,1.7);
#42=CIRCLE('',#917,1.7);
#43=CIRCLE('',#918,1.7);
#44=CIRCLE('',#920,1.7);
#45=CIRCLE('',#921,1.7);
#46=CIRCLE('',#923,1.7);
#47=CIRCLE('',#924,1.7);
#48=CIRCLE('',#926,1.7);
#49=CIRCLE('',#927,1.7);
#50=CYLINDRICAL_SURFACE('',#883,32.3);
#51=CYLINDRICAL_SURFACE('',#886,1.7);
#52=CYLINDRICAL_SURFACE('',#889,1.7);
#53=CYLINDRICAL_SURFACE('',#892,1.7);
#54=CYLINDRICAL_SURFACE('',#895,1.7);
#55=CYLINDRICAL_SURFACE('',#898,1.7);
#56=CYLINDRICAL_SURFACE('',#901,1.7);
#57=CYLINDRICAL_SURFACE('',#904,1.7);
#58=CYLINDRICAL_SURFACE('',#907,1.7);
#59=CYLINDRICAL_SURFACE('',#910,1.7);
#60=CYLINDRICAL_SURFACE('',#913,1.7);
#61=CYLINDRICAL_SURFACE('',#916,1.7);
#62=CYLINDRICAL_SURFACE('',#919,1.7);
#63=CYLINDRICAL_SURFACE('',#922,1.7);
#64=CYLINDRICAL_SURFACE('',#925,1.7);
#65=ORIENTED_EDGE('',*,*,#269,.T.);
#66=ORIENTED_EDGE('',*,*,#270,.F.);
#67=ORIENTED_EDGE('',*,*,#271,.F.);
#68=ORIENTED_EDGE('',*,*,#272,.T.);
#69=ORIENTED_EDGE('',*,*,#273,.T.);
#70=ORIENTED_EDGE('',*,*,#274,.F.);
#71=ORIENTED_EDGE('',*,*,#275,.F.);
#72=ORIENTED_EDGE('',*,*,#270,.T.);
#73=ORIENTED_EDGE('',*,*,#276,.T.);
#74=ORIENTED_EDGE('',*,*,#277,.F.);
#75=ORIENTED_EDGE('',*,*,#278,.F.);
#76=ORIENTED_EDGE('',*,*,#274,.T.);
#77=ORIENTED_EDGE('',*,*,#279,.F.);
#78=ORIENTED_EDGE('',*,*,#280,.F.);
#79=ORIENTED_EDGE('',*,*,#281,.T.);
#80=ORIENTED_EDGE('',*,*,#282,.T.);
#81=ORIENTED_EDGE('',*,*,#283,.F.);
#82=ORIENTED_EDGE('',*,*,#284,.F.);
#83=ORIENTED_EDGE('',*,*,#285,.T.);
#84=ORIENTED_EDGE('',*,*,#280,.T.);
#85=ORIENTED_EDGE('',*,*,#286,.F.);
#86=ORIENTED_EDGE('',*,*,#287,.F.);
#87=ORIENTED_EDGE('',*,*,#288,.T.);
#88=ORIENTED_EDGE('',*,*,#284,.T.);
#89=ORIENTED_EDGE('',*,*,#289,.F.);
#90=ORIENTED_EDGE('',*,*,#290,.F.);
#91=ORIENTED_EDGE('',*,*,#291,.T.);
#92=ORIENTED_EDGE('',*,*,#292,.T.);
#93=ORIENTED_EDGE('',*,*,#293,.F.);
#94=ORIENTED_EDGE('',*,*,#294,.F.);
#95=ORIENTED_EDGE('',*,*,#295,.T.);
#96=ORIENTED_EDGE('',*,*,#290,.T.);
#97=ORIENTED_EDGE('',*,*,#296,.F.);
#98=ORIENTED_EDGE('',*,*,#297,.F.);
#99=ORIENTED_EDGE('',*,*,#298,.T.);
#100=ORIENTED_EDGE('',*,*,#294,.T.);
#101=ORIENTED_EDGE('',*,*,#299,.F.);
#102=ORIENTED_EDGE('',*,*,#300,.F.);
#103=ORIENTED_EDGE('',*,*,#301,.T.);
#104=ORIENTED_EDGE('',*,*,#302,.T.);
#105=ORIENTED_EDGE('',*,*,#303,.F.);
#106=ORIENTED_EDGE('',*,*,#304,.F.);
#107=ORIENTED_EDGE('',*,*,#305,.T.);
#108=ORIENTED_EDGE('',*,*,#300,.T.);
#109=ORIENTED_EDGE('',*,*,#306,.F.);
#110=ORIENTED_EDGE('',*,*,#307,.F.);
#111=ORIENTED_EDGE('',*,*,#308,.T.);
#112=ORIENTED_EDGE('',*,*,#304,.T.);
#113=ORIENTED_EDGE('',*,*,#309,.F.);
#114=ORIENTED_EDGE('',*,*,#310,.F.);
#115=ORIENTED_EDGE('',*,*,#311,.T.);
#116=ORIENTED_EDGE('',*,*,#312,.T.);
#117=ORIENTED_EDGE('',*,*,#313,.F.);
#118=ORIENTED_EDGE('',*,*,#314,.F.);
#119=ORIENTED_EDGE('',*,*,#315,.T.);
#120=ORIENTED_EDGE('',*,*,#310,.T.);
#121=ORIENTED_EDGE('',*,*,#316,.F.);
#122=ORIENTED_EDGE('',*,*,#317,.F.);
#123=ORIENTED_EDGE('',*,*,#318,.T.);
#124=ORIENTED_EDGE('',*,*,#314,.T.);
#125=ORIENTED_EDGE('',*,*,#319,.F.);
#126=ORIENTED_EDGE('',*,*,#320,.F.);
#127=ORIENTED_EDGE('',*,*,#321,.T.);
#128=ORIENTED_EDGE('',*,*,#322,.T.);
#129=ORIENTED_EDGE('',*,*,#323,.F.);
#130=ORIENTED_EDGE('',*,*,#324,.F.);
#131=ORIENTED_EDGE('',*,*,#325,.T.);
#132=ORIENTED_EDGE('',*,*,#320,.T.);
#133=ORIENTED_EDGE('',*,*,#326,.F.);
#134=ORIENTED_EDGE('',*,*,#327,.F.);
#135=ORIENTED_EDGE('',*,*,#328,.T.);
#136=ORIENTED_EDGE('',*,*,#324,.T.);
#137=ORIENTED_EDGE('',*,*,#329,.T.);
#138=ORIENTED_EDGE('',*,*,#330,.F.);
#139=ORIENTED_EDGE('',*,*,#331,.T.);
#140=ORIENTED_EDGE('',*,*,#332,.F.);
#141=ORIENTED_EDGE('',*,*,#333,.T.);
#142=ORIENTED_EDGE('',*,*,#334,.F.);
#143=ORIENTED_EDGE('',*,*,#335,.T.);
#144=ORIENTED_EDGE('',*,*,#336,.F.);
#145=ORIENTED_EDGE('',*,*,#337,.T.);
#146=ORIENTED_EDGE('',*,*,#338,.F.);
#147=ORIENTED_EDGE('',*,*,#339,.T.);
#148=ORIENTED_EDGE('',*,*,#340,.F.);
#149=ORIENTED_EDGE('',*,*,#341,.T.);
#150=ORIENTED_EDGE('',*,*,#342,.F.);
#151=ORIENTED_EDGE('',*,*,#343,.T.);
#152=ORIENTED_EDGE('',*,*,#344,.F.);
#153=ORIENTED_EDGE('',*,*,#345,.T.);
#154=ORIENTED_EDGE('',*,*,#346,.F.);
#155=ORIENTED_EDGE('',*,*,#347,.T.);
#156=ORIENTED_EDGE('',*,*,#348,.F.);
#157=ORIENTED_EDGE('',*,*,#349,.T.);
#158=ORIENTED_EDGE('',*,*,#350,.F.);
#159=ORIENTED_EDGE('',*,*,#351,.T.);
#160=ORIENTED_EDGE('',*,*,#352,.F.);
#161=ORIENTED_EDGE('',*,*,#353,.T.);
#162=ORIENTED_EDGE('',*,*,#354,.F.);
#163=ORIENTED_EDGE('',*,*,#355,.T.);
#164=ORIENTED_EDGE('',*,*,#356,.F.);
#165=ORIENTED_EDGE('',*,*,#357,.T.);
#166=ORIENTED_EDGE('',*,*,#358,.F.);
#167=ORIENTED_EDGE('',*,*,#359,.F.);
#168=ORIENTED_EDGE('',*,*,#282,.F.);
#169=ORIENTED_EDGE('',*,*,#360,.T.);
#170=ORIENTED_EDGE('',*,*,#287,.T.);
#171=ORIENTED_EDGE('',*,*,#361,.F.);
#172=ORIENTED_EDGE('',*,*,#292,.F.);
#173=ORIENTED_EDGE('',*,*,#362,.T.);
#174=ORIENTED_EDGE('',*,*,#297,.T.);
#175=ORIENTED_EDGE('',*,*,#363,.F.);
#176=ORIENTED_EDGE('',*,*,#302,.F.);
#177=ORIENTED_EDGE('',*,*,#364,.T.);
#178=ORIENTED_EDGE('',*,*,#307,.T.);
#179=ORIENTED_EDGE('',*,*,#365,.F.);
#180=ORIENTED_EDGE('',*,*,#312,.F.);
#181=ORIENTED_EDGE('',*,*,#366,.T.);
#182=ORIENTED_EDGE('',*,*,#317,.T.);
#183=ORIENTED_EDGE('',*,*,#367,.F.);
#184=ORIENTED_EDGE('',*,*,#322,.F.);
#185=ORIENTED_EDGE('',*,*,#368,.T.);
#186=ORIENTED_EDGE('',*,*,#327,.T.);
#187=ORIENTED_EDGE('',*,*,#369,.T.);
#188=ORIENTED_EDGE('',*,*,#272,.F.);
#189=ORIENTED_EDGE('',*,*,#370,.F.);
#190=ORIENTED_EDGE('',*,*,#277,.T.);
#191=ORIENTED_EDGE('',*,*,#321,.F.);
#192=ORIENTED_EDGE('',*,*,#325,.F.);
#193=ORIENTED_EDGE('',*,*,#328,.F.);
#194=ORIENTED_EDGE('',*,*,#368,.F.);
#195=ORIENTED_EDGE('',*,*,#311,.F.);
#196=ORIENTED_EDGE('',*,*,#315,.F.);
#197=ORIENTED_EDGE('',*,*,#318,.F.);
#198=ORIENTED_EDGE('',*,*,#366,.F.);
#199=ORIENTED_EDGE('',*,*,#301,.F.);
#200=ORIENTED_EDGE('',*,*,#305,.F.);
#201=ORIENTED_EDGE('',*,*,#308,.F.);
#202=ORIENTED_EDGE('',*,*,#364,.F.);
#203=ORIENTED_EDGE('',*,*,#291,.F.);
#204=ORIENTED_EDGE('',*,*,#295,.F.);
#205=ORIENTED_EDGE('',*,*,#298,.F.);
#206=ORIENTED_EDGE('',*,*,#362,.F.);
#207=ORIENTED_EDGE('',*,*,#281,.F.);
#208=ORIENTED_EDGE('',*,*,#285,.F.);
#209=ORIENTED_EDGE('',*,*,#288,.F.);
#210=ORIENTED_EDGE('',*,*,#360,.F.);
#211=ORIENTED_EDGE('',*,*,#357,.F.);
#212=ORIENTED_EDGE('',*,*,#355,.F.);
#213=ORIENTED_EDGE('',*,*,#353,.F.);
#214=ORIENTED_EDGE('',*,*,#351,.F.);
#215=ORIENTED_EDGE('',*,*,#349,.F.);
#216=ORIENTED_EDGE('',*,*,#347,.F.);
#217=ORIENTED_EDGE('',*,*,#345,.F.);
#218=ORIENTED_EDGE('',*,*,#343,.F.);
#219=ORIENTED_EDGE('',*,*,#341,.F.);
#220=ORIENTED_EDGE('',*,*,#339,.F.);
#221=ORIENTED_EDGE('',*,*,#337,.F.);
#222=ORIENTED_EDGE('',*,*,#335,.F.);
#223=ORIENTED_EDGE('',*,*,#333,.F.);
#224=ORIENTED_EDGE('',*,*,#331,.F.);
#225=ORIENTED_EDGE('',*,*,#329,.F.);
#226=ORIENTED_EDGE('',*,*,#271,.T.);
#227=ORIENTED_EDGE('',*,*,#275,.T.);
#228=ORIENTED_EDGE('',*,*,#278,.T.);
#229=ORIENTED_EDGE('',*,*,#370,.T.);
#230=ORIENTED_EDGE('',*,*,#319,.T.);
#231=ORIENTED_EDGE('',*,*,#367,.T.);
#232=ORIENTED_EDGE('',*,*,#326,.T.);
#233=ORIENTED_EDGE('',*,*,#323,.T.);
#234=ORIENTED_EDGE('',*,*,#309,.T.);
#235=ORIENTED_EDGE('',*,*,#365,.T.);
#236=ORIENTED_EDGE('',*,*,#316,.T.);
#237=ORIENTED_EDGE('',*,*,#313,.T.);
#238=ORIENTED_EDGE('',*,*,#299,.T.);
#239=ORIENTED_EDGE('',*,*,#363,.T.);
#240=ORIENTED_EDGE('',*,*,#306,.T.);
#241=ORIENTED_EDGE('',*,*,#303,.T.);
#242=ORIENTED_EDGE('',*,*,#289,.T.);
#243=ORIENTED_EDGE('',*,*,#361,.T.);
#244=ORIENTED_EDGE('',*,*,#296,.T.);
#245=ORIENTED_EDGE('',*,*,#293,.T.);
#246=ORIENTED_EDGE('',*,*,#279,.T.);
#247=ORIENTED_EDGE('',*,*,#359,.T.);
#248=ORIENTED_EDGE('',*,*,#286,.T.);
#249=ORIENTED_EDGE('',*,*,#283,.T.);
#250=ORIENTED_EDGE('',*,*,#358,.T.);
#251=ORIENTED_EDGE('',*,*,#356,.T.);
#252=ORIENTED_EDGE('',*,*,#354,.T.);
#253=ORIENTED_EDGE('',*,*,#352,.T.);
#254=ORIENTED_EDGE('',*,*,#350,.T.);
#255=ORIENTED_EDGE('',*,*,#348,.T.);
#256=ORIENTED_EDGE('',*,*,#346,.T.);
#257=ORIENTED_EDGE('',*,*,#344,.T.);
#258=ORIENTED_EDGE('',*,*,#342,.T.);
#259=ORIENTED_EDGE('',*,*,#340,.T.);
#260=ORIENTED_EDGE('',*,*,#338,.T.);
#261=ORIENTED_EDGE('',*,*,#336,.T.);
#262=ORIENTED_EDGE('',*,*,#334,.T.);
#263=ORIENTED_EDGE('',*,*,#332,.T.);
#264=ORIENTED_EDGE('',*,*,#330,.T.);
#265=ORIENTED_EDGE('',*,*,#269,.F.);
#266=ORIENTED_EDGE('',*,*,#369,.F.);
#267=ORIENTED_EDGE('',*,*,#276,.F.);
#268=ORIENTED_EDGE('',*,*,#273,.F.);
#269=EDGE_CURVE('',#371,#372,#449,.T.);
#270=EDGE_CURVE('',#373,#372,#450,.T.);
#271=EDGE_CURVE('',#374,#373,#451,.T.);
#272=EDGE_CURVE('',#374,#371,#452,.T.);
#273=EDGE_CURVE('',#372,#375,#453,.T.);
#274=EDGE_CURVE('',#376,#375,#454,.T.);
#275=EDGE_CURVE('',#373,#376,#455,.T.);
#276=EDGE_CURVE('',#375,#377,#456,.T.);
#277=EDGE_CURVE('',#378,#377,#457,.T.);
#278=EDGE_CURVE('',#376,#378,#458,.T.);
#279=EDGE_CURVE('',#379,#380,#459,.T.);
#280=EDGE_CURVE('',#381,#379,#460,.T.);
#281=EDGE_CURVE('',#381,#382,#461,.T.);
#282=EDGE_CURVE('',#382,#380,#462,.T.);
#283=EDGE_CURVE('',#383,#379,#463,.T.);
#284=EDGE_CURVE('',#384,#383,#464,.T.);
#285=EDGE_CURVE('',#384,#381,#465,.T.);
#286=EDGE_CURVE('',#385,#383,#466,.T.);
#287=EDGE_CURVE('',#386,#385,#467,.T.);
#288=EDGE_CURVE('',#386,#384,#468,.T.);
#289=EDGE_CURVE('',#387,#388,#469,.T.);
#290=EDGE_CURVE('',#389,#387,#470,.T.);
#291=EDGE_CURVE('',#389,#390,#471,.T.);
#292=EDGE_CURVE('',#390,#388,#472,.T.);
#293=EDGE_CURVE('',#391,#387,#473,.T.);
#294=EDGE_CURVE('',#392,#391,#474,.T.);
#295=EDGE_CURVE('',#392,#389,#475,.T.);
#296=EDGE_CURVE('',#393,#391,#476,.T.);
#297=EDGE_CURVE('',#394,#393,#477,.T.);
#298=EDGE_CURVE('',#394,#392,#478,.T.);
#299=EDGE_CURVE('',#395,#396,#479,.T.);
#300=EDGE_CURVE('',#397,#395,#480,.T.);
#301=EDGE_CURVE('',#397,#398,#481,.T.);
#302=EDGE_CURVE('',#398,#396,#482,.T.);
#303=EDGE_CURVE('',#399,#395,#483,.T.);
#304=EDGE_CURVE('',#400,#399,#484,.T.);
#305=EDGE_CURVE('',#400,#397,#485,.T.);
#306=EDGE_CURVE('',#401,#399,#486,.T.);
#307=EDGE_CURVE('',#402,#401,#487,.T.);
#308=EDGE_CURVE('',#402,#400,#488,.T.);
#309=EDGE_CURVE('',#403,#404,#489,.T.);
#310=EDGE_CURVE('',#405,#403,#490,.T.);
#311=EDGE_CURVE('',#405,#406,#491,.T.);
#312=EDGE_CURVE('',#406,#404,#492,.T.);
#313=EDGE_CURVE('',#407,#403,#493,.T.);
#314=EDGE_CURVE('',#408,#407,#494,.T.);
#315=EDGE_CURVE('',#408,#405,#495,.T.);
#316=EDGE_CURVE('',#409,#407,#496,.T.);
#317=EDGE_CURVE('',#410,#409,#497,.T.);
#318=EDGE_CURVE('',#410,#408,#498,.T.);
#319=EDGE_CURVE('',#411,#412,#499,.T.);
#320=EDGE_CURVE('',#413,#411,#500,.T.);
#321=EDGE_CURVE('',#413,#414,#501,.T.);
#322=EDGE_CURVE('',#414,#412,#502,.T.);
#323=EDGE_CURVE('',#415,#411,#503,.T.);
#324=EDGE_CURVE('',#416,#415,#504,.T.);
#325=EDGE_CURVE('',#416,#413,#505,.T.);
#326=EDGE_CURVE('',#417,#415,#506,.T.);
#327=EDGE_CURVE('',#418,#417,#507,.T.);
#328=EDGE_CURVE('',#418,#416,#508,.T.);
#329=EDGE_CURVE('',#419,#419,#20,.T.);
#330=EDGE_CURVE('',#420,#420,#21,.T.);
#331=EDGE_CURVE('',#421,#421,#22,.T.);
#332=EDGE_CURVE('',#422,#422,#23,.T.);
#333=EDGE_CURVE('',#423,#423,#24,.T.);
#334=EDGE_CURVE('',#424,#424,#25,.T.);
#335=EDGE_CURVE('',#425,#425,#26,.T.);
#336=EDGE_CURVE('',#426,#426,#27,.T.);
#337=EDGE_CURVE('',#427,#427,#28,.T.);
#338=EDGE_CURVE('',#428,#428,#29,.T.);
#339=EDGE_CURVE('',#429,#429,#30,.T.);
#340=EDGE_CURVE('',#430,#430,#31,.T.);
#341=EDGE_CURVE('',#431,#431,#32,.T.);
#342=EDGE_CURVE('',#432,#432,#33,.T.);
#343=EDGE_CURVE('',#433,#433,#34,.T.);
#344=EDGE_CURVE('',#434,#434,#35,.T.);
#345=EDGE_CURVE('',#435,#435,#36,.T.);
#346=EDGE_CURVE('',#436,#436,#37,.T.);
#347=EDGE_CURVE('',#437,#437,#38,.T.);
#348=EDGE_CURVE('',#438,#438,#39,.T.);
#349=EDGE_CURVE('',#439,#439,#40,.T.);
#350=EDGE_CURVE('',#440,#440,#41,.T.);
#351=EDGE_CURVE('',#441,#441,#42,.T.);
#352=EDGE_CURVE('',#442,#442,#43,.T.);
#353=EDGE_CURVE('',#443,#443,#44,.T.);
#354=EDGE_CURVE('',#444,#444,#45,.T.);
#355=EDGE_CURVE('',#445,#445,#46,.T.);
#356=EDGE_CURVE('',#446,#446,#47,.T.);
#357=EDGE_CURVE('',#447,#447,#48,.T.);
#358=EDGE_CURVE('',#448,#448,#49,.T.);
#359=EDGE_CURVE('',#380,#385,#509,.T.);
#360=EDGE_CURVE('',#382,#386,#510,.T.);
#361=EDGE_CURVE('',#388,#393,#511,.T.);
#362=EDGE_CURVE('',#390,#394,#512,.T.);
#363=EDGE_CURVE('',#396,#401,#513,.T.);
#364=EDGE_CURVE('',#398,#402,#514,.T.);
#365=EDGE_CURVE('',#404,#409,#515,.T.);
#366=EDGE_CURVE('',#406,#410,#516,.T.);
#367=EDGE_CURVE('',#412,#417,#517,.T.);
#368=EDGE_CURVE('',#414,#418,#518,.T.);
#369=EDGE_CURVE('',#377,#371,#519,.T.);
#370=EDGE_CURVE('',#378,#374,#520,.T.);
#371=VERTEX_POINT('',#1155);
#372=VERTEX_POINT('',#1156);
#373=VERTEX_POINT('',#1158);
#374=VERTEX_POINT('',#1160);
#375=VERTEX_POINT('',#1164);
#376=VERTEX_POINT('',#1166);
#377=VERTEX_POINT('',#1170);
#378=VERTEX_POINT('',#1172);
#379=VERTEX_POINT('',#1176);
#380=VERTEX_POINT('',#1177);
#381=VERTEX_POINT('',#1179);
#382=VERTEX_POINT('',#1181);
#383=VERTEX_POINT('',#1185);
#384=VERTEX_POINT('',#1187);
#385=VERTEX_POINT('',#1191);
#386=VERTEX_POINT('',#1193);
#387=VERTEX_POINT('',#1197);
#388=VERTEX_POINT('',#1198);
#389=VERTEX_POINT('',#1200);
#390=VERTEX_POINT('',#1202);
#391=VERTEX_POINT('',#1206);
#392=VERTEX_POINT('',#1208);
#393=VERTEX_POINT('',#1212);
#394=VERTEX_POINT('',#1214);
#395=VERTEX_POINT('',#1218);
#396=VERTEX_POINT('',#1219);
#397=VERTEX_POINT('',#1221);
#398=VERTEX_POINT('',#1223);
#399=VERTEX_POINT('',#1227);
#400=VERTEX_POINT('',#1229);
#401=VERTEX_POINT('',#1233);
#402=VERTEX_POINT('',#1235);
#403=VERTEX_POINT('',#1239);
#404=VERTEX_POINT('',#1240);
#405=VERTEX_POINT('',#1242);
#406=VERTEX_POINT('',#1244);
#407=VERTEX_POINT('',#1248);
#408=VERTEX_POINT('',#1250);
#409=VERTEX_POINT('',#1254);
#410=VERTEX_POINT('',#1256);
#411=VERTEX_POINT('',#1260);
#412=VERTEX_POINT('',#1261);
#413=VERTEX_POINT('',#1263);
#414=VERTEX_POINT('',#1265);
#415=VERTEX_POINT('',#1269);
#416=VERTEX_POINT('',#1271);
#417=VERTEX_POINT('',#1275);
#418=VERTEX_POINT('',#1277);
#419=VERTEX_POINT('',#1281);
#420=VERTEX_POINT('',#1283);
#421=VERTEX_POINT('',#1286);
#422=VERTEX_POINT('',#1288);
#423=VERTEX_POINT('',#1291);
#424=VERTEX_POINT('',#1293);
#425=VERTEX_POINT('',#1296);
#426=VERTEX_POINT('',#1298);
#427=VERTEX_POINT('',#1301);
#428=VERTEX_POINT('',#1303);
#429=VERTEX_POINT('',#1306);
#430=VERTEX_POINT('',#1308);
#431=VERTEX_POINT('',#1311);
#432=VERTEX_POINT('',#1313);
#433=VERTEX_POINT('',#1316);
#434=VERTEX_POINT('',#1318);
#435=VERTEX_POINT('',#1321);
#436=VERTEX_POINT('',#1323);
#437=VERTEX_POINT('',#1326);
#438=VERTEX_POINT('',#1328);
#439=VERTEX_POINT('',#1331);
#440=VERTEX_POINT('',#1333);
#441=VERTEX_POINT('',#1336);
#442=VERTEX_POINT('',#1338);
#443=VERTEX_POINT('',#1341);
#444=VERTEX_POINT('',#1343);
#445=VERTEX_POINT('',#1346);
#446=VERTEX_POINT('',#1348);
#447=VERTEX_POINT('',#1351);
#448=VERTEX_POINT('',#1353);
#449=LINE('',#1154,#521);
#450=LINE('',#1157,#522);
#451=LINE('',#1159,#523);
#452=LINE('',#1161,#524);
#453=LINE('',#1163,#525);
#454=LINE('',#1165,#526);
#455=LINE('',#1167,#527);
#456=LINE('',#1169,#528);
#457=LINE('',#1171,#529);
#458=LINE('',#1173,#530);
#459=LINE('',#1175,#531);
#460=LINE('',#1178,#532);
#461=LINE('',#1180,#533);
#462=LINE('',#1182,#534);
#463=LINE('',#1184,#535);
#464=LINE('',#1186,#536);
#465=LINE('',#1188,#537);
#466=LINE('',#1190,#538);
#467=LINE('',#1192,#539);
#468=LINE('',#1194,#540);
#469=LINE('',#1196,#541);
#470=LINE('',#1199,#542);
#471=LINE('',#1201,#543);
#472=LINE('',#1203,#544);
#473=LINE('',#1205,#545);
#474=LINE('',#1207,#546);
#475=LINE('',#1209,#547);
#476=LINE('',#1211,#548);
#477=LINE('',#1213,#549);
#478=LINE('',#1215,#550);
#479=LINE('',#1217,#551);
#480=LINE('',#1220,#552);
#481=LINE('',#1222,#553);
#482=LINE('',#1224,#554);
#483=LINE('',#1226,#555);
#484=LINE('',#1228,#556);
#485=LINE('',#1230,#557);
#486=LINE('',#1232,#558);
#487=LINE('',#1234,#559);
#488=LINE('',#1236,#560);
#489=LINE('',#1238,#561);
#490=LINE('',#1241,#562);
#491=LINE('',#1243,#563);
#492=LINE('',#1245,#564);
#493=LINE('',#1247,#565);
#494=LINE('',#1249,#566);
#495=LINE('',#1251,#567);
#496=LINE('',#1253,#568);
#497=LINE('',#1255,#569);
#498=LINE('',#1257,#570);
#499=LINE('',#1259,#571);
#500=LINE('',#1262,#572);
#501=LINE('',#1264,#573);
#502=LINE('',#1266,#574);
#503=LINE('',#1268,#575);
#504=LINE('',#1270,#576);
#505=LINE('',#1272,#577);
#506=LINE('',#1274,#578);
#507=LINE('',#1276,#579);
#508=LINE('',#1278,#580);
#509=LINE('',#1355,#581);
#510=LINE('',#1356,#582);
#511=LINE('',#1358,#583);
#512=LINE('',#1359,#584);
#513=LINE('',#1361,#585);
#514=LINE('',#1362,#586);
#515=LINE('',#1364,#587);
#516=LINE('',#1365,#588);
#517=LINE('',#1367,#589);
#518=LINE('',#1368,#590);
#519=LINE('',#1370,#591);
#520=LINE('',#1371,#592);
#521=VECTOR('',#940,1000.);
#522=VECTOR('',#941,1000.);
#523=VECTOR('',#942,1000.);
#524=VECTOR('',#943,1000.);
#525=VECTOR('',#946,1000.);
#526=VECTOR('',#947,1000.);
#527=VECTOR('',#948,1000.);
#528=VECTOR('',#951,1000.);
#529=VECTOR('',#952,1000.);
#530=VECTOR('',#953,1000.);
#531=VECTOR('',#956,1000.);
#532=VECTOR('',#957,1000.);
#533=VECTOR('',#958,1000.);
#534=VECTOR('',#959,1000.);
#535=VECTOR('',#962,1000.);
#536=VECTOR('',#963,1000.);
#537=VECTOR('',#964,1000.);
#538=VECTOR('',#967,1000.);
#539=VECTOR('',#968,1000.);
#540=VECTOR('',#969,1000.);
#541=VECTOR('',#972,1000.);
#542=VECTOR('',#973,1000.);
#543=VECTOR('',#974,1000.);
#544=VECTOR('',#975,1000.);
#545=VECTOR('',#978,1000.);
#546=VECTOR('',#979,1000.);
#547=VECTOR('',#980,1000.);
#548=VECTOR('',#983,1000.);
#549=VECTOR('',#984,1000.);
#550=VECTOR('',#985,1000.);
#551=VECTOR('',#988,1000.);
#552=VECTOR('',#989,1000.);
#553=VECTOR('',#990,1000.);
#554=VECTOR('',#991,1000.);
#555=VECTOR('',#994,1000.);
#556=VECTOR('',#995,1000.);
#557=VECTOR('',#996,1000.);
#558=VECTOR('',#999,1000.);
#559=VECTOR('',#1000,1000.);
#560=VECTOR('',#1001,1000.);
#561=VECTOR('',#1004,1000.);
#562=VECTOR('',#1005,1000.);
#563=VECTOR('',#1006,1000.);
#564=VECTOR('',#1007,1000.);
#565=VECTOR('',#1010,1000.);
#566=VECTOR('',#1011,1000.);
#567=VECTOR('',#1012,1000.);
#568=VECTOR('',#1015,1000.);
#569=VECTOR('',#1016,1000.);
#570=VECTOR('',#1017,1000.);
#571=VECTOR('',#1020,1000.);
#572=VECTOR('',#1021,1000.);
#573=VECTOR('',#1022,1000.);
#574=VECTOR('',#1023,1000.);
#575=VECTOR('',#1026,1000.);
#576=VECTOR('',#1027,1000.);
#577=VECTOR('',#1028,1000.);
#578=VECTOR('',#1031,1000.);
#579=VECTOR('',#1032,1000.);
#580=VECTOR('',#1033,1000.);
#581=VECTOR('',#1126,1000.);
#582=VECTOR('',#1127,1000.);
#583=VECTOR('',#1130,1000.);
#584=VECTOR('',#1131,1000.);
#585=VECTOR('',#1134,1000.);
#586=VECTOR('',#1135,1000.);
#587=VECTOR('',#1138,1000.);
#588=VECTOR('',#1139,1000.);
#589=VECTOR('',#1142,1000.);
#590=VECTOR('',#1143,1000.);
#591=VECTOR('',#1146,1000.);
#592=VECTOR('',#1147,1000.);
#593=EDGE_LOOP('',(#65,#66,#67,#68));
#594=EDGE_LOOP('',(#69,#70,#71,#72));
#595=EDGE_LOOP('',(#73,#74,#75,#76));
#596=EDGE_LOOP('',(#77,#78,#79,#80));
#597=EDGE_LOOP('',(#81,#82,#83,#84));
#598=EDGE_LOOP('',(#85,#86,#87,#88));
#599=EDGE_LOOP('',(#89,#90,#91,#92));
#600=EDGE_LOOP('',(#93,#94,#95,#96));
#601=EDGE_LOOP('',(#97,#98,#99,#100));
#602=EDGE_LOOP('',(#101,#102,#103,#104));
#603=EDGE_LOOP('',(#105,#106,#107,#108));
#604=EDGE_LOOP('',(#109,#110,#111,#112));
#605=EDGE_LOOP('',(#113,#114,#115,#116));
#606=EDGE_LOOP('',(#117,#118,#119,#120));
#607=EDGE_LOOP('',(#121,#122,#123,#124));
#608=EDGE_LOOP('',(#125,#126,#127,#128));
#609=EDGE_LOOP('',(#129,#130,#131,#132));
#610=EDGE_LOOP('',(#133,#134,#135,#136));
#611=EDGE_LOOP('',(#137));
#612=EDGE_LOOP('',(#138));
#613=EDGE_LOOP('',(#139));
#614=EDGE_LOOP('',(#140));
#615=EDGE_LOOP('',(#141));
#616=EDGE_LOOP('',(#142));
#617=EDGE_LOOP('',(#143));
#618=EDGE_LOOP('',(#144));
#619=EDGE_LOOP('',(#145));
#620=EDGE_LOOP('',(#146));
#621=EDGE_LOOP('',(#147));
#622=EDGE_LOOP('',(#148));
#623=EDGE_LOOP('',(#149));
#624=EDGE_LOOP('',(#150));
#625=EDGE_LOOP('',(#151));
#626=EDGE_LOOP('',(#152));
#627=EDGE_LOOP('',(#153));
#628=EDGE_LOOP('',(#154));
#629=EDGE_LOOP('',(#155));
#630=EDGE_LOOP('',(#156));
#631=EDGE_LOOP('',(#157));
#632=EDGE_LOOP('',(#158));
#633=EDGE_LOOP('',(#159));
#634=EDGE_LOOP('',(#160));
#635=EDGE_LOOP('',(#161));
#636=EDGE_LOOP('',(#162));
#637=EDGE_LOOP('',(#163));
#638=EDGE_LOOP('',(#164));
#639=EDGE_LOOP('',(#165));
#640=EDGE_LOOP('',(#166));
#641=EDGE_LOOP('',(#167,#168,#169,#170));
#642=EDGE_LOOP('',(#171,#172,#173,#174));
#643=EDGE_LOOP('',(#175,#176,#177,#178));
#644=EDGE_LOOP('',(#179,#180,#181,#182));
#645=EDGE_LOOP('',(#183,#184,#185,#186));
#646=EDGE_LOOP('',(#187,#188,#189,#190));
#647=EDGE_LOOP('',(#191,#192,#193,#194));
#648=EDGE_LOOP('',(#195,#196,#197,#198));
#649=EDGE_LOOP('',(#199,#200,#201,#202));
#650=EDGE_LOOP('',(#203,#204,#205,#206));
#651=EDGE_LOOP('',(#207,#208,#209,#210));
#652=EDGE_LOOP('',(#211));
#653=EDGE_LOOP('',(#212));
#654=EDGE_LOOP('',(#213));
#655=EDGE_LOOP('',(#214));
#656=EDGE_LOOP('',(#215));
#657=EDGE_LOOP('',(#216));
#658=EDGE_LOOP('',(#217));
#659=EDGE_LOOP('',(#218));
#660=EDGE_LOOP('',(#219));
#661=EDGE_LOOP('',(#220));
#662=EDGE_LOOP('',(#221));
#663=EDGE_LOOP('',(#222));
#664=EDGE_LOOP('',(#223));
#665=EDGE_LOOP('',(#224));
#666=EDGE_LOOP('',(#225));
#667=EDGE_LOOP('',(#226,#227,#228,#229));
#668=EDGE_LOOP('',(#230,#231,#232,#233));
#669=EDGE_LOOP('',(#234,#235,#236,#237));
#670=EDGE_LOOP('',(#238,#239,#240,#241));
#671=EDGE_LOOP('',(#242,#243,#244,#245));
#672=EDGE_LOOP('',(#246,#247,#248,#249));
#673=EDGE_LOOP('',(#250));
#674=EDGE_LOOP('',(#251));
#675=EDGE_LOOP('',(#252));
#676=EDGE_LOOP('',(#253));
#677=EDGE_LOOP('',(#254));
#678=EDGE_LOOP('',(#255));
#679=EDGE_LOOP('',(#256));
#680=EDGE_LOOP('',(#257));
#681=EDGE_LOOP('',(#258));
#682=EDGE_LOOP('',(#259));
#683=EDGE_LOOP('',(#260));
#684=EDGE_LOOP('',(#261));
#685=EDGE_LOOP('',(#262));
#686=EDGE_LOOP('',(#263));
#687=EDGE_LOOP('',(#264));
#688=EDGE_LOOP('',(#265,#266,#267,#268));
#689=FACE_BOUND('',#593,.T.);
#690=FACE_BOUND('',#594,.T.);
#691=FACE_BOUND('',#595,.T.);
#692=FACE_BOUND('',#596,.T.);
#693=FACE_BOUND('',#597,.T.);
#694=FACE_BOUND('',#598,.T.);
#695=FACE_BOUND('',#599,.T.);
#696=FACE_BOUND('',#600,.T.);
#697=FACE_BOUND('',#601,.T.);
#698=FACE_BOUND('',#602,.T.);
#699=FACE_BOUND('',#603,.T.);
#700=FACE_BOUND('',#604,.T.);
#701=FACE_BOUND('',#605,.T.);
#702=FACE_BOUND('',#606,.T.);
#703=FACE_BOUND('',#607,.T.);
#704=FACE_BOUND('',#608,.T.);
#705=FACE_BOUND('',#609,.T.);
#706=FACE_BOUND('',#610,.T.);
#707=FACE_BOUND('',#611,.T.);
#708=FACE_BOUND('',#612,.T.);
#709=FACE_BOUND('',#613,.T.);
#710=FACE_BOUND('',#614,.T.);
#711=FACE_BOUND('',#615,.T.);
#712=FACE_BOUND('',#616,.T.);
#713=FACE_BOUND('',#617,.T.);
#714=FACE_BOUND('',#618,.T.);
#715=FACE_BOUND('',#619,.T.);
#716=FACE_BOUND('',#620,.T.);
#717=FACE_BOUND('',#621,.T.);
#718=FACE_BOUND('',#622,.T.);
#719=FACE_BOUND('',#623,.T.);
#720=FACE_BOUND('',#624,.T.);
#721=FACE_BOUND('',#625,.T.);
#722=FACE_BOUND('',#626,.T.);
#723=FACE_BOUND('',#627,.T.);
#724=FACE_BOUND('',#628,.T.);
#725=FACE_BOUND('',#629,.T.);
#726=FACE_BOUND('',#630,.T.);
#727=FACE_BOUND('',#631,.T.);
#728=FACE_BOUND('',#632,.T.);
#729=FACE_BOUND('',#633,.T.);
#730=FACE_BOUND('',#634,.T.);
#731=FACE_BOUND('',#635,.T.);
#732=FACE_BOUND('',#636,.T.);
#733=FACE_BOUND('',#637,.T.);
#734=FACE_BOUND('',#638,.T.);
#735=FACE_BOUND('',#639,.T.);
#736=FACE_BOUND('',#640,.T.);
#737=FACE_BOUND('',#641,.T.);
#738=FACE_BOUND('',#642,.T.);
#739=FACE_BOUND('',#643,.T.);
#740=FACE_BOUND('',#644,.T.);
#741=FACE_BOUND('',#645,.T.);
#742=FACE_BOUND('',#646,.T.);
#743=FACE_BOUND('',#647,.T.);
#744=FACE_BOUND('',#648,.T.);
#745=FACE_BOUND('',#649,.T.);
#746=FACE_BOUND('',#650,.T.);
#747=FACE_BOUND('',#651,.T.);
#748=FACE_BOUND('',#652,.T.);
#749=FACE_BOUND('',#653,.T.);
#750=FACE_BOUND('',#654,.T.);
#751=FACE_BOUND('',#655,.T.);
#752=FACE_BOUND('',#656,.T.);
#753=FACE_BOUND('',#657,.T.);
#754=FACE_BOUND('',#658,.T.);
#755=FACE_BOUND('',#659,.T.);
#756=FACE_BOUND('',#660,.T.);
#757=FACE_BOUND('',#661,.T.);
#758=FACE_BOUND('',#662,.T.);
#759=FACE_BOUND('',#663,.T.);
#760=FACE_BOUND('',#664,.T.);
#761=FACE_BOUND('',#665,.T.);
#762=FACE_BOUND('',#666,.T.);
#763=FACE_BOUND('',#667,.T.);
#764=FACE_BOUND('',#668,.T.);
#765=FACE_BOUND('',#669,.T.);
#766=FACE_BOUND('',#670,.T.);
#767=FACE_BOUND('',#671,.T.);
#768=FACE_BOUND('',#672,.T.);
#769=FACE_BOUND('',#673,.T.);
#770=FACE_BOUND('',#674,.T.);
#771=FACE_BOUND('',#675,.T.);
#772=FACE_BOUND('',#676,.T.);
#773=FACE_BOUND('',#677,.T.);
#774=FACE_BOUND('',#678,.T.);
#775=FACE_BOUND('',#679,.T.);
#776=FACE_BOUND('',#680,.T.);
#777=FACE_BOUND('',#681,.T.);
#778=FACE_BOUND('',#682,.T.);
#779=FACE_BOUND('',#683,.T.);
#780=FACE_BOUND('',#684,.T.);
#781=FACE_BOUND('',#685,.T.);
#782=FACE_BOUND('',#686,.T.);
#783=FACE_BOUND('',#687,.T.);
#784=FACE_BOUND('',#688,.T.);
#785=PLANE('',#865);
#786=PLANE('',#866);
#787=PLANE('',#867);
#788=PLANE('',#868);
#789=PLANE('',#869);
#790=PLANE('',#870);
#791=PLANE('',#871);
#792=PLANE('',#872);
#793=PLANE('',#873);
#794=PLANE('',#874);
#795=PLANE('',#875);
#796=PLANE('',#876);
#797=PLANE('',#877);
#798=PLANE('',#878);
#799=PLANE('',#879);
#800=PLANE('',#880);
#801=PLANE('',#881);
#802=PLANE('',#882);
#803=PLANE('',#928);
#804=PLANE('',#929);
#805=PLANE('',#930);
#806=PLANE('',#931);
#807=PLANE('',#932);
#808=PLANE('',#933);
#809=PLANE('',#934);
#810=PLANE('',#935);
#811=ADVANCED_FACE('',(#689),#785,.F.);
#812=ADVANCED_FACE('',(#690),#786,.F.);
#813=ADVANCED_FACE('',(#691),#787,.F.);
#814=ADVANCED_FACE('',(#692),#788,.T.);
#815=ADVANCED_FACE('',(#693),#789,.T.);
#816=ADVANCED_FACE('',(#694),#790,.T.);
#817=ADVANCED_FACE('',(#695),#791,.T.);
#818=ADVANCED_FACE('',(#696),#792,.T.);
#819=ADVANCED_FACE('',(#697),#793,.T.);
#820=ADVANCED_FACE('',(#698),#794,.T.);
#821=ADVANCED_FACE('',(#699),#795,.T.);
#822=ADVANCED_FACE('',(#700),#796,.T.);
#823=ADVANCED_FACE('',(#701),#797,.T.);
#824=ADVANCED_FACE('',(#702),#798,.T.);
#825=ADVANCED_FACE('',(#703),#799,.T.);
#826=ADVANCED_FACE('',(#704),#800,.T.);
#827=ADVANCED_FACE('',(#705),#801,.T.);
#828=ADVANCED_FACE('',(#706),#802,.T.);
#829=ADVANCED_FACE('',(#707,#708),#50,.F.);
#830=ADVANCED_FACE('',(#709,#710),#51,.F.);
#831=ADVANCED_FACE('',(#711,#712),#52,.F.);
#832=ADVANCED_FACE('',(#713,#714),#53,.F.);
#833=ADVANCED_FACE('',(#715,#716),#54,.F.);
#834=ADVANCED_FACE('',(#717,#718),#55,.F.);
#835=ADVANCED_FACE('',(#719,#720),#56,.F.);
#836=ADVANCED_FACE('',(#721,#722),#57,.F.);
#837=ADVANCED_FACE('',(#723,#724),#58,.F.);
#838=ADVANCED_FACE('',(#725,#726),#59,.F.);
#839=ADVANCED_FACE('',(#727,#728),#60,.F.);
#840=ADVANCED_FACE('',(#729,#730),#61,.F.);
#841=ADVANCED_FACE('',(#731,#732),#62,.F.);
#842=ADVANCED_FACE('',(#733,#734),#63,.F.);
#843=ADVANCED_FACE('',(#735,#736),#64,.F.);
#844=ADVANCED_FACE('',(#737),#803,.T.);
#845=ADVANCED_FACE('',(#738),#804,.T.);
#846=ADVANCED_FACE('',(#739),#805,.T.);
#847=ADVANCED_FACE('',(#740),#806,.T.);
#848=ADVANCED_FACE('',(#741),#807,.T.);
#849=ADVANCED_FACE('',(#742),#808,.F.);
#850=ADVANCED_FACE('',(#743,#744,#745,#746,#747,#748,#749,#750,#751,#752,
#753,#754,#755,#756,#757,#758,#759,#760,#761,#762,#763),#809,.T.);
#851=ADVANCED_FACE('',(#764,#765,#766,#767,#768,#769,#770,#771,#772,#773,
#774,#775,#776,#777,#778,#779,#780,#781,#782,#783,#784),#810,.F.);
#852=CLOSED_SHELL('',(#811,#812,#813,#814,#815,#816,#817,#818,#819,#820,
#821,#822,#823,#824,#825,#826,#827,#828,#829,#830,#831,#832,#833,#834,#835,
#836,#837,#838,#839,#840,#841,#842,#843,#844,#845,#846,#847,#848,#849,#850,
#851));
#853=STYLED_ITEM('',(#854),#861);
#854=PRESENTATION_STYLE_ASSIGNMENT((#855));
#855=SURFACE_STYLE_USAGE(.BOTH.,#856);
#856=SURFACE_SIDE_STYLE('',(#857));
#857=SURFACE_STYLE_FILL_AREA(#858);
#858=FILL_AREA_STYLE('',(#859));
#859=FILL_AREA_STYLE_COLOUR('',#860);
#860=COLOUR_RGB('',0.100000001490116,0.349999994039536,0.280000001192093);
#861=MANIFOLD_SOLID_BREP('',#852);
#862=SHAPE_DEFINITION_REPRESENTATION(#1380,#863);
#863=SHAPE_REPRESENTATION('B02b_removable_structural_lid',(#864),#1375);
#864=AXIS2_PLACEMENT_3D('',#1152,#936,#937);
#865=AXIS2_PLACEMENT_3D('',#1153,#938,#939);
#866=AXIS2_PLACEMENT_3D('',#1162,#944,#945);
#867=AXIS2_PLACEMENT_3D('',#1168,#949,#950);
#868=AXIS2_PLACEMENT_3D('',#1174,#954,#955);
#869=AXIS2_PLACEMENT_3D('',#1183,#960,#961);
#870=AXIS2_PLACEMENT_3D('',#1189,#965,#966);
#871=AXIS2_PLACEMENT_3D('',#1195,#970,#971);
#872=AXIS2_PLACEMENT_3D('',#1204,#976,#977);
#873=AXIS2_PLACEMENT_3D('',#1210,#981,#982);
#874=AXIS2_PLACEMENT_3D('',#1216,#986,#987);
#875=AXIS2_PLACEMENT_3D('',#1225,#992,#993);
#876=AXIS2_PLACEMENT_3D('',#1231,#997,#998);
#877=AXIS2_PLACEMENT_3D('',#1237,#1002,#1003);
#878=AXIS2_PLACEMENT_3D('',#1246,#1008,#1009);
#879=AXIS2_PLACEMENT_3D('',#1252,#1013,#1014);
#880=AXIS2_PLACEMENT_3D('',#1258,#1018,#1019);
#881=AXIS2_PLACEMENT_3D('',#1267,#1024,#1025);
#882=AXIS2_PLACEMENT_3D('',#1273,#1029,#1030);
#883=AXIS2_PLACEMENT_3D('',#1279,#1034,#1035);
#884=AXIS2_PLACEMENT_3D('',#1280,#1036,#1037);
#885=AXIS2_PLACEMENT_3D('',#1282,#1038,#1039);
#886=AXIS2_PLACEMENT_3D('',#1284,#1040,#1041);
#887=AXIS2_PLACEMENT_3D('',#1285,#1042,#1043);
#888=AXIS2_PLACEMENT_3D('',#1287,#1044,#1045);
#889=AXIS2_PLACEMENT_3D('',#1289,#1046,#1047);
#890=AXIS2_PLACEMENT_3D('',#1290,#1048,#1049);
#891=AXIS2_PLACEMENT_3D('',#1292,#1050,#1051);
#892=AXIS2_PLACEMENT_3D('',#1294,#1052,#1053);
#893=AXIS2_PLACEMENT_3D('',#1295,#1054,#1055);
#894=AXIS2_PLACEMENT_3D('',#1297,#1056,#1057);
#895=AXIS2_PLACEMENT_3D('',#1299,#1058,#1059);
#896=AXIS2_PLACEMENT_3D('',#1300,#1060,#1061);
#897=AXIS2_PLACEMENT_3D('',#1302,#1062,#1063);
#898=AXIS2_PLACEMENT_3D('',#1304,#1064,#1065);
#899=AXIS2_PLACEMENT_3D('',#1305,#1066,#1067);
#900=AXIS2_PLACEMENT_3D('',#1307,#1068,#1069);
#901=AXIS2_PLACEMENT_3D('',#1309,#1070,#1071);
#902=AXIS2_PLACEMENT_3D('',#1310,#1072,#1073);
#903=AXIS2_PLACEMENT_3D('',#1312,#1074,#1075);
#904=AXIS2_PLACEMENT_3D('',#1314,#1076,#1077);
#905=AXIS2_PLACEMENT_3D('',#1315,#1078,#1079);
#906=AXIS2_PLACEMENT_3D('',#1317,#1080,#1081);
#907=AXIS2_PLACEMENT_3D('',#1319,#1082,#1083);
#908=AXIS2_PLACEMENT_3D('',#1320,#1084,#1085);
#909=AXIS2_PLACEMENT_3D('',#1322,#1086,#1087);
#910=AXIS2_PLACEMENT_3D('',#1324,#1088,#1089);
#911=AXIS2_PLACEMENT_3D('',#1325,#1090,#1091);
#912=AXIS2_PLACEMENT_3D('',#1327,#1092,#1093);
#913=AXIS2_PLACEMENT_3D('',#1329,#1094,#1095);
#914=AXIS2_PLACEMENT_3D('',#1330,#1096,#1097);
#915=AXIS2_PLACEMENT_3D('',#1332,#1098,#1099);
#916=AXIS2_PLACEMENT_3D('',#1334,#1100,#1101);
#917=AXIS2_PLACEMENT_3D('',#1335,#1102,#1103);
#918=AXIS2_PLACEMENT_3D('',#1337,#1104,#1105);
#919=AXIS2_PLACEMENT_3D('',#1339,#1106,#1107);
#920=AXIS2_PLACEMENT_3D('',#1340,#1108,#1109);
#921=AXIS2_PLACEMENT_3D('',#1342,#1110,#1111);
#922=AXIS2_PLACEMENT_3D('',#1344,#1112,#1113);
#923=AXIS2_PLACEMENT_3D('',#1345,#1114,#1115);
#924=AXIS2_PLACEMENT_3D('',#1347,#1116,#1117);
#925=AXIS2_PLACEMENT_3D('',#1349,#1118,#1119);
#926=AXIS2_PLACEMENT_3D('',#1350,#1120,#1121);
#927=AXIS2_PLACEMENT_3D('',#1352,#1122,#1123);
#928=AXIS2_PLACEMENT_3D('',#1354,#1124,#1125);
#929=AXIS2_PLACEMENT_3D('',#1357,#1128,#1129);
#930=AXIS2_PLACEMENT_3D('',#1360,#1132,#1133);
#931=AXIS2_PLACEMENT_3D('',#1363,#1136,#1137);
#932=AXIS2_PLACEMENT_3D('',#1366,#1140,#1141);
#933=AXIS2_PLACEMENT_3D('',#1369,#1144,#1145);
#934=AXIS2_PLACEMENT_3D('',#1372,#1148,#1149);
#935=AXIS2_PLACEMENT_3D('',#1373,#1150,#1151);
#936=DIRECTION('',(0.,0.,1.));
#937=DIRECTION('',(1.,0.,0.));
#938=DIRECTION('',(1.,0.,0.));
#939=DIRECTION('',(0.,0.,-1.));
#940=DIRECTION('',(0.,-1.,0.));
#941=DIRECTION('',(0.,0.,-1.));
#942=DIRECTION('',(0.,-1.,0.));
#943=DIRECTION('',(0.,0.,-1.));
#944=DIRECTION('',(0.,1.,0.));
#945=DIRECTION('',(0.,0.,1.));
#946=DIRECTION('',(1.,0.,0.));
#947=DIRECTION('',(0.,0.,-1.));
#948=DIRECTION('',(1.,0.,0.));
#949=DIRECTION('',(-1.,0.,0.));
#950=DIRECTION('',(0.,0.,1.));
#951=DIRECTION('',(0.,1.,0.));
#952=DIRECTION('',(0.,0.,-1.));
#953=DIRECTION('',(0.,1.,0.));
#954=DIRECTION('',(1.,0.,0.));
#955=DIRECTION('',(0.,0.,-1.));
#956=DIRECTION('',(0.,-1.,0.));
#957=DIRECTION('',(0.,0.,-1.));
#958=DIRECTION('',(0.,-1.,0.));
#959=DIRECTION('',(0.,0.,-1.));
#960=DIRECTION('',(0.,-1.,0.));
#961=DIRECTION('',(0.,0.,-1.));
#962=DIRECTION('',(-1.,0.,0.));
#963=DIRECTION('',(0.,0.,-1.));
#964=DIRECTION('',(-1.,0.,0.));
#965=DIRECTION('',(-1.,0.,0.));
#966=DIRECTION('',(0.,0.,1.));
#967=DIRECTION('',(0.,1.,0.));
#968=DIRECTION('',(0.,0.,-1.));
#969=DIRECTION('',(0.,1.,0.));
#970=DIRECTION('',(1.,0.,0.));
#971=DIRECTION('',(0.,0.,-1.));
#972=DIRECTION('',(0.,-1.,0.));
#973=DIRECTION('',(0.,0.,-1.));
#974=DIRECTION('',(0.,-1.,0.));
#975=DIRECTION('',(0.,0.,-1.));
#976=DIRECTION('',(0.,-1.,0.));
#977=DIRECTION('',(0.,0.,-1.));
#978=DIRECTION('',(-1.,0.,0.));
#979=DIRECTION('',(0.,0.,-1.));
#980=DIRECTION('',(-1.,0.,0.));
#981=DIRECTION('',(-1.,0.,0.));
#982=DIRECTION('',(0.,0.,1.));
#983=DIRECTION('',(0.,1.,0.));
#984=DIRECTION('',(0.,0.,-1.));
#985=DIRECTION('',(0.,1.,0.));
#986=DIRECTION('',(1.,0.,0.));
#987=DIRECTION('',(0.,0.,-1.));
#988=DIRECTION('',(0.,-1.,0.));
#989=DIRECTION('',(0.,0.,-1.));
#990=DIRECTION('',(0.,-1.,0.));
#991=DIRECTION('',(0.,0.,-1.));
#992=DIRECTION('',(0.,-1.,0.));
#993=DIRECTION('',(0.,0.,-1.));
#994=DIRECTION('',(-1.,0.,0.));
#995=DIRECTION('',(0.,0.,-1.));
#996=DIRECTION('',(-1.,0.,0.));
#997=DIRECTION('',(-1.,0.,0.));
#998=DIRECTION('',(0.,0.,1.));
#999=DIRECTION('',(0.,1.,0.));
#1000=DIRECTION('',(0.,0.,-1.));
#1001=DIRECTION('',(0.,1.,0.));
#1002=DIRECTION('',(1.,0.,0.));
#1003=DIRECTION('',(0.,0.,-1.));
#1004=DIRECTION('',(0.,-1.,0.));
#1005=DIRECTION('',(0.,0.,-1.));
#1006=DIRECTION('',(0.,-1.,0.));
#1007=DIRECTION('',(0.,0.,-1.));
#1008=DIRECTION('',(0.,-1.,0.));
#1009=DIRECTION('',(0.,0.,-1.));
#1010=DIRECTION('',(-1.,0.,0.));
#1011=DIRECTION('',(0.,0.,-1.));
#1012=DIRECTION('',(-1.,0.,0.));
#1013=DIRECTION('',(-1.,0.,0.));
#1014=DIRECTION('',(0.,0.,1.));
#1015=DIRECTION('',(0.,1.,0.));
#1016=DIRECTION('',(0.,0.,-1.));
#1017=DIRECTION('',(0.,1.,0.));
#1018=DIRECTION('',(1.,0.,0.));
#1019=DIRECTION('',(0.,0.,-1.));
#1020=DIRECTION('',(0.,-1.,0.));
#1021=DIRECTION('',(0.,0.,-1.));
#1022=DIRECTION('',(0.,-1.,0.));
#1023=DIRECTION('',(0.,0.,-1.));
#1024=DIRECTION('',(0.,-1.,0.));
#1025=DIRECTION('',(0.,0.,-1.));
#1026=DIRECTION('',(-1.,0.,0.));
#1027=DIRECTION('',(0.,0.,-1.));
#1028=DIRECTION('',(-1.,0.,0.));
#1029=DIRECTION('',(-1.,0.,0.));
#1030=DIRECTION('',(0.,0.,1.));
#1031=DIRECTION('',(0.,1.,0.));
#1032=DIRECTION('',(0.,0.,-1.));
#1033=DIRECTION('',(0.,1.,0.));
#1034=DIRECTION('',(0.,0.,-1.));
#1035=DIRECTION('',(-1.,0.,0.));
#1036=DIRECTION('',(0.,0.,1.));
#1037=DIRECTION('',(1.,0.,0.));
#1038=DIRECTION('',(0.,0.,1.));
#1039=DIRECTION('',(1.,0.,0.));
#1040=DIRECTION('',(0.,0.,-1.));
#1041=DIRECTION('',(-1.,0.,0.));
#1042=DIRECTION('',(0.,0.,1.));
#1043=DIRECTION('',(1.,0.,0.));
#1044=DIRECTION('',(0.,0.,1.));
#1045=DIRECTION('',(1.,0.,0.));
#1046=DIRECTION('',(0.,0.,-1.));
#1047=DIRECTION('',(-1.,0.,0.));
#1048=DIRECTION('',(0.,0.,1.));
#1049=DIRECTION('',(1.,0.,0.));
#1050=DIRECTION('',(0.,0.,1.));
#1051=DIRECTION('',(1.,0.,0.));
#1052=DIRECTION('',(0.,0.,-1.));
#1053=DIRECTION('',(-1.,0.,0.));
#1054=DIRECTION('',(0.,0.,1.));
#1055=DIRECTION('',(1.,0.,0.));
#1056=DIRECTION('',(0.,0.,1.));
#1057=DIRECTION('',(1.,0.,0.));
#1058=DIRECTION('',(0.,0.,-1.));
#1059=DIRECTION('',(-1.,0.,0.));
#1060=DIRECTION('',(0.,0.,1.));
#1061=DIRECTION('',(1.,0.,0.));
#1062=DIRECTION('',(0.,0.,1.));
#1063=DIRECTION('',(1.,0.,0.));
#1064=DIRECTION('',(0.,0.,-1.));
#1065=DIRECTION('',(-1.,0.,0.));
#1066=DIRECTION('',(0.,0.,1.));
#1067=DIRECTION('',(1.,0.,0.));
#1068=DIRECTION('',(0.,0.,1.));
#1069=DIRECTION('',(1.,0.,0.));
#1070=DIRECTION('',(0.,0.,-1.));
#1071=DIRECTION('',(-1.,0.,0.));
#1072=DIRECTION('',(0.,0.,1.));
#1073=DIRECTION('',(1.,0.,0.));
#1074=DIRECTION('',(0.,0.,1.));
#1075=DIRECTION('',(1.,0.,0.));
#1076=DIRECTION('',(0.,0.,-1.));
#1077=DIRECTION('',(-1.,0.,0.));
#1078=DIRECTION('',(0.,0.,1.));
#1079=DIRECTION('',(1.,0.,0.));
#1080=DIRECTION('',(0.,0.,1.));
#1081=DIRECTION('',(1.,0.,0.));
#1082=DIRECTION('',(0.,0.,-1.));
#1083=DIRECTION('',(-1.,0.,0.));
#1084=DIRECTION('',(0.,0.,1.));
#1085=DIRECTION('',(1.,0.,0.));
#1086=DIRECTION('',(0.,0.,1.));
#1087=DIRECTION('',(1.,0.,0.));
#1088=DIRECTION('',(0.,0.,-1.));
#1089=DIRECTION('',(-1.,0.,0.));
#1090=DIRECTION('',(0.,0.,1.));
#1091=DIRECTION('',(1.,0.,0.));
#1092=DIRECTION('',(0.,0.,1.));
#1093=DIRECTION('',(1.,0.,0.));
#1094=DIRECTION('',(0.,0.,-1.));
#1095=DIRECTION('',(-1.,0.,0.));
#1096=DIRECTION('',(0.,0.,1.));
#1097=DIRECTION('',(1.,0.,0.));
#1098=DIRECTION('',(0.,0.,1.));
#1099=DIRECTION('',(1.,0.,0.));
#1100=DIRECTION('',(0.,0.,-1.));
#1101=DIRECTION('',(-1.,0.,0.));
#1102=DIRECTION('',(0.,0.,1.));
#1103=DIRECTION('',(1.,0.,0.));
#1104=DIRECTION('',(0.,0.,1.));
#1105=DIRECTION('',(1.,0.,0.));
#1106=DIRECTION('',(0.,0.,-1.));
#1107=DIRECTION('',(-1.,0.,0.));
#1108=DIRECTION('',(0.,0.,1.));
#1109=DIRECTION('',(1.,0.,0.));
#1110=DIRECTION('',(0.,0.,1.));
#1111=DIRECTION('',(1.,0.,0.));
#1112=DIRECTION('',(0.,0.,-1.));
#1113=DIRECTION('',(-1.,0.,0.));
#1114=DIRECTION('',(0.,0.,1.));
#1115=DIRECTION('',(1.,0.,0.));
#1116=DIRECTION('',(0.,0.,1.));
#1117=DIRECTION('',(1.,0.,0.));
#1118=DIRECTION('',(0.,0.,-1.));
#1119=DIRECTION('',(-1.,0.,0.));
#1120=DIRECTION('',(0.,0.,1.));
#1121=DIRECTION('',(1.,0.,0.));
#1122=DIRECTION('',(0.,0.,1.));
#1123=DIRECTION('',(1.,0.,0.));
#1124=DIRECTION('',(0.,1.,0.));
#1125=DIRECTION('',(0.,0.,1.));
#1126=DIRECTION('',(1.,0.,0.));
#1127=DIRECTION('',(1.,0.,0.));
#1128=DIRECTION('',(0.,1.,0.));
#1129=DIRECTION('',(0.,0.,1.));
#1130=DIRECTION('',(1.,0.,0.));
#1131=DIRECTION('',(1.,0.,0.));
#1132=DIRECTION('',(0.,1.,0.));
#1133=DIRECTION('',(0.,0.,1.));
#1134=DIRECTION('',(1.,0.,0.));
#1135=DIRECTION('',(1.,0.,0.));
#1136=DIRECTION('',(0.,1.,0.));
#1137=DIRECTION('',(0.,0.,1.));
#1138=DIRECTION('',(1.,0.,0.));
#1139=DIRECTION('',(1.,0.,0.));
#1140=DIRECTION('',(0.,1.,0.));
#1141=DIRECTION('',(0.,0.,1.));
#1142=DIRECTION('',(1.,0.,0.));
#1143=DIRECTION('',(1.,0.,0.));
#1144=DIRECTION('',(0.,-1.,0.));
#1145=DIRECTION('',(0.,0.,-1.));
#1146=DIRECTION('',(-1.,0.,0.));
#1147=DIRECTION('',(-1.,0.,0.));
#1148=DIRECTION('',(0.,0.,1.));
#1149=DIRECTION('',(1.,0.,0.));
#1150=DIRECTION('',(0.,0.,1.));
#1151=DIRECTION('',(1.,0.,0.));
#1152=CARTESIAN_POINT('',(0.,0.,0.));
#1153=CARTESIAN_POINT('',(-110.,90.,5.));
#1154=CARTESIAN_POINT('',(-110.,90.,0.));
#1155=CARTESIAN_POINT('',(-110.,90.,0.));
#1156=CARTESIAN_POINT('',(-110.,-90.,0.));
#1157=CARTESIAN_POINT('',(-110.,-90.,5.));
#1158=CARTESIAN_POINT('',(-110.,-90.,5.));
#1159=CARTESIAN_POINT('',(-110.,90.,5.));
#1160=CARTESIAN_POINT('',(-110.,90.,5.));
#1161=CARTESIAN_POINT('',(-110.,90.,5.));
#1162=CARTESIAN_POINT('',(-110.,-90.,5.));
#1163=CARTESIAN_POINT('',(-110.,-90.,0.));
#1164=CARTESIAN_POINT('',(110.,-90.,0.));
#1165=CARTESIAN_POINT('',(110.,-90.,5.));
#1166=CARTESIAN_POINT('',(110.,-90.,5.));
#1167=CARTESIAN_POINT('',(-110.,-90.,5.));
#1168=CARTESIAN_POINT('',(110.,-90.,5.));
#1169=CARTESIAN_POINT('',(110.,-90.,0.));
#1170=CARTESIAN_POINT('',(110.,90.,0.));
#1171=CARTESIAN_POINT('',(110.,90.,5.));
#1172=CARTESIAN_POINT('',(110.,90.,5.));
#1173=CARTESIAN_POINT('',(110.,-90.,5.));
#1174=CARTESIAN_POINT('',(-80.,78.,5.));
#1175=CARTESIAN_POINT('',(-80.,78.,0.));
#1176=CARTESIAN_POINT('',(-80.,78.,0.));
#1177=CARTESIAN_POINT('',(-80.,58.,0.));
#1178=CARTESIAN_POINT('',(-80.,78.,5.));
#1179=CARTESIAN_POINT('',(-80.,78.,5.));
#1180=CARTESIAN_POINT('',(-80.,78.,5.));
#1181=CARTESIAN_POINT('',(-80.,58.,5.));
#1182=CARTESIAN_POINT('',(-80.,58.,5.));
#1183=CARTESIAN_POINT('',(-75.,78.,5.));
#1184=CARTESIAN_POINT('',(-75.,78.,0.));
#1185=CARTESIAN_POINT('',(-75.,78.,0.));
#1186=CARTESIAN_POINT('',(-75.,78.,5.));
#1187=CARTESIAN_POINT('',(-75.,78.,5.));
#1188=CARTESIAN_POINT('',(-75.,78.,5.));
#1189=CARTESIAN_POINT('',(-75.,58.,5.));
#1190=CARTESIAN_POINT('',(-75.,58.,0.));
#1191=CARTESIAN_POINT('',(-75.,58.,0.));
#1192=CARTESIAN_POINT('',(-75.,58.,5.));
#1193=CARTESIAN_POINT('',(-75.,58.,5.));
#1194=CARTESIAN_POINT('',(-75.,58.,5.));
#1195=CARTESIAN_POINT('',(-68.,78.,5.));
#1196=CARTESIAN_POINT('',(-68.,78.,0.));
#1197=CARTESIAN_POINT('',(-68.,78.,0.));
#1198=CARTESIAN_POINT('',(-68.,58.,0.));
#1199=CARTESIAN_POINT('',(-68.,78.,5.));
#1200=CARTESIAN_POINT('',(-68.,78.,5.));
#1201=CARTESIAN_POINT('',(-68.,78.,5.));
#1202=CARTESIAN_POINT('',(-68.,58.,5.));
#1203=CARTESIAN_POINT('',(-68.,58.,5.));
#1204=CARTESIAN_POINT('',(-63.,78.,5.));
#1205=CARTESIAN_POINT('',(-63.,78.,0.));
#1206=CARTESIAN_POINT('',(-63.,78.,0.));
#1207=CARTESIAN_POINT('',(-63.,78.,5.));
#1208=CARTESIAN_POINT('',(-63.,78.,5.));
#1209=CARTESIAN_POINT('',(-63.,78.,5.));
#1210=CARTESIAN_POINT('',(-63.,58.,5.));
#1211=CARTESIAN_POINT('',(-63.,58.,0.));
#1212=CARTESIAN_POINT('',(-63.,58.,0.));
#1213=CARTESIAN_POINT('',(-63.,58.,5.));
#1214=CARTESIAN_POINT('',(-63.,58.,5.));
#1215=CARTESIAN_POINT('',(-63.,58.,5.));
#1216=CARTESIAN_POINT('',(-56.,78.,5.));
#1217=CARTESIAN_POINT('',(-56.,78.,0.));
#1218=CARTESIAN_POINT('',(-56.,78.,0.));
#1219=CARTESIAN_POINT('',(-56.,58.,0.));
#1220=CARTESIAN_POINT('',(-56.,78.,5.));
#1221=CARTESIAN_POINT('',(-56.,78.,5.));
#1222=CARTESIAN_POINT('',(-56.,78.,5.));
#1223=CARTESIAN_POINT('',(-56.,58.,5.));
#1224=CARTESIAN_POINT('',(-56.,58.,5.));
#1225=CARTESIAN_POINT('',(-51.,78.,5.));
#1226=CARTESIAN_POINT('',(-51.,78.,0.));
#1227=CARTESIAN_POINT('',(-51.,78.,0.));
#1228=CARTESIAN_POINT('',(-51.,78.,5.));
#1229=CARTESIAN_POINT('',(-51.,78.,5.));
#1230=CARTESIAN_POINT('',(-51.,78.,5.));
#1231=CARTESIAN_POINT('',(-51.,58.,5.));
#1232=CARTESIAN_POINT('',(-51.,58.,0.));
#1233=CARTESIAN_POINT('',(-51.,58.,0.));
#1234=CARTESIAN_POINT('',(-51.,58.,5.));
#1235=CARTESIAN_POINT('',(-51.,58.,5.));
#1236=CARTESIAN_POINT('',(-51.,58.,5.));
#1237=CARTESIAN_POINT('',(-44.,78.,5.));
#1238=CARTESIAN_POINT('',(-44.,78.,0.));
#1239=CARTESIAN_POINT('',(-44.,78.,0.));
#1240=CARTESIAN_POINT('',(-44.,58.,0.));
#1241=CARTESIAN_POINT('',(-44.,78.,5.));
#1242=CARTESIAN_POINT('',(-44.,78.,5.));
#1243=CARTESIAN_POINT('',(-44.,78.,5.));
#1244=CARTESIAN_POINT('',(-44.,58.,5.));
#1245=CARTESIAN_POINT('',(-44.,58.,5.));
#1246=CARTESIAN_POINT('',(-39.,78.,5.));
#1247=CARTESIAN_POINT('',(-39.,78.,0.));
#1248=CARTESIAN_POINT('',(-39.,78.,0.));
#1249=CARTESIAN_POINT('',(-39.,78.,5.));
#1250=CARTESIAN_POINT('',(-39.,78.,5.));
#1251=CARTESIAN_POINT('',(-39.,78.,5.));
#1252=CARTESIAN_POINT('',(-39.,58.,5.));
#1253=CARTESIAN_POINT('',(-39.,58.,0.));
#1254=CARTESIAN_POINT('',(-39.,58.,0.));
#1255=CARTESIAN_POINT('',(-39.,58.,5.));
#1256=CARTESIAN_POINT('',(-39.,58.,5.));
#1257=CARTESIAN_POINT('',(-39.,58.,5.));
#1258=CARTESIAN_POINT('',(-32.,78.,5.));
#1259=CARTESIAN_POINT('',(-32.,78.,0.));
#1260=CARTESIAN_POINT('',(-32.,78.,0.));
#1261=CARTESIAN_POINT('',(-32.,58.,0.));
#1262=CARTESIAN_POINT('',(-32.,78.,5.));
#1263=CARTESIAN_POINT('',(-32.,78.,5.));
#1264=CARTESIAN_POINT('',(-32.,78.,5.));
#1265=CARTESIAN_POINT('',(-32.,58.,5.));
#1266=CARTESIAN_POINT('',(-32.,58.,5.));
#1267=CARTESIAN_POINT('',(-27.,78.,5.));
#1268=CARTESIAN_POINT('',(-27.,78.,0.));
#1269=CARTESIAN_POINT('',(-27.,78.,0.));
#1270=CARTESIAN_POINT('',(-27.,78.,5.));
#1271=CARTESIAN_POINT('',(-27.,78.,5.));
#1272=CARTESIAN_POINT('',(-27.,78.,5.));
#1273=CARTESIAN_POINT('',(-27.,58.,5.));
#1274=CARTESIAN_POINT('',(-27.,58.,0.));
#1275=CARTESIAN_POINT('',(-27.,58.,0.));
#1276=CARTESIAN_POINT('',(-27.,58.,5.));
#1277=CARTESIAN_POINT('',(-27.,58.,5.));
#1278=CARTESIAN_POINT('',(-27.,58.,5.));
#1279=CARTESIAN_POINT('',(-20.,0.,5.));
#1280=CARTESIAN_POINT('',(-20.,0.,5.));
#1281=CARTESIAN_POINT('',(12.3,0.,5.));
#1282=CARTESIAN_POINT('',(-20.,0.,0.));
#1283=CARTESIAN_POINT('',(12.3,0.,0.));
#1284=CARTESIAN_POINT('',(-102.,-82.,5.));
#1285=CARTESIAN_POINT('',(-102.,-82.,5.));
#1286=CARTESIAN_POINT('',(-100.3,-82.,5.));
#1287=CARTESIAN_POINT('',(-102.,-82.,0.));
#1288=CARTESIAN_POINT('',(-100.3,-82.,0.));
#1289=CARTESIAN_POINT('',(-102.,82.,5.));
#1290=CARTESIAN_POINT('',(-102.,82.,5.));
#1291=CARTESIAN_POINT('',(-100.3,82.,5.));
#1292=CARTESIAN_POINT('',(-102.,82.,0.));
#1293=CARTESIAN_POINT('',(-100.3,82.,0.));
#1294=CARTESIAN_POINT('',(102.,-82.,5.));
#1295=CARTESIAN_POINT('',(102.,-82.,5.));
#1296=CARTESIAN_POINT('',(103.7,-82.,5.));
#1297=CARTESIAN_POINT('',(102.,-82.,0.));
#1298=CARTESIAN_POINT('',(103.7,-82.,0.));
#1299=CARTESIAN_POINT('',(102.,82.,5.));
#1300=CARTESIAN_POINT('',(102.,82.,5.));
#1301=CARTESIAN_POINT('',(103.7,82.,5.));
#1302=CARTESIAN_POINT('',(102.,82.,0.));
#1303=CARTESIAN_POINT('',(103.7,82.,0.));
#1304=CARTESIAN_POINT('',(0.,-82.,5.));
#1305=CARTESIAN_POINT('',(0.,-82.,5.));
#1306=CARTESIAN_POINT('',(1.7,-82.,5.));
#1307=CARTESIAN_POINT('',(0.,-82.,0.));
#1308=CARTESIAN_POINT('',(1.7,-82.,0.));
#1309=CARTESIAN_POINT('',(0.,82.,5.));
#1310=CARTESIAN_POINT('',(0.,82.,5.));
#1311=CARTESIAN_POINT('',(1.7,82.,5.));
#1312=CARTESIAN_POINT('',(0.,82.,0.));
#1313=CARTESIAN_POINT('',(1.7,82.,0.));
#1314=CARTESIAN_POINT('',(17.,0.,5.));
#1315=CARTESIAN_POINT('',(17.,0.,5.));
#1316=CARTESIAN_POINT('',(18.7,0.,5.));
#1317=CARTESIAN_POINT('',(17.,0.,0.));
#1318=CARTESIAN_POINT('',(18.7,0.,0.));
#1319=CARTESIAN_POINT('',(-57.,0.,5.));
#1320=CARTESIAN_POINT('',(-57.,0.,5.));
#1321=CARTESIAN_POINT('',(-55.3,0.,5.));
#1322=CARTESIAN_POINT('',(-57.,0.,0.));
#1323=CARTESIAN_POINT('',(-55.3,0.,0.));
#1324=CARTESIAN_POINT('',(-20.,37.,5.));
#1325=CARTESIAN_POINT('',(-20.,37.,5.));
#1326=CARTESIAN_POINT('',(-18.3,37.,5.));
#1327=CARTESIAN_POINT('',(-20.,37.,0.));
#1328=CARTESIAN_POINT('',(-18.3,37.,0.));
#1329=CARTESIAN_POINT('',(-20.,-37.,5.));
#1330=CARTESIAN_POINT('',(-20.,-37.,5.));
#1331=CARTESIAN_POINT('',(-18.3,-37.,5.));
#1332=CARTESIAN_POINT('',(-20.,-37.,0.));
#1333=CARTESIAN_POINT('',(-18.3,-37.,0.));
#1334=CARTESIAN_POINT('',(51.3137084989848,11.3137084989848,5.));
#1335=CARTESIAN_POINT('',(51.3137084989848,11.3137084989848,5.));
#1336=CARTESIAN_POINT('',(53.0137084989848,11.3137084989848,5.));
#1337=CARTESIAN_POINT('',(51.3137084989848,11.3137084989848,0.));
#1338=CARTESIAN_POINT('',(53.0137084989848,11.3137084989848,0.));
#1339=CARTESIAN_POINT('',(28.6862915010152,11.3137084989848,5.));
#1340=CARTESIAN_POINT('',(28.6862915010152,11.3137084989848,5.));
#1341=CARTESIAN_POINT('',(30.3862915010152,11.3137084989848,5.));
#1342=CARTESIAN_POINT('',(28.6862915010152,11.3137084989848,0.));
#1343=CARTESIAN_POINT('',(30.3862915010152,11.3137084989848,0.));
#1344=CARTESIAN_POINT('',(28.6862915010152,-11.3137084989848,5.));
#1345=CARTESIAN_POINT('',(28.6862915010152,-11.3137084989848,5.));
#1346=CARTESIAN_POINT('',(30.3862915010152,-11.3137084989848,5.));
#1347=CARTESIAN_POINT('',(28.6862915010152,-11.3137084989848,0.));
#1348=CARTESIAN_POINT('',(30.3862915010152,-11.3137084989848,0.));
#1349=CARTESIAN_POINT('',(51.3137084989848,-11.3137084989848,5.));
#1350=CARTESIAN_POINT('',(51.3137084989848,-11.3137084989848,5.));
#1351=CARTESIAN_POINT('',(53.0137084989848,-11.3137084989848,5.));
#1352=CARTESIAN_POINT('',(51.3137084989848,-11.3137084989848,0.));
#1353=CARTESIAN_POINT('',(53.0137084989848,-11.3137084989848,0.));
#1354=CARTESIAN_POINT('',(-80.,58.,5.));
#1355=CARTESIAN_POINT('',(-80.,58.,0.));
#1356=CARTESIAN_POINT('',(-80.,58.,5.));
#1357=CARTESIAN_POINT('',(-68.,58.,5.));
#1358=CARTESIAN_POINT('',(-68.,58.,0.));
#1359=CARTESIAN_POINT('',(-68.,58.,5.));
#1360=CARTESIAN_POINT('',(-56.,58.,5.));
#1361=CARTESIAN_POINT('',(-56.,58.,0.));
#1362=CARTESIAN_POINT('',(-56.,58.,5.));
#1363=CARTESIAN_POINT('',(-44.,58.,5.));
#1364=CARTESIAN_POINT('',(-44.,58.,0.));
#1365=CARTESIAN_POINT('',(-44.,58.,5.));
#1366=CARTESIAN_POINT('',(-32.,58.,5.));
#1367=CARTESIAN_POINT('',(-32.,58.,0.));
#1368=CARTESIAN_POINT('',(-32.,58.,5.));
#1369=CARTESIAN_POINT('',(110.,90.,5.));
#1370=CARTESIAN_POINT('',(110.,90.,0.));
#1371=CARTESIAN_POINT('',(110.,90.,5.));
#1372=CARTESIAN_POINT('',(0.,0.,5.));
#1373=CARTESIAN_POINT('',(0.,0.,0.));
#1374=MECHANICAL_DESIGN_GEOMETRIC_PRESENTATION_REPRESENTATION('',(#853),
#1375);
#1375=(
GEOMETRIC_REPRESENTATION_CONTEXT(3)
GLOBAL_UNCERTAINTY_ASSIGNED_CONTEXT((#1376))
GLOBAL_UNIT_ASSIGNED_CONTEXT((#1379,#1378,#1377))
REPRESENTATION_CONTEXT('B02b_removable_structural_lid',
'TOP_LEVEL_ASSEMBLY_PART')
);
#1376=UNCERTAINTY_MEASURE_WITH_UNIT(LENGTH_MEASURE(0.005),#1379,
'DISTANCE_ACCURACY_VALUE','Maximum Tolerance applied to model');
#1377=(
NAMED_UNIT(*)
SI_UNIT($,.STERADIAN.)
SOLID_ANGLE_UNIT()
);
#1378=(
NAMED_UNIT(*)
PLANE_ANGLE_UNIT()
SI_UNIT($,.RADIAN.)
);
#1379=(
LENGTH_UNIT()
NAMED_UNIT(*)
SI_UNIT(.MILLI.,.METRE.)
);
#1380=PRODUCT_DEFINITION_SHAPE('','',#1381);
#1381=PRODUCT_DEFINITION('','',#1383,#1382);
#1382=PRODUCT_DEFINITION_CONTEXT('',#1389,'design');
#1383=PRODUCT_DEFINITION_FORMATION_WITH_SPECIFIED_SOURCE('','',#1385,
 .NOT_KNOWN.);
#1384=PRODUCT_RELATED_PRODUCT_CATEGORY('','',(#1385));
#1385=PRODUCT('B02b_removable_structural_lid',
'B02b_removable_structural_lid','B02b_removable_structural_lid',(#1387));
#1386=PRODUCT_CATEGORY('','');
#1387=PRODUCT_CONTEXT('',#1389,'mechanical');
#1388=APPLICATION_PROTOCOL_DEFINITION('international standard',
'automotive_design',2010,#1389);
#1389=APPLICATION_CONTEXT(
'core data for automotive mechanical design processes');
ENDSEC;
END-ISO-10303-21;
