ISO-10303-21;
HEADER;
/* Generated by software containing ST-Developer
 * from STEP Tools, Inc. (www.steptools.com) 
 */
/* OPTION: strings as raw bytes, not using required /X/ escapes */

FILE_DESCRIPTION(
/* description */ ('Unknown'),
/* implementation_level */ '2;1');

FILE_NAME(
/* name */ 'B03_yaw_bearing_cartridge',
/* time_stamp */ '2026-09-23T11:54:25+08:00',
/* author */ ('Unknown'),
/* organization */ ('Unknown'),
/* preprocessor_version */ 'ST-DEVELOPER v16.7',
/* originating_system */ 'Solid Edge',
/* authorisation */ 'Unknown');

FILE_SCHEMA (('AUTOMOTIVE_DESIGN {1 0 10303 214 3 1 1}'));
ENDSEC;

DATA;
#10=PROPERTY_DEFINITION_REPRESENTATION(#14,#12);
#11=PROPERTY_DEFINITION_REPRESENTATION(#15,#13);
#12=REPRESENTATION('',(#16),#549);
#13=REPRESENTATION('',(#17),#549);
#14=PROPERTY_DEFINITION('pmi validation property','',#554);
#15=PROPERTY_DEFINITION('pmi validation property','',#554);
#16=VALUE_REPRESENTATION_ITEM('number of annotations',COUNT_MEASURE(0.));
#17=VALUE_REPRESENTATION_ITEM('number of views',COUNT_MEASURE(0.));
#18=SHAPE_REPRESENTATION_RELATIONSHIP('','',#323,#19);
#19=ADVANCED_BREP_SHAPE_REPRESENTATION('',(#321),#549);
#20=PLANE('',#346);
#21=PLANE('',#347);
#22=PLANE('',#354);
#23=PLANE('',#355);
#24=PLANE('',#356);
#25=PLANE('',#372);
#26=ORIENTED_EDGE('',*,*,#82,.T.);
#27=ORIENTED_EDGE('',*,*,#83,.F.);
#28=ORIENTED_EDGE('',*,*,#84,.T.);
#29=ORIENTED_EDGE('',*,*,#85,.F.);
#30=ORIENTED_EDGE('',*,*,#86,.T.);
#31=ORIENTED_EDGE('',*,*,#87,.F.);
#32=ORIENTED_EDGE('',*,*,#88,.T.);
#33=ORIENTED_EDGE('',*,*,#89,.F.);
#34=ORIENTED_EDGE('',*,*,#90,.T.);
#35=ORIENTED_EDGE('',*,*,#91,.F.);
#36=ORIENTED_EDGE('',*,*,#92,.T.);
#37=ORIENTED_EDGE('',*,*,#93,.F.);
#38=ORIENTED_EDGE('',*,*,#94,.T.);
#39=ORIENTED_EDGE('',*,*,#95,.F.);
#40=ORIENTED_EDGE('',*,*,#93,.T.);
#41=ORIENTED_EDGE('',*,*,#91,.T.);
#42=ORIENTED_EDGE('',*,*,#89,.T.);
#43=ORIENTED_EDGE('',*,*,#87,.T.);
#44=ORIENTED_EDGE('',*,*,#85,.T.);
#45=ORIENTED_EDGE('',*,*,#82,.F.);
#46=ORIENTED_EDGE('',*,*,#96,.T.);
#47=ORIENTED_EDGE('',*,*,#84,.F.);
#48=ORIENTED_EDGE('',*,*,#96,.F.);
#49=ORIENTED_EDGE('',*,*,#97,.T.);
#50=ORIENTED_EDGE('',*,*,#98,.F.);
#51=ORIENTED_EDGE('',*,*,#99,.T.);
#52=ORIENTED_EDGE('',*,*,#92,.F.);
#53=ORIENTED_EDGE('',*,*,#90,.F.);
#54=ORIENTED_EDGE('',*,*,#88,.F.);
#55=ORIENTED_EDGE('',*,*,#86,.F.);
#56=ORIENTED_EDGE('',*,*,#99,.F.);
#57=ORIENTED_EDGE('',*,*,#95,.T.);
#58=ORIENTED_EDGE('',*,*,#97,.F.);
#59=ORIENTED_EDGE('',*,*,#98,.T.);
#60=ORIENTED_EDGE('',*,*,#100,.F.);
#61=ORIENTED_EDGE('',*,*,#101,.T.);
#62=ORIENTED_EDGE('',*,*,#102,.T.);
#63=ORIENTED_EDGE('',*,*,#103,.T.);
#64=ORIENTED_EDGE('',*,*,#104,.T.);
#65=ORIENTED_EDGE('',*,*,#83,.T.);
#66=ORIENTED_EDGE('',*,*,#105,.T.);
#67=ORIENTED_EDGE('',*,*,#101,.F.);
#68=ORIENTED_EDGE('',*,*,#106,.T.);
#69=ORIENTED_EDGE('',*,*,#102,.F.);
#70=ORIENTED_EDGE('',*,*,#107,.T.);
#71=ORIENTED_EDGE('',*,*,#103,.F.);
#72=ORIENTED_EDGE('',*,*,#108,.T.);
#73=ORIENTED_EDGE('',*,*,#104,.F.);
#74=ORIENTED_EDGE('',*,*,#109,.F.);
#75=ORIENTED_EDGE('',*,*,#100,.T.);
#76=ORIENTED_EDGE('',*,*,#94,.F.);
#77=ORIENTED_EDGE('',*,*,#108,.F.);
#78=ORIENTED_EDGE('',*,*,#107,.F.);
#79=ORIENTED_EDGE('',*,*,#106,.F.);
#80=ORIENTED_EDGE('',*,*,#105,.F.);
#81=ORIENTED_EDGE('',*,*,#109,.T.);
#82=EDGE_CURVE('',#110,#110,#138,.T.);
#83=EDGE_CURVE('',#111,#111,#139,.T.);
#84=EDGE_CURVE('',#112,#112,#140,.T.);
#85=EDGE_CURVE('',#113,#113,#141,.T.);
#86=EDGE_CURVE('',#114,#114,#142,.T.);
#87=EDGE_CURVE('',#115,#115,#143,.T.);
#88=EDGE_CURVE('',#116,#116,#144,.T.);
#89=EDGE_CURVE('',#117,#117,#145,.T.);
#90=EDGE_CURVE('',#118,#118,#146,.T.);
#91=EDGE_CURVE('',#119,#119,#147,.T.);
#92=EDGE_CURVE('',#120,#120,#148,.T.);
#93=EDGE_CURVE('',#121,#121,#149,.T.);
#94=EDGE_CURVE('',#122,#122,#150,.T.);
#95=EDGE_CURVE('',#123,#123,#151,.T.);
#96=EDGE_CURVE('',#124,#124,#152,.T.);
#97=EDGE_CURVE('',#125,#125,#153,.T.);
#98=EDGE_CURVE('',#126,#126,#154,.T.);
#99=EDGE_CURVE('',#127,#127,#155,.T.);
#100=EDGE_CURVE('',#128,#128,#156,.T.);
#101=EDGE_CURVE('',#129,#129,#157,.T.);
#102=EDGE_CURVE('',#130,#130,#158,.T.);
#103=EDGE_CURVE('',#131,#131,#159,.T.);
#104=EDGE_CURVE('',#132,#132,#160,.T.);
#105=EDGE_CURVE('',#133,#133,#161,.T.);
#106=EDGE_CURVE('',#134,#134,#162,.T.);
#107=EDGE_CURVE('',#135,#135,#163,.T.);
#108=EDGE_CURVE('',#136,#136,#164,.T.);
#109=EDGE_CURVE('',#137,#137,#165,.T.);
#110=VERTEX_POINT('',#474);
#111=VERTEX_POINT('',#476);
#112=VERTEX_POINT('',#479);
#113=VERTEX_POINT('',#481);
#114=VERTEX_POINT('',#484);
#115=VERTEX_POINT('',#486);
#116=VERTEX_POINT('',#489);
#117=VERTEX_POINT('',#491);
#118=VERTEX_POINT('',#494);
#119=VERTEX_POINT('',#496);
#120=VERTEX_POINT('',#499);
#121=VERTEX_POINT('',#501);
#122=VERTEX_POINT('',#504);
#123=VERTEX_POINT('',#506);
#124=VERTEX_POINT('',#510);
#125=VERTEX_POINT('',#513);
#126=VERTEX_POINT('',#516);
#127=VERTEX_POINT('',#518);
#128=VERTEX_POINT('',#523);
#129=VERTEX_POINT('',#525);
#130=VERTEX_POINT('',#527);
#131=VERTEX_POINT('',#529);
#132=VERTEX_POINT('',#531);
#133=VERTEX_POINT('',#534);
#134=VERTEX_POINT('',#537);
#135=VERTEX_POINT('',#540);
#136=VERTEX_POINT('',#543);
#137=VERTEX_POINT('',#546);
#138=CIRCLE('',#326,32.);
#139=CIRCLE('',#327,32.);
#140=CIRCLE('',#329,21.1);
#141=CIRCLE('',#330,21.1);
#142=CIRCLE('',#332,1.7);
#143=CIRCLE('',#333,1.7);
#144=CIRCLE('',#335,1.7);
#145=CIRCLE('',#336,1.7);
#146=CIRCLE('',#338,1.7);
#147=CIRCLE('',#339,1.7);
#148=CIRCLE('',#341,1.7);
#149=CIRCLE('',#342,1.7);
#150=CIRCLE('',#344,32.);
#151=CIRCLE('',#345,32.);
#152=CIRCLE('',#348,17.5);
#153=CIRCLE('',#350,17.5);
#154=CIRCLE('',#352,21.1);
#155=CIRCLE('',#353,21.1);
#156=CIRCLE('',#357,42.);
#157=CIRCLE('',#358,1.7);
#158=CIRCLE('',#359,1.7);
#159=CIRCLE('',#360,1.7);
#160=CIRCLE('',#361,1.7);
#161=CIRCLE('',#363,1.7);
#162=CIRCLE('',#365,1.7);
#163=CIRCLE('',#367,1.7);
#164=CIRCLE('',#369,1.7);
#165=CIRCLE('',#371,42.);
#166=EDGE_LOOP('',(#26));
#167=EDGE_LOOP('',(#27));
#168=EDGE_LOOP('',(#28));
#169=EDGE_LOOP('',(#29));
#170=EDGE_LOOP('',(#30));
#171=EDGE_LOOP('',(#31));
#172=EDGE_LOOP('',(#32));
#173=EDGE_LOOP('',(#33));
#174=EDGE_LOOP('',(#34));
#175=EDGE_LOOP('',(#35));
#176=EDGE_LOOP('',(#36));
#177=EDGE_LOOP('',(#37));
#178=EDGE_LOOP('',(#38));
#179=EDGE_LOOP('',(#39));
#180=EDGE_LOOP('',(#40));
#181=EDGE_LOOP('',(#41));
#182=EDGE_LOOP('',(#42));
#183=EDGE_LOOP('',(#43));
#184=EDGE_LOOP('',(#44));
#185=EDGE_LOOP('',(#45));
#186=EDGE_LOOP('',(#46));
#187=EDGE_LOOP('',(#47));
#188=EDGE_LOOP('',(#48));
#189=EDGE_LOOP('',(#49));
#190=EDGE_LOOP('',(#50));
#191=EDGE_LOOP('',(#51));
#192=EDGE_LOOP('',(#52));
#193=EDGE_LOOP('',(#53));
#194=EDGE_LOOP('',(#54));
#195=EDGE_LOOP('',(#55));
#196=EDGE_LOOP('',(#56));
#197=EDGE_LOOP('',(#57));
#198=EDGE_LOOP('',(#58));
#199=EDGE_LOOP('',(#59));
#200=EDGE_LOOP('',(#60));
#201=EDGE_LOOP('',(#61));
#202=EDGE_LOOP('',(#62));
#203=EDGE_LOOP('',(#63));
#204=EDGE_LOOP('',(#64));
#205=EDGE_LOOP('',(#65));
#206=EDGE_LOOP('',(#66));
#207=EDGE_LOOP('',(#67));
#208=EDGE_LOOP('',(#68));
#209=EDGE_LOOP('',(#69));
#210=EDGE_LOOP('',(#70));
#211=EDGE_LOOP('',(#71));
#212=EDGE_LOOP('',(#72));
#213=EDGE_LOOP('',(#73));
#214=EDGE_LOOP('',(#74));
#215=EDGE_LOOP('',(#75));
#216=EDGE_LOOP('',(#76));
#217=EDGE_LOOP('',(#77));
#218=EDGE_LOOP('',(#78));
#219=EDGE_LOOP('',(#79));
#220=EDGE_LOOP('',(#80));
#221=EDGE_LOOP('',(#81));
#222=FACE_BOUND('',#166,.T.);
#223=FACE_BOUND('',#167,.T.);
#224=FACE_BOUND('',#168,.T.);
#225=FACE_BOUND('',#169,.T.);
#226=FACE_BOUND('',#170,.T.);
#227=FACE_BOUND('',#171,.T.);
#228=FACE_BOUND('',#172,.T.);
#229=FACE_BOUND('',#173,.T.);
#230=FACE_BOUND('',#174,.T.);
#231=FACE_BOUND('',#175,.T.);
#232=FACE_BOUND('',#176,.T.);
#233=FACE_BOUND('',#177,.T.);
#234=FACE_BOUND('',#178,.T.);
#235=FACE_BOUND('',#179,.T.);
#236=FACE_BOUND('',#180,.T.);
#237=FACE_BOUND('',#181,.T.);
#238=FACE_BOUND('',#182,.T.);
#239=FACE_BOUND('',#183,.T.);
#240=FACE_BOUND('',#184,.T.);
#241=FACE_BOUND('',#185,.T.);
#242=FACE_BOUND('',#186,.T.);
#243=FACE_BOUND('',#187,.T.);
#244=FACE_BOUND('',#188,.T.);
#245=FACE_BOUND('',#189,.T.);
#246=FACE_BOUND('',#190,.T.);
#247=FACE_BOUND('',#191,.T.);
#248=FACE_BOUND('',#192,.T.);
#249=FACE_BOUND('',#193,.T.);
#250=FACE_BOUND('',#194,.T.);
#251=FACE_BOUND('',#195,.T.);
#252=FACE_BOUND('',#196,.T.);
#253=FACE_BOUND('',#197,.T.);
#254=FACE_BOUND('',#198,.T.);
#255=FACE_BOUND('',#199,.T.);
#256=FACE_BOUND('',#200,.T.);
#257=FACE_BOUND('',#201,.T.);
#258=FACE_BOUND('',#202,.T.);
#259=FACE_BOUND('',#203,.T.);
#260=FACE_BOUND('',#204,.T.);
#261=FACE_BOUND('',#205,.T.);
#262=FACE_BOUND('',#206,.T.);
#263=FACE_BOUND('',#207,.T.);
#264=FACE_BOUND('',#208,.T.);
#265=FACE_BOUND('',#209,.T.);
#266=FACE_BOUND('',#210,.T.);
#267=FACE_BOUND('',#211,.T.);
#268=FACE_BOUND('',#212,.T.);
#269=FACE_BOUND('',#213,.T.);
#270=FACE_BOUND('',#214,.T.);
#271=FACE_BOUND('',#215,.T.);
#272=FACE_BOUND('',#216,.T.);
#273=FACE_BOUND('',#217,.T.);
#274=FACE_BOUND('',#218,.T.);
#275=FACE_BOUND('',#219,.T.);
#276=FACE_BOUND('',#220,.T.);
#277=FACE_BOUND('',#221,.T.);
#278=CYLINDRICAL_SURFACE('',#325,32.);
#279=CYLINDRICAL_SURFACE('',#328,21.1);
#280=CYLINDRICAL_SURFACE('',#331,1.7);
#281=CYLINDRICAL_SURFACE('',#334,1.7);
#282=CYLINDRICAL_SURFACE('',#337,1.7);
#283=CYLINDRICAL_SURFACE('',#340,1.7);
#284=CYLINDRICAL_SURFACE('',#343,32.);
#285=CYLINDRICAL_SURFACE('',#349,17.5);
#286=CYLINDRICAL_SURFACE('',#351,21.1);
#287=CYLINDRICAL_SURFACE('',#362,1.7);
#288=CYLINDRICAL_SURFACE('',#364,1.7);
#289=CYLINDRICAL_SURFACE('',#366,1.7);
#290=CYLINDRICAL_SURFACE('',#368,1.7);
#291=CYLINDRICAL_SURFACE('',#370,42.);
#292=ADVANCED_FACE('',(#222,#223),#278,.T.);
#293=ADVANCED_FACE('',(#224,#225),#279,.F.);
#294=ADVANCED_FACE('',(#226,#227),#280,.F.);
#295=ADVANCED_FACE('',(#228,#229),#281,.F.);
#296=ADVANCED_FACE('',(#230,#231),#282,.F.);
#297=ADVANCED_FACE('',(#232,#233),#283,.F.);
#298=ADVANCED_FACE('',(#234,#235),#284,.T.);
#299=ADVANCED_FACE('',(#236,#237,#238,#239,#240,#241),#20,.F.);
#300=ADVANCED_FACE('',(#242,#243),#21,.F.);
#301=ADVANCED_FACE('',(#244,#245),#285,.F.);
#302=ADVANCED_FACE('',(#246,#247),#286,.F.);
#303=ADVANCED_FACE('',(#248,#249,#250,#251,#252,#253),#22,.T.);
#304=ADVANCED_FACE('',(#254,#255),#23,.T.);
#305=ADVANCED_FACE('',(#256,#257,#258,#259,#260,#261),#24,.F.);
#306=ADVANCED_FACE('',(#262,#263),#287,.F.);
#307=ADVANCED_FACE('',(#264,#265),#288,.F.);
#308=ADVANCED_FACE('',(#266,#267),#289,.F.);
#309=ADVANCED_FACE('',(#268,#269),#290,.F.);
#310=ADVANCED_FACE('',(#270,#271),#291,.T.);
#311=ADVANCED_FACE('',(#272,#273,#274,#275,#276,#277),#25,.T.);
#312=CLOSED_SHELL('',(#292,#293,#294,#295,#296,#297,#298,#299,#300,#301,
#302,#303,#304,#305,#306,#307,#308,#309,#310,#311));
#313=STYLED_ITEM('',(#314),#321);
#314=PRESENTATION_STYLE_ASSIGNMENT((#315));
#315=SURFACE_STYLE_USAGE(.BOTH.,#316);
#316=SURFACE_SIDE_STYLE('',(#317));
#317=SURFACE_STYLE_FILL_AREA(#318);
#318=FILL_AREA_STYLE('',(#319));
#319=FILL_AREA_STYLE_COLOUR('',#320);
#320=COLOUR_RGB('',0.100000001490116,0.349999994039536,0.280000001192093);
#321=MANIFOLD_SOLID_BREP('',#312);
#322=SHAPE_DEFINITION_REPRESENTATION(#554,#323);
#323=SHAPE_REPRESENTATION('B03_yaw_bearing_cartridge',(#324),#549);
#324=AXIS2_PLACEMENT_3D('',#471,#373,#374);
#325=AXIS2_PLACEMENT_3D('',#472,#375,#376);
#326=AXIS2_PLACEMENT_3D('',#473,#377,#378);
#327=AXIS2_PLACEMENT_3D('',#475,#379,#380);
#328=AXIS2_PLACEMENT_3D('',#477,#381,#382);
#329=AXIS2_PLACEMENT_3D('',#478,#383,#384);
#330=AXIS2_PLACEMENT_3D('',#480,#385,#386);
#331=AXIS2_PLACEMENT_3D('',#482,#387,#388);
#332=AXIS2_PLACEMENT_3D('',#483,#389,#390);
#333=AXIS2_PLACEMENT_3D('',#485,#391,#392);
#334=AXIS2_PLACEMENT_3D('',#487,#393,#394);
#335=AXIS2_PLACEMENT_3D('',#488,#395,#396);
#336=AXIS2_PLACEMENT_3D('',#490,#397,#398);
#337=AXIS2_PLACEMENT_3D('',#492,#399,#400);
#338=AXIS2_PLACEMENT_3D('',#493,#401,#402);
#339=AXIS2_PLACEMENT_3D('',#495,#403,#404);
#340=AXIS2_PLACEMENT_3D('',#497,#405,#406);
#341=AXIS2_PLACEMENT_3D('',#498,#407,#408);
#342=AXIS2_PLACEMENT_3D('',#500,#409,#410);
#343=AXIS2_PLACEMENT_3D('',#502,#411,#412);
#344=AXIS2_PLACEMENT_3D('',#503,#413,#414);
#345=AXIS2_PLACEMENT_3D('',#505,#415,#416);
#346=AXIS2_PLACEMENT_3D('',#507,#417,#418);
#347=AXIS2_PLACEMENT_3D('',#508,#419,#420);
#348=AXIS2_PLACEMENT_3D('',#509,#421,#422);
#349=AXIS2_PLACEMENT_3D('',#511,#423,#424);
#350=AXIS2_PLACEMENT_3D('',#512,#425,#426);
#351=AXIS2_PLACEMENT_3D('',#514,#427,#428);
#352=AXIS2_PLACEMENT_3D('',#515,#429,#430);
#353=AXIS2_PLACEMENT_3D('',#517,#431,#432);
#354=AXIS2_PLACEMENT_3D('',#519,#433,#434);
#355=AXIS2_PLACEMENT_3D('',#520,#435,#436);
#356=AXIS2_PLACEMENT_3D('',#521,#437,#438);
#357=AXIS2_PLACEMENT_3D('',#522,#439,#440);
#358=AXIS2_PLACEMENT_3D('',#524,#441,#442);
#359=AXIS2_PLACEMENT_3D('',#526,#443,#444);
#360=AXIS2_PLACEMENT_3D('',#528,#445,#446);
#361=AXIS2_PLACEMENT_3D('',#530,#447,#448);
#362=AXIS2_PLACEMENT_3D('',#532,#449,#450);
#363=AXIS2_PLACEMENT_3D('',#533,#451,#452);
#364=AXIS2_PLACEMENT_3D('',#535,#453,#454);
#365=AXIS2_PLACEMENT_3D('',#536,#455,#456);
#366=AXIS2_PLACEMENT_3D('',#538,#457,#458);
#367=AXIS2_PLACEMENT_3D('',#539,#459,#460);
#368=AXIS2_PLACEMENT_3D('',#541,#461,#462);
#369=AXIS2_PLACEMENT_3D('',#542,#463,#464);
#370=AXIS2_PLACEMENT_3D('',#544,#465,#466);
#371=AXIS2_PLACEMENT_3D('',#545,#467,#468);
#372=AXIS2_PLACEMENT_3D('',#547,#469,#470);
#373=DIRECTION('',(0.,0.,1.));
#374=DIRECTION('',(1.,0.,0.));
#375=DIRECTION('',(0.,0.,-1.));
#376=DIRECTION('',(-1.,0.,0.));
#377=DIRECTION('',(0.,0.,1.));
#378=DIRECTION('',(1.,0.,0.));
#379=DIRECTION('',(0.,0.,1.));
#380=DIRECTION('',(1.,0.,0.));
#381=DIRECTION('',(0.,0.,-1.));
#382=DIRECTION('',(-1.,0.,0.));
#383=DIRECTION('',(0.,0.,1.));
#384=DIRECTION('',(1.,0.,0.));
#385=DIRECTION('',(0.,0.,1.));
#386=DIRECTION('',(1.,0.,0.));
#387=DIRECTION('',(0.,0.,-1.));
#388=DIRECTION('',(-1.,0.,0.));
#389=DIRECTION('',(0.,0.,1.));
#390=DIRECTION('',(1.,0.,0.));
#391=DIRECTION('',(0.,0.,1.));
#392=DIRECTION('',(1.,0.,0.));
#393=DIRECTION('',(0.,0.,-1.));
#394=DIRECTION('',(-1.,0.,0.));
#395=DIRECTION('',(0.,0.,1.));
#396=DIRECTION('',(1.,0.,0.));
#397=DIRECTION('',(0.,0.,1.));
#398=DIRECTION('',(1.,0.,0.));
#399=DIRECTION('',(0.,0.,-1.));
#400=DIRECTION('',(-1.,0.,0.));
#401=DIRECTION('',(0.,0.,1.));
#402=DIRECTION('',(1.,0.,0.));
#403=DIRECTION('',(0.,0.,1.));
#404=DIRECTION('',(1.,0.,0.));
#405=DIRECTION('',(0.,0.,-1.));
#406=DIRECTION('',(-1.,0.,0.));
#407=DIRECTION('',(0.,0.,1.));
#408=DIRECTION('',(1.,0.,0.));
#409=DIRECTION('',(0.,0.,1.));
#410=DIRECTION('',(1.,0.,0.));
#411=DIRECTION('',(0.,0.,-1.));
#412=DIRECTION('',(-1.,0.,0.));
#413=DIRECTION('',(0.,0.,1.));
#414=DIRECTION('',(1.,0.,0.));
#415=DIRECTION('',(0.,0.,1.));
#416=DIRECTION('',(1.,0.,0.));
#417=DIRECTION('',(0.,0.,1.));
#418=DIRECTION('',(1.,0.,0.));
#419=DIRECTION('',(0.,0.,1.));
#420=DIRECTION('',(1.,0.,0.));
#421=DIRECTION('',(0.,0.,1.));
#422=DIRECTION('',(1.,0.,0.));
#423=DIRECTION('',(0.,0.,-1.));
#424=DIRECTION('',(-1.,0.,0.));
#425=DIRECTION('',(0.,0.,1.));
#426=DIRECTION('',(1.,0.,0.));
#427=DIRECTION('',(0.,0.,-1.));
#428=DIRECTION('',(-1.,0.,0.));
#429=DIRECTION('',(0.,0.,1.));
#430=DIRECTION('',(1.,0.,0.));
#431=DIRECTION('',(0.,0.,1.));
#432=DIRECTION('',(1.,0.,0.));
#433=DIRECTION('',(0.,0.,1.));
#434=DIRECTION('',(1.,0.,0.));
#435=DIRECTION('',(0.,0.,1.));
#436=DIRECTION('',(1.,0.,0.));
#437=DIRECTION('',(0.,0.,1.));
#438=DIRECTION('',(1.,0.,0.));
#439=DIRECTION('',(0.,0.,1.));
#440=DIRECTION('',(1.,0.,0.));
#441=DIRECTION('',(0.,0.,1.));
#442=DIRECTION('',(1.,0.,0.));
#443=DIRECTION('',(0.,0.,1.));
#444=DIRECTION('',(1.,0.,0.));
#445=DIRECTION('',(0.,0.,1.));
#446=DIRECTION('',(1.,0.,0.));
#447=DIRECTION('',(0.,0.,1.));
#448=DIRECTION('',(1.,0.,0.));
#449=DIRECTION('',(0.,0.,-1.));
#450=DIRECTION('',(-1.,0.,0.));
#451=DIRECTION('',(0.,0.,1.));
#452=DIRECTION('',(1.,0.,0.));
#453=DIRECTION('',(0.,0.,-1.));
#454=DIRECTION('',(-1.,0.,0.));
#455=DIRECTION('',(0.,0.,1.));
#456=DIRECTION('',(1.,0.,0.));
#457=DIRECTION('',(0.,0.,-1.));
#458=DIRECTION('',(-1.,0.,0.));
#459=DIRECTION('',(0.,0.,1.));
#460=DIRECTION('',(1.,0.,0.));
#461=DIRECTION('',(0.,0.,-1.));
#462=DIRECTION('',(-1.,0.,0.));
#463=DIRECTION('',(0.,0.,1.));
#464=DIRECTION('',(1.,0.,0.));
#465=DIRECTION('',(0.,0.,-1.));
#466=DIRECTION('',(-1.,0.,0.));
#467=DIRECTION('',(0.,0.,1.));
#468=DIRECTION('',(1.,0.,0.));
#469=DIRECTION('',(0.,0.,1.));
#470=DIRECTION('',(1.,0.,0.));
#471=CARTESIAN_POINT('',(0.,0.,0.));
#472=CARTESIAN_POINT('',(0.,0.,7.15));
#473=CARTESIAN_POINT('',(0.,0.,0.));
#474=CARTESIAN_POINT('',(32.,0.,0.));
#475=CARTESIAN_POINT('',(0.,0.,18.5));
#476=CARTESIAN_POINT('',(32.,0.,18.5));
#477=CARTESIAN_POINT('',(0.,0.,7.15));
#478=CARTESIAN_POINT('',(0.,0.,7.15));
#479=CARTESIAN_POINT('',(21.1,0.,7.15));
#480=CARTESIAN_POINT('',(0.,0.,0.));
#481=CARTESIAN_POINT('',(21.1,0.,0.));
#482=CARTESIAN_POINT('',(27.,0.,7.15));
#483=CARTESIAN_POINT('',(27.,0.,29.));
#484=CARTESIAN_POINT('',(28.7,0.,29.));
#485=CARTESIAN_POINT('',(27.,0.,0.));
#486=CARTESIAN_POINT('',(28.7,0.,0.));
#487=CARTESIAN_POINT('',(1.65327317884893E-15,27.,7.15));
#488=CARTESIAN_POINT('',(1.65327317884893E-15,27.,29.));
#489=CARTESIAN_POINT('',(1.7,27.,29.));
#490=CARTESIAN_POINT('',(1.65327317884893E-15,27.,0.));
#491=CARTESIAN_POINT('',(1.7,27.,0.));
#492=CARTESIAN_POINT('',(-27.,3.30654635769785E-15,7.15));
#493=CARTESIAN_POINT('',(-27.,3.30654635769785E-15,29.));
#494=CARTESIAN_POINT('',(-25.3,3.30654635769785E-15,29.));
#495=CARTESIAN_POINT('',(-27.,3.30654635769785E-15,0.));
#496=CARTESIAN_POINT('',(-25.3,3.30654635769785E-15,0.));
#497=CARTESIAN_POINT('',(-4.95981953654678E-15,-27.,7.15));
#498=CARTESIAN_POINT('',(-4.95981953654678E-15,-27.,29.));
#499=CARTESIAN_POINT('',(1.69999999999999,-27.,29.));
#500=CARTESIAN_POINT('',(-4.95981953654678E-15,-27.,0.));
#501=CARTESIAN_POINT('',(1.69999999999999,-27.,0.));
#502=CARTESIAN_POINT('',(0.,0.,7.15));
#503=CARTESIAN_POINT('',(0.,0.,23.5));
#504=CARTESIAN_POINT('',(32.,0.,23.5));
#505=CARTESIAN_POINT('',(0.,0.,29.));
#506=CARTESIAN_POINT('',(32.,0.,29.));
#507=CARTESIAN_POINT('',(0.,0.,0.));
#508=CARTESIAN_POINT('',(0.,0.,7.15));
#509=CARTESIAN_POINT('',(0.,0.,7.15));
#510=CARTESIAN_POINT('',(17.5,0.,7.15));
#511=CARTESIAN_POINT('',(0.,0.,21.85));
#512=CARTESIAN_POINT('',(0.,0.,23.5));
#513=CARTESIAN_POINT('',(17.5,0.,23.5));
#514=CARTESIAN_POINT('',(0.,0.,29.));
#515=CARTESIAN_POINT('',(0.,0.,23.5));
#516=CARTESIAN_POINT('',(21.1,0.,23.5));
#517=CARTESIAN_POINT('',(0.,0.,29.));
#518=CARTESIAN_POINT('',(21.1,0.,29.));
#519=CARTESIAN_POINT('',(0.,0.,29.));
#520=CARTESIAN_POINT('',(0.,0.,23.5));
#521=CARTESIAN_POINT('',(0.,0.,18.5));
#522=CARTESIAN_POINT('',(0.,0.,18.5));
#523=CARTESIAN_POINT('',(42.,0.,18.5));
#524=CARTESIAN_POINT('',(37.,0.,18.5));
#525=CARTESIAN_POINT('',(38.7,0.,18.5));
#526=CARTESIAN_POINT('',(2.2655965784226E-15,37.,18.5));
#527=CARTESIAN_POINT('',(1.7,37.,18.5));
#528=CARTESIAN_POINT('',(-37.,4.53119315684521E-15,18.5));
#529=CARTESIAN_POINT('',(-35.3,4.53119315684521E-15,18.5));
#530=CARTESIAN_POINT('',(-6.79678973526781E-15,-37.,18.5));
#531=CARTESIAN_POINT('',(1.69999999999999,-37.,18.5));
#532=CARTESIAN_POINT('',(37.,0.,23.5));
#533=CARTESIAN_POINT('',(37.,0.,23.5));
#534=CARTESIAN_POINT('',(38.7,0.,23.5));
#535=CARTESIAN_POINT('',(2.2655965784226E-15,37.,23.5));
#536=CARTESIAN_POINT('',(2.2655965784226E-15,37.,23.5));
#537=CARTESIAN_POINT('',(1.7,37.,23.5));
#538=CARTESIAN_POINT('',(-37.,4.53119315684521E-15,23.5));
#539=CARTESIAN_POINT('',(-37.,4.53119315684521E-15,23.5));
#540=CARTESIAN_POINT('',(-35.3,4.53119315684521E-15,23.5));
#541=CARTESIAN_POINT('',(-6.79678973526781E-15,-37.,23.5));
#542=CARTESIAN_POINT('',(-6.79678973526781E-15,-37.,23.5));
#543=CARTESIAN_POINT('',(1.69999999999999,-37.,23.5));
#544=CARTESIAN_POINT('',(0.,0.,23.5));
#545=CARTESIAN_POINT('',(0.,0.,23.5));
#546=CARTESIAN_POINT('',(42.,0.,23.5));
#547=CARTESIAN_POINT('',(0.,0.,23.5));
#548=MECHANICAL_DESIGN_GEOMETRIC_PRESENTATION_REPRESENTATION('',(#313),
#549);
#549=(
GEOMETRIC_REPRESENTATION_CONTEXT(3)
GLOBAL_UNCERTAINTY_ASSIGNED_CONTEXT((#550))
GLOBAL_UNIT_ASSIGNED_CONTEXT((#553,#552,#551))
REPRESENTATION_CONTEXT('B03_yaw_bearing_cartridge',
'TOP_LEVEL_ASSEMBLY_PART')
);
#550=UNCERTAINTY_MEASURE_WITH_UNIT(LENGTH_MEASURE(0.005),#553,
'DISTANCE_ACCURACY_VALUE','Maximum Tolerance applied to model');
#551=(
NAMED_UNIT(*)
SI_UNIT($,.STERADIAN.)
SOLID_ANGLE_UNIT()
);
#552=(
NAMED_UNIT(*)
PLANE_ANGLE_UNIT()
SI_UNIT($,.RADIAN.)
);
#553=(
LENGTH_UNIT()
NAMED_UNIT(*)
SI_UNIT(.MILLI.,.METRE.)
);
#554=PRODUCT_DEFINITION_SHAPE('','',#555);
#555=PRODUCT_DEFINITION('','',#557,#556);
#556=PRODUCT_DEFINITION_CONTEXT('',#563,'design');
#557=PRODUCT_DEFINITION_FORMATION_WITH_SPECIFIED_SOURCE('','',#559,
 .NOT_KNOWN.);
#558=PRODUCT_RELATED_PRODUCT_CATEGORY('','',(#559));
#559=PRODUCT('B03_yaw_bearing_cartridge','B03_yaw_bearing_cartridge',
'B03_yaw_bearing_cartridge',(#561));
#560=PRODUCT_CATEGORY('','');
#561=PRODUCT_CONTEXT('',#563,'mechanical');
#562=APPLICATION_PROTOCOL_DEFINITION('international standard',
'automotive_design',2010,#563);
#563=APPLICATION_CONTEXT(
'core data for automotive mechanical design processes');
ENDSEC;
END-ISO-10303-21;
