ISO-10303-21;
HEADER;
/* Generated by software containing ST-Developer
 * from STEP Tools, Inc. (www.steptools.com) 
 */
/* OPTION: strings as raw bytes, not using required /X/ escapes */

FILE_DESCRIPTION(
/* description */ ('Unknown'),
/* implementation_level */ '2;1');

FILE_NAME(
/* name */ 'B03b_yaw_bearing_cartridge',
/* time_stamp */ '2026-09-23T12:06:30+08:00',
/* author */ ('Unknown'),
/* organization */ ('Unknown'),
/* preprocessor_version */ 'ST-DEVELOPER v16.7',
/* originating_system */ 'Solid Edge',
/* authorisation */ 'Unknown');

FILE_SCHEMA (('AUTOMOTIVE_DESIGN {1 0 10303 214 3 1 1}'));
ENDSEC;

DATA;
#10=PROPERTY_DEFINITION_REPRESENTATION(#14,#12);
#11=PROPERTY_DEFINITION_REPRESENTATION(#15,#13);
#12=REPRESENTATION('',(#16),#589);
#13=REPRESENTATION('',(#17),#589);
#14=PROPERTY_DEFINITION('pmi validation property','',#594);
#15=PROPERTY_DEFINITION('pmi validation property','',#594);
#16=VALUE_REPRESENTATION_ITEM('number of annotations',COUNT_MEASURE(0.));
#17=VALUE_REPRESENTATION_ITEM('number of views',COUNT_MEASURE(0.));
#18=SHAPE_REPRESENTATION_RELATIONSHIP('','',#345,#19);
#19=ADVANCED_BREP_SHAPE_REPRESENTATION('',(#343),#589);
#20=LINE('',#521,#22);
#21=LINE('',#525,#23);
#22=VECTOR('',#418,1000.);
#23=VECTOR('',#421,1000.);
#24=CYLINDRICAL_SURFACE('',#355,42.);
#25=CYLINDRICAL_SURFACE('',#364,17.5);
#26=CYLINDRICAL_SURFACE('',#367,32.);
#27=CYLINDRICAL_SURFACE('',#369,21.1);
#28=CYLINDRICAL_SURFACE('',#372,1.7);
#29=CYLINDRICAL_SURFACE('',#375,1.7);
#30=CYLINDRICAL_SURFACE('',#378,1.7);
#31=CYLINDRICAL_SURFACE('',#381,1.7);
#32=CYLINDRICAL_SURFACE('',#384,32.);
#33=CYLINDRICAL_SURFACE('',#388,21.1);
#34=CYLINDRICAL_SURFACE('',#392,1.7);
#35=CYLINDRICAL_SURFACE('',#393,1.7);
#36=CYLINDRICAL_SURFACE('',#394,1.7);
#37=CYLINDRICAL_SURFACE('',#395,1.7);
#38=CYLINDRICAL_SURFACE('',#397,21.5);
#39=ORIENTED_EDGE('',*,*,#103,.T.);
#40=ORIENTED_EDGE('',*,*,#104,.T.);
#41=ORIENTED_EDGE('',*,*,#105,.T.);
#42=ORIENTED_EDGE('',*,*,#106,.T.);
#43=ORIENTED_EDGE('',*,*,#107,.T.);
#44=ORIENTED_EDGE('',*,*,#108,.F.);
#45=ORIENTED_EDGE('',*,*,#109,.T.);
#46=ORIENTED_EDGE('',*,*,#110,.F.);
#47=ORIENTED_EDGE('',*,*,#111,.F.);
#48=ORIENTED_EDGE('',*,*,#112,.F.);
#49=ORIENTED_EDGE('',*,*,#108,.T.);
#50=ORIENTED_EDGE('',*,*,#113,.F.);
#51=ORIENTED_EDGE('',*,*,#114,.F.);
#52=ORIENTED_EDGE('',*,*,#115,.F.);
#53=ORIENTED_EDGE('',*,*,#116,.F.);
#54=ORIENTED_EDGE('',*,*,#117,.F.);
#55=ORIENTED_EDGE('',*,*,#118,.F.);
#56=ORIENTED_EDGE('',*,*,#111,.T.);
#57=ORIENTED_EDGE('',*,*,#119,.F.);
#58=ORIENTED_EDGE('',*,*,#120,.T.);
#59=ORIENTED_EDGE('',*,*,#121,.T.);
#60=ORIENTED_EDGE('',*,*,#107,.F.);
#61=ORIENTED_EDGE('',*,*,#122,.T.);
#62=ORIENTED_EDGE('',*,*,#123,.F.);
#63=ORIENTED_EDGE('',*,*,#124,.T.);
#64=ORIENTED_EDGE('',*,*,#125,.F.);
#65=ORIENTED_EDGE('',*,*,#126,.T.);
#66=ORIENTED_EDGE('',*,*,#127,.F.);
#67=ORIENTED_EDGE('',*,*,#128,.T.);
#68=ORIENTED_EDGE('',*,*,#129,.F.);
#69=ORIENTED_EDGE('',*,*,#130,.T.);
#70=ORIENTED_EDGE('',*,*,#131,.F.);
#71=ORIENTED_EDGE('',*,*,#117,.T.);
#72=ORIENTED_EDGE('',*,*,#132,.F.);
#73=ORIENTED_EDGE('',*,*,#131,.T.);
#74=ORIENTED_EDGE('',*,*,#129,.T.);
#75=ORIENTED_EDGE('',*,*,#127,.T.);
#76=ORIENTED_EDGE('',*,*,#125,.T.);
#77=ORIENTED_EDGE('',*,*,#123,.T.);
#78=ORIENTED_EDGE('',*,*,#121,.F.);
#79=ORIENTED_EDGE('',*,*,#119,.T.);
#80=ORIENTED_EDGE('',*,*,#122,.F.);
#81=ORIENTED_EDGE('',*,*,#133,.T.);
#82=ORIENTED_EDGE('',*,*,#134,.F.);
#83=ORIENTED_EDGE('',*,*,#130,.F.);
#84=ORIENTED_EDGE('',*,*,#128,.F.);
#85=ORIENTED_EDGE('',*,*,#126,.F.);
#86=ORIENTED_EDGE('',*,*,#124,.F.);
#87=ORIENTED_EDGE('',*,*,#133,.F.);
#88=ORIENTED_EDGE('',*,*,#132,.T.);
#89=ORIENTED_EDGE('',*,*,#113,.T.);
#90=ORIENTED_EDGE('',*,*,#103,.F.);
#91=ORIENTED_EDGE('',*,*,#114,.T.);
#92=ORIENTED_EDGE('',*,*,#104,.F.);
#93=ORIENTED_EDGE('',*,*,#115,.T.);
#94=ORIENTED_EDGE('',*,*,#105,.F.);
#95=ORIENTED_EDGE('',*,*,#116,.T.);
#96=ORIENTED_EDGE('',*,*,#106,.F.);
#97=ORIENTED_EDGE('',*,*,#120,.F.);
#98=ORIENTED_EDGE('',*,*,#134,.T.);
#99=ORIENTED_EDGE('',*,*,#110,.T.);
#100=ORIENTED_EDGE('',*,*,#109,.F.);
#101=ORIENTED_EDGE('',*,*,#112,.T.);
#102=ORIENTED_EDGE('',*,*,#118,.T.);
#103=EDGE_CURVE('',#135,#135,#165,.T.);
#104=EDGE_CURVE('',#136,#136,#166,.T.);
#105=EDGE_CURVE('',#137,#137,#167,.T.);
#106=EDGE_CURVE('',#138,#138,#168,.T.);
#107=EDGE_CURVE('',#139,#139,#169,.T.);
#108=EDGE_CURVE('',#140,#141,#170,.T.);
#109=EDGE_CURVE('',#140,#141,#171,.T.);
#110=EDGE_CURVE('',#142,#141,#20,.T.);
#111=EDGE_CURVE('',#143,#142,#172,.T.);
#112=EDGE_CURVE('',#140,#143,#21,.F.);
#113=EDGE_CURVE('',#144,#144,#173,.T.);
#114=EDGE_CURVE('',#145,#145,#174,.T.);
#115=EDGE_CURVE('',#146,#146,#175,.T.);
#116=EDGE_CURVE('',#147,#147,#176,.T.);
#117=EDGE_CURVE('',#148,#148,#177,.T.);
#118=EDGE_CURVE('',#143,#142,#178,.T.);
#119=EDGE_CURVE('',#149,#149,#179,.T.);
#120=EDGE_CURVE('',#150,#150,#180,.T.);
#121=EDGE_CURVE('',#151,#151,#181,.T.);
#122=EDGE_CURVE('',#152,#152,#182,.T.);
#123=EDGE_CURVE('',#153,#153,#183,.T.);
#124=EDGE_CURVE('',#154,#154,#184,.T.);
#125=EDGE_CURVE('',#155,#155,#185,.T.);
#126=EDGE_CURVE('',#156,#156,#186,.T.);
#127=EDGE_CURVE('',#157,#157,#187,.T.);
#128=EDGE_CURVE('',#158,#158,#188,.T.);
#129=EDGE_CURVE('',#159,#159,#189,.T.);
#130=EDGE_CURVE('',#160,#160,#190,.T.);
#131=EDGE_CURVE('',#161,#161,#191,.T.);
#132=EDGE_CURVE('',#162,#162,#192,.T.);
#133=EDGE_CURVE('',#163,#163,#193,.T.);
#134=EDGE_CURVE('',#164,#164,#194,.T.);
#135=VERTEX_POINT('',#507);
#136=VERTEX_POINT('',#509);
#137=VERTEX_POINT('',#511);
#138=VERTEX_POINT('',#513);
#139=VERTEX_POINT('',#515);
#140=VERTEX_POINT('',#517);
#141=VERTEX_POINT('',#518);
#142=VERTEX_POINT('',#522);
#143=VERTEX_POINT('',#524);
#144=VERTEX_POINT('',#528);
#145=VERTEX_POINT('',#530);
#146=VERTEX_POINT('',#532);
#147=VERTEX_POINT('',#534);
#148=VERTEX_POINT('',#536);
#149=VERTEX_POINT('',#540);
#150=VERTEX_POINT('',#542);
#151=VERTEX_POINT('',#545);
#152=VERTEX_POINT('',#548);
#153=VERTEX_POINT('',#550);
#154=VERTEX_POINT('',#553);
#155=VERTEX_POINT('',#555);
#156=VERTEX_POINT('',#558);
#157=VERTEX_POINT('',#560);
#158=VERTEX_POINT('',#563);
#159=VERTEX_POINT('',#565);
#160=VERTEX_POINT('',#568);
#161=VERTEX_POINT('',#570);
#162=VERTEX_POINT('',#573);
#163=VERTEX_POINT('',#578);
#164=VERTEX_POINT('',#580);
#165=CIRCLE('',#348,1.7);
#166=CIRCLE('',#349,1.7);
#167=CIRCLE('',#350,1.7);
#168=CIRCLE('',#351,1.7);
#169=CIRCLE('',#352,32.);
#170=CIRCLE('',#353,42.);
#171=CIRCLE('',#354,21.5);
#172=CIRCLE('',#356,42.);
#173=CIRCLE('',#358,1.7);
#174=CIRCLE('',#359,1.7);
#175=CIRCLE('',#360,1.7);
#176=CIRCLE('',#361,1.7);
#177=CIRCLE('',#362,32.);
#178=CIRCLE('',#363,21.5);
#179=CIRCLE('',#365,17.5);
#180=CIRCLE('',#366,17.5);
#181=CIRCLE('',#368,32.);
#182=CIRCLE('',#370,21.1);
#183=CIRCLE('',#371,21.1);
#184=CIRCLE('',#373,1.7);
#185=CIRCLE('',#374,1.7);
#186=CIRCLE('',#376,1.7);
#187=CIRCLE('',#377,1.7);
#188=CIRCLE('',#379,1.7);
#189=CIRCLE('',#380,1.7);
#190=CIRCLE('',#382,1.7);
#191=CIRCLE('',#383,1.7);
#192=CIRCLE('',#385,32.);
#193=CIRCLE('',#389,21.1);
#194=CIRCLE('',#390,21.1);
#195=EDGE_LOOP('',(#39));
#196=EDGE_LOOP('',(#40));
#197=EDGE_LOOP('',(#41));
#198=EDGE_LOOP('',(#42));
#199=EDGE_LOOP('',(#43));
#200=EDGE_LOOP('',(#44,#45));
#201=EDGE_LOOP('',(#46,#47,#48,#49));
#202=EDGE_LOOP('',(#50));
#203=EDGE_LOOP('',(#51));
#204=EDGE_LOOP('',(#52));
#205=EDGE_LOOP('',(#53));
#206=EDGE_LOOP('',(#54));
#207=EDGE_LOOP('',(#55,#56));
#208=EDGE_LOOP('',(#57));
#209=EDGE_LOOP('',(#58));
#210=EDGE_LOOP('',(#59));
#211=EDGE_LOOP('',(#60));
#212=EDGE_LOOP('',(#61));
#213=EDGE_LOOP('',(#62));
#214=EDGE_LOOP('',(#63));
#215=EDGE_LOOP('',(#64));
#216=EDGE_LOOP('',(#65));
#217=EDGE_LOOP('',(#66));
#218=EDGE_LOOP('',(#67));
#219=EDGE_LOOP('',(#68));
#220=EDGE_LOOP('',(#69));
#221=EDGE_LOOP('',(#70));
#222=EDGE_LOOP('',(#71));
#223=EDGE_LOOP('',(#72));
#224=EDGE_LOOP('',(#73));
#225=EDGE_LOOP('',(#74));
#226=EDGE_LOOP('',(#75));
#227=EDGE_LOOP('',(#76));
#228=EDGE_LOOP('',(#77));
#229=EDGE_LOOP('',(#78));
#230=EDGE_LOOP('',(#79));
#231=EDGE_LOOP('',(#80));
#232=EDGE_LOOP('',(#81));
#233=EDGE_LOOP('',(#82));
#234=EDGE_LOOP('',(#83));
#235=EDGE_LOOP('',(#84));
#236=EDGE_LOOP('',(#85));
#237=EDGE_LOOP('',(#86));
#238=EDGE_LOOP('',(#87));
#239=EDGE_LOOP('',(#88));
#240=EDGE_LOOP('',(#89));
#241=EDGE_LOOP('',(#90));
#242=EDGE_LOOP('',(#91));
#243=EDGE_LOOP('',(#92));
#244=EDGE_LOOP('',(#93));
#245=EDGE_LOOP('',(#94));
#246=EDGE_LOOP('',(#95));
#247=EDGE_LOOP('',(#96));
#248=EDGE_LOOP('',(#97));
#249=EDGE_LOOP('',(#98));
#250=EDGE_LOOP('',(#99,#100,#101,#102));
#251=FACE_BOUND('',#195,.T.);
#252=FACE_BOUND('',#196,.T.);
#253=FACE_BOUND('',#197,.T.);
#254=FACE_BOUND('',#198,.T.);
#255=FACE_BOUND('',#199,.T.);
#256=FACE_BOUND('',#200,.T.);
#257=FACE_BOUND('',#201,.T.);
#258=FACE_BOUND('',#202,.T.);
#259=FACE_BOUND('',#203,.T.);
#260=FACE_BOUND('',#204,.T.);
#261=FACE_BOUND('',#205,.T.);
#262=FACE_BOUND('',#206,.T.);
#263=FACE_BOUND('',#207,.T.);
#264=FACE_BOUND('',#208,.T.);
#265=FACE_BOUND('',#209,.T.);
#266=FACE_BOUND('',#210,.T.);
#267=FACE_BOUND('',#211,.T.);
#268=FACE_BOUND('',#212,.T.);
#269=FACE_BOUND('',#213,.T.);
#270=FACE_BOUND('',#214,.T.);
#271=FACE_BOUND('',#215,.T.);
#272=FACE_BOUND('',#216,.T.);
#273=FACE_BOUND('',#217,.T.);
#274=FACE_BOUND('',#218,.T.);
#275=FACE_BOUND('',#219,.T.);
#276=FACE_BOUND('',#220,.T.);
#277=FACE_BOUND('',#221,.T.);
#278=FACE_BOUND('',#222,.T.);
#279=FACE_BOUND('',#223,.T.);
#280=FACE_BOUND('',#224,.T.);
#281=FACE_BOUND('',#225,.T.);
#282=FACE_BOUND('',#226,.T.);
#283=FACE_BOUND('',#227,.T.);
#284=FACE_BOUND('',#228,.T.);
#285=FACE_BOUND('',#229,.T.);
#286=FACE_BOUND('',#230,.T.);
#287=FACE_BOUND('',#231,.T.);
#288=FACE_BOUND('',#232,.T.);
#289=FACE_BOUND('',#233,.T.);
#290=FACE_BOUND('',#234,.T.);
#291=FACE_BOUND('',#235,.T.);
#292=FACE_BOUND('',#236,.T.);
#293=FACE_BOUND('',#237,.T.);
#294=FACE_BOUND('',#238,.T.);
#295=FACE_BOUND('',#239,.T.);
#296=FACE_BOUND('',#240,.T.);
#297=FACE_BOUND('',#241,.T.);
#298=FACE_BOUND('',#242,.T.);
#299=FACE_BOUND('',#243,.T.);
#300=FACE_BOUND('',#244,.T.);
#301=FACE_BOUND('',#245,.T.);
#302=FACE_BOUND('',#246,.T.);
#303=FACE_BOUND('',#247,.T.);
#304=FACE_BOUND('',#248,.T.);
#305=FACE_BOUND('',#249,.T.);
#306=FACE_BOUND('',#250,.T.);
#307=PLANE('',#347);
#308=PLANE('',#357);
#309=PLANE('',#386);
#310=PLANE('',#387);
#311=PLANE('',#391);
#312=PLANE('',#396);
#313=ADVANCED_FACE('',(#251,#252,#253,#254,#255,#256),#307,.F.);
#314=ADVANCED_FACE('',(#257),#24,.T.);
#315=ADVANCED_FACE('',(#258,#259,#260,#261,#262,#263),#308,.T.);
#316=ADVANCED_FACE('',(#264,#265),#25,.F.);
#317=ADVANCED_FACE('',(#266,#267),#26,.T.);
#318=ADVANCED_FACE('',(#268,#269),#27,.F.);
#319=ADVANCED_FACE('',(#270,#271),#28,.F.);
#320=ADVANCED_FACE('',(#272,#273),#29,.F.);
#321=ADVANCED_FACE('',(#274,#275),#30,.F.);
#322=ADVANCED_FACE('',(#276,#277),#31,.F.);
#323=ADVANCED_FACE('',(#278,#279),#32,.T.);
#324=ADVANCED_FACE('',(#280,#281,#282,#283,#284,#285),#309,.F.);
#325=ADVANCED_FACE('',(#286,#287),#310,.F.);
#326=ADVANCED_FACE('',(#288,#289),#33,.F.);
#327=ADVANCED_FACE('',(#290,#291,#292,#293,#294,#295),#311,.T.);
#328=ADVANCED_FACE('',(#296,#297),#34,.F.);
#329=ADVANCED_FACE('',(#298,#299),#35,.F.);
#330=ADVANCED_FACE('',(#300,#301),#36,.F.);
#331=ADVANCED_FACE('',(#302,#303),#37,.F.);
#332=ADVANCED_FACE('',(#304,#305),#312,.T.);
#333=ADVANCED_FACE('',(#306),#38,.F.);
#334=CLOSED_SHELL('',(#313,#314,#315,#316,#317,#318,#319,#320,#321,#322,
#323,#324,#325,#326,#327,#328,#329,#330,#331,#332,#333));
#335=STYLED_ITEM('',(#336),#343);
#336=PRESENTATION_STYLE_ASSIGNMENT((#337));
#337=SURFACE_STYLE_USAGE(.BOTH.,#338);
#338=SURFACE_SIDE_STYLE('',(#339));
#339=SURFACE_STYLE_FILL_AREA(#340);
#340=FILL_AREA_STYLE('',(#341));
#341=FILL_AREA_STYLE_COLOUR('',#342);
#342=COLOUR_RGB('',0.100000001490116,0.349999994039536,0.280000001192093);
#343=MANIFOLD_SOLID_BREP('',#334);
#344=SHAPE_DEFINITION_REPRESENTATION(#594,#345);
#345=SHAPE_REPRESENTATION('B03b_yaw_bearing_cartridge',(#346),#589);
#346=AXIS2_PLACEMENT_3D('',#504,#398,#399);
#347=AXIS2_PLACEMENT_3D('',#505,#400,#401);
#348=AXIS2_PLACEMENT_3D('',#506,#402,#403);
#349=AXIS2_PLACEMENT_3D('',#508,#404,#405);
#350=AXIS2_PLACEMENT_3D('',#510,#406,#407);
#351=AXIS2_PLACEMENT_3D('',#512,#408,#409);
#352=AXIS2_PLACEMENT_3D('',#514,#410,#411);
#353=AXIS2_PLACEMENT_3D('',#516,#412,#413);
#354=AXIS2_PLACEMENT_3D('',#519,#414,#415);
#355=AXIS2_PLACEMENT_3D('',#520,#416,#417);
#356=AXIS2_PLACEMENT_3D('',#523,#419,#420);
#357=AXIS2_PLACEMENT_3D('',#526,#422,#423);
#358=AXIS2_PLACEMENT_3D('',#527,#424,#425);
#359=AXIS2_PLACEMENT_3D('',#529,#426,#427);
#360=AXIS2_PLACEMENT_3D('',#531,#428,#429);
#361=AXIS2_PLACEMENT_3D('',#533,#430,#431);
#362=AXIS2_PLACEMENT_3D('',#535,#432,#433);
#363=AXIS2_PLACEMENT_3D('',#537,#434,#435);
#364=AXIS2_PLACEMENT_3D('',#538,#436,#437);
#365=AXIS2_PLACEMENT_3D('',#539,#438,#439);
#366=AXIS2_PLACEMENT_3D('',#541,#440,#441);
#367=AXIS2_PLACEMENT_3D('',#543,#442,#443);
#368=AXIS2_PLACEMENT_3D('',#544,#444,#445);
#369=AXIS2_PLACEMENT_3D('',#546,#446,#447);
#370=AXIS2_PLACEMENT_3D('',#547,#448,#449);
#371=AXIS2_PLACEMENT_3D('',#549,#450,#451);
#372=AXIS2_PLACEMENT_3D('',#551,#452,#453);
#373=AXIS2_PLACEMENT_3D('',#552,#454,#455);
#374=AXIS2_PLACEMENT_3D('',#554,#456,#457);
#375=AXIS2_PLACEMENT_3D('',#556,#458,#459);
#376=AXIS2_PLACEMENT_3D('',#557,#460,#461);
#377=AXIS2_PLACEMENT_3D('',#559,#462,#463);
#378=AXIS2_PLACEMENT_3D('',#561,#464,#465);
#379=AXIS2_PLACEMENT_3D('',#562,#466,#467);
#380=AXIS2_PLACEMENT_3D('',#564,#468,#469);
#381=AXIS2_PLACEMENT_3D('',#566,#470,#471);
#382=AXIS2_PLACEMENT_3D('',#567,#472,#473);
#383=AXIS2_PLACEMENT_3D('',#569,#474,#475);
#384=AXIS2_PLACEMENT_3D('',#571,#476,#477);
#385=AXIS2_PLACEMENT_3D('',#572,#478,#479);
#386=AXIS2_PLACEMENT_3D('',#574,#480,#481);
#387=AXIS2_PLACEMENT_3D('',#575,#482,#483);
#388=AXIS2_PLACEMENT_3D('',#576,#484,#485);
#389=AXIS2_PLACEMENT_3D('',#577,#486,#487);
#390=AXIS2_PLACEMENT_3D('',#579,#488,#489);
#391=AXIS2_PLACEMENT_3D('',#581,#490,#491);
#392=AXIS2_PLACEMENT_3D('',#582,#492,#493);
#393=AXIS2_PLACEMENT_3D('',#583,#494,#495);
#394=AXIS2_PLACEMENT_3D('',#584,#496,#497);
#395=AXIS2_PLACEMENT_3D('',#585,#498,#499);
#396=AXIS2_PLACEMENT_3D('',#586,#500,#501);
#397=AXIS2_PLACEMENT_3D('',#587,#502,#503);
#398=DIRECTION('',(0.,0.,1.));
#399=DIRECTION('',(1.,0.,0.));
#400=DIRECTION('',(0.,0.,1.));
#401=DIRECTION('',(1.,0.,0.));
#402=DIRECTION('',(0.,0.,1.));
#403=DIRECTION('',(1.,0.,0.));
#404=DIRECTION('',(0.,0.,1.));
#405=DIRECTION('',(1.,0.,0.));
#406=DIRECTION('',(0.,0.,1.));
#407=DIRECTION('',(1.,0.,0.));
#408=DIRECTION('',(0.,0.,1.));
#409=DIRECTION('',(1.,0.,0.));
#410=DIRECTION('',(0.,0.,1.));
#411=DIRECTION('',(1.,0.,0.));
#412=DIRECTION('',(0.,0.,1.));
#413=DIRECTION('',(1.,0.,0.));
#414=DIRECTION('',(0.,0.,1.));
#415=DIRECTION('',(1.,0.,0.));
#416=DIRECTION('',(0.,0.,-1.));
#417=DIRECTION('',(-1.,0.,0.));
#418=DIRECTION('',(0.,0.,-1.));
#419=DIRECTION('',(0.,0.,1.));
#420=DIRECTION('',(1.,0.,0.));
#421=DIRECTION('',(0.,0.,-1.));
#422=DIRECTION('',(0.,0.,1.));
#423=DIRECTION('',(1.,0.,0.));
#424=DIRECTION('',(0.,0.,1.));
#425=DIRECTION('',(1.,0.,0.));
#426=DIRECTION('',(0.,0.,1.));
#427=DIRECTION('',(1.,0.,0.));
#428=DIRECTION('',(0.,0.,1.));
#429=DIRECTION('',(1.,0.,0.));
#430=DIRECTION('',(0.,0.,1.));
#431=DIRECTION('',(1.,0.,0.));
#432=DIRECTION('',(0.,0.,1.));
#433=DIRECTION('',(1.,0.,0.));
#434=DIRECTION('',(0.,0.,1.));
#435=DIRECTION('',(1.,0.,0.));
#436=DIRECTION('',(0.,0.,-1.));
#437=DIRECTION('',(-1.,0.,0.));
#438=DIRECTION('',(0.,0.,1.));
#439=DIRECTION('',(1.,0.,0.));
#440=DIRECTION('',(0.,0.,1.));
#441=DIRECTION('',(1.,0.,0.));
#442=DIRECTION('',(0.,0.,-1.));
#443=DIRECTION('',(-1.,0.,0.));
#444=DIRECTION('',(0.,0.,1.));
#445=DIRECTION('',(1.,0.,0.));
#446=DIRECTION('',(0.,0.,-1.));
#447=DIRECTION('',(-1.,0.,0.));
#448=DIRECTION('',(0.,0.,1.));
#449=DIRECTION('',(1.,0.,0.));
#450=DIRECTION('',(0.,0.,1.));
#451=DIRECTION('',(1.,0.,0.));
#452=DIRECTION('',(0.,0.,-1.));
#453=DIRECTION('',(-1.,0.,0.));
#454=DIRECTION('',(0.,0.,1.));
#455=DIRECTION('',(1.,0.,0.));
#456=DIRECTION('',(0.,0.,1.));
#457=DIRECTION('',(1.,0.,0.));
#458=DIRECTION('',(0.,0.,-1.));
#459=DIRECTION('',(-1.,0.,0.));
#460=DIRECTION('',(0.,0.,1.));
#461=DIRECTION('',(1.,0.,0.));
#462=DIRECTION('',(0.,0.,1.));
#463=DIRECTION('',(1.,0.,0.));
#464=DIRECTION('',(0.,0.,-1.));
#465=DIRECTION('',(-1.,0.,0.));
#466=DIRECTION('',(0.,0.,1.));
#467=DIRECTION('',(1.,0.,0.));
#468=DIRECTION('',(0.,0.,1.));
#469=DIRECTION('',(1.,0.,0.));
#470=DIRECTION('',(0.,0.,-1.));
#471=DIRECTION('',(-1.,0.,0.));
#472=DIRECTION('',(0.,0.,1.));
#473=DIRECTION('',(1.,0.,0.));
#474=DIRECTION('',(0.,0.,1.));
#475=DIRECTION('',(1.,0.,0.));
#476=DIRECTION('',(0.,0.,-1.));
#477=DIRECTION('',(-1.,0.,0.));
#478=DIRECTION('',(0.,0.,1.));
#479=DIRECTION('',(1.,0.,0.));
#480=DIRECTION('',(0.,0.,1.));
#481=DIRECTION('',(1.,0.,0.));
#482=DIRECTION('',(0.,0.,1.));
#483=DIRECTION('',(1.,0.,0.));
#484=DIRECTION('',(0.,0.,-1.));
#485=DIRECTION('',(-1.,0.,0.));
#486=DIRECTION('',(0.,0.,1.));
#487=DIRECTION('',(1.,0.,0.));
#488=DIRECTION('',(0.,0.,1.));
#489=DIRECTION('',(1.,0.,0.));
#490=DIRECTION('',(0.,0.,1.));
#491=DIRECTION('',(1.,0.,0.));
#492=DIRECTION('',(0.,0.,-1.));
#493=DIRECTION('',(-1.,0.,0.));
#494=DIRECTION('',(0.,0.,-1.));
#495=DIRECTION('',(-1.,0.,0.));
#496=DIRECTION('',(0.,0.,-1.));
#497=DIRECTION('',(-1.,0.,0.));
#498=DIRECTION('',(0.,0.,-1.));
#499=DIRECTION('',(-1.,0.,0.));
#500=DIRECTION('',(0.,0.,1.));
#501=DIRECTION('',(1.,0.,0.));
#502=DIRECTION('',(0.,0.,-1.));
#503=DIRECTION('',(-1.,0.,0.));
#504=CARTESIAN_POINT('',(0.,0.,0.));
#505=CARTESIAN_POINT('',(0.,0.,18.5));
#506=CARTESIAN_POINT('',(26.1629509039023,26.1629509039023,18.5));
#507=CARTESIAN_POINT('',(27.8629509039023,26.1629509039023,18.5));
#508=CARTESIAN_POINT('',(-26.1629509039023,26.1629509039023,18.5));
#509=CARTESIAN_POINT('',(-24.4629509039023,26.1629509039023,18.5));
#510=CARTESIAN_POINT('',(-26.1629509039023,-26.1629509039023,18.5));
#511=CARTESIAN_POINT('',(-24.4629509039023,-26.1629509039023,18.5));
#512=CARTESIAN_POINT('',(26.1629509039023,-26.1629509039023,18.5));
#513=CARTESIAN_POINT('',(27.8629509039023,-26.1629509039023,18.5));
#514=CARTESIAN_POINT('',(0.,0.,18.5));
#515=CARTESIAN_POINT('',(32.,0.,18.5));
#516=CARTESIAN_POINT('',(0.,0.,18.5));
#517=CARTESIAN_POINT('',(40.8479166666667,9.7697340799561,18.5));
#518=CARTESIAN_POINT('',(40.8479166666667,-9.76973407995611,18.5));
#519=CARTESIAN_POINT('',(60.,0.,18.5));
#520=CARTESIAN_POINT('',(0.,0.,23.5));
#521=CARTESIAN_POINT('',(40.8479166666667,-9.76973407995609,21.));
#522=CARTESIAN_POINT('',(40.8479166666667,-9.76973407995609,23.5));
#523=CARTESIAN_POINT('',(0.,0.,23.5));
#524=CARTESIAN_POINT('',(40.8479166666667,9.76973407995609,23.5));
#525=CARTESIAN_POINT('',(40.8479166666667,9.76973407995609,21.));
#526=CARTESIAN_POINT('',(0.,0.,23.5));
#527=CARTESIAN_POINT('',(26.1629509039023,26.1629509039023,23.5));
#528=CARTESIAN_POINT('',(27.8629509039023,26.1629509039023,23.5));
#529=CARTESIAN_POINT('',(-26.1629509039023,26.1629509039023,23.5));
#530=CARTESIAN_POINT('',(-24.4629509039023,26.1629509039023,23.5));
#531=CARTESIAN_POINT('',(-26.1629509039023,-26.1629509039023,23.5));
#532=CARTESIAN_POINT('',(-24.4629509039023,-26.1629509039023,23.5));
#533=CARTESIAN_POINT('',(26.1629509039023,-26.1629509039023,23.5));
#534=CARTESIAN_POINT('',(27.8629509039023,-26.1629509039023,23.5));
#535=CARTESIAN_POINT('',(0.,0.,23.5));
#536=CARTESIAN_POINT('',(32.,0.,23.5));
#537=CARTESIAN_POINT('',(60.,0.,23.5));
#538=CARTESIAN_POINT('',(0.,0.,21.85));
#539=CARTESIAN_POINT('',(0.,0.,7.15));
#540=CARTESIAN_POINT('',(17.5,0.,7.15));
#541=CARTESIAN_POINT('',(0.,0.,21.85));
#542=CARTESIAN_POINT('',(17.5,0.,21.85));
#543=CARTESIAN_POINT('',(0.,0.,7.15));
#544=CARTESIAN_POINT('',(0.,0.,0.));
#545=CARTESIAN_POINT('',(32.,0.,0.));
#546=CARTESIAN_POINT('',(0.,0.,7.15));
#547=CARTESIAN_POINT('',(0.,0.,7.15));
#548=CARTESIAN_POINT('',(21.1,0.,7.15));
#549=CARTESIAN_POINT('',(0.,0.,0.));
#550=CARTESIAN_POINT('',(21.1,0.,0.));
#551=CARTESIAN_POINT('',(27.,0.,7.15));
#552=CARTESIAN_POINT('',(27.,0.,29.));
#553=CARTESIAN_POINT('',(28.7,0.,29.));
#554=CARTESIAN_POINT('',(27.,0.,0.));
#555=CARTESIAN_POINT('',(28.7,0.,0.));
#556=CARTESIAN_POINT('',(1.65327317884893E-15,27.,7.15));
#557=CARTESIAN_POINT('',(1.65327317884893E-15,27.,29.));
#558=CARTESIAN_POINT('',(1.7,27.,29.));
#559=CARTESIAN_POINT('',(1.65327317884893E-15,27.,0.));
#560=CARTESIAN_POINT('',(1.7,27.,0.));
#561=CARTESIAN_POINT('',(-27.,3.30654635769785E-15,7.15));
#562=CARTESIAN_POINT('',(-27.,3.30654635769785E-15,29.));
#563=CARTESIAN_POINT('',(-25.3,3.30654635769785E-15,29.));
#564=CARTESIAN_POINT('',(-27.,3.30654635769785E-15,0.));
#565=CARTESIAN_POINT('',(-25.3,3.30654635769785E-15,0.));
#566=CARTESIAN_POINT('',(-4.95981953654678E-15,-27.,7.15));
#567=CARTESIAN_POINT('',(-4.95981953654678E-15,-27.,29.));
#568=CARTESIAN_POINT('',(1.69999999999999,-27.,29.));
#569=CARTESIAN_POINT('',(-4.95981953654678E-15,-27.,0.));
#570=CARTESIAN_POINT('',(1.69999999999999,-27.,0.));
#571=CARTESIAN_POINT('',(0.,0.,7.15));
#572=CARTESIAN_POINT('',(0.,0.,29.));
#573=CARTESIAN_POINT('',(32.,0.,29.));
#574=CARTESIAN_POINT('',(0.,0.,0.));
#575=CARTESIAN_POINT('',(0.,0.,7.15));
#576=CARTESIAN_POINT('',(0.,0.,29.));
#577=CARTESIAN_POINT('',(0.,0.,29.));
#578=CARTESIAN_POINT('',(21.1,0.,29.));
#579=CARTESIAN_POINT('',(0.,0.,21.85));
#580=CARTESIAN_POINT('',(21.1,0.,21.85));
#581=CARTESIAN_POINT('',(0.,0.,29.));
#582=CARTESIAN_POINT('',(26.1629509039023,26.1629509039023,23.5));
#583=CARTESIAN_POINT('',(-26.1629509039023,26.1629509039023,23.5));
#584=CARTESIAN_POINT('',(-26.1629509039023,-26.1629509039023,23.5));
#585=CARTESIAN_POINT('',(26.1629509039023,-26.1629509039023,23.5));
#586=CARTESIAN_POINT('',(0.,0.,21.85));
#587=CARTESIAN_POINT('',(60.,0.,23.5));
#588=MECHANICAL_DESIGN_GEOMETRIC_PRESENTATION_REPRESENTATION('',(#335),
#589);
#589=(
GEOMETRIC_REPRESENTATION_CONTEXT(3)
GLOBAL_UNCERTAINTY_ASSIGNED_CONTEXT((#590))
GLOBAL_UNIT_ASSIGNED_CONTEXT((#593,#592,#591))
REPRESENTATION_CONTEXT('B03b_yaw_bearing_cartridge',
'TOP_LEVEL_ASSEMBLY_PART')
);
#590=UNCERTAINTY_MEASURE_WITH_UNIT(LENGTH_MEASURE(0.005),#593,
'DISTANCE_ACCURACY_VALUE','Maximum Tolerance applied to model');
#591=(
NAMED_UNIT(*)
SI_UNIT($,.STERADIAN.)
SOLID_ANGLE_UNIT()
);
#592=(
NAMED_UNIT(*)
PLANE_ANGLE_UNIT()
SI_UNIT($,.RADIAN.)
);
#593=(
LENGTH_UNIT()
NAMED_UNIT(*)
SI_UNIT(.MILLI.,.METRE.)
);
#594=PRODUCT_DEFINITION_SHAPE('','',#595);
#595=PRODUCT_DEFINITION('','',#597,#596);
#596=PRODUCT_DEFINITION_CONTEXT('',#603,'design');
#597=PRODUCT_DEFINITION_FORMATION_WITH_SPECIFIED_SOURCE('','',#599,
 .NOT_KNOWN.);
#598=PRODUCT_RELATED_PRODUCT_CATEGORY('','',(#599));
#599=PRODUCT('B03b_yaw_bearing_cartridge','B03b_yaw_bearing_cartridge',
'B03b_yaw_bearing_cartridge',(#601));
#600=PRODUCT_CATEGORY('','');
#601=PRODUCT_CONTEXT('',#603,'mechanical');
#602=APPLICATION_PROTOCOL_DEFINITION('international standard',
'automotive_design',2010,#603);
#603=APPLICATION_CONTEXT(
'core data for automotive mechanical design processes');
ENDSEC;
END-ISO-10303-21;
