ISO-10303-21;
HEADER;
/* Generated by software containing ST-Developer
 * from STEP Tools, Inc. (www.steptools.com) 
 */
/* OPTION: strings as raw bytes, not using required /X/ escapes */

FILE_DESCRIPTION(
/* description */ ('Unknown'),
/* implementation_level */ '2;1');

FILE_NAME(
/* name */ 'B06_hollow_yaw_spindle',
/* time_stamp */ '2026-09-23T11:55:07+08:00',
/* author */ ('Unknown'),
/* organization */ ('Unknown'),
/* preprocessor_version */ 'ST-DEVELOPER v16.7',
/* originating_system */ 'Solid Edge',
/* authorisation */ 'Unknown');

FILE_SCHEMA (('AUTOMOTIVE_DESIGN {1 0 10303 214 3 1 1}'));
ENDSEC;

DATA;
#10=PROPERTY_DEFINITION_REPRESENTATION(#14,#12);
#11=PROPERTY_DEFINITION_REPRESENTATION(#15,#13);
#12=REPRESENTATION('',(#16),#509);
#13=REPRESENTATION('',(#17),#509);
#14=PROPERTY_DEFINITION('pmi validation property','',#514);
#15=PROPERTY_DEFINITION('pmi validation property','',#514);
#16=VALUE_REPRESENTATION_ITEM('number of annotations',COUNT_MEASURE(0.));
#17=VALUE_REPRESENTATION_ITEM('number of views',COUNT_MEASURE(0.));
#18=SHAPE_REPRESENTATION_RELATIONSHIP('','',#301,#19);
#19=ADVANCED_BREP_SHAPE_REPRESENTATION('',(#299),#509);
#20=PLANE('',#321);
#21=PLANE('',#323);
#22=PLANE('',#329);
#23=PLANE('',#345);
#24=PLANE('',#346);
#25=ORIENTED_EDGE('',*,*,#77,.F.);
#26=ORIENTED_EDGE('',*,*,#78,.T.);
#27=ORIENTED_EDGE('',*,*,#79,.F.);
#28=ORIENTED_EDGE('',*,*,#80,.T.);
#29=ORIENTED_EDGE('',*,*,#81,.F.);
#30=ORIENTED_EDGE('',*,*,#82,.T.);
#31=ORIENTED_EDGE('',*,*,#83,.F.);
#32=ORIENTED_EDGE('',*,*,#84,.T.);
#33=ORIENTED_EDGE('',*,*,#85,.F.);
#34=ORIENTED_EDGE('',*,*,#86,.T.);
#35=ORIENTED_EDGE('',*,*,#87,.F.);
#36=ORIENTED_EDGE('',*,*,#88,.T.);
#37=ORIENTED_EDGE('',*,*,#89,.F.);
#38=ORIENTED_EDGE('',*,*,#87,.T.);
#39=ORIENTED_EDGE('',*,*,#85,.T.);
#40=ORIENTED_EDGE('',*,*,#83,.T.);
#41=ORIENTED_EDGE('',*,*,#81,.T.);
#42=ORIENTED_EDGE('',*,*,#79,.T.);
#43=ORIENTED_EDGE('',*,*,#77,.T.);
#44=ORIENTED_EDGE('',*,*,#88,.F.);
#45=ORIENTED_EDGE('',*,*,#90,.F.);
#46=ORIENTED_EDGE('',*,*,#89,.T.);
#47=ORIENTED_EDGE('',*,*,#91,.F.);
#48=ORIENTED_EDGE('',*,*,#92,.T.);
#49=ORIENTED_EDGE('',*,*,#90,.T.);
#50=ORIENTED_EDGE('',*,*,#92,.F.);
#51=ORIENTED_EDGE('',*,*,#93,.T.);
#52=ORIENTED_EDGE('',*,*,#94,.F.);
#53=ORIENTED_EDGE('',*,*,#95,.T.);
#54=ORIENTED_EDGE('',*,*,#96,.F.);
#55=ORIENTED_EDGE('',*,*,#97,.T.);
#56=ORIENTED_EDGE('',*,*,#98,.F.);
#57=ORIENTED_EDGE('',*,*,#99,.T.);
#58=ORIENTED_EDGE('',*,*,#100,.F.);
#59=ORIENTED_EDGE('',*,*,#101,.F.);
#60=ORIENTED_EDGE('',*,*,#102,.T.);
#61=ORIENTED_EDGE('',*,*,#99,.F.);
#62=ORIENTED_EDGE('',*,*,#97,.F.);
#63=ORIENTED_EDGE('',*,*,#95,.F.);
#64=ORIENTED_EDGE('',*,*,#93,.F.);
#65=ORIENTED_EDGE('',*,*,#86,.F.);
#66=ORIENTED_EDGE('',*,*,#84,.F.);
#67=ORIENTED_EDGE('',*,*,#82,.F.);
#68=ORIENTED_EDGE('',*,*,#80,.F.);
#69=ORIENTED_EDGE('',*,*,#78,.F.);
#70=ORIENTED_EDGE('',*,*,#101,.T.);
#71=ORIENTED_EDGE('',*,*,#91,.T.);
#72=ORIENTED_EDGE('',*,*,#100,.T.);
#73=ORIENTED_EDGE('',*,*,#98,.T.);
#74=ORIENTED_EDGE('',*,*,#96,.T.);
#75=ORIENTED_EDGE('',*,*,#94,.T.);
#76=ORIENTED_EDGE('',*,*,#102,.F.);
#77=EDGE_CURVE('',#103,#103,#129,.T.);
#78=EDGE_CURVE('',#104,#104,#130,.T.);
#79=EDGE_CURVE('',#105,#105,#131,.T.);
#80=EDGE_CURVE('',#106,#106,#132,.T.);
#81=EDGE_CURVE('',#107,#107,#133,.T.);
#82=EDGE_CURVE('',#108,#108,#134,.T.);
#83=EDGE_CURVE('',#109,#109,#135,.T.);
#84=EDGE_CURVE('',#110,#110,#136,.T.);
#85=EDGE_CURVE('',#111,#111,#137,.T.);
#86=EDGE_CURVE('',#112,#112,#138,.T.);
#87=EDGE_CURVE('',#113,#113,#139,.T.);
#88=EDGE_CURVE('',#114,#114,#140,.T.);
#89=EDGE_CURVE('',#115,#115,#141,.T.);
#90=EDGE_CURVE('',#116,#116,#142,.T.);
#91=EDGE_CURVE('',#117,#117,#143,.T.);
#92=EDGE_CURVE('',#118,#118,#144,.T.);
#93=EDGE_CURVE('',#119,#119,#145,.T.);
#94=EDGE_CURVE('',#120,#120,#146,.T.);
#95=EDGE_CURVE('',#121,#121,#147,.T.);
#96=EDGE_CURVE('',#122,#122,#148,.T.);
#97=EDGE_CURVE('',#123,#123,#149,.T.);
#98=EDGE_CURVE('',#124,#124,#150,.T.);
#99=EDGE_CURVE('',#125,#125,#151,.T.);
#100=EDGE_CURVE('',#126,#126,#152,.T.);
#101=EDGE_CURVE('',#127,#127,#153,.T.);
#102=EDGE_CURVE('',#128,#128,#154,.T.);
#103=VERTEX_POINT('',#440);
#104=VERTEX_POINT('',#442);
#105=VERTEX_POINT('',#445);
#106=VERTEX_POINT('',#447);
#107=VERTEX_POINT('',#450);
#108=VERTEX_POINT('',#452);
#109=VERTEX_POINT('',#455);
#110=VERTEX_POINT('',#457);
#111=VERTEX_POINT('',#460);
#112=VERTEX_POINT('',#462);
#113=VERTEX_POINT('',#465);
#114=VERTEX_POINT('',#467);
#115=VERTEX_POINT('',#470);
#116=VERTEX_POINT('',#474);
#117=VERTEX_POINT('',#477);
#118=VERTEX_POINT('',#479);
#119=VERTEX_POINT('',#483);
#120=VERTEX_POINT('',#485);
#121=VERTEX_POINT('',#488);
#122=VERTEX_POINT('',#490);
#123=VERTEX_POINT('',#493);
#124=VERTEX_POINT('',#495);
#125=VERTEX_POINT('',#498);
#126=VERTEX_POINT('',#500);
#127=VERTEX_POINT('',#503);
#128=VERTEX_POINT('',#505);
#129=CIRCLE('',#304,7.);
#130=CIRCLE('',#305,7.);
#131=CIRCLE('',#307,1.7);
#132=CIRCLE('',#308,1.7);
#133=CIRCLE('',#310,1.7);
#134=CIRCLE('',#311,1.7);
#135=CIRCLE('',#313,1.7);
#136=CIRCLE('',#314,1.7);
#137=CIRCLE('',#316,1.7);
#138=CIRCLE('',#317,1.7);
#139=CIRCLE('',#319,17.);
#140=CIRCLE('',#320,17.);
#141=CIRCLE('',#322,14.925);
#142=CIRCLE('',#325,14.925);
#143=CIRCLE('',#327,17.);
#144=CIRCLE('',#328,17.);
#145=CIRCLE('',#331,1.7);
#146=CIRCLE('',#332,1.7);
#147=CIRCLE('',#334,1.7);
#148=CIRCLE('',#335,1.7);
#149=CIRCLE('',#337,1.7);
#150=CIRCLE('',#338,1.7);
#151=CIRCLE('',#340,1.7);
#152=CIRCLE('',#341,1.7);
#153=CIRCLE('',#343,35.);
#154=CIRCLE('',#344,35.);
#155=EDGE_LOOP('',(#25));
#156=EDGE_LOOP('',(#26));
#157=EDGE_LOOP('',(#27));
#158=EDGE_LOOP('',(#28));
#159=EDGE_LOOP('',(#29));
#160=EDGE_LOOP('',(#30));
#161=EDGE_LOOP('',(#31));
#162=EDGE_LOOP('',(#32));
#163=EDGE_LOOP('',(#33));
#164=EDGE_LOOP('',(#34));
#165=EDGE_LOOP('',(#35));
#166=EDGE_LOOP('',(#36));
#167=EDGE_LOOP('',(#37));
#168=EDGE_LOOP('',(#38));
#169=EDGE_LOOP('',(#39));
#170=EDGE_LOOP('',(#40));
#171=EDGE_LOOP('',(#41));
#172=EDGE_LOOP('',(#42));
#173=EDGE_LOOP('',(#43));
#174=EDGE_LOOP('',(#44));
#175=EDGE_LOOP('',(#45));
#176=EDGE_LOOP('',(#46));
#177=EDGE_LOOP('',(#47));
#178=EDGE_LOOP('',(#48));
#179=EDGE_LOOP('',(#49));
#180=EDGE_LOOP('',(#50));
#181=EDGE_LOOP('',(#51));
#182=EDGE_LOOP('',(#52));
#183=EDGE_LOOP('',(#53));
#184=EDGE_LOOP('',(#54));
#185=EDGE_LOOP('',(#55));
#186=EDGE_LOOP('',(#56));
#187=EDGE_LOOP('',(#57));
#188=EDGE_LOOP('',(#58));
#189=EDGE_LOOP('',(#59));
#190=EDGE_LOOP('',(#60));
#191=EDGE_LOOP('',(#61));
#192=EDGE_LOOP('',(#62));
#193=EDGE_LOOP('',(#63));
#194=EDGE_LOOP('',(#64));
#195=EDGE_LOOP('',(#65));
#196=EDGE_LOOP('',(#66));
#197=EDGE_LOOP('',(#67));
#198=EDGE_LOOP('',(#68));
#199=EDGE_LOOP('',(#69));
#200=EDGE_LOOP('',(#70));
#201=EDGE_LOOP('',(#71));
#202=EDGE_LOOP('',(#72));
#203=EDGE_LOOP('',(#73));
#204=EDGE_LOOP('',(#74));
#205=EDGE_LOOP('',(#75));
#206=EDGE_LOOP('',(#76));
#207=FACE_BOUND('',#155,.T.);
#208=FACE_BOUND('',#156,.T.);
#209=FACE_BOUND('',#157,.T.);
#210=FACE_BOUND('',#158,.T.);
#211=FACE_BOUND('',#159,.T.);
#212=FACE_BOUND('',#160,.T.);
#213=FACE_BOUND('',#161,.T.);
#214=FACE_BOUND('',#162,.T.);
#215=FACE_BOUND('',#163,.T.);
#216=FACE_BOUND('',#164,.T.);
#217=FACE_BOUND('',#165,.T.);
#218=FACE_BOUND('',#166,.T.);
#219=FACE_BOUND('',#167,.T.);
#220=FACE_BOUND('',#168,.T.);
#221=FACE_BOUND('',#169,.T.);
#222=FACE_BOUND('',#170,.T.);
#223=FACE_BOUND('',#171,.T.);
#224=FACE_BOUND('',#172,.T.);
#225=FACE_BOUND('',#173,.T.);
#226=FACE_BOUND('',#174,.T.);
#227=FACE_BOUND('',#175,.T.);
#228=FACE_BOUND('',#176,.T.);
#229=FACE_BOUND('',#177,.T.);
#230=FACE_BOUND('',#178,.T.);
#231=FACE_BOUND('',#179,.T.);
#232=FACE_BOUND('',#180,.T.);
#233=FACE_BOUND('',#181,.T.);
#234=FACE_BOUND('',#182,.T.);
#235=FACE_BOUND('',#183,.T.);
#236=FACE_BOUND('',#184,.T.);
#237=FACE_BOUND('',#185,.T.);
#238=FACE_BOUND('',#186,.T.);
#239=FACE_BOUND('',#187,.T.);
#240=FACE_BOUND('',#188,.T.);
#241=FACE_BOUND('',#189,.T.);
#242=FACE_BOUND('',#190,.T.);
#243=FACE_BOUND('',#191,.T.);
#244=FACE_BOUND('',#192,.T.);
#245=FACE_BOUND('',#193,.T.);
#246=FACE_BOUND('',#194,.T.);
#247=FACE_BOUND('',#195,.T.);
#248=FACE_BOUND('',#196,.T.);
#249=FACE_BOUND('',#197,.T.);
#250=FACE_BOUND('',#198,.T.);
#251=FACE_BOUND('',#199,.T.);
#252=FACE_BOUND('',#200,.T.);
#253=FACE_BOUND('',#201,.T.);
#254=FACE_BOUND('',#202,.T.);
#255=FACE_BOUND('',#203,.T.);
#256=FACE_BOUND('',#204,.T.);
#257=FACE_BOUND('',#205,.T.);
#258=FACE_BOUND('',#206,.T.);
#259=CYLINDRICAL_SURFACE('',#303,7.);
#260=CYLINDRICAL_SURFACE('',#306,1.7);
#261=CYLINDRICAL_SURFACE('',#309,1.7);
#262=CYLINDRICAL_SURFACE('',#312,1.7);
#263=CYLINDRICAL_SURFACE('',#315,1.7);
#264=CYLINDRICAL_SURFACE('',#318,17.);
#265=CYLINDRICAL_SURFACE('',#324,14.925);
#266=CYLINDRICAL_SURFACE('',#326,17.);
#267=CYLINDRICAL_SURFACE('',#330,1.7);
#268=CYLINDRICAL_SURFACE('',#333,1.7);
#269=CYLINDRICAL_SURFACE('',#336,1.7);
#270=CYLINDRICAL_SURFACE('',#339,1.7);
#271=CYLINDRICAL_SURFACE('',#342,35.);
#272=ADVANCED_FACE('',(#207,#208),#259,.F.);
#273=ADVANCED_FACE('',(#209,#210),#260,.F.);
#274=ADVANCED_FACE('',(#211,#212),#261,.F.);
#275=ADVANCED_FACE('',(#213,#214),#262,.F.);
#276=ADVANCED_FACE('',(#215,#216),#263,.F.);
#277=ADVANCED_FACE('',(#217,#218),#264,.T.);
#278=ADVANCED_FACE('',(#219,#220),#20,.T.);
#279=ADVANCED_FACE('',(#221,#222,#223,#224,#225,#226),#21,.F.);
#280=ADVANCED_FACE('',(#227,#228),#265,.T.);
#281=ADVANCED_FACE('',(#229,#230),#266,.T.);
#282=ADVANCED_FACE('',(#231,#232),#22,.F.);
#283=ADVANCED_FACE('',(#233,#234),#267,.F.);
#284=ADVANCED_FACE('',(#235,#236),#268,.F.);
#285=ADVANCED_FACE('',(#237,#238),#269,.F.);
#286=ADVANCED_FACE('',(#239,#240),#270,.F.);
#287=ADVANCED_FACE('',(#241,#242),#271,.T.);
#288=ADVANCED_FACE('',(#243,#244,#245,#246,#247,#248,#249,#250,#251,#252),
#23,.T.);
#289=ADVANCED_FACE('',(#253,#254,#255,#256,#257,#258),#24,.F.);
#290=CLOSED_SHELL('',(#272,#273,#274,#275,#276,#277,#278,#279,#280,#281,
#282,#283,#284,#285,#286,#287,#288,#289));
#291=STYLED_ITEM('',(#292),#299);
#292=PRESENTATION_STYLE_ASSIGNMENT((#293));
#293=SURFACE_STYLE_USAGE(.BOTH.,#294);
#294=SURFACE_SIDE_STYLE('',(#295));
#295=SURFACE_STYLE_FILL_AREA(#296);
#296=FILL_AREA_STYLE('',(#297));
#297=FILL_AREA_STYLE_COLOUR('',#298);
#298=COLOUR_RGB('',0.100000001490116,0.349999994039536,0.280000001192093);
#299=MANIFOLD_SOLID_BREP('',#290);
#300=SHAPE_DEFINITION_REPRESENTATION(#514,#301);
#301=SHAPE_REPRESENTATION('B06_hollow_yaw_spindle',(#302),#509);
#302=AXIS2_PLACEMENT_3D('',#437,#347,#348);
#303=AXIS2_PLACEMENT_3D('',#438,#349,#350);
#304=AXIS2_PLACEMENT_3D('',#439,#351,#352);
#305=AXIS2_PLACEMENT_3D('',#441,#353,#354);
#306=AXIS2_PLACEMENT_3D('',#443,#355,#356);
#307=AXIS2_PLACEMENT_3D('',#444,#357,#358);
#308=AXIS2_PLACEMENT_3D('',#446,#359,#360);
#309=AXIS2_PLACEMENT_3D('',#448,#361,#362);
#310=AXIS2_PLACEMENT_3D('',#449,#363,#364);
#311=AXIS2_PLACEMENT_3D('',#451,#365,#366);
#312=AXIS2_PLACEMENT_3D('',#453,#367,#368);
#313=AXIS2_PLACEMENT_3D('',#454,#369,#370);
#314=AXIS2_PLACEMENT_3D('',#456,#371,#372);
#315=AXIS2_PLACEMENT_3D('',#458,#373,#374);
#316=AXIS2_PLACEMENT_3D('',#459,#375,#376);
#317=AXIS2_PLACEMENT_3D('',#461,#377,#378);
#318=AXIS2_PLACEMENT_3D('',#463,#379,#380);
#319=AXIS2_PLACEMENT_3D('',#464,#381,#382);
#320=AXIS2_PLACEMENT_3D('',#466,#383,#384);
#321=AXIS2_PLACEMENT_3D('',#468,#385,#386);
#322=AXIS2_PLACEMENT_3D('',#469,#387,#388);
#323=AXIS2_PLACEMENT_3D('',#471,#389,#390);
#324=AXIS2_PLACEMENT_3D('',#472,#391,#392);
#325=AXIS2_PLACEMENT_3D('',#473,#393,#394);
#326=AXIS2_PLACEMENT_3D('',#475,#395,#396);
#327=AXIS2_PLACEMENT_3D('',#476,#397,#398);
#328=AXIS2_PLACEMENT_3D('',#478,#399,#400);
#329=AXIS2_PLACEMENT_3D('',#480,#401,#402);
#330=AXIS2_PLACEMENT_3D('',#481,#403,#404);
#331=AXIS2_PLACEMENT_3D('',#482,#405,#406);
#332=AXIS2_PLACEMENT_3D('',#484,#407,#408);
#333=AXIS2_PLACEMENT_3D('',#486,#409,#410);
#334=AXIS2_PLACEMENT_3D('',#487,#411,#412);
#335=AXIS2_PLACEMENT_3D('',#489,#413,#414);
#336=AXIS2_PLACEMENT_3D('',#491,#415,#416);
#337=AXIS2_PLACEMENT_3D('',#492,#417,#418);
#338=AXIS2_PLACEMENT_3D('',#494,#419,#420);
#339=AXIS2_PLACEMENT_3D('',#496,#421,#422);
#340=AXIS2_PLACEMENT_3D('',#497,#423,#424);
#341=AXIS2_PLACEMENT_3D('',#499,#425,#426);
#342=AXIS2_PLACEMENT_3D('',#501,#427,#428);
#343=AXIS2_PLACEMENT_3D('',#502,#429,#430);
#344=AXIS2_PLACEMENT_3D('',#504,#431,#432);
#345=AXIS2_PLACEMENT_3D('',#506,#433,#434);
#346=AXIS2_PLACEMENT_3D('',#507,#435,#436);
#347=DIRECTION('',(0.,0.,1.));
#348=DIRECTION('',(1.,0.,0.));
#349=DIRECTION('',(0.,0.,-1.));
#350=DIRECTION('',(-1.,0.,0.));
#351=DIRECTION('',(0.,0.,1.));
#352=DIRECTION('',(1.,0.,0.));
#353=DIRECTION('',(0.,0.,1.));
#354=DIRECTION('',(1.,0.,0.));
#355=DIRECTION('',(0.,0.,-1.));
#356=DIRECTION('',(-1.,0.,0.));
#357=DIRECTION('',(0.,0.,1.));
#358=DIRECTION('',(1.,0.,0.));
#359=DIRECTION('',(0.,0.,1.));
#360=DIRECTION('',(1.,0.,0.));
#361=DIRECTION('',(0.,0.,-1.));
#362=DIRECTION('',(-1.,0.,0.));
#363=DIRECTION('',(0.,0.,1.));
#364=DIRECTION('',(1.,0.,0.));
#365=DIRECTION('',(0.,0.,1.));
#366=DIRECTION('',(1.,0.,0.));
#367=DIRECTION('',(0.,0.,-1.));
#368=DIRECTION('',(-1.,0.,0.));
#369=DIRECTION('',(0.,0.,1.));
#370=DIRECTION('',(1.,0.,0.));
#371=DIRECTION('',(0.,0.,1.));
#372=DIRECTION('',(1.,0.,0.));
#373=DIRECTION('',(0.,0.,-1.));
#374=DIRECTION('',(-1.,0.,0.));
#375=DIRECTION('',(0.,0.,1.));
#376=DIRECTION('',(1.,0.,0.));
#377=DIRECTION('',(0.,0.,1.));
#378=DIRECTION('',(1.,0.,0.));
#379=DIRECTION('',(0.,0.,-1.));
#380=DIRECTION('',(-1.,0.,0.));
#381=DIRECTION('',(0.,0.,1.));
#382=DIRECTION('',(1.,0.,0.));
#383=DIRECTION('',(0.,0.,1.));
#384=DIRECTION('',(1.,0.,0.));
#385=DIRECTION('',(0.,0.,1.));
#386=DIRECTION('',(1.,0.,0.));
#387=DIRECTION('',(0.,0.,1.));
#388=DIRECTION('',(1.,0.,0.));
#389=DIRECTION('',(0.,0.,1.));
#390=DIRECTION('',(1.,0.,0.));
#391=DIRECTION('',(0.,0.,-1.));
#392=DIRECTION('',(-1.,0.,0.));
#393=DIRECTION('',(0.,0.,1.));
#394=DIRECTION('',(1.,0.,0.));
#395=DIRECTION('',(0.,0.,-1.));
#396=DIRECTION('',(-1.,0.,0.));
#397=DIRECTION('',(0.,0.,1.));
#398=DIRECTION('',(1.,0.,0.));
#399=DIRECTION('',(0.,0.,1.));
#400=DIRECTION('',(1.,0.,0.));
#401=DIRECTION('',(0.,0.,1.));
#402=DIRECTION('',(1.,0.,0.));
#403=DIRECTION('',(0.,0.,-1.));
#404=DIRECTION('',(-1.,0.,0.));
#405=DIRECTION('',(0.,0.,1.));
#406=DIRECTION('',(1.,0.,0.));
#407=DIRECTION('',(0.,0.,1.));
#408=DIRECTION('',(1.,0.,0.));
#409=DIRECTION('',(0.,0.,-1.));
#410=DIRECTION('',(-1.,0.,0.));
#411=DIRECTION('',(0.,0.,1.));
#412=DIRECTION('',(1.,0.,0.));
#413=DIRECTION('',(0.,0.,1.));
#414=DIRECTION('',(1.,0.,0.));
#415=DIRECTION('',(0.,0.,-1.));
#416=DIRECTION('',(-1.,0.,0.));
#417=DIRECTION('',(0.,0.,1.));
#418=DIRECTION('',(1.,0.,0.));
#419=DIRECTION('',(0.,0.,1.));
#420=DIRECTION('',(1.,0.,0.));
#421=DIRECTION('',(0.,0.,-1.));
#422=DIRECTION('',(-1.,0.,0.));
#423=DIRECTION('',(0.,0.,1.));
#424=DIRECTION('',(1.,0.,0.));
#425=DIRECTION('',(0.,0.,1.));
#426=DIRECTION('',(1.,0.,0.));
#427=DIRECTION('',(0.,0.,-1.));
#428=DIRECTION('',(-1.,0.,0.));
#429=DIRECTION('',(0.,0.,1.));
#430=DIRECTION('',(1.,0.,0.));
#431=DIRECTION('',(0.,0.,1.));
#432=DIRECTION('',(1.,0.,0.));
#433=DIRECTION('',(0.,0.,1.));
#434=DIRECTION('',(1.,0.,0.));
#435=DIRECTION('',(0.,0.,1.));
#436=DIRECTION('',(1.,0.,0.));
#437=CARTESIAN_POINT('',(0.,0.,0.));
#438=CARTESIAN_POINT('',(0.,0.,4.));
#439=CARTESIAN_POINT('',(0.,0.,0.));
#440=CARTESIAN_POINT('',(7.,0.,0.));
#441=CARTESIAN_POINT('',(0.,0.,42.5));
#442=CARTESIAN_POINT('',(7.,0.,42.5));
#443=CARTESIAN_POINT('',(11.,0.,4.));
#444=CARTESIAN_POINT('',(11.,0.,0.));
#445=CARTESIAN_POINT('',(12.7,0.,0.));
#446=CARTESIAN_POINT('',(11.,0.,42.5));
#447=CARTESIAN_POINT('',(12.7,0.,42.5));
#448=CARTESIAN_POINT('',(6.73555739531044E-16,11.,4.));
#449=CARTESIAN_POINT('',(6.73555739531044E-16,11.,0.));
#450=CARTESIAN_POINT('',(1.7,11.,0.));
#451=CARTESIAN_POINT('',(6.73555739531044E-16,11.,42.5));
#452=CARTESIAN_POINT('',(1.7,11.,42.5));
#453=CARTESIAN_POINT('',(-11.,1.34711147906209E-15,4.));
#454=CARTESIAN_POINT('',(-11.,1.34711147906209E-15,0.));
#455=CARTESIAN_POINT('',(-9.3,1.34711147906209E-15,0.));
#456=CARTESIAN_POINT('',(-11.,1.34711147906209E-15,42.5));
#457=CARTESIAN_POINT('',(-9.3,1.34711147906209E-15,42.5));
#458=CARTESIAN_POINT('',(-2.02066721859313E-15,-11.,4.));
#459=CARTESIAN_POINT('',(-2.02066721859313E-15,-11.,0.));
#460=CARTESIAN_POINT('',(1.7,-11.,0.));
#461=CARTESIAN_POINT('',(-2.02066721859313E-15,-11.,42.5));
#462=CARTESIAN_POINT('',(1.7,-11.,42.5));
#463=CARTESIAN_POINT('',(0.,0.,4.));
#464=CARTESIAN_POINT('',(0.,0.,4.));
#465=CARTESIAN_POINT('',(17.,0.,4.));
#466=CARTESIAN_POINT('',(0.,0.,0.));
#467=CARTESIAN_POINT('',(17.,0.,0.));
#468=CARTESIAN_POINT('',(0.,0.,4.));
#469=CARTESIAN_POINT('',(0.,0.,4.));
#470=CARTESIAN_POINT('',(14.925,0.,4.));
#471=CARTESIAN_POINT('',(0.,0.,0.));
#472=CARTESIAN_POINT('',(0.,0.,33.));
#473=CARTESIAN_POINT('',(0.,0.,33.));
#474=CARTESIAN_POINT('',(14.925,0.,33.));
#475=CARTESIAN_POINT('',(0.,0.,36.5));
#476=CARTESIAN_POINT('',(0.,0.,36.5));
#477=CARTESIAN_POINT('',(17.,0.,36.5));
#478=CARTESIAN_POINT('',(0.,0.,33.));
#479=CARTESIAN_POINT('',(17.,0.,33.));
#480=CARTESIAN_POINT('',(0.,0.,33.));
#481=CARTESIAN_POINT('',(19.0918830920368,19.0918830920368,42.5));
#482=CARTESIAN_POINT('',(19.0918830920368,19.0918830920368,42.5));
#483=CARTESIAN_POINT('',(20.7918830920368,19.0918830920368,42.5));
#484=CARTESIAN_POINT('',(19.0918830920368,19.0918830920368,36.5));
#485=CARTESIAN_POINT('',(20.7918830920368,19.0918830920368,36.5));
#486=CARTESIAN_POINT('',(-19.0918830920368,19.0918830920368,42.5));
#487=CARTESIAN_POINT('',(-19.0918830920368,19.0918830920368,42.5));
#488=CARTESIAN_POINT('',(-17.3918830920368,19.0918830920368,42.5));
#489=CARTESIAN_POINT('',(-19.0918830920368,19.0918830920368,36.5));
#490=CARTESIAN_POINT('',(-17.3918830920368,19.0918830920368,36.5));
#491=CARTESIAN_POINT('',(-19.0918830920368,-19.0918830920368,42.5));
#492=CARTESIAN_POINT('',(-19.0918830920368,-19.0918830920368,42.5));
#493=CARTESIAN_POINT('',(-17.3918830920368,-19.0918830920368,42.5));
#494=CARTESIAN_POINT('',(-19.0918830920368,-19.0918830920368,36.5));
#495=CARTESIAN_POINT('',(-17.3918830920368,-19.0918830920368,36.5));
#496=CARTESIAN_POINT('',(19.0918830920368,-19.0918830920368,42.5));
#497=CARTESIAN_POINT('',(19.0918830920368,-19.0918830920368,42.5));
#498=CARTESIAN_POINT('',(20.7918830920368,-19.0918830920368,42.5));
#499=CARTESIAN_POINT('',(19.0918830920368,-19.0918830920368,36.5));
#500=CARTESIAN_POINT('',(20.7918830920368,-19.0918830920368,36.5));
#501=CARTESIAN_POINT('',(0.,0.,42.5));
#502=CARTESIAN_POINT('',(0.,0.,42.5));
#503=CARTESIAN_POINT('',(35.,0.,42.5));
#504=CARTESIAN_POINT('',(0.,0.,36.5));
#505=CARTESIAN_POINT('',(35.,0.,36.5));
#506=CARTESIAN_POINT('',(0.,0.,42.5));
#507=CARTESIAN_POINT('',(0.,0.,36.5));
#508=MECHANICAL_DESIGN_GEOMETRIC_PRESENTATION_REPRESENTATION('',(#291),
#509);
#509=(
GEOMETRIC_REPRESENTATION_CONTEXT(3)
GLOBAL_UNCERTAINTY_ASSIGNED_CONTEXT((#510))
GLOBAL_UNIT_ASSIGNED_CONTEXT((#513,#512,#511))
REPRESENTATION_CONTEXT('B06_hollow_yaw_spindle',
'TOP_LEVEL_ASSEMBLY_PART')
);
#510=UNCERTAINTY_MEASURE_WITH_UNIT(LENGTH_MEASURE(0.005),#513,
'DISTANCE_ACCURACY_VALUE','Maximum Tolerance applied to model');
#511=(
NAMED_UNIT(*)
SI_UNIT($,.STERADIAN.)
SOLID_ANGLE_UNIT()
);
#512=(
NAMED_UNIT(*)
PLANE_ANGLE_UNIT()
SI_UNIT($,.RADIAN.)
);
#513=(
LENGTH_UNIT()
NAMED_UNIT(*)
SI_UNIT(.MILLI.,.METRE.)
);
#514=PRODUCT_DEFINITION_SHAPE('','',#515);
#515=PRODUCT_DEFINITION('','',#517,#516);
#516=PRODUCT_DEFINITION_CONTEXT('',#523,'design');
#517=PRODUCT_DEFINITION_FORMATION_WITH_SPECIFIED_SOURCE('','',#519,
 .NOT_KNOWN.);
#518=PRODUCT_RELATED_PRODUCT_CATEGORY('','',(#519));
#519=PRODUCT('B06_hollow_yaw_spindle','B06_hollow_yaw_spindle',
'B06_hollow_yaw_spindle',(#521));
#520=PRODUCT_CATEGORY('','');
#521=PRODUCT_CONTEXT('',#523,'mechanical');
#522=APPLICATION_PROTOCOL_DEFINITION('international standard',
'automotive_design',2010,#523);
#523=APPLICATION_CONTEXT(
'core data for automotive mechanical design processes');
ENDSEC;
END-ISO-10303-21;
