ISO-10303-21;
HEADER;
/* Generated by software containing ST-Developer
 * from STEP Tools, Inc. (www.steptools.com) 
 */
/* OPTION: strings as raw bytes, not using required /X/ escapes */

FILE_DESCRIPTION(
/* description */ ('Unknown'),
/* implementation_level */ '2;1');

FILE_NAME(
/* name */ 'B09_U2D2_service_tray',
/* time_stamp */ '2026-09-23T11:55:56+08:00',
/* author */ ('Unknown'),
/* organization */ ('Unknown'),
/* preprocessor_version */ 'ST-DEVELOPER v16.7',
/* originating_system */ 'Solid Edge',
/* authorisation */ 'Unknown');

FILE_SCHEMA (('AUTOMOTIVE_DESIGN {1 0 10303 214 3 1 1}'));
ENDSEC;

DATA;
#10=PROPERTY_DEFINITION_REPRESENTATION(#14,#12);
#11=PROPERTY_DEFINITION_REPRESENTATION(#15,#13);
#12=REPRESENTATION('',(#16),#605);
#13=REPRESENTATION('',(#17),#605);
#14=PROPERTY_DEFINITION('pmi validation property','',#610);
#15=PROPERTY_DEFINITION('pmi validation property','',#610);
#16=VALUE_REPRESENTATION_ITEM('number of annotations',COUNT_MEASURE(0.));
#17=VALUE_REPRESENTATION_ITEM('number of views',COUNT_MEASURE(0.));
#18=SHAPE_REPRESENTATION_RELATIONSHIP('','',#383,#19);
#19=ADVANCED_BREP_SHAPE_REPRESENTATION('',(#381),#605);
#20=CIRCLE('',#389,1.7);
#21=CIRCLE('',#390,1.7);
#22=CIRCLE('',#392,1.7);
#23=CIRCLE('',#393,1.7);
#24=CIRCLE('',#395,1.7);
#25=CIRCLE('',#396,1.7);
#26=CIRCLE('',#398,1.7);
#27=CIRCLE('',#399,1.7);
#28=CYLINDRICAL_SURFACE('',#388,1.7);
#29=CYLINDRICAL_SURFACE('',#391,1.7);
#30=CYLINDRICAL_SURFACE('',#394,1.7);
#31=CYLINDRICAL_SURFACE('',#397,1.7);
#32=ORIENTED_EDGE('',*,*,#120,.T.);
#33=ORIENTED_EDGE('',*,*,#121,.F.);
#34=ORIENTED_EDGE('',*,*,#122,.F.);
#35=ORIENTED_EDGE('',*,*,#123,.T.);
#36=ORIENTED_EDGE('',*,*,#124,.T.);
#37=ORIENTED_EDGE('',*,*,#125,.F.);
#38=ORIENTED_EDGE('',*,*,#126,.F.);
#39=ORIENTED_EDGE('',*,*,#121,.T.);
#40=ORIENTED_EDGE('',*,*,#127,.T.);
#41=ORIENTED_EDGE('',*,*,#128,.F.);
#42=ORIENTED_EDGE('',*,*,#129,.F.);
#43=ORIENTED_EDGE('',*,*,#125,.T.);
#44=ORIENTED_EDGE('',*,*,#130,.T.);
#45=ORIENTED_EDGE('',*,*,#131,.F.);
#46=ORIENTED_EDGE('',*,*,#132,.T.);
#47=ORIENTED_EDGE('',*,*,#133,.F.);
#48=ORIENTED_EDGE('',*,*,#134,.T.);
#49=ORIENTED_EDGE('',*,*,#135,.F.);
#50=ORIENTED_EDGE('',*,*,#136,.T.);
#51=ORIENTED_EDGE('',*,*,#137,.F.);
#52=ORIENTED_EDGE('',*,*,#138,.T.);
#53=ORIENTED_EDGE('',*,*,#123,.F.);
#54=ORIENTED_EDGE('',*,*,#139,.F.);
#55=ORIENTED_EDGE('',*,*,#128,.T.);
#56=ORIENTED_EDGE('',*,*,#140,.F.);
#57=ORIENTED_EDGE('',*,*,#141,.F.);
#58=ORIENTED_EDGE('',*,*,#142,.F.);
#59=ORIENTED_EDGE('',*,*,#143,.F.);
#60=ORIENTED_EDGE('',*,*,#136,.F.);
#61=ORIENTED_EDGE('',*,*,#134,.F.);
#62=ORIENTED_EDGE('',*,*,#132,.F.);
#63=ORIENTED_EDGE('',*,*,#130,.F.);
#64=ORIENTED_EDGE('',*,*,#122,.T.);
#65=ORIENTED_EDGE('',*,*,#126,.T.);
#66=ORIENTED_EDGE('',*,*,#129,.T.);
#67=ORIENTED_EDGE('',*,*,#139,.T.);
#68=ORIENTED_EDGE('',*,*,#137,.T.);
#69=ORIENTED_EDGE('',*,*,#135,.T.);
#70=ORIENTED_EDGE('',*,*,#133,.T.);
#71=ORIENTED_EDGE('',*,*,#131,.T.);
#72=ORIENTED_EDGE('',*,*,#120,.F.);
#73=ORIENTED_EDGE('',*,*,#138,.F.);
#74=ORIENTED_EDGE('',*,*,#127,.F.);
#75=ORIENTED_EDGE('',*,*,#124,.F.);
#76=ORIENTED_EDGE('',*,*,#140,.T.);
#77=ORIENTED_EDGE('',*,*,#144,.F.);
#78=ORIENTED_EDGE('',*,*,#145,.F.);
#79=ORIENTED_EDGE('',*,*,#146,.T.);
#80=ORIENTED_EDGE('',*,*,#143,.T.);
#81=ORIENTED_EDGE('',*,*,#147,.F.);
#82=ORIENTED_EDGE('',*,*,#148,.F.);
#83=ORIENTED_EDGE('',*,*,#144,.T.);
#84=ORIENTED_EDGE('',*,*,#142,.T.);
#85=ORIENTED_EDGE('',*,*,#149,.F.);
#86=ORIENTED_EDGE('',*,*,#150,.F.);
#87=ORIENTED_EDGE('',*,*,#147,.T.);
#88=ORIENTED_EDGE('',*,*,#151,.F.);
#89=ORIENTED_EDGE('',*,*,#152,.F.);
#90=ORIENTED_EDGE('',*,*,#153,.T.);
#91=ORIENTED_EDGE('',*,*,#154,.T.);
#92=ORIENTED_EDGE('',*,*,#155,.F.);
#93=ORIENTED_EDGE('',*,*,#156,.F.);
#94=ORIENTED_EDGE('',*,*,#157,.T.);
#95=ORIENTED_EDGE('',*,*,#152,.T.);
#96=ORIENTED_EDGE('',*,*,#158,.F.);
#97=ORIENTED_EDGE('',*,*,#159,.F.);
#98=ORIENTED_EDGE('',*,*,#160,.T.);
#99=ORIENTED_EDGE('',*,*,#156,.T.);
#100=ORIENTED_EDGE('',*,*,#161,.F.);
#101=ORIENTED_EDGE('',*,*,#154,.F.);
#102=ORIENTED_EDGE('',*,*,#162,.T.);
#103=ORIENTED_EDGE('',*,*,#159,.T.);
#104=ORIENTED_EDGE('',*,*,#141,.T.);
#105=ORIENTED_EDGE('',*,*,#146,.F.);
#106=ORIENTED_EDGE('',*,*,#163,.F.);
#107=ORIENTED_EDGE('',*,*,#149,.T.);
#108=ORIENTED_EDGE('',*,*,#153,.F.);
#109=ORIENTED_EDGE('',*,*,#157,.F.);
#110=ORIENTED_EDGE('',*,*,#160,.F.);
#111=ORIENTED_EDGE('',*,*,#162,.F.);
#112=ORIENTED_EDGE('',*,*,#145,.T.);
#113=ORIENTED_EDGE('',*,*,#148,.T.);
#114=ORIENTED_EDGE('',*,*,#150,.T.);
#115=ORIENTED_EDGE('',*,*,#163,.T.);
#116=ORIENTED_EDGE('',*,*,#155,.T.);
#117=ORIENTED_EDGE('',*,*,#151,.T.);
#118=ORIENTED_EDGE('',*,*,#161,.T.);
#119=ORIENTED_EDGE('',*,*,#158,.T.);
#120=EDGE_CURVE('',#164,#165,#196,.T.);
#121=EDGE_CURVE('',#166,#165,#197,.T.);
#122=EDGE_CURVE('',#167,#166,#198,.T.);
#123=EDGE_CURVE('',#167,#164,#199,.T.);
#124=EDGE_CURVE('',#165,#168,#200,.T.);
#125=EDGE_CURVE('',#169,#168,#201,.T.);
#126=EDGE_CURVE('',#166,#169,#202,.T.);
#127=EDGE_CURVE('',#168,#170,#203,.T.);
#128=EDGE_CURVE('',#171,#170,#204,.T.);
#129=EDGE_CURVE('',#169,#171,#205,.T.);
#130=EDGE_CURVE('',#172,#172,#20,.T.);
#131=EDGE_CURVE('',#173,#173,#21,.T.);
#132=EDGE_CURVE('',#174,#174,#22,.T.);
#133=EDGE_CURVE('',#175,#175,#23,.T.);
#134=EDGE_CURVE('',#176,#176,#24,.T.);
#135=EDGE_CURVE('',#177,#177,#25,.T.);
#136=EDGE_CURVE('',#178,#178,#26,.T.);
#137=EDGE_CURVE('',#179,#179,#27,.T.);
#138=EDGE_CURVE('',#170,#164,#206,.T.);
#139=EDGE_CURVE('',#171,#167,#207,.T.);
#140=EDGE_CURVE('',#180,#181,#208,.T.);
#141=EDGE_CURVE('',#182,#180,#209,.T.);
#142=EDGE_CURVE('',#183,#182,#210,.T.);
#143=EDGE_CURVE('',#181,#183,#211,.T.);
#144=EDGE_CURVE('',#184,#181,#212,.T.);
#145=EDGE_CURVE('',#185,#184,#213,.T.);
#146=EDGE_CURVE('',#185,#180,#214,.T.);
#147=EDGE_CURVE('',#186,#183,#215,.T.);
#148=EDGE_CURVE('',#184,#186,#216,.T.);
#149=EDGE_CURVE('',#187,#182,#217,.T.);
#150=EDGE_CURVE('',#186,#187,#218,.T.);
#151=EDGE_CURVE('',#188,#189,#219,.T.);
#152=EDGE_CURVE('',#190,#188,#220,.T.);
#153=EDGE_CURVE('',#190,#191,#221,.T.);
#154=EDGE_CURVE('',#191,#189,#222,.T.);
#155=EDGE_CURVE('',#192,#188,#223,.T.);
#156=EDGE_CURVE('',#193,#192,#224,.T.);
#157=EDGE_CURVE('',#193,#190,#225,.T.);
#158=EDGE_CURVE('',#194,#192,#226,.T.);
#159=EDGE_CURVE('',#195,#194,#227,.T.);
#160=EDGE_CURVE('',#195,#193,#228,.T.);
#161=EDGE_CURVE('',#189,#194,#229,.T.);
#162=EDGE_CURVE('',#191,#195,#230,.T.);
#163=EDGE_CURVE('',#187,#185,#231,.T.);
#164=VERTEX_POINT('',#510);
#165=VERTEX_POINT('',#511);
#166=VERTEX_POINT('',#513);
#167=VERTEX_POINT('',#515);
#168=VERTEX_POINT('',#519);
#169=VERTEX_POINT('',#521);
#170=VERTEX_POINT('',#525);
#171=VERTEX_POINT('',#527);
#172=VERTEX_POINT('',#531);
#173=VERTEX_POINT('',#533);
#174=VERTEX_POINT('',#536);
#175=VERTEX_POINT('',#538);
#176=VERTEX_POINT('',#541);
#177=VERTEX_POINT('',#543);
#178=VERTEX_POINT('',#546);
#179=VERTEX_POINT('',#548);
#180=VERTEX_POINT('',#554);
#181=VERTEX_POINT('',#555);
#182=VERTEX_POINT('',#557);
#183=VERTEX_POINT('',#559);
#184=VERTEX_POINT('',#564);
#185=VERTEX_POINT('',#566);
#186=VERTEX_POINT('',#570);
#187=VERTEX_POINT('',#574);
#188=VERTEX_POINT('',#578);
#189=VERTEX_POINT('',#579);
#190=VERTEX_POINT('',#581);
#191=VERTEX_POINT('',#583);
#192=VERTEX_POINT('',#587);
#193=VERTEX_POINT('',#589);
#194=VERTEX_POINT('',#593);
#195=VERTEX_POINT('',#595);
#196=LINE('',#509,#232);
#197=LINE('',#512,#233);
#198=LINE('',#514,#234);
#199=LINE('',#516,#235);
#200=LINE('',#518,#236);
#201=LINE('',#520,#237);
#202=LINE('',#522,#238);
#203=LINE('',#524,#239);
#204=LINE('',#526,#240);
#205=LINE('',#528,#241);
#206=LINE('',#550,#242);
#207=LINE('',#551,#243);
#208=LINE('',#553,#244);
#209=LINE('',#556,#245);
#210=LINE('',#558,#246);
#211=LINE('',#560,#247);
#212=LINE('',#563,#248);
#213=LINE('',#565,#249);
#214=LINE('',#567,#250);
#215=LINE('',#569,#251);
#216=LINE('',#571,#252);
#217=LINE('',#573,#253);
#218=LINE('',#575,#254);
#219=LINE('',#577,#255);
#220=LINE('',#580,#256);
#221=LINE('',#582,#257);
#222=LINE('',#584,#258);
#223=LINE('',#586,#259);
#224=LINE('',#588,#260);
#225=LINE('',#590,#261);
#226=LINE('',#592,#262);
#227=LINE('',#594,#263);
#228=LINE('',#596,#264);
#229=LINE('',#598,#265);
#230=LINE('',#599,#266);
#231=LINE('',#601,#267);
#232=VECTOR('',#417,1000.);
#233=VECTOR('',#418,1000.);
#234=VECTOR('',#419,1000.);
#235=VECTOR('',#420,1000.);
#236=VECTOR('',#423,1000.);
#237=VECTOR('',#424,1000.);
#238=VECTOR('',#425,1000.);
#239=VECTOR('',#428,1000.);
#240=VECTOR('',#429,1000.);
#241=VECTOR('',#430,1000.);
#242=VECTOR('',#457,1000.);
#243=VECTOR('',#458,1000.);
#244=VECTOR('',#461,1000.);
#245=VECTOR('',#462,1000.);
#246=VECTOR('',#463,1000.);
#247=VECTOR('',#464,1000.);
#248=VECTOR('',#469,1000.);
#249=VECTOR('',#470,1000.);
#250=VECTOR('',#471,1000.);
#251=VECTOR('',#474,1000.);
#252=VECTOR('',#475,1000.);
#253=VECTOR('',#478,1000.);
#254=VECTOR('',#479,1000.);
#255=VECTOR('',#482,1000.);
#256=VECTOR('',#483,1000.);
#257=VECTOR('',#484,1000.);
#258=VECTOR('',#485,1000.);
#259=VECTOR('',#488,1000.);
#260=VECTOR('',#489,1000.);
#261=VECTOR('',#490,1000.);
#262=VECTOR('',#493,1000.);
#263=VECTOR('',#494,1000.);
#264=VECTOR('',#495,1000.);
#265=VECTOR('',#498,1000.);
#266=VECTOR('',#499,1000.);
#267=VECTOR('',#502,1000.);
#268=EDGE_LOOP('',(#32,#33,#34,#35));
#269=EDGE_LOOP('',(#36,#37,#38,#39));
#270=EDGE_LOOP('',(#40,#41,#42,#43));
#271=EDGE_LOOP('',(#44));
#272=EDGE_LOOP('',(#45));
#273=EDGE_LOOP('',(#46));
#274=EDGE_LOOP('',(#47));
#275=EDGE_LOOP('',(#48));
#276=EDGE_LOOP('',(#49));
#277=EDGE_LOOP('',(#50));
#278=EDGE_LOOP('',(#51));
#279=EDGE_LOOP('',(#52,#53,#54,#55));
#280=EDGE_LOOP('',(#56,#57,#58,#59));
#281=EDGE_LOOP('',(#60));
#282=EDGE_LOOP('',(#61));
#283=EDGE_LOOP('',(#62));
#284=EDGE_LOOP('',(#63));
#285=EDGE_LOOP('',(#64,#65,#66,#67));
#286=EDGE_LOOP('',(#68));
#287=EDGE_LOOP('',(#69));
#288=EDGE_LOOP('',(#70));
#289=EDGE_LOOP('',(#71));
#290=EDGE_LOOP('',(#72,#73,#74,#75));
#291=EDGE_LOOP('',(#76,#77,#78,#79));
#292=EDGE_LOOP('',(#80,#81,#82,#83));
#293=EDGE_LOOP('',(#84,#85,#86,#87));
#294=EDGE_LOOP('',(#88,#89,#90,#91));
#295=EDGE_LOOP('',(#92,#93,#94,#95));
#296=EDGE_LOOP('',(#96,#97,#98,#99));
#297=EDGE_LOOP('',(#100,#101,#102,#103));
#298=EDGE_LOOP('',(#104,#105,#106,#107));
#299=EDGE_LOOP('',(#108,#109,#110,#111));
#300=EDGE_LOOP('',(#112,#113,#114,#115));
#301=EDGE_LOOP('',(#116,#117,#118,#119));
#302=FACE_BOUND('',#268,.T.);
#303=FACE_BOUND('',#269,.T.);
#304=FACE_BOUND('',#270,.T.);
#305=FACE_BOUND('',#271,.T.);
#306=FACE_BOUND('',#272,.T.);
#307=FACE_BOUND('',#273,.T.);
#308=FACE_BOUND('',#274,.T.);
#309=FACE_BOUND('',#275,.T.);
#310=FACE_BOUND('',#276,.T.);
#311=FACE_BOUND('',#277,.T.);
#312=FACE_BOUND('',#278,.T.);
#313=FACE_BOUND('',#279,.T.);
#314=FACE_BOUND('',#280,.T.);
#315=FACE_BOUND('',#281,.T.);
#316=FACE_BOUND('',#282,.T.);
#317=FACE_BOUND('',#283,.T.);
#318=FACE_BOUND('',#284,.T.);
#319=FACE_BOUND('',#285,.T.);
#320=FACE_BOUND('',#286,.T.);
#321=FACE_BOUND('',#287,.T.);
#322=FACE_BOUND('',#288,.T.);
#323=FACE_BOUND('',#289,.T.);
#324=FACE_BOUND('',#290,.T.);
#325=FACE_BOUND('',#291,.T.);
#326=FACE_BOUND('',#292,.T.);
#327=FACE_BOUND('',#293,.T.);
#328=FACE_BOUND('',#294,.T.);
#329=FACE_BOUND('',#295,.T.);
#330=FACE_BOUND('',#296,.T.);
#331=FACE_BOUND('',#297,.T.);
#332=FACE_BOUND('',#298,.T.);
#333=FACE_BOUND('',#299,.T.);
#334=FACE_BOUND('',#300,.T.);
#335=FACE_BOUND('',#301,.T.);
#336=PLANE('',#385);
#337=PLANE('',#386);
#338=PLANE('',#387);
#339=PLANE('',#400);
#340=PLANE('',#401);
#341=PLANE('',#402);
#342=PLANE('',#403);
#343=PLANE('',#404);
#344=PLANE('',#405);
#345=PLANE('',#406);
#346=PLANE('',#407);
#347=PLANE('',#408);
#348=PLANE('',#409);
#349=PLANE('',#410);
#350=PLANE('',#411);
#351=PLANE('',#412);
#352=ADVANCED_FACE('',(#302),#336,.F.);
#353=ADVANCED_FACE('',(#303),#337,.F.);
#354=ADVANCED_FACE('',(#304),#338,.F.);
#355=ADVANCED_FACE('',(#305,#306),#28,.F.);
#356=ADVANCED_FACE('',(#307,#308),#29,.F.);
#357=ADVANCED_FACE('',(#309,#310),#30,.F.);
#358=ADVANCED_FACE('',(#311,#312),#31,.F.);
#359=ADVANCED_FACE('',(#313),#339,.F.);
#360=ADVANCED_FACE('',(#314,#315,#316,#317,#318,#319),#340,.T.);
#361=ADVANCED_FACE('',(#320,#321,#322,#323,#324),#341,.F.);
#362=ADVANCED_FACE('',(#325),#342,.F.);
#363=ADVANCED_FACE('',(#326),#343,.F.);
#364=ADVANCED_FACE('',(#327),#344,.F.);
#365=ADVANCED_FACE('',(#328),#345,.T.);
#366=ADVANCED_FACE('',(#329),#346,.T.);
#367=ADVANCED_FACE('',(#330),#347,.T.);
#368=ADVANCED_FACE('',(#331),#348,.T.);
#369=ADVANCED_FACE('',(#332),#349,.F.);
#370=ADVANCED_FACE('',(#333,#334),#350,.T.);
#371=ADVANCED_FACE('',(#335),#351,.T.);
#372=CLOSED_SHELL('',(#352,#353,#354,#355,#356,#357,#358,#359,#360,#361,
#362,#363,#364,#365,#366,#367,#368,#369,#370,#371));
#373=STYLED_ITEM('',(#374),#381);
#374=PRESENTATION_STYLE_ASSIGNMENT((#375));
#375=SURFACE_STYLE_USAGE(.BOTH.,#376);
#376=SURFACE_SIDE_STYLE('',(#377));
#377=SURFACE_STYLE_FILL_AREA(#378);
#378=FILL_AREA_STYLE('',(#379));
#379=FILL_AREA_STYLE_COLOUR('',#380);
#380=COLOUR_RGB('',0.100000001490116,0.349999994039536,0.280000001192093);
#381=MANIFOLD_SOLID_BREP('',#372);
#382=SHAPE_DEFINITION_REPRESENTATION(#610,#383);
#383=SHAPE_REPRESENTATION('B09_U2D2_service_tray',(#384),#605);
#384=AXIS2_PLACEMENT_3D('',#507,#413,#414);
#385=AXIS2_PLACEMENT_3D('',#508,#415,#416);
#386=AXIS2_PLACEMENT_3D('',#517,#421,#422);
#387=AXIS2_PLACEMENT_3D('',#523,#426,#427);
#388=AXIS2_PLACEMENT_3D('',#529,#431,#432);
#389=AXIS2_PLACEMENT_3D('',#530,#433,#434);
#390=AXIS2_PLACEMENT_3D('',#532,#435,#436);
#391=AXIS2_PLACEMENT_3D('',#534,#437,#438);
#392=AXIS2_PLACEMENT_3D('',#535,#439,#440);
#393=AXIS2_PLACEMENT_3D('',#537,#441,#442);
#394=AXIS2_PLACEMENT_3D('',#539,#443,#444);
#395=AXIS2_PLACEMENT_3D('',#540,#445,#446);
#396=AXIS2_PLACEMENT_3D('',#542,#447,#448);
#397=AXIS2_PLACEMENT_3D('',#544,#449,#450);
#398=AXIS2_PLACEMENT_3D('',#545,#451,#452);
#399=AXIS2_PLACEMENT_3D('',#547,#453,#454);
#400=AXIS2_PLACEMENT_3D('',#549,#455,#456);
#401=AXIS2_PLACEMENT_3D('',#552,#459,#460);
#402=AXIS2_PLACEMENT_3D('',#561,#465,#466);
#403=AXIS2_PLACEMENT_3D('',#562,#467,#468);
#404=AXIS2_PLACEMENT_3D('',#568,#472,#473);
#405=AXIS2_PLACEMENT_3D('',#572,#476,#477);
#406=AXIS2_PLACEMENT_3D('',#576,#480,#481);
#407=AXIS2_PLACEMENT_3D('',#585,#486,#487);
#408=AXIS2_PLACEMENT_3D('',#591,#491,#492);
#409=AXIS2_PLACEMENT_3D('',#597,#496,#497);
#410=AXIS2_PLACEMENT_3D('',#600,#500,#501);
#411=AXIS2_PLACEMENT_3D('',#602,#503,#504);
#412=AXIS2_PLACEMENT_3D('',#603,#505,#506);
#413=DIRECTION('',(0.,0.,1.));
#414=DIRECTION('',(1.,0.,0.));
#415=DIRECTION('',(1.,0.,0.));
#416=DIRECTION('',(0.,0.,-1.));
#417=DIRECTION('',(0.,-1.,0.));
#418=DIRECTION('',(0.,0.,-1.));
#419=DIRECTION('',(0.,-1.,0.));
#420=DIRECTION('',(0.,0.,-1.));
#421=DIRECTION('',(0.,1.,0.));
#422=DIRECTION('',(0.,0.,1.));
#423=DIRECTION('',(1.,0.,0.));
#424=DIRECTION('',(0.,0.,-1.));
#425=DIRECTION('',(1.,0.,0.));
#426=DIRECTION('',(-1.,0.,0.));
#427=DIRECTION('',(0.,0.,1.));
#428=DIRECTION('',(0.,1.,0.));
#429=DIRECTION('',(0.,0.,-1.));
#430=DIRECTION('',(0.,1.,0.));
#431=DIRECTION('',(0.,0.,-1.));
#432=DIRECTION('',(-1.,0.,0.));
#433=DIRECTION('',(0.,0.,1.));
#434=DIRECTION('',(1.,0.,0.));
#435=DIRECTION('',(0.,0.,1.));
#436=DIRECTION('',(1.,0.,0.));
#437=DIRECTION('',(0.,0.,-1.));
#438=DIRECTION('',(-1.,0.,0.));
#439=DIRECTION('',(0.,0.,1.));
#440=DIRECTION('',(1.,0.,0.));
#441=DIRECTION('',(0.,0.,1.));
#442=DIRECTION('',(1.,0.,0.));
#443=DIRECTION('',(0.,0.,-1.));
#444=DIRECTION('',(-1.,0.,0.));
#445=DIRECTION('',(0.,0.,1.));
#446=DIRECTION('',(1.,0.,0.));
#447=DIRECTION('',(0.,0.,1.));
#448=DIRECTION('',(1.,0.,0.));
#449=DIRECTION('',(0.,0.,-1.));
#450=DIRECTION('',(-1.,0.,0.));
#451=DIRECTION('',(0.,0.,1.));
#452=DIRECTION('',(1.,0.,0.));
#453=DIRECTION('',(0.,0.,1.));
#454=DIRECTION('',(1.,0.,0.));
#455=DIRECTION('',(0.,-1.,0.));
#456=DIRECTION('',(0.,0.,-1.));
#457=DIRECTION('',(-1.,0.,0.));
#458=DIRECTION('',(-1.,0.,0.));
#459=DIRECTION('',(0.,0.,1.));
#460=DIRECTION('',(1.,0.,0.));
#461=DIRECTION('',(0.,-1.,0.));
#462=DIRECTION('',(-1.,0.,0.));
#463=DIRECTION('',(0.,1.,0.));
#464=DIRECTION('',(1.,0.,0.));
#465=DIRECTION('',(0.,0.,1.));
#466=DIRECTION('',(1.,0.,0.));
#467=DIRECTION('',(1.,0.,0.));
#468=DIRECTION('',(0.,0.,-1.));
#469=DIRECTION('',(0.,0.,-1.));
#470=DIRECTION('',(0.,-1.,0.));
#471=DIRECTION('',(0.,0.,-1.));
#472=DIRECTION('',(0.,1.,0.));
#473=DIRECTION('',(0.,0.,1.));
#474=DIRECTION('',(0.,0.,-1.));
#475=DIRECTION('',(1.,0.,0.));
#476=DIRECTION('',(-1.,0.,0.));
#477=DIRECTION('',(0.,0.,1.));
#478=DIRECTION('',(0.,0.,-1.));
#479=DIRECTION('',(0.,1.,0.));
#480=DIRECTION('',(1.,0.,0.));
#481=DIRECTION('',(0.,0.,-1.));
#482=DIRECTION('',(0.,-1.,0.));
#483=DIRECTION('',(0.,0.,-1.));
#484=DIRECTION('',(0.,-1.,0.));
#485=DIRECTION('',(0.,0.,-1.));
#486=DIRECTION('',(0.,-1.,0.));
#487=DIRECTION('',(0.,0.,-1.));
#488=DIRECTION('',(-1.,0.,0.));
#489=DIRECTION('',(0.,0.,-1.));
#490=DIRECTION('',(-1.,0.,0.));
#491=DIRECTION('',(-1.,0.,0.));
#492=DIRECTION('',(0.,0.,1.));
#493=DIRECTION('',(0.,1.,0.));
#494=DIRECTION('',(0.,0.,-1.));
#495=DIRECTION('',(0.,1.,0.));
#496=DIRECTION('',(0.,1.,0.));
#497=DIRECTION('',(0.,0.,1.));
#498=DIRECTION('',(1.,0.,0.));
#499=DIRECTION('',(1.,0.,0.));
#500=DIRECTION('',(0.,-1.,0.));
#501=DIRECTION('',(0.,0.,-1.));
#502=DIRECTION('',(-1.,0.,0.));
#503=DIRECTION('',(0.,0.,1.));
#504=DIRECTION('',(1.,0.,0.));
#505=DIRECTION('',(0.,0.,1.));
#506=DIRECTION('',(1.,0.,0.));
#507=CARTESIAN_POINT('',(0.,0.,0.));
#508=CARTESIAN_POINT('',(-34.,17.,3.));
#509=CARTESIAN_POINT('',(-34.,17.,0.));
#510=CARTESIAN_POINT('',(-34.,17.,0.));
#511=CARTESIAN_POINT('',(-34.,-17.,0.));
#512=CARTESIAN_POINT('',(-34.,-17.,3.));
#513=CARTESIAN_POINT('',(-34.,-17.,3.));
#514=CARTESIAN_POINT('',(-34.,17.,3.));
#515=CARTESIAN_POINT('',(-34.,17.,3.));
#516=CARTESIAN_POINT('',(-34.,17.,3.));
#517=CARTESIAN_POINT('',(-34.,-17.,3.));
#518=CARTESIAN_POINT('',(-34.,-17.,0.));
#519=CARTESIAN_POINT('',(34.,-17.,0.));
#520=CARTESIAN_POINT('',(34.,-17.,3.));
#521=CARTESIAN_POINT('',(34.,-17.,3.));
#522=CARTESIAN_POINT('',(-34.,-17.,3.));
#523=CARTESIAN_POINT('',(34.,-17.,3.));
#524=CARTESIAN_POINT('',(34.,-17.,0.));
#525=CARTESIAN_POINT('',(34.,17.,0.));
#526=CARTESIAN_POINT('',(34.,17.,3.));
#527=CARTESIAN_POINT('',(34.,17.,3.));
#528=CARTESIAN_POINT('',(34.,-17.,3.));
#529=CARTESIAN_POINT('',(-29.,-13.,3.));
#530=CARTESIAN_POINT('',(-29.,-13.,3.));
#531=CARTESIAN_POINT('',(-27.3,-13.,3.));
#532=CARTESIAN_POINT('',(-29.,-13.,0.));
#533=CARTESIAN_POINT('',(-27.3,-13.,0.));
#534=CARTESIAN_POINT('',(-29.,13.,3.));
#535=CARTESIAN_POINT('',(-29.,13.,3.));
#536=CARTESIAN_POINT('',(-27.3,13.,3.));
#537=CARTESIAN_POINT('',(-29.,13.,0.));
#538=CARTESIAN_POINT('',(-27.3,13.,0.));
#539=CARTESIAN_POINT('',(29.,-13.,3.));
#540=CARTESIAN_POINT('',(29.,-13.,3.));
#541=CARTESIAN_POINT('',(30.7,-13.,3.));
#542=CARTESIAN_POINT('',(29.,-13.,0.));
#543=CARTESIAN_POINT('',(30.7,-13.,0.));
#544=CARTESIAN_POINT('',(29.,13.,3.));
#545=CARTESIAN_POINT('',(29.,13.,3.));
#546=CARTESIAN_POINT('',(30.7,13.,3.));
#547=CARTESIAN_POINT('',(29.,13.,0.));
#548=CARTESIAN_POINT('',(30.7,13.,0.));
#549=CARTESIAN_POINT('',(34.,17.,3.));
#550=CARTESIAN_POINT('',(34.,17.,0.));
#551=CARTESIAN_POINT('',(34.,17.,3.));
#552=CARTESIAN_POINT('',(0.,0.,3.));
#553=CARTESIAN_POINT('',(-26.,11.,3.));
#554=CARTESIAN_POINT('',(-26.,11.,3.));
#555=CARTESIAN_POINT('',(-26.,-11.,3.));
#556=CARTESIAN_POINT('',(26.,11.,3.));
#557=CARTESIAN_POINT('',(26.,11.,3.));
#558=CARTESIAN_POINT('',(26.,-11.,3.));
#559=CARTESIAN_POINT('',(26.,-11.,3.));
#560=CARTESIAN_POINT('',(-26.,-11.,3.));
#561=CARTESIAN_POINT('',(0.,0.,0.));
#562=CARTESIAN_POINT('',(-26.,11.,9.));
#563=CARTESIAN_POINT('',(-26.,-11.,9.));
#564=CARTESIAN_POINT('',(-26.,-11.,9.));
#565=CARTESIAN_POINT('',(-26.,11.,9.));
#566=CARTESIAN_POINT('',(-26.,11.,9.));
#567=CARTESIAN_POINT('',(-26.,11.,9.));
#568=CARTESIAN_POINT('',(-26.,-11.,9.));
#569=CARTESIAN_POINT('',(26.,-11.,9.));
#570=CARTESIAN_POINT('',(26.,-11.,9.));
#571=CARTESIAN_POINT('',(-26.,-11.,9.));
#572=CARTESIAN_POINT('',(26.,-11.,9.));
#573=CARTESIAN_POINT('',(26.,11.,9.));
#574=CARTESIAN_POINT('',(26.,11.,9.));
#575=CARTESIAN_POINT('',(26.,-11.,9.));
#576=CARTESIAN_POINT('',(-24.5,9.5,9.));
#577=CARTESIAN_POINT('',(-24.5,9.5,3.));
#578=CARTESIAN_POINT('',(-24.5,9.5,3.));
#579=CARTESIAN_POINT('',(-24.5,-9.5,3.));
#580=CARTESIAN_POINT('',(-24.5,9.5,9.));
#581=CARTESIAN_POINT('',(-24.5,9.5,9.));
#582=CARTESIAN_POINT('',(-24.5,9.5,9.));
#583=CARTESIAN_POINT('',(-24.5,-9.5,9.));
#584=CARTESIAN_POINT('',(-24.5,-9.5,9.));
#585=CARTESIAN_POINT('',(24.5,9.5,9.));
#586=CARTESIAN_POINT('',(24.5,9.5,3.));
#587=CARTESIAN_POINT('',(24.5,9.5,3.));
#588=CARTESIAN_POINT('',(24.5,9.5,9.));
#589=CARTESIAN_POINT('',(24.5,9.5,9.));
#590=CARTESIAN_POINT('',(24.5,9.5,9.));
#591=CARTESIAN_POINT('',(24.5,-9.5,9.));
#592=CARTESIAN_POINT('',(24.5,-9.5,3.));
#593=CARTESIAN_POINT('',(24.5,-9.5,3.));
#594=CARTESIAN_POINT('',(24.5,-9.5,9.));
#595=CARTESIAN_POINT('',(24.5,-9.5,9.));
#596=CARTESIAN_POINT('',(24.5,-9.5,9.));
#597=CARTESIAN_POINT('',(-24.5,-9.5,9.));
#598=CARTESIAN_POINT('',(-24.5,-9.5,3.));
#599=CARTESIAN_POINT('',(-24.5,-9.5,9.));
#600=CARTESIAN_POINT('',(26.,11.,9.));
#601=CARTESIAN_POINT('',(26.,11.,9.));
#602=CARTESIAN_POINT('',(0.,0.,9.));
#603=CARTESIAN_POINT('',(0.,0.,3.));
#604=MECHANICAL_DESIGN_GEOMETRIC_PRESENTATION_REPRESENTATION('',(#373),
#605);
#605=(
GEOMETRIC_REPRESENTATION_CONTEXT(3)
GLOBAL_UNCERTAINTY_ASSIGNED_CONTEXT((#606))
GLOBAL_UNIT_ASSIGNED_CONTEXT((#609,#608,#607))
REPRESENTATION_CONTEXT('B09_U2D2_service_tray',
'TOP_LEVEL_ASSEMBLY_PART')
);
#606=UNCERTAINTY_MEASURE_WITH_UNIT(LENGTH_MEASURE(0.005),#609,
'DISTANCE_ACCURACY_VALUE','Maximum Tolerance applied to model');
#607=(
NAMED_UNIT(*)
SI_UNIT($,.STERADIAN.)
SOLID_ANGLE_UNIT()
);
#608=(
NAMED_UNIT(*)
PLANE_ANGLE_UNIT()
SI_UNIT($,.RADIAN.)
);
#609=(
LENGTH_UNIT()
NAMED_UNIT(*)
SI_UNIT(.MILLI.,.METRE.)
);
#610=PRODUCT_DEFINITION_SHAPE('','',#611);
#611=PRODUCT_DEFINITION('','',#613,#612);
#612=PRODUCT_DEFINITION_CONTEXT('',#619,'design');
#613=PRODUCT_DEFINITION_FORMATION_WITH_SPECIFIED_SOURCE('','',#615,
 .NOT_KNOWN.);
#614=PRODUCT_RELATED_PRODUCT_CATEGORY('','',(#615));
#615=PRODUCT('B09_U2D2_service_tray','B09_U2D2_service_tray',
'B09_U2D2_service_tray',(#617));
#616=PRODUCT_CATEGORY('','');
#617=PRODUCT_CONTEXT('',#619,'mechanical');
#618=APPLICATION_PROTOCOL_DEFINITION('international standard',
'automotive_design',2010,#619);
#619=APPLICATION_CONTEXT(
'core data for automotive mechanical design processes');
ENDSEC;
END-ISO-10303-21;
