ISO-10303-21;
HEADER;
/* Generated by software containing ST-Developer
 * from STEP Tools, Inc. (www.steptools.com) 
 */
/* OPTION: strings as raw bytes, not using required /X/ escapes */

FILE_DESCRIPTION(
/* description */ ('Unknown'),
/* implementation_level */ '2;1');

FILE_NAME(
/* name */ 'B09b_U2D2_service_tray',
/* time_stamp */ '2026-09-23T11:58:39+08:00',
/* author */ ('Unknown'),
/* organization */ ('Unknown'),
/* preprocessor_version */ 'ST-DEVELOPER v16.7',
/* originating_system */ 'Solid Edge',
/* authorisation */ 'Unknown');

FILE_SCHEMA (('AUTOMOTIVE_DESIGN {1 0 10303 214 3 1 1}'));
ENDSEC;

DATA;
#10=PROPERTY_DEFINITION_REPRESENTATION(#14,#12);
#11=PROPERTY_DEFINITION_REPRESENTATION(#15,#13);
#12=REPRESENTATION('',(#16),#1317);
#13=REPRESENTATION('',(#17),#1317);
#14=PROPERTY_DEFINITION('pmi validation property','',#1322);
#15=PROPERTY_DEFINITION('pmi validation property','',#1322);
#16=VALUE_REPRESENTATION_ITEM('number of annotations',COUNT_MEASURE(0.));
#17=VALUE_REPRESENTATION_ITEM('number of views',COUNT_MEASURE(0.));
#18=SHAPE_REPRESENTATION_RELATIONSHIP('','',#815,#19);
#19=ADVANCED_BREP_SHAPE_REPRESENTATION('',(#813),#1317);
#20=CYLINDRICAL_SURFACE('',#838,1.7);
#21=CYLINDRICAL_SURFACE('',#840,1.7);
#22=CYLINDRICAL_SURFACE('',#842,1.7);
#23=CYLINDRICAL_SURFACE('',#844,1.7);
#24=CYLINDRICAL_SURFACE('',#858,3.5);
#25=CYLINDRICAL_SURFACE('',#859,3.5);
#26=CYLINDRICAL_SURFACE('',#870,1.7);
#27=CYLINDRICAL_SURFACE('',#881,1.7);
#28=LINE('',#1100,#110);
#29=LINE('',#1103,#111);
#30=LINE('',#1105,#112);
#31=LINE('',#1107,#113);
#32=LINE('',#1109,#114);
#33=LINE('',#1111,#115);
#34=LINE('',#1115,#116);
#35=LINE('',#1118,#117);
#36=LINE('',#1120,#118);
#37=LINE('',#1122,#119);
#38=LINE('',#1124,#120);
#39=LINE('',#1126,#121);
#40=LINE('',#1136,#122);
#41=LINE('',#1139,#123);
#42=LINE('',#1141,#124);
#43=LINE('',#1143,#125);
#44=LINE('',#1147,#126);
#45=LINE('',#1149,#127);
#46=LINE('',#1151,#128);
#47=LINE('',#1155,#129);
#48=LINE('',#1157,#130);
#49=LINE('',#1159,#131);
#50=LINE('',#1161,#132);
#51=LINE('',#1163,#133);
#52=LINE('',#1165,#134);
#53=LINE('',#1167,#135);
#54=LINE('',#1169,#136);
#55=LINE('',#1171,#137);
#56=LINE('',#1175,#138);
#57=LINE('',#1177,#139);
#58=LINE('',#1179,#140);
#59=LINE('',#1183,#141);
#60=LINE('',#1185,#142);
#61=LINE('',#1187,#143);
#62=LINE('',#1188,#144);
#63=LINE('',#1190,#145);
#64=LINE('',#1192,#146);
#65=LINE('',#1194,#147);
#66=LINE('',#1196,#148);
#67=LINE('',#1199,#149);
#68=LINE('',#1200,#150);
#69=LINE('',#1202,#151);
#70=LINE('',#1204,#152);
#71=LINE('',#1206,#153);
#72=LINE('',#1208,#154);
#73=LINE('',#1222,#155);
#74=LINE('',#1225,#156);
#75=LINE('',#1228,#157);
#76=LINE('',#1231,#158);
#77=LINE('',#1233,#159);
#78=LINE('',#1235,#160);
#79=LINE('',#1237,#161);
#80=LINE('',#1238,#162);
#81=LINE('',#1240,#163);
#82=LINE('',#1242,#164);
#83=LINE('',#1244,#165);
#84=LINE('',#1246,#166);
#85=LINE('',#1247,#167);
#86=LINE('',#1255,#168);
#87=LINE('',#1258,#169);
#88=LINE('',#1259,#170);
#89=LINE('',#1261,#171);
#90=LINE('',#1263,#172);
#91=LINE('',#1265,#173);
#92=LINE('',#1267,#174);
#93=LINE('',#1269,#175);
#94=LINE('',#1271,#176);
#95=LINE('',#1273,#177);
#96=LINE('',#1275,#178);
#97=LINE('',#1277,#179);
#98=LINE('',#1286,#180);
#99=LINE('',#1289,#181);
#100=LINE('',#1290,#182);
#101=LINE('',#1292,#183);
#102=LINE('',#1294,#184);
#103=LINE('',#1296,#185);
#104=LINE('',#1298,#186);
#105=LINE('',#1300,#187);
#106=LINE('',#1302,#188);
#107=LINE('',#1304,#189);
#108=LINE('',#1306,#190);
#109=LINE('',#1308,#191);
#110=VECTOR('',#888,1000.);
#111=VECTOR('',#889,1000.);
#112=VECTOR('',#890,1000.);
#113=VECTOR('',#891,1000.);
#114=VECTOR('',#892,1000.);
#115=VECTOR('',#893,1000.);
#116=VECTOR('',#898,1000.);
#117=VECTOR('',#899,1000.);
#118=VECTOR('',#900,1000.);
#119=VECTOR('',#901,1000.);
#120=VECTOR('',#902,1000.);
#121=VECTOR('',#903,1000.);
#122=VECTOR('',#914,1000.);
#123=VECTOR('',#915,1000.);
#124=VECTOR('',#916,1000.);
#125=VECTOR('',#917,1000.);
#126=VECTOR('',#920,1000.);
#127=VECTOR('',#921,1000.);
#128=VECTOR('',#922,1000.);
#129=VECTOR('',#925,1000.);
#130=VECTOR('',#926,1000.);
#131=VECTOR('',#927,1000.);
#132=VECTOR('',#930,1000.);
#133=VECTOR('',#931,1000.);
#134=VECTOR('',#932,1000.);
#135=VECTOR('',#935,1000.);
#136=VECTOR('',#936,1000.);
#137=VECTOR('',#937,1000.);
#138=VECTOR('',#942,1000.);
#139=VECTOR('',#943,1000.);
#140=VECTOR('',#944,1000.);
#141=VECTOR('',#947,1000.);
#142=VECTOR('',#948,1000.);
#143=VECTOR('',#951,1000.);
#144=VECTOR('',#952,1000.);
#145=VECTOR('',#955,1000.);
#146=VECTOR('',#956,1000.);
#147=VECTOR('',#957,1000.);
#148=VECTOR('',#960,1000.);
#149=VECTOR('',#961,1000.);
#150=VECTOR('',#962,1000.);
#151=VECTOR('',#965,1000.);
#152=VECTOR('',#966,1000.);
#153=VECTOR('',#969,1000.);
#154=VECTOR('',#970,1000.);
#155=VECTOR('',#989,1000.);
#156=VECTOR('',#994,1000.);
#157=VECTOR('',#999,1000.);
#158=VECTOR('',#1000,1000.);
#159=VECTOR('',#1001,1000.);
#160=VECTOR('',#1002,1000.);
#161=VECTOR('',#1005,1000.);
#162=VECTOR('',#1006,1000.);
#163=VECTOR('',#1007,1000.);
#164=VECTOR('',#1010,1000.);
#165=VECTOR('',#1011,1000.);
#166=VECTOR('',#1014,1000.);
#167=VECTOR('',#1015,1000.);
#168=VECTOR('',#1030,1000.);
#169=VECTOR('',#1031,1000.);
#170=VECTOR('',#1032,1000.);
#171=VECTOR('',#1035,1000.);
#172=VECTOR('',#1036,1000.);
#173=VECTOR('',#1039,1000.);
#174=VECTOR('',#1040,1000.);
#175=VECTOR('',#1043,1000.);
#176=VECTOR('',#1044,1000.);
#177=VECTOR('',#1047,1000.);
#178=VECTOR('',#1048,1000.);
#179=VECTOR('',#1051,1000.);
#180=VECTOR('',#1064,1000.);
#181=VECTOR('',#1065,1000.);
#182=VECTOR('',#1066,1000.);
#183=VECTOR('',#1069,1000.);
#184=VECTOR('',#1070,1000.);
#185=VECTOR('',#1073,1000.);
#186=VECTOR('',#1074,1000.);
#187=VECTOR('',#1077,1000.);
#188=VECTOR('',#1078,1000.);
#189=VECTOR('',#1081,1000.);
#190=VECTOR('',#1082,1000.);
#191=VECTOR('',#1085,1000.);
#192=ORIENTED_EDGE('',*,*,#396,.T.);
#193=ORIENTED_EDGE('',*,*,#397,.F.);
#194=ORIENTED_EDGE('',*,*,#398,.F.);
#195=ORIENTED_EDGE('',*,*,#399,.F.);
#196=ORIENTED_EDGE('',*,*,#400,.F.);
#197=ORIENTED_EDGE('',*,*,#401,.F.);
#198=ORIENTED_EDGE('',*,*,#402,.F.);
#199=ORIENTED_EDGE('',*,*,#403,.T.);
#200=ORIENTED_EDGE('',*,*,#404,.F.);
#201=ORIENTED_EDGE('',*,*,#405,.F.);
#202=ORIENTED_EDGE('',*,*,#406,.F.);
#203=ORIENTED_EDGE('',*,*,#407,.F.);
#204=ORIENTED_EDGE('',*,*,#408,.F.);
#205=ORIENTED_EDGE('',*,*,#409,.F.);
#206=ORIENTED_EDGE('',*,*,#410,.F.);
#207=ORIENTED_EDGE('',*,*,#411,.F.);
#208=ORIENTED_EDGE('',*,*,#412,.F.);
#209=ORIENTED_EDGE('',*,*,#413,.F.);
#210=ORIENTED_EDGE('',*,*,#414,.T.);
#211=ORIENTED_EDGE('',*,*,#415,.T.);
#212=ORIENTED_EDGE('',*,*,#416,.T.);
#213=ORIENTED_EDGE('',*,*,#417,.T.);
#214=ORIENTED_EDGE('',*,*,#418,.F.);
#215=ORIENTED_EDGE('',*,*,#419,.F.);
#216=ORIENTED_EDGE('',*,*,#420,.F.);
#217=ORIENTED_EDGE('',*,*,#421,.F.);
#218=ORIENTED_EDGE('',*,*,#422,.F.);
#219=ORIENTED_EDGE('',*,*,#423,.F.);
#220=ORIENTED_EDGE('',*,*,#424,.F.);
#221=ORIENTED_EDGE('',*,*,#425,.F.);
#222=ORIENTED_EDGE('',*,*,#426,.F.);
#223=ORIENTED_EDGE('',*,*,#425,.T.);
#224=ORIENTED_EDGE('',*,*,#427,.F.);
#225=ORIENTED_EDGE('',*,*,#428,.F.);
#226=ORIENTED_EDGE('',*,*,#429,.F.);
#227=ORIENTED_EDGE('',*,*,#430,.F.);
#228=ORIENTED_EDGE('',*,*,#431,.T.);
#229=ORIENTED_EDGE('',*,*,#419,.T.);
#230=ORIENTED_EDGE('',*,*,#430,.T.);
#231=ORIENTED_EDGE('',*,*,#432,.T.);
#232=ORIENTED_EDGE('',*,*,#433,.F.);
#233=ORIENTED_EDGE('',*,*,#434,.F.);
#234=ORIENTED_EDGE('',*,*,#435,.F.);
#235=ORIENTED_EDGE('',*,*,#436,.T.);
#236=ORIENTED_EDGE('',*,*,#437,.T.);
#237=ORIENTED_EDGE('',*,*,#438,.T.);
#238=ORIENTED_EDGE('',*,*,#439,.F.);
#239=ORIENTED_EDGE('',*,*,#421,.T.);
#240=ORIENTED_EDGE('',*,*,#440,.F.);
#241=ORIENTED_EDGE('',*,*,#437,.F.);
#242=ORIENTED_EDGE('',*,*,#441,.F.);
#243=ORIENTED_EDGE('',*,*,#442,.F.);
#244=ORIENTED_EDGE('',*,*,#443,.T.);
#245=ORIENTED_EDGE('',*,*,#423,.T.);
#246=ORIENTED_EDGE('',*,*,#444,.T.);
#247=ORIENTED_EDGE('',*,*,#445,.F.);
#248=ORIENTED_EDGE('',*,*,#414,.F.);
#249=ORIENTED_EDGE('',*,*,#446,.T.);
#250=ORIENTED_EDGE('',*,*,#447,.T.);
#251=ORIENTED_EDGE('',*,*,#448,.F.);
#252=ORIENTED_EDGE('',*,*,#415,.F.);
#253=ORIENTED_EDGE('',*,*,#445,.T.);
#254=ORIENTED_EDGE('',*,*,#449,.T.);
#255=ORIENTED_EDGE('',*,*,#450,.F.);
#256=ORIENTED_EDGE('',*,*,#416,.F.);
#257=ORIENTED_EDGE('',*,*,#448,.T.);
#258=ORIENTED_EDGE('',*,*,#413,.T.);
#259=ORIENTED_EDGE('',*,*,#451,.F.);
#260=ORIENTED_EDGE('',*,*,#412,.T.);
#261=ORIENTED_EDGE('',*,*,#452,.F.);
#262=ORIENTED_EDGE('',*,*,#411,.T.);
#263=ORIENTED_EDGE('',*,*,#453,.F.);
#264=ORIENTED_EDGE('',*,*,#410,.T.);
#265=ORIENTED_EDGE('',*,*,#454,.F.);
#266=ORIENTED_EDGE('',*,*,#455,.T.);
#267=ORIENTED_EDGE('',*,*,#446,.F.);
#268=ORIENTED_EDGE('',*,*,#417,.F.);
#269=ORIENTED_EDGE('',*,*,#450,.T.);
#270=ORIENTED_EDGE('',*,*,#454,.T.);
#271=ORIENTED_EDGE('',*,*,#453,.T.);
#272=ORIENTED_EDGE('',*,*,#452,.T.);
#273=ORIENTED_EDGE('',*,*,#451,.T.);
#274=ORIENTED_EDGE('',*,*,#444,.F.);
#275=ORIENTED_EDGE('',*,*,#455,.F.);
#276=ORIENTED_EDGE('',*,*,#449,.F.);
#277=ORIENTED_EDGE('',*,*,#447,.F.);
#278=ORIENTED_EDGE('',*,*,#424,.T.);
#279=ORIENTED_EDGE('',*,*,#443,.F.);
#280=ORIENTED_EDGE('',*,*,#456,.F.);
#281=ORIENTED_EDGE('',*,*,#427,.T.);
#282=ORIENTED_EDGE('',*,*,#420,.T.);
#283=ORIENTED_EDGE('',*,*,#431,.F.);
#284=ORIENTED_EDGE('',*,*,#438,.F.);
#285=ORIENTED_EDGE('',*,*,#440,.T.);
#286=ORIENTED_EDGE('',*,*,#457,.F.);
#287=ORIENTED_EDGE('',*,*,#458,.F.);
#288=ORIENTED_EDGE('',*,*,#459,.T.);
#289=ORIENTED_EDGE('',*,*,#460,.T.);
#290=ORIENTED_EDGE('',*,*,#433,.T.);
#291=ORIENTED_EDGE('',*,*,#461,.T.);
#292=ORIENTED_EDGE('',*,*,#458,.T.);
#293=ORIENTED_EDGE('',*,*,#462,.F.);
#294=ORIENTED_EDGE('',*,*,#463,.F.);
#295=ORIENTED_EDGE('',*,*,#464,.F.);
#296=ORIENTED_EDGE('',*,*,#465,.F.);
#297=ORIENTED_EDGE('',*,*,#434,.T.);
#298=ORIENTED_EDGE('',*,*,#463,.T.);
#299=ORIENTED_EDGE('',*,*,#466,.T.);
#300=ORIENTED_EDGE('',*,*,#435,.T.);
#301=ORIENTED_EDGE('',*,*,#465,.T.);
#302=ORIENTED_EDGE('',*,*,#467,.F.);
#303=ORIENTED_EDGE('',*,*,#460,.F.);
#304=ORIENTED_EDGE('',*,*,#461,.F.);
#305=ORIENTED_EDGE('',*,*,#468,.T.);
#306=ORIENTED_EDGE('',*,*,#428,.T.);
#307=ORIENTED_EDGE('',*,*,#456,.T.);
#308=ORIENTED_EDGE('',*,*,#442,.T.);
#309=ORIENTED_EDGE('',*,*,#469,.T.);
#310=ORIENTED_EDGE('',*,*,#466,.F.);
#311=ORIENTED_EDGE('',*,*,#459,.F.);
#312=ORIENTED_EDGE('',*,*,#462,.T.);
#313=ORIENTED_EDGE('',*,*,#457,.T.);
#314=ORIENTED_EDGE('',*,*,#467,.T.);
#315=ORIENTED_EDGE('',*,*,#464,.T.);
#316=ORIENTED_EDGE('',*,*,#403,.F.);
#317=ORIENTED_EDGE('',*,*,#422,.T.);
#318=ORIENTED_EDGE('',*,*,#439,.T.);
#319=ORIENTED_EDGE('',*,*,#436,.F.);
#320=ORIENTED_EDGE('',*,*,#469,.F.);
#321=ORIENTED_EDGE('',*,*,#441,.T.);
#322=ORIENTED_EDGE('',*,*,#396,.F.);
#323=ORIENTED_EDGE('',*,*,#418,.T.);
#324=ORIENTED_EDGE('',*,*,#426,.T.);
#325=ORIENTED_EDGE('',*,*,#468,.F.);
#326=ORIENTED_EDGE('',*,*,#432,.F.);
#327=ORIENTED_EDGE('',*,*,#429,.T.);
#328=ORIENTED_EDGE('',*,*,#470,.F.);
#329=ORIENTED_EDGE('',*,*,#471,.F.);
#330=ORIENTED_EDGE('',*,*,#405,.T.);
#331=ORIENTED_EDGE('',*,*,#472,.T.);
#332=ORIENTED_EDGE('',*,*,#473,.F.);
#333=ORIENTED_EDGE('',*,*,#472,.F.);
#334=ORIENTED_EDGE('',*,*,#404,.T.);
#335=ORIENTED_EDGE('',*,*,#474,.T.);
#336=ORIENTED_EDGE('',*,*,#475,.F.);
#337=ORIENTED_EDGE('',*,*,#474,.F.);
#338=ORIENTED_EDGE('',*,*,#409,.T.);
#339=ORIENTED_EDGE('',*,*,#476,.T.);
#340=ORIENTED_EDGE('',*,*,#477,.F.);
#341=ORIENTED_EDGE('',*,*,#476,.F.);
#342=ORIENTED_EDGE('',*,*,#408,.T.);
#343=ORIENTED_EDGE('',*,*,#478,.T.);
#344=ORIENTED_EDGE('',*,*,#479,.F.);
#345=ORIENTED_EDGE('',*,*,#478,.F.);
#346=ORIENTED_EDGE('',*,*,#407,.T.);
#347=ORIENTED_EDGE('',*,*,#480,.T.);
#348=ORIENTED_EDGE('',*,*,#481,.F.);
#349=ORIENTED_EDGE('',*,*,#480,.F.);
#350=ORIENTED_EDGE('',*,*,#406,.T.);
#351=ORIENTED_EDGE('',*,*,#471,.T.);
#352=ORIENTED_EDGE('',*,*,#482,.F.);
#353=ORIENTED_EDGE('',*,*,#470,.T.);
#354=ORIENTED_EDGE('',*,*,#473,.T.);
#355=ORIENTED_EDGE('',*,*,#475,.T.);
#356=ORIENTED_EDGE('',*,*,#477,.T.);
#357=ORIENTED_EDGE('',*,*,#479,.T.);
#358=ORIENTED_EDGE('',*,*,#481,.T.);
#359=ORIENTED_EDGE('',*,*,#483,.F.);
#360=ORIENTED_EDGE('',*,*,#483,.T.);
#361=ORIENTED_EDGE('',*,*,#482,.T.);
#362=ORIENTED_EDGE('',*,*,#484,.F.);
#363=ORIENTED_EDGE('',*,*,#485,.F.);
#364=ORIENTED_EDGE('',*,*,#398,.T.);
#365=ORIENTED_EDGE('',*,*,#486,.T.);
#366=ORIENTED_EDGE('',*,*,#487,.F.);
#367=ORIENTED_EDGE('',*,*,#486,.F.);
#368=ORIENTED_EDGE('',*,*,#397,.T.);
#369=ORIENTED_EDGE('',*,*,#488,.T.);
#370=ORIENTED_EDGE('',*,*,#489,.F.);
#371=ORIENTED_EDGE('',*,*,#488,.F.);
#372=ORIENTED_EDGE('',*,*,#402,.T.);
#373=ORIENTED_EDGE('',*,*,#490,.T.);
#374=ORIENTED_EDGE('',*,*,#491,.F.);
#375=ORIENTED_EDGE('',*,*,#490,.F.);
#376=ORIENTED_EDGE('',*,*,#401,.T.);
#377=ORIENTED_EDGE('',*,*,#492,.T.);
#378=ORIENTED_EDGE('',*,*,#493,.F.);
#379=ORIENTED_EDGE('',*,*,#492,.F.);
#380=ORIENTED_EDGE('',*,*,#400,.T.);
#381=ORIENTED_EDGE('',*,*,#494,.T.);
#382=ORIENTED_EDGE('',*,*,#495,.F.);
#383=ORIENTED_EDGE('',*,*,#494,.F.);
#384=ORIENTED_EDGE('',*,*,#399,.T.);
#385=ORIENTED_EDGE('',*,*,#485,.T.);
#386=ORIENTED_EDGE('',*,*,#496,.F.);
#387=ORIENTED_EDGE('',*,*,#484,.T.);
#388=ORIENTED_EDGE('',*,*,#487,.T.);
#389=ORIENTED_EDGE('',*,*,#489,.T.);
#390=ORIENTED_EDGE('',*,*,#491,.T.);
#391=ORIENTED_EDGE('',*,*,#493,.T.);
#392=ORIENTED_EDGE('',*,*,#495,.T.);
#393=ORIENTED_EDGE('',*,*,#497,.F.);
#394=ORIENTED_EDGE('',*,*,#497,.T.);
#395=ORIENTED_EDGE('',*,*,#496,.T.);
#396=EDGE_CURVE('',#498,#498,#570,.T.);
#397=EDGE_CURVE('',#499,#500,#28,.T.);
#398=EDGE_CURVE('',#501,#499,#29,.T.);
#399=EDGE_CURVE('',#502,#501,#30,.T.);
#400=EDGE_CURVE('',#503,#502,#31,.T.);
#401=EDGE_CURVE('',#504,#503,#32,.T.);
#402=EDGE_CURVE('',#500,#504,#33,.T.);
#403=EDGE_CURVE('',#505,#505,#571,.T.);
#404=EDGE_CURVE('',#506,#507,#34,.T.);
#405=EDGE_CURVE('',#508,#506,#35,.T.);
#406=EDGE_CURVE('',#509,#508,#36,.T.);
#407=EDGE_CURVE('',#510,#509,#37,.T.);
#408=EDGE_CURVE('',#511,#510,#38,.T.);
#409=EDGE_CURVE('',#507,#511,#39,.T.);
#410=EDGE_CURVE('',#512,#512,#572,.T.);
#411=EDGE_CURVE('',#513,#513,#573,.T.);
#412=EDGE_CURVE('',#514,#514,#574,.T.);
#413=EDGE_CURVE('',#515,#515,#575,.T.);
#414=EDGE_CURVE('',#516,#517,#40,.T.);
#415=EDGE_CURVE('',#517,#518,#41,.T.);
#416=EDGE_CURVE('',#518,#519,#42,.T.);
#417=EDGE_CURVE('',#519,#516,#43,.T.);
#418=EDGE_CURVE('',#520,#521,#576,.T.);
#419=EDGE_CURVE('',#522,#520,#44,.T.);
#420=EDGE_CURVE('',#523,#522,#45,.T.);
#421=EDGE_CURVE('',#524,#523,#46,.T.);
#422=EDGE_CURVE('',#525,#524,#577,.T.);
#423=EDGE_CURVE('',#526,#525,#47,.T.);
#424=EDGE_CURVE('',#527,#526,#48,.T.);
#425=EDGE_CURVE('',#521,#527,#49,.T.);
#426=EDGE_CURVE('',#521,#528,#50,.F.);
#427=EDGE_CURVE('',#529,#527,#51,.T.);
#428=EDGE_CURVE('',#528,#529,#52,.T.);
#429=EDGE_CURVE('',#530,#520,#53,.T.);
#430=EDGE_CURVE('',#531,#530,#54,.T.);
#431=EDGE_CURVE('',#531,#522,#55,.T.);
#432=EDGE_CURVE('',#530,#532,#578,.F.);
#433=EDGE_CURVE('',#533,#532,#56,.T.);
#434=EDGE_CURVE('',#534,#533,#57,.T.);
#435=EDGE_CURVE('',#535,#534,#58,.T.);
#436=EDGE_CURVE('',#535,#536,#579,.F.);
#437=EDGE_CURVE('',#536,#537,#59,.T.);
#438=EDGE_CURVE('',#537,#531,#60,.T.);
#439=EDGE_CURVE('',#524,#536,#61,.F.);
#440=EDGE_CURVE('',#537,#523,#62,.T.);
#441=EDGE_CURVE('',#538,#525,#63,.T.);
#442=EDGE_CURVE('',#539,#538,#64,.T.);
#443=EDGE_CURVE('',#539,#526,#65,.T.);
#444=EDGE_CURVE('',#540,#541,#66,.T.);
#445=EDGE_CURVE('',#517,#541,#67,.T.);
#446=EDGE_CURVE('',#516,#540,#68,.T.);
#447=EDGE_CURVE('',#541,#542,#69,.T.);
#448=EDGE_CURVE('',#518,#542,#70,.T.);
#449=EDGE_CURVE('',#542,#543,#71,.T.);
#450=EDGE_CURVE('',#519,#543,#72,.T.);
#451=EDGE_CURVE('',#544,#544,#580,.T.);
#452=EDGE_CURVE('',#545,#545,#581,.T.);
#453=EDGE_CURVE('',#546,#546,#582,.T.);
#454=EDGE_CURVE('',#547,#547,#583,.T.);
#455=EDGE_CURVE('',#543,#540,#73,.T.);
#456=EDGE_CURVE('',#529,#539,#74,.T.);
#457=EDGE_CURVE('',#548,#549,#75,.T.);
#458=EDGE_CURVE('',#550,#548,#76,.T.);
#459=EDGE_CURVE('',#550,#551,#77,.T.);
#460=EDGE_CURVE('',#551,#549,#78,.T.);
#461=EDGE_CURVE('',#532,#550,#79,.T.);
#462=EDGE_CURVE('',#552,#548,#80,.T.);
#463=EDGE_CURVE('',#533,#552,#81,.T.);
#464=EDGE_CURVE('',#553,#552,#82,.T.);
#465=EDGE_CURVE('',#534,#553,#83,.T.);
#466=EDGE_CURVE('',#551,#535,#84,.T.);
#467=EDGE_CURVE('',#549,#553,#85,.T.);
#468=EDGE_CURVE('',#532,#528,#584,.F.);
#469=EDGE_CURVE('',#538,#535,#585,.F.);
#470=EDGE_CURVE('',#554,#555,#86,.T.);
#471=EDGE_CURVE('',#508,#554,#87,.T.);
#472=EDGE_CURVE('',#506,#555,#88,.T.);
#473=EDGE_CURVE('',#555,#556,#89,.T.);
#474=EDGE_CURVE('',#507,#556,#90,.T.);
#475=EDGE_CURVE('',#556,#557,#91,.T.);
#476=EDGE_CURVE('',#511,#557,#92,.T.);
#477=EDGE_CURVE('',#557,#558,#93,.T.);
#478=EDGE_CURVE('',#510,#558,#94,.T.);
#479=EDGE_CURVE('',#558,#559,#95,.T.);
#480=EDGE_CURVE('',#509,#559,#96,.T.);
#481=EDGE_CURVE('',#559,#554,#97,.T.);
#482=EDGE_CURVE('',#560,#560,#586,.T.);
#483=EDGE_CURVE('',#561,#561,#587,.F.);
#484=EDGE_CURVE('',#562,#563,#98,.T.);
#485=EDGE_CURVE('',#501,#562,#99,.T.);
#486=EDGE_CURVE('',#499,#563,#100,.T.);
#487=EDGE_CURVE('',#563,#564,#101,.T.);
#488=EDGE_CURVE('',#500,#564,#102,.T.);
#489=EDGE_CURVE('',#564,#565,#103,.T.);
#490=EDGE_CURVE('',#504,#565,#104,.T.);
#491=EDGE_CURVE('',#565,#566,#105,.T.);
#492=EDGE_CURVE('',#503,#566,#106,.T.);
#493=EDGE_CURVE('',#566,#567,#107,.T.);
#494=EDGE_CURVE('',#502,#567,#108,.T.);
#495=EDGE_CURVE('',#567,#562,#109,.T.);
#496=EDGE_CURVE('',#568,#568,#588,.T.);
#497=EDGE_CURVE('',#569,#569,#589,.F.);
#498=VERTEX_POINT('',#1099);
#499=VERTEX_POINT('',#1101);
#500=VERTEX_POINT('',#1102);
#501=VERTEX_POINT('',#1104);
#502=VERTEX_POINT('',#1106);
#503=VERTEX_POINT('',#1108);
#504=VERTEX_POINT('',#1110);
#505=VERTEX_POINT('',#1114);
#506=VERTEX_POINT('',#1116);
#507=VERTEX_POINT('',#1117);
#508=VERTEX_POINT('',#1119);
#509=VERTEX_POINT('',#1121);
#510=VERTEX_POINT('',#1123);
#511=VERTEX_POINT('',#1125);
#512=VERTEX_POINT('',#1129);
#513=VERTEX_POINT('',#1131);
#514=VERTEX_POINT('',#1133);
#515=VERTEX_POINT('',#1135);
#516=VERTEX_POINT('',#1137);
#517=VERTEX_POINT('',#1138);
#518=VERTEX_POINT('',#1140);
#519=VERTEX_POINT('',#1142);
#520=VERTEX_POINT('',#1145);
#521=VERTEX_POINT('',#1146);
#522=VERTEX_POINT('',#1148);
#523=VERTEX_POINT('',#1150);
#524=VERTEX_POINT('',#1152);
#525=VERTEX_POINT('',#1154);
#526=VERTEX_POINT('',#1156);
#527=VERTEX_POINT('',#1158);
#528=VERTEX_POINT('',#1162);
#529=VERTEX_POINT('',#1164);
#530=VERTEX_POINT('',#1168);
#531=VERTEX_POINT('',#1170);
#532=VERTEX_POINT('',#1174);
#533=VERTEX_POINT('',#1176);
#534=VERTEX_POINT('',#1178);
#535=VERTEX_POINT('',#1180);
#536=VERTEX_POINT('',#1182);
#537=VERTEX_POINT('',#1184);
#538=VERTEX_POINT('',#1191);
#539=VERTEX_POINT('',#1193);
#540=VERTEX_POINT('',#1197);
#541=VERTEX_POINT('',#1198);
#542=VERTEX_POINT('',#1203);
#543=VERTEX_POINT('',#1207);
#544=VERTEX_POINT('',#1211);
#545=VERTEX_POINT('',#1214);
#546=VERTEX_POINT('',#1217);
#547=VERTEX_POINT('',#1220);
#548=VERTEX_POINT('',#1229);
#549=VERTEX_POINT('',#1230);
#550=VERTEX_POINT('',#1232);
#551=VERTEX_POINT('',#1234);
#552=VERTEX_POINT('',#1239);
#553=VERTEX_POINT('',#1243);
#554=VERTEX_POINT('',#1256);
#555=VERTEX_POINT('',#1257);
#556=VERTEX_POINT('',#1262);
#557=VERTEX_POINT('',#1266);
#558=VERTEX_POINT('',#1270);
#559=VERTEX_POINT('',#1274);
#560=VERTEX_POINT('',#1280);
#561=VERTEX_POINT('',#1283);
#562=VERTEX_POINT('',#1287);
#563=VERTEX_POINT('',#1288);
#564=VERTEX_POINT('',#1293);
#565=VERTEX_POINT('',#1297);
#566=VERTEX_POINT('',#1301);
#567=VERTEX_POINT('',#1305);
#568=VERTEX_POINT('',#1311);
#569=VERTEX_POINT('',#1314);
#570=CIRCLE('',#818,3.5);
#571=CIRCLE('',#820,3.5);
#572=CIRCLE('',#822,1.7);
#573=CIRCLE('',#823,1.7);
#574=CIRCLE('',#824,1.7);
#575=CIRCLE('',#825,1.7);
#576=CIRCLE('',#826,3.5);
#577=CIRCLE('',#827,3.5);
#578=CIRCLE('',#831,3.5);
#579=CIRCLE('',#832,3.5);
#580=CIRCLE('',#839,1.7);
#581=CIRCLE('',#841,1.7);
#582=CIRCLE('',#843,1.7);
#583=CIRCLE('',#845,1.7);
#584=CIRCLE('',#855,3.5);
#585=CIRCLE('',#856,3.5);
#586=CIRCLE('',#867,1.7);
#587=CIRCLE('',#869,1.7);
#588=CIRCLE('',#878,1.7);
#589=CIRCLE('',#880,1.7);
#590=EDGE_LOOP('',(#192));
#591=EDGE_LOOP('',(#193,#194,#195,#196,#197,#198));
#592=EDGE_LOOP('',(#199));
#593=EDGE_LOOP('',(#200,#201,#202,#203,#204,#205));
#594=EDGE_LOOP('',(#206));
#595=EDGE_LOOP('',(#207));
#596=EDGE_LOOP('',(#208));
#597=EDGE_LOOP('',(#209));
#598=EDGE_LOOP('',(#210,#211,#212,#213));
#599=EDGE_LOOP('',(#214,#215,#216,#217,#218,#219,#220,#221));
#600=EDGE_LOOP('',(#222,#223,#224,#225));
#601=EDGE_LOOP('',(#226,#227,#228,#229));
#602=EDGE_LOOP('',(#230,#231,#232,#233,#234,#235,#236,#237));
#603=EDGE_LOOP('',(#238,#239,#240,#241));
#604=EDGE_LOOP('',(#242,#243,#244,#245));
#605=EDGE_LOOP('',(#246,#247,#248,#249));
#606=EDGE_LOOP('',(#250,#251,#252,#253));
#607=EDGE_LOOP('',(#254,#255,#256,#257));
#608=EDGE_LOOP('',(#258));
#609=EDGE_LOOP('',(#259));
#610=EDGE_LOOP('',(#260));
#611=EDGE_LOOP('',(#261));
#612=EDGE_LOOP('',(#262));
#613=EDGE_LOOP('',(#263));
#614=EDGE_LOOP('',(#264));
#615=EDGE_LOOP('',(#265));
#616=EDGE_LOOP('',(#266,#267,#268,#269));
#617=EDGE_LOOP('',(#270));
#618=EDGE_LOOP('',(#271));
#619=EDGE_LOOP('',(#272));
#620=EDGE_LOOP('',(#273));
#621=EDGE_LOOP('',(#274,#275,#276,#277));
#622=EDGE_LOOP('',(#278,#279,#280,#281));
#623=EDGE_LOOP('',(#282,#283,#284,#285));
#624=EDGE_LOOP('',(#286,#287,#288,#289));
#625=EDGE_LOOP('',(#290,#291,#292,#293,#294));
#626=EDGE_LOOP('',(#295,#296,#297,#298));
#627=EDGE_LOOP('',(#299,#300,#301,#302,#303));
#628=EDGE_LOOP('',(#304,#305,#306,#307,#308,#309,#310,#311));
#629=EDGE_LOOP('',(#312,#313,#314,#315));
#630=EDGE_LOOP('',(#316));
#631=EDGE_LOOP('',(#317,#318,#319,#320,#321));
#632=EDGE_LOOP('',(#322));
#633=EDGE_LOOP('',(#323,#324,#325,#326,#327));
#634=EDGE_LOOP('',(#328,#329,#330,#331));
#635=EDGE_LOOP('',(#332,#333,#334,#335));
#636=EDGE_LOOP('',(#336,#337,#338,#339));
#637=EDGE_LOOP('',(#340,#341,#342,#343));
#638=EDGE_LOOP('',(#344,#345,#346,#347));
#639=EDGE_LOOP('',(#348,#349,#350,#351));
#640=EDGE_LOOP('',(#352));
#641=EDGE_LOOP('',(#353,#354,#355,#356,#357,#358));
#642=EDGE_LOOP('',(#359));
#643=EDGE_LOOP('',(#360));
#644=EDGE_LOOP('',(#361));
#645=EDGE_LOOP('',(#362,#363,#364,#365));
#646=EDGE_LOOP('',(#366,#367,#368,#369));
#647=EDGE_LOOP('',(#370,#371,#372,#373));
#648=EDGE_LOOP('',(#374,#375,#376,#377));
#649=EDGE_LOOP('',(#378,#379,#380,#381));
#650=EDGE_LOOP('',(#382,#383,#384,#385));
#651=EDGE_LOOP('',(#386));
#652=EDGE_LOOP('',(#387,#388,#389,#390,#391,#392));
#653=EDGE_LOOP('',(#393));
#654=EDGE_LOOP('',(#394));
#655=EDGE_LOOP('',(#395));
#656=FACE_BOUND('',#590,.T.);
#657=FACE_BOUND('',#591,.T.);
#658=FACE_BOUND('',#592,.T.);
#659=FACE_BOUND('',#593,.T.);
#660=FACE_BOUND('',#594,.T.);
#661=FACE_BOUND('',#595,.T.);
#662=FACE_BOUND('',#596,.T.);
#663=FACE_BOUND('',#597,.T.);
#664=FACE_BOUND('',#598,.T.);
#665=FACE_BOUND('',#599,.T.);
#666=FACE_BOUND('',#600,.T.);
#667=FACE_BOUND('',#601,.T.);
#668=FACE_BOUND('',#602,.T.);
#669=FACE_BOUND('',#603,.T.);
#670=FACE_BOUND('',#604,.T.);
#671=FACE_BOUND('',#605,.T.);
#672=FACE_BOUND('',#606,.T.);
#673=FACE_BOUND('',#607,.T.);
#674=FACE_BOUND('',#608,.T.);
#675=FACE_BOUND('',#609,.T.);
#676=FACE_BOUND('',#610,.T.);
#677=FACE_BOUND('',#611,.T.);
#678=FACE_BOUND('',#612,.T.);
#679=FACE_BOUND('',#613,.T.);
#680=FACE_BOUND('',#614,.T.);
#681=FACE_BOUND('',#615,.T.);
#682=FACE_BOUND('',#616,.T.);
#683=FACE_BOUND('',#617,.T.);
#684=FACE_BOUND('',#618,.T.);
#685=FACE_BOUND('',#619,.T.);
#686=FACE_BOUND('',#620,.T.);
#687=FACE_BOUND('',#621,.T.);
#688=FACE_BOUND('',#622,.T.);
#689=FACE_BOUND('',#623,.T.);
#690=FACE_BOUND('',#624,.T.);
#691=FACE_BOUND('',#625,.T.);
#692=FACE_BOUND('',#626,.T.);
#693=FACE_BOUND('',#627,.T.);
#694=FACE_BOUND('',#628,.T.);
#695=FACE_BOUND('',#629,.T.);
#696=FACE_BOUND('',#630,.T.);
#697=FACE_BOUND('',#631,.T.);
#698=FACE_BOUND('',#632,.T.);
#699=FACE_BOUND('',#633,.T.);
#700=FACE_BOUND('',#634,.T.);
#701=FACE_BOUND('',#635,.T.);
#702=FACE_BOUND('',#636,.T.);
#703=FACE_BOUND('',#637,.T.);
#704=FACE_BOUND('',#638,.T.);
#705=FACE_BOUND('',#639,.T.);
#706=FACE_BOUND('',#640,.T.);
#707=FACE_BOUND('',#641,.T.);
#708=FACE_BOUND('',#642,.T.);
#709=FACE_BOUND('',#643,.T.);
#710=FACE_BOUND('',#644,.T.);
#711=FACE_BOUND('',#645,.T.);
#712=FACE_BOUND('',#646,.T.);
#713=FACE_BOUND('',#647,.T.);
#714=FACE_BOUND('',#648,.T.);
#715=FACE_BOUND('',#649,.T.);
#716=FACE_BOUND('',#650,.T.);
#717=FACE_BOUND('',#651,.T.);
#718=FACE_BOUND('',#652,.T.);
#719=FACE_BOUND('',#653,.T.);
#720=FACE_BOUND('',#654,.T.);
#721=FACE_BOUND('',#655,.T.);
#722=PLANE('',#817);
#723=PLANE('',#819);
#724=PLANE('',#821);
#725=PLANE('',#828);
#726=PLANE('',#829);
#727=PLANE('',#830);
#728=PLANE('',#833);
#729=PLANE('',#834);
#730=PLANE('',#835);
#731=PLANE('',#836);
#732=PLANE('',#837);
#733=PLANE('',#846);
#734=PLANE('',#847);
#735=PLANE('',#848);
#736=PLANE('',#849);
#737=PLANE('',#850);
#738=PLANE('',#851);
#739=PLANE('',#852);
#740=PLANE('',#853);
#741=PLANE('',#854);
#742=PLANE('',#857);
#743=PLANE('',#860);
#744=PLANE('',#861);
#745=PLANE('',#862);
#746=PLANE('',#863);
#747=PLANE('',#864);
#748=PLANE('',#865);
#749=PLANE('',#866);
#750=PLANE('',#868);
#751=PLANE('',#871);
#752=PLANE('',#872);
#753=PLANE('',#873);
#754=PLANE('',#874);
#755=PLANE('',#875);
#756=PLANE('',#876);
#757=PLANE('',#877);
#758=PLANE('',#879);
#759=ADVANCED_FACE('',(#656,#657),#722,.T.);
#760=ADVANCED_FACE('',(#658,#659),#723,.T.);
#761=ADVANCED_FACE('',(#660,#661,#662,#663,#664,#665),#724,.T.);
#762=ADVANCED_FACE('',(#666),#725,.F.);
#763=ADVANCED_FACE('',(#667),#726,.F.);
#764=ADVANCED_FACE('',(#668),#727,.T.);
#765=ADVANCED_FACE('',(#669),#728,.F.);
#766=ADVANCED_FACE('',(#670),#729,.F.);
#767=ADVANCED_FACE('',(#671),#730,.F.);
#768=ADVANCED_FACE('',(#672),#731,.F.);
#769=ADVANCED_FACE('',(#673),#732,.F.);
#770=ADVANCED_FACE('',(#674,#675),#20,.F.);
#771=ADVANCED_FACE('',(#676,#677),#21,.F.);
#772=ADVANCED_FACE('',(#678,#679),#22,.F.);
#773=ADVANCED_FACE('',(#680,#681),#23,.F.);
#774=ADVANCED_FACE('',(#682),#733,.F.);
#775=ADVANCED_FACE('',(#683,#684,#685,#686,#687),#734,.F.);
#776=ADVANCED_FACE('',(#688),#735,.F.);
#777=ADVANCED_FACE('',(#689),#736,.F.);
#778=ADVANCED_FACE('',(#690),#737,.T.);
#779=ADVANCED_FACE('',(#691),#738,.T.);
#780=ADVANCED_FACE('',(#692),#739,.T.);
#781=ADVANCED_FACE('',(#693),#740,.T.);
#782=ADVANCED_FACE('',(#694),#741,.T.);
#783=ADVANCED_FACE('',(#695),#742,.T.);
#784=ADVANCED_FACE('',(#696,#697),#24,.T.);
#785=ADVANCED_FACE('',(#698,#699),#25,.T.);
#786=ADVANCED_FACE('',(#700),#743,.T.);
#787=ADVANCED_FACE('',(#701),#744,.T.);
#788=ADVANCED_FACE('',(#702),#745,.T.);
#789=ADVANCED_FACE('',(#703),#746,.T.);
#790=ADVANCED_FACE('',(#704),#747,.T.);
#791=ADVANCED_FACE('',(#705),#748,.T.);
#792=ADVANCED_FACE('',(#706,#707),#749,.T.);
#793=ADVANCED_FACE('',(#708),#750,.T.);
#794=ADVANCED_FACE('',(#709,#710),#26,.F.);
#795=ADVANCED_FACE('',(#711),#751,.T.);
#796=ADVANCED_FACE('',(#712),#752,.T.);
#797=ADVANCED_FACE('',(#713),#753,.T.);
#798=ADVANCED_FACE('',(#714),#754,.T.);
#799=ADVANCED_FACE('',(#715),#755,.T.);
#800=ADVANCED_FACE('',(#716),#756,.T.);
#801=ADVANCED_FACE('',(#717,#718),#757,.T.);
#802=ADVANCED_FACE('',(#719),#758,.T.);
#803=ADVANCED_FACE('',(#720,#721),#27,.F.);
#804=CLOSED_SHELL('',(#759,#760,#761,#762,#763,#764,#765,#766,#767,#768,
#769,#770,#771,#772,#773,#774,#775,#776,#777,#778,#779,#780,#781,#782,#783,
#784,#785,#786,#787,#788,#789,#790,#791,#792,#793,#794,#795,#796,#797,#798,
#799,#800,#801,#802,#803));
#805=STYLED_ITEM('',(#806),#813);
#806=PRESENTATION_STYLE_ASSIGNMENT((#807));
#807=SURFACE_STYLE_USAGE(.BOTH.,#808);
#808=SURFACE_SIDE_STYLE('',(#809));
#809=SURFACE_STYLE_FILL_AREA(#810);
#810=FILL_AREA_STYLE('',(#811));
#811=FILL_AREA_STYLE_COLOUR('',#812);
#812=COLOUR_RGB('',0.100000001490116,0.349999994039536,0.280000001192093);
#813=MANIFOLD_SOLID_BREP('',#804);
#814=SHAPE_DEFINITION_REPRESENTATION(#1322,#815);
#815=SHAPE_REPRESENTATION('B09b_U2D2_service_tray',(#816),#1317);
#816=AXIS2_PLACEMENT_3D('',#1096,#882,#883);
#817=AXIS2_PLACEMENT_3D('',#1097,#884,#885);
#818=AXIS2_PLACEMENT_3D('',#1098,#886,#887);
#819=AXIS2_PLACEMENT_3D('',#1112,#894,#895);
#820=AXIS2_PLACEMENT_3D('',#1113,#896,#897);
#821=AXIS2_PLACEMENT_3D('',#1127,#904,#905);
#822=AXIS2_PLACEMENT_3D('',#1128,#906,#907);
#823=AXIS2_PLACEMENT_3D('',#1130,#908,#909);
#824=AXIS2_PLACEMENT_3D('',#1132,#910,#911);
#825=AXIS2_PLACEMENT_3D('',#1134,#912,#913);
#826=AXIS2_PLACEMENT_3D('',#1144,#918,#919);
#827=AXIS2_PLACEMENT_3D('',#1153,#923,#924);
#828=AXIS2_PLACEMENT_3D('',#1160,#928,#929);
#829=AXIS2_PLACEMENT_3D('',#1166,#933,#934);
#830=AXIS2_PLACEMENT_3D('',#1172,#938,#939);
#831=AXIS2_PLACEMENT_3D('',#1173,#940,#941);
#832=AXIS2_PLACEMENT_3D('',#1181,#945,#946);
#833=AXIS2_PLACEMENT_3D('',#1186,#949,#950);
#834=AXIS2_PLACEMENT_3D('',#1189,#953,#954);
#835=AXIS2_PLACEMENT_3D('',#1195,#958,#959);
#836=AXIS2_PLACEMENT_3D('',#1201,#963,#964);
#837=AXIS2_PLACEMENT_3D('',#1205,#967,#968);
#838=AXIS2_PLACEMENT_3D('',#1209,#971,#972);
#839=AXIS2_PLACEMENT_3D('',#1210,#973,#974);
#840=AXIS2_PLACEMENT_3D('',#1212,#975,#976);
#841=AXIS2_PLACEMENT_3D('',#1213,#977,#978);
#842=AXIS2_PLACEMENT_3D('',#1215,#979,#980);
#843=AXIS2_PLACEMENT_3D('',#1216,#981,#982);
#844=AXIS2_PLACEMENT_3D('',#1218,#983,#984);
#845=AXIS2_PLACEMENT_3D('',#1219,#985,#986);
#846=AXIS2_PLACEMENT_3D('',#1221,#987,#988);
#847=AXIS2_PLACEMENT_3D('',#1223,#990,#991);
#848=AXIS2_PLACEMENT_3D('',#1224,#992,#993);
#849=AXIS2_PLACEMENT_3D('',#1226,#995,#996);
#850=AXIS2_PLACEMENT_3D('',#1227,#997,#998);
#851=AXIS2_PLACEMENT_3D('',#1236,#1003,#1004);
#852=AXIS2_PLACEMENT_3D('',#1241,#1008,#1009);
#853=AXIS2_PLACEMENT_3D('',#1245,#1012,#1013);
#854=AXIS2_PLACEMENT_3D('',#1248,#1016,#1017);
#855=AXIS2_PLACEMENT_3D('',#1249,#1018,#1019);
#856=AXIS2_PLACEMENT_3D('',#1250,#1020,#1021);
#857=AXIS2_PLACEMENT_3D('',#1251,#1022,#1023);
#858=AXIS2_PLACEMENT_3D('',#1252,#1024,#1025);
#859=AXIS2_PLACEMENT_3D('',#1253,#1026,#1027);
#860=AXIS2_PLACEMENT_3D('',#1254,#1028,#1029);
#861=AXIS2_PLACEMENT_3D('',#1260,#1033,#1034);
#862=AXIS2_PLACEMENT_3D('',#1264,#1037,#1038);
#863=AXIS2_PLACEMENT_3D('',#1268,#1041,#1042);
#864=AXIS2_PLACEMENT_3D('',#1272,#1045,#1046);
#865=AXIS2_PLACEMENT_3D('',#1276,#1049,#1050);
#866=AXIS2_PLACEMENT_3D('',#1278,#1052,#1053);
#867=AXIS2_PLACEMENT_3D('',#1279,#1054,#1055);
#868=AXIS2_PLACEMENT_3D('',#1281,#1056,#1057);
#869=AXIS2_PLACEMENT_3D('',#1282,#1058,#1059);
#870=AXIS2_PLACEMENT_3D('',#1284,#1060,#1061);
#871=AXIS2_PLACEMENT_3D('',#1285,#1062,#1063);
#872=AXIS2_PLACEMENT_3D('',#1291,#1067,#1068);
#873=AXIS2_PLACEMENT_3D('',#1295,#1071,#1072);
#874=AXIS2_PLACEMENT_3D('',#1299,#1075,#1076);
#875=AXIS2_PLACEMENT_3D('',#1303,#1079,#1080);
#876=AXIS2_PLACEMENT_3D('',#1307,#1083,#1084);
#877=AXIS2_PLACEMENT_3D('',#1309,#1086,#1087);
#878=AXIS2_PLACEMENT_3D('',#1310,#1088,#1089);
#879=AXIS2_PLACEMENT_3D('',#1312,#1090,#1091);
#880=AXIS2_PLACEMENT_3D('',#1313,#1092,#1093);
#881=AXIS2_PLACEMENT_3D('',#1315,#1094,#1095);
#882=DIRECTION('',(0.,0.,1.));
#883=DIRECTION('',(1.,0.,0.));
#884=DIRECTION('',(0.,0.,1.));
#885=DIRECTION('',(1.,0.,0.));
#886=DIRECTION('',(0.,0.,1.));
#887=DIRECTION('',(1.,0.,0.));
#888=DIRECTION('',(-0.5,0.866025403784439,0.));
#889=DIRECTION('',(0.5,0.866025403784439,0.));
#890=DIRECTION('',(1.,-5.18039516805917E-16,0.));
#891=DIRECTION('',(0.5,-0.866025403784439,0.));
#892=DIRECTION('',(-0.5,-0.866025403784439,0.));
#893=DIRECTION('',(-1.,0.,0.));
#894=DIRECTION('',(0.,0.,1.));
#895=DIRECTION('',(1.,0.,0.));
#896=DIRECTION('',(0.,0.,1.));
#897=DIRECTION('',(1.,0.,0.));
#898=DIRECTION('',(-0.5,0.866025403784439,0.));
#899=DIRECTION('',(0.5,0.866025403784439,0.));
#900=DIRECTION('',(1.,-1.03607903361183E-15,0.));
#901=DIRECTION('',(0.5,-0.866025403784439,0.));
#902=DIRECTION('',(-0.5,-0.866025403784439,0.));
#903=DIRECTION('',(-1.,0.,0.));
#904=DIRECTION('',(0.,0.,1.));
#905=DIRECTION('',(1.,0.,0.));
#906=DIRECTION('',(0.,0.,1.));
#907=DIRECTION('',(1.,0.,0.));
#908=DIRECTION('',(0.,0.,1.));
#909=DIRECTION('',(1.,0.,0.));
#910=DIRECTION('',(0.,0.,1.));
#911=DIRECTION('',(1.,0.,0.));
#912=DIRECTION('',(0.,0.,1.));
#913=DIRECTION('',(1.,0.,0.));
#914=DIRECTION('',(0.,-1.,0.));
#915=DIRECTION('',(1.,0.,0.));
#916=DIRECTION('',(0.,1.,0.));
#917=DIRECTION('',(-1.,0.,0.));
#918=DIRECTION('',(0.,0.,1.));
#919=DIRECTION('',(1.,0.,0.));
#920=DIRECTION('',(-1.,0.,0.));
#921=DIRECTION('',(0.,1.,0.));
#922=DIRECTION('',(1.,0.,0.));
#923=DIRECTION('',(0.,0.,1.));
#924=DIRECTION('',(1.,0.,0.));
#925=DIRECTION('',(1.,0.,0.));
#926=DIRECTION('',(0.,-1.,0.));
#927=DIRECTION('',(-1.,0.,0.));
#928=DIRECTION('',(0.,-1.,0.));
#929=DIRECTION('',(0.,0.,-1.));
#930=DIRECTION('',(0.,0.,-1.));
#931=DIRECTION('',(0.,0.,-1.));
#932=DIRECTION('',(-1.,0.,0.));
#933=DIRECTION('',(0.,-1.,0.));
#934=DIRECTION('',(0.,0.,-1.));
#935=DIRECTION('',(0.,0.,-1.));
#936=DIRECTION('',(-1.,0.,0.));
#937=DIRECTION('',(0.,0.,-1.));
#938=DIRECTION('',(0.,0.,1.));
#939=DIRECTION('',(1.,0.,0.));
#940=DIRECTION('',(0.,0.,1.));
#941=DIRECTION('',(1.,0.,0.));
#942=DIRECTION('',(-1.,0.,0.));
#943=DIRECTION('',(0.,1.,0.));
#944=DIRECTION('',(1.,0.,0.));
#945=DIRECTION('',(0.,0.,1.));
#946=DIRECTION('',(1.,0.,0.));
#947=DIRECTION('',(1.,0.,0.));
#948=DIRECTION('',(0.,1.,0.));
#949=DIRECTION('',(0.,1.,0.));
#950=DIRECTION('',(0.,0.,1.));
#951=DIRECTION('',(0.,0.,-1.));
#952=DIRECTION('',(0.,0.,-1.));
#953=DIRECTION('',(0.,1.,0.));
#954=DIRECTION('',(0.,0.,1.));
#955=DIRECTION('',(0.,0.,-1.));
#956=DIRECTION('',(1.,0.,0.));
#957=DIRECTION('',(0.,0.,-1.));
#958=DIRECTION('',(1.,0.,0.));
#959=DIRECTION('',(0.,0.,-1.));
#960=DIRECTION('',(0.,-1.,0.));
#961=DIRECTION('',(0.,0.,-1.));
#962=DIRECTION('',(0.,0.,-1.));
#963=DIRECTION('',(0.,1.,0.));
#964=DIRECTION('',(0.,0.,1.));
#965=DIRECTION('',(1.,0.,0.));
#966=DIRECTION('',(0.,0.,-1.));
#967=DIRECTION('',(-1.,0.,0.));
#968=DIRECTION('',(0.,0.,1.));
#969=DIRECTION('',(0.,1.,0.));
#970=DIRECTION('',(0.,0.,-1.));
#971=DIRECTION('',(0.,0.,-1.));
#972=DIRECTION('',(-1.,0.,0.));
#973=DIRECTION('',(0.,0.,1.));
#974=DIRECTION('',(1.,0.,0.));
#975=DIRECTION('',(0.,0.,-1.));
#976=DIRECTION('',(-1.,0.,0.));
#977=DIRECTION('',(0.,0.,1.));
#978=DIRECTION('',(1.,0.,0.));
#979=DIRECTION('',(0.,0.,-1.));
#980=DIRECTION('',(-1.,0.,0.));
#981=DIRECTION('',(0.,0.,1.));
#982=DIRECTION('',(1.,0.,0.));
#983=DIRECTION('',(0.,0.,-1.));
#984=DIRECTION('',(-1.,0.,0.));
#985=DIRECTION('',(0.,0.,1.));
#986=DIRECTION('',(1.,0.,0.));
#987=DIRECTION('',(0.,-1.,0.));
#988=DIRECTION('',(0.,0.,-1.));
#989=DIRECTION('',(-1.,0.,0.));
#990=DIRECTION('',(0.,0.,1.));
#991=DIRECTION('',(1.,0.,0.));
#992=DIRECTION('',(1.,0.,0.));
#993=DIRECTION('',(0.,0.,-1.));
#994=DIRECTION('',(0.,-1.,0.));
#995=DIRECTION('',(-1.,0.,0.));
#996=DIRECTION('',(0.,0.,1.));
#997=DIRECTION('',(1.,0.,0.));
#998=DIRECTION('',(0.,0.,-1.));
#999=DIRECTION('',(0.,-1.,0.));
#1000=DIRECTION('',(0.,0.,-1.));
#1001=DIRECTION('',(0.,-1.,0.));
#1002=DIRECTION('',(0.,0.,-1.));
#1003=DIRECTION('',(0.,-1.,0.));
#1004=DIRECTION('',(0.,0.,-1.));
#1005=DIRECTION('',(-1.,0.,0.));
#1006=DIRECTION('',(-1.,0.,0.));
#1007=DIRECTION('',(0.,0.,-1.));
#1008=DIRECTION('',(-1.,0.,0.));
#1009=DIRECTION('',(0.,0.,1.));
#1010=DIRECTION('',(0.,1.,0.));
#1011=DIRECTION('',(0.,0.,-1.));
#1012=DIRECTION('',(0.,1.,0.));
#1013=DIRECTION('',(0.,0.,1.));
#1014=DIRECTION('',(1.,0.,0.));
#1015=DIRECTION('',(1.,0.,0.));
#1016=DIRECTION('',(0.,0.,1.));
#1017=DIRECTION('',(1.,0.,0.));
#1018=DIRECTION('',(0.,0.,1.));
#1019=DIRECTION('',(1.,0.,0.));
#1020=DIRECTION('',(0.,0.,1.));
#1021=DIRECTION('',(1.,0.,0.));
#1022=DIRECTION('',(0.,0.,1.));
#1023=DIRECTION('',(1.,0.,0.));
#1024=DIRECTION('',(0.,0.,-1.));
#1025=DIRECTION('',(-1.,0.,0.));
#1026=DIRECTION('',(0.,0.,-1.));
#1027=DIRECTION('',(-1.,0.,0.));
#1028=DIRECTION('',(-0.866025403784439,0.5,0.));
#1029=DIRECTION('',(-0.5,-0.866025403784439,0.));
#1030=DIRECTION('',(0.5,0.866025403784439,0.));
#1031=DIRECTION('',(0.,0.,-1.));
#1032=DIRECTION('',(0.,0.,-1.));
#1033=DIRECTION('',(-0.866025403784439,-0.5,0.));
#1034=DIRECTION('',(0.5,-0.866025403784439,0.));
#1035=DIRECTION('',(-0.5,0.866025403784439,0.));
#1036=DIRECTION('',(0.,0.,-1.));
#1037=DIRECTION('',(0.,-1.,0.));
#1038=DIRECTION('',(0.,0.,-1.));
#1039=DIRECTION('',(-1.,0.,0.));
#1040=DIRECTION('',(0.,0.,-1.));
#1041=DIRECTION('',(0.866025403784438,-0.5,0.));
#1042=DIRECTION('',(0.5,0.866025403784439,0.));
#1043=DIRECTION('',(-0.5,-0.866025403784439,0.));
#1044=DIRECTION('',(0.,0.,-1.));
#1045=DIRECTION('',(0.866025403784439,0.5,0.));
#1046=DIRECTION('',(-0.5,0.866025403784439,0.));
#1047=DIRECTION('',(0.5,-0.866025403784439,0.));
#1048=DIRECTION('',(0.,0.,-1.));
#1049=DIRECTION('',(1.03607903361183E-15,1.,0.));
#1050=DIRECTION('',(-1.,1.03607903361183E-15,0.));
#1051=DIRECTION('',(1.,-1.03607903361183E-15,0.));
#1052=DIRECTION('',(0.,0.,1.));
#1053=DIRECTION('',(1.,0.,0.));
#1054=DIRECTION('',(0.,0.,1.));
#1055=DIRECTION('',(1.,0.,0.));
#1056=DIRECTION('',(0.,0.,1.));
#1057=DIRECTION('',(1.,0.,0.));
#1058=DIRECTION('',(0.,0.,1.));
#1059=DIRECTION('',(1.,0.,0.));
#1060=DIRECTION('',(0.,0.,-1.));
#1061=DIRECTION('',(-1.,0.,0.));
#1062=DIRECTION('',(-0.866025403784439,0.5,0.));
#1063=DIRECTION('',(-0.5,-0.866025403784439,0.));
#1064=DIRECTION('',(0.5,0.866025403784439,0.));
#1065=DIRECTION('',(0.,0.,-1.));
#1066=DIRECTION('',(0.,0.,-1.));
#1067=DIRECTION('',(-0.866025403784439,-0.5,0.));
#1068=DIRECTION('',(0.5,-0.866025403784439,0.));
#1069=DIRECTION('',(-0.5,0.866025403784439,0.));
#1070=DIRECTION('',(0.,0.,-1.));
#1071=DIRECTION('',(0.,-1.,0.));
#1072=DIRECTION('',(0.,0.,-1.));
#1073=DIRECTION('',(-1.,0.,0.));
#1074=DIRECTION('',(0.,0.,-1.));
#1075=DIRECTION('',(0.866025403784439,-0.5,0.));
#1076=DIRECTION('',(0.5,0.866025403784439,0.));
#1077=DIRECTION('',(-0.5,-0.866025403784439,0.));
#1078=DIRECTION('',(0.,0.,-1.));
#1079=DIRECTION('',(0.866025403784439,0.5,0.));
#1080=DIRECTION('',(-0.5,0.866025403784439,0.));
#1081=DIRECTION('',(0.5,-0.866025403784439,0.));
#1082=DIRECTION('',(0.,0.,-1.));
#1083=DIRECTION('',(5.18039516805917E-16,1.,0.));
#1084=DIRECTION('',(-1.,5.18039516805917E-16,0.));
#1085=DIRECTION('',(1.,-5.18039516805917E-16,0.));
#1086=DIRECTION('',(0.,0.,1.));
#1087=DIRECTION('',(1.,0.,0.));
#1088=DIRECTION('',(0.,0.,1.));
#1089=DIRECTION('',(1.,0.,0.));
#1090=DIRECTION('',(0.,0.,1.));
#1091=DIRECTION('',(1.,0.,0.));
#1092=DIRECTION('',(0.,0.,1.));
#1093=DIRECTION('',(1.,0.,0.));
#1094=DIRECTION('',(0.,0.,-1.));
#1095=DIRECTION('',(-1.,0.,0.));
#1096=CARTESIAN_POINT('',(0.,0.,0.));
#1097=CARTESIAN_POINT('',(0.,13.,18.9));
#1098=CARTESIAN_POINT('',(0.,13.,18.9));
#1099=CARTESIAN_POINT('',(3.5,13.,18.9));
#1100=CARTESIAN_POINT('',(3.34863156129983,13.,18.9));
#1101=CARTESIAN_POINT('',(3.34863156129983,13.,18.9));
#1102=CARTESIAN_POINT('',(1.67431578064992,15.9,18.9));
#1103=CARTESIAN_POINT('',(1.67431578064992,10.1,18.9));
#1104=CARTESIAN_POINT('',(1.67431578064992,10.1,18.9));
#1105=CARTESIAN_POINT('',(-1.67431578064992,10.1,18.9));
#1106=CARTESIAN_POINT('',(-1.67431578064992,10.1,18.9));
#1107=CARTESIAN_POINT('',(-3.34863156129983,13.,18.9));
#1108=CARTESIAN_POINT('',(-3.34863156129983,13.,18.9));
#1109=CARTESIAN_POINT('',(-1.67431578064991,15.9,18.9));
#1110=CARTESIAN_POINT('',(-1.67431578064991,15.9,18.9));
#1111=CARTESIAN_POINT('',(1.67431578064992,15.9,18.9));
#1112=CARTESIAN_POINT('',(0.,-13.,18.9));
#1113=CARTESIAN_POINT('',(0.,-13.,18.9));
#1114=CARTESIAN_POINT('',(3.5,-13.,18.9));
#1115=CARTESIAN_POINT('',(3.34863156129983,-13.,18.9));
#1116=CARTESIAN_POINT('',(3.34863156129983,-13.,18.9));
#1117=CARTESIAN_POINT('',(1.67431578064992,-10.1,18.9));
#1118=CARTESIAN_POINT('',(1.67431578064992,-15.9,18.9));
#1119=CARTESIAN_POINT('',(1.67431578064992,-15.9,18.9));
#1120=CARTESIAN_POINT('',(-1.67431578064992,-15.9,18.9));
#1121=CARTESIAN_POINT('',(-1.67431578064992,-15.9,18.9));
#1122=CARTESIAN_POINT('',(-3.34863156129983,-13.,18.9));
#1123=CARTESIAN_POINT('',(-3.34863156129983,-13.,18.9));
#1124=CARTESIAN_POINT('',(-1.67431578064991,-10.1,18.9));
#1125=CARTESIAN_POINT('',(-1.67431578064991,-10.1,18.9));
#1126=CARTESIAN_POINT('',(1.67431578064992,-10.1,18.9));
#1127=CARTESIAN_POINT('',(0.,0.,3.));
#1128=CARTESIAN_POINT('',(29.,13.,3.));
#1129=CARTESIAN_POINT('',(30.7,13.,3.));
#1130=CARTESIAN_POINT('',(29.,-13.,3.));
#1131=CARTESIAN_POINT('',(30.7,-13.,3.));
#1132=CARTESIAN_POINT('',(-29.,13.,3.));
#1133=CARTESIAN_POINT('',(-27.3,13.,3.));
#1134=CARTESIAN_POINT('',(-29.,-13.,3.));
#1135=CARTESIAN_POINT('',(-27.3,-13.,3.));
#1136=CARTESIAN_POINT('',(-34.,17.,3.));
#1137=CARTESIAN_POINT('',(-34.,17.,3.));
#1138=CARTESIAN_POINT('',(-34.,-17.,3.));
#1139=CARTESIAN_POINT('',(-34.,-17.,3.));
#1140=CARTESIAN_POINT('',(34.,-17.,3.));
#1141=CARTESIAN_POINT('',(34.,-17.,3.));
#1142=CARTESIAN_POINT('',(34.,17.,3.));
#1143=CARTESIAN_POINT('',(34.,17.,3.));
#1144=CARTESIAN_POINT('',(0.,13.,3.));
#1145=CARTESIAN_POINT('',(2.87228132326901,11.,3.));
#1146=CARTESIAN_POINT('',(-2.87228132326901,11.,3.));
#1147=CARTESIAN_POINT('',(26.,11.,3.));
#1148=CARTESIAN_POINT('',(26.,11.,3.));
#1149=CARTESIAN_POINT('',(26.,-11.,3.));
#1150=CARTESIAN_POINT('',(26.,-11.,3.));
#1151=CARTESIAN_POINT('',(-26.,-11.,3.));
#1152=CARTESIAN_POINT('',(2.87228132326901,-11.,3.));
#1153=CARTESIAN_POINT('',(0.,-13.,3.));
#1154=CARTESIAN_POINT('',(-2.87228132326901,-11.,3.));
#1155=CARTESIAN_POINT('',(-26.,-11.,3.));
#1156=CARTESIAN_POINT('',(-26.,-11.,3.));
#1157=CARTESIAN_POINT('',(-26.,11.,3.));
#1158=CARTESIAN_POINT('',(-26.,11.,3.));
#1159=CARTESIAN_POINT('',(26.,11.,3.));
#1160=CARTESIAN_POINT('',(26.,11.,9.));
#1161=CARTESIAN_POINT('',(-2.87228132326901,11.,18.9));
#1162=CARTESIAN_POINT('',(-2.87228132326901,11.,9.));
#1163=CARTESIAN_POINT('',(-26.,11.,9.));
#1164=CARTESIAN_POINT('',(-26.,11.,9.));
#1165=CARTESIAN_POINT('',(26.,11.,9.));
#1166=CARTESIAN_POINT('',(26.,11.,9.));
#1167=CARTESIAN_POINT('',(2.87228132326901,11.,18.9));
#1168=CARTESIAN_POINT('',(2.87228132326901,11.,9.));
#1169=CARTESIAN_POINT('',(26.,11.,9.));
#1170=CARTESIAN_POINT('',(26.,11.,9.));
#1171=CARTESIAN_POINT('',(26.,11.,9.));
#1172=CARTESIAN_POINT('',(0.,0.,9.));
#1173=CARTESIAN_POINT('',(0.,13.,9.));
#1174=CARTESIAN_POINT('',(0.,9.5,9.));
#1175=CARTESIAN_POINT('',(24.5,9.5,9.));
#1176=CARTESIAN_POINT('',(24.5,9.5,9.));
#1177=CARTESIAN_POINT('',(24.5,-9.5,9.));
#1178=CARTESIAN_POINT('',(24.5,-9.5,9.));
#1179=CARTESIAN_POINT('',(-24.5,-9.5,9.));
#1180=CARTESIAN_POINT('',(0.,-9.5,9.));
#1181=CARTESIAN_POINT('',(0.,-13.,9.));
#1182=CARTESIAN_POINT('',(2.87228132326901,-11.,9.));
#1183=CARTESIAN_POINT('',(-26.,-11.,9.));
#1184=CARTESIAN_POINT('',(26.,-11.,9.));
#1185=CARTESIAN_POINT('',(26.,-11.,9.));
#1186=CARTESIAN_POINT('',(-26.,-11.,9.));
#1187=CARTESIAN_POINT('',(2.87228132326901,-11.,18.9));
#1188=CARTESIAN_POINT('',(26.,-11.,9.));
#1189=CARTESIAN_POINT('',(-26.,-11.,9.));
#1190=CARTESIAN_POINT('',(-2.87228132326901,-11.,18.9));
#1191=CARTESIAN_POINT('',(-2.87228132326901,-11.,9.));
#1192=CARTESIAN_POINT('',(-26.,-11.,9.));
#1193=CARTESIAN_POINT('',(-26.,-11.,9.));
#1194=CARTESIAN_POINT('',(-26.,-11.,9.));
#1195=CARTESIAN_POINT('',(-34.,17.,3.));
#1196=CARTESIAN_POINT('',(-34.,17.,0.));
#1197=CARTESIAN_POINT('',(-34.,17.,0.));
#1198=CARTESIAN_POINT('',(-34.,-17.,0.));
#1199=CARTESIAN_POINT('',(-34.,-17.,3.));
#1200=CARTESIAN_POINT('',(-34.,17.,3.));
#1201=CARTESIAN_POINT('',(-34.,-17.,3.));
#1202=CARTESIAN_POINT('',(-34.,-17.,0.));
#1203=CARTESIAN_POINT('',(34.,-17.,0.));
#1204=CARTESIAN_POINT('',(34.,-17.,3.));
#1205=CARTESIAN_POINT('',(34.,-17.,3.));
#1206=CARTESIAN_POINT('',(34.,-17.,0.));
#1207=CARTESIAN_POINT('',(34.,17.,0.));
#1208=CARTESIAN_POINT('',(34.,17.,3.));
#1209=CARTESIAN_POINT('',(-29.,-13.,3.));
#1210=CARTESIAN_POINT('',(-29.,-13.,0.));
#1211=CARTESIAN_POINT('',(-27.3,-13.,0.));
#1212=CARTESIAN_POINT('',(-29.,13.,3.));
#1213=CARTESIAN_POINT('',(-29.,13.,0.));
#1214=CARTESIAN_POINT('',(-27.3,13.,0.));
#1215=CARTESIAN_POINT('',(29.,-13.,3.));
#1216=CARTESIAN_POINT('',(29.,-13.,0.));
#1217=CARTESIAN_POINT('',(30.7,-13.,0.));
#1218=CARTESIAN_POINT('',(29.,13.,3.));
#1219=CARTESIAN_POINT('',(29.,13.,0.));
#1220=CARTESIAN_POINT('',(30.7,13.,0.));
#1221=CARTESIAN_POINT('',(34.,17.,3.));
#1222=CARTESIAN_POINT('',(34.,17.,0.));
#1223=CARTESIAN_POINT('',(0.,0.,0.));
#1224=CARTESIAN_POINT('',(-26.,11.,9.));
#1225=CARTESIAN_POINT('',(-26.,11.,9.));
#1226=CARTESIAN_POINT('',(26.,-11.,9.));
#1227=CARTESIAN_POINT('',(-24.5,9.5,9.));
#1228=CARTESIAN_POINT('',(-24.5,9.5,3.));
#1229=CARTESIAN_POINT('',(-24.5,9.5,3.));
#1230=CARTESIAN_POINT('',(-24.5,-9.5,3.));
#1231=CARTESIAN_POINT('',(-24.5,9.5,9.));
#1232=CARTESIAN_POINT('',(-24.5,9.5,9.));
#1233=CARTESIAN_POINT('',(-24.5,9.5,9.));
#1234=CARTESIAN_POINT('',(-24.5,-9.5,9.));
#1235=CARTESIAN_POINT('',(-24.5,-9.5,9.));
#1236=CARTESIAN_POINT('',(24.5,9.5,9.));
#1237=CARTESIAN_POINT('',(24.5,9.5,9.));
#1238=CARTESIAN_POINT('',(24.5,9.5,3.));
#1239=CARTESIAN_POINT('',(24.5,9.5,3.));
#1240=CARTESIAN_POINT('',(24.5,9.5,9.));
#1241=CARTESIAN_POINT('',(24.5,-9.5,9.));
#1242=CARTESIAN_POINT('',(24.5,-9.5,3.));
#1243=CARTESIAN_POINT('',(24.5,-9.5,3.));
#1244=CARTESIAN_POINT('',(24.5,-9.5,9.));
#1245=CARTESIAN_POINT('',(-24.5,-9.5,9.));
#1246=CARTESIAN_POINT('',(-24.5,-9.5,9.));
#1247=CARTESIAN_POINT('',(-24.5,-9.5,3.));
#1248=CARTESIAN_POINT('',(0.,0.,9.));
#1249=CARTESIAN_POINT('',(0.,13.,9.));
#1250=CARTESIAN_POINT('',(0.,-13.,9.));
#1251=CARTESIAN_POINT('',(0.,0.,3.));
#1252=CARTESIAN_POINT('',(0.,-13.,18.9));
#1253=CARTESIAN_POINT('',(0.,13.,18.9));
#1254=CARTESIAN_POINT('',(1.67431578064992,-15.9,18.9));
#1255=CARTESIAN_POINT('',(1.67431578064992,-15.9,16.2));
#1256=CARTESIAN_POINT('',(1.67431578064992,-15.9,16.2));
#1257=CARTESIAN_POINT('',(3.34863156129983,-13.,16.2));
#1258=CARTESIAN_POINT('',(1.67431578064992,-15.9,18.9));
#1259=CARTESIAN_POINT('',(3.34863156129983,-13.,18.9));
#1260=CARTESIAN_POINT('',(3.34863156129983,-13.,18.9));
#1261=CARTESIAN_POINT('',(3.34863156129983,-13.,16.2));
#1262=CARTESIAN_POINT('',(1.67431578064992,-10.1,16.2));
#1263=CARTESIAN_POINT('',(1.67431578064992,-10.1,18.9));
#1264=CARTESIAN_POINT('',(1.67431578064992,-10.1,18.9));
#1265=CARTESIAN_POINT('',(1.67431578064992,-10.1,16.2));
#1266=CARTESIAN_POINT('',(-1.67431578064991,-10.1,16.2));
#1267=CARTESIAN_POINT('',(-1.67431578064991,-10.1,18.9));
#1268=CARTESIAN_POINT('',(-1.67431578064991,-10.1,18.9));
#1269=CARTESIAN_POINT('',(-1.67431578064991,-10.1,16.2));
#1270=CARTESIAN_POINT('',(-3.34863156129983,-13.,16.2));
#1271=CARTESIAN_POINT('',(-3.34863156129983,-13.,18.9));
#1272=CARTESIAN_POINT('',(-3.34863156129983,-13.,18.9));
#1273=CARTESIAN_POINT('',(-3.34863156129983,-13.,16.2));
#1274=CARTESIAN_POINT('',(-1.67431578064992,-15.9,16.2));
#1275=CARTESIAN_POINT('',(-1.67431578064992,-15.9,18.9));
#1276=CARTESIAN_POINT('',(-1.67431578064992,-15.9,18.9));
#1277=CARTESIAN_POINT('',(-1.67431578064992,-15.9,16.2));
#1278=CARTESIAN_POINT('',(0.,0.,16.2));
#1279=CARTESIAN_POINT('',(0.,-13.,16.2));
#1280=CARTESIAN_POINT('',(1.7,-13.,16.2));
#1281=CARTESIAN_POINT('',(0.,0.,3.));
#1282=CARTESIAN_POINT('',(0.,-13.,3.));
#1283=CARTESIAN_POINT('',(1.7,-13.,3.));
#1284=CARTESIAN_POINT('',(0.,-13.,18.9));
#1285=CARTESIAN_POINT('',(1.67431578064992,10.1,18.9));
#1286=CARTESIAN_POINT('',(1.67431578064992,10.1,16.2));
#1287=CARTESIAN_POINT('',(1.67431578064992,10.1,16.2));
#1288=CARTESIAN_POINT('',(3.34863156129983,13.,16.2));
#1289=CARTESIAN_POINT('',(1.67431578064992,10.1,18.9));
#1290=CARTESIAN_POINT('',(3.34863156129983,13.,18.9));
#1291=CARTESIAN_POINT('',(3.34863156129983,13.,18.9));
#1292=CARTESIAN_POINT('',(3.34863156129983,13.,16.2));
#1293=CARTESIAN_POINT('',(1.67431578064992,15.9,16.2));
#1294=CARTESIAN_POINT('',(1.67431578064992,15.9,18.9));
#1295=CARTESIAN_POINT('',(1.67431578064992,15.9,18.9));
#1296=CARTESIAN_POINT('',(1.67431578064992,15.9,16.2));
#1297=CARTESIAN_POINT('',(-1.67431578064991,15.9,16.2));
#1298=CARTESIAN_POINT('',(-1.67431578064991,15.9,18.9));
#1299=CARTESIAN_POINT('',(-1.67431578064991,15.9,18.9));
#1300=CARTESIAN_POINT('',(-1.67431578064991,15.9,16.2));
#1301=CARTESIAN_POINT('',(-3.34863156129983,13.,16.2));
#1302=CARTESIAN_POINT('',(-3.34863156129983,13.,18.9));
#1303=CARTESIAN_POINT('',(-3.34863156129983,13.,18.9));
#1304=CARTESIAN_POINT('',(-3.34863156129983,13.,16.2));
#1305=CARTESIAN_POINT('',(-1.67431578064992,10.1,16.2));
#1306=CARTESIAN_POINT('',(-1.67431578064992,10.1,18.9));
#1307=CARTESIAN_POINT('',(-1.67431578064992,10.1,18.9));
#1308=CARTESIAN_POINT('',(-1.67431578064992,10.1,16.2));
#1309=CARTESIAN_POINT('',(0.,0.,16.2));
#1310=CARTESIAN_POINT('',(0.,13.,16.2));
#1311=CARTESIAN_POINT('',(1.7,13.,16.2));
#1312=CARTESIAN_POINT('',(0.,0.,3.));
#1313=CARTESIAN_POINT('',(0.,13.,3.));
#1314=CARTESIAN_POINT('',(1.7,13.,3.));
#1315=CARTESIAN_POINT('',(0.,13.,18.9));
#1316=MECHANICAL_DESIGN_GEOMETRIC_PRESENTATION_REPRESENTATION('',(#805),
#1317);
#1317=(
GEOMETRIC_REPRESENTATION_CONTEXT(3)
GLOBAL_UNCERTAINTY_ASSIGNED_CONTEXT((#1318))
GLOBAL_UNIT_ASSIGNED_CONTEXT((#1321,#1320,#1319))
REPRESENTATION_CONTEXT('B09b_U2D2_service_tray',
'TOP_LEVEL_ASSEMBLY_PART')
);
#1318=UNCERTAINTY_MEASURE_WITH_UNIT(LENGTH_MEASURE(0.005),#1321,
'DISTANCE_ACCURACY_VALUE','Maximum Tolerance applied to model');
#1319=(
NAMED_UNIT(*)
SI_UNIT($,.STERADIAN.)
SOLID_ANGLE_UNIT()
);
#1320=(
NAMED_UNIT(*)
PLANE_ANGLE_UNIT()
SI_UNIT($,.RADIAN.)
);
#1321=(
LENGTH_UNIT()
NAMED_UNIT(*)
SI_UNIT(.MILLI.,.METRE.)
);
#1322=PRODUCT_DEFINITION_SHAPE('','',#1323);
#1323=PRODUCT_DEFINITION('','',#1325,#1324);
#1324=PRODUCT_DEFINITION_CONTEXT('',#1331,'design');
#1325=PRODUCT_DEFINITION_FORMATION_WITH_SPECIFIED_SOURCE('','',#1327,
 .NOT_KNOWN.);
#1326=PRODUCT_RELATED_PRODUCT_CATEGORY('','',(#1327));
#1327=PRODUCT('B09b_U2D2_service_tray','B09b_U2D2_service_tray',
'B09b_U2D2_service_tray',(#1329));
#1328=PRODUCT_CATEGORY('','');
#1329=PRODUCT_CONTEXT('',#1331,'mechanical');
#1330=APPLICATION_PROTOCOL_DEFINITION('international standard',
'automotive_design',2010,#1331);
#1331=APPLICATION_CONTEXT(
'core data for automotive mechanical design processes');
ENDSEC;
END-ISO-10303-21;
