ISO-10303-21;
HEADER;
/* Generated by software containing ST-Developer
 * from STEP Tools, Inc. (www.steptools.com) 
 */
/* OPTION: strings as raw bytes, not using required /X/ escapes */

FILE_DESCRIPTION(
/* description */ ('Unknown'),
/* implementation_level */ '2;1');

FILE_NAME(
/* name */ 'G03_integral_rack_and_finger',
/* time_stamp */ '2026-09-23T11:56:48+08:00',
/* author */ ('Unknown'),
/* organization */ ('Unknown'),
/* preprocessor_version */ 'ST-DEVELOPER v16.7',
/* originating_system */ 'Solid Edge',
/* authorisation */ 'Unknown');

FILE_SCHEMA (('AUTOMOTIVE_DESIGN {1 0 10303 214 3 1 1}'));
ENDSEC;

DATA;
#10=PROPERTY_DEFINITION_REPRESENTATION(#14,#12);
#11=PROPERTY_DEFINITION_REPRESENTATION(#15,#13);
#12=REPRESENTATION('',(#16),#2297);
#13=REPRESENTATION('',(#17),#2297);
#14=PROPERTY_DEFINITION('pmi validation property','',#2302);
#15=PROPERTY_DEFINITION('pmi validation property','',#2302);
#16=VALUE_REPRESENTATION_ITEM('number of annotations',COUNT_MEASURE(0.));
#17=VALUE_REPRESENTATION_ITEM('number of views',COUNT_MEASURE(0.));
#18=SHAPE_REPRESENTATION_RELATIONSHIP('','',#1467,#19);
#19=ADVANCED_BREP_SHAPE_REPRESENTATION('',(#1465),#2297);
#20=ORIENTED_EDGE('',*,*,#428,.F.);
#21=ORIENTED_EDGE('',*,*,#429,.T.);
#22=ORIENTED_EDGE('',*,*,#430,.F.);
#23=ORIENTED_EDGE('',*,*,#431,.T.);
#24=ORIENTED_EDGE('',*,*,#432,.T.);
#25=ORIENTED_EDGE('',*,*,#433,.F.);
#26=ORIENTED_EDGE('',*,*,#431,.F.);
#27=ORIENTED_EDGE('',*,*,#434,.F.);
#28=ORIENTED_EDGE('',*,*,#435,.T.);
#29=ORIENTED_EDGE('',*,*,#436,.T.);
#30=ORIENTED_EDGE('',*,*,#437,.F.);
#31=ORIENTED_EDGE('',*,*,#438,.T.);
#32=ORIENTED_EDGE('',*,*,#439,.F.);
#33=ORIENTED_EDGE('',*,*,#440,.F.);
#34=ORIENTED_EDGE('',*,*,#441,.F.);
#35=ORIENTED_EDGE('',*,*,#442,.F.);
#36=ORIENTED_EDGE('',*,*,#443,.T.);
#37=ORIENTED_EDGE('',*,*,#444,.T.);
#38=ORIENTED_EDGE('',*,*,#434,.T.);
#39=ORIENTED_EDGE('',*,*,#430,.T.);
#40=ORIENTED_EDGE('',*,*,#445,.T.);
#41=ORIENTED_EDGE('',*,*,#446,.T.);
#42=ORIENTED_EDGE('',*,*,#447,.T.);
#43=ORIENTED_EDGE('',*,*,#448,.T.);
#44=ORIENTED_EDGE('',*,*,#449,.T.);
#45=ORIENTED_EDGE('',*,*,#450,.T.);
#46=ORIENTED_EDGE('',*,*,#451,.T.);
#47=ORIENTED_EDGE('',*,*,#452,.T.);
#48=ORIENTED_EDGE('',*,*,#453,.T.);
#49=ORIENTED_EDGE('',*,*,#454,.T.);
#50=ORIENTED_EDGE('',*,*,#455,.T.);
#51=ORIENTED_EDGE('',*,*,#456,.T.);
#52=ORIENTED_EDGE('',*,*,#457,.T.);
#53=ORIENTED_EDGE('',*,*,#458,.T.);
#54=ORIENTED_EDGE('',*,*,#459,.T.);
#55=ORIENTED_EDGE('',*,*,#460,.T.);
#56=ORIENTED_EDGE('',*,*,#461,.T.);
#57=ORIENTED_EDGE('',*,*,#462,.T.);
#58=ORIENTED_EDGE('',*,*,#463,.T.);
#59=ORIENTED_EDGE('',*,*,#464,.T.);
#60=ORIENTED_EDGE('',*,*,#465,.T.);
#61=ORIENTED_EDGE('',*,*,#466,.T.);
#62=ORIENTED_EDGE('',*,*,#467,.T.);
#63=ORIENTED_EDGE('',*,*,#468,.T.);
#64=ORIENTED_EDGE('',*,*,#469,.T.);
#65=ORIENTED_EDGE('',*,*,#470,.T.);
#66=ORIENTED_EDGE('',*,*,#471,.T.);
#67=ORIENTED_EDGE('',*,*,#472,.T.);
#68=ORIENTED_EDGE('',*,*,#473,.T.);
#69=ORIENTED_EDGE('',*,*,#474,.T.);
#70=ORIENTED_EDGE('',*,*,#475,.T.);
#71=ORIENTED_EDGE('',*,*,#476,.T.);
#72=ORIENTED_EDGE('',*,*,#477,.T.);
#73=ORIENTED_EDGE('',*,*,#478,.T.);
#74=ORIENTED_EDGE('',*,*,#479,.T.);
#75=ORIENTED_EDGE('',*,*,#480,.T.);
#76=ORIENTED_EDGE('',*,*,#481,.T.);
#77=ORIENTED_EDGE('',*,*,#482,.T.);
#78=ORIENTED_EDGE('',*,*,#483,.T.);
#79=ORIENTED_EDGE('',*,*,#484,.T.);
#80=ORIENTED_EDGE('',*,*,#485,.T.);
#81=ORIENTED_EDGE('',*,*,#486,.T.);
#82=ORIENTED_EDGE('',*,*,#487,.T.);
#83=ORIENTED_EDGE('',*,*,#488,.T.);
#84=ORIENTED_EDGE('',*,*,#489,.T.);
#85=ORIENTED_EDGE('',*,*,#490,.T.);
#86=ORIENTED_EDGE('',*,*,#491,.T.);
#87=ORIENTED_EDGE('',*,*,#492,.T.);
#88=ORIENTED_EDGE('',*,*,#493,.T.);
#89=ORIENTED_EDGE('',*,*,#494,.T.);
#90=ORIENTED_EDGE('',*,*,#495,.T.);
#91=ORIENTED_EDGE('',*,*,#496,.T.);
#92=ORIENTED_EDGE('',*,*,#497,.T.);
#93=ORIENTED_EDGE('',*,*,#498,.T.);
#94=ORIENTED_EDGE('',*,*,#499,.T.);
#95=ORIENTED_EDGE('',*,*,#500,.T.);
#96=ORIENTED_EDGE('',*,*,#501,.T.);
#97=ORIENTED_EDGE('',*,*,#442,.T.);
#98=ORIENTED_EDGE('',*,*,#502,.T.);
#99=ORIENTED_EDGE('',*,*,#440,.T.);
#100=ORIENTED_EDGE('',*,*,#503,.T.);
#101=ORIENTED_EDGE('',*,*,#504,.T.);
#102=ORIENTED_EDGE('',*,*,#505,.T.);
#103=ORIENTED_EDGE('',*,*,#506,.F.);
#104=ORIENTED_EDGE('',*,*,#507,.F.);
#105=ORIENTED_EDGE('',*,*,#506,.T.);
#106=ORIENTED_EDGE('',*,*,#508,.T.);
#107=ORIENTED_EDGE('',*,*,#509,.F.);
#108=ORIENTED_EDGE('',*,*,#445,.F.);
#109=ORIENTED_EDGE('',*,*,#429,.F.);
#110=ORIENTED_EDGE('',*,*,#510,.T.);
#111=ORIENTED_EDGE('',*,*,#511,.F.);
#112=ORIENTED_EDGE('',*,*,#512,.F.);
#113=ORIENTED_EDGE('',*,*,#513,.T.);
#114=ORIENTED_EDGE('',*,*,#514,.F.);
#115=ORIENTED_EDGE('',*,*,#446,.F.);
#116=ORIENTED_EDGE('',*,*,#509,.T.);
#117=ORIENTED_EDGE('',*,*,#515,.T.);
#118=ORIENTED_EDGE('',*,*,#516,.F.);
#119=ORIENTED_EDGE('',*,*,#447,.F.);
#120=ORIENTED_EDGE('',*,*,#514,.T.);
#121=ORIENTED_EDGE('',*,*,#517,.T.);
#122=ORIENTED_EDGE('',*,*,#518,.F.);
#123=ORIENTED_EDGE('',*,*,#448,.F.);
#124=ORIENTED_EDGE('',*,*,#516,.T.);
#125=ORIENTED_EDGE('',*,*,#519,.T.);
#126=ORIENTED_EDGE('',*,*,#520,.F.);
#127=ORIENTED_EDGE('',*,*,#449,.F.);
#128=ORIENTED_EDGE('',*,*,#518,.T.);
#129=ORIENTED_EDGE('',*,*,#521,.T.);
#130=ORIENTED_EDGE('',*,*,#522,.F.);
#131=ORIENTED_EDGE('',*,*,#450,.F.);
#132=ORIENTED_EDGE('',*,*,#520,.T.);
#133=ORIENTED_EDGE('',*,*,#523,.T.);
#134=ORIENTED_EDGE('',*,*,#524,.F.);
#135=ORIENTED_EDGE('',*,*,#451,.F.);
#136=ORIENTED_EDGE('',*,*,#522,.T.);
#137=ORIENTED_EDGE('',*,*,#525,.T.);
#138=ORIENTED_EDGE('',*,*,#526,.F.);
#139=ORIENTED_EDGE('',*,*,#452,.F.);
#140=ORIENTED_EDGE('',*,*,#524,.T.);
#141=ORIENTED_EDGE('',*,*,#527,.T.);
#142=ORIENTED_EDGE('',*,*,#528,.F.);
#143=ORIENTED_EDGE('',*,*,#453,.F.);
#144=ORIENTED_EDGE('',*,*,#526,.T.);
#145=ORIENTED_EDGE('',*,*,#529,.T.);
#146=ORIENTED_EDGE('',*,*,#530,.F.);
#147=ORIENTED_EDGE('',*,*,#454,.F.);
#148=ORIENTED_EDGE('',*,*,#528,.T.);
#149=ORIENTED_EDGE('',*,*,#531,.T.);
#150=ORIENTED_EDGE('',*,*,#532,.F.);
#151=ORIENTED_EDGE('',*,*,#455,.F.);
#152=ORIENTED_EDGE('',*,*,#530,.T.);
#153=ORIENTED_EDGE('',*,*,#533,.T.);
#154=ORIENTED_EDGE('',*,*,#534,.F.);
#155=ORIENTED_EDGE('',*,*,#456,.F.);
#156=ORIENTED_EDGE('',*,*,#532,.T.);
#157=ORIENTED_EDGE('',*,*,#535,.T.);
#158=ORIENTED_EDGE('',*,*,#536,.F.);
#159=ORIENTED_EDGE('',*,*,#457,.F.);
#160=ORIENTED_EDGE('',*,*,#534,.T.);
#161=ORIENTED_EDGE('',*,*,#537,.T.);
#162=ORIENTED_EDGE('',*,*,#538,.F.);
#163=ORIENTED_EDGE('',*,*,#458,.F.);
#164=ORIENTED_EDGE('',*,*,#536,.T.);
#165=ORIENTED_EDGE('',*,*,#539,.T.);
#166=ORIENTED_EDGE('',*,*,#540,.F.);
#167=ORIENTED_EDGE('',*,*,#459,.F.);
#168=ORIENTED_EDGE('',*,*,#538,.T.);
#169=ORIENTED_EDGE('',*,*,#541,.T.);
#170=ORIENTED_EDGE('',*,*,#542,.F.);
#171=ORIENTED_EDGE('',*,*,#460,.F.);
#172=ORIENTED_EDGE('',*,*,#540,.T.);
#173=ORIENTED_EDGE('',*,*,#543,.T.);
#174=ORIENTED_EDGE('',*,*,#544,.F.);
#175=ORIENTED_EDGE('',*,*,#461,.F.);
#176=ORIENTED_EDGE('',*,*,#542,.T.);
#177=ORIENTED_EDGE('',*,*,#545,.T.);
#178=ORIENTED_EDGE('',*,*,#546,.F.);
#179=ORIENTED_EDGE('',*,*,#462,.F.);
#180=ORIENTED_EDGE('',*,*,#544,.T.);
#181=ORIENTED_EDGE('',*,*,#547,.T.);
#182=ORIENTED_EDGE('',*,*,#548,.F.);
#183=ORIENTED_EDGE('',*,*,#463,.F.);
#184=ORIENTED_EDGE('',*,*,#546,.T.);
#185=ORIENTED_EDGE('',*,*,#549,.T.);
#186=ORIENTED_EDGE('',*,*,#550,.F.);
#187=ORIENTED_EDGE('',*,*,#464,.F.);
#188=ORIENTED_EDGE('',*,*,#548,.T.);
#189=ORIENTED_EDGE('',*,*,#551,.T.);
#190=ORIENTED_EDGE('',*,*,#552,.F.);
#191=ORIENTED_EDGE('',*,*,#465,.F.);
#192=ORIENTED_EDGE('',*,*,#550,.T.);
#193=ORIENTED_EDGE('',*,*,#553,.T.);
#194=ORIENTED_EDGE('',*,*,#554,.F.);
#195=ORIENTED_EDGE('',*,*,#466,.F.);
#196=ORIENTED_EDGE('',*,*,#552,.T.);
#197=ORIENTED_EDGE('',*,*,#555,.T.);
#198=ORIENTED_EDGE('',*,*,#556,.F.);
#199=ORIENTED_EDGE('',*,*,#467,.F.);
#200=ORIENTED_EDGE('',*,*,#554,.T.);
#201=ORIENTED_EDGE('',*,*,#557,.T.);
#202=ORIENTED_EDGE('',*,*,#558,.F.);
#203=ORIENTED_EDGE('',*,*,#468,.F.);
#204=ORIENTED_EDGE('',*,*,#556,.T.);
#205=ORIENTED_EDGE('',*,*,#559,.T.);
#206=ORIENTED_EDGE('',*,*,#560,.F.);
#207=ORIENTED_EDGE('',*,*,#469,.F.);
#208=ORIENTED_EDGE('',*,*,#558,.T.);
#209=ORIENTED_EDGE('',*,*,#561,.T.);
#210=ORIENTED_EDGE('',*,*,#562,.F.);
#211=ORIENTED_EDGE('',*,*,#470,.F.);
#212=ORIENTED_EDGE('',*,*,#560,.T.);
#213=ORIENTED_EDGE('',*,*,#563,.T.);
#214=ORIENTED_EDGE('',*,*,#564,.F.);
#215=ORIENTED_EDGE('',*,*,#471,.F.);
#216=ORIENTED_EDGE('',*,*,#562,.T.);
#217=ORIENTED_EDGE('',*,*,#565,.T.);
#218=ORIENTED_EDGE('',*,*,#566,.F.);
#219=ORIENTED_EDGE('',*,*,#472,.F.);
#220=ORIENTED_EDGE('',*,*,#564,.T.);
#221=ORIENTED_EDGE('',*,*,#567,.T.);
#222=ORIENTED_EDGE('',*,*,#568,.F.);
#223=ORIENTED_EDGE('',*,*,#473,.F.);
#224=ORIENTED_EDGE('',*,*,#566,.T.);
#225=ORIENTED_EDGE('',*,*,#569,.T.);
#226=ORIENTED_EDGE('',*,*,#570,.F.);
#227=ORIENTED_EDGE('',*,*,#474,.F.);
#228=ORIENTED_EDGE('',*,*,#568,.T.);
#229=ORIENTED_EDGE('',*,*,#571,.T.);
#230=ORIENTED_EDGE('',*,*,#572,.F.);
#231=ORIENTED_EDGE('',*,*,#475,.F.);
#232=ORIENTED_EDGE('',*,*,#570,.T.);
#233=ORIENTED_EDGE('',*,*,#573,.T.);
#234=ORIENTED_EDGE('',*,*,#574,.F.);
#235=ORIENTED_EDGE('',*,*,#476,.F.);
#236=ORIENTED_EDGE('',*,*,#572,.T.);
#237=ORIENTED_EDGE('',*,*,#575,.T.);
#238=ORIENTED_EDGE('',*,*,#576,.F.);
#239=ORIENTED_EDGE('',*,*,#477,.F.);
#240=ORIENTED_EDGE('',*,*,#574,.T.);
#241=ORIENTED_EDGE('',*,*,#577,.T.);
#242=ORIENTED_EDGE('',*,*,#578,.F.);
#243=ORIENTED_EDGE('',*,*,#478,.F.);
#244=ORIENTED_EDGE('',*,*,#576,.T.);
#245=ORIENTED_EDGE('',*,*,#579,.T.);
#246=ORIENTED_EDGE('',*,*,#580,.F.);
#247=ORIENTED_EDGE('',*,*,#479,.F.);
#248=ORIENTED_EDGE('',*,*,#578,.T.);
#249=ORIENTED_EDGE('',*,*,#581,.T.);
#250=ORIENTED_EDGE('',*,*,#582,.F.);
#251=ORIENTED_EDGE('',*,*,#480,.F.);
#252=ORIENTED_EDGE('',*,*,#580,.T.);
#253=ORIENTED_EDGE('',*,*,#583,.T.);
#254=ORIENTED_EDGE('',*,*,#584,.F.);
#255=ORIENTED_EDGE('',*,*,#481,.F.);
#256=ORIENTED_EDGE('',*,*,#582,.T.);
#257=ORIENTED_EDGE('',*,*,#585,.T.);
#258=ORIENTED_EDGE('',*,*,#586,.F.);
#259=ORIENTED_EDGE('',*,*,#482,.F.);
#260=ORIENTED_EDGE('',*,*,#584,.T.);
#261=ORIENTED_EDGE('',*,*,#587,.T.);
#262=ORIENTED_EDGE('',*,*,#588,.F.);
#263=ORIENTED_EDGE('',*,*,#483,.F.);
#264=ORIENTED_EDGE('',*,*,#586,.T.);
#265=ORIENTED_EDGE('',*,*,#589,.T.);
#266=ORIENTED_EDGE('',*,*,#590,.F.);
#267=ORIENTED_EDGE('',*,*,#484,.F.);
#268=ORIENTED_EDGE('',*,*,#588,.T.);
#269=ORIENTED_EDGE('',*,*,#591,.T.);
#270=ORIENTED_EDGE('',*,*,#592,.F.);
#271=ORIENTED_EDGE('',*,*,#485,.F.);
#272=ORIENTED_EDGE('',*,*,#590,.T.);
#273=ORIENTED_EDGE('',*,*,#593,.T.);
#274=ORIENTED_EDGE('',*,*,#594,.F.);
#275=ORIENTED_EDGE('',*,*,#486,.F.);
#276=ORIENTED_EDGE('',*,*,#592,.T.);
#277=ORIENTED_EDGE('',*,*,#595,.T.);
#278=ORIENTED_EDGE('',*,*,#596,.F.);
#279=ORIENTED_EDGE('',*,*,#487,.F.);
#280=ORIENTED_EDGE('',*,*,#594,.T.);
#281=ORIENTED_EDGE('',*,*,#597,.T.);
#282=ORIENTED_EDGE('',*,*,#598,.F.);
#283=ORIENTED_EDGE('',*,*,#488,.F.);
#284=ORIENTED_EDGE('',*,*,#596,.T.);
#285=ORIENTED_EDGE('',*,*,#599,.T.);
#286=ORIENTED_EDGE('',*,*,#600,.F.);
#287=ORIENTED_EDGE('',*,*,#489,.F.);
#288=ORIENTED_EDGE('',*,*,#598,.T.);
#289=ORIENTED_EDGE('',*,*,#601,.T.);
#290=ORIENTED_EDGE('',*,*,#602,.F.);
#291=ORIENTED_EDGE('',*,*,#490,.F.);
#292=ORIENTED_EDGE('',*,*,#600,.T.);
#293=ORIENTED_EDGE('',*,*,#603,.T.);
#294=ORIENTED_EDGE('',*,*,#604,.F.);
#295=ORIENTED_EDGE('',*,*,#491,.F.);
#296=ORIENTED_EDGE('',*,*,#602,.T.);
#297=ORIENTED_EDGE('',*,*,#605,.T.);
#298=ORIENTED_EDGE('',*,*,#606,.F.);
#299=ORIENTED_EDGE('',*,*,#492,.F.);
#300=ORIENTED_EDGE('',*,*,#604,.T.);
#301=ORIENTED_EDGE('',*,*,#607,.T.);
#302=ORIENTED_EDGE('',*,*,#608,.F.);
#303=ORIENTED_EDGE('',*,*,#493,.F.);
#304=ORIENTED_EDGE('',*,*,#606,.T.);
#305=ORIENTED_EDGE('',*,*,#609,.T.);
#306=ORIENTED_EDGE('',*,*,#610,.F.);
#307=ORIENTED_EDGE('',*,*,#494,.F.);
#308=ORIENTED_EDGE('',*,*,#608,.T.);
#309=ORIENTED_EDGE('',*,*,#611,.T.);
#310=ORIENTED_EDGE('',*,*,#612,.F.);
#311=ORIENTED_EDGE('',*,*,#495,.F.);
#312=ORIENTED_EDGE('',*,*,#610,.T.);
#313=ORIENTED_EDGE('',*,*,#613,.T.);
#314=ORIENTED_EDGE('',*,*,#614,.F.);
#315=ORIENTED_EDGE('',*,*,#496,.F.);
#316=ORIENTED_EDGE('',*,*,#612,.T.);
#317=ORIENTED_EDGE('',*,*,#615,.T.);
#318=ORIENTED_EDGE('',*,*,#616,.F.);
#319=ORIENTED_EDGE('',*,*,#497,.F.);
#320=ORIENTED_EDGE('',*,*,#614,.T.);
#321=ORIENTED_EDGE('',*,*,#617,.T.);
#322=ORIENTED_EDGE('',*,*,#618,.F.);
#323=ORIENTED_EDGE('',*,*,#498,.F.);
#324=ORIENTED_EDGE('',*,*,#616,.T.);
#325=ORIENTED_EDGE('',*,*,#619,.T.);
#326=ORIENTED_EDGE('',*,*,#620,.F.);
#327=ORIENTED_EDGE('',*,*,#499,.F.);
#328=ORIENTED_EDGE('',*,*,#618,.T.);
#329=ORIENTED_EDGE('',*,*,#621,.T.);
#330=ORIENTED_EDGE('',*,*,#622,.F.);
#331=ORIENTED_EDGE('',*,*,#500,.F.);
#332=ORIENTED_EDGE('',*,*,#620,.T.);
#333=ORIENTED_EDGE('',*,*,#623,.T.);
#334=ORIENTED_EDGE('',*,*,#435,.F.);
#335=ORIENTED_EDGE('',*,*,#501,.F.);
#336=ORIENTED_EDGE('',*,*,#622,.T.);
#337=ORIENTED_EDGE('',*,*,#624,.T.);
#338=ORIENTED_EDGE('',*,*,#443,.F.);
#339=ORIENTED_EDGE('',*,*,#503,.F.);
#340=ORIENTED_EDGE('',*,*,#439,.T.);
#341=ORIENTED_EDGE('',*,*,#505,.F.);
#342=ORIENTED_EDGE('',*,*,#625,.F.);
#343=ORIENTED_EDGE('',*,*,#444,.F.);
#344=ORIENTED_EDGE('',*,*,#624,.F.);
#345=ORIENTED_EDGE('',*,*,#438,.F.);
#346=ORIENTED_EDGE('',*,*,#626,.F.);
#347=ORIENTED_EDGE('',*,*,#432,.F.);
#348=ORIENTED_EDGE('',*,*,#436,.F.);
#349=ORIENTED_EDGE('',*,*,#623,.F.);
#350=ORIENTED_EDGE('',*,*,#621,.F.);
#351=ORIENTED_EDGE('',*,*,#619,.F.);
#352=ORIENTED_EDGE('',*,*,#617,.F.);
#353=ORIENTED_EDGE('',*,*,#615,.F.);
#354=ORIENTED_EDGE('',*,*,#613,.F.);
#355=ORIENTED_EDGE('',*,*,#611,.F.);
#356=ORIENTED_EDGE('',*,*,#609,.F.);
#357=ORIENTED_EDGE('',*,*,#607,.F.);
#358=ORIENTED_EDGE('',*,*,#605,.F.);
#359=ORIENTED_EDGE('',*,*,#603,.F.);
#360=ORIENTED_EDGE('',*,*,#601,.F.);
#361=ORIENTED_EDGE('',*,*,#599,.F.);
#362=ORIENTED_EDGE('',*,*,#597,.F.);
#363=ORIENTED_EDGE('',*,*,#595,.F.);
#364=ORIENTED_EDGE('',*,*,#593,.F.);
#365=ORIENTED_EDGE('',*,*,#591,.F.);
#366=ORIENTED_EDGE('',*,*,#589,.F.);
#367=ORIENTED_EDGE('',*,*,#587,.F.);
#368=ORIENTED_EDGE('',*,*,#585,.F.);
#369=ORIENTED_EDGE('',*,*,#583,.F.);
#370=ORIENTED_EDGE('',*,*,#581,.F.);
#371=ORIENTED_EDGE('',*,*,#579,.F.);
#372=ORIENTED_EDGE('',*,*,#577,.F.);
#373=ORIENTED_EDGE('',*,*,#575,.F.);
#374=ORIENTED_EDGE('',*,*,#573,.F.);
#375=ORIENTED_EDGE('',*,*,#571,.F.);
#376=ORIENTED_EDGE('',*,*,#569,.F.);
#377=ORIENTED_EDGE('',*,*,#567,.F.);
#378=ORIENTED_EDGE('',*,*,#565,.F.);
#379=ORIENTED_EDGE('',*,*,#563,.F.);
#380=ORIENTED_EDGE('',*,*,#561,.F.);
#381=ORIENTED_EDGE('',*,*,#559,.F.);
#382=ORIENTED_EDGE('',*,*,#557,.F.);
#383=ORIENTED_EDGE('',*,*,#555,.F.);
#384=ORIENTED_EDGE('',*,*,#553,.F.);
#385=ORIENTED_EDGE('',*,*,#551,.F.);
#386=ORIENTED_EDGE('',*,*,#549,.F.);
#387=ORIENTED_EDGE('',*,*,#547,.F.);
#388=ORIENTED_EDGE('',*,*,#545,.F.);
#389=ORIENTED_EDGE('',*,*,#543,.F.);
#390=ORIENTED_EDGE('',*,*,#541,.F.);
#391=ORIENTED_EDGE('',*,*,#539,.F.);
#392=ORIENTED_EDGE('',*,*,#537,.F.);
#393=ORIENTED_EDGE('',*,*,#535,.F.);
#394=ORIENTED_EDGE('',*,*,#533,.F.);
#395=ORIENTED_EDGE('',*,*,#531,.F.);
#396=ORIENTED_EDGE('',*,*,#529,.F.);
#397=ORIENTED_EDGE('',*,*,#527,.F.);
#398=ORIENTED_EDGE('',*,*,#525,.F.);
#399=ORIENTED_EDGE('',*,*,#523,.F.);
#400=ORIENTED_EDGE('',*,*,#521,.F.);
#401=ORIENTED_EDGE('',*,*,#519,.F.);
#402=ORIENTED_EDGE('',*,*,#517,.F.);
#403=ORIENTED_EDGE('',*,*,#515,.F.);
#404=ORIENTED_EDGE('',*,*,#513,.F.);
#405=ORIENTED_EDGE('',*,*,#508,.F.);
#406=ORIENTED_EDGE('',*,*,#627,.F.);
#407=ORIENTED_EDGE('',*,*,#628,.T.);
#408=ORIENTED_EDGE('',*,*,#629,.T.);
#409=ORIENTED_EDGE('',*,*,#433,.T.);
#410=ORIENTED_EDGE('',*,*,#626,.T.);
#411=ORIENTED_EDGE('',*,*,#437,.T.);
#412=ORIENTED_EDGE('',*,*,#502,.F.);
#413=ORIENTED_EDGE('',*,*,#441,.T.);
#414=ORIENTED_EDGE('',*,*,#625,.T.);
#415=ORIENTED_EDGE('',*,*,#504,.F.);
#416=ORIENTED_EDGE('',*,*,#507,.T.);
#417=ORIENTED_EDGE('',*,*,#512,.T.);
#418=ORIENTED_EDGE('',*,*,#630,.T.);
#419=ORIENTED_EDGE('',*,*,#627,.T.);
#420=ORIENTED_EDGE('',*,*,#510,.F.);
#421=ORIENTED_EDGE('',*,*,#428,.T.);
#422=ORIENTED_EDGE('',*,*,#629,.F.);
#423=ORIENTED_EDGE('',*,*,#631,.F.);
#424=ORIENTED_EDGE('',*,*,#631,.T.);
#425=ORIENTED_EDGE('',*,*,#628,.F.);
#426=ORIENTED_EDGE('',*,*,#630,.F.);
#427=ORIENTED_EDGE('',*,*,#511,.T.);
#428=EDGE_CURVE('',#632,#633,#768,.T.);
#429=EDGE_CURVE('',#632,#634,#769,.T.);
#430=EDGE_CURVE('',#635,#634,#770,.T.);
#431=EDGE_CURVE('',#635,#636,#771,.T.);
#432=EDGE_CURVE('',#636,#637,#772,.T.);
#433=EDGE_CURVE('',#633,#637,#773,.T.);
#434=EDGE_CURVE('',#638,#635,#774,.T.);
#435=EDGE_CURVE('',#638,#639,#775,.T.);
#436=EDGE_CURVE('',#639,#636,#776,.T.);
#437=EDGE_CURVE('',#640,#641,#777,.T.);
#438=EDGE_CURVE('',#640,#642,#778,.T.);
#439=EDGE_CURVE('',#643,#642,#779,.T.);
#440=EDGE_CURVE('',#641,#643,#780,.T.);
#441=EDGE_CURVE('',#644,#645,#781,.T.);
#442=EDGE_CURVE('',#646,#644,#782,.T.);
#443=EDGE_CURVE('',#646,#647,#783,.T.);
#444=EDGE_CURVE('',#647,#645,#784,.T.);
#445=EDGE_CURVE('',#634,#648,#785,.T.);
#446=EDGE_CURVE('',#648,#649,#786,.T.);
#447=EDGE_CURVE('',#649,#650,#787,.T.);
#448=EDGE_CURVE('',#650,#651,#788,.T.);
#449=EDGE_CURVE('',#651,#652,#789,.T.);
#450=EDGE_CURVE('',#652,#653,#790,.T.);
#451=EDGE_CURVE('',#653,#654,#791,.T.);
#452=EDGE_CURVE('',#654,#655,#792,.T.);
#453=EDGE_CURVE('',#655,#656,#793,.T.);
#454=EDGE_CURVE('',#656,#657,#794,.T.);
#455=EDGE_CURVE('',#657,#658,#795,.T.);
#456=EDGE_CURVE('',#658,#659,#796,.T.);
#457=EDGE_CURVE('',#659,#660,#797,.T.);
#458=EDGE_CURVE('',#660,#661,#798,.T.);
#459=EDGE_CURVE('',#661,#662,#799,.T.);
#460=EDGE_CURVE('',#662,#663,#800,.T.);
#461=EDGE_CURVE('',#663,#664,#801,.T.);
#462=EDGE_CURVE('',#664,#665,#802,.T.);
#463=EDGE_CURVE('',#665,#666,#803,.T.);
#464=EDGE_CURVE('',#666,#667,#804,.T.);
#465=EDGE_CURVE('',#667,#668,#805,.T.);
#466=EDGE_CURVE('',#668,#669,#806,.T.);
#467=EDGE_CURVE('',#669,#670,#807,.T.);
#468=EDGE_CURVE('',#670,#671,#808,.T.);
#469=EDGE_CURVE('',#671,#672,#809,.T.);
#470=EDGE_CURVE('',#672,#673,#810,.T.);
#471=EDGE_CURVE('',#673,#674,#811,.T.);
#472=EDGE_CURVE('',#674,#675,#812,.T.);
#473=EDGE_CURVE('',#675,#676,#813,.T.);
#474=EDGE_CURVE('',#676,#677,#814,.T.);
#475=EDGE_CURVE('',#677,#678,#815,.T.);
#476=EDGE_CURVE('',#678,#679,#816,.T.);
#477=EDGE_CURVE('',#679,#680,#817,.T.);
#478=EDGE_CURVE('',#680,#681,#818,.T.);
#479=EDGE_CURVE('',#681,#682,#819,.T.);
#480=EDGE_CURVE('',#682,#683,#820,.T.);
#481=EDGE_CURVE('',#683,#684,#821,.T.);
#482=EDGE_CURVE('',#684,#685,#822,.T.);
#483=EDGE_CURVE('',#685,#686,#823,.T.);
#484=EDGE_CURVE('',#686,#687,#824,.T.);
#485=EDGE_CURVE('',#687,#688,#825,.T.);
#486=EDGE_CURVE('',#688,#689,#826,.T.);
#487=EDGE_CURVE('',#689,#690,#827,.T.);
#488=EDGE_CURVE('',#690,#691,#828,.T.);
#489=EDGE_CURVE('',#691,#692,#829,.T.);
#490=EDGE_CURVE('',#692,#693,#830,.T.);
#491=EDGE_CURVE('',#693,#694,#831,.T.);
#492=EDGE_CURVE('',#694,#695,#832,.T.);
#493=EDGE_CURVE('',#695,#696,#833,.T.);
#494=EDGE_CURVE('',#696,#697,#834,.T.);
#495=EDGE_CURVE('',#697,#698,#835,.T.);
#496=EDGE_CURVE('',#698,#699,#836,.T.);
#497=EDGE_CURVE('',#699,#700,#837,.T.);
#498=EDGE_CURVE('',#700,#701,#838,.T.);
#499=EDGE_CURVE('',#701,#702,#839,.T.);
#500=EDGE_CURVE('',#702,#703,#840,.T.);
#501=EDGE_CURVE('',#703,#638,#841,.T.);
#502=EDGE_CURVE('',#644,#641,#842,.T.);
#503=EDGE_CURVE('',#643,#646,#843,.T.);
#504=EDGE_CURVE('',#704,#705,#844,.T.);
#505=EDGE_CURVE('',#705,#706,#845,.T.);
#506=EDGE_CURVE('',#707,#706,#846,.T.);
#507=EDGE_CURVE('',#704,#707,#847,.T.);
#508=EDGE_CURVE('',#706,#708,#848,.T.);
#509=EDGE_CURVE('',#648,#708,#849,.T.);
#510=EDGE_CURVE('',#632,#709,#850,.T.);
#511=EDGE_CURVE('',#710,#709,#851,.T.);
#512=EDGE_CURVE('',#707,#710,#852,.T.);
#513=EDGE_CURVE('',#708,#711,#853,.T.);
#514=EDGE_CURVE('',#649,#711,#854,.T.);
#515=EDGE_CURVE('',#711,#712,#855,.T.);
#516=EDGE_CURVE('',#650,#712,#856,.T.);
#517=EDGE_CURVE('',#712,#713,#857,.T.);
#518=EDGE_CURVE('',#651,#713,#858,.T.);
#519=EDGE_CURVE('',#713,#714,#859,.T.);
#520=EDGE_CURVE('',#652,#714,#860,.T.);
#521=EDGE_CURVE('',#714,#715,#861,.T.);
#522=EDGE_CURVE('',#653,#715,#862,.T.);
#523=EDGE_CURVE('',#715,#716,#863,.T.);
#524=EDGE_CURVE('',#654,#716,#864,.T.);
#525=EDGE_CURVE('',#716,#717,#865,.T.);
#526=EDGE_CURVE('',#655,#717,#866,.T.);
#527=EDGE_CURVE('',#717,#718,#867,.T.);
#528=EDGE_CURVE('',#656,#718,#868,.T.);
#529=EDGE_CURVE('',#718,#719,#869,.T.);
#530=EDGE_CURVE('',#657,#719,#870,.T.);
#531=EDGE_CURVE('',#719,#720,#871,.T.);
#532=EDGE_CURVE('',#658,#720,#872,.T.);
#533=EDGE_CURVE('',#720,#721,#873,.T.);
#534=EDGE_CURVE('',#659,#721,#874,.T.);
#535=EDGE_CURVE('',#721,#722,#875,.T.);
#536=EDGE_CURVE('',#660,#722,#876,.T.);
#537=EDGE_CURVE('',#722,#723,#877,.T.);
#538=EDGE_CURVE('',#661,#723,#878,.T.);
#539=EDGE_CURVE('',#723,#724,#879,.T.);
#540=EDGE_CURVE('',#662,#724,#880,.T.);
#541=EDGE_CURVE('',#724,#725,#881,.T.);
#542=EDGE_CURVE('',#663,#725,#882,.T.);
#543=EDGE_CURVE('',#725,#726,#883,.T.);
#544=EDGE_CURVE('',#664,#726,#884,.T.);
#545=EDGE_CURVE('',#726,#727,#885,.T.);
#546=EDGE_CURVE('',#665,#727,#886,.T.);
#547=EDGE_CURVE('',#727,#728,#887,.T.);
#548=EDGE_CURVE('',#666,#728,#888,.T.);
#549=EDGE_CURVE('',#728,#729,#889,.T.);
#550=EDGE_CURVE('',#667,#729,#890,.T.);
#551=EDGE_CURVE('',#729,#730,#891,.T.);
#552=EDGE_CURVE('',#668,#730,#892,.T.);
#553=EDGE_CURVE('',#730,#731,#893,.T.);
#554=EDGE_CURVE('',#669,#731,#894,.T.);
#555=EDGE_CURVE('',#731,#732,#895,.T.);
#556=EDGE_CURVE('',#670,#732,#896,.T.);
#557=EDGE_CURVE('',#732,#733,#897,.T.);
#558=EDGE_CURVE('',#671,#733,#898,.T.);
#559=EDGE_CURVE('',#733,#734,#899,.T.);
#560=EDGE_CURVE('',#672,#734,#900,.T.);
#561=EDGE_CURVE('',#734,#735,#901,.T.);
#562=EDGE_CURVE('',#673,#735,#902,.T.);
#563=EDGE_CURVE('',#735,#736,#903,.T.);
#564=EDGE_CURVE('',#674,#736,#904,.T.);
#565=EDGE_CURVE('',#736,#737,#905,.T.);
#566=EDGE_CURVE('',#675,#737,#906,.T.);
#567=EDGE_CURVE('',#737,#738,#907,.T.);
#568=EDGE_CURVE('',#676,#738,#908,.T.);
#569=EDGE_CURVE('',#738,#739,#909,.T.);
#570=EDGE_CURVE('',#677,#739,#910,.T.);
#571=EDGE_CURVE('',#739,#740,#911,.T.);
#572=EDGE_CURVE('',#678,#740,#912,.T.);
#573=EDGE_CURVE('',#740,#741,#913,.T.);
#574=EDGE_CURVE('',#679,#741,#914,.T.);
#575=EDGE_CURVE('',#741,#742,#915,.T.);
#576=EDGE_CURVE('',#680,#742,#916,.T.);
#577=EDGE_CURVE('',#742,#743,#917,.T.);
#578=EDGE_CURVE('',#681,#743,#918,.T.);
#579=EDGE_CURVE('',#743,#744,#919,.T.);
#580=EDGE_CURVE('',#682,#744,#920,.T.);
#581=EDGE_CURVE('',#744,#745,#921,.T.);
#582=EDGE_CURVE('',#683,#745,#922,.T.);
#583=EDGE_CURVE('',#745,#746,#923,.T.);
#584=EDGE_CURVE('',#684,#746,#924,.T.);
#585=EDGE_CURVE('',#746,#747,#925,.T.);
#586=EDGE_CURVE('',#685,#747,#926,.T.);
#587=EDGE_CURVE('',#747,#748,#927,.T.);
#588=EDGE_CURVE('',#686,#748,#928,.T.);
#589=EDGE_CURVE('',#748,#749,#929,.T.);
#590=EDGE_CURVE('',#687,#749,#930,.T.);
#591=EDGE_CURVE('',#749,#750,#931,.T.);
#592=EDGE_CURVE('',#688,#750,#932,.T.);
#593=EDGE_CURVE('',#750,#751,#933,.T.);
#594=EDGE_CURVE('',#689,#751,#934,.T.);
#595=EDGE_CURVE('',#751,#752,#935,.T.);
#596=EDGE_CURVE('',#690,#752,#936,.T.);
#597=EDGE_CURVE('',#752,#753,#937,.T.);
#598=EDGE_CURVE('',#691,#753,#938,.T.);
#599=EDGE_CURVE('',#753,#754,#939,.T.);
#600=EDGE_CURVE('',#692,#754,#940,.T.);
#601=EDGE_CURVE('',#754,#755,#941,.T.);
#602=EDGE_CURVE('',#693,#755,#942,.T.);
#603=EDGE_CURVE('',#755,#756,#943,.T.);
#604=EDGE_CURVE('',#694,#756,#944,.T.);
#605=EDGE_CURVE('',#756,#757,#945,.T.);
#606=EDGE_CURVE('',#695,#757,#946,.T.);
#607=EDGE_CURVE('',#757,#758,#947,.T.);
#608=EDGE_CURVE('',#696,#758,#948,.T.);
#609=EDGE_CURVE('',#758,#759,#949,.T.);
#610=EDGE_CURVE('',#697,#759,#950,.T.);
#611=EDGE_CURVE('',#759,#760,#951,.T.);
#612=EDGE_CURVE('',#698,#760,#952,.T.);
#613=EDGE_CURVE('',#760,#761,#953,.T.);
#614=EDGE_CURVE('',#699,#761,#954,.T.);
#615=EDGE_CURVE('',#761,#762,#955,.T.);
#616=EDGE_CURVE('',#700,#762,#956,.T.);
#617=EDGE_CURVE('',#762,#763,#957,.T.);
#618=EDGE_CURVE('',#701,#763,#958,.T.);
#619=EDGE_CURVE('',#763,#764,#959,.T.);
#620=EDGE_CURVE('',#702,#764,#960,.T.);
#621=EDGE_CURVE('',#764,#765,#961,.T.);
#622=EDGE_CURVE('',#703,#765,#962,.T.);
#623=EDGE_CURVE('',#765,#639,#963,.T.);
#624=EDGE_CURVE('',#642,#647,#964,.T.);
#625=EDGE_CURVE('',#645,#705,#965,.T.);
#626=EDGE_CURVE('',#637,#640,#966,.T.);
#627=EDGE_CURVE('',#766,#704,#967,.T.);
#628=EDGE_CURVE('',#766,#767,#968,.T.);
#629=EDGE_CURVE('',#767,#633,#969,.T.);
#630=EDGE_CURVE('',#710,#766,#970,.T.);
#631=EDGE_CURVE('',#709,#767,#971,.T.);
#632=VERTEX_POINT('',#1888);
#633=VERTEX_POINT('',#1889);
#634=VERTEX_POINT('',#1891);
#635=VERTEX_POINT('',#1893);
#636=VERTEX_POINT('',#1895);
#637=VERTEX_POINT('',#1897);
#638=VERTEX_POINT('',#1901);
#639=VERTEX_POINT('',#1903);
#640=VERTEX_POINT('',#1907);
#641=VERTEX_POINT('',#1908);
#642=VERTEX_POINT('',#1910);
#643=VERTEX_POINT('',#1912);
#644=VERTEX_POINT('',#1916);
#645=VERTEX_POINT('',#1917);
#646=VERTEX_POINT('',#1919);
#647=VERTEX_POINT('',#1921);
#648=VERTEX_POINT('',#1925);
#649=VERTEX_POINT('',#1927);
#650=VERTEX_POINT('',#1929);
#651=VERTEX_POINT('',#1931);
#652=VERTEX_POINT('',#1933);
#653=VERTEX_POINT('',#1935);
#654=VERTEX_POINT('',#1937);
#655=VERTEX_POINT('',#1939);
#656=VERTEX_POINT('',#1941);
#657=VERTEX_POINT('',#1943);
#658=VERTEX_POINT('',#1945);
#659=VERTEX_POINT('',#1947);
#660=VERTEX_POINT('',#1949);
#661=VERTEX_POINT('',#1951);
#662=VERTEX_POINT('',#1953);
#663=VERTEX_POINT('',#1955);
#664=VERTEX_POINT('',#1957);
#665=VERTEX_POINT('',#1959);
#666=VERTEX_POINT('',#1961);
#667=VERTEX_POINT('',#1963);
#668=VERTEX_POINT('',#1965);
#669=VERTEX_POINT('',#1967);
#670=VERTEX_POINT('',#1969);
#671=VERTEX_POINT('',#1971);
#672=VERTEX_POINT('',#1973);
#673=VERTEX_POINT('',#1975);
#674=VERTEX_POINT('',#1977);
#675=VERTEX_POINT('',#1979);
#676=VERTEX_POINT('',#1981);
#677=VERTEX_POINT('',#1983);
#678=VERTEX_POINT('',#1985);
#679=VERTEX_POINT('',#1987);
#680=VERTEX_POINT('',#1989);
#681=VERTEX_POINT('',#1991);
#682=VERTEX_POINT('',#1993);
#683=VERTEX_POINT('',#1995);
#684=VERTEX_POINT('',#1997);
#685=VERTEX_POINT('',#1999);
#686=VERTEX_POINT('',#2001);
#687=VERTEX_POINT('',#2003);
#688=VERTEX_POINT('',#2005);
#689=VERTEX_POINT('',#2007);
#690=VERTEX_POINT('',#2009);
#691=VERTEX_POINT('',#2011);
#692=VERTEX_POINT('',#2013);
#693=VERTEX_POINT('',#2015);
#694=VERTEX_POINT('',#2017);
#695=VERTEX_POINT('',#2019);
#696=VERTEX_POINT('',#2021);
#697=VERTEX_POINT('',#2023);
#698=VERTEX_POINT('',#2025);
#699=VERTEX_POINT('',#2027);
#700=VERTEX_POINT('',#2029);
#701=VERTEX_POINT('',#2031);
#702=VERTEX_POINT('',#2033);
#703=VERTEX_POINT('',#2035);
#704=VERTEX_POINT('',#2042);
#705=VERTEX_POINT('',#2043);
#706=VERTEX_POINT('',#2045);
#707=VERTEX_POINT('',#2047);
#708=VERTEX_POINT('',#2051);
#709=VERTEX_POINT('',#2054);
#710=VERTEX_POINT('',#2056);
#711=VERTEX_POINT('',#2060);
#712=VERTEX_POINT('',#2064);
#713=VERTEX_POINT('',#2068);
#714=VERTEX_POINT('',#2072);
#715=VERTEX_POINT('',#2076);
#716=VERTEX_POINT('',#2080);
#717=VERTEX_POINT('',#2084);
#718=VERTEX_POINT('',#2088);
#719=VERTEX_POINT('',#2092);
#720=VERTEX_POINT('',#2096);
#721=VERTEX_POINT('',#2100);
#722=VERTEX_POINT('',#2104);
#723=VERTEX_POINT('',#2108);
#724=VERTEX_POINT('',#2112);
#725=VERTEX_POINT('',#2116);
#726=VERTEX_POINT('',#2120);
#727=VERTEX_POINT('',#2124);
#728=VERTEX_POINT('',#2128);
#729=VERTEX_POINT('',#2132);
#730=VERTEX_POINT('',#2136);
#731=VERTEX_POINT('',#2140);
#732=VERTEX_POINT('',#2144);
#733=VERTEX_POINT('',#2148);
#734=VERTEX_POINT('',#2152);
#735=VERTEX_POINT('',#2156);
#736=VERTEX_POINT('',#2160);
#737=VERTEX_POINT('',#2164);
#738=VERTEX_POINT('',#2168);
#739=VERTEX_POINT('',#2172);
#740=VERTEX_POINT('',#2176);
#741=VERTEX_POINT('',#2180);
#742=VERTEX_POINT('',#2184);
#743=VERTEX_POINT('',#2188);
#744=VERTEX_POINT('',#2192);
#745=VERTEX_POINT('',#2196);
#746=VERTEX_POINT('',#2200);
#747=VERTEX_POINT('',#2204);
#748=VERTEX_POINT('',#2208);
#749=VERTEX_POINT('',#2212);
#750=VERTEX_POINT('',#2216);
#751=VERTEX_POINT('',#2220);
#752=VERTEX_POINT('',#2224);
#753=VERTEX_POINT('',#2228);
#754=VERTEX_POINT('',#2232);
#755=VERTEX_POINT('',#2236);
#756=VERTEX_POINT('',#2240);
#757=VERTEX_POINT('',#2244);
#758=VERTEX_POINT('',#2248);
#759=VERTEX_POINT('',#2252);
#760=VERTEX_POINT('',#2256);
#761=VERTEX_POINT('',#2260);
#762=VERTEX_POINT('',#2264);
#763=VERTEX_POINT('',#2268);
#764=VERTEX_POINT('',#2272);
#765=VERTEX_POINT('',#2276);
#766=VERTEX_POINT('',#2287);
#767=VERTEX_POINT('',#2289);
#768=LINE('',#1887,#972);
#769=LINE('',#1890,#973);
#770=LINE('',#1892,#974);
#771=LINE('',#1894,#975);
#772=LINE('',#1896,#976);
#773=LINE('',#1898,#977);
#774=LINE('',#1900,#978);
#775=LINE('',#1902,#979);
#776=LINE('',#1904,#980);
#777=LINE('',#1906,#981);
#778=LINE('',#1909,#982);
#779=LINE('',#1911,#983);
#780=LINE('',#1913,#984);
#781=LINE('',#1915,#985);
#782=LINE('',#1918,#986);
#783=LINE('',#1920,#987);
#784=LINE('',#1922,#988);
#785=LINE('',#1924,#989);
#786=LINE('',#1926,#990);
#787=LINE('',#1928,#991);
#788=LINE('',#1930,#992);
#789=LINE('',#1932,#993);
#790=LINE('',#1934,#994);
#791=LINE('',#1936,#995);
#792=LINE('',#1938,#996);
#793=LINE('',#1940,#997);
#794=LINE('',#1942,#998);
#795=LINE('',#1944,#999);
#796=LINE('',#1946,#1000);
#797=LINE('',#1948,#1001);
#798=LINE('',#1950,#1002);
#799=LINE('',#1952,#1003);
#800=LINE('',#1954,#1004);
#801=LINE('',#1956,#1005);
#802=LINE('',#1958,#1006);
#803=LINE('',#1960,#1007);
#804=LINE('',#1962,#1008);
#805=LINE('',#1964,#1009);
#806=LINE('',#1966,#1010);
#807=LINE('',#1968,#1011);
#808=LINE('',#1970,#1012);
#809=LINE('',#1972,#1013);
#810=LINE('',#1974,#1014);
#811=LINE('',#1976,#1015);
#812=LINE('',#1978,#1016);
#813=LINE('',#1980,#1017);
#814=LINE('',#1982,#1018);
#815=LINE('',#1984,#1019);
#816=LINE('',#1986,#1020);
#817=LINE('',#1988,#1021);
#818=LINE('',#1990,#1022);
#819=LINE('',#1992,#1023);
#820=LINE('',#1994,#1024);
#821=LINE('',#1996,#1025);
#822=LINE('',#1998,#1026);
#823=LINE('',#2000,#1027);
#824=LINE('',#2002,#1028);
#825=LINE('',#2004,#1029);
#826=LINE('',#2006,#1030);
#827=LINE('',#2008,#1031);
#828=LINE('',#2010,#1032);
#829=LINE('',#2012,#1033);
#830=LINE('',#2014,#1034);
#831=LINE('',#2016,#1035);
#832=LINE('',#2018,#1036);
#833=LINE('',#2020,#1037);
#834=LINE('',#2022,#1038);
#835=LINE('',#2024,#1039);
#836=LINE('',#2026,#1040);
#837=LINE('',#2028,#1041);
#838=LINE('',#2030,#1042);
#839=LINE('',#2032,#1043);
#840=LINE('',#2034,#1044);
#841=LINE('',#2036,#1045);
#842=LINE('',#2038,#1046);
#843=LINE('',#2039,#1047);
#844=LINE('',#2041,#1048);
#845=LINE('',#2044,#1049);
#846=LINE('',#2046,#1050);
#847=LINE('',#2048,#1051);
#848=LINE('',#2050,#1052);
#849=LINE('',#2052,#1053);
#850=LINE('',#2053,#1054);
#851=LINE('',#2055,#1055);
#852=LINE('',#2057,#1056);
#853=LINE('',#2059,#1057);
#854=LINE('',#2061,#1058);
#855=LINE('',#2063,#1059);
#856=LINE('',#2065,#1060);
#857=LINE('',#2067,#1061);
#858=LINE('',#2069,#1062);
#859=LINE('',#2071,#1063);
#860=LINE('',#2073,#1064);
#861=LINE('',#2075,#1065);
#862=LINE('',#2077,#1066);
#863=LINE('',#2079,#1067);
#864=LINE('',#2081,#1068);
#865=LINE('',#2083,#1069);
#866=LINE('',#2085,#1070);
#867=LINE('',#2087,#1071);
#868=LINE('',#2089,#1072);
#869=LINE('',#2091,#1073);
#870=LINE('',#2093,#1074);
#871=LINE('',#2095,#1075);
#872=LINE('',#2097,#1076);
#873=LINE('',#2099,#1077);
#874=LINE('',#2101,#1078);
#875=LINE('',#2103,#1079);
#876=LINE('',#2105,#1080);
#877=LINE('',#2107,#1081);
#878=LINE('',#2109,#1082);
#879=LINE('',#2111,#1083);
#880=LINE('',#2113,#1084);
#881=LINE('',#2115,#1085);
#882=LINE('',#2117,#1086);
#883=LINE('',#2119,#1087);
#884=LINE('',#2121,#1088);
#885=LINE('',#2123,#1089);
#886=LINE('',#2125,#1090);
#887=LINE('',#2127,#1091);
#888=LINE('',#2129,#1092);
#889=LINE('',#2131,#1093);
#890=LINE('',#2133,#1094);
#891=LINE('',#2135,#1095);
#892=LINE('',#2137,#1096);
#893=LINE('',#2139,#1097);
#894=LINE('',#2141,#1098);
#895=LINE('',#2143,#1099);
#896=LINE('',#2145,#1100);
#897=LINE('',#2147,#1101);
#898=LINE('',#2149,#1102);
#899=LINE('',#2151,#1103);
#900=LINE('',#2153,#1104);
#901=LINE('',#2155,#1105);
#902=LINE('',#2157,#1106);
#903=LINE('',#2159,#1107);
#904=LINE('',#2161,#1108);
#905=LINE('',#2163,#1109);
#906=LINE('',#2165,#1110);
#907=LINE('',#2167,#1111);
#908=LINE('',#2169,#1112);
#909=LINE('',#2171,#1113);
#910=LINE('',#2173,#1114);
#911=LINE('',#2175,#1115);
#912=LINE('',#2177,#1116);
#913=LINE('',#2179,#1117);
#914=LINE('',#2181,#1118);
#915=LINE('',#2183,#1119);
#916=LINE('',#2185,#1120);
#917=LINE('',#2187,#1121);
#918=LINE('',#2189,#1122);
#919=LINE('',#2191,#1123);
#920=LINE('',#2193,#1124);
#921=LINE('',#2195,#1125);
#922=LINE('',#2197,#1126);
#923=LINE('',#2199,#1127);
#924=LINE('',#2201,#1128);
#925=LINE('',#2203,#1129);
#926=LINE('',#2205,#1130);
#927=LINE('',#2207,#1131);
#928=LINE('',#2209,#1132);
#929=LINE('',#2211,#1133);
#930=LINE('',#2213,#1134);
#931=LINE('',#2215,#1135);
#932=LINE('',#2217,#1136);
#933=LINE('',#2219,#1137);
#934=LINE('',#2221,#1138);
#935=LINE('',#2223,#1139);
#936=LINE('',#2225,#1140);
#937=LINE('',#2227,#1141);
#938=LINE('',#2229,#1142);
#939=LINE('',#2231,#1143);
#940=LINE('',#2233,#1144);
#941=LINE('',#2235,#1145);
#942=LINE('',#2237,#1146);
#943=LINE('',#2239,#1147);
#944=LINE('',#2241,#1148);
#945=LINE('',#2243,#1149);
#946=LINE('',#2245,#1150);
#947=LINE('',#2247,#1151);
#948=LINE('',#2249,#1152);
#949=LINE('',#2251,#1153);
#950=LINE('',#2253,#1154);
#951=LINE('',#2255,#1155);
#952=LINE('',#2257,#1156);
#953=LINE('',#2259,#1157);
#954=LINE('',#2261,#1158);
#955=LINE('',#2263,#1159);
#956=LINE('',#2265,#1160);
#957=LINE('',#2267,#1161);
#958=LINE('',#2269,#1162);
#959=LINE('',#2271,#1163);
#960=LINE('',#2273,#1164);
#961=LINE('',#2275,#1165);
#962=LINE('',#2277,#1166);
#963=LINE('',#2279,#1167);
#964=LINE('',#2281,#1168);
#965=LINE('',#2283,#1169);
#966=LINE('',#2284,#1170);
#967=LINE('',#2286,#1171);
#968=LINE('',#2288,#1172);
#969=LINE('',#2290,#1173);
#970=LINE('',#2292,#1174);
#971=LINE('',#2294,#1175);
#972=VECTOR('',#1543,1000.);
#973=VECTOR('',#1544,1000.);
#974=VECTOR('',#1545,1000.);
#975=VECTOR('',#1546,1000.);
#976=VECTOR('',#1547,1000.);
#977=VECTOR('',#1548,1000.);
#978=VECTOR('',#1551,1000.);
#979=VECTOR('',#1552,1000.);
#980=VECTOR('',#1553,1000.);
#981=VECTOR('',#1556,1000.);
#982=VECTOR('',#1557,1000.);
#983=VECTOR('',#1558,1000.);
#984=VECTOR('',#1559,1000.);
#985=VECTOR('',#1562,1000.);
#986=VECTOR('',#1563,1000.);
#987=VECTOR('',#1564,1000.);
#988=VECTOR('',#1565,1000.);
#989=VECTOR('',#1568,1000.);
#990=VECTOR('',#1569,1000.);
#991=VECTOR('',#1570,1000.);
#992=VECTOR('',#1571,1000.);
#993=VECTOR('',#1572,1000.);
#994=VECTOR('',#1573,1000.);
#995=VECTOR('',#1574,1000.);
#996=VECTOR('',#1575,1000.);
#997=VECTOR('',#1576,1000.);
#998=VECTOR('',#1577,1000.);
#999=VECTOR('',#1578,1000.);
#1000=VECTOR('',#1579,1000.);
#1001=VECTOR('',#1580,1000.);
#1002=VECTOR('',#1581,1000.);
#1003=VECTOR('',#1582,1000.);
#1004=VECTOR('',#1583,1000.);
#1005=VECTOR('',#1584,1000.);
#1006=VECTOR('',#1585,1000.);
#1007=VECTOR('',#1586,1000.);
#1008=VECTOR('',#1587,1000.);
#1009=VECTOR('',#1588,1000.);
#1010=VECTOR('',#1589,1000.);
#1011=VECTOR('',#1590,1000.);
#1012=VECTOR('',#1591,1000.);
#1013=VECTOR('',#1592,1000.);
#1014=VECTOR('',#1593,1000.);
#1015=VECTOR('',#1594,1000.);
#1016=VECTOR('',#1595,1000.);
#1017=VECTOR('',#1596,1000.);
#1018=VECTOR('',#1597,1000.);
#1019=VECTOR('',#1598,1000.);
#1020=VECTOR('',#1599,1000.);
#1021=VECTOR('',#1600,1000.);
#1022=VECTOR('',#1601,1000.);
#1023=VECTOR('',#1602,1000.);
#1024=VECTOR('',#1603,1000.);
#1025=VECTOR('',#1604,1000.);
#1026=VECTOR('',#1605,1000.);
#1027=VECTOR('',#1606,1000.);
#1028=VECTOR('',#1607,1000.);
#1029=VECTOR('',#1608,1000.);
#1030=VECTOR('',#1609,1000.);
#1031=VECTOR('',#1610,1000.);
#1032=VECTOR('',#1611,1000.);
#1033=VECTOR('',#1612,1000.);
#1034=VECTOR('',#1613,1000.);
#1035=VECTOR('',#1614,1000.);
#1036=VECTOR('',#1615,1000.);
#1037=VECTOR('',#1616,1000.);
#1038=VECTOR('',#1617,1000.);
#1039=VECTOR('',#1618,1000.);
#1040=VECTOR('',#1619,1000.);
#1041=VECTOR('',#1620,1000.);
#1042=VECTOR('',#1621,1000.);
#1043=VECTOR('',#1622,1000.);
#1044=VECTOR('',#1623,1000.);
#1045=VECTOR('',#1624,1000.);
#1046=VECTOR('',#1627,1000.);
#1047=VECTOR('',#1628,1000.);
#1048=VECTOR('',#1631,1000.);
#1049=VECTOR('',#1632,1000.);
#1050=VECTOR('',#1633,1000.);
#1051=VECTOR('',#1634,1000.);
#1052=VECTOR('',#1637,1000.);
#1053=VECTOR('',#1638,1000.);
#1054=VECTOR('',#1639,1000.);
#1055=VECTOR('',#1640,1000.);
#1056=VECTOR('',#1641,1000.);
#1057=VECTOR('',#1644,1000.);
#1058=VECTOR('',#1645,1000.);
#1059=VECTOR('',#1648,1000.);
#1060=VECTOR('',#1649,1000.);
#1061=VECTOR('',#1652,1000.);
#1062=VECTOR('',#1653,1000.);
#1063=VECTOR('',#1656,1000.);
#1064=VECTOR('',#1657,1000.);
#1065=VECTOR('',#1660,1000.);
#1066=VECTOR('',#1661,1000.);
#1067=VECTOR('',#1664,1000.);
#1068=VECTOR('',#1665,1000.);
#1069=VECTOR('',#1668,1000.);
#1070=VECTOR('',#1669,1000.);
#1071=VECTOR('',#1672,1000.);
#1072=VECTOR('',#1673,1000.);
#1073=VECTOR('',#1676,1000.);
#1074=VECTOR('',#1677,1000.);
#1075=VECTOR('',#1680,1000.);
#1076=VECTOR('',#1681,1000.);
#1077=VECTOR('',#1684,1000.);
#1078=VECTOR('',#1685,1000.);
#1079=VECTOR('',#1688,1000.);
#1080=VECTOR('',#1689,1000.);
#1081=VECTOR('',#1692,1000.);
#1082=VECTOR('',#1693,1000.);
#1083=VECTOR('',#1696,1000.);
#1084=VECTOR('',#1697,1000.);
#1085=VECTOR('',#1700,1000.);
#1086=VECTOR('',#1701,1000.);
#1087=VECTOR('',#1704,1000.);
#1088=VECTOR('',#1705,1000.);
#1089=VECTOR('',#1708,1000.);
#1090=VECTOR('',#1709,1000.);
#1091=VECTOR('',#1712,1000.);
#1092=VECTOR('',#1713,1000.);
#1093=VECTOR('',#1716,1000.);
#1094=VECTOR('',#1717,1000.);
#1095=VECTOR('',#1720,1000.);
#1096=VECTOR('',#1721,1000.);
#1097=VECTOR('',#1724,1000.);
#1098=VECTOR('',#1725,1000.);
#1099=VECTOR('',#1728,1000.);
#1100=VECTOR('',#1729,1000.);
#1101=VECTOR('',#1732,1000.);
#1102=VECTOR('',#1733,1000.);
#1103=VECTOR('',#1736,1000.);
#1104=VECTOR('',#1737,1000.);
#1105=VECTOR('',#1740,1000.);
#1106=VECTOR('',#1741,1000.);
#1107=VECTOR('',#1744,1000.);
#1108=VECTOR('',#1745,1000.);
#1109=VECTOR('',#1748,1000.);
#1110=VECTOR('',#1749,1000.);
#1111=VECTOR('',#1752,1000.);
#1112=VECTOR('',#1753,1000.);
#1113=VECTOR('',#1756,1000.);
#1114=VECTOR('',#1757,1000.);
#1115=VECTOR('',#1760,1000.);
#1116=VECTOR('',#1761,1000.);
#1117=VECTOR('',#1764,1000.);
#1118=VECTOR('',#1765,1000.);
#1119=VECTOR('',#1768,1000.);
#1120=VECTOR('',#1769,1000.);
#1121=VECTOR('',#1772,1000.);
#1122=VECTOR('',#1773,1000.);
#1123=VECTOR('',#1776,1000.);
#1124=VECTOR('',#1777,1000.);
#1125=VECTOR('',#1780,1000.);
#1126=VECTOR('',#1781,1000.);
#1127=VECTOR('',#1784,1000.);
#1128=VECTOR('',#1785,1000.);
#1129=VECTOR('',#1788,1000.);
#1130=VECTOR('',#1789,1000.);
#1131=VECTOR('',#1792,1000.);
#1132=VECTOR('',#1793,1000.);
#1133=VECTOR('',#1796,1000.);
#1134=VECTOR('',#1797,1000.);
#1135=VECTOR('',#1800,1000.);
#1136=VECTOR('',#1801,1000.);
#1137=VECTOR('',#1804,1000.);
#1138=VECTOR('',#1805,1000.);
#1139=VECTOR('',#1808,1000.);
#1140=VECTOR('',#1809,1000.);
#1141=VECTOR('',#1812,1000.);
#1142=VECTOR('',#1813,1000.);
#1143=VECTOR('',#1816,1000.);
#1144=VECTOR('',#1817,1000.);
#1145=VECTOR('',#1820,1000.);
#1146=VECTOR('',#1821,1000.);
#1147=VECTOR('',#1824,1000.);
#1148=VECTOR('',#1825,1000.);
#1149=VECTOR('',#1828,1000.);
#1150=VECTOR('',#1829,1000.);
#1151=VECTOR('',#1832,1000.);
#1152=VECTOR('',#1833,1000.);
#1153=VECTOR('',#1836,1000.);
#1154=VECTOR('',#1837,1000.);
#1155=VECTOR('',#1840,1000.);
#1156=VECTOR('',#1841,1000.);
#1157=VECTOR('',#1844,1000.);
#1158=VECTOR('',#1845,1000.);
#1159=VECTOR('',#1848,1000.);
#1160=VECTOR('',#1849,1000.);
#1161=VECTOR('',#1852,1000.);
#1162=VECTOR('',#1853,1000.);
#1163=VECTOR('',#1856,1000.);
#1164=VECTOR('',#1857,1000.);
#1165=VECTOR('',#1860,1000.);
#1166=VECTOR('',#1861,1000.);
#1167=VECTOR('',#1864,1000.);
#1168=VECTOR('',#1867,1000.);
#1169=VECTOR('',#1870,1000.);
#1170=VECTOR('',#1871,1000.);
#1171=VECTOR('',#1874,1000.);
#1172=VECTOR('',#1875,1000.);
#1173=VECTOR('',#1876,1000.);
#1174=VECTOR('',#1879,1000.);
#1175=VECTOR('',#1882,1000.);
#1176=EDGE_LOOP('',(#20,#21,#22,#23,#24,#25));
#1177=EDGE_LOOP('',(#26,#27,#28,#29));
#1178=EDGE_LOOP('',(#30,#31,#32,#33));
#1179=EDGE_LOOP('',(#34,#35,#36,#37));
#1180=EDGE_LOOP('',(#38,#39,#40,#41,#42,#43,#44,#45,#46,#47,#48,#49,#50,
#51,#52,#53,#54,#55,#56,#57,#58,#59,#60,#61,#62,#63,#64,#65,#66,#67,#68,
#69,#70,#71,#72,#73,#74,#75,#76,#77,#78,#79,#80,#81,#82,#83,#84,#85,#86,
#87,#88,#89,#90,#91,#92,#93,#94,#95,#96));
#1181=EDGE_LOOP('',(#97,#98,#99,#100));
#1182=EDGE_LOOP('',(#101,#102,#103,#104));
#1183=EDGE_LOOP('',(#105,#106,#107,#108,#109,#110,#111,#112));
#1184=EDGE_LOOP('',(#113,#114,#115,#116));
#1185=EDGE_LOOP('',(#117,#118,#119,#120));
#1186=EDGE_LOOP('',(#121,#122,#123,#124));
#1187=EDGE_LOOP('',(#125,#126,#127,#128));
#1188=EDGE_LOOP('',(#129,#130,#131,#132));
#1189=EDGE_LOOP('',(#133,#134,#135,#136));
#1190=EDGE_LOOP('',(#137,#138,#139,#140));
#1191=EDGE_LOOP('',(#141,#142,#143,#144));
#1192=EDGE_LOOP('',(#145,#146,#147,#148));
#1193=EDGE_LOOP('',(#149,#150,#151,#152));
#1194=EDGE_LOOP('',(#153,#154,#155,#156));
#1195=EDGE_LOOP('',(#157,#158,#159,#160));
#1196=EDGE_LOOP('',(#161,#162,#163,#164));
#1197=EDGE_LOOP('',(#165,#166,#167,#168));
#1198=EDGE_LOOP('',(#169,#170,#171,#172));
#1199=EDGE_LOOP('',(#173,#174,#175,#176));
#1200=EDGE_LOOP('',(#177,#178,#179,#180));
#1201=EDGE_LOOP('',(#181,#182,#183,#184));
#1202=EDGE_LOOP('',(#185,#186,#187,#188));
#1203=EDGE_LOOP('',(#189,#190,#191,#192));
#1204=EDGE_LOOP('',(#193,#194,#195,#196));
#1205=EDGE_LOOP('',(#197,#198,#199,#200));
#1206=EDGE_LOOP('',(#201,#202,#203,#204));
#1207=EDGE_LOOP('',(#205,#206,#207,#208));
#1208=EDGE_LOOP('',(#209,#210,#211,#212));
#1209=EDGE_LOOP('',(#213,#214,#215,#216));
#1210=EDGE_LOOP('',(#217,#218,#219,#220));
#1211=EDGE_LOOP('',(#221,#222,#223,#224));
#1212=EDGE_LOOP('',(#225,#226,#227,#228));
#1213=EDGE_LOOP('',(#229,#230,#231,#232));
#1214=EDGE_LOOP('',(#233,#234,#235,#236));
#1215=EDGE_LOOP('',(#237,#238,#239,#240));
#1216=EDGE_LOOP('',(#241,#242,#243,#244));
#1217=EDGE_LOOP('',(#245,#246,#247,#248));
#1218=EDGE_LOOP('',(#249,#250,#251,#252));
#1219=EDGE_LOOP('',(#253,#254,#255,#256));
#1220=EDGE_LOOP('',(#257,#258,#259,#260));
#1221=EDGE_LOOP('',(#261,#262,#263,#264));
#1222=EDGE_LOOP('',(#265,#266,#267,#268));
#1223=EDGE_LOOP('',(#269,#270,#271,#272));
#1224=EDGE_LOOP('',(#273,#274,#275,#276));
#1225=EDGE_LOOP('',(#277,#278,#279,#280));
#1226=EDGE_LOOP('',(#281,#282,#283,#284));
#1227=EDGE_LOOP('',(#285,#286,#287,#288));
#1228=EDGE_LOOP('',(#289,#290,#291,#292));
#1229=EDGE_LOOP('',(#293,#294,#295,#296));
#1230=EDGE_LOOP('',(#297,#298,#299,#300));
#1231=EDGE_LOOP('',(#301,#302,#303,#304));
#1232=EDGE_LOOP('',(#305,#306,#307,#308));
#1233=EDGE_LOOP('',(#309,#310,#311,#312));
#1234=EDGE_LOOP('',(#313,#314,#315,#316));
#1235=EDGE_LOOP('',(#317,#318,#319,#320));
#1236=EDGE_LOOP('',(#321,#322,#323,#324));
#1237=EDGE_LOOP('',(#325,#326,#327,#328));
#1238=EDGE_LOOP('',(#329,#330,#331,#332));
#1239=EDGE_LOOP('',(#333,#334,#335,#336));
#1240=EDGE_LOOP('',(#337,#338,#339,#340));
#1241=EDGE_LOOP('',(#341,#342,#343,#344,#345,#346,#347,#348,#349,#350,#351,
#352,#353,#354,#355,#356,#357,#358,#359,#360,#361,#362,#363,#364,#365,#366,
#367,#368,#369,#370,#371,#372,#373,#374,#375,#376,#377,#378,#379,#380,#381,
#382,#383,#384,#385,#386,#387,#388,#389,#390,#391,#392,#393,#394,#395,#396,
#397,#398,#399,#400,#401,#402,#403,#404,#405));
#1242=EDGE_LOOP('',(#406,#407,#408,#409,#410,#411,#412,#413,#414,#415));
#1243=EDGE_LOOP('',(#416,#417,#418,#419));
#1244=EDGE_LOOP('',(#420,#421,#422,#423));
#1245=EDGE_LOOP('',(#424,#425,#426,#427));
#1246=FACE_BOUND('',#1176,.T.);
#1247=FACE_BOUND('',#1177,.T.);
#1248=FACE_BOUND('',#1178,.T.);
#1249=FACE_BOUND('',#1179,.T.);
#1250=FACE_BOUND('',#1180,.T.);
#1251=FACE_BOUND('',#1181,.T.);
#1252=FACE_BOUND('',#1182,.T.);
#1253=FACE_BOUND('',#1183,.T.);
#1254=FACE_BOUND('',#1184,.T.);
#1255=FACE_BOUND('',#1185,.T.);
#1256=FACE_BOUND('',#1186,.T.);
#1257=FACE_BOUND('',#1187,.T.);
#1258=FACE_BOUND('',#1188,.T.);
#1259=FACE_BOUND('',#1189,.T.);
#1260=FACE_BOUND('',#1190,.T.);
#1261=FACE_BOUND('',#1191,.T.);
#1262=FACE_BOUND('',#1192,.T.);
#1263=FACE_BOUND('',#1193,.T.);
#1264=FACE_BOUND('',#1194,.T.);
#1265=FACE_BOUND('',#1195,.T.);
#1266=FACE_BOUND('',#1196,.T.);
#1267=FACE_BOUND('',#1197,.T.);
#1268=FACE_BOUND('',#1198,.T.);
#1269=FACE_BOUND('',#1199,.T.);
#1270=FACE_BOUND('',#1200,.T.);
#1271=FACE_BOUND('',#1201,.T.);
#1272=FACE_BOUND('',#1202,.T.);
#1273=FACE_BOUND('',#1203,.T.);
#1274=FACE_BOUND('',#1204,.T.);
#1275=FACE_BOUND('',#1205,.T.);
#1276=FACE_BOUND('',#1206,.T.);
#1277=FACE_BOUND('',#1207,.T.);
#1278=FACE_BOUND('',#1208,.T.);
#1279=FACE_BOUND('',#1209,.T.);
#1280=FACE_BOUND('',#1210,.T.);
#1281=FACE_BOUND('',#1211,.T.);
#1282=FACE_BOUND('',#1212,.T.);
#1283=FACE_BOUND('',#1213,.T.);
#1284=FACE_BOUND('',#1214,.T.);
#1285=FACE_BOUND('',#1215,.T.);
#1286=FACE_BOUND('',#1216,.T.);
#1287=FACE_BOUND('',#1217,.T.);
#1288=FACE_BOUND('',#1218,.T.);
#1289=FACE_BOUND('',#1219,.T.);
#1290=FACE_BOUND('',#1220,.T.);
#1291=FACE_BOUND('',#1221,.T.);
#1292=FACE_BOUND('',#1222,.T.);
#1293=FACE_BOUND('',#1223,.T.);
#1294=FACE_BOUND('',#1224,.T.);
#1295=FACE_BOUND('',#1225,.T.);
#1296=FACE_BOUND('',#1226,.T.);
#1297=FACE_BOUND('',#1227,.T.);
#1298=FACE_BOUND('',#1228,.T.);
#1299=FACE_BOUND('',#1229,.T.);
#1300=FACE_BOUND('',#1230,.T.);
#1301=FACE_BOUND('',#1231,.T.);
#1302=FACE_BOUND('',#1232,.T.);
#1303=FACE_BOUND('',#1233,.T.);
#1304=FACE_BOUND('',#1234,.T.);
#1305=FACE_BOUND('',#1235,.T.);
#1306=FACE_BOUND('',#1236,.T.);
#1307=FACE_BOUND('',#1237,.T.);
#1308=FACE_BOUND('',#1238,.T.);
#1309=FACE_BOUND('',#1239,.T.);
#1310=FACE_BOUND('',#1240,.T.);
#1311=FACE_BOUND('',#1241,.T.);
#1312=FACE_BOUND('',#1242,.T.);
#1313=FACE_BOUND('',#1243,.T.);
#1314=FACE_BOUND('',#1244,.T.);
#1315=FACE_BOUND('',#1245,.T.);
#1316=PLANE('',#1469);
#1317=PLANE('',#1470);
#1318=PLANE('',#1471);
#1319=PLANE('',#1472);
#1320=PLANE('',#1473);
#1321=PLANE('',#1474);
#1322=PLANE('',#1475);
#1323=PLANE('',#1476);
#1324=PLANE('',#1477);
#1325=PLANE('',#1478);
#1326=PLANE('',#1479);
#1327=PLANE('',#1480);
#1328=PLANE('',#1481);
#1329=PLANE('',#1482);
#1330=PLANE('',#1483);
#1331=PLANE('',#1484);
#1332=PLANE('',#1485);
#1333=PLANE('',#1486);
#1334=PLANE('',#1487);
#1335=PLANE('',#1488);
#1336=PLANE('',#1489);
#1337=PLANE('',#1490);
#1338=PLANE('',#1491);
#1339=PLANE('',#1492);
#1340=PLANE('',#1493);
#1341=PLANE('',#1494);
#1342=PLANE('',#1495);
#1343=PLANE('',#1496);
#1344=PLANE('',#1497);
#1345=PLANE('',#1498);
#1346=PLANE('',#1499);
#1347=PLANE('',#1500);
#1348=PLANE('',#1501);
#1349=PLANE('',#1502);
#1350=PLANE('',#1503);
#1351=PLANE('',#1504);
#1352=PLANE('',#1505);
#1353=PLANE('',#1506);
#1354=PLANE('',#1507);
#1355=PLANE('',#1508);
#1356=PLANE('',#1509);
#1357=PLANE('',#1510);
#1358=PLANE('',#1511);
#1359=PLANE('',#1512);
#1360=PLANE('',#1513);
#1361=PLANE('',#1514);
#1362=PLANE('',#1515);
#1363=PLANE('',#1516);
#1364=PLANE('',#1517);
#1365=PLANE('',#1518);
#1366=PLANE('',#1519);
#1367=PLANE('',#1520);
#1368=PLANE('',#1521);
#1369=PLANE('',#1522);
#1370=PLANE('',#1523);
#1371=PLANE('',#1524);
#1372=PLANE('',#1525);
#1373=PLANE('',#1526);
#1374=PLANE('',#1527);
#1375=PLANE('',#1528);
#1376=PLANE('',#1529);
#1377=PLANE('',#1530);
#1378=PLANE('',#1531);
#1379=PLANE('',#1532);
#1380=PLANE('',#1533);
#1381=PLANE('',#1534);
#1382=PLANE('',#1535);
#1383=PLANE('',#1536);
#1384=PLANE('',#1537);
#1385=PLANE('',#1538);
#1386=ADVANCED_FACE('',(#1246),#1316,.F.);
#1387=ADVANCED_FACE('',(#1247),#1317,.F.);
#1388=ADVANCED_FACE('',(#1248),#1318,.F.);
#1389=ADVANCED_FACE('',(#1249),#1319,.F.);
#1390=ADVANCED_FACE('',(#1250),#1320,.T.);
#1391=ADVANCED_FACE('',(#1251),#1321,.T.);
#1392=ADVANCED_FACE('',(#1252),#1322,.F.);
#1393=ADVANCED_FACE('',(#1253),#1323,.F.);
#1394=ADVANCED_FACE('',(#1254),#1324,.F.);
#1395=ADVANCED_FACE('',(#1255),#1325,.F.);
#1396=ADVANCED_FACE('',(#1256),#1326,.F.);
#1397=ADVANCED_FACE('',(#1257),#1327,.F.);
#1398=ADVANCED_FACE('',(#1258),#1328,.F.);
#1399=ADVANCED_FACE('',(#1259),#1329,.F.);
#1400=ADVANCED_FACE('',(#1260),#1330,.F.);
#1401=ADVANCED_FACE('',(#1261),#1331,.F.);
#1402=ADVANCED_FACE('',(#1262),#1332,.F.);
#1403=ADVANCED_FACE('',(#1263),#1333,.F.);
#1404=ADVANCED_FACE('',(#1264),#1334,.F.);
#1405=ADVANCED_FACE('',(#1265),#1335,.F.);
#1406=ADVANCED_FACE('',(#1266),#1336,.F.);
#1407=ADVANCED_FACE('',(#1267),#1337,.F.);
#1408=ADVANCED_FACE('',(#1268),#1338,.F.);
#1409=ADVANCED_FACE('',(#1269),#1339,.F.);
#1410=ADVANCED_FACE('',(#1270),#1340,.F.);
#1411=ADVANCED_FACE('',(#1271),#1341,.F.);
#1412=ADVANCED_FACE('',(#1272),#1342,.F.);
#1413=ADVANCED_FACE('',(#1273),#1343,.F.);
#1414=ADVANCED_FACE('',(#1274),#1344,.F.);
#1415=ADVANCED_FACE('',(#1275),#1345,.F.);
#1416=ADVANCED_FACE('',(#1276),#1346,.F.);
#1417=ADVANCED_FACE('',(#1277),#1347,.F.);
#1418=ADVANCED_FACE('',(#1278),#1348,.F.);
#1419=ADVANCED_FACE('',(#1279),#1349,.F.);
#1420=ADVANCED_FACE('',(#1280),#1350,.F.);
#1421=ADVANCED_FACE('',(#1281),#1351,.F.);
#1422=ADVANCED_FACE('',(#1282),#1352,.F.);
#1423=ADVANCED_FACE('',(#1283),#1353,.F.);
#1424=ADVANCED_FACE('',(#1284),#1354,.F.);
#1425=ADVANCED_FACE('',(#1285),#1355,.F.);
#1426=ADVANCED_FACE('',(#1286),#1356,.F.);
#1427=ADVANCED_FACE('',(#1287),#1357,.F.);
#1428=ADVANCED_FACE('',(#1288),#1358,.F.);
#1429=ADVANCED_FACE('',(#1289),#1359,.F.);
#1430=ADVANCED_FACE('',(#1290),#1360,.F.);
#1431=ADVANCED_FACE('',(#1291),#1361,.F.);
#1432=ADVANCED_FACE('',(#1292),#1362,.F.);
#1433=ADVANCED_FACE('',(#1293),#1363,.F.);
#1434=ADVANCED_FACE('',(#1294),#1364,.F.);
#1435=ADVANCED_FACE('',(#1295),#1365,.F.);
#1436=ADVANCED_FACE('',(#1296),#1366,.F.);
#1437=ADVANCED_FACE('',(#1297),#1367,.F.);
#1438=ADVANCED_FACE('',(#1298),#1368,.F.);
#1439=ADVANCED_FACE('',(#1299),#1369,.F.);
#1440=ADVANCED_FACE('',(#1300),#1370,.F.);
#1441=ADVANCED_FACE('',(#1301),#1371,.F.);
#1442=ADVANCED_FACE('',(#1302),#1372,.F.);
#1443=ADVANCED_FACE('',(#1303),#1373,.F.);
#1444=ADVANCED_FACE('',(#1304),#1374,.F.);
#1445=ADVANCED_FACE('',(#1305),#1375,.F.);
#1446=ADVANCED_FACE('',(#1306),#1376,.F.);
#1447=ADVANCED_FACE('',(#1307),#1377,.F.);
#1448=ADVANCED_FACE('',(#1308),#1378,.F.);
#1449=ADVANCED_FACE('',(#1309),#1379,.F.);
#1450=ADVANCED_FACE('',(#1310),#1380,.F.);
#1451=ADVANCED_FACE('',(#1311),#1381,.F.);
#1452=ADVANCED_FACE('',(#1312),#1382,.F.);
#1453=ADVANCED_FACE('',(#1313),#1383,.T.);
#1454=ADVANCED_FACE('',(#1314),#1384,.F.);
#1455=ADVANCED_FACE('',(#1315),#1385,.F.);
#1456=CLOSED_SHELL('',(#1386,#1387,#1388,#1389,#1390,#1391,#1392,#1393,
#1394,#1395,#1396,#1397,#1398,#1399,#1400,#1401,#1402,#1403,#1404,#1405,
#1406,#1407,#1408,#1409,#1410,#1411,#1412,#1413,#1414,#1415,#1416,#1417,
#1418,#1419,#1420,#1421,#1422,#1423,#1424,#1425,#1426,#1427,#1428,#1429,
#1430,#1431,#1432,#1433,#1434,#1435,#1436,#1437,#1438,#1439,#1440,#1441,
#1442,#1443,#1444,#1445,#1446,#1447,#1448,#1449,#1450,#1451,#1452,#1453,
#1454,#1455));
#1457=STYLED_ITEM('',(#1458),#1465);
#1458=PRESENTATION_STYLE_ASSIGNMENT((#1459));
#1459=SURFACE_STYLE_USAGE(.BOTH.,#1460);
#1460=SURFACE_SIDE_STYLE('',(#1461));
#1461=SURFACE_STYLE_FILL_AREA(#1462);
#1462=FILL_AREA_STYLE('',(#1463));
#1463=FILL_AREA_STYLE_COLOUR('',#1464);
#1464=COLOUR_RGB('',0.680000007152557,0.819999992847443,0.600000023841858);
#1465=MANIFOLD_SOLID_BREP('',#1456);
#1466=SHAPE_DEFINITION_REPRESENTATION(#2302,#1467);
#1467=SHAPE_REPRESENTATION('G03_integral_rack_and_finger',(#1468),#2297);
#1468=AXIS2_PLACEMENT_3D('',#1885,#1539,#1540);
#1469=AXIS2_PLACEMENT_3D('',#1886,#1541,#1542);
#1470=AXIS2_PLACEMENT_3D('',#1899,#1549,#1550);
#1471=AXIS2_PLACEMENT_3D('',#1905,#1554,#1555);
#1472=AXIS2_PLACEMENT_3D('',#1914,#1560,#1561);
#1473=AXIS2_PLACEMENT_3D('',#1923,#1566,#1567);
#1474=AXIS2_PLACEMENT_3D('',#2037,#1625,#1626);
#1475=AXIS2_PLACEMENT_3D('',#2040,#1629,#1630);
#1476=AXIS2_PLACEMENT_3D('',#2049,#1635,#1636);
#1477=AXIS2_PLACEMENT_3D('',#2058,#1642,#1643);
#1478=AXIS2_PLACEMENT_3D('',#2062,#1646,#1647);
#1479=AXIS2_PLACEMENT_3D('',#2066,#1650,#1651);
#1480=AXIS2_PLACEMENT_3D('',#2070,#1654,#1655);
#1481=AXIS2_PLACEMENT_3D('',#2074,#1658,#1659);
#1482=AXIS2_PLACEMENT_3D('',#2078,#1662,#1663);
#1483=AXIS2_PLACEMENT_3D('',#2082,#1666,#1667);
#1484=AXIS2_PLACEMENT_3D('',#2086,#1670,#1671);
#1485=AXIS2_PLACEMENT_3D('',#2090,#1674,#1675);
#1486=AXIS2_PLACEMENT_3D('',#2094,#1678,#1679);
#1487=AXIS2_PLACEMENT_3D('',#2098,#1682,#1683);
#1488=AXIS2_PLACEMENT_3D('',#2102,#1686,#1687);
#1489=AXIS2_PLACEMENT_3D('',#2106,#1690,#1691);
#1490=AXIS2_PLACEMENT_3D('',#2110,#1694,#1695);
#1491=AXIS2_PLACEMENT_3D('',#2114,#1698,#1699);
#1492=AXIS2_PLACEMENT_3D('',#2118,#1702,#1703);
#1493=AXIS2_PLACEMENT_3D('',#2122,#1706,#1707);
#1494=AXIS2_PLACEMENT_3D('',#2126,#1710,#1711);
#1495=AXIS2_PLACEMENT_3D('',#2130,#1714,#1715);
#1496=AXIS2_PLACEMENT_3D('',#2134,#1718,#1719);
#1497=AXIS2_PLACEMENT_3D('',#2138,#1722,#1723);
#1498=AXIS2_PLACEMENT_3D('',#2142,#1726,#1727);
#1499=AXIS2_PLACEMENT_3D('',#2146,#1730,#1731);
#1500=AXIS2_PLACEMENT_3D('',#2150,#1734,#1735);
#1501=AXIS2_PLACEMENT_3D('',#2154,#1738,#1739);
#1502=AXIS2_PLACEMENT_3D('',#2158,#1742,#1743);
#1503=AXIS2_PLACEMENT_3D('',#2162,#1746,#1747);
#1504=AXIS2_PLACEMENT_3D('',#2166,#1750,#1751);
#1505=AXIS2_PLACEMENT_3D('',#2170,#1754,#1755);
#1506=AXIS2_PLACEMENT_3D('',#2174,#1758,#1759);
#1507=AXIS2_PLACEMENT_3D('',#2178,#1762,#1763);
#1508=AXIS2_PLACEMENT_3D('',#2182,#1766,#1767);
#1509=AXIS2_PLACEMENT_3D('',#2186,#1770,#1771);
#1510=AXIS2_PLACEMENT_3D('',#2190,#1774,#1775);
#1511=AXIS2_PLACEMENT_3D('',#2194,#1778,#1779);
#1512=AXIS2_PLACEMENT_3D('',#2198,#1782,#1783);
#1513=AXIS2_PLACEMENT_3D('',#2202,#1786,#1787);
#1514=AXIS2_PLACEMENT_3D('',#2206,#1790,#1791);
#1515=AXIS2_PLACEMENT_3D('',#2210,#1794,#1795);
#1516=AXIS2_PLACEMENT_3D('',#2214,#1798,#1799);
#1517=AXIS2_PLACEMENT_3D('',#2218,#1802,#1803);
#1518=AXIS2_PLACEMENT_3D('',#2222,#1806,#1807);
#1519=AXIS2_PLACEMENT_3D('',#2226,#1810,#1811);
#1520=AXIS2_PLACEMENT_3D('',#2230,#1814,#1815);
#1521=AXIS2_PLACEMENT_3D('',#2234,#1818,#1819);
#1522=AXIS2_PLACEMENT_3D('',#2238,#1822,#1823);
#1523=AXIS2_PLACEMENT_3D('',#2242,#1826,#1827);
#1524=AXIS2_PLACEMENT_3D('',#2246,#1830,#1831);
#1525=AXIS2_PLACEMENT_3D('',#2250,#1834,#1835);
#1526=AXIS2_PLACEMENT_3D('',#2254,#1838,#1839);
#1527=AXIS2_PLACEMENT_3D('',#2258,#1842,#1843);
#1528=AXIS2_PLACEMENT_3D('',#2262,#1846,#1847);
#1529=AXIS2_PLACEMENT_3D('',#2266,#1850,#1851);
#1530=AXIS2_PLACEMENT_3D('',#2270,#1854,#1855);
#1531=AXIS2_PLACEMENT_3D('',#2274,#1858,#1859);
#1532=AXIS2_PLACEMENT_3D('',#2278,#1862,#1863);
#1533=AXIS2_PLACEMENT_3D('',#2280,#1865,#1866);
#1534=AXIS2_PLACEMENT_3D('',#2282,#1868,#1869);
#1535=AXIS2_PLACEMENT_3D('',#2285,#1872,#1873);
#1536=AXIS2_PLACEMENT_3D('',#2291,#1877,#1878);
#1537=AXIS2_PLACEMENT_3D('',#2293,#1880,#1881);
#1538=AXIS2_PLACEMENT_3D('',#2295,#1883,#1884);
#1539=DIRECTION('',(0.,0.,1.));
#1540=DIRECTION('',(1.,0.,0.));
#1541=DIRECTION('',(-1.,0.,0.));
#1542=DIRECTION('',(0.,0.,1.));
#1543=DIRECTION('',(0.,1.,0.));
#1544=DIRECTION('',(0.,0.,-1.));
#1545=DIRECTION('',(0.,-1.,0.));
#1546=DIRECTION('',(0.,0.,-1.));
#1547=DIRECTION('',(0.,1.,0.));
#1548=DIRECTION('',(0.,0.,-1.));
#1549=DIRECTION('',(0.939692620785908,-0.342020143325669,0.));
#1550=DIRECTION('',(0.342020143325669,0.939692620785908,0.));
#1551=DIRECTION('',(-0.342020143325669,-0.939692620785908,0.));
#1552=DIRECTION('',(0.,0.,-1.));
#1553=DIRECTION('',(-0.342020143325669,-0.939692620785908,0.));
#1554=DIRECTION('',(-0.939692620785909,-0.342020143325668,0.));
#1555=DIRECTION('',(0.342020143325668,-0.939692620785909,0.));
#1556=DIRECTION('',(0.,0.,1.));
#1557=DIRECTION('',(-0.342020143325668,0.939692620785909,0.));
#1558=DIRECTION('',(0.,0.,-1.));
#1559=DIRECTION('',(-0.342020143325668,0.939692620785909,0.));
#1560=DIRECTION('',(0.939692620785909,-0.342020143325667,0.));
#1561=DIRECTION('',(0.342020143325667,0.939692620785909,0.));
#1562=DIRECTION('',(0.,0.,-1.));
#1563=DIRECTION('',(-0.342020143325667,-0.939692620785909,0.));
#1564=DIRECTION('',(0.,0.,-1.));
#1565=DIRECTION('',(-0.342020143325667,-0.939692620785909,0.));
#1566=DIRECTION('',(0.,0.,1.));
#1567=DIRECTION('',(1.,0.,0.));
#1568=DIRECTION('',(1.,0.,0.));
#1569=DIRECTION('',(0.,1.,0.));
#1570=DIRECTION('',(-1.,0.,0.));
#1571=DIRECTION('',(-0.342020143325667,0.939692620785909,0.));
#1572=DIRECTION('',(-1.,0.,0.));
#1573=DIRECTION('',(-0.342020143325668,-0.939692620785909,0.));
#1574=DIRECTION('',(-1.,0.,0.));
#1575=DIRECTION('',(-0.342020143325669,0.939692620785908,0.));
#1576=DIRECTION('',(-1.,0.,0.));
#1577=DIRECTION('',(-0.342020143325669,-0.939692620785908,0.));
#1578=DIRECTION('',(-1.,0.,0.));
#1579=DIRECTION('',(-0.342020143325669,0.939692620785908,0.));
#1580=DIRECTION('',(-1.,0.,0.));
#1581=DIRECTION('',(-0.342020143325669,-0.939692620785908,0.));
#1582=DIRECTION('',(-1.,0.,0.));
#1583=DIRECTION('',(-0.342020143325669,0.939692620785908,0.));
#1584=DIRECTION('',(-1.,0.,0.));
#1585=DIRECTION('',(-0.342020143325669,-0.939692620785908,0.));
#1586=DIRECTION('',(-1.,0.,0.));
#1587=DIRECTION('',(-0.342020143325669,0.939692620785908,0.));
#1588=DIRECTION('',(-1.,0.,0.));
#1589=DIRECTION('',(-0.342020143325669,-0.939692620785909,0.));
#1590=DIRECTION('',(-1.,0.,0.));
#1591=DIRECTION('',(-0.342020143325669,0.939692620785908,0.));
#1592=DIRECTION('',(-1.,0.,0.));
#1593=DIRECTION('',(-0.342020143325669,-0.939692620785908,0.));
#1594=DIRECTION('',(-1.,0.,0.));
#1595=DIRECTION('',(-0.342020143325669,0.939692620785908,0.));
#1596=DIRECTION('',(-1.,0.,0.));
#1597=DIRECTION('',(-0.342020143325669,-0.939692620785908,0.));
#1598=DIRECTION('',(-1.,0.,0.));
#1599=DIRECTION('',(-0.342020143325669,0.939692620785908,0.));
#1600=DIRECTION('',(-1.,0.,0.));
#1601=DIRECTION('',(-0.342020143325669,-0.939692620785908,0.));
#1602=DIRECTION('',(-1.,0.,0.));
#1603=DIRECTION('',(-0.342020143325669,0.939692620785908,0.));
#1604=DIRECTION('',(-1.,0.,0.));
#1605=DIRECTION('',(-0.342020143325669,-0.939692620785908,0.));
#1606=DIRECTION('',(-1.,0.,0.));
#1607=DIRECTION('',(-0.342020143325669,0.939692620785908,0.));
#1608=DIRECTION('',(-1.,0.,0.));
#1609=DIRECTION('',(-0.342020143325669,-0.939692620785908,0.));
#1610=DIRECTION('',(-1.,0.,0.));
#1611=DIRECTION('',(-0.342020143325669,0.939692620785909,0.));
#1612=DIRECTION('',(-1.,0.,0.));
#1613=DIRECTION('',(-0.342020143325669,-0.939692620785908,0.));
#1614=DIRECTION('',(-1.,0.,0.));
#1615=DIRECTION('',(-0.342020143325669,0.939692620785908,0.));
#1616=DIRECTION('',(-1.,0.,0.));
#1617=DIRECTION('',(-0.342020143325669,-0.939692620785908,0.));
#1618=DIRECTION('',(-1.,0.,0.));
#1619=DIRECTION('',(-0.342020143325669,0.939692620785908,0.));
#1620=DIRECTION('',(-1.,0.,0.));
#1621=DIRECTION('',(-0.342020143325669,-0.939692620785908,0.));
#1622=DIRECTION('',(-1.,0.,0.));
#1623=DIRECTION('',(-0.342020143325669,0.939692620785908,0.));
#1624=DIRECTION('',(-1.,0.,0.));
#1625=DIRECTION('',(0.,0.,1.));
#1626=DIRECTION('',(1.,0.,0.));
#1627=DIRECTION('',(1.,0.,0.));
#1628=DIRECTION('',(-1.,0.,0.));
#1629=DIRECTION('',(1.,0.,0.));
#1630=DIRECTION('',(0.,0.,-1.));
#1631=DIRECTION('',(0.,0.,-1.));
#1632=DIRECTION('',(0.,-1.,0.));
#1633=DIRECTION('',(0.,0.,-1.));
#1634=DIRECTION('',(0.,-1.,0.));
#1635=DIRECTION('',(0.,1.,0.));
#1636=DIRECTION('',(0.,0.,1.));
#1637=DIRECTION('',(1.,0.,0.));
#1638=DIRECTION('',(0.,0.,-1.));
#1639=DIRECTION('',(1.,0.,0.));
#1640=DIRECTION('',(0.,0.,-1.));
#1641=DIRECTION('',(1.,0.,0.));
#1642=DIRECTION('',(-1.,0.,0.));
#1643=DIRECTION('',(0.,0.,1.));
#1644=DIRECTION('',(0.,1.,0.));
#1645=DIRECTION('',(0.,0.,-1.));
#1646=DIRECTION('',(0.,-1.,0.));
#1647=DIRECTION('',(0.,0.,-1.));
#1648=DIRECTION('',(-1.,0.,0.));
#1649=DIRECTION('',(0.,0.,-1.));
#1650=DIRECTION('',(-0.939692620785909,-0.342020143325667,0.));
#1651=DIRECTION('',(0.342020143325667,-0.939692620785909,0.));
#1652=DIRECTION('',(-0.342020143325667,0.939692620785909,0.));
#1653=DIRECTION('',(0.,0.,-1.));
#1654=DIRECTION('',(0.,-1.,0.));
#1655=DIRECTION('',(0.,0.,-1.));
#1656=DIRECTION('',(-1.,0.,0.));
#1657=DIRECTION('',(0.,0.,-1.));
#1658=DIRECTION('',(0.939692620785909,-0.342020143325668,0.));
#1659=DIRECTION('',(0.342020143325668,0.939692620785909,0.));
#1660=DIRECTION('',(-0.342020143325668,-0.939692620785909,0.));
#1661=DIRECTION('',(0.,0.,-1.));
#1662=DIRECTION('',(0.,-1.,0.));
#1663=DIRECTION('',(0.,0.,-1.));
#1664=DIRECTION('',(-1.,0.,0.));
#1665=DIRECTION('',(0.,0.,-1.));
#1666=DIRECTION('',(-0.939692620785908,-0.342020143325669,0.));
#1667=DIRECTION('',(0.342020143325669,-0.939692620785908,0.));
#1668=DIRECTION('',(-0.342020143325669,0.939692620785908,0.));
#1669=DIRECTION('',(0.,0.,-1.));
#1670=DIRECTION('',(0.,-1.,0.));
#1671=DIRECTION('',(0.,0.,-1.));
#1672=DIRECTION('',(-1.,0.,0.));
#1673=DIRECTION('',(0.,0.,-1.));
#1674=DIRECTION('',(0.939692620785908,-0.342020143325669,0.));
#1675=DIRECTION('',(0.342020143325669,0.939692620785908,0.));
#1676=DIRECTION('',(-0.342020143325669,-0.939692620785908,0.));
#1677=DIRECTION('',(0.,0.,-1.));
#1678=DIRECTION('',(0.,-1.,0.));
#1679=DIRECTION('',(0.,0.,-1.));
#1680=DIRECTION('',(-1.,0.,0.));
#1681=DIRECTION('',(0.,0.,-1.));
#1682=DIRECTION('',(-0.939692620785908,-0.342020143325669,0.));
#1683=DIRECTION('',(0.342020143325669,-0.939692620785908,0.));
#1684=DIRECTION('',(-0.342020143325669,0.939692620785908,0.));
#1685=DIRECTION('',(0.,0.,-1.));
#1686=DIRECTION('',(0.,-1.,0.));
#1687=DIRECTION('',(0.,0.,-1.));
#1688=DIRECTION('',(-1.,0.,0.));
#1689=DIRECTION('',(0.,0.,-1.));
#1690=DIRECTION('',(0.939692620785908,-0.342020143325669,0.));
#1691=DIRECTION('',(0.342020143325669,0.939692620785908,0.));
#1692=DIRECTION('',(-0.342020143325669,-0.939692620785908,0.));
#1693=DIRECTION('',(0.,0.,-1.));
#1694=DIRECTION('',(0.,-1.,0.));
#1695=DIRECTION('',(0.,0.,-1.));
#1696=DIRECTION('',(-1.,0.,0.));
#1697=DIRECTION('',(0.,0.,-1.));
#1698=DIRECTION('',(-0.939692620785908,-0.342020143325669,0.));
#1699=DIRECTION('',(0.342020143325669,-0.939692620785908,0.));
#1700=DIRECTION('',(-0.342020143325669,0.939692620785908,0.));
#1701=DIRECTION('',(0.,0.,-1.));
#1702=DIRECTION('',(0.,-1.,0.));
#1703=DIRECTION('',(0.,0.,-1.));
#1704=DIRECTION('',(-1.,0.,0.));
#1705=DIRECTION('',(0.,0.,-1.));
#1706=DIRECTION('',(0.939692620785908,-0.342020143325669,0.));
#1707=DIRECTION('',(0.342020143325669,0.939692620785908,0.));
#1708=DIRECTION('',(-0.342020143325669,-0.939692620785908,0.));
#1709=DIRECTION('',(0.,0.,-1.));
#1710=DIRECTION('',(0.,-1.,0.));
#1711=DIRECTION('',(0.,0.,-1.));
#1712=DIRECTION('',(-1.,0.,0.));
#1713=DIRECTION('',(0.,0.,-1.));
#1714=DIRECTION('',(-0.939692620785908,-0.342020143325669,0.));
#1715=DIRECTION('',(0.342020143325669,-0.939692620785908,0.));
#1716=DIRECTION('',(-0.342020143325669,0.939692620785908,0.));
#1717=DIRECTION('',(0.,0.,-1.));
#1718=DIRECTION('',(0.,-1.,0.));
#1719=DIRECTION('',(0.,0.,-1.));
#1720=DIRECTION('',(-1.,0.,0.));
#1721=DIRECTION('',(0.,0.,-1.));
#1722=DIRECTION('',(0.939692620785908,-0.342020143325668,0.));
#1723=DIRECTION('',(0.342020143325669,0.939692620785909,0.));
#1724=DIRECTION('',(-0.342020143325669,-0.939692620785909,0.));
#1725=DIRECTION('',(0.,0.,-1.));
#1726=DIRECTION('',(0.,-1.,0.));
#1727=DIRECTION('',(0.,0.,-1.));
#1728=DIRECTION('',(-1.,0.,0.));
#1729=DIRECTION('',(0.,0.,-1.));
#1730=DIRECTION('',(-0.939692620785908,-0.342020143325669,0.));
#1731=DIRECTION('',(0.342020143325669,-0.939692620785908,0.));
#1732=DIRECTION('',(-0.342020143325669,0.939692620785908,0.));
#1733=DIRECTION('',(0.,0.,-1.));
#1734=DIRECTION('',(0.,-1.,0.));
#1735=DIRECTION('',(0.,0.,-1.));
#1736=DIRECTION('',(-1.,0.,0.));
#1737=DIRECTION('',(0.,0.,-1.));
#1738=DIRECTION('',(0.939692620785908,-0.342020143325669,0.));
#1739=DIRECTION('',(0.342020143325669,0.939692620785908,0.));
#1740=DIRECTION('',(-0.342020143325669,-0.939692620785908,0.));
#1741=DIRECTION('',(0.,0.,-1.));
#1742=DIRECTION('',(0.,-1.,0.));
#1743=DIRECTION('',(0.,0.,-1.));
#1744=DIRECTION('',(-1.,0.,0.));
#1745=DIRECTION('',(0.,0.,-1.));
#1746=DIRECTION('',(-0.939692620785908,-0.342020143325669,0.));
#1747=DIRECTION('',(0.342020143325669,-0.939692620785908,0.));
#1748=DIRECTION('',(-0.342020143325669,0.939692620785908,0.));
#1749=DIRECTION('',(0.,0.,-1.));
#1750=DIRECTION('',(0.,-1.,0.));
#1751=DIRECTION('',(0.,0.,-1.));
#1752=DIRECTION('',(-1.,0.,0.));
#1753=DIRECTION('',(0.,0.,-1.));
#1754=DIRECTION('',(0.939692620785908,-0.342020143325669,0.));
#1755=DIRECTION('',(0.342020143325669,0.939692620785908,0.));
#1756=DIRECTION('',(-0.342020143325669,-0.939692620785908,0.));
#1757=DIRECTION('',(0.,0.,-1.));
#1758=DIRECTION('',(0.,-1.,0.));
#1759=DIRECTION('',(0.,0.,-1.));
#1760=DIRECTION('',(-1.,0.,0.));
#1761=DIRECTION('',(0.,0.,-1.));
#1762=DIRECTION('',(-0.939692620785908,-0.342020143325669,0.));
#1763=DIRECTION('',(0.342020143325669,-0.939692620785908,0.));
#1764=DIRECTION('',(-0.342020143325669,0.939692620785908,0.));
#1765=DIRECTION('',(0.,0.,-1.));
#1766=DIRECTION('',(0.,-1.,0.));
#1767=DIRECTION('',(0.,0.,-1.));
#1768=DIRECTION('',(-1.,0.,0.));
#1769=DIRECTION('',(0.,0.,-1.));
#1770=DIRECTION('',(0.939692620785908,-0.342020143325669,0.));
#1771=DIRECTION('',(0.342020143325669,0.939692620785908,0.));
#1772=DIRECTION('',(-0.342020143325669,-0.939692620785908,0.));
#1773=DIRECTION('',(0.,0.,-1.));
#1774=DIRECTION('',(0.,-1.,0.));
#1775=DIRECTION('',(0.,0.,-1.));
#1776=DIRECTION('',(-1.,0.,0.));
#1777=DIRECTION('',(0.,0.,-1.));
#1778=DIRECTION('',(-0.939692620785908,-0.342020143325669,0.));
#1779=DIRECTION('',(0.342020143325669,-0.939692620785908,0.));
#1780=DIRECTION('',(-0.342020143325669,0.939692620785908,0.));
#1781=DIRECTION('',(0.,0.,-1.));
#1782=DIRECTION('',(0.,-1.,0.));
#1783=DIRECTION('',(0.,0.,-1.));
#1784=DIRECTION('',(-1.,0.,0.));
#1785=DIRECTION('',(0.,0.,-1.));
#1786=DIRECTION('',(0.939692620785908,-0.342020143325669,0.));
#1787=DIRECTION('',(0.342020143325669,0.939692620785908,0.));
#1788=DIRECTION('',(-0.342020143325669,-0.939692620785908,0.));
#1789=DIRECTION('',(0.,0.,-1.));
#1790=DIRECTION('',(0.,-1.,0.));
#1791=DIRECTION('',(0.,0.,-1.));
#1792=DIRECTION('',(-1.,0.,0.));
#1793=DIRECTION('',(0.,0.,-1.));
#1794=DIRECTION('',(-0.939692620785908,-0.342020143325669,0.));
#1795=DIRECTION('',(0.342020143325669,-0.939692620785908,0.));
#1796=DIRECTION('',(-0.342020143325669,0.939692620785908,0.));
#1797=DIRECTION('',(0.,0.,-1.));
#1798=DIRECTION('',(0.,-1.,0.));
#1799=DIRECTION('',(0.,0.,-1.));
#1800=DIRECTION('',(-1.,0.,0.));
#1801=DIRECTION('',(0.,0.,-1.));
#1802=DIRECTION('',(0.939692620785908,-0.342020143325669,0.));
#1803=DIRECTION('',(0.342020143325669,0.939692620785908,0.));
#1804=DIRECTION('',(-0.342020143325669,-0.939692620785908,0.));
#1805=DIRECTION('',(0.,0.,-1.));
#1806=DIRECTION('',(0.,-1.,0.));
#1807=DIRECTION('',(0.,0.,-1.));
#1808=DIRECTION('',(-1.,0.,0.));
#1809=DIRECTION('',(0.,0.,-1.));
#1810=DIRECTION('',(-0.939692620785908,-0.342020143325668,0.));
#1811=DIRECTION('',(0.342020143325669,-0.939692620785909,0.));
#1812=DIRECTION('',(-0.342020143325669,0.939692620785909,0.));
#1813=DIRECTION('',(0.,0.,-1.));
#1814=DIRECTION('',(0.,-1.,0.));
#1815=DIRECTION('',(0.,0.,-1.));
#1816=DIRECTION('',(-1.,0.,0.));
#1817=DIRECTION('',(0.,0.,-1.));
#1818=DIRECTION('',(0.939692620785908,-0.342020143325669,0.));
#1819=DIRECTION('',(0.342020143325669,0.939692620785908,0.));
#1820=DIRECTION('',(-0.342020143325669,-0.939692620785908,0.));
#1821=DIRECTION('',(0.,0.,-1.));
#1822=DIRECTION('',(0.,-1.,0.));
#1823=DIRECTION('',(0.,0.,-1.));
#1824=DIRECTION('',(-1.,0.,0.));
#1825=DIRECTION('',(0.,0.,-1.));
#1826=DIRECTION('',(-0.939692620785908,-0.342020143325669,0.));
#1827=DIRECTION('',(0.342020143325669,-0.939692620785908,0.));
#1828=DIRECTION('',(-0.342020143325669,0.939692620785908,0.));
#1829=DIRECTION('',(0.,0.,-1.));
#1830=DIRECTION('',(0.,-1.,0.));
#1831=DIRECTION('',(0.,0.,-1.));
#1832=DIRECTION('',(-1.,0.,0.));
#1833=DIRECTION('',(0.,0.,-1.));
#1834=DIRECTION('',(0.939692620785908,-0.342020143325669,0.));
#1835=DIRECTION('',(0.342020143325669,0.939692620785908,0.));
#1836=DIRECTION('',(-0.342020143325669,-0.939692620785908,0.));
#1837=DIRECTION('',(0.,0.,-1.));
#1838=DIRECTION('',(0.,-1.,0.));
#1839=DIRECTION('',(0.,0.,-1.));
#1840=DIRECTION('',(-1.,0.,0.));
#1841=DIRECTION('',(0.,0.,-1.));
#1842=DIRECTION('',(-0.939692620785908,-0.342020143325669,0.));
#1843=DIRECTION('',(0.342020143325669,-0.939692620785908,0.));
#1844=DIRECTION('',(-0.342020143325669,0.939692620785908,0.));
#1845=DIRECTION('',(0.,0.,-1.));
#1846=DIRECTION('',(0.,-1.,0.));
#1847=DIRECTION('',(0.,0.,-1.));
#1848=DIRECTION('',(-1.,0.,0.));
#1849=DIRECTION('',(0.,0.,-1.));
#1850=DIRECTION('',(0.939692620785908,-0.342020143325669,0.));
#1851=DIRECTION('',(0.342020143325669,0.939692620785908,0.));
#1852=DIRECTION('',(-0.342020143325669,-0.939692620785908,0.));
#1853=DIRECTION('',(0.,0.,-1.));
#1854=DIRECTION('',(0.,-1.,0.));
#1855=DIRECTION('',(0.,0.,-1.));
#1856=DIRECTION('',(-1.,0.,0.));
#1857=DIRECTION('',(0.,0.,-1.));
#1858=DIRECTION('',(-0.939692620785908,-0.342020143325669,0.));
#1859=DIRECTION('',(0.342020143325669,-0.939692620785908,0.));
#1860=DIRECTION('',(-0.342020143325669,0.939692620785908,0.));
#1861=DIRECTION('',(0.,0.,-1.));
#1862=DIRECTION('',(0.,-1.,0.));
#1863=DIRECTION('',(0.,0.,-1.));
#1864=DIRECTION('',(-1.,0.,0.));
#1865=DIRECTION('',(0.,-1.,0.));
#1866=DIRECTION('',(0.,0.,-1.));
#1867=DIRECTION('',(-1.,0.,0.));
#1868=DIRECTION('',(0.,0.,1.));
#1869=DIRECTION('',(1.,0.,0.));
#1870=DIRECTION('',(-1.,0.,0.));
#1871=DIRECTION('',(-1.,0.,0.));
#1872=DIRECTION('',(0.,-1.,0.));
#1873=DIRECTION('',(0.,0.,-1.));
#1874=DIRECTION('',(-1.,0.,0.));
#1875=DIRECTION('',(0.,0.,-1.));
#1876=DIRECTION('',(-1.,0.,0.));
#1877=DIRECTION('',(0.,0.,1.));
#1878=DIRECTION('',(1.,0.,0.));
#1879=DIRECTION('',(0.,1.,0.));
#1880=DIRECTION('',(0.,0.,1.));
#1881=DIRECTION('',(1.,0.,0.));
#1882=DIRECTION('',(0.,1.,0.));
#1883=DIRECTION('',(-1.,0.,0.));
#1884=DIRECTION('',(0.,0.,1.));
#1885=CARTESIAN_POINT('',(0.,0.,0.));
#1886=CARTESIAN_POINT('',(-30.,-8.,36.));
#1887=CARTESIAN_POINT('',(-30.,-8.,30.));
#1888=CARTESIAN_POINT('',(-30.,-8.,30.));
#1889=CARTESIAN_POINT('',(-30.,0.,30.));
#1890=CARTESIAN_POINT('',(-30.,-8.,36.));
#1891=CARTESIAN_POINT('',(-30.,-8.,6.));
#1892=CARTESIAN_POINT('',(-30.,0.,6.));
#1893=CARTESIAN_POINT('',(-30.,-1.72423130660924,6.));
#1894=CARTESIAN_POINT('',(-30.,-1.72423130660924,6.));
#1895=CARTESIAN_POINT('',(-30.,-1.72423130660924,0.));
#1896=CARTESIAN_POINT('',(-30.,-8.,0.));
#1897=CARTESIAN_POINT('',(-30.,0.,0.));
#1898=CARTESIAN_POINT('',(-30.,0.,36.));
#1899=CARTESIAN_POINT('',(-28.826475776005,1.5,6.));
#1900=CARTESIAN_POINT('',(-28.826475776005,1.5,6.));
#1901=CARTESIAN_POINT('',(-28.826475776005,1.5,6.));
#1902=CARTESIAN_POINT('',(-28.826475776005,1.5,6.));
#1903=CARTESIAN_POINT('',(-28.826475776005,1.5,0.));
#1904=CARTESIAN_POINT('',(-28.826475776005,1.5,0.));
#1905=CARTESIAN_POINT('',(-31.2061814283475,-1.875,6.));
#1906=CARTESIAN_POINT('',(-31.8886256175967,0.,6.));
#1907=CARTESIAN_POINT('',(-31.8886256175967,0.,0.));
#1908=CARTESIAN_POINT('',(-31.8886256175967,4.33680868994202E-16,6.));
#1909=CARTESIAN_POINT('',(-31.2061814283475,-1.875,0.));
#1910=CARTESIAN_POINT('',(-32.434580968996,1.5,0.));
#1911=CARTESIAN_POINT('',(-32.434580968996,1.5,6.));
#1912=CARTESIAN_POINT('',(-32.434580968996,1.5,6.));
#1913=CARTESIAN_POINT('',(-31.2061814283475,-1.875,6.));
#1914=CARTESIAN_POINT('',(-33.5388647563897,1.5,6.));
#1915=CARTESIAN_POINT('',(-34.084820107789,0.,6.));
#1916=CARTESIAN_POINT('',(-34.084820107789,1.0842021724855E-16,6.));
#1917=CARTESIAN_POINT('',(-34.084820107789,0.,0.));
#1918=CARTESIAN_POINT('',(-33.5388647563897,1.5,6.));
#1919=CARTESIAN_POINT('',(-33.5388647563897,1.5,6.));
#1920=CARTESIAN_POINT('',(-33.5388647563897,1.5,6.));
#1921=CARTESIAN_POINT('',(-33.5388647563897,1.5,0.));
#1922=CARTESIAN_POINT('',(-33.5388647563897,1.5,0.));
#1923=CARTESIAN_POINT('',(0.,0.,6.));
#1924=CARTESIAN_POINT('',(-38.,-8.,6.));
#1925=CARTESIAN_POINT('',(38.,-8.,6.));
#1926=CARTESIAN_POINT('',(38.,-8.,6.));
#1927=CARTESIAN_POINT('',(38.,-1.875,6.));
#1928=CARTESIAN_POINT('',(38.,-1.875,6.));
#1929=CARTESIAN_POINT('',(34.7672642970381,-1.875,6.));
#1930=CARTESIAN_POINT('',(34.7672642970381,-1.875,6.));
#1931=CARTESIAN_POINT('',(33.5388647563897,1.5,6.));
#1932=CARTESIAN_POINT('',(33.5388647563897,1.5,6.));
#1933=CARTESIAN_POINT('',(32.434580968996,1.5,6.));
#1934=CARTESIAN_POINT('',(32.434580968996,1.5,6.));
#1935=CARTESIAN_POINT('',(31.2061814283475,-1.875,6.));
#1936=CARTESIAN_POINT('',(31.2061814283475,-1.875,6.));
#1937=CARTESIAN_POINT('',(30.0548753166534,-1.875,6.));
#1938=CARTESIAN_POINT('',(30.0548753166534,-1.875,6.));
#1939=CARTESIAN_POINT('',(28.826475776005,1.5,6.));
#1940=CARTESIAN_POINT('',(28.826475776005,1.5,6.));
#1941=CARTESIAN_POINT('',(27.7221919886113,1.5,6.));
#1942=CARTESIAN_POINT('',(27.7221919886113,1.5,6.));
#1943=CARTESIAN_POINT('',(26.4937924479628,-1.875,6.));
#1944=CARTESIAN_POINT('',(26.4937924479628,-1.875,6.));
#1945=CARTESIAN_POINT('',(25.3424863362687,-1.875,6.));
#1946=CARTESIAN_POINT('',(25.3424863362687,-1.875,6.));
#1947=CARTESIAN_POINT('',(24.1140867956203,1.5,6.));
#1948=CARTESIAN_POINT('',(24.1140867956203,1.5,6.));
#1949=CARTESIAN_POINT('',(23.0098030082266,1.5,6.));
#1950=CARTESIAN_POINT('',(23.0098030082266,1.5,6.));
#1951=CARTESIAN_POINT('',(21.7814034675781,-1.875,6.));
#1952=CARTESIAN_POINT('',(21.7814034675781,-1.875,6.));
#1953=CARTESIAN_POINT('',(20.6300973558841,-1.875,6.));
#1954=CARTESIAN_POINT('',(20.6300973558841,-1.875,6.));
#1955=CARTESIAN_POINT('',(19.4016978152356,1.5,6.));
#1956=CARTESIAN_POINT('',(19.4016978152356,1.5,6.));
#1957=CARTESIAN_POINT('',(18.2974140278419,1.5,6.));
#1958=CARTESIAN_POINT('',(18.2974140278419,1.5,6.));
#1959=CARTESIAN_POINT('',(17.0690144871935,-1.875,6.));
#1960=CARTESIAN_POINT('',(17.0690144871935,-1.875,6.));
#1961=CARTESIAN_POINT('',(15.9177083754994,-1.875,6.));
#1962=CARTESIAN_POINT('',(15.9177083754994,-1.875,6.));
#1963=CARTESIAN_POINT('',(14.6893088348509,1.5,6.));
#1964=CARTESIAN_POINT('',(14.6893088348509,1.5,6.));
#1965=CARTESIAN_POINT('',(13.5850250474572,1.5,6.));
#1966=CARTESIAN_POINT('',(13.5850250474572,1.5,6.));
#1967=CARTESIAN_POINT('',(12.3566255068088,-1.875,6.));
#1968=CARTESIAN_POINT('',(12.3566255068088,-1.875,6.));
#1969=CARTESIAN_POINT('',(11.2053193951147,-1.875,6.));
#1970=CARTESIAN_POINT('',(11.2053193951147,-1.875,6.));
#1971=CARTESIAN_POINT('',(9.97691985446625,1.5,6.));
#1972=CARTESIAN_POINT('',(9.97691985446625,1.5,6.));
#1973=CARTESIAN_POINT('',(8.87263606707251,1.5,6.));
#1974=CARTESIAN_POINT('',(8.87263606707251,1.5,6.));
#1975=CARTESIAN_POINT('',(7.64423652642408,-1.875,6.));
#1976=CARTESIAN_POINT('',(7.64423652642408,-1.875,6.));
#1977=CARTESIAN_POINT('',(6.49293041472999,-1.875,6.));
#1978=CARTESIAN_POINT('',(6.49293041472999,-1.875,6.));
#1979=CARTESIAN_POINT('',(5.26453087408156,1.5,6.));
#1980=CARTESIAN_POINT('',(5.26453087408156,1.5,6.));
#1981=CARTESIAN_POINT('',(4.16024708668782,1.5,6.));
#1982=CARTESIAN_POINT('',(4.16024708668782,1.5,6.));
#1983=CARTESIAN_POINT('',(2.93184754603939,-1.875,6.));
#1984=CARTESIAN_POINT('',(2.93184754603939,-1.875,6.));
#1985=CARTESIAN_POINT('',(1.7805414343453,-1.875,6.));
#1986=CARTESIAN_POINT('',(1.7805414343453,-1.875,6.));
#1987=CARTESIAN_POINT('',(0.552141893696869,1.5,6.));
#1988=CARTESIAN_POINT('',(0.552141893696869,1.5,6.));
#1989=CARTESIAN_POINT('',(-0.552141893696869,1.5,6.));
#1990=CARTESIAN_POINT('',(-0.552141893696869,1.5,6.));
#1991=CARTESIAN_POINT('',(-1.7805414343453,-1.875,6.));
#1992=CARTESIAN_POINT('',(-1.7805414343453,-1.875,6.));
#1993=CARTESIAN_POINT('',(-2.93184754603939,-1.875,6.));
#1994=CARTESIAN_POINT('',(-2.93184754603939,-1.875,6.));
#1995=CARTESIAN_POINT('',(-4.16024708668782,1.5,6.));
#1996=CARTESIAN_POINT('',(-4.16024708668782,1.5,6.));
#1997=CARTESIAN_POINT('',(-5.26453087408156,1.5,6.));
#1998=CARTESIAN_POINT('',(-5.26453087408156,1.5,6.));
#1999=CARTESIAN_POINT('',(-6.49293041472999,-1.875,6.));
#2000=CARTESIAN_POINT('',(-6.49293041472999,-1.875,6.));
#2001=CARTESIAN_POINT('',(-7.64423652642408,-1.875,6.));
#2002=CARTESIAN_POINT('',(-7.64423652642408,-1.875,6.));
#2003=CARTESIAN_POINT('',(-8.87263606707251,1.5,6.));
#2004=CARTESIAN_POINT('',(-8.87263606707251,1.5,6.));
#2005=CARTESIAN_POINT('',(-9.97691985446625,1.5,6.));
#2006=CARTESIAN_POINT('',(-9.97691985446625,1.5,6.));
#2007=CARTESIAN_POINT('',(-11.2053193951147,-1.875,6.));
#2008=CARTESIAN_POINT('',(-11.2053193951147,-1.875,6.));
#2009=CARTESIAN_POINT('',(-12.3566255068088,-1.875,6.));
#2010=CARTESIAN_POINT('',(-12.3566255068088,-1.875,6.));
#2011=CARTESIAN_POINT('',(-13.5850250474572,1.5,6.));
#2012=CARTESIAN_POINT('',(-13.5850250474572,1.5,6.));
#2013=CARTESIAN_POINT('',(-14.6893088348509,1.5,6.));
#2014=CARTESIAN_POINT('',(-14.6893088348509,1.5,6.));
#2015=CARTESIAN_POINT('',(-15.9177083754994,-1.875,6.));
#2016=CARTESIAN_POINT('',(-15.9177083754994,-1.875,6.));
#2017=CARTESIAN_POINT('',(-17.0690144871935,-1.875,6.));
#2018=CARTESIAN_POINT('',(-17.0690144871935,-1.875,6.));
#2019=CARTESIAN_POINT('',(-18.2974140278419,1.5,6.));
#2020=CARTESIAN_POINT('',(-18.2974140278419,1.5,6.));
#2021=CARTESIAN_POINT('',(-19.4016978152356,1.5,6.));
#2022=CARTESIAN_POINT('',(-19.4016978152356,1.5,6.));
#2023=CARTESIAN_POINT('',(-20.6300973558841,-1.875,6.));
#2024=CARTESIAN_POINT('',(-20.6300973558841,-1.875,6.));
#2025=CARTESIAN_POINT('',(-21.7814034675781,-1.875,6.));
#2026=CARTESIAN_POINT('',(-21.7814034675781,-1.875,6.));
#2027=CARTESIAN_POINT('',(-23.0098030082266,1.5,6.));
#2028=CARTESIAN_POINT('',(-23.0098030082266,1.5,6.));
#2029=CARTESIAN_POINT('',(-24.1140867956203,1.5,6.));
#2030=CARTESIAN_POINT('',(-24.1140867956203,1.5,6.));
#2031=CARTESIAN_POINT('',(-25.3424863362687,-1.875,6.));
#2032=CARTESIAN_POINT('',(-25.3424863362687,-1.875,6.));
#2033=CARTESIAN_POINT('',(-26.4937924479628,-1.875,6.));
#2034=CARTESIAN_POINT('',(-26.4937924479628,-1.875,6.));
#2035=CARTESIAN_POINT('',(-27.7221919886113,1.5,6.));
#2036=CARTESIAN_POINT('',(-27.7221919886113,1.5,6.));
#2037=CARTESIAN_POINT('',(0.,0.,6.));
#2038=CARTESIAN_POINT('',(0.,0.,6.));
#2039=CARTESIAN_POINT('',(-32.434580968996,1.5,6.));
#2040=CARTESIAN_POINT('',(-38.,-1.875,6.));
#2041=CARTESIAN_POINT('',(-38.,0.,36.));
#2042=CARTESIAN_POINT('',(-38.,0.,36.));
#2043=CARTESIAN_POINT('',(-38.,0.,0.));
#2044=CARTESIAN_POINT('',(-38.,-1.875,0.));
#2045=CARTESIAN_POINT('',(-38.,-8.,0.));
#2046=CARTESIAN_POINT('',(-38.,-8.,6.));
#2047=CARTESIAN_POINT('',(-38.,-8.,36.));
#2048=CARTESIAN_POINT('',(-38.,0.,36.));
#2049=CARTESIAN_POINT('',(-38.,-8.,6.));
#2050=CARTESIAN_POINT('',(-38.,-8.,0.));
#2051=CARTESIAN_POINT('',(38.,-8.,0.));
#2052=CARTESIAN_POINT('',(38.,-8.,6.));
#2053=CARTESIAN_POINT('',(-38.,-8.,30.));
#2054=CARTESIAN_POINT('',(-24.,-8.,30.));
#2055=CARTESIAN_POINT('',(-24.,-8.,36.));
#2056=CARTESIAN_POINT('',(-24.,-8.,36.));
#2057=CARTESIAN_POINT('',(-38.,-8.,36.));
#2058=CARTESIAN_POINT('',(38.,-8.,6.));
#2059=CARTESIAN_POINT('',(38.,-8.,0.));
#2060=CARTESIAN_POINT('',(38.,-1.875,0.));
#2061=CARTESIAN_POINT('',(38.,-1.875,6.));
#2062=CARTESIAN_POINT('',(38.,-1.875,6.));
#2063=CARTESIAN_POINT('',(38.,-1.875,0.));
#2064=CARTESIAN_POINT('',(34.7672642970381,-1.875,0.));
#2065=CARTESIAN_POINT('',(34.7672642970381,-1.875,6.));
#2066=CARTESIAN_POINT('',(34.7672642970381,-1.875,6.));
#2067=CARTESIAN_POINT('',(34.7672642970381,-1.875,0.));
#2068=CARTESIAN_POINT('',(33.5388647563897,1.5,0.));
#2069=CARTESIAN_POINT('',(33.5388647563897,1.5,6.));
#2070=CARTESIAN_POINT('',(33.5388647563897,1.5,6.));
#2071=CARTESIAN_POINT('',(33.5388647563897,1.5,0.));
#2072=CARTESIAN_POINT('',(32.434580968996,1.5,0.));
#2073=CARTESIAN_POINT('',(32.434580968996,1.5,6.));
#2074=CARTESIAN_POINT('',(32.434580968996,1.5,6.));
#2075=CARTESIAN_POINT('',(32.434580968996,1.5,0.));
#2076=CARTESIAN_POINT('',(31.2061814283475,-1.875,0.));
#2077=CARTESIAN_POINT('',(31.2061814283475,-1.875,6.));
#2078=CARTESIAN_POINT('',(31.2061814283475,-1.875,6.));
#2079=CARTESIAN_POINT('',(31.2061814283475,-1.875,0.));
#2080=CARTESIAN_POINT('',(30.0548753166534,-1.875,0.));
#2081=CARTESIAN_POINT('',(30.0548753166534,-1.875,6.));
#2082=CARTESIAN_POINT('',(30.0548753166534,-1.875,6.));
#2083=CARTESIAN_POINT('',(30.0548753166534,-1.875,0.));
#2084=CARTESIAN_POINT('',(28.826475776005,1.5,0.));
#2085=CARTESIAN_POINT('',(28.826475776005,1.5,6.));
#2086=CARTESIAN_POINT('',(28.826475776005,1.5,6.));
#2087=CARTESIAN_POINT('',(28.826475776005,1.5,0.));
#2088=CARTESIAN_POINT('',(27.7221919886113,1.5,0.));
#2089=CARTESIAN_POINT('',(27.7221919886113,1.5,6.));
#2090=CARTESIAN_POINT('',(27.7221919886113,1.5,6.));
#2091=CARTESIAN_POINT('',(27.7221919886113,1.5,0.));
#2092=CARTESIAN_POINT('',(26.4937924479628,-1.875,0.));
#2093=CARTESIAN_POINT('',(26.4937924479628,-1.875,6.));
#2094=CARTESIAN_POINT('',(26.4937924479628,-1.875,6.));
#2095=CARTESIAN_POINT('',(26.4937924479628,-1.875,0.));
#2096=CARTESIAN_POINT('',(25.3424863362687,-1.875,0.));
#2097=CARTESIAN_POINT('',(25.3424863362687,-1.875,6.));
#2098=CARTESIAN_POINT('',(25.3424863362687,-1.875,6.));
#2099=CARTESIAN_POINT('',(25.3424863362687,-1.875,0.));
#2100=CARTESIAN_POINT('',(24.1140867956203,1.5,0.));
#2101=CARTESIAN_POINT('',(24.1140867956203,1.5,6.));
#2102=CARTESIAN_POINT('',(24.1140867956203,1.5,6.));
#2103=CARTESIAN_POINT('',(24.1140867956203,1.5,0.));
#2104=CARTESIAN_POINT('',(23.0098030082266,1.5,0.));
#2105=CARTESIAN_POINT('',(23.0098030082266,1.5,6.));
#2106=CARTESIAN_POINT('',(23.0098030082266,1.5,6.));
#2107=CARTESIAN_POINT('',(23.0098030082266,1.5,0.));
#2108=CARTESIAN_POINT('',(21.7814034675781,-1.875,0.));
#2109=CARTESIAN_POINT('',(21.7814034675781,-1.875,6.));
#2110=CARTESIAN_POINT('',(21.7814034675781,-1.875,6.));
#2111=CARTESIAN_POINT('',(21.7814034675781,-1.875,0.));
#2112=CARTESIAN_POINT('',(20.6300973558841,-1.875,0.));
#2113=CARTESIAN_POINT('',(20.6300973558841,-1.875,6.));
#2114=CARTESIAN_POINT('',(20.6300973558841,-1.875,6.));
#2115=CARTESIAN_POINT('',(20.6300973558841,-1.875,0.));
#2116=CARTESIAN_POINT('',(19.4016978152356,1.5,0.));
#2117=CARTESIAN_POINT('',(19.4016978152356,1.5,6.));
#2118=CARTESIAN_POINT('',(19.4016978152356,1.5,6.));
#2119=CARTESIAN_POINT('',(19.4016978152356,1.5,0.));
#2120=CARTESIAN_POINT('',(18.2974140278419,1.5,0.));
#2121=CARTESIAN_POINT('',(18.2974140278419,1.5,6.));
#2122=CARTESIAN_POINT('',(18.2974140278419,1.5,6.));
#2123=CARTESIAN_POINT('',(18.2974140278419,1.5,0.));
#2124=CARTESIAN_POINT('',(17.0690144871935,-1.875,0.));
#2125=CARTESIAN_POINT('',(17.0690144871935,-1.875,6.));
#2126=CARTESIAN_POINT('',(17.0690144871935,-1.875,6.));
#2127=CARTESIAN_POINT('',(17.0690144871935,-1.875,0.));
#2128=CARTESIAN_POINT('',(15.9177083754994,-1.875,0.));
#2129=CARTESIAN_POINT('',(15.9177083754994,-1.875,6.));
#2130=CARTESIAN_POINT('',(15.9177083754994,-1.875,6.));
#2131=CARTESIAN_POINT('',(15.9177083754994,-1.875,0.));
#2132=CARTESIAN_POINT('',(14.6893088348509,1.5,0.));
#2133=CARTESIAN_POINT('',(14.6893088348509,1.5,6.));
#2134=CARTESIAN_POINT('',(14.6893088348509,1.5,6.));
#2135=CARTESIAN_POINT('',(14.6893088348509,1.5,0.));
#2136=CARTESIAN_POINT('',(13.5850250474572,1.5,0.));
#2137=CARTESIAN_POINT('',(13.5850250474572,1.5,6.));
#2138=CARTESIAN_POINT('',(13.5850250474572,1.5,6.));
#2139=CARTESIAN_POINT('',(13.5850250474572,1.5,0.));
#2140=CARTESIAN_POINT('',(12.3566255068088,-1.875,0.));
#2141=CARTESIAN_POINT('',(12.3566255068088,-1.875,6.));
#2142=CARTESIAN_POINT('',(12.3566255068088,-1.875,6.));
#2143=CARTESIAN_POINT('',(12.3566255068088,-1.875,0.));
#2144=CARTESIAN_POINT('',(11.2053193951147,-1.875,0.));
#2145=CARTESIAN_POINT('',(11.2053193951147,-1.875,6.));
#2146=CARTESIAN_POINT('',(11.2053193951147,-1.875,6.));
#2147=CARTESIAN_POINT('',(11.2053193951147,-1.875,0.));
#2148=CARTESIAN_POINT('',(9.97691985446625,1.5,0.));
#2149=CARTESIAN_POINT('',(9.97691985446625,1.5,6.));
#2150=CARTESIAN_POINT('',(9.97691985446625,1.5,6.));
#2151=CARTESIAN_POINT('',(9.97691985446625,1.5,0.));
#2152=CARTESIAN_POINT('',(8.87263606707251,1.5,0.));
#2153=CARTESIAN_POINT('',(8.87263606707251,1.5,6.));
#2154=CARTESIAN_POINT('',(8.87263606707251,1.5,6.));
#2155=CARTESIAN_POINT('',(8.87263606707251,1.5,0.));
#2156=CARTESIAN_POINT('',(7.64423652642408,-1.875,0.));
#2157=CARTESIAN_POINT('',(7.64423652642408,-1.875,6.));
#2158=CARTESIAN_POINT('',(7.64423652642408,-1.875,6.));
#2159=CARTESIAN_POINT('',(7.64423652642408,-1.875,0.));
#2160=CARTESIAN_POINT('',(6.49293041472999,-1.875,0.));
#2161=CARTESIAN_POINT('',(6.49293041472999,-1.875,6.));
#2162=CARTESIAN_POINT('',(6.49293041472999,-1.875,6.));
#2163=CARTESIAN_POINT('',(6.49293041472999,-1.875,0.));
#2164=CARTESIAN_POINT('',(5.26453087408156,1.5,0.));
#2165=CARTESIAN_POINT('',(5.26453087408156,1.5,6.));
#2166=CARTESIAN_POINT('',(5.26453087408156,1.5,6.));
#2167=CARTESIAN_POINT('',(5.26453087408156,1.5,0.));
#2168=CARTESIAN_POINT('',(4.16024708668782,1.5,0.));
#2169=CARTESIAN_POINT('',(4.16024708668782,1.5,6.));
#2170=CARTESIAN_POINT('',(4.16024708668782,1.5,6.));
#2171=CARTESIAN_POINT('',(4.16024708668782,1.5,0.));
#2172=CARTESIAN_POINT('',(2.93184754603939,-1.875,0.));
#2173=CARTESIAN_POINT('',(2.93184754603939,-1.875,6.));
#2174=CARTESIAN_POINT('',(2.93184754603939,-1.875,6.));
#2175=CARTESIAN_POINT('',(2.93184754603939,-1.875,0.));
#2176=CARTESIAN_POINT('',(1.7805414343453,-1.875,0.));
#2177=CARTESIAN_POINT('',(1.7805414343453,-1.875,6.));
#2178=CARTESIAN_POINT('',(1.7805414343453,-1.875,6.));
#2179=CARTESIAN_POINT('',(1.7805414343453,-1.875,0.));
#2180=CARTESIAN_POINT('',(0.552141893696869,1.5,0.));
#2181=CARTESIAN_POINT('',(0.552141893696869,1.5,6.));
#2182=CARTESIAN_POINT('',(0.552141893696869,1.5,6.));
#2183=CARTESIAN_POINT('',(0.552141893696869,1.5,0.));
#2184=CARTESIAN_POINT('',(-0.552141893696869,1.5,0.));
#2185=CARTESIAN_POINT('',(-0.552141893696869,1.5,6.));
#2186=CARTESIAN_POINT('',(-0.552141893696869,1.5,6.));
#2187=CARTESIAN_POINT('',(-0.552141893696869,1.5,0.));
#2188=CARTESIAN_POINT('',(-1.7805414343453,-1.875,0.));
#2189=CARTESIAN_POINT('',(-1.7805414343453,-1.875,6.));
#2190=CARTESIAN_POINT('',(-1.7805414343453,-1.875,6.));
#2191=CARTESIAN_POINT('',(-1.7805414343453,-1.875,0.));
#2192=CARTESIAN_POINT('',(-2.93184754603939,-1.875,0.));
#2193=CARTESIAN_POINT('',(-2.93184754603939,-1.875,6.));
#2194=CARTESIAN_POINT('',(-2.93184754603939,-1.875,6.));
#2195=CARTESIAN_POINT('',(-2.93184754603939,-1.875,0.));
#2196=CARTESIAN_POINT('',(-4.16024708668782,1.5,0.));
#2197=CARTESIAN_POINT('',(-4.16024708668782,1.5,6.));
#2198=CARTESIAN_POINT('',(-4.16024708668782,1.5,6.));
#2199=CARTESIAN_POINT('',(-4.16024708668782,1.5,0.));
#2200=CARTESIAN_POINT('',(-5.26453087408156,1.5,0.));
#2201=CARTESIAN_POINT('',(-5.26453087408156,1.5,6.));
#2202=CARTESIAN_POINT('',(-5.26453087408156,1.5,6.));
#2203=CARTESIAN_POINT('',(-5.26453087408156,1.5,0.));
#2204=CARTESIAN_POINT('',(-6.49293041472999,-1.875,0.));
#2205=CARTESIAN_POINT('',(-6.49293041472999,-1.875,6.));
#2206=CARTESIAN_POINT('',(-6.49293041472999,-1.875,6.));
#2207=CARTESIAN_POINT('',(-6.49293041472999,-1.875,0.));
#2208=CARTESIAN_POINT('',(-7.64423652642408,-1.875,0.));
#2209=CARTESIAN_POINT('',(-7.64423652642408,-1.875,6.));
#2210=CARTESIAN_POINT('',(-7.64423652642408,-1.875,6.));
#2211=CARTESIAN_POINT('',(-7.64423652642408,-1.875,0.));
#2212=CARTESIAN_POINT('',(-8.87263606707251,1.5,0.));
#2213=CARTESIAN_POINT('',(-8.87263606707251,1.5,6.));
#2214=CARTESIAN_POINT('',(-8.87263606707251,1.5,6.));
#2215=CARTESIAN_POINT('',(-8.87263606707251,1.5,0.));
#2216=CARTESIAN_POINT('',(-9.97691985446625,1.5,0.));
#2217=CARTESIAN_POINT('',(-9.97691985446625,1.5,6.));
#2218=CARTESIAN_POINT('',(-9.97691985446625,1.5,6.));
#2219=CARTESIAN_POINT('',(-9.97691985446625,1.5,0.));
#2220=CARTESIAN_POINT('',(-11.2053193951147,-1.875,0.));
#2221=CARTESIAN_POINT('',(-11.2053193951147,-1.875,6.));
#2222=CARTESIAN_POINT('',(-11.2053193951147,-1.875,6.));
#2223=CARTESIAN_POINT('',(-11.2053193951147,-1.875,0.));
#2224=CARTESIAN_POINT('',(-12.3566255068088,-1.875,0.));
#2225=CARTESIAN_POINT('',(-12.3566255068088,-1.875,6.));
#2226=CARTESIAN_POINT('',(-12.3566255068088,-1.875,6.));
#2227=CARTESIAN_POINT('',(-12.3566255068088,-1.875,0.));
#2228=CARTESIAN_POINT('',(-13.5850250474572,1.5,0.));
#2229=CARTESIAN_POINT('',(-13.5850250474572,1.5,6.));
#2230=CARTESIAN_POINT('',(-13.5850250474572,1.5,6.));
#2231=CARTESIAN_POINT('',(-13.5850250474572,1.5,0.));
#2232=CARTESIAN_POINT('',(-14.6893088348509,1.5,0.));
#2233=CARTESIAN_POINT('',(-14.6893088348509,1.5,6.));
#2234=CARTESIAN_POINT('',(-14.6893088348509,1.5,6.));
#2235=CARTESIAN_POINT('',(-14.6893088348509,1.5,0.));
#2236=CARTESIAN_POINT('',(-15.9177083754994,-1.875,0.));
#2237=CARTESIAN_POINT('',(-15.9177083754994,-1.875,6.));
#2238=CARTESIAN_POINT('',(-15.9177083754994,-1.875,6.));
#2239=CARTESIAN_POINT('',(-15.9177083754994,-1.875,0.));
#2240=CARTESIAN_POINT('',(-17.0690144871935,-1.875,0.));
#2241=CARTESIAN_POINT('',(-17.0690144871935,-1.875,6.));
#2242=CARTESIAN_POINT('',(-17.0690144871935,-1.875,6.));
#2243=CARTESIAN_POINT('',(-17.0690144871935,-1.875,0.));
#2244=CARTESIAN_POINT('',(-18.2974140278419,1.5,0.));
#2245=CARTESIAN_POINT('',(-18.2974140278419,1.5,6.));
#2246=CARTESIAN_POINT('',(-18.2974140278419,1.5,6.));
#2247=CARTESIAN_POINT('',(-18.2974140278419,1.5,0.));
#2248=CARTESIAN_POINT('',(-19.4016978152356,1.5,0.));
#2249=CARTESIAN_POINT('',(-19.4016978152356,1.5,6.));
#2250=CARTESIAN_POINT('',(-19.4016978152356,1.5,6.));
#2251=CARTESIAN_POINT('',(-19.4016978152356,1.5,0.));
#2252=CARTESIAN_POINT('',(-20.6300973558841,-1.875,0.));
#2253=CARTESIAN_POINT('',(-20.6300973558841,-1.875,6.));
#2254=CARTESIAN_POINT('',(-20.6300973558841,-1.875,6.));
#2255=CARTESIAN_POINT('',(-20.6300973558841,-1.875,0.));
#2256=CARTESIAN_POINT('',(-21.7814034675781,-1.875,0.));
#2257=CARTESIAN_POINT('',(-21.7814034675781,-1.875,6.));
#2258=CARTESIAN_POINT('',(-21.7814034675781,-1.875,6.));
#2259=CARTESIAN_POINT('',(-21.7814034675781,-1.875,0.));
#2260=CARTESIAN_POINT('',(-23.0098030082266,1.5,0.));
#2261=CARTESIAN_POINT('',(-23.0098030082266,1.5,6.));
#2262=CARTESIAN_POINT('',(-23.0098030082266,1.5,6.));
#2263=CARTESIAN_POINT('',(-23.0098030082266,1.5,0.));
#2264=CARTESIAN_POINT('',(-24.1140867956203,1.5,0.));
#2265=CARTESIAN_POINT('',(-24.1140867956203,1.5,6.));
#2266=CARTESIAN_POINT('',(-24.1140867956203,1.5,6.));
#2267=CARTESIAN_POINT('',(-24.1140867956203,1.5,0.));
#2268=CARTESIAN_POINT('',(-25.3424863362687,-1.875,0.));
#2269=CARTESIAN_POINT('',(-25.3424863362687,-1.875,6.));
#2270=CARTESIAN_POINT('',(-25.3424863362687,-1.875,6.));
#2271=CARTESIAN_POINT('',(-25.3424863362687,-1.875,0.));
#2272=CARTESIAN_POINT('',(-26.4937924479628,-1.875,0.));
#2273=CARTESIAN_POINT('',(-26.4937924479628,-1.875,6.));
#2274=CARTESIAN_POINT('',(-26.4937924479628,-1.875,6.));
#2275=CARTESIAN_POINT('',(-26.4937924479628,-1.875,0.));
#2276=CARTESIAN_POINT('',(-27.7221919886113,1.5,0.));
#2277=CARTESIAN_POINT('',(-27.7221919886113,1.5,6.));
#2278=CARTESIAN_POINT('',(-27.7221919886113,1.5,6.));
#2279=CARTESIAN_POINT('',(-27.7221919886113,1.5,0.));
#2280=CARTESIAN_POINT('',(-32.434580968996,1.5,6.));
#2281=CARTESIAN_POINT('',(-32.434580968996,1.5,0.));
#2282=CARTESIAN_POINT('',(0.,0.,0.));
#2283=CARTESIAN_POINT('',(-30.,0.,0.));
#2284=CARTESIAN_POINT('',(-30.,0.,0.));
#2285=CARTESIAN_POINT('',(-30.,0.,36.));
#2286=CARTESIAN_POINT('',(-30.,0.,36.));
#2287=CARTESIAN_POINT('',(-24.,0.,36.));
#2288=CARTESIAN_POINT('',(-24.,0.,36.));
#2289=CARTESIAN_POINT('',(-24.,0.,30.));
#2290=CARTESIAN_POINT('',(-24.,0.,30.));
#2291=CARTESIAN_POINT('',(0.,0.,36.));
#2292=CARTESIAN_POINT('',(-24.,-8.,36.));
#2293=CARTESIAN_POINT('',(0.,0.,30.));
#2294=CARTESIAN_POINT('',(-24.,-8.,30.));
#2295=CARTESIAN_POINT('',(-24.,-8.,36.));
#2296=MECHANICAL_DESIGN_GEOMETRIC_PRESENTATION_REPRESENTATION('',(#1457),
#2297);
#2297=(
GEOMETRIC_REPRESENTATION_CONTEXT(3)
GLOBAL_UNCERTAINTY_ASSIGNED_CONTEXT((#2298))
GLOBAL_UNIT_ASSIGNED_CONTEXT((#2301,#2300,#2299))
REPRESENTATION_CONTEXT('G03_integral_rack_and_finger',
'TOP_LEVEL_ASSEMBLY_PART')
);
#2298=UNCERTAINTY_MEASURE_WITH_UNIT(LENGTH_MEASURE(0.005),#2301,
'DISTANCE_ACCURACY_VALUE','Maximum Tolerance applied to model');
#2299=(
NAMED_UNIT(*)
SI_UNIT($,.STERADIAN.)
SOLID_ANGLE_UNIT()
);
#2300=(
NAMED_UNIT(*)
PLANE_ANGLE_UNIT()
SI_UNIT($,.RADIAN.)
);
#2301=(
LENGTH_UNIT()
NAMED_UNIT(*)
SI_UNIT(.MILLI.,.METRE.)
);
#2302=PRODUCT_DEFINITION_SHAPE('','',#2303);
#2303=PRODUCT_DEFINITION('','',#2305,#2304);
#2304=PRODUCT_DEFINITION_CONTEXT('',#2311,'design');
#2305=PRODUCT_DEFINITION_FORMATION_WITH_SPECIFIED_SOURCE('','',#2307,
 .NOT_KNOWN.);
#2306=PRODUCT_RELATED_PRODUCT_CATEGORY('','',(#2307));
#2307=PRODUCT('G03_integral_rack_and_finger',
'G03_integral_rack_and_finger','G03_integral_rack_and_finger',(#2309));
#2308=PRODUCT_CATEGORY('','');
#2309=PRODUCT_CONTEXT('',#2311,'mechanical');
#2310=APPLICATION_PROTOCOL_DEFINITION('international standard',
'automotive_design',2010,#2311);
#2311=APPLICATION_CONTEXT(
'core data for automotive mechanical design processes');
ENDSEC;
END-ISO-10303-21;
