ISO-10303-21;
HEADER;
/* Generated by software containing ST-Developer
 * from STEP Tools, Inc. (www.steptools.com) 
 */
/* OPTION: strings as raw bytes, not using required /X/ escapes */

FILE_DESCRIPTION(
/* description */ ('Unknown'),
/* implementation_level */ '2;1');

FILE_NAME(
/* name */ 'G04_guide_cover',
/* time_stamp */ '2026-09-23T11:56:51+08:00',
/* author */ ('Unknown'),
/* organization */ ('Unknown'),
/* preprocessor_version */ 'ST-DEVELOPER v16.7',
/* originating_system */ 'Solid Edge',
/* authorisation */ 'Unknown');

FILE_SCHEMA (('AUTOMOTIVE_DESIGN {1 0 10303 214 3 1 1}'));
ENDSEC;

DATA;
#10=PROPERTY_DEFINITION_REPRESENTATION(#14,#12);
#11=PROPERTY_DEFINITION_REPRESENTATION(#15,#13);
#12=REPRESENTATION('',(#16),#593);
#13=REPRESENTATION('',(#17),#593);
#14=PROPERTY_DEFINITION('pmi validation property','',#598);
#15=PROPERTY_DEFINITION('pmi validation property','',#598);
#16=VALUE_REPRESENTATION_ITEM('number of annotations',COUNT_MEASURE(0.));
#17=VALUE_REPRESENTATION_ITEM('number of views',COUNT_MEASURE(0.));
#18=SHAPE_REPRESENTATION_RELATIONSHIP('','',#371,#19);
#19=ADVANCED_BREP_SHAPE_REPRESENTATION('',(#369),#593);
#20=CIRCLE('',#377,1.7);
#21=CIRCLE('',#378,1.7);
#22=CIRCLE('',#383,1.7);
#23=CIRCLE('',#384,1.7);
#24=CIRCLE('',#387,1.7);
#25=CIRCLE('',#388,1.7);
#26=CIRCLE('',#393,1.7);
#27=CIRCLE('',#394,1.7);
#28=CYLINDRICAL_SURFACE('',#376,1.7);
#29=CYLINDRICAL_SURFACE('',#382,1.7);
#30=CYLINDRICAL_SURFACE('',#386,1.7);
#31=CYLINDRICAL_SURFACE('',#392,1.7);
#32=ORIENTED_EDGE('',*,*,#128,.T.);
#33=ORIENTED_EDGE('',*,*,#129,.F.);
#34=ORIENTED_EDGE('',*,*,#130,.F.);
#35=ORIENTED_EDGE('',*,*,#131,.T.);
#36=ORIENTED_EDGE('',*,*,#132,.T.);
#37=ORIENTED_EDGE('',*,*,#133,.F.);
#38=ORIENTED_EDGE('',*,*,#134,.F.);
#39=ORIENTED_EDGE('',*,*,#129,.T.);
#40=ORIENTED_EDGE('',*,*,#135,.T.);
#41=ORIENTED_EDGE('',*,*,#136,.F.);
#42=ORIENTED_EDGE('',*,*,#137,.F.);
#43=ORIENTED_EDGE('',*,*,#133,.T.);
#44=ORIENTED_EDGE('',*,*,#138,.F.);
#45=ORIENTED_EDGE('',*,*,#139,.F.);
#46=ORIENTED_EDGE('',*,*,#140,.T.);
#47=ORIENTED_EDGE('',*,*,#141,.T.);
#48=ORIENTED_EDGE('',*,*,#142,.F.);
#49=ORIENTED_EDGE('',*,*,#143,.F.);
#50=ORIENTED_EDGE('',*,*,#144,.T.);
#51=ORIENTED_EDGE('',*,*,#139,.T.);
#52=ORIENTED_EDGE('',*,*,#145,.F.);
#53=ORIENTED_EDGE('',*,*,#146,.F.);
#54=ORIENTED_EDGE('',*,*,#147,.T.);
#55=ORIENTED_EDGE('',*,*,#143,.T.);
#56=ORIENTED_EDGE('',*,*,#148,.F.);
#57=ORIENTED_EDGE('',*,*,#149,.F.);
#58=ORIENTED_EDGE('',*,*,#150,.T.);
#59=ORIENTED_EDGE('',*,*,#146,.T.);
#60=ORIENTED_EDGE('',*,*,#151,.F.);
#61=ORIENTED_EDGE('',*,*,#152,.F.);
#62=ORIENTED_EDGE('',*,*,#153,.T.);
#63=ORIENTED_EDGE('',*,*,#149,.T.);
#64=ORIENTED_EDGE('',*,*,#154,.F.);
#65=ORIENTED_EDGE('',*,*,#155,.F.);
#66=ORIENTED_EDGE('',*,*,#156,.T.);
#67=ORIENTED_EDGE('',*,*,#152,.T.);
#68=ORIENTED_EDGE('',*,*,#157,.F.);
#69=ORIENTED_EDGE('',*,*,#158,.F.);
#70=ORIENTED_EDGE('',*,*,#159,.T.);
#71=ORIENTED_EDGE('',*,*,#155,.T.);
#72=ORIENTED_EDGE('',*,*,#160,.F.);
#73=ORIENTED_EDGE('',*,*,#161,.F.);
#74=ORIENTED_EDGE('',*,*,#162,.T.);
#75=ORIENTED_EDGE('',*,*,#158,.T.);
#76=ORIENTED_EDGE('',*,*,#163,.F.);
#77=ORIENTED_EDGE('',*,*,#164,.F.);
#78=ORIENTED_EDGE('',*,*,#165,.T.);
#79=ORIENTED_EDGE('',*,*,#161,.T.);
#80=ORIENTED_EDGE('',*,*,#166,.F.);
#81=ORIENTED_EDGE('',*,*,#167,.F.);
#82=ORIENTED_EDGE('',*,*,#168,.T.);
#83=ORIENTED_EDGE('',*,*,#164,.T.);
#84=ORIENTED_EDGE('',*,*,#169,.F.);
#85=ORIENTED_EDGE('',*,*,#170,.F.);
#86=ORIENTED_EDGE('',*,*,#171,.T.);
#87=ORIENTED_EDGE('',*,*,#167,.T.);
#88=ORIENTED_EDGE('',*,*,#172,.F.);
#89=ORIENTED_EDGE('',*,*,#141,.F.);
#90=ORIENTED_EDGE('',*,*,#173,.T.);
#91=ORIENTED_EDGE('',*,*,#170,.T.);
#92=ORIENTED_EDGE('',*,*,#174,.T.);
#93=ORIENTED_EDGE('',*,*,#131,.F.);
#94=ORIENTED_EDGE('',*,*,#175,.F.);
#95=ORIENTED_EDGE('',*,*,#136,.T.);
#96=ORIENTED_EDGE('',*,*,#140,.F.);
#97=ORIENTED_EDGE('',*,*,#144,.F.);
#98=ORIENTED_EDGE('',*,*,#147,.F.);
#99=ORIENTED_EDGE('',*,*,#150,.F.);
#100=ORIENTED_EDGE('',*,*,#153,.F.);
#101=ORIENTED_EDGE('',*,*,#156,.F.);
#102=ORIENTED_EDGE('',*,*,#159,.F.);
#103=ORIENTED_EDGE('',*,*,#162,.F.);
#104=ORIENTED_EDGE('',*,*,#165,.F.);
#105=ORIENTED_EDGE('',*,*,#168,.F.);
#106=ORIENTED_EDGE('',*,*,#171,.F.);
#107=ORIENTED_EDGE('',*,*,#173,.F.);
#108=ORIENTED_EDGE('',*,*,#130,.T.);
#109=ORIENTED_EDGE('',*,*,#134,.T.);
#110=ORIENTED_EDGE('',*,*,#137,.T.);
#111=ORIENTED_EDGE('',*,*,#175,.T.);
#112=ORIENTED_EDGE('',*,*,#138,.T.);
#113=ORIENTED_EDGE('',*,*,#172,.T.);
#114=ORIENTED_EDGE('',*,*,#169,.T.);
#115=ORIENTED_EDGE('',*,*,#166,.T.);
#116=ORIENTED_EDGE('',*,*,#163,.T.);
#117=ORIENTED_EDGE('',*,*,#160,.T.);
#118=ORIENTED_EDGE('',*,*,#157,.T.);
#119=ORIENTED_EDGE('',*,*,#154,.T.);
#120=ORIENTED_EDGE('',*,*,#151,.T.);
#121=ORIENTED_EDGE('',*,*,#148,.T.);
#122=ORIENTED_EDGE('',*,*,#145,.T.);
#123=ORIENTED_EDGE('',*,*,#142,.T.);
#124=ORIENTED_EDGE('',*,*,#128,.F.);
#125=ORIENTED_EDGE('',*,*,#174,.F.);
#126=ORIENTED_EDGE('',*,*,#135,.F.);
#127=ORIENTED_EDGE('',*,*,#132,.F.);
#128=EDGE_CURVE('',#176,#177,#208,.T.);
#129=EDGE_CURVE('',#178,#177,#209,.T.);
#130=EDGE_CURVE('',#179,#178,#210,.T.);
#131=EDGE_CURVE('',#179,#176,#211,.T.);
#132=EDGE_CURVE('',#177,#180,#212,.T.);
#133=EDGE_CURVE('',#181,#180,#213,.T.);
#134=EDGE_CURVE('',#178,#181,#214,.T.);
#135=EDGE_CURVE('',#180,#182,#215,.T.);
#136=EDGE_CURVE('',#183,#182,#216,.T.);
#137=EDGE_CURVE('',#181,#183,#217,.T.);
#138=EDGE_CURVE('',#184,#185,#20,.T.);
#139=EDGE_CURVE('',#186,#184,#218,.T.);
#140=EDGE_CURVE('',#186,#187,#21,.T.);
#141=EDGE_CURVE('',#187,#185,#219,.T.);
#142=EDGE_CURVE('',#188,#184,#220,.T.);
#143=EDGE_CURVE('',#189,#188,#221,.T.);
#144=EDGE_CURVE('',#189,#186,#222,.T.);
#145=EDGE_CURVE('',#190,#188,#223,.T.);
#146=EDGE_CURVE('',#191,#190,#224,.T.);
#147=EDGE_CURVE('',#191,#189,#225,.T.);
#148=EDGE_CURVE('',#192,#190,#226,.T.);
#149=EDGE_CURVE('',#193,#192,#227,.T.);
#150=EDGE_CURVE('',#193,#191,#228,.T.);
#151=EDGE_CURVE('',#194,#192,#22,.T.);
#152=EDGE_CURVE('',#195,#194,#229,.T.);
#153=EDGE_CURVE('',#195,#193,#23,.T.);
#154=EDGE_CURVE('',#196,#194,#230,.T.);
#155=EDGE_CURVE('',#197,#196,#231,.T.);
#156=EDGE_CURVE('',#197,#195,#232,.T.);
#157=EDGE_CURVE('',#198,#196,#24,.T.);
#158=EDGE_CURVE('',#199,#198,#233,.T.);
#159=EDGE_CURVE('',#199,#197,#25,.T.);
#160=EDGE_CURVE('',#200,#198,#234,.T.);
#161=EDGE_CURVE('',#201,#200,#235,.T.);
#162=EDGE_CURVE('',#201,#199,#236,.T.);
#163=EDGE_CURVE('',#202,#200,#237,.T.);
#164=EDGE_CURVE('',#203,#202,#238,.T.);
#165=EDGE_CURVE('',#203,#201,#239,.T.);
#166=EDGE_CURVE('',#204,#202,#240,.T.);
#167=EDGE_CURVE('',#205,#204,#241,.T.);
#168=EDGE_CURVE('',#205,#203,#242,.T.);
#169=EDGE_CURVE('',#206,#204,#26,.T.);
#170=EDGE_CURVE('',#207,#206,#243,.T.);
#171=EDGE_CURVE('',#207,#205,#27,.T.);
#172=EDGE_CURVE('',#185,#206,#244,.T.);
#173=EDGE_CURVE('',#187,#207,#245,.T.);
#174=EDGE_CURVE('',#182,#176,#246,.T.);
#175=EDGE_CURVE('',#183,#179,#247,.T.);
#176=VERTEX_POINT('',#496);
#177=VERTEX_POINT('',#497);
#178=VERTEX_POINT('',#499);
#179=VERTEX_POINT('',#501);
#180=VERTEX_POINT('',#505);
#181=VERTEX_POINT('',#507);
#182=VERTEX_POINT('',#511);
#183=VERTEX_POINT('',#513);
#184=VERTEX_POINT('',#517);
#185=VERTEX_POINT('',#518);
#186=VERTEX_POINT('',#520);
#187=VERTEX_POINT('',#522);
#188=VERTEX_POINT('',#526);
#189=VERTEX_POINT('',#528);
#190=VERTEX_POINT('',#532);
#191=VERTEX_POINT('',#534);
#192=VERTEX_POINT('',#538);
#193=VERTEX_POINT('',#540);
#194=VERTEX_POINT('',#544);
#195=VERTEX_POINT('',#546);
#196=VERTEX_POINT('',#550);
#197=VERTEX_POINT('',#552);
#198=VERTEX_POINT('',#556);
#199=VERTEX_POINT('',#558);
#200=VERTEX_POINT('',#562);
#201=VERTEX_POINT('',#564);
#202=VERTEX_POINT('',#568);
#203=VERTEX_POINT('',#570);
#204=VERTEX_POINT('',#574);
#205=VERTEX_POINT('',#576);
#206=VERTEX_POINT('',#580);
#207=VERTEX_POINT('',#582);
#208=LINE('',#495,#248);
#209=LINE('',#498,#249);
#210=LINE('',#500,#250);
#211=LINE('',#502,#251);
#212=LINE('',#504,#252);
#213=LINE('',#506,#253);
#214=LINE('',#508,#254);
#215=LINE('',#510,#255);
#216=LINE('',#512,#256);
#217=LINE('',#514,#257);
#218=LINE('',#519,#258);
#219=LINE('',#523,#259);
#220=LINE('',#525,#260);
#221=LINE('',#527,#261);
#222=LINE('',#529,#262);
#223=LINE('',#531,#263);
#224=LINE('',#533,#264);
#225=LINE('',#535,#265);
#226=LINE('',#537,#266);
#227=LINE('',#539,#267);
#228=LINE('',#541,#268);
#229=LINE('',#545,#269);
#230=LINE('',#549,#270);
#231=LINE('',#551,#271);
#232=LINE('',#553,#272);
#233=LINE('',#557,#273);
#234=LINE('',#561,#274);
#235=LINE('',#563,#275);
#236=LINE('',#565,#276);
#237=LINE('',#567,#277);
#238=LINE('',#569,#278);
#239=LINE('',#571,#279);
#240=LINE('',#573,#280);
#241=LINE('',#575,#281);
#242=LINE('',#577,#282);
#243=LINE('',#581,#283);
#244=LINE('',#585,#284);
#245=LINE('',#586,#285);
#246=LINE('',#588,#286);
#247=LINE('',#589,#287);
#248=VECTOR('',#403,1000.);
#249=VECTOR('',#404,1000.);
#250=VECTOR('',#405,1000.);
#251=VECTOR('',#406,1000.);
#252=VECTOR('',#409,1000.);
#253=VECTOR('',#410,1000.);
#254=VECTOR('',#411,1000.);
#255=VECTOR('',#414,1000.);
#256=VECTOR('',#415,1000.);
#257=VECTOR('',#416,1000.);
#258=VECTOR('',#421,1000.);
#259=VECTOR('',#424,1000.);
#260=VECTOR('',#427,1000.);
#261=VECTOR('',#428,1000.);
#262=VECTOR('',#429,1000.);
#263=VECTOR('',#432,1000.);
#264=VECTOR('',#433,1000.);
#265=VECTOR('',#434,1000.);
#266=VECTOR('',#437,1000.);
#267=VECTOR('',#438,1000.);
#268=VECTOR('',#439,1000.);
#269=VECTOR('',#444,1000.);
#270=VECTOR('',#449,1000.);
#271=VECTOR('',#450,1000.);
#272=VECTOR('',#451,1000.);
#273=VECTOR('',#456,1000.);
#274=VECTOR('',#461,1000.);
#275=VECTOR('',#462,1000.);
#276=VECTOR('',#463,1000.);
#277=VECTOR('',#466,1000.);
#278=VECTOR('',#467,1000.);
#279=VECTOR('',#468,1000.);
#280=VECTOR('',#471,1000.);
#281=VECTOR('',#472,1000.);
#282=VECTOR('',#473,1000.);
#283=VECTOR('',#478,1000.);
#284=VECTOR('',#483,1000.);
#285=VECTOR('',#484,1000.);
#286=VECTOR('',#487,1000.);
#287=VECTOR('',#488,1000.);
#288=EDGE_LOOP('',(#32,#33,#34,#35));
#289=EDGE_LOOP('',(#36,#37,#38,#39));
#290=EDGE_LOOP('',(#40,#41,#42,#43));
#291=EDGE_LOOP('',(#44,#45,#46,#47));
#292=EDGE_LOOP('',(#48,#49,#50,#51));
#293=EDGE_LOOP('',(#52,#53,#54,#55));
#294=EDGE_LOOP('',(#56,#57,#58,#59));
#295=EDGE_LOOP('',(#60,#61,#62,#63));
#296=EDGE_LOOP('',(#64,#65,#66,#67));
#297=EDGE_LOOP('',(#68,#69,#70,#71));
#298=EDGE_LOOP('',(#72,#73,#74,#75));
#299=EDGE_LOOP('',(#76,#77,#78,#79));
#300=EDGE_LOOP('',(#80,#81,#82,#83));
#301=EDGE_LOOP('',(#84,#85,#86,#87));
#302=EDGE_LOOP('',(#88,#89,#90,#91));
#303=EDGE_LOOP('',(#92,#93,#94,#95));
#304=EDGE_LOOP('',(#96,#97,#98,#99,#100,#101,#102,#103,#104,#105,#106,#107));
#305=EDGE_LOOP('',(#108,#109,#110,#111));
#306=EDGE_LOOP('',(#112,#113,#114,#115,#116,#117,#118,#119,#120,#121,#122,
#123));
#307=EDGE_LOOP('',(#124,#125,#126,#127));
#308=FACE_BOUND('',#288,.T.);
#309=FACE_BOUND('',#289,.T.);
#310=FACE_BOUND('',#290,.T.);
#311=FACE_BOUND('',#291,.T.);
#312=FACE_BOUND('',#292,.T.);
#313=FACE_BOUND('',#293,.T.);
#314=FACE_BOUND('',#294,.T.);
#315=FACE_BOUND('',#295,.T.);
#316=FACE_BOUND('',#296,.T.);
#317=FACE_BOUND('',#297,.T.);
#318=FACE_BOUND('',#298,.T.);
#319=FACE_BOUND('',#299,.T.);
#320=FACE_BOUND('',#300,.T.);
#321=FACE_BOUND('',#301,.T.);
#322=FACE_BOUND('',#302,.T.);
#323=FACE_BOUND('',#303,.T.);
#324=FACE_BOUND('',#304,.T.);
#325=FACE_BOUND('',#305,.T.);
#326=FACE_BOUND('',#306,.T.);
#327=FACE_BOUND('',#307,.T.);
#328=PLANE('',#373);
#329=PLANE('',#374);
#330=PLANE('',#375);
#331=PLANE('',#379);
#332=PLANE('',#380);
#333=PLANE('',#381);
#334=PLANE('',#385);
#335=PLANE('',#389);
#336=PLANE('',#390);
#337=PLANE('',#391);
#338=PLANE('',#395);
#339=PLANE('',#396);
#340=PLANE('',#397);
#341=PLANE('',#398);
#342=ADVANCED_FACE('',(#308),#328,.F.);
#343=ADVANCED_FACE('',(#309),#329,.F.);
#344=ADVANCED_FACE('',(#310),#330,.F.);
#345=ADVANCED_FACE('',(#311),#28,.F.);
#346=ADVANCED_FACE('',(#312),#331,.T.);
#347=ADVANCED_FACE('',(#313),#332,.T.);
#348=ADVANCED_FACE('',(#314),#333,.T.);
#349=ADVANCED_FACE('',(#315),#29,.F.);
#350=ADVANCED_FACE('',(#316),#334,.T.);
#351=ADVANCED_FACE('',(#317),#30,.F.);
#352=ADVANCED_FACE('',(#318),#335,.T.);
#353=ADVANCED_FACE('',(#319),#336,.T.);
#354=ADVANCED_FACE('',(#320),#337,.T.);
#355=ADVANCED_FACE('',(#321),#31,.F.);
#356=ADVANCED_FACE('',(#322),#338,.T.);
#357=ADVANCED_FACE('',(#323),#339,.F.);
#358=ADVANCED_FACE('',(#324,#325),#340,.T.);
#359=ADVANCED_FACE('',(#326,#327),#341,.F.);
#360=CLOSED_SHELL('',(#342,#343,#344,#345,#346,#347,#348,#349,#350,#351,
#352,#353,#354,#355,#356,#357,#358,#359));
#361=STYLED_ITEM('',(#362),#369);
#362=PRESENTATION_STYLE_ASSIGNMENT((#363));
#363=SURFACE_STYLE_USAGE(.BOTH.,#364);
#364=SURFACE_SIDE_STYLE('',(#365));
#365=SURFACE_STYLE_FILL_AREA(#366);
#366=FILL_AREA_STYLE('',(#367));
#367=FILL_AREA_STYLE_COLOUR('',#368);
#368=COLOUR_RGB('',0.100000001490116,0.349999994039536,0.280000001192093);
#369=MANIFOLD_SOLID_BREP('',#360);
#370=SHAPE_DEFINITION_REPRESENTATION(#598,#371);
#371=SHAPE_REPRESENTATION('G04_guide_cover',(#372),#593);
#372=AXIS2_PLACEMENT_3D('',#493,#399,#400);
#373=AXIS2_PLACEMENT_3D('',#494,#401,#402);
#374=AXIS2_PLACEMENT_3D('',#503,#407,#408);
#375=AXIS2_PLACEMENT_3D('',#509,#412,#413);
#376=AXIS2_PLACEMENT_3D('',#515,#417,#418);
#377=AXIS2_PLACEMENT_3D('',#516,#419,#420);
#378=AXIS2_PLACEMENT_3D('',#521,#422,#423);
#379=AXIS2_PLACEMENT_3D('',#524,#425,#426);
#380=AXIS2_PLACEMENT_3D('',#530,#430,#431);
#381=AXIS2_PLACEMENT_3D('',#536,#435,#436);
#382=AXIS2_PLACEMENT_3D('',#542,#440,#441);
#383=AXIS2_PLACEMENT_3D('',#543,#442,#443);
#384=AXIS2_PLACEMENT_3D('',#547,#445,#446);
#385=AXIS2_PLACEMENT_3D('',#548,#447,#448);
#386=AXIS2_PLACEMENT_3D('',#554,#452,#453);
#387=AXIS2_PLACEMENT_3D('',#555,#454,#455);
#388=AXIS2_PLACEMENT_3D('',#559,#457,#458);
#389=AXIS2_PLACEMENT_3D('',#560,#459,#460);
#390=AXIS2_PLACEMENT_3D('',#566,#464,#465);
#391=AXIS2_PLACEMENT_3D('',#572,#469,#470);
#392=AXIS2_PLACEMENT_3D('',#578,#474,#475);
#393=AXIS2_PLACEMENT_3D('',#579,#476,#477);
#394=AXIS2_PLACEMENT_3D('',#583,#479,#480);
#395=AXIS2_PLACEMENT_3D('',#584,#481,#482);
#396=AXIS2_PLACEMENT_3D('',#587,#485,#486);
#397=AXIS2_PLACEMENT_3D('',#590,#489,#490);
#398=AXIS2_PLACEMENT_3D('',#591,#491,#492);
#399=DIRECTION('',(0.,0.,1.));
#400=DIRECTION('',(1.,0.,0.));
#401=DIRECTION('',(1.,0.,0.));
#402=DIRECTION('',(0.,0.,-1.));
#403=DIRECTION('',(0.,-1.,0.));
#404=DIRECTION('',(0.,0.,-1.));
#405=DIRECTION('',(0.,-1.,0.));
#406=DIRECTION('',(0.,0.,-1.));
#407=DIRECTION('',(0.,1.,0.));
#408=DIRECTION('',(0.,0.,1.));
#409=DIRECTION('',(1.,0.,0.));
#410=DIRECTION('',(0.,0.,-1.));
#411=DIRECTION('',(1.,0.,0.));
#412=DIRECTION('',(-1.,0.,0.));
#413=DIRECTION('',(0.,0.,1.));
#414=DIRECTION('',(0.,1.,0.));
#415=DIRECTION('',(0.,0.,-1.));
#416=DIRECTION('',(0.,1.,0.));
#417=DIRECTION('',(0.,0.,-1.));
#418=DIRECTION('',(-1.,0.,0.));
#419=DIRECTION('',(0.,0.,1.));
#420=DIRECTION('',(1.,0.,0.));
#421=DIRECTION('',(0.,0.,-1.));
#422=DIRECTION('',(0.,0.,1.));
#423=DIRECTION('',(1.,0.,0.));
#424=DIRECTION('',(0.,0.,-1.));
#425=DIRECTION('',(0.,-1.,0.));
#426=DIRECTION('',(0.,0.,-1.));
#427=DIRECTION('',(-1.,0.,0.));
#428=DIRECTION('',(0.,0.,-1.));
#429=DIRECTION('',(-1.,0.,0.));
#430=DIRECTION('',(-1.,0.,0.));
#431=DIRECTION('',(0.,0.,1.));
#432=DIRECTION('',(0.,1.,0.));
#433=DIRECTION('',(0.,0.,-1.));
#434=DIRECTION('',(0.,1.,0.));
#435=DIRECTION('',(0.,1.,0.));
#436=DIRECTION('',(0.,0.,1.));
#437=DIRECTION('',(1.,0.,0.));
#438=DIRECTION('',(0.,0.,-1.));
#439=DIRECTION('',(1.,0.,0.));
#440=DIRECTION('',(0.,0.,-1.));
#441=DIRECTION('',(-1.,0.,0.));
#442=DIRECTION('',(0.,0.,1.));
#443=DIRECTION('',(1.,0.,0.));
#444=DIRECTION('',(0.,0.,-1.));
#445=DIRECTION('',(0.,0.,1.));
#446=DIRECTION('',(1.,0.,0.));
#447=DIRECTION('',(0.,1.,0.));
#448=DIRECTION('',(0.,0.,1.));
#449=DIRECTION('',(1.,0.,0.));
#450=DIRECTION('',(0.,0.,-1.));
#451=DIRECTION('',(1.,0.,0.));
#452=DIRECTION('',(0.,0.,-1.));
#453=DIRECTION('',(-1.,0.,0.));
#454=DIRECTION('',(0.,0.,1.));
#455=DIRECTION('',(1.,0.,0.));
#456=DIRECTION('',(0.,0.,-1.));
#457=DIRECTION('',(0.,0.,1.));
#458=DIRECTION('',(1.,0.,0.));
#459=DIRECTION('',(0.,1.,0.));
#460=DIRECTION('',(0.,0.,1.));
#461=DIRECTION('',(1.,0.,0.));
#462=DIRECTION('',(0.,0.,-1.));
#463=DIRECTION('',(1.,0.,0.));
#464=DIRECTION('',(1.,0.,0.));
#465=DIRECTION('',(0.,0.,-1.));
#466=DIRECTION('',(0.,-1.,0.));
#467=DIRECTION('',(0.,0.,-1.));
#468=DIRECTION('',(0.,-1.,0.));
#469=DIRECTION('',(0.,-1.,0.));
#470=DIRECTION('',(0.,0.,-1.));
#471=DIRECTION('',(-1.,0.,0.));
#472=DIRECTION('',(0.,0.,-1.));
#473=DIRECTION('',(-1.,0.,0.));
#474=DIRECTION('',(0.,0.,-1.));
#475=DIRECTION('',(-1.,0.,0.));
#476=DIRECTION('',(0.,0.,1.));
#477=DIRECTION('',(1.,0.,0.));
#478=DIRECTION('',(0.,0.,-1.));
#479=DIRECTION('',(0.,0.,1.));
#480=DIRECTION('',(1.,0.,0.));
#481=DIRECTION('',(0.,-1.,0.));
#482=DIRECTION('',(0.,0.,-1.));
#483=DIRECTION('',(-1.,0.,0.));
#484=DIRECTION('',(-1.,0.,0.));
#485=DIRECTION('',(0.,-1.,0.));
#486=DIRECTION('',(0.,0.,-1.));
#487=DIRECTION('',(-1.,0.,0.));
#488=DIRECTION('',(-1.,0.,0.));
#489=DIRECTION('',(0.,0.,1.));
#490=DIRECTION('',(1.,0.,0.));
#491=DIRECTION('',(0.,0.,1.));
#492=DIRECTION('',(1.,0.,0.));
#493=CARTESIAN_POINT('',(0.,0.,0.));
#494=CARTESIAN_POINT('',(-53.,32.,3.));
#495=CARTESIAN_POINT('',(-53.,32.,0.));
#496=CARTESIAN_POINT('',(-53.,32.,0.));
#497=CARTESIAN_POINT('',(-53.,-49.,0.));
#498=CARTESIAN_POINT('',(-53.,-49.,3.));
#499=CARTESIAN_POINT('',(-53.,-49.,3.));
#500=CARTESIAN_POINT('',(-53.,32.,3.));
#501=CARTESIAN_POINT('',(-53.,32.,3.));
#502=CARTESIAN_POINT('',(-53.,32.,3.));
#503=CARTESIAN_POINT('',(-53.,-49.,3.));
#504=CARTESIAN_POINT('',(-53.,-49.,0.));
#505=CARTESIAN_POINT('',(53.,-49.,0.));
#506=CARTESIAN_POINT('',(53.,-49.,3.));
#507=CARTESIAN_POINT('',(53.,-49.,3.));
#508=CARTESIAN_POINT('',(-53.,-49.,3.));
#509=CARTESIAN_POINT('',(53.,-49.,3.));
#510=CARTESIAN_POINT('',(53.,-49.,0.));
#511=CARTESIAN_POINT('',(53.,32.,0.));
#512=CARTESIAN_POINT('',(53.,32.,3.));
#513=CARTESIAN_POINT('',(53.,32.,3.));
#514=CARTESIAN_POINT('',(53.,-49.,3.));
#515=CARTESIAN_POINT('',(45.,25.,3.));
#516=CARTESIAN_POINT('',(45.,25.,0.));
#517=CARTESIAN_POINT('',(45.5744562646538,23.4,0.));
#518=CARTESIAN_POINT('',(44.4255437353462,23.4,0.));
#519=CARTESIAN_POINT('',(45.5744562646538,23.4,3.));
#520=CARTESIAN_POINT('',(45.5744562646538,23.4,3.));
#521=CARTESIAN_POINT('',(45.,25.,3.));
#522=CARTESIAN_POINT('',(44.4255437353462,23.4,3.));
#523=CARTESIAN_POINT('',(44.4255437353462,23.4,3.));
#524=CARTESIAN_POINT('',(50.,23.4,3.));
#525=CARTESIAN_POINT('',(50.,23.4,0.));
#526=CARTESIAN_POINT('',(50.,23.4,0.));
#527=CARTESIAN_POINT('',(50.,23.4,3.));
#528=CARTESIAN_POINT('',(50.,23.4,3.));
#529=CARTESIAN_POINT('',(50.,23.4,3.));
#530=CARTESIAN_POINT('',(50.,-23.4,3.));
#531=CARTESIAN_POINT('',(50.,-23.4,0.));
#532=CARTESIAN_POINT('',(50.,-23.4,0.));
#533=CARTESIAN_POINT('',(50.,-23.4,3.));
#534=CARTESIAN_POINT('',(50.,-23.4,3.));
#535=CARTESIAN_POINT('',(50.,-23.4,3.));
#536=CARTESIAN_POINT('',(-50.,-23.4,3.));
#537=CARTESIAN_POINT('',(-50.,-23.4,0.));
#538=CARTESIAN_POINT('',(45.5744562646538,-23.4,0.));
#539=CARTESIAN_POINT('',(45.5744562646538,-23.4,3.));
#540=CARTESIAN_POINT('',(45.5744562646538,-23.4,3.));
#541=CARTESIAN_POINT('',(-50.,-23.4,3.));
#542=CARTESIAN_POINT('',(45.,-25.,3.));
#543=CARTESIAN_POINT('',(45.,-25.,0.));
#544=CARTESIAN_POINT('',(44.4255437353462,-23.4,0.));
#545=CARTESIAN_POINT('',(44.4255437353462,-23.4,3.));
#546=CARTESIAN_POINT('',(44.4255437353462,-23.4,3.));
#547=CARTESIAN_POINT('',(45.,-25.,3.));
#548=CARTESIAN_POINT('',(-50.,-23.4,3.));
#549=CARTESIAN_POINT('',(-50.,-23.4,0.));
#550=CARTESIAN_POINT('',(-44.4255437353462,-23.4,0.));
#551=CARTESIAN_POINT('',(-44.4255437353462,-23.4,3.));
#552=CARTESIAN_POINT('',(-44.4255437353462,-23.4,3.));
#553=CARTESIAN_POINT('',(-50.,-23.4,3.));
#554=CARTESIAN_POINT('',(-45.,-25.,3.));
#555=CARTESIAN_POINT('',(-45.,-25.,0.));
#556=CARTESIAN_POINT('',(-45.5744562646538,-23.4,0.));
#557=CARTESIAN_POINT('',(-45.5744562646538,-23.4,3.));
#558=CARTESIAN_POINT('',(-45.5744562646538,-23.4,3.));
#559=CARTESIAN_POINT('',(-45.,-25.,3.));
#560=CARTESIAN_POINT('',(-50.,-23.4,3.));
#561=CARTESIAN_POINT('',(-50.,-23.4,0.));
#562=CARTESIAN_POINT('',(-50.,-23.4,0.));
#563=CARTESIAN_POINT('',(-50.,-23.4,3.));
#564=CARTESIAN_POINT('',(-50.,-23.4,3.));
#565=CARTESIAN_POINT('',(-50.,-23.4,3.));
#566=CARTESIAN_POINT('',(-50.,23.4,3.));
#567=CARTESIAN_POINT('',(-50.,23.4,0.));
#568=CARTESIAN_POINT('',(-50.,23.4,0.));
#569=CARTESIAN_POINT('',(-50.,23.4,3.));
#570=CARTESIAN_POINT('',(-50.,23.4,3.));
#571=CARTESIAN_POINT('',(-50.,23.4,3.));
#572=CARTESIAN_POINT('',(50.,23.4,3.));
#573=CARTESIAN_POINT('',(50.,23.4,0.));
#574=CARTESIAN_POINT('',(-45.5744562646538,23.4,0.));
#575=CARTESIAN_POINT('',(-45.5744562646538,23.4,3.));
#576=CARTESIAN_POINT('',(-45.5744562646538,23.4,3.));
#577=CARTESIAN_POINT('',(50.,23.4,3.));
#578=CARTESIAN_POINT('',(-45.,25.,3.));
#579=CARTESIAN_POINT('',(-45.,25.,0.));
#580=CARTESIAN_POINT('',(-44.4255437353462,23.4,0.));
#581=CARTESIAN_POINT('',(-44.4255437353462,23.4,3.));
#582=CARTESIAN_POINT('',(-44.4255437353462,23.4,3.));
#583=CARTESIAN_POINT('',(-45.,25.,3.));
#584=CARTESIAN_POINT('',(50.,23.4,3.));
#585=CARTESIAN_POINT('',(50.,23.4,0.));
#586=CARTESIAN_POINT('',(50.,23.4,3.));
#587=CARTESIAN_POINT('',(53.,32.,3.));
#588=CARTESIAN_POINT('',(53.,32.,0.));
#589=CARTESIAN_POINT('',(53.,32.,3.));
#590=CARTESIAN_POINT('',(0.,0.,3.));
#591=CARTESIAN_POINT('',(0.,0.,0.));
#592=MECHANICAL_DESIGN_GEOMETRIC_PRESENTATION_REPRESENTATION('',(#361),
#593);
#593=(
GEOMETRIC_REPRESENTATION_CONTEXT(3)
GLOBAL_UNCERTAINTY_ASSIGNED_CONTEXT((#594))
GLOBAL_UNIT_ASSIGNED_CONTEXT((#597,#596,#595))
REPRESENTATION_CONTEXT('G04_guide_cover','TOP_LEVEL_ASSEMBLY_PART')
);
#594=UNCERTAINTY_MEASURE_WITH_UNIT(LENGTH_MEASURE(0.005),#597,
'DISTANCE_ACCURACY_VALUE','Maximum Tolerance applied to model');
#595=(
NAMED_UNIT(*)
SI_UNIT($,.STERADIAN.)
SOLID_ANGLE_UNIT()
);
#596=(
NAMED_UNIT(*)
PLANE_ANGLE_UNIT()
SI_UNIT($,.RADIAN.)
);
#597=(
LENGTH_UNIT()
NAMED_UNIT(*)
SI_UNIT(.MILLI.,.METRE.)
);
#598=PRODUCT_DEFINITION_SHAPE('','',#599);
#599=PRODUCT_DEFINITION('','',#601,#600);
#600=PRODUCT_DEFINITION_CONTEXT('',#607,'design');
#601=PRODUCT_DEFINITION_FORMATION_WITH_SPECIFIED_SOURCE('','',#603,
 .NOT_KNOWN.);
#602=PRODUCT_RELATED_PRODUCT_CATEGORY('','',(#603));
#603=PRODUCT('G04_guide_cover','G04_guide_cover','G04_guide_cover',(#605));
#604=PRODUCT_CATEGORY('','');
#605=PRODUCT_CONTEXT('',#607,'mechanical');
#606=APPLICATION_PROTOCOL_DEFINITION('international standard',
'automotive_design',2010,#607);
#607=APPLICATION_CONTEXT(
'core data for automotive mechanical design processes');
ENDSEC;
END-ISO-10303-21;
