ISO-10303-21;
HEADER;
/* Generated by software containing ST-Developer
 * from STEP Tools, Inc. (www.steptools.com) 
 */
/* OPTION: strings as raw bytes, not using required /X/ escapes */

FILE_DESCRIPTION(
/* description */ ('Unknown'),
/* implementation_level */ '2;1');

FILE_NAME(
/* name */ 'M_AX_output_flange',
/* time_stamp */ '2026-09-23T11:55:22+08:00',
/* author */ ('Unknown'),
/* organization */ ('Unknown'),
/* preprocessor_version */ 'ST-DEVELOPER v16.7',
/* originating_system */ 'Solid Edge',
/* authorisation */ 'Unknown');

FILE_SCHEMA (('AUTOMOTIVE_DESIGN {1 0 10303 214 3 1 1}'));
ENDSEC;

DATA;
#10=PROPERTY_DEFINITION_REPRESENTATION(#14,#12);
#11=PROPERTY_DEFINITION_REPRESENTATION(#15,#13);
#12=REPRESENTATION('',(#16),#389);
#13=REPRESENTATION('',(#17),#389);
#14=PROPERTY_DEFINITION('pmi validation property','',#394);
#15=PROPERTY_DEFINITION('pmi validation property','',#394);
#16=VALUE_REPRESENTATION_ITEM('number of annotations',COUNT_MEASURE(0.));
#17=VALUE_REPRESENTATION_ITEM('number of views',COUNT_MEASURE(0.));
#18=SHAPE_REPRESENTATION_RELATIONSHIP('','',#235,#19);
#19=ADVANCED_BREP_SHAPE_REPRESENTATION('',(#233),#389);
#20=PLANE('',#267);
#21=PLANE('',#268);
#22=ORIENTED_EDGE('',*,*,#62,.T.);
#23=ORIENTED_EDGE('',*,*,#63,.F.);
#24=ORIENTED_EDGE('',*,*,#64,.T.);
#25=ORIENTED_EDGE('',*,*,#65,.F.);
#26=ORIENTED_EDGE('',*,*,#66,.T.);
#27=ORIENTED_EDGE('',*,*,#67,.F.);
#28=ORIENTED_EDGE('',*,*,#68,.T.);
#29=ORIENTED_EDGE('',*,*,#69,.F.);
#30=ORIENTED_EDGE('',*,*,#70,.T.);
#31=ORIENTED_EDGE('',*,*,#71,.F.);
#32=ORIENTED_EDGE('',*,*,#72,.T.);
#33=ORIENTED_EDGE('',*,*,#73,.F.);
#34=ORIENTED_EDGE('',*,*,#74,.T.);
#35=ORIENTED_EDGE('',*,*,#75,.F.);
#36=ORIENTED_EDGE('',*,*,#76,.T.);
#37=ORIENTED_EDGE('',*,*,#77,.F.);
#38=ORIENTED_EDGE('',*,*,#78,.T.);
#39=ORIENTED_EDGE('',*,*,#79,.F.);
#40=ORIENTED_EDGE('',*,*,#80,.F.);
#41=ORIENTED_EDGE('',*,*,#81,.T.);
#42=ORIENTED_EDGE('',*,*,#78,.F.);
#43=ORIENTED_EDGE('',*,*,#76,.F.);
#44=ORIENTED_EDGE('',*,*,#74,.F.);
#45=ORIENTED_EDGE('',*,*,#72,.F.);
#46=ORIENTED_EDGE('',*,*,#70,.F.);
#47=ORIENTED_EDGE('',*,*,#68,.F.);
#48=ORIENTED_EDGE('',*,*,#66,.F.);
#49=ORIENTED_EDGE('',*,*,#64,.F.);
#50=ORIENTED_EDGE('',*,*,#62,.F.);
#51=ORIENTED_EDGE('',*,*,#80,.T.);
#52=ORIENTED_EDGE('',*,*,#79,.T.);
#53=ORIENTED_EDGE('',*,*,#77,.T.);
#54=ORIENTED_EDGE('',*,*,#75,.T.);
#55=ORIENTED_EDGE('',*,*,#73,.T.);
#56=ORIENTED_EDGE('',*,*,#71,.T.);
#57=ORIENTED_EDGE('',*,*,#69,.T.);
#58=ORIENTED_EDGE('',*,*,#67,.T.);
#59=ORIENTED_EDGE('',*,*,#65,.T.);
#60=ORIENTED_EDGE('',*,*,#63,.T.);
#61=ORIENTED_EDGE('',*,*,#81,.F.);
#62=EDGE_CURVE('',#82,#82,#102,.T.);
#63=EDGE_CURVE('',#83,#83,#103,.T.);
#64=EDGE_CURVE('',#84,#84,#104,.T.);
#65=EDGE_CURVE('',#85,#85,#105,.T.);
#66=EDGE_CURVE('',#86,#86,#106,.T.);
#67=EDGE_CURVE('',#87,#87,#107,.T.);
#68=EDGE_CURVE('',#88,#88,#108,.T.);
#69=EDGE_CURVE('',#89,#89,#109,.T.);
#70=EDGE_CURVE('',#90,#90,#110,.T.);
#71=EDGE_CURVE('',#91,#91,#111,.T.);
#72=EDGE_CURVE('',#92,#92,#112,.T.);
#73=EDGE_CURVE('',#93,#93,#113,.T.);
#74=EDGE_CURVE('',#94,#94,#114,.T.);
#75=EDGE_CURVE('',#95,#95,#115,.T.);
#76=EDGE_CURVE('',#96,#96,#116,.T.);
#77=EDGE_CURVE('',#97,#97,#117,.T.);
#78=EDGE_CURVE('',#98,#98,#118,.T.);
#79=EDGE_CURVE('',#99,#99,#119,.T.);
#80=EDGE_CURVE('',#100,#100,#120,.T.);
#81=EDGE_CURVE('',#101,#101,#121,.T.);
#82=VERTEX_POINT('',#338);
#83=VERTEX_POINT('',#340);
#84=VERTEX_POINT('',#343);
#85=VERTEX_POINT('',#345);
#86=VERTEX_POINT('',#348);
#87=VERTEX_POINT('',#350);
#88=VERTEX_POINT('',#353);
#89=VERTEX_POINT('',#355);
#90=VERTEX_POINT('',#358);
#91=VERTEX_POINT('',#360);
#92=VERTEX_POINT('',#363);
#93=VERTEX_POINT('',#365);
#94=VERTEX_POINT('',#368);
#95=VERTEX_POINT('',#370);
#96=VERTEX_POINT('',#373);
#97=VERTEX_POINT('',#375);
#98=VERTEX_POINT('',#378);
#99=VERTEX_POINT('',#380);
#100=VERTEX_POINT('',#383);
#101=VERTEX_POINT('',#385);
#102=CIRCLE('',#238,4.);
#103=CIRCLE('',#239,4.);
#104=CIRCLE('',#241,1.15);
#105=CIRCLE('',#242,1.15);
#106=CIRCLE('',#244,1.15);
#107=CIRCLE('',#245,1.15);
#108=CIRCLE('',#247,1.15);
#109=CIRCLE('',#248,1.15);
#110=CIRCLE('',#250,1.15);
#111=CIRCLE('',#251,1.15);
#112=CIRCLE('',#253,1.7);
#113=CIRCLE('',#254,1.7);
#114=CIRCLE('',#256,1.7);
#115=CIRCLE('',#257,1.7);
#116=CIRCLE('',#259,1.7);
#117=CIRCLE('',#260,1.7);
#118=CIRCLE('',#262,1.7);
#119=CIRCLE('',#263,1.7);
#120=CIRCLE('',#265,21.);
#121=CIRCLE('',#266,21.);
#122=EDGE_LOOP('',(#22));
#123=EDGE_LOOP('',(#23));
#124=EDGE_LOOP('',(#24));
#125=EDGE_LOOP('',(#25));
#126=EDGE_LOOP('',(#26));
#127=EDGE_LOOP('',(#27));
#128=EDGE_LOOP('',(#28));
#129=EDGE_LOOP('',(#29));
#130=EDGE_LOOP('',(#30));
#131=EDGE_LOOP('',(#31));
#132=EDGE_LOOP('',(#32));
#133=EDGE_LOOP('',(#33));
#134=EDGE_LOOP('',(#34));
#135=EDGE_LOOP('',(#35));
#136=EDGE_LOOP('',(#36));
#137=EDGE_LOOP('',(#37));
#138=EDGE_LOOP('',(#38));
#139=EDGE_LOOP('',(#39));
#140=EDGE_LOOP('',(#40));
#141=EDGE_LOOP('',(#41));
#142=EDGE_LOOP('',(#42));
#143=EDGE_LOOP('',(#43));
#144=EDGE_LOOP('',(#44));
#145=EDGE_LOOP('',(#45));
#146=EDGE_LOOP('',(#46));
#147=EDGE_LOOP('',(#47));
#148=EDGE_LOOP('',(#48));
#149=EDGE_LOOP('',(#49));
#150=EDGE_LOOP('',(#50));
#151=EDGE_LOOP('',(#51));
#152=EDGE_LOOP('',(#52));
#153=EDGE_LOOP('',(#53));
#154=EDGE_LOOP('',(#54));
#155=EDGE_LOOP('',(#55));
#156=EDGE_LOOP('',(#56));
#157=EDGE_LOOP('',(#57));
#158=EDGE_LOOP('',(#58));
#159=EDGE_LOOP('',(#59));
#160=EDGE_LOOP('',(#60));
#161=EDGE_LOOP('',(#61));
#162=FACE_BOUND('',#122,.T.);
#163=FACE_BOUND('',#123,.T.);
#164=FACE_BOUND('',#124,.T.);
#165=FACE_BOUND('',#125,.T.);
#166=FACE_BOUND('',#126,.T.);
#167=FACE_BOUND('',#127,.T.);
#168=FACE_BOUND('',#128,.T.);
#169=FACE_BOUND('',#129,.T.);
#170=FACE_BOUND('',#130,.T.);
#171=FACE_BOUND('',#131,.T.);
#172=FACE_BOUND('',#132,.T.);
#173=FACE_BOUND('',#133,.T.);
#174=FACE_BOUND('',#134,.T.);
#175=FACE_BOUND('',#135,.T.);
#176=FACE_BOUND('',#136,.T.);
#177=FACE_BOUND('',#137,.T.);
#178=FACE_BOUND('',#138,.T.);
#179=FACE_BOUND('',#139,.T.);
#180=FACE_BOUND('',#140,.T.);
#181=FACE_BOUND('',#141,.T.);
#182=FACE_BOUND('',#142,.T.);
#183=FACE_BOUND('',#143,.T.);
#184=FACE_BOUND('',#144,.T.);
#185=FACE_BOUND('',#145,.T.);
#186=FACE_BOUND('',#146,.T.);
#187=FACE_BOUND('',#147,.T.);
#188=FACE_BOUND('',#148,.T.);
#189=FACE_BOUND('',#149,.T.);
#190=FACE_BOUND('',#150,.T.);
#191=FACE_BOUND('',#151,.T.);
#192=FACE_BOUND('',#152,.T.);
#193=FACE_BOUND('',#153,.T.);
#194=FACE_BOUND('',#154,.T.);
#195=FACE_BOUND('',#155,.T.);
#196=FACE_BOUND('',#156,.T.);
#197=FACE_BOUND('',#157,.T.);
#198=FACE_BOUND('',#158,.T.);
#199=FACE_BOUND('',#159,.T.);
#200=FACE_BOUND('',#160,.T.);
#201=FACE_BOUND('',#161,.T.);
#202=CYLINDRICAL_SURFACE('',#237,4.);
#203=CYLINDRICAL_SURFACE('',#240,1.15);
#204=CYLINDRICAL_SURFACE('',#243,1.15);
#205=CYLINDRICAL_SURFACE('',#246,1.15);
#206=CYLINDRICAL_SURFACE('',#249,1.15);
#207=CYLINDRICAL_SURFACE('',#252,1.7);
#208=CYLINDRICAL_SURFACE('',#255,1.7);
#209=CYLINDRICAL_SURFACE('',#258,1.7);
#210=CYLINDRICAL_SURFACE('',#261,1.7);
#211=CYLINDRICAL_SURFACE('',#264,21.);
#212=ADVANCED_FACE('',(#162,#163),#202,.F.);
#213=ADVANCED_FACE('',(#164,#165),#203,.F.);
#214=ADVANCED_FACE('',(#166,#167),#204,.F.);
#215=ADVANCED_FACE('',(#168,#169),#205,.F.);
#216=ADVANCED_FACE('',(#170,#171),#206,.F.);
#217=ADVANCED_FACE('',(#172,#173),#207,.F.);
#218=ADVANCED_FACE('',(#174,#175),#208,.F.);
#219=ADVANCED_FACE('',(#176,#177),#209,.F.);
#220=ADVANCED_FACE('',(#178,#179),#210,.F.);
#221=ADVANCED_FACE('',(#180,#181),#211,.T.);
#222=ADVANCED_FACE('',(#182,#183,#184,#185,#186,#187,#188,#189,#190,#191),
#20,.T.);
#223=ADVANCED_FACE('',(#192,#193,#194,#195,#196,#197,#198,#199,#200,#201),
#21,.F.);
#224=CLOSED_SHELL('',(#212,#213,#214,#215,#216,#217,#218,#219,#220,#221,
#222,#223));
#225=STYLED_ITEM('',(#226),#233);
#226=PRESENTATION_STYLE_ASSIGNMENT((#227));
#227=SURFACE_STYLE_USAGE(.BOTH.,#228);
#228=SURFACE_SIDE_STYLE('',(#229));
#229=SURFACE_STYLE_FILL_AREA(#230);
#230=FILL_AREA_STYLE('',(#231));
#231=FILL_AREA_STYLE_COLOUR('',#232);
#232=COLOUR_RGB('',0.100000001490116,0.349999994039536,0.280000001192093);
#233=MANIFOLD_SOLID_BREP('',#224);
#234=SHAPE_DEFINITION_REPRESENTATION(#394,#235);
#235=SHAPE_REPRESENTATION('M_AX_output_flange',(#236),#389);
#236=AXIS2_PLACEMENT_3D('',#335,#269,#270);
#237=AXIS2_PLACEMENT_3D('',#336,#271,#272);
#238=AXIS2_PLACEMENT_3D('',#337,#273,#274);
#239=AXIS2_PLACEMENT_3D('',#339,#275,#276);
#240=AXIS2_PLACEMENT_3D('',#341,#277,#278);
#241=AXIS2_PLACEMENT_3D('',#342,#279,#280);
#242=AXIS2_PLACEMENT_3D('',#344,#281,#282);
#243=AXIS2_PLACEMENT_3D('',#346,#283,#284);
#244=AXIS2_PLACEMENT_3D('',#347,#285,#286);
#245=AXIS2_PLACEMENT_3D('',#349,#287,#288);
#246=AXIS2_PLACEMENT_3D('',#351,#289,#290);
#247=AXIS2_PLACEMENT_3D('',#352,#291,#292);
#248=AXIS2_PLACEMENT_3D('',#354,#293,#294);
#249=AXIS2_PLACEMENT_3D('',#356,#295,#296);
#250=AXIS2_PLACEMENT_3D('',#357,#297,#298);
#251=AXIS2_PLACEMENT_3D('',#359,#299,#300);
#252=AXIS2_PLACEMENT_3D('',#361,#301,#302);
#253=AXIS2_PLACEMENT_3D('',#362,#303,#304);
#254=AXIS2_PLACEMENT_3D('',#364,#305,#306);
#255=AXIS2_PLACEMENT_3D('',#366,#307,#308);
#256=AXIS2_PLACEMENT_3D('',#367,#309,#310);
#257=AXIS2_PLACEMENT_3D('',#369,#311,#312);
#258=AXIS2_PLACEMENT_3D('',#371,#313,#314);
#259=AXIS2_PLACEMENT_3D('',#372,#315,#316);
#260=AXIS2_PLACEMENT_3D('',#374,#317,#318);
#261=AXIS2_PLACEMENT_3D('',#376,#319,#320);
#262=AXIS2_PLACEMENT_3D('',#377,#321,#322);
#263=AXIS2_PLACEMENT_3D('',#379,#323,#324);
#264=AXIS2_PLACEMENT_3D('',#381,#325,#326);
#265=AXIS2_PLACEMENT_3D('',#382,#327,#328);
#266=AXIS2_PLACEMENT_3D('',#384,#329,#330);
#267=AXIS2_PLACEMENT_3D('',#386,#331,#332);
#268=AXIS2_PLACEMENT_3D('',#387,#333,#334);
#269=DIRECTION('',(0.,0.,1.));
#270=DIRECTION('',(1.,0.,0.));
#271=DIRECTION('',(0.,0.,-1.));
#272=DIRECTION('',(-1.,0.,0.));
#273=DIRECTION('',(0.,0.,1.));
#274=DIRECTION('',(1.,0.,0.));
#275=DIRECTION('',(0.,0.,1.));
#276=DIRECTION('',(1.,0.,0.));
#277=DIRECTION('',(0.,0.,-1.));
#278=DIRECTION('',(-1.,0.,0.));
#279=DIRECTION('',(0.,0.,1.));
#280=DIRECTION('',(1.,0.,0.));
#281=DIRECTION('',(0.,0.,1.));
#282=DIRECTION('',(1.,0.,0.));
#283=DIRECTION('',(0.,0.,-1.));
#284=DIRECTION('',(-1.,0.,0.));
#285=DIRECTION('',(0.,0.,1.));
#286=DIRECTION('',(1.,0.,0.));
#287=DIRECTION('',(0.,0.,1.));
#288=DIRECTION('',(1.,0.,0.));
#289=DIRECTION('',(0.,0.,-1.));
#290=DIRECTION('',(-1.,0.,0.));
#291=DIRECTION('',(0.,0.,1.));
#292=DIRECTION('',(1.,0.,0.));
#293=DIRECTION('',(0.,0.,1.));
#294=DIRECTION('',(1.,0.,0.));
#295=DIRECTION('',(0.,0.,-1.));
#296=DIRECTION('',(-1.,0.,0.));
#297=DIRECTION('',(0.,0.,1.));
#298=DIRECTION('',(1.,0.,0.));
#299=DIRECTION('',(0.,0.,1.));
#300=DIRECTION('',(1.,0.,0.));
#301=DIRECTION('',(0.,0.,-1.));
#302=DIRECTION('',(-1.,0.,0.));
#303=DIRECTION('',(0.,0.,1.));
#304=DIRECTION('',(1.,0.,0.));
#305=DIRECTION('',(0.,0.,1.));
#306=DIRECTION('',(1.,0.,0.));
#307=DIRECTION('',(0.,0.,-1.));
#308=DIRECTION('',(-1.,0.,0.));
#309=DIRECTION('',(0.,0.,1.));
#310=DIRECTION('',(1.,0.,0.));
#311=DIRECTION('',(0.,0.,1.));
#312=DIRECTION('',(1.,0.,0.));
#313=DIRECTION('',(0.,0.,-1.));
#314=DIRECTION('',(-1.,0.,0.));
#315=DIRECTION('',(0.,0.,1.));
#316=DIRECTION('',(1.,0.,0.));
#317=DIRECTION('',(0.,0.,1.));
#318=DIRECTION('',(1.,0.,0.));
#319=DIRECTION('',(0.,0.,-1.));
#320=DIRECTION('',(-1.,0.,0.));
#321=DIRECTION('',(0.,0.,1.));
#322=DIRECTION('',(1.,0.,0.));
#323=DIRECTION('',(0.,0.,1.));
#324=DIRECTION('',(1.,0.,0.));
#325=DIRECTION('',(0.,0.,-1.));
#326=DIRECTION('',(-1.,0.,0.));
#327=DIRECTION('',(0.,0.,1.));
#328=DIRECTION('',(1.,0.,0.));
#329=DIRECTION('',(0.,0.,1.));
#330=DIRECTION('',(1.,0.,0.));
#331=DIRECTION('',(0.,0.,1.));
#332=DIRECTION('',(1.,0.,0.));
#333=DIRECTION('',(0.,0.,1.));
#334=DIRECTION('',(1.,0.,0.));
#335=CARTESIAN_POINT('',(0.,0.,0.));
#336=CARTESIAN_POINT('',(0.,0.,4.));
#337=CARTESIAN_POINT('',(0.,0.,4.));
#338=CARTESIAN_POINT('',(4.,0.,4.));
#339=CARTESIAN_POINT('',(0.,0.,0.));
#340=CARTESIAN_POINT('',(4.,0.,0.));
#341=CARTESIAN_POINT('',(8.,0.,4.));
#342=CARTESIAN_POINT('',(8.,0.,4.));
#343=CARTESIAN_POINT('',(9.15,0.,4.));
#344=CARTESIAN_POINT('',(8.,0.,0.));
#345=CARTESIAN_POINT('',(9.15,0.,0.));
#346=CARTESIAN_POINT('',(4.89858719658941E-16,8.,4.));
#347=CARTESIAN_POINT('',(4.89858719658941E-16,8.,4.));
#348=CARTESIAN_POINT('',(1.15,8.,4.));
#349=CARTESIAN_POINT('',(4.89858719658941E-16,8.,0.));
#350=CARTESIAN_POINT('',(1.15,8.,0.));
#351=CARTESIAN_POINT('',(-8.,9.79717439317883E-16,4.));
#352=CARTESIAN_POINT('',(-8.,9.79717439317883E-16,4.));
#353=CARTESIAN_POINT('',(-6.85,9.79717439317883E-16,4.));
#354=CARTESIAN_POINT('',(-8.,9.79717439317883E-16,0.));
#355=CARTESIAN_POINT('',(-6.85,9.79717439317883E-16,0.));
#356=CARTESIAN_POINT('',(-1.46957615897682E-15,-8.,4.));
#357=CARTESIAN_POINT('',(-1.46957615897682E-15,-8.,4.));
#358=CARTESIAN_POINT('',(1.15,-8.,4.));
#359=CARTESIAN_POINT('',(-1.46957615897682E-15,-8.,0.));
#360=CARTESIAN_POINT('',(1.15,-8.,0.));
#361=CARTESIAN_POINT('',(11.3137084989848,11.3137084989848,4.));
#362=CARTESIAN_POINT('',(11.3137084989848,11.3137084989848,4.));
#363=CARTESIAN_POINT('',(13.0137084989848,11.3137084989848,4.));
#364=CARTESIAN_POINT('',(11.3137084989848,11.3137084989848,0.));
#365=CARTESIAN_POINT('',(13.0137084989848,11.3137084989848,0.));
#366=CARTESIAN_POINT('',(-11.3137084989848,11.3137084989848,4.));
#367=CARTESIAN_POINT('',(-11.3137084989848,11.3137084989848,4.));
#368=CARTESIAN_POINT('',(-9.61370849898476,11.3137084989848,4.));
#369=CARTESIAN_POINT('',(-11.3137084989848,11.3137084989848,0.));
#370=CARTESIAN_POINT('',(-9.61370849898476,11.3137084989848,0.));
#371=CARTESIAN_POINT('',(-11.3137084989848,-11.3137084989848,4.));
#372=CARTESIAN_POINT('',(-11.3137084989848,-11.3137084989848,4.));
#373=CARTESIAN_POINT('',(-9.61370849898476,-11.3137084989848,4.));
#374=CARTESIAN_POINT('',(-11.3137084989848,-11.3137084989848,0.));
#375=CARTESIAN_POINT('',(-9.61370849898476,-11.3137084989848,0.));
#376=CARTESIAN_POINT('',(11.3137084989848,-11.3137084989848,4.));
#377=CARTESIAN_POINT('',(11.3137084989848,-11.3137084989848,4.));
#378=CARTESIAN_POINT('',(13.0137084989848,-11.3137084989848,4.));
#379=CARTESIAN_POINT('',(11.3137084989848,-11.3137084989848,0.));
#380=CARTESIAN_POINT('',(13.0137084989848,-11.3137084989848,0.));
#381=CARTESIAN_POINT('',(0.,0.,4.));
#382=CARTESIAN_POINT('',(0.,0.,4.));
#383=CARTESIAN_POINT('',(21.,0.,4.));
#384=CARTESIAN_POINT('',(0.,0.,0.));
#385=CARTESIAN_POINT('',(21.,0.,0.));
#386=CARTESIAN_POINT('',(0.,0.,4.));
#387=CARTESIAN_POINT('',(0.,0.,0.));
#388=MECHANICAL_DESIGN_GEOMETRIC_PRESENTATION_REPRESENTATION('',(#225),
#389);
#389=(
GEOMETRIC_REPRESENTATION_CONTEXT(3)
GLOBAL_UNCERTAINTY_ASSIGNED_CONTEXT((#390))
GLOBAL_UNIT_ASSIGNED_CONTEXT((#393,#392,#391))
REPRESENTATION_CONTEXT('M_AX_output_flange','TOP_LEVEL_ASSEMBLY_PART')
);
#390=UNCERTAINTY_MEASURE_WITH_UNIT(LENGTH_MEASURE(0.005),#393,
'DISTANCE_ACCURACY_VALUE','Maximum Tolerance applied to model');
#391=(
NAMED_UNIT(*)
SI_UNIT($,.STERADIAN.)
SOLID_ANGLE_UNIT()
);
#392=(
NAMED_UNIT(*)
PLANE_ANGLE_UNIT()
SI_UNIT($,.RADIAN.)
);
#393=(
LENGTH_UNIT()
NAMED_UNIT(*)
SI_UNIT(.MILLI.,.METRE.)
);
#394=PRODUCT_DEFINITION_SHAPE('','',#395);
#395=PRODUCT_DEFINITION('','',#397,#396);
#396=PRODUCT_DEFINITION_CONTEXT('',#403,'design');
#397=PRODUCT_DEFINITION_FORMATION_WITH_SPECIFIED_SOURCE('','',#399,
 .NOT_KNOWN.);
#398=PRODUCT_RELATED_PRODUCT_CATEGORY('','',(#399));
#399=PRODUCT('M_AX_output_flange','M_AX_output_flange',
'M_AX_output_flange',(#401));
#400=PRODUCT_CATEGORY('','');
#401=PRODUCT_CONTEXT('',#403,'mechanical');
#402=APPLICATION_PROTOCOL_DEFINITION('international standard',
'automotive_design',2010,#403);
#403=APPLICATION_CONTEXT(
'core data for automotive mechanical design processes');
ENDSEC;
END-ISO-10303-21;
