ISO-10303-21;
HEADER;
/* Generated by software containing ST-Developer
 * from STEP Tools, Inc. (www.steptools.com) 
 */
/* OPTION: strings as raw bytes, not using required /X/ escapes */

FILE_DESCRIPTION(
/* description */ ('Unknown'),
/* implementation_level */ '2;1');

FILE_NAME(
/* name */ 'M_XM_output_flange',
/* time_stamp */ '2026-09-23T11:55:39+08:00',
/* author */ ('Unknown'),
/* organization */ ('Unknown'),
/* preprocessor_version */ 'ST-DEVELOPER v16.7',
/* originating_system */ 'Solid Edge',
/* authorisation */ 'Unknown');

FILE_SCHEMA (('AUTOMOTIVE_DESIGN {1 0 10303 214 3 1 1}'));
ENDSEC;

DATA;
#10=PROPERTY_DEFINITION_REPRESENTATION(#14,#12);
#11=PROPERTY_DEFINITION_REPRESENTATION(#15,#13);
#12=REPRESENTATION('',(#16),#525);
#13=REPRESENTATION('',(#17),#525);
#14=PROPERTY_DEFINITION('pmi validation property','',#530);
#15=PROPERTY_DEFINITION('pmi validation property','',#530);
#16=VALUE_REPRESENTATION_ITEM('number of annotations',COUNT_MEASURE(0.));
#17=VALUE_REPRESENTATION_ITEM('number of views',COUNT_MEASURE(0.));
#18=SHAPE_REPRESENTATION_RELATIONSHIP('','',#315,#19);
#19=ADVANCED_BREP_SHAPE_REPRESENTATION('',(#313),#525);
#20=PLANE('',#359);
#21=PLANE('',#360);
#22=ORIENTED_EDGE('',*,*,#78,.T.);
#23=ORIENTED_EDGE('',*,*,#79,.F.);
#24=ORIENTED_EDGE('',*,*,#80,.T.);
#25=ORIENTED_EDGE('',*,*,#81,.F.);
#26=ORIENTED_EDGE('',*,*,#82,.T.);
#27=ORIENTED_EDGE('',*,*,#83,.F.);
#28=ORIENTED_EDGE('',*,*,#84,.T.);
#29=ORIENTED_EDGE('',*,*,#85,.F.);
#30=ORIENTED_EDGE('',*,*,#86,.T.);
#31=ORIENTED_EDGE('',*,*,#87,.F.);
#32=ORIENTED_EDGE('',*,*,#88,.T.);
#33=ORIENTED_EDGE('',*,*,#89,.F.);
#34=ORIENTED_EDGE('',*,*,#90,.T.);
#35=ORIENTED_EDGE('',*,*,#91,.F.);
#36=ORIENTED_EDGE('',*,*,#92,.T.);
#37=ORIENTED_EDGE('',*,*,#93,.F.);
#38=ORIENTED_EDGE('',*,*,#94,.T.);
#39=ORIENTED_EDGE('',*,*,#95,.F.);
#40=ORIENTED_EDGE('',*,*,#96,.T.);
#41=ORIENTED_EDGE('',*,*,#97,.F.);
#42=ORIENTED_EDGE('',*,*,#98,.T.);
#43=ORIENTED_EDGE('',*,*,#99,.F.);
#44=ORIENTED_EDGE('',*,*,#100,.T.);
#45=ORIENTED_EDGE('',*,*,#101,.F.);
#46=ORIENTED_EDGE('',*,*,#102,.T.);
#47=ORIENTED_EDGE('',*,*,#103,.F.);
#48=ORIENTED_EDGE('',*,*,#104,.F.);
#49=ORIENTED_EDGE('',*,*,#105,.T.);
#50=ORIENTED_EDGE('',*,*,#102,.F.);
#51=ORIENTED_EDGE('',*,*,#100,.F.);
#52=ORIENTED_EDGE('',*,*,#98,.F.);
#53=ORIENTED_EDGE('',*,*,#96,.F.);
#54=ORIENTED_EDGE('',*,*,#94,.F.);
#55=ORIENTED_EDGE('',*,*,#92,.F.);
#56=ORIENTED_EDGE('',*,*,#90,.F.);
#57=ORIENTED_EDGE('',*,*,#88,.F.);
#58=ORIENTED_EDGE('',*,*,#86,.F.);
#59=ORIENTED_EDGE('',*,*,#84,.F.);
#60=ORIENTED_EDGE('',*,*,#82,.F.);
#61=ORIENTED_EDGE('',*,*,#80,.F.);
#62=ORIENTED_EDGE('',*,*,#78,.F.);
#63=ORIENTED_EDGE('',*,*,#104,.T.);
#64=ORIENTED_EDGE('',*,*,#103,.T.);
#65=ORIENTED_EDGE('',*,*,#101,.T.);
#66=ORIENTED_EDGE('',*,*,#99,.T.);
#67=ORIENTED_EDGE('',*,*,#97,.T.);
#68=ORIENTED_EDGE('',*,*,#95,.T.);
#69=ORIENTED_EDGE('',*,*,#93,.T.);
#70=ORIENTED_EDGE('',*,*,#91,.T.);
#71=ORIENTED_EDGE('',*,*,#89,.T.);
#72=ORIENTED_EDGE('',*,*,#87,.T.);
#73=ORIENTED_EDGE('',*,*,#85,.T.);
#74=ORIENTED_EDGE('',*,*,#83,.T.);
#75=ORIENTED_EDGE('',*,*,#81,.T.);
#76=ORIENTED_EDGE('',*,*,#79,.T.);
#77=ORIENTED_EDGE('',*,*,#105,.F.);
#78=EDGE_CURVE('',#106,#106,#134,.T.);
#79=EDGE_CURVE('',#107,#107,#135,.T.);
#80=EDGE_CURVE('',#108,#108,#136,.T.);
#81=EDGE_CURVE('',#109,#109,#137,.T.);
#82=EDGE_CURVE('',#110,#110,#138,.T.);
#83=EDGE_CURVE('',#111,#111,#139,.T.);
#84=EDGE_CURVE('',#112,#112,#140,.T.);
#85=EDGE_CURVE('',#113,#113,#141,.T.);
#86=EDGE_CURVE('',#114,#114,#142,.T.);
#87=EDGE_CURVE('',#115,#115,#143,.T.);
#88=EDGE_CURVE('',#116,#116,#144,.T.);
#89=EDGE_CURVE('',#117,#117,#145,.T.);
#90=EDGE_CURVE('',#118,#118,#146,.T.);
#91=EDGE_CURVE('',#119,#119,#147,.T.);
#92=EDGE_CURVE('',#120,#120,#148,.T.);
#93=EDGE_CURVE('',#121,#121,#149,.T.);
#94=EDGE_CURVE('',#122,#122,#150,.T.);
#95=EDGE_CURVE('',#123,#123,#151,.T.);
#96=EDGE_CURVE('',#124,#124,#152,.T.);
#97=EDGE_CURVE('',#125,#125,#153,.T.);
#98=EDGE_CURVE('',#126,#126,#154,.T.);
#99=EDGE_CURVE('',#127,#127,#155,.T.);
#100=EDGE_CURVE('',#128,#128,#156,.T.);
#101=EDGE_CURVE('',#129,#129,#157,.T.);
#102=EDGE_CURVE('',#130,#130,#158,.T.);
#103=EDGE_CURVE('',#131,#131,#159,.T.);
#104=EDGE_CURVE('',#132,#132,#160,.T.);
#105=EDGE_CURVE('',#133,#133,#161,.T.);
#106=VERTEX_POINT('',#454);
#107=VERTEX_POINT('',#456);
#108=VERTEX_POINT('',#459);
#109=VERTEX_POINT('',#461);
#110=VERTEX_POINT('',#464);
#111=VERTEX_POINT('',#466);
#112=VERTEX_POINT('',#469);
#113=VERTEX_POINT('',#471);
#114=VERTEX_POINT('',#474);
#115=VERTEX_POINT('',#476);
#116=VERTEX_POINT('',#479);
#117=VERTEX_POINT('',#481);
#118=VERTEX_POINT('',#484);
#119=VERTEX_POINT('',#486);
#120=VERTEX_POINT('',#489);
#121=VERTEX_POINT('',#491);
#122=VERTEX_POINT('',#494);
#123=VERTEX_POINT('',#496);
#124=VERTEX_POINT('',#499);
#125=VERTEX_POINT('',#501);
#126=VERTEX_POINT('',#504);
#127=VERTEX_POINT('',#506);
#128=VERTEX_POINT('',#509);
#129=VERTEX_POINT('',#511);
#130=VERTEX_POINT('',#514);
#131=VERTEX_POINT('',#516);
#132=VERTEX_POINT('',#519);
#133=VERTEX_POINT('',#521);
#134=CIRCLE('',#318,4.);
#135=CIRCLE('',#319,4.);
#136=CIRCLE('',#321,1.15);
#137=CIRCLE('',#322,1.15);
#138=CIRCLE('',#324,1.15);
#139=CIRCLE('',#325,1.15);
#140=CIRCLE('',#327,1.15);
#141=CIRCLE('',#328,1.15);
#142=CIRCLE('',#330,1.15);
#143=CIRCLE('',#331,1.15);
#144=CIRCLE('',#333,1.15);
#145=CIRCLE('',#334,1.15);
#146=CIRCLE('',#336,1.15);
#147=CIRCLE('',#337,1.15);
#148=CIRCLE('',#339,1.15);
#149=CIRCLE('',#340,1.15);
#150=CIRCLE('',#342,1.15);
#151=CIRCLE('',#343,1.15);
#152=CIRCLE('',#345,1.7);
#153=CIRCLE('',#346,1.7);
#154=CIRCLE('',#348,1.7);
#155=CIRCLE('',#349,1.7);
#156=CIRCLE('',#351,1.7);
#157=CIRCLE('',#352,1.7);
#158=CIRCLE('',#354,1.7);
#159=CIRCLE('',#355,1.7);
#160=CIRCLE('',#357,21.);
#161=CIRCLE('',#358,21.);
#162=EDGE_LOOP('',(#22));
#163=EDGE_LOOP('',(#23));
#164=EDGE_LOOP('',(#24));
#165=EDGE_LOOP('',(#25));
#166=EDGE_LOOP('',(#26));
#167=EDGE_LOOP('',(#27));
#168=EDGE_LOOP('',(#28));
#169=EDGE_LOOP('',(#29));
#170=EDGE_LOOP('',(#30));
#171=EDGE_LOOP('',(#31));
#172=EDGE_LOOP('',(#32));
#173=EDGE_LOOP('',(#33));
#174=EDGE_LOOP('',(#34));
#175=EDGE_LOOP('',(#35));
#176=EDGE_LOOP('',(#36));
#177=EDGE_LOOP('',(#37));
#178=EDGE_LOOP('',(#38));
#179=EDGE_LOOP('',(#39));
#180=EDGE_LOOP('',(#40));
#181=EDGE_LOOP('',(#41));
#182=EDGE_LOOP('',(#42));
#183=EDGE_LOOP('',(#43));
#184=EDGE_LOOP('',(#44));
#185=EDGE_LOOP('',(#45));
#186=EDGE_LOOP('',(#46));
#187=EDGE_LOOP('',(#47));
#188=EDGE_LOOP('',(#48));
#189=EDGE_LOOP('',(#49));
#190=EDGE_LOOP('',(#50));
#191=EDGE_LOOP('',(#51));
#192=EDGE_LOOP('',(#52));
#193=EDGE_LOOP('',(#53));
#194=EDGE_LOOP('',(#54));
#195=EDGE_LOOP('',(#55));
#196=EDGE_LOOP('',(#56));
#197=EDGE_LOOP('',(#57));
#198=EDGE_LOOP('',(#58));
#199=EDGE_LOOP('',(#59));
#200=EDGE_LOOP('',(#60));
#201=EDGE_LOOP('',(#61));
#202=EDGE_LOOP('',(#62));
#203=EDGE_LOOP('',(#63));
#204=EDGE_LOOP('',(#64));
#205=EDGE_LOOP('',(#65));
#206=EDGE_LOOP('',(#66));
#207=EDGE_LOOP('',(#67));
#208=EDGE_LOOP('',(#68));
#209=EDGE_LOOP('',(#69));
#210=EDGE_LOOP('',(#70));
#211=EDGE_LOOP('',(#71));
#212=EDGE_LOOP('',(#72));
#213=EDGE_LOOP('',(#73));
#214=EDGE_LOOP('',(#74));
#215=EDGE_LOOP('',(#75));
#216=EDGE_LOOP('',(#76));
#217=EDGE_LOOP('',(#77));
#218=FACE_BOUND('',#162,.T.);
#219=FACE_BOUND('',#163,.T.);
#220=FACE_BOUND('',#164,.T.);
#221=FACE_BOUND('',#165,.T.);
#222=FACE_BOUND('',#166,.T.);
#223=FACE_BOUND('',#167,.T.);
#224=FACE_BOUND('',#168,.T.);
#225=FACE_BOUND('',#169,.T.);
#226=FACE_BOUND('',#170,.T.);
#227=FACE_BOUND('',#171,.T.);
#228=FACE_BOUND('',#172,.T.);
#229=FACE_BOUND('',#173,.T.);
#230=FACE_BOUND('',#174,.T.);
#231=FACE_BOUND('',#175,.T.);
#232=FACE_BOUND('',#176,.T.);
#233=FACE_BOUND('',#177,.T.);
#234=FACE_BOUND('',#178,.T.);
#235=FACE_BOUND('',#179,.T.);
#236=FACE_BOUND('',#180,.T.);
#237=FACE_BOUND('',#181,.T.);
#238=FACE_BOUND('',#182,.T.);
#239=FACE_BOUND('',#183,.T.);
#240=FACE_BOUND('',#184,.T.);
#241=FACE_BOUND('',#185,.T.);
#242=FACE_BOUND('',#186,.T.);
#243=FACE_BOUND('',#187,.T.);
#244=FACE_BOUND('',#188,.T.);
#245=FACE_BOUND('',#189,.T.);
#246=FACE_BOUND('',#190,.T.);
#247=FACE_BOUND('',#191,.T.);
#248=FACE_BOUND('',#192,.T.);
#249=FACE_BOUND('',#193,.T.);
#250=FACE_BOUND('',#194,.T.);
#251=FACE_BOUND('',#195,.T.);
#252=FACE_BOUND('',#196,.T.);
#253=FACE_BOUND('',#197,.T.);
#254=FACE_BOUND('',#198,.T.);
#255=FACE_BOUND('',#199,.T.);
#256=FACE_BOUND('',#200,.T.);
#257=FACE_BOUND('',#201,.T.);
#258=FACE_BOUND('',#202,.T.);
#259=FACE_BOUND('',#203,.T.);
#260=FACE_BOUND('',#204,.T.);
#261=FACE_BOUND('',#205,.T.);
#262=FACE_BOUND('',#206,.T.);
#263=FACE_BOUND('',#207,.T.);
#264=FACE_BOUND('',#208,.T.);
#265=FACE_BOUND('',#209,.T.);
#266=FACE_BOUND('',#210,.T.);
#267=FACE_BOUND('',#211,.T.);
#268=FACE_BOUND('',#212,.T.);
#269=FACE_BOUND('',#213,.T.);
#270=FACE_BOUND('',#214,.T.);
#271=FACE_BOUND('',#215,.T.);
#272=FACE_BOUND('',#216,.T.);
#273=FACE_BOUND('',#217,.T.);
#274=CYLINDRICAL_SURFACE('',#317,4.);
#275=CYLINDRICAL_SURFACE('',#320,1.15);
#276=CYLINDRICAL_SURFACE('',#323,1.15);
#277=CYLINDRICAL_SURFACE('',#326,1.15);
#278=CYLINDRICAL_SURFACE('',#329,1.15);
#279=CYLINDRICAL_SURFACE('',#332,1.15);
#280=CYLINDRICAL_SURFACE('',#335,1.15);
#281=CYLINDRICAL_SURFACE('',#338,1.15);
#282=CYLINDRICAL_SURFACE('',#341,1.15);
#283=CYLINDRICAL_SURFACE('',#344,1.7);
#284=CYLINDRICAL_SURFACE('',#347,1.7);
#285=CYLINDRICAL_SURFACE('',#350,1.7);
#286=CYLINDRICAL_SURFACE('',#353,1.7);
#287=CYLINDRICAL_SURFACE('',#356,21.);
#288=ADVANCED_FACE('',(#218,#219),#274,.F.);
#289=ADVANCED_FACE('',(#220,#221),#275,.F.);
#290=ADVANCED_FACE('',(#222,#223),#276,.F.);
#291=ADVANCED_FACE('',(#224,#225),#277,.F.);
#292=ADVANCED_FACE('',(#226,#227),#278,.F.);
#293=ADVANCED_FACE('',(#228,#229),#279,.F.);
#294=ADVANCED_FACE('',(#230,#231),#280,.F.);
#295=ADVANCED_FACE('',(#232,#233),#281,.F.);
#296=ADVANCED_FACE('',(#234,#235),#282,.F.);
#297=ADVANCED_FACE('',(#236,#237),#283,.F.);
#298=ADVANCED_FACE('',(#238,#239),#284,.F.);
#299=ADVANCED_FACE('',(#240,#241),#285,.F.);
#300=ADVANCED_FACE('',(#242,#243),#286,.F.);
#301=ADVANCED_FACE('',(#244,#245),#287,.T.);
#302=ADVANCED_FACE('',(#246,#247,#248,#249,#250,#251,#252,#253,#254,#255,
#256,#257,#258,#259),#20,.T.);
#303=ADVANCED_FACE('',(#260,#261,#262,#263,#264,#265,#266,#267,#268,#269,
#270,#271,#272,#273),#21,.F.);
#304=CLOSED_SHELL('',(#288,#289,#290,#291,#292,#293,#294,#295,#296,#297,
#298,#299,#300,#301,#302,#303));
#305=STYLED_ITEM('',(#306),#313);
#306=PRESENTATION_STYLE_ASSIGNMENT((#307));
#307=SURFACE_STYLE_USAGE(.BOTH.,#308);
#308=SURFACE_SIDE_STYLE('',(#309));
#309=SURFACE_STYLE_FILL_AREA(#310);
#310=FILL_AREA_STYLE('',(#311));
#311=FILL_AREA_STYLE_COLOUR('',#312);
#312=COLOUR_RGB('',0.100000001490116,0.349999994039536,0.280000001192093);
#313=MANIFOLD_SOLID_BREP('',#304);
#314=SHAPE_DEFINITION_REPRESENTATION(#530,#315);
#315=SHAPE_REPRESENTATION('M_XM_output_flange',(#316),#525);
#316=AXIS2_PLACEMENT_3D('',#451,#361,#362);
#317=AXIS2_PLACEMENT_3D('',#452,#363,#364);
#318=AXIS2_PLACEMENT_3D('',#453,#365,#366);
#319=AXIS2_PLACEMENT_3D('',#455,#367,#368);
#320=AXIS2_PLACEMENT_3D('',#457,#369,#370);
#321=AXIS2_PLACEMENT_3D('',#458,#371,#372);
#322=AXIS2_PLACEMENT_3D('',#460,#373,#374);
#323=AXIS2_PLACEMENT_3D('',#462,#375,#376);
#324=AXIS2_PLACEMENT_3D('',#463,#377,#378);
#325=AXIS2_PLACEMENT_3D('',#465,#379,#380);
#326=AXIS2_PLACEMENT_3D('',#467,#381,#382);
#327=AXIS2_PLACEMENT_3D('',#468,#383,#384);
#328=AXIS2_PLACEMENT_3D('',#470,#385,#386);
#329=AXIS2_PLACEMENT_3D('',#472,#387,#388);
#330=AXIS2_PLACEMENT_3D('',#473,#389,#390);
#331=AXIS2_PLACEMENT_3D('',#475,#391,#392);
#332=AXIS2_PLACEMENT_3D('',#477,#393,#394);
#333=AXIS2_PLACEMENT_3D('',#478,#395,#396);
#334=AXIS2_PLACEMENT_3D('',#480,#397,#398);
#335=AXIS2_PLACEMENT_3D('',#482,#399,#400);
#336=AXIS2_PLACEMENT_3D('',#483,#401,#402);
#337=AXIS2_PLACEMENT_3D('',#485,#403,#404);
#338=AXIS2_PLACEMENT_3D('',#487,#405,#406);
#339=AXIS2_PLACEMENT_3D('',#488,#407,#408);
#340=AXIS2_PLACEMENT_3D('',#490,#409,#410);
#341=AXIS2_PLACEMENT_3D('',#492,#411,#412);
#342=AXIS2_PLACEMENT_3D('',#493,#413,#414);
#343=AXIS2_PLACEMENT_3D('',#495,#415,#416);
#344=AXIS2_PLACEMENT_3D('',#497,#417,#418);
#345=AXIS2_PLACEMENT_3D('',#498,#419,#420);
#346=AXIS2_PLACEMENT_3D('',#500,#421,#422);
#347=AXIS2_PLACEMENT_3D('',#502,#423,#424);
#348=AXIS2_PLACEMENT_3D('',#503,#425,#426);
#349=AXIS2_PLACEMENT_3D('',#505,#427,#428);
#350=AXIS2_PLACEMENT_3D('',#507,#429,#430);
#351=AXIS2_PLACEMENT_3D('',#508,#431,#432);
#352=AXIS2_PLACEMENT_3D('',#510,#433,#434);
#353=AXIS2_PLACEMENT_3D('',#512,#435,#436);
#354=AXIS2_PLACEMENT_3D('',#513,#437,#438);
#355=AXIS2_PLACEMENT_3D('',#515,#439,#440);
#356=AXIS2_PLACEMENT_3D('',#517,#441,#442);
#357=AXIS2_PLACEMENT_3D('',#518,#443,#444);
#358=AXIS2_PLACEMENT_3D('',#520,#445,#446);
#359=AXIS2_PLACEMENT_3D('',#522,#447,#448);
#360=AXIS2_PLACEMENT_3D('',#523,#449,#450);
#361=DIRECTION('',(0.,0.,1.));
#362=DIRECTION('',(1.,0.,0.));
#363=DIRECTION('',(0.,0.,-1.));
#364=DIRECTION('',(-1.,0.,0.));
#365=DIRECTION('',(0.,0.,1.));
#366=DIRECTION('',(1.,0.,0.));
#367=DIRECTION('',(0.,0.,1.));
#368=DIRECTION('',(1.,0.,0.));
#369=DIRECTION('',(0.,0.,-1.));
#370=DIRECTION('',(-1.,0.,0.));
#371=DIRECTION('',(0.,0.,1.));
#372=DIRECTION('',(1.,0.,0.));
#373=DIRECTION('',(0.,0.,1.));
#374=DIRECTION('',(1.,0.,0.));
#375=DIRECTION('',(0.,0.,-1.));
#376=DIRECTION('',(-1.,0.,0.));
#377=DIRECTION('',(0.,0.,1.));
#378=DIRECTION('',(1.,0.,0.));
#379=DIRECTION('',(0.,0.,1.));
#380=DIRECTION('',(1.,0.,0.));
#381=DIRECTION('',(0.,0.,-1.));
#382=DIRECTION('',(-1.,0.,0.));
#383=DIRECTION('',(0.,0.,1.));
#384=DIRECTION('',(1.,0.,0.));
#385=DIRECTION('',(0.,0.,1.));
#386=DIRECTION('',(1.,0.,0.));
#387=DIRECTION('',(0.,0.,-1.));
#388=DIRECTION('',(-1.,0.,0.));
#389=DIRECTION('',(0.,0.,1.));
#390=DIRECTION('',(1.,0.,0.));
#391=DIRECTION('',(0.,0.,1.));
#392=DIRECTION('',(1.,0.,0.));
#393=DIRECTION('',(0.,0.,-1.));
#394=DIRECTION('',(-1.,0.,0.));
#395=DIRECTION('',(0.,0.,1.));
#396=DIRECTION('',(1.,0.,0.));
#397=DIRECTION('',(0.,0.,1.));
#398=DIRECTION('',(1.,0.,0.));
#399=DIRECTION('',(0.,0.,-1.));
#400=DIRECTION('',(-1.,0.,0.));
#401=DIRECTION('',(0.,0.,1.));
#402=DIRECTION('',(1.,0.,0.));
#403=DIRECTION('',(0.,0.,1.));
#404=DIRECTION('',(1.,0.,0.));
#405=DIRECTION('',(0.,0.,-1.));
#406=DIRECTION('',(-1.,0.,0.));
#407=DIRECTION('',(0.,0.,1.));
#408=DIRECTION('',(1.,0.,0.));
#409=DIRECTION('',(0.,0.,1.));
#410=DIRECTION('',(1.,0.,0.));
#411=DIRECTION('',(0.,0.,-1.));
#412=DIRECTION('',(-1.,0.,0.));
#413=DIRECTION('',(0.,0.,1.));
#414=DIRECTION('',(1.,0.,0.));
#415=DIRECTION('',(0.,0.,1.));
#416=DIRECTION('',(1.,0.,0.));
#417=DIRECTION('',(0.,0.,-1.));
#418=DIRECTION('',(-1.,0.,0.));
#419=DIRECTION('',(0.,0.,1.));
#420=DIRECTION('',(1.,0.,0.));
#421=DIRECTION('',(0.,0.,1.));
#422=DIRECTION('',(1.,0.,0.));
#423=DIRECTION('',(0.,0.,-1.));
#424=DIRECTION('',(-1.,0.,0.));
#425=DIRECTION('',(0.,0.,1.));
#426=DIRECTION('',(1.,0.,0.));
#427=DIRECTION('',(0.,0.,1.));
#428=DIRECTION('',(1.,0.,0.));
#429=DIRECTION('',(0.,0.,-1.));
#430=DIRECTION('',(-1.,0.,0.));
#431=DIRECTION('',(0.,0.,1.));
#432=DIRECTION('',(1.,0.,0.));
#433=DIRECTION('',(0.,0.,1.));
#434=DIRECTION('',(1.,0.,0.));
#435=DIRECTION('',(0.,0.,-1.));
#436=DIRECTION('',(-1.,0.,0.));
#437=DIRECTION('',(0.,0.,1.));
#438=DIRECTION('',(1.,0.,0.));
#439=DIRECTION('',(0.,0.,1.));
#440=DIRECTION('',(1.,0.,0.));
#441=DIRECTION('',(0.,0.,-1.));
#442=DIRECTION('',(-1.,0.,0.));
#443=DIRECTION('',(0.,0.,1.));
#444=DIRECTION('',(1.,0.,0.));
#445=DIRECTION('',(0.,0.,1.));
#446=DIRECTION('',(1.,0.,0.));
#447=DIRECTION('',(0.,0.,1.));
#448=DIRECTION('',(1.,0.,0.));
#449=DIRECTION('',(0.,0.,1.));
#450=DIRECTION('',(1.,0.,0.));
#451=CARTESIAN_POINT('',(0.,0.,0.));
#452=CARTESIAN_POINT('',(0.,0.,4.));
#453=CARTESIAN_POINT('',(0.,0.,4.));
#454=CARTESIAN_POINT('',(4.,0.,4.));
#455=CARTESIAN_POINT('',(0.,0.,0.));
#456=CARTESIAN_POINT('',(4.,0.,0.));
#457=CARTESIAN_POINT('',(8.,0.,4.));
#458=CARTESIAN_POINT('',(8.,0.,4.));
#459=CARTESIAN_POINT('',(9.15,0.,4.));
#460=CARTESIAN_POINT('',(8.,0.,0.));
#461=CARTESIAN_POINT('',(9.15,0.,0.));
#462=CARTESIAN_POINT('',(5.65685424949238,5.65685424949238,4.));
#463=CARTESIAN_POINT('',(5.65685424949238,5.65685424949238,4.));
#464=CARTESIAN_POINT('',(6.80685424949238,5.65685424949238,4.));
#465=CARTESIAN_POINT('',(5.65685424949238,5.65685424949238,0.));
#466=CARTESIAN_POINT('',(6.80685424949238,5.65685424949238,0.));
#467=CARTESIAN_POINT('',(4.89858719658941E-16,8.,4.));
#468=CARTESIAN_POINT('',(4.89858719658941E-16,8.,4.));
#469=CARTESIAN_POINT('',(1.15,8.,4.));
#470=CARTESIAN_POINT('',(4.89858719658941E-16,8.,0.));
#471=CARTESIAN_POINT('',(1.15,8.,0.));
#472=CARTESIAN_POINT('',(-5.65685424949238,5.65685424949238,4.));
#473=CARTESIAN_POINT('',(-5.65685424949238,5.65685424949238,4.));
#474=CARTESIAN_POINT('',(-4.50685424949238,5.65685424949238,4.));
#475=CARTESIAN_POINT('',(-5.65685424949238,5.65685424949238,0.));
#476=CARTESIAN_POINT('',(-4.50685424949238,5.65685424949238,0.));
#477=CARTESIAN_POINT('',(-8.,9.79717439317883E-16,4.));
#478=CARTESIAN_POINT('',(-8.,9.79717439317883E-16,4.));
#479=CARTESIAN_POINT('',(-6.85,9.79717439317883E-16,4.));
#480=CARTESIAN_POINT('',(-8.,9.79717439317883E-16,0.));
#481=CARTESIAN_POINT('',(-6.85,9.79717439317883E-16,0.));
#482=CARTESIAN_POINT('',(-5.65685424949238,-5.65685424949238,4.));
#483=CARTESIAN_POINT('',(-5.65685424949238,-5.65685424949238,4.));
#484=CARTESIAN_POINT('',(-4.50685424949238,-5.65685424949238,4.));
#485=CARTESIAN_POINT('',(-5.65685424949238,-5.65685424949238,0.));
#486=CARTESIAN_POINT('',(-4.50685424949238,-5.65685424949238,0.));
#487=CARTESIAN_POINT('',(-1.46957615897682E-15,-8.,4.));
#488=CARTESIAN_POINT('',(-1.46957615897682E-15,-8.,4.));
#489=CARTESIAN_POINT('',(1.15,-8.,4.));
#490=CARTESIAN_POINT('',(-1.46957615897682E-15,-8.,0.));
#491=CARTESIAN_POINT('',(1.15,-8.,0.));
#492=CARTESIAN_POINT('',(5.65685424949238,-5.65685424949238,4.));
#493=CARTESIAN_POINT('',(5.65685424949238,-5.65685424949238,4.));
#494=CARTESIAN_POINT('',(6.80685424949238,-5.65685424949238,4.));
#495=CARTESIAN_POINT('',(5.65685424949238,-5.65685424949238,0.));
#496=CARTESIAN_POINT('',(6.80685424949238,-5.65685424949238,0.));
#497=CARTESIAN_POINT('',(11.3137084989848,11.3137084989848,4.));
#498=CARTESIAN_POINT('',(11.3137084989848,11.3137084989848,4.));
#499=CARTESIAN_POINT('',(13.0137084989848,11.3137084989848,4.));
#500=CARTESIAN_POINT('',(11.3137084989848,11.3137084989848,0.));
#501=CARTESIAN_POINT('',(13.0137084989848,11.3137084989848,0.));
#502=CARTESIAN_POINT('',(-11.3137084989848,11.3137084989848,4.));
#503=CARTESIAN_POINT('',(-11.3137084989848,11.3137084989848,4.));
#504=CARTESIAN_POINT('',(-9.61370849898476,11.3137084989848,4.));
#505=CARTESIAN_POINT('',(-11.3137084989848,11.3137084989848,0.));
#506=CARTESIAN_POINT('',(-9.61370849898476,11.3137084989848,0.));
#507=CARTESIAN_POINT('',(-11.3137084989848,-11.3137084989848,4.));
#508=CARTESIAN_POINT('',(-11.3137084989848,-11.3137084989848,4.));
#509=CARTESIAN_POINT('',(-9.61370849898476,-11.3137084989848,4.));
#510=CARTESIAN_POINT('',(-11.3137084989848,-11.3137084989848,0.));
#511=CARTESIAN_POINT('',(-9.61370849898476,-11.3137084989848,0.));
#512=CARTESIAN_POINT('',(11.3137084989848,-11.3137084989848,4.));
#513=CARTESIAN_POINT('',(11.3137084989848,-11.3137084989848,4.));
#514=CARTESIAN_POINT('',(13.0137084989848,-11.3137084989848,4.));
#515=CARTESIAN_POINT('',(11.3137084989848,-11.3137084989848,0.));
#516=CARTESIAN_POINT('',(13.0137084989848,-11.3137084989848,0.));
#517=CARTESIAN_POINT('',(0.,0.,4.));
#518=CARTESIAN_POINT('',(0.,0.,4.));
#519=CARTESIAN_POINT('',(21.,0.,4.));
#520=CARTESIAN_POINT('',(0.,0.,0.));
#521=CARTESIAN_POINT('',(21.,0.,0.));
#522=CARTESIAN_POINT('',(0.,0.,4.));
#523=CARTESIAN_POINT('',(0.,0.,0.));
#524=MECHANICAL_DESIGN_GEOMETRIC_PRESENTATION_REPRESENTATION('',(#305),
#525);
#525=(
GEOMETRIC_REPRESENTATION_CONTEXT(3)
GLOBAL_UNCERTAINTY_ASSIGNED_CONTEXT((#526))
GLOBAL_UNIT_ASSIGNED_CONTEXT((#529,#528,#527))
REPRESENTATION_CONTEXT('M_XM_output_flange','TOP_LEVEL_ASSEMBLY_PART')
);
#526=UNCERTAINTY_MEASURE_WITH_UNIT(LENGTH_MEASURE(0.005),#529,
'DISTANCE_ACCURACY_VALUE','Maximum Tolerance applied to model');
#527=(
NAMED_UNIT(*)
SI_UNIT($,.STERADIAN.)
SOLID_ANGLE_UNIT()
);
#528=(
NAMED_UNIT(*)
PLANE_ANGLE_UNIT()
SI_UNIT($,.RADIAN.)
);
#529=(
LENGTH_UNIT()
NAMED_UNIT(*)
SI_UNIT(.MILLI.,.METRE.)
);
#530=PRODUCT_DEFINITION_SHAPE('','',#531);
#531=PRODUCT_DEFINITION('','',#533,#532);
#532=PRODUCT_DEFINITION_CONTEXT('',#539,'design');
#533=PRODUCT_DEFINITION_FORMATION_WITH_SPECIFIED_SOURCE('','',#535,
 .NOT_KNOWN.);
#534=PRODUCT_RELATED_PRODUCT_CATEGORY('','',(#535));
#535=PRODUCT('M_XM_output_flange','M_XM_output_flange',
'M_XM_output_flange',(#537));
#536=PRODUCT_CATEGORY('','');
#537=PRODUCT_CONTEXT('',#539,'mechanical');
#538=APPLICATION_PROTOCOL_DEFINITION('international standard',
'automotive_design',2010,#539);
#539=APPLICATION_CONTEXT(
'core data for automotive mechanical design processes');
ENDSEC;
END-ISO-10303-21;
