ISO-10303-21;
HEADER;
/* Generated by software containing ST-Developer
 * from STEP Tools, Inc. (www.steptools.com) 
 */
/* OPTION: strings as raw bytes, not using required /X/ escapes */

FILE_DESCRIPTION(
/* description */ ('Unknown'),
/* implementation_level */ '2;1');

FILE_NAME(
/* name */ 'M_XM_keyed_cradle',
/* time_stamp */ '2026-09-23T11:55:32+08:00',
/* author */ ('Unknown'),
/* organization */ ('Unknown'),
/* preprocessor_version */ 'ST-DEVELOPER v16.7',
/* originating_system */ 'Solid Edge',
/* authorisation */ 'Unknown');

FILE_SCHEMA (('AUTOMOTIVE_DESIGN {1 0 10303 214 3 1 1}'));
ENDSEC;

DATA;
#10=PROPERTY_DEFINITION_REPRESENTATION(#14,#12);
#11=PROPERTY_DEFINITION_REPRESENTATION(#15,#13);
#12=REPRESENTATION('',(#16),#799);
#13=REPRESENTATION('',(#17),#799);
#14=PROPERTY_DEFINITION('pmi validation property','',#804);
#15=PROPERTY_DEFINITION('pmi validation property','',#804);
#16=VALUE_REPRESENTATION_ITEM('number of annotations',COUNT_MEASURE(0.));
#17=VALUE_REPRESENTATION_ITEM('number of views',COUNT_MEASURE(0.));
#18=SHAPE_REPRESENTATION_RELATIONSHIP('','',#491,#19);
#19=ADVANCED_BREP_SHAPE_REPRESENTATION('',(#489),#799);
#20=CYLINDRICAL_SURFACE('',#502,12.2);
#21=CYLINDRICAL_SURFACE('',#504,1.7);
#22=CYLINDRICAL_SURFACE('',#507,1.7);
#23=CYLINDRICAL_SURFACE('',#510,1.7);
#24=CYLINDRICAL_SURFACE('',#513,1.7);
#25=CYLINDRICAL_SURFACE('',#518,4.3);
#26=CYLINDRICAL_SURFACE('',#521,4.3);
#27=CYLINDRICAL_SURFACE('',#524,4.3);
#28=CYLINDRICAL_SURFACE('',#527,4.3);
#29=CIRCLE('',#494,4.3);
#30=CIRCLE('',#495,4.3);
#31=CIRCLE('',#496,4.3);
#32=CIRCLE('',#497,4.3);
#33=CIRCLE('',#498,12.2);
#34=CIRCLE('',#503,12.2);
#35=CIRCLE('',#505,1.7);
#36=CIRCLE('',#506,1.7);
#37=CIRCLE('',#508,1.7);
#38=CIRCLE('',#509,1.7);
#39=CIRCLE('',#511,1.7);
#40=CIRCLE('',#512,1.7);
#41=CIRCLE('',#514,1.7);
#42=CIRCLE('',#515,1.7);
#43=CIRCLE('',#519,4.3);
#44=CIRCLE('',#522,4.3);
#45=CIRCLE('',#525,4.3);
#46=CIRCLE('',#528,4.3);
#47=ORIENTED_EDGE('',*,*,#155,.T.);
#48=ORIENTED_EDGE('',*,*,#156,.T.);
#49=ORIENTED_EDGE('',*,*,#157,.T.);
#50=ORIENTED_EDGE('',*,*,#158,.T.);
#51=ORIENTED_EDGE('',*,*,#159,.F.);
#52=ORIENTED_EDGE('',*,*,#160,.F.);
#53=ORIENTED_EDGE('',*,*,#161,.F.);
#54=ORIENTED_EDGE('',*,*,#162,.T.);
#55=ORIENTED_EDGE('',*,*,#163,.T.);
#56=ORIENTED_EDGE('',*,*,#164,.F.);
#57=ORIENTED_EDGE('',*,*,#165,.F.);
#58=ORIENTED_EDGE('',*,*,#166,.F.);
#59=ORIENTED_EDGE('',*,*,#167,.F.);
#60=ORIENTED_EDGE('',*,*,#168,.T.);
#61=ORIENTED_EDGE('',*,*,#169,.T.);
#62=ORIENTED_EDGE('',*,*,#170,.T.);
#63=ORIENTED_EDGE('',*,*,#171,.T.);
#64=ORIENTED_EDGE('',*,*,#164,.T.);
#65=ORIENTED_EDGE('',*,*,#172,.F.);
#66=ORIENTED_EDGE('',*,*,#173,.F.);
#67=ORIENTED_EDGE('',*,*,#174,.T.);
#68=ORIENTED_EDGE('',*,*,#167,.T.);
#69=ORIENTED_EDGE('',*,*,#175,.F.);
#70=ORIENTED_EDGE('',*,*,#176,.F.);
#71=ORIENTED_EDGE('',*,*,#172,.T.);
#72=ORIENTED_EDGE('',*,*,#166,.T.);
#73=ORIENTED_EDGE('',*,*,#177,.F.);
#74=ORIENTED_EDGE('',*,*,#178,.F.);
#75=ORIENTED_EDGE('',*,*,#175,.T.);
#76=ORIENTED_EDGE('',*,*,#179,.T.);
#77=ORIENTED_EDGE('',*,*,#163,.F.);
#78=ORIENTED_EDGE('',*,*,#180,.T.);
#79=ORIENTED_EDGE('',*,*,#181,.F.);
#80=ORIENTED_EDGE('',*,*,#182,.T.);
#81=ORIENTED_EDGE('',*,*,#183,.F.);
#82=ORIENTED_EDGE('',*,*,#184,.T.);
#83=ORIENTED_EDGE('',*,*,#185,.F.);
#84=ORIENTED_EDGE('',*,*,#186,.T.);
#85=ORIENTED_EDGE('',*,*,#187,.F.);
#86=ORIENTED_EDGE('',*,*,#165,.T.);
#87=ORIENTED_EDGE('',*,*,#174,.F.);
#88=ORIENTED_EDGE('',*,*,#188,.F.);
#89=ORIENTED_EDGE('',*,*,#177,.T.);
#90=ORIENTED_EDGE('',*,*,#186,.F.);
#91=ORIENTED_EDGE('',*,*,#184,.F.);
#92=ORIENTED_EDGE('',*,*,#182,.F.);
#93=ORIENTED_EDGE('',*,*,#180,.F.);
#94=ORIENTED_EDGE('',*,*,#179,.F.);
#95=ORIENTED_EDGE('',*,*,#173,.T.);
#96=ORIENTED_EDGE('',*,*,#176,.T.);
#97=ORIENTED_EDGE('',*,*,#178,.T.);
#98=ORIENTED_EDGE('',*,*,#188,.T.);
#99=ORIENTED_EDGE('',*,*,#162,.F.);
#100=ORIENTED_EDGE('',*,*,#189,.T.);
#101=ORIENTED_EDGE('',*,*,#181,.T.);
#102=ORIENTED_EDGE('',*,*,#189,.F.);
#103=ORIENTED_EDGE('',*,*,#161,.T.);
#104=ORIENTED_EDGE('',*,*,#190,.T.);
#105=ORIENTED_EDGE('',*,*,#183,.T.);
#106=ORIENTED_EDGE('',*,*,#190,.F.);
#107=ORIENTED_EDGE('',*,*,#160,.T.);
#108=ORIENTED_EDGE('',*,*,#191,.T.);
#109=ORIENTED_EDGE('',*,*,#185,.T.);
#110=ORIENTED_EDGE('',*,*,#191,.F.);
#111=ORIENTED_EDGE('',*,*,#159,.T.);
#112=ORIENTED_EDGE('',*,*,#192,.T.);
#113=ORIENTED_EDGE('',*,*,#187,.T.);
#114=ORIENTED_EDGE('',*,*,#192,.F.);
#115=ORIENTED_EDGE('',*,*,#193,.T.);
#116=ORIENTED_EDGE('',*,*,#194,.F.);
#117=ORIENTED_EDGE('',*,*,#155,.F.);
#118=ORIENTED_EDGE('',*,*,#195,.T.);
#119=ORIENTED_EDGE('',*,*,#196,.T.);
#120=ORIENTED_EDGE('',*,*,#197,.F.);
#121=ORIENTED_EDGE('',*,*,#156,.F.);
#122=ORIENTED_EDGE('',*,*,#194,.T.);
#123=ORIENTED_EDGE('',*,*,#198,.T.);
#124=ORIENTED_EDGE('',*,*,#199,.F.);
#125=ORIENTED_EDGE('',*,*,#157,.F.);
#126=ORIENTED_EDGE('',*,*,#197,.T.);
#127=ORIENTED_EDGE('',*,*,#200,.T.);
#128=ORIENTED_EDGE('',*,*,#195,.F.);
#129=ORIENTED_EDGE('',*,*,#158,.F.);
#130=ORIENTED_EDGE('',*,*,#199,.T.);
#131=ORIENTED_EDGE('',*,*,#193,.F.);
#132=ORIENTED_EDGE('',*,*,#200,.F.);
#133=ORIENTED_EDGE('',*,*,#198,.F.);
#134=ORIENTED_EDGE('',*,*,#196,.F.);
#135=ORIENTED_EDGE('',*,*,#201,.T.);
#136=ORIENTED_EDGE('',*,*,#202,.F.);
#137=ORIENTED_EDGE('',*,*,#168,.F.);
#138=ORIENTED_EDGE('',*,*,#203,.T.);
#139=ORIENTED_EDGE('',*,*,#204,.T.);
#140=ORIENTED_EDGE('',*,*,#205,.F.);
#141=ORIENTED_EDGE('',*,*,#169,.F.);
#142=ORIENTED_EDGE('',*,*,#202,.T.);
#143=ORIENTED_EDGE('',*,*,#206,.T.);
#144=ORIENTED_EDGE('',*,*,#207,.F.);
#145=ORIENTED_EDGE('',*,*,#170,.F.);
#146=ORIENTED_EDGE('',*,*,#205,.T.);
#147=ORIENTED_EDGE('',*,*,#208,.T.);
#148=ORIENTED_EDGE('',*,*,#203,.F.);
#149=ORIENTED_EDGE('',*,*,#171,.F.);
#150=ORIENTED_EDGE('',*,*,#207,.T.);
#151=ORIENTED_EDGE('',*,*,#201,.F.);
#152=ORIENTED_EDGE('',*,*,#208,.F.);
#153=ORIENTED_EDGE('',*,*,#206,.F.);
#154=ORIENTED_EDGE('',*,*,#204,.F.);
#155=EDGE_CURVE('',#209,#210,#251,.T.);
#156=EDGE_CURVE('',#210,#211,#252,.T.);
#157=EDGE_CURVE('',#211,#212,#253,.T.);
#158=EDGE_CURVE('',#212,#209,#254,.T.);
#159=EDGE_CURVE('',#213,#213,#29,.F.);
#160=EDGE_CURVE('',#214,#214,#30,.F.);
#161=EDGE_CURVE('',#215,#215,#31,.F.);
#162=EDGE_CURVE('',#216,#216,#32,.T.);
#163=EDGE_CURVE('',#217,#217,#33,.T.);
#164=EDGE_CURVE('',#218,#219,#255,.T.);
#165=EDGE_CURVE('',#220,#218,#256,.T.);
#166=EDGE_CURVE('',#221,#220,#257,.T.);
#167=EDGE_CURVE('',#219,#221,#258,.T.);
#168=EDGE_CURVE('',#222,#223,#259,.T.);
#169=EDGE_CURVE('',#223,#224,#260,.T.);
#170=EDGE_CURVE('',#224,#225,#261,.T.);
#171=EDGE_CURVE('',#225,#222,#262,.T.);
#172=EDGE_CURVE('',#226,#219,#263,.T.);
#173=EDGE_CURVE('',#227,#226,#264,.T.);
#174=EDGE_CURVE('',#227,#218,#265,.T.);
#175=EDGE_CURVE('',#228,#221,#266,.T.);
#176=EDGE_CURVE('',#226,#228,#267,.T.);
#177=EDGE_CURVE('',#229,#220,#268,.T.);
#178=EDGE_CURVE('',#228,#229,#269,.T.);
#179=EDGE_CURVE('',#230,#230,#34,.T.);
#180=EDGE_CURVE('',#231,#231,#35,.T.);
#181=EDGE_CURVE('',#232,#232,#36,.T.);
#182=EDGE_CURVE('',#233,#233,#37,.T.);
#183=EDGE_CURVE('',#234,#234,#38,.T.);
#184=EDGE_CURVE('',#235,#235,#39,.T.);
#185=EDGE_CURVE('',#236,#236,#40,.T.);
#186=EDGE_CURVE('',#237,#237,#41,.T.);
#187=EDGE_CURVE('',#238,#238,#42,.T.);
#188=EDGE_CURVE('',#229,#227,#270,.T.);
#189=EDGE_CURVE('',#239,#239,#43,.T.);
#190=EDGE_CURVE('',#240,#240,#44,.T.);
#191=EDGE_CURVE('',#241,#241,#45,.T.);
#192=EDGE_CURVE('',#242,#242,#46,.T.);
#193=EDGE_CURVE('',#243,#244,#271,.T.);
#194=EDGE_CURVE('',#210,#244,#272,.T.);
#195=EDGE_CURVE('',#209,#243,#273,.T.);
#196=EDGE_CURVE('',#244,#245,#274,.T.);
#197=EDGE_CURVE('',#211,#245,#275,.T.);
#198=EDGE_CURVE('',#245,#246,#276,.T.);
#199=EDGE_CURVE('',#212,#246,#277,.T.);
#200=EDGE_CURVE('',#246,#243,#278,.T.);
#201=EDGE_CURVE('',#247,#248,#279,.T.);
#202=EDGE_CURVE('',#223,#248,#280,.T.);
#203=EDGE_CURVE('',#222,#247,#281,.T.);
#204=EDGE_CURVE('',#248,#249,#282,.T.);
#205=EDGE_CURVE('',#224,#249,#283,.T.);
#206=EDGE_CURVE('',#249,#250,#284,.T.);
#207=EDGE_CURVE('',#225,#250,#285,.T.);
#208=EDGE_CURVE('',#250,#247,#286,.T.);
#209=VERTEX_POINT('',#675);
#210=VERTEX_POINT('',#676);
#211=VERTEX_POINT('',#678);
#212=VERTEX_POINT('',#680);
#213=VERTEX_POINT('',#683);
#214=VERTEX_POINT('',#685);
#215=VERTEX_POINT('',#687);
#216=VERTEX_POINT('',#689);
#217=VERTEX_POINT('',#691);
#218=VERTEX_POINT('',#693);
#219=VERTEX_POINT('',#694);
#220=VERTEX_POINT('',#696);
#221=VERTEX_POINT('',#698);
#222=VERTEX_POINT('',#701);
#223=VERTEX_POINT('',#702);
#224=VERTEX_POINT('',#704);
#225=VERTEX_POINT('',#706);
#226=VERTEX_POINT('',#710);
#227=VERTEX_POINT('',#712);
#228=VERTEX_POINT('',#716);
#229=VERTEX_POINT('',#720);
#230=VERTEX_POINT('',#724);
#231=VERTEX_POINT('',#727);
#232=VERTEX_POINT('',#729);
#233=VERTEX_POINT('',#732);
#234=VERTEX_POINT('',#734);
#235=VERTEX_POINT('',#737);
#236=VERTEX_POINT('',#739);
#237=VERTEX_POINT('',#742);
#238=VERTEX_POINT('',#744);
#239=VERTEX_POINT('',#750);
#240=VERTEX_POINT('',#754);
#241=VERTEX_POINT('',#758);
#242=VERTEX_POINT('',#762);
#243=VERTEX_POINT('',#766);
#244=VERTEX_POINT('',#767);
#245=VERTEX_POINT('',#772);
#246=VERTEX_POINT('',#776);
#247=VERTEX_POINT('',#783);
#248=VERTEX_POINT('',#784);
#249=VERTEX_POINT('',#789);
#250=VERTEX_POINT('',#793);
#251=LINE('',#674,#287);
#252=LINE('',#677,#288);
#253=LINE('',#679,#289);
#254=LINE('',#681,#290);
#255=LINE('',#692,#291);
#256=LINE('',#695,#292);
#257=LINE('',#697,#293);
#258=LINE('',#699,#294);
#259=LINE('',#700,#295);
#260=LINE('',#703,#296);
#261=LINE('',#705,#297);
#262=LINE('',#707,#298);
#263=LINE('',#709,#299);
#264=LINE('',#711,#300);
#265=LINE('',#713,#301);
#266=LINE('',#715,#302);
#267=LINE('',#717,#303);
#268=LINE('',#719,#304);
#269=LINE('',#721,#305);
#270=LINE('',#746,#306);
#271=LINE('',#765,#307);
#272=LINE('',#768,#308);
#273=LINE('',#769,#309);
#274=LINE('',#771,#310);
#275=LINE('',#773,#311);
#276=LINE('',#775,#312);
#277=LINE('',#777,#313);
#278=LINE('',#779,#314);
#279=LINE('',#782,#315);
#280=LINE('',#785,#316);
#281=LINE('',#786,#317);
#282=LINE('',#788,#318);
#283=LINE('',#790,#319);
#284=LINE('',#792,#320);
#285=LINE('',#794,#321);
#286=LINE('',#796,#322);
#287=VECTOR('',#544,1000.);
#288=VECTOR('',#545,1000.);
#289=VECTOR('',#546,1000.);
#290=VECTOR('',#547,1000.);
#291=VECTOR('',#558,1000.);
#292=VECTOR('',#559,1000.);
#293=VECTOR('',#560,1000.);
#294=VECTOR('',#561,1000.);
#295=VECTOR('',#562,1000.);
#296=VECTOR('',#563,1000.);
#297=VECTOR('',#564,1000.);
#298=VECTOR('',#565,1000.);
#299=VECTOR('',#568,1000.);
#300=VECTOR('',#569,1000.);
#301=VECTOR('',#570,1000.);
#302=VECTOR('',#573,1000.);
#303=VECTOR('',#574,1000.);
#304=VECTOR('',#577,1000.);
#305=VECTOR('',#578,1000.);
#306=VECTOR('',#609,1000.);
#307=VECTOR('',#638,1000.);
#308=VECTOR('',#639,1000.);
#309=VECTOR('',#640,1000.);
#310=VECTOR('',#643,1000.);
#311=VECTOR('',#644,1000.);
#312=VECTOR('',#647,1000.);
#313=VECTOR('',#648,1000.);
#314=VECTOR('',#651,1000.);
#315=VECTOR('',#656,1000.);
#316=VECTOR('',#657,1000.);
#317=VECTOR('',#658,1000.);
#318=VECTOR('',#661,1000.);
#319=VECTOR('',#662,1000.);
#320=VECTOR('',#665,1000.);
#321=VECTOR('',#666,1000.);
#322=VECTOR('',#669,1000.);
#323=EDGE_LOOP('',(#47,#48,#49,#50));
#324=EDGE_LOOP('',(#51));
#325=EDGE_LOOP('',(#52));
#326=EDGE_LOOP('',(#53));
#327=EDGE_LOOP('',(#54));
#328=EDGE_LOOP('',(#55));
#329=EDGE_LOOP('',(#56,#57,#58,#59));
#330=EDGE_LOOP('',(#60,#61,#62,#63));
#331=EDGE_LOOP('',(#64,#65,#66,#67));
#332=EDGE_LOOP('',(#68,#69,#70,#71));
#333=EDGE_LOOP('',(#72,#73,#74,#75));
#334=EDGE_LOOP('',(#76));
#335=EDGE_LOOP('',(#77));
#336=EDGE_LOOP('',(#78));
#337=EDGE_LOOP('',(#79));
#338=EDGE_LOOP('',(#80));
#339=EDGE_LOOP('',(#81));
#340=EDGE_LOOP('',(#82));
#341=EDGE_LOOP('',(#83));
#342=EDGE_LOOP('',(#84));
#343=EDGE_LOOP('',(#85));
#344=EDGE_LOOP('',(#86,#87,#88,#89));
#345=EDGE_LOOP('',(#90));
#346=EDGE_LOOP('',(#91));
#347=EDGE_LOOP('',(#92));
#348=EDGE_LOOP('',(#93));
#349=EDGE_LOOP('',(#94));
#350=EDGE_LOOP('',(#95,#96,#97,#98));
#351=EDGE_LOOP('',(#99));
#352=EDGE_LOOP('',(#100));
#353=EDGE_LOOP('',(#101));
#354=EDGE_LOOP('',(#102));
#355=EDGE_LOOP('',(#103));
#356=EDGE_LOOP('',(#104));
#357=EDGE_LOOP('',(#105));
#358=EDGE_LOOP('',(#106));
#359=EDGE_LOOP('',(#107));
#360=EDGE_LOOP('',(#108));
#361=EDGE_LOOP('',(#109));
#362=EDGE_LOOP('',(#110));
#363=EDGE_LOOP('',(#111));
#364=EDGE_LOOP('',(#112));
#365=EDGE_LOOP('',(#113));
#366=EDGE_LOOP('',(#114));
#367=EDGE_LOOP('',(#115,#116,#117,#118));
#368=EDGE_LOOP('',(#119,#120,#121,#122));
#369=EDGE_LOOP('',(#123,#124,#125,#126));
#370=EDGE_LOOP('',(#127,#128,#129,#130));
#371=EDGE_LOOP('',(#131,#132,#133,#134));
#372=EDGE_LOOP('',(#135,#136,#137,#138));
#373=EDGE_LOOP('',(#139,#140,#141,#142));
#374=EDGE_LOOP('',(#143,#144,#145,#146));
#375=EDGE_LOOP('',(#147,#148,#149,#150));
#376=EDGE_LOOP('',(#151,#152,#153,#154));
#377=FACE_BOUND('',#323,.T.);
#378=FACE_BOUND('',#324,.T.);
#379=FACE_BOUND('',#325,.T.);
#380=FACE_BOUND('',#326,.T.);
#381=FACE_BOUND('',#327,.T.);
#382=FACE_BOUND('',#328,.T.);
#383=FACE_BOUND('',#329,.T.);
#384=FACE_BOUND('',#330,.T.);
#385=FACE_BOUND('',#331,.T.);
#386=FACE_BOUND('',#332,.T.);
#387=FACE_BOUND('',#333,.T.);
#388=FACE_BOUND('',#334,.T.);
#389=FACE_BOUND('',#335,.T.);
#390=FACE_BOUND('',#336,.T.);
#391=FACE_BOUND('',#337,.T.);
#392=FACE_BOUND('',#338,.T.);
#393=FACE_BOUND('',#339,.T.);
#394=FACE_BOUND('',#340,.T.);
#395=FACE_BOUND('',#341,.T.);
#396=FACE_BOUND('',#342,.T.);
#397=FACE_BOUND('',#343,.T.);
#398=FACE_BOUND('',#344,.T.);
#399=FACE_BOUND('',#345,.T.);
#400=FACE_BOUND('',#346,.T.);
#401=FACE_BOUND('',#347,.T.);
#402=FACE_BOUND('',#348,.T.);
#403=FACE_BOUND('',#349,.T.);
#404=FACE_BOUND('',#350,.T.);
#405=FACE_BOUND('',#351,.T.);
#406=FACE_BOUND('',#352,.T.);
#407=FACE_BOUND('',#353,.T.);
#408=FACE_BOUND('',#354,.T.);
#409=FACE_BOUND('',#355,.T.);
#410=FACE_BOUND('',#356,.T.);
#411=FACE_BOUND('',#357,.T.);
#412=FACE_BOUND('',#358,.T.);
#413=FACE_BOUND('',#359,.T.);
#414=FACE_BOUND('',#360,.T.);
#415=FACE_BOUND('',#361,.T.);
#416=FACE_BOUND('',#362,.T.);
#417=FACE_BOUND('',#363,.T.);
#418=FACE_BOUND('',#364,.T.);
#419=FACE_BOUND('',#365,.T.);
#420=FACE_BOUND('',#366,.T.);
#421=FACE_BOUND('',#367,.T.);
#422=FACE_BOUND('',#368,.T.);
#423=FACE_BOUND('',#369,.T.);
#424=FACE_BOUND('',#370,.T.);
#425=FACE_BOUND('',#371,.T.);
#426=FACE_BOUND('',#372,.T.);
#427=FACE_BOUND('',#373,.T.);
#428=FACE_BOUND('',#374,.T.);
#429=FACE_BOUND('',#375,.T.);
#430=FACE_BOUND('',#376,.T.);
#431=PLANE('',#493);
#432=PLANE('',#499);
#433=PLANE('',#500);
#434=PLANE('',#501);
#435=PLANE('',#516);
#436=PLANE('',#517);
#437=PLANE('',#520);
#438=PLANE('',#523);
#439=PLANE('',#526);
#440=PLANE('',#529);
#441=PLANE('',#530);
#442=PLANE('',#531);
#443=PLANE('',#532);
#444=PLANE('',#533);
#445=PLANE('',#534);
#446=PLANE('',#535);
#447=PLANE('',#536);
#448=PLANE('',#537);
#449=PLANE('',#538);
#450=PLANE('',#539);
#451=ADVANCED_FACE('',(#377,#378,#379,#380,#381,#382,#383,#384),#431,.F.);
#452=ADVANCED_FACE('',(#385),#432,.F.);
#453=ADVANCED_FACE('',(#386),#433,.F.);
#454=ADVANCED_FACE('',(#387),#434,.F.);
#455=ADVANCED_FACE('',(#388,#389),#20,.F.);
#456=ADVANCED_FACE('',(#390,#391),#21,.F.);
#457=ADVANCED_FACE('',(#392,#393),#22,.F.);
#458=ADVANCED_FACE('',(#394,#395),#23,.F.);
#459=ADVANCED_FACE('',(#396,#397),#24,.F.);
#460=ADVANCED_FACE('',(#398),#435,.F.);
#461=ADVANCED_FACE('',(#399,#400,#401,#402,#403,#404),#436,.T.);
#462=ADVANCED_FACE('',(#405,#406),#25,.T.);
#463=ADVANCED_FACE('',(#407,#408),#437,.F.);
#464=ADVANCED_FACE('',(#409,#410),#26,.T.);
#465=ADVANCED_FACE('',(#411,#412),#438,.F.);
#466=ADVANCED_FACE('',(#413,#414),#27,.T.);
#467=ADVANCED_FACE('',(#415,#416),#439,.F.);
#468=ADVANCED_FACE('',(#417,#418),#28,.T.);
#469=ADVANCED_FACE('',(#419,#420),#440,.F.);
#470=ADVANCED_FACE('',(#421),#441,.F.);
#471=ADVANCED_FACE('',(#422),#442,.F.);
#472=ADVANCED_FACE('',(#423),#443,.F.);
#473=ADVANCED_FACE('',(#424),#444,.F.);
#474=ADVANCED_FACE('',(#425),#445,.F.);
#475=ADVANCED_FACE('',(#426),#446,.F.);
#476=ADVANCED_FACE('',(#427),#447,.F.);
#477=ADVANCED_FACE('',(#428),#448,.F.);
#478=ADVANCED_FACE('',(#429),#449,.F.);
#479=ADVANCED_FACE('',(#430),#450,.F.);
#480=CLOSED_SHELL('',(#451,#452,#453,#454,#455,#456,#457,#458,#459,#460,
#461,#462,#463,#464,#465,#466,#467,#468,#469,#470,#471,#472,#473,#474,#475,
#476,#477,#478,#479));
#481=STYLED_ITEM('',(#482),#489);
#482=PRESENTATION_STYLE_ASSIGNMENT((#483));
#483=SURFACE_STYLE_USAGE(.BOTH.,#484);
#484=SURFACE_SIDE_STYLE('',(#485));
#485=SURFACE_STYLE_FILL_AREA(#486);
#486=FILL_AREA_STYLE('',(#487));
#487=FILL_AREA_STYLE_COLOUR('',#488);
#488=COLOUR_RGB('',0.100000001490116,0.349999994039536,0.280000001192093);
#489=MANIFOLD_SOLID_BREP('',#480);
#490=SHAPE_DEFINITION_REPRESENTATION(#804,#491);
#491=SHAPE_REPRESENTATION('M_XM_keyed_cradle',(#492),#799);
#492=AXIS2_PLACEMENT_3D('',#672,#540,#541);
#493=AXIS2_PLACEMENT_3D('',#673,#542,#543);
#494=AXIS2_PLACEMENT_3D('',#682,#548,#549);
#495=AXIS2_PLACEMENT_3D('',#684,#550,#551);
#496=AXIS2_PLACEMENT_3D('',#686,#552,#553);
#497=AXIS2_PLACEMENT_3D('',#688,#554,#555);
#498=AXIS2_PLACEMENT_3D('',#690,#556,#557);
#499=AXIS2_PLACEMENT_3D('',#708,#566,#567);
#500=AXIS2_PLACEMENT_3D('',#714,#571,#572);
#501=AXIS2_PLACEMENT_3D('',#718,#575,#576);
#502=AXIS2_PLACEMENT_3D('',#722,#579,#580);
#503=AXIS2_PLACEMENT_3D('',#723,#581,#582);
#504=AXIS2_PLACEMENT_3D('',#725,#583,#584);
#505=AXIS2_PLACEMENT_3D('',#726,#585,#586);
#506=AXIS2_PLACEMENT_3D('',#728,#587,#588);
#507=AXIS2_PLACEMENT_3D('',#730,#589,#590);
#508=AXIS2_PLACEMENT_3D('',#731,#591,#592);
#509=AXIS2_PLACEMENT_3D('',#733,#593,#594);
#510=AXIS2_PLACEMENT_3D('',#735,#595,#596);
#511=AXIS2_PLACEMENT_3D('',#736,#597,#598);
#512=AXIS2_PLACEMENT_3D('',#738,#599,#600);
#513=AXIS2_PLACEMENT_3D('',#740,#601,#602);
#514=AXIS2_PLACEMENT_3D('',#741,#603,#604);
#515=AXIS2_PLACEMENT_3D('',#743,#605,#606);
#516=AXIS2_PLACEMENT_3D('',#745,#607,#608);
#517=AXIS2_PLACEMENT_3D('',#747,#610,#611);
#518=AXIS2_PLACEMENT_3D('',#748,#612,#613);
#519=AXIS2_PLACEMENT_3D('',#749,#614,#615);
#520=AXIS2_PLACEMENT_3D('',#751,#616,#617);
#521=AXIS2_PLACEMENT_3D('',#752,#618,#619);
#522=AXIS2_PLACEMENT_3D('',#753,#620,#621);
#523=AXIS2_PLACEMENT_3D('',#755,#622,#623);
#524=AXIS2_PLACEMENT_3D('',#756,#624,#625);
#525=AXIS2_PLACEMENT_3D('',#757,#626,#627);
#526=AXIS2_PLACEMENT_3D('',#759,#628,#629);
#527=AXIS2_PLACEMENT_3D('',#760,#630,#631);
#528=AXIS2_PLACEMENT_3D('',#761,#632,#633);
#529=AXIS2_PLACEMENT_3D('',#763,#634,#635);
#530=AXIS2_PLACEMENT_3D('',#764,#636,#637);
#531=AXIS2_PLACEMENT_3D('',#770,#641,#642);
#532=AXIS2_PLACEMENT_3D('',#774,#645,#646);
#533=AXIS2_PLACEMENT_3D('',#778,#649,#650);
#534=AXIS2_PLACEMENT_3D('',#780,#652,#653);
#535=AXIS2_PLACEMENT_3D('',#781,#654,#655);
#536=AXIS2_PLACEMENT_3D('',#787,#659,#660);
#537=AXIS2_PLACEMENT_3D('',#791,#663,#664);
#538=AXIS2_PLACEMENT_3D('',#795,#667,#668);
#539=AXIS2_PLACEMENT_3D('',#797,#670,#671);
#540=DIRECTION('',(0.,0.,1.));
#541=DIRECTION('',(1.,0.,0.));
#542=DIRECTION('',(0.,0.,1.));
#543=DIRECTION('',(1.,0.,0.));
#544=DIRECTION('',(0.,-1.,0.));
#545=DIRECTION('',(1.,0.,0.));
#546=DIRECTION('',(0.,1.,0.));
#547=DIRECTION('',(-1.,0.,0.));
#548=DIRECTION('',(0.,0.,1.));
#549=DIRECTION('',(1.,0.,0.));
#550=DIRECTION('',(0.,0.,1.));
#551=DIRECTION('',(1.,0.,0.));
#552=DIRECTION('',(0.,0.,1.));
#553=DIRECTION('',(1.,0.,0.));
#554=DIRECTION('',(0.,0.,1.));
#555=DIRECTION('',(1.,0.,0.));
#556=DIRECTION('',(0.,0.,1.));
#557=DIRECTION('',(1.,0.,0.));
#558=DIRECTION('',(0.,-1.,0.));
#559=DIRECTION('',(-1.,0.,0.));
#560=DIRECTION('',(0.,1.,0.));
#561=DIRECTION('',(1.,0.,0.));
#562=DIRECTION('',(0.,-1.,0.));
#563=DIRECTION('',(1.,0.,0.));
#564=DIRECTION('',(0.,1.,0.));
#565=DIRECTION('',(-1.,0.,0.));
#566=DIRECTION('',(1.,0.,0.));
#567=DIRECTION('',(0.,0.,-1.));
#568=DIRECTION('',(0.,0.,-1.));
#569=DIRECTION('',(0.,-1.,0.));
#570=DIRECTION('',(0.,0.,-1.));
#571=DIRECTION('',(0.,1.,0.));
#572=DIRECTION('',(0.,0.,1.));
#573=DIRECTION('',(0.,0.,-1.));
#574=DIRECTION('',(1.,0.,0.));
#575=DIRECTION('',(-1.,0.,0.));
#576=DIRECTION('',(0.,0.,1.));
#577=DIRECTION('',(0.,0.,-1.));
#578=DIRECTION('',(0.,1.,0.));
#579=DIRECTION('',(0.,0.,-1.));
#580=DIRECTION('',(-1.,0.,0.));
#581=DIRECTION('',(0.,0.,1.));
#582=DIRECTION('',(1.,0.,0.));
#583=DIRECTION('',(0.,0.,-1.));
#584=DIRECTION('',(-1.,0.,0.));
#585=DIRECTION('',(0.,0.,1.));
#586=DIRECTION('',(1.,0.,0.));
#587=DIRECTION('',(0.,0.,1.));
#588=DIRECTION('',(1.,0.,0.));
#589=DIRECTION('',(0.,0.,-1.));
#590=DIRECTION('',(-1.,0.,0.));
#591=DIRECTION('',(0.,0.,1.));
#592=DIRECTION('',(1.,0.,0.));
#593=DIRECTION('',(0.,0.,1.));
#594=DIRECTION('',(1.,0.,0.));
#595=DIRECTION('',(0.,0.,-1.));
#596=DIRECTION('',(-1.,0.,0.));
#597=DIRECTION('',(0.,0.,1.));
#598=DIRECTION('',(1.,0.,0.));
#599=DIRECTION('',(0.,0.,1.));
#600=DIRECTION('',(1.,0.,0.));
#601=DIRECTION('',(0.,0.,-1.));
#602=DIRECTION('',(-1.,0.,0.));
#603=DIRECTION('',(0.,0.,1.));
#604=DIRECTION('',(1.,0.,0.));
#605=DIRECTION('',(0.,0.,1.));
#606=DIRECTION('',(1.,0.,0.));
#607=DIRECTION('',(0.,-1.,0.));
#608=DIRECTION('',(0.,0.,-1.));
#609=DIRECTION('',(-1.,0.,0.));
#610=DIRECTION('',(0.,0.,1.));
#611=DIRECTION('',(1.,0.,0.));
#612=DIRECTION('',(0.,0.,-1.));
#613=DIRECTION('',(-1.,0.,0.));
#614=DIRECTION('',(0.,0.,1.));
#615=DIRECTION('',(1.,0.,0.));
#616=DIRECTION('',(0.,0.,1.));
#617=DIRECTION('',(1.,0.,0.));
#618=DIRECTION('',(0.,0.,-1.));
#619=DIRECTION('',(-1.,0.,0.));
#620=DIRECTION('',(0.,0.,1.));
#621=DIRECTION('',(1.,0.,0.));
#622=DIRECTION('',(0.,0.,1.));
#623=DIRECTION('',(1.,0.,0.));
#624=DIRECTION('',(0.,0.,-1.));
#625=DIRECTION('',(-1.,0.,0.));
#626=DIRECTION('',(0.,0.,1.));
#627=DIRECTION('',(1.,0.,0.));
#628=DIRECTION('',(0.,0.,1.));
#629=DIRECTION('',(1.,0.,0.));
#630=DIRECTION('',(0.,0.,-1.));
#631=DIRECTION('',(-1.,0.,0.));
#632=DIRECTION('',(0.,0.,1.));
#633=DIRECTION('',(1.,0.,0.));
#634=DIRECTION('',(0.,0.,1.));
#635=DIRECTION('',(1.,0.,0.));
#636=DIRECTION('',(1.,0.,0.));
#637=DIRECTION('',(0.,0.,-1.));
#638=DIRECTION('',(0.,-1.,0.));
#639=DIRECTION('',(0.,0.,-1.));
#640=DIRECTION('',(0.,0.,-1.));
#641=DIRECTION('',(0.,1.,0.));
#642=DIRECTION('',(0.,0.,1.));
#643=DIRECTION('',(1.,0.,0.));
#644=DIRECTION('',(0.,0.,-1.));
#645=DIRECTION('',(-1.,0.,0.));
#646=DIRECTION('',(0.,0.,1.));
#647=DIRECTION('',(0.,1.,0.));
#648=DIRECTION('',(0.,0.,-1.));
#649=DIRECTION('',(0.,-1.,0.));
#650=DIRECTION('',(0.,0.,-1.));
#651=DIRECTION('',(-1.,0.,0.));
#652=DIRECTION('',(0.,0.,1.));
#653=DIRECTION('',(1.,0.,0.));
#654=DIRECTION('',(1.,0.,0.));
#655=DIRECTION('',(0.,0.,-1.));
#656=DIRECTION('',(0.,-1.,0.));
#657=DIRECTION('',(0.,0.,-1.));
#658=DIRECTION('',(0.,0.,-1.));
#659=DIRECTION('',(0.,1.,0.));
#660=DIRECTION('',(0.,0.,1.));
#661=DIRECTION('',(1.,0.,0.));
#662=DIRECTION('',(0.,0.,-1.));
#663=DIRECTION('',(-1.,0.,0.));
#664=DIRECTION('',(0.,0.,1.));
#665=DIRECTION('',(0.,1.,0.));
#666=DIRECTION('',(0.,0.,-1.));
#667=DIRECTION('',(0.,-1.,0.));
#668=DIRECTION('',(0.,0.,-1.));
#669=DIRECTION('',(-1.,0.,0.));
#670=DIRECTION('',(0.,0.,1.));
#671=DIRECTION('',(1.,0.,0.));
#672=CARTESIAN_POINT('',(0.,0.,0.));
#673=CARTESIAN_POINT('',(0.,0.,-2.2));
#674=CARTESIAN_POINT('',(-17.6,10.75,-2.2));
#675=CARTESIAN_POINT('',(-17.6,10.75,-2.2));
#676=CARTESIAN_POINT('',(-17.6,-34.75,-2.2));
#677=CARTESIAN_POINT('',(-17.6,-34.75,-2.2));
#678=CARTESIAN_POINT('',(-14.6,-34.75,-2.2));
#679=CARTESIAN_POINT('',(-14.6,-34.75,-2.2));
#680=CARTESIAN_POINT('',(-14.6,10.75,-2.2));
#681=CARTESIAN_POINT('',(-14.6,10.75,-2.2));
#682=CARTESIAN_POINT('',(23.,18.,-2.2));
#683=CARTESIAN_POINT('',(27.3,18.,-2.2));
#684=CARTESIAN_POINT('',(-23.,18.,-2.2));
#685=CARTESIAN_POINT('',(-18.7,18.,-2.2));
#686=CARTESIAN_POINT('',(23.,-43.,-2.2));
#687=CARTESIAN_POINT('',(27.3,-43.,-2.2));
#688=CARTESIAN_POINT('',(-23.,-43.,-2.2));
#689=CARTESIAN_POINT('',(-18.7,-43.,-2.2));
#690=CARTESIAN_POINT('',(0.,0.,-2.2));
#691=CARTESIAN_POINT('',(12.2,0.,-2.2));
#692=CARTESIAN_POINT('',(-28.,24.,-2.2));
#693=CARTESIAN_POINT('',(-28.,24.,-2.2));
#694=CARTESIAN_POINT('',(-28.,-49.,-2.2));
#695=CARTESIAN_POINT('',(28.,24.,-2.2));
#696=CARTESIAN_POINT('',(28.,24.,-2.2));
#697=CARTESIAN_POINT('',(28.,-49.,-2.2));
#698=CARTESIAN_POINT('',(28.,-49.,-2.2));
#699=CARTESIAN_POINT('',(-28.,-49.,-2.2));
#700=CARTESIAN_POINT('',(14.6,10.75,-2.2));
#701=CARTESIAN_POINT('',(14.6,10.75,-2.2));
#702=CARTESIAN_POINT('',(14.6,-34.75,-2.2));
#703=CARTESIAN_POINT('',(14.6,-34.75,-2.2));
#704=CARTESIAN_POINT('',(17.6,-34.75,-2.2));
#705=CARTESIAN_POINT('',(17.6,-34.75,-2.2));
#706=CARTESIAN_POINT('',(17.6,10.75,-2.2));
#707=CARTESIAN_POINT('',(17.6,10.75,-2.2));
#708=CARTESIAN_POINT('',(-28.,24.,1.8));
#709=CARTESIAN_POINT('',(-28.,-49.,1.8));
#710=CARTESIAN_POINT('',(-28.,-49.,1.8));
#711=CARTESIAN_POINT('',(-28.,24.,1.8));
#712=CARTESIAN_POINT('',(-28.,24.,1.8));
#713=CARTESIAN_POINT('',(-28.,24.,1.8));
#714=CARTESIAN_POINT('',(-28.,-49.,1.8));
#715=CARTESIAN_POINT('',(28.,-49.,1.8));
#716=CARTESIAN_POINT('',(28.,-49.,1.8));
#717=CARTESIAN_POINT('',(-28.,-49.,1.8));
#718=CARTESIAN_POINT('',(28.,-49.,1.8));
#719=CARTESIAN_POINT('',(28.,24.,1.8));
#720=CARTESIAN_POINT('',(28.,24.,1.8));
#721=CARTESIAN_POINT('',(28.,-49.,1.8));
#722=CARTESIAN_POINT('',(0.,0.,1.8));
#723=CARTESIAN_POINT('',(0.,0.,1.8));
#724=CARTESIAN_POINT('',(12.2,0.,1.8));
#725=CARTESIAN_POINT('',(-23.,-43.,1.8));
#726=CARTESIAN_POINT('',(-23.,-43.,1.8));
#727=CARTESIAN_POINT('',(-21.3,-43.,1.8));
#728=CARTESIAN_POINT('',(-23.,-43.,-36.2));
#729=CARTESIAN_POINT('',(-21.3,-43.,-36.2));
#730=CARTESIAN_POINT('',(23.,-43.,1.8));
#731=CARTESIAN_POINT('',(23.,-43.,1.8));
#732=CARTESIAN_POINT('',(24.7,-43.,1.8));
#733=CARTESIAN_POINT('',(23.,-43.,-36.2));
#734=CARTESIAN_POINT('',(24.7,-43.,-36.2));
#735=CARTESIAN_POINT('',(-23.,18.,1.8));
#736=CARTESIAN_POINT('',(-23.,18.,1.8));
#737=CARTESIAN_POINT('',(-21.3,18.,1.8));
#738=CARTESIAN_POINT('',(-23.,18.,-36.2));
#739=CARTESIAN_POINT('',(-21.3,18.,-36.2));
#740=CARTESIAN_POINT('',(23.,18.,1.8));
#741=CARTESIAN_POINT('',(23.,18.,1.8));
#742=CARTESIAN_POINT('',(24.7,18.,1.8));
#743=CARTESIAN_POINT('',(23.,18.,-36.2));
#744=CARTESIAN_POINT('',(24.7,18.,-36.2));
#745=CARTESIAN_POINT('',(28.,24.,1.8));
#746=CARTESIAN_POINT('',(28.,24.,1.8));
#747=CARTESIAN_POINT('',(0.,0.,1.8));
#748=CARTESIAN_POINT('',(-23.,-43.,-2.2));
#749=CARTESIAN_POINT('',(-23.,-43.,-36.2));
#750=CARTESIAN_POINT('',(-18.7,-43.,-36.2));
#751=CARTESIAN_POINT('',(-23.,-43.,-36.2));
#752=CARTESIAN_POINT('',(23.,-43.,-2.2));
#753=CARTESIAN_POINT('',(23.,-43.,-36.2));
#754=CARTESIAN_POINT('',(27.3,-43.,-36.2));
#755=CARTESIAN_POINT('',(23.,-43.,-36.2));
#756=CARTESIAN_POINT('',(-23.,18.,-2.2));
#757=CARTESIAN_POINT('',(-23.,18.,-36.2));
#758=CARTESIAN_POINT('',(-18.7,18.,-36.2));
#759=CARTESIAN_POINT('',(-23.,18.,-36.2));
#760=CARTESIAN_POINT('',(23.,18.,-2.2));
#761=CARTESIAN_POINT('',(23.,18.,-36.2));
#762=CARTESIAN_POINT('',(27.3,18.,-36.2));
#763=CARTESIAN_POINT('',(23.,18.,-36.2));
#764=CARTESIAN_POINT('',(-17.6,10.75,-2.2));
#765=CARTESIAN_POINT('',(-17.6,10.75,-36.2));
#766=CARTESIAN_POINT('',(-17.6,10.75,-36.2));
#767=CARTESIAN_POINT('',(-17.6,-34.75,-36.2));
#768=CARTESIAN_POINT('',(-17.6,-34.75,-2.2));
#769=CARTESIAN_POINT('',(-17.6,10.75,-2.2));
#770=CARTESIAN_POINT('',(-17.6,-34.75,-2.2));
#771=CARTESIAN_POINT('',(-17.6,-34.75,-36.2));
#772=CARTESIAN_POINT('',(-14.6,-34.75,-36.2));
#773=CARTESIAN_POINT('',(-14.6,-34.75,-2.2));
#774=CARTESIAN_POINT('',(-14.6,-34.75,-2.2));
#775=CARTESIAN_POINT('',(-14.6,-34.75,-36.2));
#776=CARTESIAN_POINT('',(-14.6,10.75,-36.2));
#777=CARTESIAN_POINT('',(-14.6,10.75,-2.2));
#778=CARTESIAN_POINT('',(-14.6,10.75,-2.2));
#779=CARTESIAN_POINT('',(-14.6,10.75,-36.2));
#780=CARTESIAN_POINT('',(0.,0.,-36.2));
#781=CARTESIAN_POINT('',(14.6,10.75,-2.2));
#782=CARTESIAN_POINT('',(14.6,10.75,-36.2));
#783=CARTESIAN_POINT('',(14.6,10.75,-36.2));
#784=CARTESIAN_POINT('',(14.6,-34.75,-36.2));
#785=CARTESIAN_POINT('',(14.6,-34.75,-2.2));
#786=CARTESIAN_POINT('',(14.6,10.75,-2.2));
#787=CARTESIAN_POINT('',(14.6,-34.75,-2.2));
#788=CARTESIAN_POINT('',(14.6,-34.75,-36.2));
#789=CARTESIAN_POINT('',(17.6,-34.75,-36.2));
#790=CARTESIAN_POINT('',(17.6,-34.75,-2.2));
#791=CARTESIAN_POINT('',(17.6,-34.75,-2.2));
#792=CARTESIAN_POINT('',(17.6,-34.75,-36.2));
#793=CARTESIAN_POINT('',(17.6,10.75,-36.2));
#794=CARTESIAN_POINT('',(17.6,10.75,-2.2));
#795=CARTESIAN_POINT('',(17.6,10.75,-2.2));
#796=CARTESIAN_POINT('',(17.6,10.75,-36.2));
#797=CARTESIAN_POINT('',(0.,0.,-36.2));
#798=MECHANICAL_DESIGN_GEOMETRIC_PRESENTATION_REPRESENTATION('',(#481),
#799);
#799=(
GEOMETRIC_REPRESENTATION_CONTEXT(3)
GLOBAL_UNCERTAINTY_ASSIGNED_CONTEXT((#800))
GLOBAL_UNIT_ASSIGNED_CONTEXT((#803,#802,#801))
REPRESENTATION_CONTEXT('M_XM_keyed_cradle','TOP_LEVEL_ASSEMBLY_PART')
);
#800=UNCERTAINTY_MEASURE_WITH_UNIT(LENGTH_MEASURE(0.005),#803,
'DISTANCE_ACCURACY_VALUE','Maximum Tolerance applied to model');
#801=(
NAMED_UNIT(*)
SI_UNIT($,.STERADIAN.)
SOLID_ANGLE_UNIT()
);
#802=(
NAMED_UNIT(*)
PLANE_ANGLE_UNIT()
SI_UNIT($,.RADIAN.)
);
#803=(
LENGTH_UNIT()
NAMED_UNIT(*)
SI_UNIT(.MILLI.,.METRE.)
);
#804=PRODUCT_DEFINITION_SHAPE('','',#805);
#805=PRODUCT_DEFINITION('','',#807,#806);
#806=PRODUCT_DEFINITION_CONTEXT('',#813,'design');
#807=PRODUCT_DEFINITION_FORMATION_WITH_SPECIFIED_SOURCE('','',#809,
 .NOT_KNOWN.);
#808=PRODUCT_RELATED_PRODUCT_CATEGORY('','',(#809));
#809=PRODUCT('M_XM_keyed_cradle','M_XM_keyed_cradle',
'M_XM_keyed_cradle',(#811));
#810=PRODUCT_CATEGORY('','');
#811=PRODUCT_CONTEXT('',#813,'mechanical');
#812=APPLICATION_PROTOCOL_DEFINITION('international standard',
'automotive_design',2010,#813);
#813=APPLICATION_CONTEXT(
'core data for automotive mechanical design processes');
ENDSEC;
END-ISO-10303-21;
