ISO-10303-21;
HEADER;
/* Generated by software containing ST-Developer
 * from STEP Tools, Inc. (www.steptools.com) 
 */
/* OPTION: strings as raw bytes, not using required /X/ escapes */

FILE_DESCRIPTION(
/* description */ ('Unknown'),
/* implementation_level */ '2;1');

FILE_NAME(
/* name */ 'M_XM_output_flange_b',
/* time_stamp */ '2026-09-23T12:06:34+08:00',
/* author */ ('Unknown'),
/* organization */ ('Unknown'),
/* preprocessor_version */ 'ST-DEVELOPER v16.7',
/* originating_system */ 'Solid Edge',
/* authorisation */ 'Unknown');

FILE_SCHEMA (('AUTOMOTIVE_DESIGN {1 0 10303 214 3 1 1}'));
ENDSEC;

DATA;
#10=PROPERTY_DEFINITION_REPRESENTATION(#14,#12);
#11=PROPERTY_DEFINITION_REPRESENTATION(#15,#13);
#12=REPRESENTATION('',(#16),#565);
#13=REPRESENTATION('',(#17),#565);
#14=PROPERTY_DEFINITION('pmi validation property','',#570);
#15=PROPERTY_DEFINITION('pmi validation property','',#570);
#16=VALUE_REPRESENTATION_ITEM('number of annotations',COUNT_MEASURE(0.));
#17=VALUE_REPRESENTATION_ITEM('number of views',COUNT_MEASURE(0.));
#18=SHAPE_REPRESENTATION_RELATIONSHIP('','',#337,#19);
#19=ADVANCED_BREP_SHAPE_REPRESENTATION('',(#335),#565);
#20=PLANE('',#369);
#21=PLANE('',#385);
#22=PLANE('',#386);
#23=ORIENTED_EDGE('',*,*,#83,.F.);
#24=ORIENTED_EDGE('',*,*,#84,.T.);
#25=ORIENTED_EDGE('',*,*,#85,.F.);
#26=ORIENTED_EDGE('',*,*,#86,.T.);
#27=ORIENTED_EDGE('',*,*,#87,.F.);
#28=ORIENTED_EDGE('',*,*,#88,.T.);
#29=ORIENTED_EDGE('',*,*,#89,.F.);
#30=ORIENTED_EDGE('',*,*,#90,.T.);
#31=ORIENTED_EDGE('',*,*,#91,.F.);
#32=ORIENTED_EDGE('',*,*,#92,.T.);
#33=ORIENTED_EDGE('',*,*,#93,.F.);
#34=ORIENTED_EDGE('',*,*,#94,.T.);
#35=ORIENTED_EDGE('',*,*,#95,.F.);
#36=ORIENTED_EDGE('',*,*,#96,.T.);
#37=ORIENTED_EDGE('',*,*,#97,.F.);
#38=ORIENTED_EDGE('',*,*,#98,.T.);
#39=ORIENTED_EDGE('',*,*,#99,.F.);
#40=ORIENTED_EDGE('',*,*,#100,.T.);
#41=ORIENTED_EDGE('',*,*,#101,.F.);
#42=ORIENTED_EDGE('',*,*,#102,.T.);
#43=ORIENTED_EDGE('',*,*,#99,.T.);
#44=ORIENTED_EDGE('',*,*,#97,.T.);
#45=ORIENTED_EDGE('',*,*,#95,.T.);
#46=ORIENTED_EDGE('',*,*,#93,.T.);
#47=ORIENTED_EDGE('',*,*,#91,.T.);
#48=ORIENTED_EDGE('',*,*,#89,.T.);
#49=ORIENTED_EDGE('',*,*,#87,.T.);
#50=ORIENTED_EDGE('',*,*,#85,.T.);
#51=ORIENTED_EDGE('',*,*,#83,.T.);
#52=ORIENTED_EDGE('',*,*,#102,.F.);
#53=ORIENTED_EDGE('',*,*,#103,.T.);
#54=ORIENTED_EDGE('',*,*,#104,.F.);
#55=ORIENTED_EDGE('',*,*,#105,.T.);
#56=ORIENTED_EDGE('',*,*,#106,.F.);
#57=ORIENTED_EDGE('',*,*,#107,.T.);
#58=ORIENTED_EDGE('',*,*,#108,.F.);
#59=ORIENTED_EDGE('',*,*,#109,.T.);
#60=ORIENTED_EDGE('',*,*,#110,.F.);
#61=ORIENTED_EDGE('',*,*,#111,.F.);
#62=ORIENTED_EDGE('',*,*,#112,.T.);
#63=ORIENTED_EDGE('',*,*,#109,.F.);
#64=ORIENTED_EDGE('',*,*,#107,.F.);
#65=ORIENTED_EDGE('',*,*,#105,.F.);
#66=ORIENTED_EDGE('',*,*,#103,.F.);
#67=ORIENTED_EDGE('',*,*,#100,.F.);
#68=ORIENTED_EDGE('',*,*,#98,.F.);
#69=ORIENTED_EDGE('',*,*,#96,.F.);
#70=ORIENTED_EDGE('',*,*,#94,.F.);
#71=ORIENTED_EDGE('',*,*,#92,.F.);
#72=ORIENTED_EDGE('',*,*,#90,.F.);
#73=ORIENTED_EDGE('',*,*,#88,.F.);
#74=ORIENTED_EDGE('',*,*,#86,.F.);
#75=ORIENTED_EDGE('',*,*,#84,.F.);
#76=ORIENTED_EDGE('',*,*,#111,.T.);
#77=ORIENTED_EDGE('',*,*,#101,.T.);
#78=ORIENTED_EDGE('',*,*,#110,.T.);
#79=ORIENTED_EDGE('',*,*,#108,.T.);
#80=ORIENTED_EDGE('',*,*,#106,.T.);
#81=ORIENTED_EDGE('',*,*,#104,.T.);
#82=ORIENTED_EDGE('',*,*,#112,.F.);
#83=EDGE_CURVE('',#113,#113,#143,.T.);
#84=EDGE_CURVE('',#114,#114,#144,.T.);
#85=EDGE_CURVE('',#115,#115,#145,.T.);
#86=EDGE_CURVE('',#116,#116,#146,.T.);
#87=EDGE_CURVE('',#117,#117,#147,.T.);
#88=EDGE_CURVE('',#118,#118,#148,.T.);
#89=EDGE_CURVE('',#119,#119,#149,.T.);
#90=EDGE_CURVE('',#120,#120,#150,.T.);
#91=EDGE_CURVE('',#121,#121,#151,.T.);
#92=EDGE_CURVE('',#122,#122,#152,.T.);
#93=EDGE_CURVE('',#123,#123,#153,.T.);
#94=EDGE_CURVE('',#124,#124,#154,.T.);
#95=EDGE_CURVE('',#125,#125,#155,.T.);
#96=EDGE_CURVE('',#126,#126,#156,.T.);
#97=EDGE_CURVE('',#127,#127,#157,.T.);
#98=EDGE_CURVE('',#128,#128,#158,.T.);
#99=EDGE_CURVE('',#129,#129,#159,.T.);
#100=EDGE_CURVE('',#130,#130,#160,.T.);
#101=EDGE_CURVE('',#131,#131,#161,.T.);
#102=EDGE_CURVE('',#132,#132,#162,.T.);
#103=EDGE_CURVE('',#133,#133,#163,.T.);
#104=EDGE_CURVE('',#134,#134,#164,.T.);
#105=EDGE_CURVE('',#135,#135,#165,.T.);
#106=EDGE_CURVE('',#136,#136,#166,.T.);
#107=EDGE_CURVE('',#137,#137,#167,.T.);
#108=EDGE_CURVE('',#138,#138,#168,.T.);
#109=EDGE_CURVE('',#139,#139,#169,.T.);
#110=EDGE_CURVE('',#140,#140,#170,.T.);
#111=EDGE_CURVE('',#141,#141,#171,.T.);
#112=EDGE_CURVE('',#142,#142,#172,.T.);
#113=VERTEX_POINT('',#488);
#114=VERTEX_POINT('',#490);
#115=VERTEX_POINT('',#493);
#116=VERTEX_POINT('',#495);
#117=VERTEX_POINT('',#498);
#118=VERTEX_POINT('',#500);
#119=VERTEX_POINT('',#503);
#120=VERTEX_POINT('',#505);
#121=VERTEX_POINT('',#508);
#122=VERTEX_POINT('',#510);
#123=VERTEX_POINT('',#513);
#124=VERTEX_POINT('',#515);
#125=VERTEX_POINT('',#518);
#126=VERTEX_POINT('',#520);
#127=VERTEX_POINT('',#523);
#128=VERTEX_POINT('',#525);
#129=VERTEX_POINT('',#528);
#130=VERTEX_POINT('',#530);
#131=VERTEX_POINT('',#533);
#132=VERTEX_POINT('',#535);
#133=VERTEX_POINT('',#539);
#134=VERTEX_POINT('',#541);
#135=VERTEX_POINT('',#544);
#136=VERTEX_POINT('',#546);
#137=VERTEX_POINT('',#549);
#138=VERTEX_POINT('',#551);
#139=VERTEX_POINT('',#554);
#140=VERTEX_POINT('',#556);
#141=VERTEX_POINT('',#559);
#142=VERTEX_POINT('',#561);
#143=CIRCLE('',#340,4.);
#144=CIRCLE('',#341,4.);
#145=CIRCLE('',#343,1.15);
#146=CIRCLE('',#344,1.15);
#147=CIRCLE('',#346,1.15);
#148=CIRCLE('',#347,1.15);
#149=CIRCLE('',#349,1.15);
#150=CIRCLE('',#350,1.15);
#151=CIRCLE('',#352,1.15);
#152=CIRCLE('',#353,1.15);
#153=CIRCLE('',#355,1.15);
#154=CIRCLE('',#356,1.15);
#155=CIRCLE('',#358,1.15);
#156=CIRCLE('',#359,1.15);
#157=CIRCLE('',#361,1.15);
#158=CIRCLE('',#362,1.15);
#159=CIRCLE('',#364,1.15);
#160=CIRCLE('',#365,1.15);
#161=CIRCLE('',#367,11.);
#162=CIRCLE('',#368,11.);
#163=CIRCLE('',#371,1.7);
#164=CIRCLE('',#372,1.7);
#165=CIRCLE('',#374,1.7);
#166=CIRCLE('',#375,1.7);
#167=CIRCLE('',#377,1.7);
#168=CIRCLE('',#378,1.7);
#169=CIRCLE('',#380,1.7);
#170=CIRCLE('',#381,1.7);
#171=CIRCLE('',#383,21.);
#172=CIRCLE('',#384,21.);
#173=EDGE_LOOP('',(#23));
#174=EDGE_LOOP('',(#24));
#175=EDGE_LOOP('',(#25));
#176=EDGE_LOOP('',(#26));
#177=EDGE_LOOP('',(#27));
#178=EDGE_LOOP('',(#28));
#179=EDGE_LOOP('',(#29));
#180=EDGE_LOOP('',(#30));
#181=EDGE_LOOP('',(#31));
#182=EDGE_LOOP('',(#32));
#183=EDGE_LOOP('',(#33));
#184=EDGE_LOOP('',(#34));
#185=EDGE_LOOP('',(#35));
#186=EDGE_LOOP('',(#36));
#187=EDGE_LOOP('',(#37));
#188=EDGE_LOOP('',(#38));
#189=EDGE_LOOP('',(#39));
#190=EDGE_LOOP('',(#40));
#191=EDGE_LOOP('',(#41));
#192=EDGE_LOOP('',(#42));
#193=EDGE_LOOP('',(#43));
#194=EDGE_LOOP('',(#44));
#195=EDGE_LOOP('',(#45));
#196=EDGE_LOOP('',(#46));
#197=EDGE_LOOP('',(#47));
#198=EDGE_LOOP('',(#48));
#199=EDGE_LOOP('',(#49));
#200=EDGE_LOOP('',(#50));
#201=EDGE_LOOP('',(#51));
#202=EDGE_LOOP('',(#52));
#203=EDGE_LOOP('',(#53));
#204=EDGE_LOOP('',(#54));
#205=EDGE_LOOP('',(#55));
#206=EDGE_LOOP('',(#56));
#207=EDGE_LOOP('',(#57));
#208=EDGE_LOOP('',(#58));
#209=EDGE_LOOP('',(#59));
#210=EDGE_LOOP('',(#60));
#211=EDGE_LOOP('',(#61));
#212=EDGE_LOOP('',(#62));
#213=EDGE_LOOP('',(#63));
#214=EDGE_LOOP('',(#64));
#215=EDGE_LOOP('',(#65));
#216=EDGE_LOOP('',(#66));
#217=EDGE_LOOP('',(#67));
#218=EDGE_LOOP('',(#68));
#219=EDGE_LOOP('',(#69));
#220=EDGE_LOOP('',(#70));
#221=EDGE_LOOP('',(#71));
#222=EDGE_LOOP('',(#72));
#223=EDGE_LOOP('',(#73));
#224=EDGE_LOOP('',(#74));
#225=EDGE_LOOP('',(#75));
#226=EDGE_LOOP('',(#76));
#227=EDGE_LOOP('',(#77));
#228=EDGE_LOOP('',(#78));
#229=EDGE_LOOP('',(#79));
#230=EDGE_LOOP('',(#80));
#231=EDGE_LOOP('',(#81));
#232=EDGE_LOOP('',(#82));
#233=FACE_BOUND('',#173,.T.);
#234=FACE_BOUND('',#174,.T.);
#235=FACE_BOUND('',#175,.T.);
#236=FACE_BOUND('',#176,.T.);
#237=FACE_BOUND('',#177,.T.);
#238=FACE_BOUND('',#178,.T.);
#239=FACE_BOUND('',#179,.T.);
#240=FACE_BOUND('',#180,.T.);
#241=FACE_BOUND('',#181,.T.);
#242=FACE_BOUND('',#182,.T.);
#243=FACE_BOUND('',#183,.T.);
#244=FACE_BOUND('',#184,.T.);
#245=FACE_BOUND('',#185,.T.);
#246=FACE_BOUND('',#186,.T.);
#247=FACE_BOUND('',#187,.T.);
#248=FACE_BOUND('',#188,.T.);
#249=FACE_BOUND('',#189,.T.);
#250=FACE_BOUND('',#190,.T.);
#251=FACE_BOUND('',#191,.T.);
#252=FACE_BOUND('',#192,.T.);
#253=FACE_BOUND('',#193,.T.);
#254=FACE_BOUND('',#194,.T.);
#255=FACE_BOUND('',#195,.T.);
#256=FACE_BOUND('',#196,.T.);
#257=FACE_BOUND('',#197,.T.);
#258=FACE_BOUND('',#198,.T.);
#259=FACE_BOUND('',#199,.T.);
#260=FACE_BOUND('',#200,.T.);
#261=FACE_BOUND('',#201,.T.);
#262=FACE_BOUND('',#202,.T.);
#263=FACE_BOUND('',#203,.T.);
#264=FACE_BOUND('',#204,.T.);
#265=FACE_BOUND('',#205,.T.);
#266=FACE_BOUND('',#206,.T.);
#267=FACE_BOUND('',#207,.T.);
#268=FACE_BOUND('',#208,.T.);
#269=FACE_BOUND('',#209,.T.);
#270=FACE_BOUND('',#210,.T.);
#271=FACE_BOUND('',#211,.T.);
#272=FACE_BOUND('',#212,.T.);
#273=FACE_BOUND('',#213,.T.);
#274=FACE_BOUND('',#214,.T.);
#275=FACE_BOUND('',#215,.T.);
#276=FACE_BOUND('',#216,.T.);
#277=FACE_BOUND('',#217,.T.);
#278=FACE_BOUND('',#218,.T.);
#279=FACE_BOUND('',#219,.T.);
#280=FACE_BOUND('',#220,.T.);
#281=FACE_BOUND('',#221,.T.);
#282=FACE_BOUND('',#222,.T.);
#283=FACE_BOUND('',#223,.T.);
#284=FACE_BOUND('',#224,.T.);
#285=FACE_BOUND('',#225,.T.);
#286=FACE_BOUND('',#226,.T.);
#287=FACE_BOUND('',#227,.T.);
#288=FACE_BOUND('',#228,.T.);
#289=FACE_BOUND('',#229,.T.);
#290=FACE_BOUND('',#230,.T.);
#291=FACE_BOUND('',#231,.T.);
#292=FACE_BOUND('',#232,.T.);
#293=CYLINDRICAL_SURFACE('',#339,4.);
#294=CYLINDRICAL_SURFACE('',#342,1.15);
#295=CYLINDRICAL_SURFACE('',#345,1.15);
#296=CYLINDRICAL_SURFACE('',#348,1.15);
#297=CYLINDRICAL_SURFACE('',#351,1.15);
#298=CYLINDRICAL_SURFACE('',#354,1.15);
#299=CYLINDRICAL_SURFACE('',#357,1.15);
#300=CYLINDRICAL_SURFACE('',#360,1.15);
#301=CYLINDRICAL_SURFACE('',#363,1.15);
#302=CYLINDRICAL_SURFACE('',#366,11.);
#303=CYLINDRICAL_SURFACE('',#370,1.7);
#304=CYLINDRICAL_SURFACE('',#373,1.7);
#305=CYLINDRICAL_SURFACE('',#376,1.7);
#306=CYLINDRICAL_SURFACE('',#379,1.7);
#307=CYLINDRICAL_SURFACE('',#382,21.);
#308=ADVANCED_FACE('',(#233,#234),#293,.F.);
#309=ADVANCED_FACE('',(#235,#236),#294,.F.);
#310=ADVANCED_FACE('',(#237,#238),#295,.F.);
#311=ADVANCED_FACE('',(#239,#240),#296,.F.);
#312=ADVANCED_FACE('',(#241,#242),#297,.F.);
#313=ADVANCED_FACE('',(#243,#244),#298,.F.);
#314=ADVANCED_FACE('',(#245,#246),#299,.F.);
#315=ADVANCED_FACE('',(#247,#248),#300,.F.);
#316=ADVANCED_FACE('',(#249,#250),#301,.F.);
#317=ADVANCED_FACE('',(#251,#252),#302,.T.);
#318=ADVANCED_FACE('',(#253,#254,#255,#256,#257,#258,#259,#260,#261,#262),
#20,.F.);
#319=ADVANCED_FACE('',(#263,#264),#303,.F.);
#320=ADVANCED_FACE('',(#265,#266),#304,.F.);
#321=ADVANCED_FACE('',(#267,#268),#305,.F.);
#322=ADVANCED_FACE('',(#269,#270),#306,.F.);
#323=ADVANCED_FACE('',(#271,#272),#307,.T.);
#324=ADVANCED_FACE('',(#273,#274,#275,#276,#277,#278,#279,#280,#281,#282,
#283,#284,#285,#286),#21,.T.);
#325=ADVANCED_FACE('',(#287,#288,#289,#290,#291,#292),#22,.F.);
#326=CLOSED_SHELL('',(#308,#309,#310,#311,#312,#313,#314,#315,#316,#317,
#318,#319,#320,#321,#322,#323,#324,#325));
#327=STYLED_ITEM('',(#328),#335);
#328=PRESENTATION_STYLE_ASSIGNMENT((#329));
#329=SURFACE_STYLE_USAGE(.BOTH.,#330);
#330=SURFACE_SIDE_STYLE('',(#331));
#331=SURFACE_STYLE_FILL_AREA(#332);
#332=FILL_AREA_STYLE('',(#333));
#333=FILL_AREA_STYLE_COLOUR('',#334);
#334=COLOUR_RGB('',0.100000001490116,0.349999994039536,0.280000001192093);
#335=MANIFOLD_SOLID_BREP('',#326);
#336=SHAPE_DEFINITION_REPRESENTATION(#570,#337);
#337=SHAPE_REPRESENTATION('M_XM_output_flange_b',(#338),#565);
#338=AXIS2_PLACEMENT_3D('',#485,#387,#388);
#339=AXIS2_PLACEMENT_3D('',#486,#389,#390);
#340=AXIS2_PLACEMENT_3D('',#487,#391,#392);
#341=AXIS2_PLACEMENT_3D('',#489,#393,#394);
#342=AXIS2_PLACEMENT_3D('',#491,#395,#396);
#343=AXIS2_PLACEMENT_3D('',#492,#397,#398);
#344=AXIS2_PLACEMENT_3D('',#494,#399,#400);
#345=AXIS2_PLACEMENT_3D('',#496,#401,#402);
#346=AXIS2_PLACEMENT_3D('',#497,#403,#404);
#347=AXIS2_PLACEMENT_3D('',#499,#405,#406);
#348=AXIS2_PLACEMENT_3D('',#501,#407,#408);
#349=AXIS2_PLACEMENT_3D('',#502,#409,#410);
#350=AXIS2_PLACEMENT_3D('',#504,#411,#412);
#351=AXIS2_PLACEMENT_3D('',#506,#413,#414);
#352=AXIS2_PLACEMENT_3D('',#507,#415,#416);
#353=AXIS2_PLACEMENT_3D('',#509,#417,#418);
#354=AXIS2_PLACEMENT_3D('',#511,#419,#420);
#355=AXIS2_PLACEMENT_3D('',#512,#421,#422);
#356=AXIS2_PLACEMENT_3D('',#514,#423,#424);
#357=AXIS2_PLACEMENT_3D('',#516,#425,#426);
#358=AXIS2_PLACEMENT_3D('',#517,#427,#428);
#359=AXIS2_PLACEMENT_3D('',#519,#429,#430);
#360=AXIS2_PLACEMENT_3D('',#521,#431,#432);
#361=AXIS2_PLACEMENT_3D('',#522,#433,#434);
#362=AXIS2_PLACEMENT_3D('',#524,#435,#436);
#363=AXIS2_PLACEMENT_3D('',#526,#437,#438);
#364=AXIS2_PLACEMENT_3D('',#527,#439,#440);
#365=AXIS2_PLACEMENT_3D('',#529,#441,#442);
#366=AXIS2_PLACEMENT_3D('',#531,#443,#444);
#367=AXIS2_PLACEMENT_3D('',#532,#445,#446);
#368=AXIS2_PLACEMENT_3D('',#534,#447,#448);
#369=AXIS2_PLACEMENT_3D('',#536,#449,#450);
#370=AXIS2_PLACEMENT_3D('',#537,#451,#452);
#371=AXIS2_PLACEMENT_3D('',#538,#453,#454);
#372=AXIS2_PLACEMENT_3D('',#540,#455,#456);
#373=AXIS2_PLACEMENT_3D('',#542,#457,#458);
#374=AXIS2_PLACEMENT_3D('',#543,#459,#460);
#375=AXIS2_PLACEMENT_3D('',#545,#461,#462);
#376=AXIS2_PLACEMENT_3D('',#547,#463,#464);
#377=AXIS2_PLACEMENT_3D('',#548,#465,#466);
#378=AXIS2_PLACEMENT_3D('',#550,#467,#468);
#379=AXIS2_PLACEMENT_3D('',#552,#469,#470);
#380=AXIS2_PLACEMENT_3D('',#553,#471,#472);
#381=AXIS2_PLACEMENT_3D('',#555,#473,#474);
#382=AXIS2_PLACEMENT_3D('',#557,#475,#476);
#383=AXIS2_PLACEMENT_3D('',#558,#477,#478);
#384=AXIS2_PLACEMENT_3D('',#560,#479,#480);
#385=AXIS2_PLACEMENT_3D('',#562,#481,#482);
#386=AXIS2_PLACEMENT_3D('',#563,#483,#484);
#387=DIRECTION('',(0.,0.,1.));
#388=DIRECTION('',(1.,0.,0.));
#389=DIRECTION('',(0.,0.,-1.));
#390=DIRECTION('',(-1.,0.,0.));
#391=DIRECTION('',(0.,0.,1.));
#392=DIRECTION('',(1.,0.,0.));
#393=DIRECTION('',(0.,0.,1.));
#394=DIRECTION('',(1.,0.,0.));
#395=DIRECTION('',(0.,0.,-1.));
#396=DIRECTION('',(-1.,0.,0.));
#397=DIRECTION('',(0.,0.,1.));
#398=DIRECTION('',(1.,0.,0.));
#399=DIRECTION('',(0.,0.,1.));
#400=DIRECTION('',(1.,0.,0.));
#401=DIRECTION('',(0.,0.,-1.));
#402=DIRECTION('',(-1.,0.,0.));
#403=DIRECTION('',(0.,0.,1.));
#404=DIRECTION('',(1.,0.,0.));
#405=DIRECTION('',(0.,0.,1.));
#406=DIRECTION('',(1.,0.,0.));
#407=DIRECTION('',(0.,0.,-1.));
#408=DIRECTION('',(-1.,0.,0.));
#409=DIRECTION('',(0.,0.,1.));
#410=DIRECTION('',(1.,0.,0.));
#411=DIRECTION('',(0.,0.,1.));
#412=DIRECTION('',(1.,0.,0.));
#413=DIRECTION('',(0.,0.,-1.));
#414=DIRECTION('',(-1.,0.,0.));
#415=DIRECTION('',(0.,0.,1.));
#416=DIRECTION('',(1.,0.,0.));
#417=DIRECTION('',(0.,0.,1.));
#418=DIRECTION('',(1.,0.,0.));
#419=DIRECTION('',(0.,0.,-1.));
#420=DIRECTION('',(-1.,0.,0.));
#421=DIRECTION('',(0.,0.,1.));
#422=DIRECTION('',(1.,0.,0.));
#423=DIRECTION('',(0.,0.,1.));
#424=DIRECTION('',(1.,0.,0.));
#425=DIRECTION('',(0.,0.,-1.));
#426=DIRECTION('',(-1.,0.,0.));
#427=DIRECTION('',(0.,0.,1.));
#428=DIRECTION('',(1.,0.,0.));
#429=DIRECTION('',(0.,0.,1.));
#430=DIRECTION('',(1.,0.,0.));
#431=DIRECTION('',(0.,0.,-1.));
#432=DIRECTION('',(-1.,0.,0.));
#433=DIRECTION('',(0.,0.,1.));
#434=DIRECTION('',(1.,0.,0.));
#435=DIRECTION('',(0.,0.,1.));
#436=DIRECTION('',(1.,0.,0.));
#437=DIRECTION('',(0.,0.,-1.));
#438=DIRECTION('',(-1.,0.,0.));
#439=DIRECTION('',(0.,0.,1.));
#440=DIRECTION('',(1.,0.,0.));
#441=DIRECTION('',(0.,0.,1.));
#442=DIRECTION('',(1.,0.,0.));
#443=DIRECTION('',(0.,0.,-1.));
#444=DIRECTION('',(-1.,0.,0.));
#445=DIRECTION('',(0.,0.,1.));
#446=DIRECTION('',(1.,0.,0.));
#447=DIRECTION('',(0.,0.,1.));
#448=DIRECTION('',(1.,0.,0.));
#449=DIRECTION('',(0.,0.,1.));
#450=DIRECTION('',(1.,0.,0.));
#451=DIRECTION('',(0.,0.,-1.));
#452=DIRECTION('',(-1.,0.,0.));
#453=DIRECTION('',(0.,0.,1.));
#454=DIRECTION('',(1.,0.,0.));
#455=DIRECTION('',(0.,0.,1.));
#456=DIRECTION('',(1.,0.,0.));
#457=DIRECTION('',(0.,0.,-1.));
#458=DIRECTION('',(-1.,0.,0.));
#459=DIRECTION('',(0.,0.,1.));
#460=DIRECTION('',(1.,0.,0.));
#461=DIRECTION('',(0.,0.,1.));
#462=DIRECTION('',(1.,0.,0.));
#463=DIRECTION('',(0.,0.,-1.));
#464=DIRECTION('',(-1.,0.,0.));
#465=DIRECTION('',(0.,0.,1.));
#466=DIRECTION('',(1.,0.,0.));
#467=DIRECTION('',(0.,0.,1.));
#468=DIRECTION('',(1.,0.,0.));
#469=DIRECTION('',(0.,0.,-1.));
#470=DIRECTION('',(-1.,0.,0.));
#471=DIRECTION('',(0.,0.,1.));
#472=DIRECTION('',(1.,0.,0.));
#473=DIRECTION('',(0.,0.,1.));
#474=DIRECTION('',(1.,0.,0.));
#475=DIRECTION('',(0.,0.,-1.));
#476=DIRECTION('',(-1.,0.,0.));
#477=DIRECTION('',(0.,0.,1.));
#478=DIRECTION('',(1.,0.,0.));
#479=DIRECTION('',(0.,0.,1.));
#480=DIRECTION('',(1.,0.,0.));
#481=DIRECTION('',(0.,0.,1.));
#482=DIRECTION('',(1.,0.,0.));
#483=DIRECTION('',(0.,0.,1.));
#484=DIRECTION('',(1.,0.,0.));
#485=CARTESIAN_POINT('',(0.,0.,0.));
#486=CARTESIAN_POINT('',(0.,0.,2.2));
#487=CARTESIAN_POINT('',(0.,0.,0.));
#488=CARTESIAN_POINT('',(4.,0.,0.));
#489=CARTESIAN_POINT('',(0.,0.,6.2));
#490=CARTESIAN_POINT('',(4.,0.,6.2));
#491=CARTESIAN_POINT('',(8.,0.,2.2));
#492=CARTESIAN_POINT('',(8.,0.,0.));
#493=CARTESIAN_POINT('',(9.15,0.,0.));
#494=CARTESIAN_POINT('',(8.,0.,6.2));
#495=CARTESIAN_POINT('',(9.15,0.,6.2));
#496=CARTESIAN_POINT('',(5.65685424949238,5.65685424949238,2.2));
#497=CARTESIAN_POINT('',(5.65685424949238,5.65685424949238,0.));
#498=CARTESIAN_POINT('',(6.80685424949238,5.65685424949238,0.));
#499=CARTESIAN_POINT('',(5.65685424949238,5.65685424949238,6.2));
#500=CARTESIAN_POINT('',(6.80685424949238,5.65685424949238,6.2));
#501=CARTESIAN_POINT('',(4.89858719658941E-16,8.,2.2));
#502=CARTESIAN_POINT('',(4.89858719658941E-16,8.,0.));
#503=CARTESIAN_POINT('',(1.15,8.,0.));
#504=CARTESIAN_POINT('',(4.89858719658941E-16,8.,6.2));
#505=CARTESIAN_POINT('',(1.15,8.,6.2));
#506=CARTESIAN_POINT('',(-5.65685424949238,5.65685424949238,2.2));
#507=CARTESIAN_POINT('',(-5.65685424949238,5.65685424949238,0.));
#508=CARTESIAN_POINT('',(-4.50685424949238,5.65685424949238,0.));
#509=CARTESIAN_POINT('',(-5.65685424949238,5.65685424949238,6.2));
#510=CARTESIAN_POINT('',(-4.50685424949238,5.65685424949238,6.2));
#511=CARTESIAN_POINT('',(-8.,9.79717439317883E-16,2.2));
#512=CARTESIAN_POINT('',(-8.,9.79717439317883E-16,0.));
#513=CARTESIAN_POINT('',(-6.85,9.79717439317883E-16,0.));
#514=CARTESIAN_POINT('',(-8.,9.79717439317883E-16,6.2));
#515=CARTESIAN_POINT('',(-6.85,9.79717439317883E-16,6.2));
#516=CARTESIAN_POINT('',(-5.65685424949238,-5.65685424949238,2.2));
#517=CARTESIAN_POINT('',(-5.65685424949238,-5.65685424949238,0.));
#518=CARTESIAN_POINT('',(-4.50685424949238,-5.65685424949238,0.));
#519=CARTESIAN_POINT('',(-5.65685424949238,-5.65685424949238,6.2));
#520=CARTESIAN_POINT('',(-4.50685424949238,-5.65685424949238,6.2));
#521=CARTESIAN_POINT('',(-1.46957615897682E-15,-8.,2.2));
#522=CARTESIAN_POINT('',(-1.46957615897682E-15,-8.,0.));
#523=CARTESIAN_POINT('',(1.15,-8.,0.));
#524=CARTESIAN_POINT('',(-1.46957615897682E-15,-8.,6.2));
#525=CARTESIAN_POINT('',(1.15,-8.,6.2));
#526=CARTESIAN_POINT('',(5.65685424949238,-5.65685424949238,2.2));
#527=CARTESIAN_POINT('',(5.65685424949238,-5.65685424949238,0.));
#528=CARTESIAN_POINT('',(6.80685424949238,-5.65685424949238,0.));
#529=CARTESIAN_POINT('',(5.65685424949238,-5.65685424949238,6.2));
#530=CARTESIAN_POINT('',(6.80685424949238,-5.65685424949238,6.2));
#531=CARTESIAN_POINT('',(0.,0.,2.2));
#532=CARTESIAN_POINT('',(0.,0.,2.2));
#533=CARTESIAN_POINT('',(11.,0.,2.2));
#534=CARTESIAN_POINT('',(0.,0.,0.));
#535=CARTESIAN_POINT('',(11.,0.,0.));
#536=CARTESIAN_POINT('',(0.,0.,0.));
#537=CARTESIAN_POINT('',(11.3137084989848,11.3137084989848,6.2));
#538=CARTESIAN_POINT('',(11.3137084989848,11.3137084989848,6.2));
#539=CARTESIAN_POINT('',(13.0137084989848,11.3137084989848,6.2));
#540=CARTESIAN_POINT('',(11.3137084989848,11.3137084989848,2.2));
#541=CARTESIAN_POINT('',(13.0137084989848,11.3137084989848,2.2));
#542=CARTESIAN_POINT('',(-11.3137084989848,11.3137084989848,6.2));
#543=CARTESIAN_POINT('',(-11.3137084989848,11.3137084989848,6.2));
#544=CARTESIAN_POINT('',(-9.61370849898476,11.3137084989848,6.2));
#545=CARTESIAN_POINT('',(-11.3137084989848,11.3137084989848,2.2));
#546=CARTESIAN_POINT('',(-9.61370849898476,11.3137084989848,2.2));
#547=CARTESIAN_POINT('',(-11.3137084989848,-11.3137084989848,6.2));
#548=CARTESIAN_POINT('',(-11.3137084989848,-11.3137084989848,6.2));
#549=CARTESIAN_POINT('',(-9.61370849898476,-11.3137084989848,6.2));
#550=CARTESIAN_POINT('',(-11.3137084989848,-11.3137084989848,2.2));
#551=CARTESIAN_POINT('',(-9.61370849898476,-11.3137084989848,2.2));
#552=CARTESIAN_POINT('',(11.3137084989848,-11.3137084989848,6.2));
#553=CARTESIAN_POINT('',(11.3137084989848,-11.3137084989848,6.2));
#554=CARTESIAN_POINT('',(13.0137084989848,-11.3137084989848,6.2));
#555=CARTESIAN_POINT('',(11.3137084989848,-11.3137084989848,2.2));
#556=CARTESIAN_POINT('',(13.0137084989848,-11.3137084989848,2.2));
#557=CARTESIAN_POINT('',(0.,0.,6.2));
#558=CARTESIAN_POINT('',(0.,0.,6.2));
#559=CARTESIAN_POINT('',(21.,0.,6.2));
#560=CARTESIAN_POINT('',(0.,0.,2.2));
#561=CARTESIAN_POINT('',(21.,0.,2.2));
#562=CARTESIAN_POINT('',(0.,0.,6.2));
#563=CARTESIAN_POINT('',(0.,0.,2.2));
#564=MECHANICAL_DESIGN_GEOMETRIC_PRESENTATION_REPRESENTATION('',(#327),
#565);
#565=(
GEOMETRIC_REPRESENTATION_CONTEXT(3)
GLOBAL_UNCERTAINTY_ASSIGNED_CONTEXT((#566))
GLOBAL_UNIT_ASSIGNED_CONTEXT((#569,#568,#567))
REPRESENTATION_CONTEXT('M_XM_output_flange_b','TOP_LEVEL_ASSEMBLY_PART')
);
#566=UNCERTAINTY_MEASURE_WITH_UNIT(LENGTH_MEASURE(0.005),#569,
'DISTANCE_ACCURACY_VALUE','Maximum Tolerance applied to model');
#567=(
NAMED_UNIT(*)
SI_UNIT($,.STERADIAN.)
SOLID_ANGLE_UNIT()
);
#568=(
NAMED_UNIT(*)
PLANE_ANGLE_UNIT()
SI_UNIT($,.RADIAN.)
);
#569=(
LENGTH_UNIT()
NAMED_UNIT(*)
SI_UNIT(.MILLI.,.METRE.)
);
#570=PRODUCT_DEFINITION_SHAPE('','',#571);
#571=PRODUCT_DEFINITION('','',#573,#572);
#572=PRODUCT_DEFINITION_CONTEXT('',#579,'design');
#573=PRODUCT_DEFINITION_FORMATION_WITH_SPECIFIED_SOURCE('','',#575,
 .NOT_KNOWN.);
#574=PRODUCT_RELATED_PRODUCT_CATEGORY('','',(#575));
#575=PRODUCT('M_XM_output_flange_b','M_XM_output_flange_b',
'M_XM_output_flange_b',(#577));
#576=PRODUCT_CATEGORY('','');
#577=PRODUCT_CONTEXT('',#579,'mechanical');
#578=APPLICATION_PROTOCOL_DEFINITION('international standard',
'automotive_design',2010,#579);
#579=APPLICATION_CONTEXT(
'core data for automotive mechanical design processes');
ENDSEC;
END-ISO-10303-21;
